%TF.GenerationSoftware,KiCad,Pcbnew,7.0.1*%
%TF.CreationDate,2023-09-17T16:52:06+09:00*%
%TF.ProjectId,Mix necessary function,4d697820-6e65-4636-9573-736172792066,rev?*%
%TF.SameCoordinates,Original*%
%TF.FileFunction,Copper,L1,Top*%
%TF.FilePolarity,Positive*%
%FSLAX46Y46*%
G04 Gerber Fmt 4.6, Leading zero omitted, Abs format (unit mm)*
G04 Created by KiCad (PCBNEW 7.0.1) date 2023-09-17 16:52:06*
%MOMM*%
%LPD*%
G01*
G04 APERTURE LIST*
%TA.AperFunction,ComponentPad*%
%ADD10R,1.508000X1.508000*%
%TD*%
%TA.AperFunction,ComponentPad*%
%ADD11C,1.508000*%
%TD*%
%TA.AperFunction,SMDPad,CuDef*%
%ADD12R,2.500000X2.000000*%
%TD*%
%TA.AperFunction,SMDPad,CuDef*%
%ADD13R,6.000000X6.000000*%
%TD*%
%TA.AperFunction,SMDPad,CuDef*%
%ADD14R,0.400000X0.350000*%
%TD*%
%TA.AperFunction,ComponentPad*%
%ADD15C,2.550000*%
%TD*%
%TA.AperFunction,ComponentPad*%
%ADD16C,5.016000*%
%TD*%
%TA.AperFunction,ComponentPad*%
%ADD17C,1.108000*%
%TD*%
%TA.AperFunction,ComponentPad*%
%ADD18R,1.108000X1.108000*%
%TD*%
%TA.AperFunction,ComponentPad*%
%ADD19C,1.300000*%
%TD*%
%TA.AperFunction,SMDPad,CuDef*%
%ADD20R,0.800000X0.700000*%
%TD*%
%TA.AperFunction,SMDPad,CuDef*%
%ADD21R,1.200000X0.800000*%
%TD*%
%TA.AperFunction,SMDPad,CuDef*%
%ADD22R,1.000000X1.200000*%
%TD*%
%TA.AperFunction,ViaPad*%
%ADD23C,0.756400*%
%TD*%
%TA.AperFunction,Conductor*%
%ADD24C,0.200000*%
%TD*%
%TA.AperFunction,Conductor*%
%ADD25C,0.500000*%
%TD*%
%TA.AperFunction,Conductor*%
%ADD26C,1.016000*%
%TD*%
%TA.AperFunction,Conductor*%
%ADD27C,1.000000*%
%TD*%
G04 APERTURE END LIST*
D10*
%TO.P,LED,1*%
%TO.N,BLUE*%
X160431100Y-127913600D03*
D11*
%TO.P,LED,2*%
%TO.N,RED*%
X160431100Y-125373600D03*
%TO.P,LED,3*%
%TO.N,N/C*%
X160431100Y-122833600D03*
%TO.P,LED,4*%
%TO.N,+12V*%
X160431100Y-120293600D03*
%TD*%
D10*
%TO.P,AZUSA,1*%
%TO.N,AGND*%
X167691100Y-99573600D03*
D11*
%TO.P,AZUSA,2*%
%TO.N,VCC*%
X165151100Y-99573600D03*
%TD*%
D10*
%TO.P,SW1,1*%
%TO.N,EM*%
X167691100Y-90143600D03*
D11*
%TO.P,SW1,2*%
%TO.N,VCC*%
X165151100Y-90143600D03*
%TD*%
D10*
%TO.P,SW2,1*%
%TO.N,AGND*%
X157531100Y-90143600D03*
D11*
%TO.P,SW2,2*%
%TO.N,EM*%
X154991100Y-90143600D03*
%TD*%
D12*
%TO.P,U$17,VOUT*%
%TO.N,+12V*%
X157331100Y-109784600D03*
%TO.P,U$17,VIN*%
%TO.N,PVCC*%
X157331100Y-114384600D03*
D13*
%TO.P,U$17,GND*%
%TO.N,GND*%
X151981100Y-112084600D03*
%TD*%
D14*
%TO.P,C4,2*%
%TO.N,GND*%
X151069100Y-107132600D03*
%TO.P,C4,1*%
%TO.N,PVCC*%
X151069100Y-106482600D03*
%TD*%
%TO.P,C5,2*%
%TO.N,GND*%
X157588100Y-107770600D03*
%TO.P,C5,1*%
%TO.N,+12V*%
X157588100Y-107120600D03*
%TD*%
D15*
%TO.P,Lipo\uFF3FTHRU,P$4*%
%TO.N,N/C*%
X134101100Y-87553600D03*
%TO.P,Lipo\uFF3FTHRU,P$3*%
X134101100Y-106453600D03*
D16*
%TO.P,Lipo\uFF3FTHRU,-*%
%TO.N,GND*%
X143001100Y-91553600D03*
%TO.P,Lipo\uFF3FTHRU,+*%
%TO.N,N$20*%
X143001100Y-102453600D03*
%TD*%
D10*
%TO.P,AZUSA_CON1,1*%
%TO.N,GND*%
X150271100Y-129003600D03*
D11*
%TO.P,AZUSA_CON1,2*%
%TO.N,PWM1_SERVO*%
X147731100Y-129003600D03*
%TD*%
D10*
%TO.P,SERVO1,1*%
%TO.N,GND*%
X140541100Y-129003600D03*
D11*
%TO.P,SERVO1,2*%
%TO.N,+6V*%
X138001100Y-129003600D03*
%TO.P,SERVO1,3*%
%TO.N,PWM1_SERVO*%
X135461100Y-129003600D03*
%TD*%
D17*
%TO.P,U$1,INPUT*%
%TO.N,PVCC*%
X155001100Y-102543600D03*
%TO.P,U$1,OUTPUT*%
%TO.N,+6V*%
X155001100Y-97463600D03*
D18*
%TO.P,U$1,GND*%
%TO.N,GND*%
X155001100Y-100003600D03*
%TD*%
D14*
%TO.P,C1,2*%
%TO.N,GND*%
X151069100Y-103171600D03*
%TO.P,C1,1*%
%TO.N,PVCC*%
X151069100Y-102521600D03*
%TD*%
%TO.P,C2,2*%
%TO.N,GND*%
X157588100Y-98002600D03*
%TO.P,C2,1*%
%TO.N,+6V*%
X157588100Y-97352600D03*
%TD*%
%TO.P,C3,2*%
%TO.N,GND*%
X158779100Y-98002600D03*
%TO.P,C3,1*%
%TO.N,+6V*%
X158779100Y-97352600D03*
%TD*%
%TO.P,C6,2*%
%TO.N,GND*%
X158779100Y-107770600D03*
%TO.P,C6,1*%
%TO.N,+12V*%
X158779100Y-107120600D03*
%TD*%
D19*
%TO.P,LED_SW0,R*%
%TO.N,RED*%
X168541100Y-112003600D03*
%TO.P,LED_SW0,L*%
%TO.N,BLUE*%
X163461100Y-112003600D03*
%TO.P,LED_SW0,C*%
%TO.N,GND*%
X166001100Y-112003600D03*
%TD*%
D10*
%TO.P,SERVO2,1*%
%TO.N,GND*%
X140541100Y-121003600D03*
D11*
%TO.P,SERVO2,2*%
%TO.N,+6V*%
X138001100Y-121003600D03*
%TO.P,SERVO2,3*%
%TO.N,PWM2_SERVO*%
X135461100Y-121003600D03*
%TD*%
D10*
%TO.P,AZUSA_CON2,1*%
%TO.N,GND*%
X150271100Y-121003600D03*
D11*
%TO.P,AZUSA_CON2,2*%
%TO.N,PWM2_SERVO*%
X147731100Y-121003600D03*
%TD*%
D10*
%TO.P,THRU,1*%
%TO.N,N$1*%
X126001100Y-120273600D03*
D11*
%TO.P,THRU,2*%
%TO.N,N$92*%
X126001100Y-117733600D03*
%TD*%
D20*
%TO.P,C7,P$2*%
%TO.N,GND*%
X141255100Y-108938600D03*
%TO.P,C7,P$1*%
%TO.N,N$20*%
X141255100Y-110338600D03*
%TD*%
D21*
%TO.P,TLP1,GND*%
%TO.N,GND*%
X141301100Y-114781600D03*
%TO.P,TLP1,VCC*%
%TO.N,N$20*%
X141301100Y-112241600D03*
%TO.P,TLP1,VO*%
%TO.N,PVCC*%
X141301100Y-113511600D03*
%TO.P,TLP1,CATHODE*%
%TO.N,N$1*%
X135001100Y-114781600D03*
%TO.P,TLP1,ANODE*%
%TO.N,N$118*%
X135001100Y-112241600D03*
%TD*%
D22*
%TO.P,R1,RIGHT*%
%TO.N,N$118*%
X132081100Y-112032600D03*
%TO.P,R1,LEFT*%
%TO.N,N$92*%
X130081100Y-112032600D03*
%TD*%
D23*
%TO.N,GND*%
X149250000Y-102750000D03*
X155659100Y-106445600D03*
X157690100Y-111921600D03*
X167479100Y-87145600D03*
X155701100Y-87018600D03*
X139019100Y-97510600D03*
X144241100Y-111050600D03*
X145606100Y-113383600D03*
X133543100Y-113764600D03*
X127844100Y-116526600D03*
X128844100Y-121510600D03*
X151023100Y-99444600D03*
X149500000Y-107098600D03*
X152877100Y-107860600D03*
X162275100Y-124497600D03*
X169768100Y-123608600D03*
X162889100Y-131132600D03*
X146741100Y-131909600D03*
X136230100Y-131924600D03*
X148514100Y-122812600D03*
X136225100Y-123225600D03*
X137241100Y-118399600D03*
%TD*%
D24*
%TO.N,RED*%
X158001100Y-130003600D02*
X157500000Y-129502500D01*
X168588100Y-123717238D02*
X162301737Y-130003600D01*
X157500000Y-129502500D02*
X157500000Y-126012700D01*
X168588100Y-112050600D02*
X168588100Y-123717238D01*
X168541100Y-112003600D02*
X168588100Y-112050600D01*
X162301737Y-130003600D02*
X158001100Y-130003600D01*
X157500000Y-126012700D02*
X158139100Y-125373600D01*
X158139100Y-125373600D02*
X160431100Y-125373600D01*
D25*
%TO.N,PVCC*%
X143493100Y-113511600D02*
X141301100Y-113511600D01*
X148250000Y-102250000D02*
X148250000Y-108754700D01*
X149500000Y-101000000D02*
X148250000Y-102250000D01*
X148250000Y-108754700D02*
X143493100Y-113511600D01*
X151001100Y-101384600D02*
X150616500Y-101000000D01*
X150616500Y-101000000D02*
X149500000Y-101000000D01*
X151001100Y-102453600D02*
X151001100Y-101384600D01*
X151069100Y-102521600D02*
X151001100Y-102453600D01*
%TO.N,N$1*%
X130001100Y-115781600D02*
X129001100Y-116781600D01*
X126001100Y-120273600D02*
X128001100Y-120273600D01*
X129001100Y-119273600D02*
X128001100Y-120273600D01*
X129001100Y-116781600D02*
X129001100Y-119273600D01*
X134001100Y-115781600D02*
X130001100Y-115781600D01*
X135001100Y-114781600D02*
X134001100Y-115781600D01*
%TO.N,N$118*%
X132081100Y-112032600D02*
X132290100Y-112241600D01*
X135001100Y-112241600D02*
X132290100Y-112241600D01*
%TO.N,N$92*%
X126001100Y-115112600D02*
X126001100Y-117733600D01*
X129081100Y-112032600D02*
X126001100Y-115112600D01*
X130081100Y-112032600D02*
X129081100Y-112032600D01*
%TO.N,N$20*%
X141245100Y-112185600D02*
X141301100Y-112241600D01*
X141255100Y-110338600D02*
X141245100Y-112185600D01*
X141793100Y-112241600D02*
X141301100Y-112241600D01*
X143001100Y-111033600D02*
X141793100Y-112241600D01*
X143001100Y-102453600D02*
X143001100Y-111033600D01*
D26*
%TO.N,AGND*%
X167691100Y-99573600D02*
X167691100Y-101033869D01*
X160736700Y-101159469D02*
X160736700Y-93349200D01*
X160736700Y-93349200D02*
X157531100Y-90143600D01*
X167691100Y-101033869D02*
X166736968Y-101988000D01*
X161565231Y-101988000D02*
X160736700Y-101159469D01*
X166736968Y-101988000D02*
X161565231Y-101988000D01*
D24*
%TO.N,PWM1_SERVO*%
X147731100Y-129273600D02*
X146001100Y-131003600D01*
X147731100Y-129003600D02*
X147731100Y-129273600D01*
X146001100Y-131003600D02*
X137001100Y-131003600D01*
X135461100Y-129463600D02*
X137001100Y-131003600D01*
X135461100Y-129003600D02*
X135461100Y-129463600D01*
%TO.N,PWM2_SERVO*%
X147731100Y-122273600D02*
X147731100Y-121003600D01*
X147001100Y-123003600D02*
X147731100Y-122273600D01*
X137461100Y-123003600D02*
X147001100Y-123003600D01*
X135461100Y-121003600D02*
X137461100Y-123003600D01*
%TO.N,BLUE*%
X163461100Y-124883600D02*
X163461100Y-116463600D01*
X160431100Y-127913600D02*
X163461100Y-124883600D01*
X163461100Y-116463600D02*
X163461100Y-112003600D01*
D27*
%TO.N,+6V*%
X138001100Y-128554650D02*
X136043650Y-126597200D01*
X138001100Y-129003600D02*
X138001100Y-128554650D01*
X134594700Y-126597200D02*
X136043650Y-126597200D01*
X133001100Y-125003600D02*
X134594700Y-126597200D01*
X133001100Y-120003600D02*
X133001100Y-125003600D01*
X134001100Y-119003600D02*
X133001100Y-120003600D01*
X136001100Y-119003600D02*
X134001100Y-119003600D01*
X138001100Y-121003600D02*
X136001100Y-119003600D01*
X138001100Y-120003600D02*
X138493100Y-119511600D01*
X138001100Y-121003600D02*
X138001100Y-120003600D01*
D25*
X157588100Y-97352600D02*
X158779100Y-97352600D01*
X157515500Y-97425200D02*
X157588100Y-97352600D01*
X155001100Y-97463600D02*
X155039500Y-97425200D01*
X157515500Y-97425200D02*
X155039500Y-97425200D01*
D27*
X142001100Y-97464600D02*
X155000100Y-97464600D01*
X138493100Y-100972600D02*
X142001100Y-97464600D01*
X138493100Y-119511600D02*
X138493100Y-100972600D01*
X155001100Y-97463600D02*
X155000100Y-97464600D01*
D25*
%TO.N,PVCC*%
X153480100Y-106482600D02*
X155571700Y-108574200D01*
X155571700Y-111981282D02*
X157331100Y-113740682D01*
X155571700Y-108574200D02*
X155571700Y-111981282D01*
X157331100Y-113740682D02*
X157331100Y-114384600D01*
X151069100Y-106482600D02*
X153480100Y-106482600D01*
X150480100Y-106482600D02*
X151069100Y-106482600D01*
X150001100Y-106003600D02*
X150480100Y-106482600D01*
X150001100Y-103126650D02*
X150001100Y-106003600D01*
X150606150Y-102521600D02*
X150001100Y-103126650D01*
X151069100Y-102521600D02*
X150606150Y-102521600D01*
D24*
X154979100Y-102521600D02*
X155001100Y-102543600D01*
D25*
X151069100Y-102521600D02*
X154979100Y-102521600D01*
D26*
%TO.N,EM*%
X156503556Y-88475200D02*
X166482968Y-88475200D01*
X167691100Y-89683332D02*
X166482968Y-88475200D01*
X167691100Y-90143600D02*
X167691100Y-89683332D01*
X154991100Y-90143600D02*
X154991100Y-89987657D01*
X156503556Y-88475200D02*
X154991100Y-89987657D01*
%TO.N,VCC*%
X165151100Y-99573600D02*
X165151100Y-90143600D01*
D25*
%TO.N,+12V*%
X157331100Y-109784600D02*
X156985700Y-109439200D01*
X156985700Y-107428919D02*
X156985700Y-109439200D01*
X157515500Y-107193200D02*
X157221418Y-107193200D01*
X157588100Y-107120600D02*
X157515500Y-107193200D01*
X157221418Y-107193200D02*
X156985700Y-107428919D01*
X160291100Y-108338519D02*
X160291100Y-120153600D01*
X160431100Y-120293600D02*
X160291100Y-120153600D01*
X159145781Y-107193200D02*
X160291100Y-108338519D01*
X158851700Y-107193200D02*
X159145781Y-107193200D01*
X158779100Y-107120600D02*
X158851700Y-107193200D01*
X157588100Y-107120600D02*
X158779100Y-107120600D01*
%TD*%
M02*
