M48
; DRILL file {KiCad 7.0.1} date Sun Sep 17 22:33:03 2023
; FORMAT={-:-/ absolute / inch / decimal}
; #@! TF.CreationDate,2023-09-17T22:33:03+09:00
; #@! TF.GenerationSoftware,Kicad,Pcbnew,7.0.1
; #@! TF.FileFunction,Plated,1,2,PTH
FMAT,2
INCH
; #@! TA.AperFunction,Plated,PTH,ViaDrill
T1C0.0138
; #@! TA.AperFunction,Plated,PTH,ComponentDrill
T2C0.0236
; #@! TA.AperFunction,Plated,PTH,ComponentDrill
T3C0.0315
; #@! TA.AperFunction,Plated,PTH,ComponentDrill
T4C0.0394
; #@! TA.AperFunction,Plated,PTH,ComponentDrill
T5C0.0669
; #@! TA.AperFunction,Plated,PTH,ComponentDrill
T6C0.1575
%
G90
G05
T1
X5.002Y-4.7114
X5.049Y-4.7799
X5.1552Y-4.0689
X5.1552Y-4.3091
X5.2726Y-5.0207
X5.3205Y-3.8957
X5.3634Y-5.1939
X5.3796Y-4.6732
X5.5475Y-4.4127
X5.5489Y-4.2146
X5.5962Y-4.5537
X5.6182Y-4.6064
X5.6267Y-3.8666
X5.7772Y-5.1933
X5.7958Y-4.6895
X5.8363Y-4.5183
X5.8709Y-4.2165
X5.8718Y-4.6482
X5.9371Y-3.9253
X6.0188Y-4.2465
X6.0489Y-4.6482
X6.1283Y-4.1908
X6.13Y-3.4259
X6.1591Y-4.5689
X6.2083Y-4.4064
X6.4124Y-4.9172
X6.4366Y-5.1784
X6.5937Y-3.4309
X6.672Y-4.8744
T2
X6.1024Y-3.8371
X6.1024Y-3.9371
X6.1024Y-4.0371
T3
X6.4355Y-4.4096
X6.5355Y-4.4096
X6.6355Y-4.4096
T4
X4.9607Y-4.6746
X4.9607Y-4.7746
X5.3331Y-4.7639
X5.3331Y-5.0789
X5.4331Y-4.7639
X5.4331Y-5.0789
X5.5331Y-4.7639
X5.5331Y-5.0789
X5.8162Y-4.7639
X5.8162Y-5.0789
X5.9162Y-4.7639
X5.9162Y-5.0789
X6.102Y-3.549
X6.202Y-3.549
X6.3398Y-4.7517
X6.3398Y-4.8517
X6.3398Y-4.9517
X6.3398Y-5.0517
X6.502Y-3.549
X6.502Y-3.9202
X6.602Y-3.549
X6.602Y-3.9202
T5
X5.2795Y-3.4173
X5.2795Y-4.1614
T6
X5.6299Y-3.5748
X5.6299Y-4.0039
T0
M30
