%TF.GenerationSoftware,KiCad,Pcbnew,7.0.1*%
%TF.CreationDate,2023-09-17T16:52:06+09:00*%
%TF.ProjectId,Mix necessary function,4d697820-6e65-4636-9573-736172792066,rev?*%
%TF.SameCoordinates,Original*%
%TF.FileFunction,Copper,L2,Bot*%
%TF.FilePolarity,Positive*%
%FSLAX46Y46*%
G04 Gerber Fmt 4.6, Leading zero omitted, Abs format (unit mm)*
G04 Created by KiCad (PCBNEW 7.0.1) date 2023-09-17 16:52:06*
%MOMM*%
%LPD*%
G01*
G04 APERTURE LIST*
%TA.AperFunction,ComponentPad*%
%ADD10R,1.508000X1.508000*%
%TD*%
%TA.AperFunction,ComponentPad*%
%ADD11C,1.508000*%
%TD*%
%TA.AperFunction,ComponentPad*%
%ADD12C,2.550000*%
%TD*%
%TA.AperFunction,ComponentPad*%
%ADD13C,5.016000*%
%TD*%
%TA.AperFunction,ComponentPad*%
%ADD14C,1.108000*%
%TD*%
%TA.AperFunction,ComponentPad*%
%ADD15R,1.108000X1.108000*%
%TD*%
%TA.AperFunction,ComponentPad*%
%ADD16C,1.300000*%
%TD*%
%TA.AperFunction,ViaPad*%
%ADD17C,0.756400*%
%TD*%
G04 APERTURE END LIST*
D10*
%TO.P,LED,1*%
%TO.N,BLUE*%
X160431100Y-127913600D03*
D11*
%TO.P,LED,2*%
%TO.N,RED*%
X160431100Y-125373600D03*
%TO.P,LED,3*%
%TO.N,N/C*%
X160431100Y-122833600D03*
%TO.P,LED,4*%
%TO.N,+12V*%
X160431100Y-120293600D03*
%TD*%
D10*
%TO.P,AZUSA,1*%
%TO.N,AGND*%
X167691100Y-99573600D03*
D11*
%TO.P,AZUSA,2*%
%TO.N,VCC*%
X165151100Y-99573600D03*
%TD*%
D10*
%TO.P,SW1,1*%
%TO.N,EM*%
X167691100Y-90143600D03*
D11*
%TO.P,SW1,2*%
%TO.N,VCC*%
X165151100Y-90143600D03*
%TD*%
D10*
%TO.P,SW2,1*%
%TO.N,AGND*%
X157531100Y-90143600D03*
D11*
%TO.P,SW2,2*%
%TO.N,EM*%
X154991100Y-90143600D03*
%TD*%
D12*
%TO.P,Lipo\uFF3FTHRU,P$4*%
%TO.N,N/C*%
X134101100Y-87553600D03*
%TO.P,Lipo\uFF3FTHRU,P$3*%
X134101100Y-106453600D03*
D13*
%TO.P,Lipo\uFF3FTHRU,-*%
%TO.N,GND*%
X143001100Y-91553600D03*
%TO.P,Lipo\uFF3FTHRU,+*%
%TO.N,N$20*%
X143001100Y-102453600D03*
%TD*%
D10*
%TO.P,AZUSA_CON1,1*%
%TO.N,GND*%
X150271100Y-129003600D03*
D11*
%TO.P,AZUSA_CON1,2*%
%TO.N,PWM1_SERVO*%
X147731100Y-129003600D03*
%TD*%
D10*
%TO.P,SERVO1,1*%
%TO.N,GND*%
X140541100Y-129003600D03*
D11*
%TO.P,SERVO1,2*%
%TO.N,+6V*%
X138001100Y-129003600D03*
%TO.P,SERVO1,3*%
%TO.N,PWM1_SERVO*%
X135461100Y-129003600D03*
%TD*%
D14*
%TO.P,U$1,INPUT*%
%TO.N,PVCC*%
X155001100Y-102543600D03*
%TO.P,U$1,OUTPUT*%
%TO.N,+6V*%
X155001100Y-97463600D03*
D15*
%TO.P,U$1,GND*%
%TO.N,GND*%
X155001100Y-100003600D03*
%TD*%
D16*
%TO.P,LED_SW0,R*%
%TO.N,RED*%
X168541100Y-112003600D03*
%TO.P,LED_SW0,L*%
%TO.N,BLUE*%
X163461100Y-112003600D03*
%TO.P,LED_SW0,C*%
%TO.N,GND*%
X166001100Y-112003600D03*
%TD*%
D10*
%TO.P,SERVO2,1*%
%TO.N,GND*%
X140541100Y-121003600D03*
D11*
%TO.P,SERVO2,2*%
%TO.N,+6V*%
X138001100Y-121003600D03*
%TO.P,SERVO2,3*%
%TO.N,PWM2_SERVO*%
X135461100Y-121003600D03*
%TD*%
D10*
%TO.P,AZUSA_CON2,1*%
%TO.N,GND*%
X150271100Y-121003600D03*
D11*
%TO.P,AZUSA_CON2,2*%
%TO.N,PWM2_SERVO*%
X147731100Y-121003600D03*
%TD*%
D10*
%TO.P,THRU,1*%
%TO.N,N$1*%
X126001100Y-120273600D03*
D11*
%TO.P,THRU,2*%
%TO.N,N$92*%
X126001100Y-117733600D03*
%TD*%
D17*
%TO.N,GND*%
X149250000Y-102750000D03*
X155659100Y-106445600D03*
X157690100Y-111921600D03*
X167479100Y-87145600D03*
X155701100Y-87018600D03*
X139019100Y-97510600D03*
X144241100Y-111050600D03*
X145606100Y-113383600D03*
X133543100Y-113764600D03*
X127844100Y-116526600D03*
X128844100Y-121510600D03*
X151023100Y-99444600D03*
X149500000Y-107098600D03*
X152877100Y-107860600D03*
X162275100Y-124497600D03*
X169768100Y-123608600D03*
X162889100Y-131132600D03*
X146741100Y-131909600D03*
X136230100Y-131924600D03*
X148514100Y-122812600D03*
X136225100Y-123225600D03*
X137241100Y-118399600D03*
%TD*%
M02*
