M48
; DRILL file {KiCad 7.0.1} date Sun Sep 17 16:51:58 2023
; FORMAT={-:-/ absolute / inch / decimal}
; #@! TF.CreationDate,2023-09-17T16:51:58+09:00
; #@! TF.GenerationSoftware,Kicad,Pcbnew,7.0.1
; #@! TF.FileFunction,Plated,1,2,PTH
FMAT,2
INCH
; #@! TA.AperFunction,Plated,PTH,ViaDrill
T1C0.0138
; #@! TA.AperFunction,Plated,PTH,ComponentDrill
T2C0.0236
; #@! TA.AperFunction,Plated,PTH,ComponentDrill
T3C0.0315
; #@! TA.AperFunction,Plated,PTH,ComponentDrill
T4C0.0394
; #@! TA.AperFunction,Plated,PTH,ComponentDrill
T5C0.0669
; #@! TA.AperFunction,Plated,PTH,ComponentDrill
T6C0.1575
%
G90
G05
T1
X5.0332Y-4.5877
X5.0726Y-4.7839
X5.2576Y-4.4789
X5.3632Y-4.8514
X5.3634Y-5.1939
X5.4032Y-4.6614
X5.4732Y-3.839
X5.6788Y-4.3721
X5.7325Y-4.4639
X5.7772Y-5.1933
X5.847Y-4.8351
X5.876Y-4.0453
X5.8858Y-4.2165
X5.9458Y-3.9151
X6.0188Y-4.2465
X6.1283Y-4.1908
X6.13Y-3.4259
X6.2083Y-4.4064
X6.3888Y-4.9015
X6.413Y-5.1627
X6.5937Y-3.4309
X6.6838Y-4.8665
T2
X6.1024Y-3.8371
X6.1024Y-3.9371
X6.1024Y-4.0371
T3
X6.4355Y-4.4096
X6.5355Y-4.4096
X6.6355Y-4.4096
T4
X4.9607Y-4.6352
X4.9607Y-4.7352
X5.3331Y-4.7639
X5.3331Y-5.0789
X5.4331Y-4.7639
X5.4331Y-5.0789
X5.5331Y-4.7639
X5.5331Y-5.0789
X5.8162Y-4.7639
X5.8162Y-5.0789
X5.9162Y-4.7639
X5.9162Y-5.0789
X6.102Y-3.549
X6.202Y-3.549
X6.3162Y-4.736
X6.3162Y-4.836
X6.3162Y-4.936
X6.3162Y-5.036
X6.502Y-3.549
X6.502Y-3.9202
X6.602Y-3.549
X6.602Y-3.9202
T5
X5.2796Y-3.447
X5.2796Y-4.1911
T6
X5.63Y-3.6045
X5.63Y-4.0336
T0
M30
