%TF.GenerationSoftware,KiCad,Pcbnew,7.0.1*%
%TF.CreationDate,2023-09-17T16:52:06+09:00*%
%TF.ProjectId,Mix necessary function,4d697820-6e65-4636-9573-736172792066,rev?*%
%TF.SameCoordinates,Original*%
%TF.FileFunction,Legend,Top*%
%TF.FilePolarity,Positive*%
%FSLAX46Y46*%
G04 Gerber Fmt 4.6, Leading zero omitted, Abs format (unit mm)*
G04 Created by KiCad (PCBNEW 7.0.1) date 2023-09-17 16:52:06*
%MOMM*%
%LPD*%
G01*
G04 APERTURE LIST*
%ADD10C,0.300000*%
%ADD11C,0.100000*%
%ADD12C,0.040000*%
%ADD13C,0.093472*%
%ADD14C,0.036800*%
%ADD15C,0.130861*%
%ADD16C,0.058880*%
%ADD17C,0.127000*%
%ADD18C,0.050000*%
%ADD19C,0.203200*%
%ADD20C,0.152400*%
G04 APERTURE END LIST*
D10*
X168785714Y-105887857D02*
X169500000Y-105887857D01*
X168642857Y-106316428D02*
X169142857Y-104816428D01*
X169142857Y-104816428D02*
X169642857Y-106316428D01*
X170142856Y-105316428D02*
X170142856Y-106316428D01*
X170142856Y-105459285D02*
X170214285Y-105387857D01*
X170214285Y-105387857D02*
X170357142Y-105316428D01*
X170357142Y-105316428D02*
X170571428Y-105316428D01*
X170571428Y-105316428D02*
X170714285Y-105387857D01*
X170714285Y-105387857D02*
X170785714Y-105530714D01*
X170785714Y-105530714D02*
X170785714Y-106316428D01*
X172142857Y-106316428D02*
X172142857Y-104816428D01*
X172142857Y-106245000D02*
X171999999Y-106316428D01*
X171999999Y-106316428D02*
X171714285Y-106316428D01*
X171714285Y-106316428D02*
X171571428Y-106245000D01*
X171571428Y-106245000D02*
X171499999Y-106173571D01*
X171499999Y-106173571D02*
X171428571Y-106030714D01*
X171428571Y-106030714D02*
X171428571Y-105602142D01*
X171428571Y-105602142D02*
X171499999Y-105459285D01*
X171499999Y-105459285D02*
X171571428Y-105387857D01*
X171571428Y-105387857D02*
X171714285Y-105316428D01*
X171714285Y-105316428D02*
X171999999Y-105316428D01*
X171999999Y-105316428D02*
X172142857Y-105387857D01*
D11*
X172000000Y-104000000D02*
X172000000Y-85750000D01*
X161250000Y-104000000D02*
X172000000Y-104000000D01*
X161250000Y-93750000D02*
X161250000Y-104000000D01*
X151000000Y-93750000D02*
X161250000Y-93750000D01*
X151000000Y-83750000D02*
X151000000Y-93750000D01*
X166000000Y-83750000D02*
X151000000Y-83750000D01*
D10*
G36*
X157957142Y-79933875D02*
G01*
X157923909Y-80000339D01*
X157857447Y-80033571D01*
X157642552Y-80033571D01*
X157576088Y-80000339D01*
X157549913Y-79947987D01*
X157957142Y-79866542D01*
X157957142Y-79933875D01*
G37*
G36*
X155385714Y-79933875D02*
G01*
X155352481Y-80000339D01*
X155286019Y-80033571D01*
X155071124Y-80033571D01*
X155004660Y-80000339D01*
X154978485Y-79947987D01*
X155385714Y-79866542D01*
X155385714Y-79933875D01*
G37*
G36*
X151638196Y-79366803D02*
G01*
X151671428Y-79433267D01*
X151671428Y-79505304D01*
X151638195Y-79571768D01*
X151571733Y-79605000D01*
X151258076Y-79605000D01*
X151257143Y-79604899D01*
X151257143Y-79347704D01*
X151285410Y-79333571D01*
X151571732Y-79333571D01*
X151638196Y-79366803D01*
G37*
G36*
X140589718Y-79378278D02*
G01*
X140626721Y-79415281D01*
X140671428Y-79504695D01*
X140671428Y-79862447D01*
X140626720Y-79951861D01*
X140589718Y-79988863D01*
X140500304Y-80033571D01*
X140356838Y-80033571D01*
X140267427Y-79988865D01*
X140230420Y-79951859D01*
X140185714Y-79862447D01*
X140185714Y-79504696D01*
X140230421Y-79415282D01*
X140267425Y-79378277D01*
X140356838Y-79333571D01*
X140500303Y-79333571D01*
X140589718Y-79378278D01*
G37*
G36*
X160414286Y-81914286D02*
G01*
X137278571Y-81914286D01*
X137278571Y-80600989D01*
X141236922Y-80600989D01*
X141244004Y-80633546D01*
X141246381Y-80666773D01*
X141253220Y-80675909D01*
X141255647Y-80687064D01*
X141279202Y-80710619D01*
X141299169Y-80737293D01*
X141309865Y-80741282D01*
X141331147Y-80762564D01*
X141332770Y-80768091D01*
X141353869Y-80786373D01*
X141370600Y-80808723D01*
X141386511Y-80814657D01*
X141399343Y-80825776D01*
X141416148Y-80828192D01*
X141431055Y-80836332D01*
X141442440Y-80835517D01*
X141453134Y-80839506D01*
X141469726Y-80835896D01*
X141486535Y-80838313D01*
X141501982Y-80831258D01*
X141518919Y-80830047D01*
X141528057Y-80823206D01*
X141539209Y-80820780D01*
X141551213Y-80808775D01*
X141566662Y-80801720D01*
X141575841Y-80787435D01*
X141589438Y-80777258D01*
X141593428Y-80766560D01*
X141634194Y-80725793D01*
X141660865Y-80705828D01*
X141672506Y-80674614D01*
X141688475Y-80645372D01*
X141687660Y-80633986D01*
X141691648Y-80623295D01*
X141684566Y-80590740D01*
X141682189Y-80557509D01*
X141675350Y-80548373D01*
X141672924Y-80537219D01*
X141649363Y-80513659D01*
X141629400Y-80486990D01*
X141618705Y-80483001D01*
X141597424Y-80461720D01*
X141595802Y-80456194D01*
X141574702Y-80437911D01*
X141557973Y-80415563D01*
X141542061Y-80409628D01*
X141529229Y-80398509D01*
X141512423Y-80396092D01*
X141497517Y-80387953D01*
X141486132Y-80388767D01*
X141475440Y-80384779D01*
X141458846Y-80388388D01*
X141442037Y-80385972D01*
X141426589Y-80393026D01*
X141409654Y-80394238D01*
X141400516Y-80401078D01*
X141389365Y-80403504D01*
X141377359Y-80415509D01*
X141361910Y-80422565D01*
X141352730Y-80436849D01*
X141339134Y-80447027D01*
X141335144Y-80457723D01*
X141294381Y-80498485D01*
X141267705Y-80518455D01*
X141256060Y-80549675D01*
X141240097Y-80578910D01*
X141240911Y-80590293D01*
X141236922Y-80600989D01*
X137278571Y-80600989D01*
X137278571Y-79996972D01*
X138596139Y-79996972D01*
X138609846Y-80024386D01*
X138618484Y-80053805D01*
X138629195Y-80063086D01*
X138670173Y-80145043D01*
X138669968Y-80150872D01*
X138689692Y-80184081D01*
X138696909Y-80198515D01*
X138700660Y-80202547D01*
X138714951Y-80226609D01*
X138730076Y-80234171D01*
X138741595Y-80246555D01*
X138768710Y-80253488D01*
X138889979Y-80314123D01*
X138920241Y-80333571D01*
X138950894Y-80333571D01*
X138981066Y-80339001D01*
X138994158Y-80333571D01*
X139170496Y-80333571D01*
X139206259Y-80337432D01*
X139233673Y-80323724D01*
X139263091Y-80315087D01*
X139272373Y-80304374D01*
X139291929Y-80294596D01*
X139327914Y-80325776D01*
X139415106Y-80338313D01*
X139495233Y-80301720D01*
X139542857Y-80227615D01*
X139542857Y-80079000D01*
X139545617Y-80073946D01*
X139542857Y-80035356D01*
X139542857Y-79486066D01*
X139880284Y-79486066D01*
X139885714Y-79499158D01*
X139885714Y-79889782D01*
X139881853Y-79925545D01*
X139895560Y-79952959D01*
X139904198Y-79982377D01*
X139914910Y-79991659D01*
X139964567Y-80090972D01*
X139969933Y-80115636D01*
X139999153Y-80144856D01*
X140027310Y-80175127D01*
X140030150Y-80175853D01*
X140059204Y-80204907D01*
X140072094Y-80226609D01*
X140109060Y-80245092D01*
X140145339Y-80264902D01*
X140148261Y-80264692D01*
X140247122Y-80314123D01*
X140277384Y-80333571D01*
X140308037Y-80333571D01*
X140338209Y-80339001D01*
X140351301Y-80333571D01*
X140527639Y-80333571D01*
X140563402Y-80337432D01*
X140590816Y-80323724D01*
X140620234Y-80315087D01*
X140629516Y-80304374D01*
X140728830Y-80254716D01*
X140753492Y-80249352D01*
X140782706Y-80220137D01*
X140798831Y-80205139D01*
X141314286Y-80205139D01*
X141332770Y-80268091D01*
X141399343Y-80325776D01*
X141486535Y-80338313D01*
X141566662Y-80301720D01*
X141614286Y-80227615D01*
X141614286Y-80205820D01*
X141809544Y-80205820D01*
X141846137Y-80285947D01*
X141920242Y-80333571D01*
X142171429Y-80333571D01*
X142171429Y-80705139D01*
X142189913Y-80768091D01*
X142256486Y-80825776D01*
X142343678Y-80838313D01*
X142423805Y-80801720D01*
X142471429Y-80727615D01*
X142471429Y-80705820D01*
X146666687Y-80705820D01*
X146703280Y-80785947D01*
X146777385Y-80833571D01*
X146956211Y-80833571D01*
X146991974Y-80837432D01*
X147019388Y-80823724D01*
X147048806Y-80815087D01*
X147058088Y-80804374D01*
X147140043Y-80763396D01*
X147145873Y-80763602D01*
X147179091Y-80743872D01*
X147193516Y-80736660D01*
X147197545Y-80732911D01*
X147221610Y-80718619D01*
X147229172Y-80703493D01*
X147241556Y-80691975D01*
X147248488Y-80664861D01*
X147309124Y-80543590D01*
X147328572Y-80513329D01*
X147328572Y-80482676D01*
X147334002Y-80452504D01*
X147328572Y-80439412D01*
X147328572Y-80333571D01*
X147414425Y-80333571D01*
X147477377Y-80315087D01*
X147535062Y-80248514D01*
X147539315Y-80218933D01*
X148740576Y-80218933D01*
X148783869Y-80295649D01*
X148861764Y-80336781D01*
X148949531Y-80329270D01*
X149019305Y-80275500D01*
X149250000Y-79629552D01*
X149473136Y-80254333D01*
X149511716Y-80307401D01*
X149593812Y-80339334D01*
X149680141Y-80321815D01*
X149743293Y-80260404D01*
X149755968Y-80205820D01*
X149809543Y-80205820D01*
X149846136Y-80285947D01*
X149920241Y-80333571D01*
X150099066Y-80333571D01*
X150134830Y-80337432D01*
X150162245Y-80323724D01*
X150191662Y-80315087D01*
X150200943Y-80304375D01*
X150265794Y-80271950D01*
X150327914Y-80325776D01*
X150415106Y-80338313D01*
X150495233Y-80301720D01*
X150542857Y-80227615D01*
X150542857Y-79911248D01*
X150548287Y-79881076D01*
X150542857Y-79867984D01*
X150542857Y-79831937D01*
X150950908Y-79831937D01*
X150957143Y-79850699D01*
X150957143Y-79961209D01*
X150953282Y-79996972D01*
X150966989Y-80024386D01*
X150975627Y-80053805D01*
X150986338Y-80063086D01*
X151027316Y-80145043D01*
X151027111Y-80150872D01*
X151046835Y-80184081D01*
X151054052Y-80198515D01*
X151057803Y-80202547D01*
X151072094Y-80226609D01*
X151087219Y-80234171D01*
X151098738Y-80246555D01*
X151125853Y-80253488D01*
X151247122Y-80314123D01*
X151277384Y-80333571D01*
X151308037Y-80333571D01*
X151338209Y-80339001D01*
X151351301Y-80333571D01*
X151599068Y-80333571D01*
X151634831Y-80337432D01*
X151662245Y-80323724D01*
X151691663Y-80315087D01*
X151700945Y-80304374D01*
X151836373Y-80236660D01*
X151884413Y-80191975D01*
X151906235Y-80106632D01*
X151878455Y-80023039D01*
X151809891Y-79967736D01*
X151722311Y-79958281D01*
X151571733Y-80033571D01*
X151356838Y-80033571D01*
X151290374Y-80000339D01*
X151257143Y-79933875D01*
X151257143Y-79919133D01*
X151285410Y-79905000D01*
X151599068Y-79905000D01*
X151634831Y-79908861D01*
X151662245Y-79895153D01*
X151691663Y-79886516D01*
X151700945Y-79875803D01*
X151782900Y-79834825D01*
X151788730Y-79835031D01*
X151821943Y-79815303D01*
X151836373Y-79808089D01*
X151840404Y-79804338D01*
X151864467Y-79790047D01*
X151872028Y-79774923D01*
X151884413Y-79763404D01*
X151891346Y-79736287D01*
X151951980Y-79615019D01*
X151971428Y-79584758D01*
X151971428Y-79554106D01*
X151976858Y-79523932D01*
X151971428Y-79510840D01*
X151971428Y-79414638D01*
X152237427Y-79414638D01*
X152242857Y-79427730D01*
X152242857Y-79461210D01*
X152238996Y-79496973D01*
X152252703Y-79524387D01*
X152261341Y-79553805D01*
X152272053Y-79563087D01*
X152313031Y-79645042D01*
X152312826Y-79650872D01*
X152332555Y-79684090D01*
X152339768Y-79698515D01*
X152343516Y-79702544D01*
X152357809Y-79726609D01*
X152372934Y-79734171D01*
X152384453Y-79746555D01*
X152411566Y-79753487D01*
X152532837Y-79814123D01*
X152563099Y-79833571D01*
X152593752Y-79833571D01*
X152623924Y-79839001D01*
X152637016Y-79833571D01*
X152786018Y-79833571D01*
X152852482Y-79866803D01*
X152885714Y-79933267D01*
X152885714Y-79933875D01*
X152852481Y-80000339D01*
X152786019Y-80033571D01*
X152642553Y-80033571D01*
X152512077Y-79968333D01*
X152447505Y-79956712D01*
X152366138Y-79990459D01*
X152315931Y-80062839D01*
X152312826Y-80150872D01*
X152357809Y-80226609D01*
X152532837Y-80314123D01*
X152563099Y-80333571D01*
X152593752Y-80333571D01*
X152623924Y-80339001D01*
X152637016Y-80333571D01*
X152813354Y-80333571D01*
X152849117Y-80337432D01*
X152876531Y-80323724D01*
X152905949Y-80315087D01*
X152915231Y-80304374D01*
X152997186Y-80263396D01*
X153003016Y-80263602D01*
X153036229Y-80243874D01*
X153050659Y-80236660D01*
X153054690Y-80232909D01*
X153078753Y-80218618D01*
X153086314Y-80203494D01*
X153098699Y-80191975D01*
X153105632Y-80164858D01*
X153166266Y-80043590D01*
X153185714Y-80013329D01*
X153185714Y-79982677D01*
X153191144Y-79952503D01*
X153185714Y-79939411D01*
X153185714Y-79905933D01*
X153189575Y-79870170D01*
X153175867Y-79842755D01*
X153167230Y-79813337D01*
X153156518Y-79804055D01*
X153115540Y-79722098D01*
X153115746Y-79716270D01*
X153096023Y-79683065D01*
X153088805Y-79668627D01*
X153085052Y-79664592D01*
X153070762Y-79640533D01*
X153055638Y-79632971D01*
X153044119Y-79620587D01*
X153017002Y-79613653D01*
X152895738Y-79553021D01*
X152865473Y-79533571D01*
X152834820Y-79533571D01*
X152804648Y-79528141D01*
X152791556Y-79533571D01*
X152642553Y-79533571D01*
X152576089Y-79500339D01*
X152542857Y-79433875D01*
X152542857Y-79433268D01*
X152552172Y-79414638D01*
X153451713Y-79414638D01*
X153457143Y-79427730D01*
X153457143Y-79461210D01*
X153453282Y-79496973D01*
X153466989Y-79524387D01*
X153475627Y-79553805D01*
X153486339Y-79563087D01*
X153527317Y-79645042D01*
X153527112Y-79650872D01*
X153546841Y-79684090D01*
X153554054Y-79698515D01*
X153557802Y-79702544D01*
X153572095Y-79726609D01*
X153587220Y-79734171D01*
X153598739Y-79746555D01*
X153625852Y-79753487D01*
X153747123Y-79814123D01*
X153777385Y-79833571D01*
X153808038Y-79833571D01*
X153838210Y-79839001D01*
X153851302Y-79833571D01*
X154000304Y-79833571D01*
X154066768Y-79866803D01*
X154100000Y-79933267D01*
X154100000Y-79933875D01*
X154066767Y-80000339D01*
X154000305Y-80033571D01*
X153856839Y-80033571D01*
X153726363Y-79968333D01*
X153661791Y-79956712D01*
X153580424Y-79990459D01*
X153530217Y-80062839D01*
X153527112Y-80150872D01*
X153572095Y-80226609D01*
X153747123Y-80314123D01*
X153777385Y-80333571D01*
X153808038Y-80333571D01*
X153838210Y-80339001D01*
X153851302Y-80333571D01*
X154027640Y-80333571D01*
X154063403Y-80337432D01*
X154090817Y-80323724D01*
X154120235Y-80315087D01*
X154129517Y-80304374D01*
X154211472Y-80263396D01*
X154217302Y-80263602D01*
X154250515Y-80243874D01*
X154264945Y-80236660D01*
X154268976Y-80232909D01*
X154293039Y-80218618D01*
X154300600Y-80203494D01*
X154312985Y-80191975D01*
X154319918Y-80164858D01*
X154380552Y-80043590D01*
X154400000Y-80013329D01*
X154400000Y-79996972D01*
X154667568Y-79996972D01*
X154681275Y-80024386D01*
X154689913Y-80053805D01*
X154700624Y-80063086D01*
X154741602Y-80145043D01*
X154741397Y-80150872D01*
X154761121Y-80184081D01*
X154768338Y-80198515D01*
X154772089Y-80202547D01*
X154786380Y-80226609D01*
X154801505Y-80234171D01*
X154813024Y-80246555D01*
X154840139Y-80253488D01*
X154961408Y-80314123D01*
X154991670Y-80333571D01*
X155022323Y-80333571D01*
X155052495Y-80339001D01*
X155065587Y-80333571D01*
X155313354Y-80333571D01*
X155349117Y-80337432D01*
X155376531Y-80323724D01*
X155405949Y-80315087D01*
X155415231Y-80304374D01*
X155497186Y-80263396D01*
X155503016Y-80263602D01*
X155536229Y-80243874D01*
X155550659Y-80236660D01*
X155554690Y-80232909D01*
X155578753Y-80218618D01*
X155586314Y-80203494D01*
X155598699Y-80191975D01*
X155605632Y-80164858D01*
X155666266Y-80043590D01*
X155685714Y-80013329D01*
X155685714Y-79982677D01*
X155691144Y-79952503D01*
X155685714Y-79939411D01*
X155685714Y-79723202D01*
X155687894Y-79719364D01*
X155685714Y-79679467D01*
X155685714Y-79405933D01*
X155689575Y-79370170D01*
X155675867Y-79342755D01*
X155667230Y-79313337D01*
X155656518Y-79304055D01*
X155634746Y-79260510D01*
X155950908Y-79260510D01*
X155978688Y-79344103D01*
X156047252Y-79399406D01*
X156134831Y-79408861D01*
X156285410Y-79333571D01*
X156500303Y-79333571D01*
X156589718Y-79378278D01*
X156626721Y-79415281D01*
X156671428Y-79504695D01*
X156671428Y-79862447D01*
X156626720Y-79951861D01*
X156589718Y-79988863D01*
X156500304Y-80033571D01*
X156285410Y-80033571D01*
X156154934Y-79968333D01*
X156090362Y-79956712D01*
X156008995Y-79990459D01*
X155958788Y-80062839D01*
X155955683Y-80150872D01*
X156000666Y-80226609D01*
X156175694Y-80314123D01*
X156205956Y-80333571D01*
X156236609Y-80333571D01*
X156266781Y-80339001D01*
X156279873Y-80333571D01*
X156527639Y-80333571D01*
X156563402Y-80337432D01*
X156590816Y-80323724D01*
X156620234Y-80315087D01*
X156629516Y-80304374D01*
X156728830Y-80254716D01*
X156753492Y-80249352D01*
X156782706Y-80220137D01*
X156812984Y-80191975D01*
X156813710Y-80189134D01*
X156842766Y-80160079D01*
X156864467Y-80147190D01*
X156882946Y-80110231D01*
X156902760Y-80073946D01*
X156902550Y-80071021D01*
X156939575Y-79996972D01*
X157238996Y-79996972D01*
X157252703Y-80024386D01*
X157261341Y-80053805D01*
X157272052Y-80063086D01*
X157313030Y-80145043D01*
X157312825Y-80150872D01*
X157332549Y-80184081D01*
X157339766Y-80198515D01*
X157343517Y-80202547D01*
X157357808Y-80226609D01*
X157372933Y-80234171D01*
X157384452Y-80246555D01*
X157411567Y-80253488D01*
X157532836Y-80314123D01*
X157563098Y-80333571D01*
X157593751Y-80333571D01*
X157623923Y-80339001D01*
X157637015Y-80333571D01*
X157884782Y-80333571D01*
X157920545Y-80337432D01*
X157947959Y-80323724D01*
X157977377Y-80315087D01*
X157986659Y-80304374D01*
X158068614Y-80263396D01*
X158074444Y-80263602D01*
X158107657Y-80243874D01*
X158122087Y-80236660D01*
X158126118Y-80232909D01*
X158150181Y-80218618D01*
X158157742Y-80203494D01*
X158170127Y-80191975D01*
X158177060Y-80164858D01*
X158237694Y-80043590D01*
X158257142Y-80013329D01*
X158257142Y-79996972D01*
X158596139Y-79996972D01*
X158609846Y-80024386D01*
X158618484Y-80053805D01*
X158629195Y-80063086D01*
X158670173Y-80145043D01*
X158669968Y-80150872D01*
X158689692Y-80184081D01*
X158696909Y-80198515D01*
X158700660Y-80202547D01*
X158714951Y-80226609D01*
X158730076Y-80234171D01*
X158741595Y-80246555D01*
X158768710Y-80253488D01*
X158889979Y-80314123D01*
X158920241Y-80333571D01*
X158950894Y-80333571D01*
X158981066Y-80339001D01*
X158994158Y-80333571D01*
X159170496Y-80333571D01*
X159206259Y-80337432D01*
X159233673Y-80323724D01*
X159263091Y-80315087D01*
X159272373Y-80304374D01*
X159291929Y-80294596D01*
X159327914Y-80325776D01*
X159415106Y-80338313D01*
X159495233Y-80301720D01*
X159542857Y-80227615D01*
X159542857Y-80079000D01*
X159545617Y-80073946D01*
X159542857Y-80035356D01*
X159542857Y-79162003D01*
X159524373Y-79099051D01*
X159457800Y-79041366D01*
X159370608Y-79028829D01*
X159290481Y-79065422D01*
X159242857Y-79139527D01*
X159242857Y-79978582D01*
X159232575Y-79988863D01*
X159143161Y-80033571D01*
X158999695Y-80033571D01*
X158933231Y-80000339D01*
X158900000Y-79933875D01*
X158900000Y-79162003D01*
X158881516Y-79099051D01*
X158814943Y-79041366D01*
X158727751Y-79028829D01*
X158647624Y-79065422D01*
X158600000Y-79139527D01*
X158600000Y-79961209D01*
X158596139Y-79996972D01*
X158257142Y-79996972D01*
X158257142Y-79982677D01*
X158262572Y-79952503D01*
X158257142Y-79939411D01*
X158257142Y-79723202D01*
X158259322Y-79719364D01*
X158257142Y-79679467D01*
X158257142Y-79405933D01*
X158261003Y-79370170D01*
X158247295Y-79342755D01*
X158238658Y-79313337D01*
X158227946Y-79304055D01*
X158186968Y-79222098D01*
X158187174Y-79216270D01*
X158167451Y-79183065D01*
X158160233Y-79168627D01*
X158156480Y-79164592D01*
X158142190Y-79140533D01*
X158127066Y-79132971D01*
X158115547Y-79120587D01*
X158088430Y-79113653D01*
X157967166Y-79053021D01*
X157936901Y-79033571D01*
X157906248Y-79033571D01*
X157876076Y-79028141D01*
X157862984Y-79033571D01*
X157615217Y-79033571D01*
X157579453Y-79029710D01*
X157552037Y-79043418D01*
X157522622Y-79052055D01*
X157513340Y-79062766D01*
X157377912Y-79130482D01*
X157329872Y-79175167D01*
X157308050Y-79260510D01*
X157335830Y-79344103D01*
X157404394Y-79399406D01*
X157491973Y-79408861D01*
X157642552Y-79333571D01*
X157857446Y-79333571D01*
X157923910Y-79366803D01*
X157957142Y-79433267D01*
X157957142Y-79560600D01*
X157388704Y-79674288D01*
X157370608Y-79671686D01*
X157346370Y-79682754D01*
X157342290Y-79683571D01*
X157326825Y-79691680D01*
X157290481Y-79708279D01*
X157288094Y-79711992D01*
X157284186Y-79714042D01*
X157264453Y-79748778D01*
X157242857Y-79782384D01*
X157242857Y-79786797D01*
X157240677Y-79790635D01*
X157242857Y-79830532D01*
X157242857Y-79961209D01*
X157238996Y-79996972D01*
X156939575Y-79996972D01*
X156951980Y-79972162D01*
X156971428Y-79941901D01*
X156971428Y-79911249D01*
X156976858Y-79881075D01*
X156971428Y-79867983D01*
X156971428Y-79477361D01*
X156975289Y-79441598D01*
X156961581Y-79414183D01*
X156952944Y-79384765D01*
X156942232Y-79375483D01*
X156892574Y-79276165D01*
X156887209Y-79251505D01*
X156858001Y-79222297D01*
X156829833Y-79192015D01*
X156826992Y-79191288D01*
X156797934Y-79162231D01*
X156785047Y-79140533D01*
X156748097Y-79122058D01*
X156711801Y-79102239D01*
X156708877Y-79102448D01*
X156610023Y-79053021D01*
X156579758Y-79033571D01*
X156549105Y-79033571D01*
X156518933Y-79028141D01*
X156505841Y-79033571D01*
X156258075Y-79033571D01*
X156222311Y-79029710D01*
X156194895Y-79043418D01*
X156165480Y-79052055D01*
X156156198Y-79062766D01*
X156020770Y-79130482D01*
X155972730Y-79175167D01*
X155950908Y-79260510D01*
X155634746Y-79260510D01*
X155615540Y-79222098D01*
X155615746Y-79216270D01*
X155596023Y-79183065D01*
X155588805Y-79168627D01*
X155585052Y-79164592D01*
X155570762Y-79140533D01*
X155555638Y-79132971D01*
X155544119Y-79120587D01*
X155517002Y-79113653D01*
X155395738Y-79053021D01*
X155365473Y-79033571D01*
X155334820Y-79033571D01*
X155304648Y-79028141D01*
X155291556Y-79033571D01*
X155043789Y-79033571D01*
X155008025Y-79029710D01*
X154980609Y-79043418D01*
X154951194Y-79052055D01*
X154941912Y-79062766D01*
X154806484Y-79130482D01*
X154758444Y-79175167D01*
X154736622Y-79260510D01*
X154764402Y-79344103D01*
X154832966Y-79399406D01*
X154920545Y-79408861D01*
X155071124Y-79333571D01*
X155286018Y-79333571D01*
X155352482Y-79366803D01*
X155385714Y-79433267D01*
X155385714Y-79560600D01*
X154817276Y-79674288D01*
X154799180Y-79671686D01*
X154774942Y-79682754D01*
X154770862Y-79683571D01*
X154755397Y-79691680D01*
X154719053Y-79708279D01*
X154716666Y-79711992D01*
X154712758Y-79714042D01*
X154693025Y-79748778D01*
X154671429Y-79782384D01*
X154671429Y-79786797D01*
X154669249Y-79790635D01*
X154671429Y-79830532D01*
X154671429Y-79961209D01*
X154667568Y-79996972D01*
X154400000Y-79996972D01*
X154400000Y-79982677D01*
X154405430Y-79952503D01*
X154400000Y-79939411D01*
X154400000Y-79905933D01*
X154403861Y-79870170D01*
X154390153Y-79842755D01*
X154381516Y-79813337D01*
X154370804Y-79804055D01*
X154329826Y-79722098D01*
X154330032Y-79716270D01*
X154310309Y-79683065D01*
X154303091Y-79668627D01*
X154299338Y-79664592D01*
X154285048Y-79640533D01*
X154269924Y-79632971D01*
X154258405Y-79620587D01*
X154231288Y-79613653D01*
X154110024Y-79553021D01*
X154079759Y-79533571D01*
X154049106Y-79533571D01*
X154018934Y-79528141D01*
X154005842Y-79533571D01*
X153856839Y-79533571D01*
X153790375Y-79500339D01*
X153757143Y-79433875D01*
X153757143Y-79433268D01*
X153790375Y-79366802D01*
X153856839Y-79333571D01*
X154071732Y-79333571D01*
X154202208Y-79398809D01*
X154266781Y-79410430D01*
X154348148Y-79376683D01*
X154398355Y-79304303D01*
X154401460Y-79216270D01*
X154356476Y-79140533D01*
X154181452Y-79053021D01*
X154151187Y-79033571D01*
X154120534Y-79033571D01*
X154090362Y-79028141D01*
X154077270Y-79033571D01*
X153829504Y-79033571D01*
X153793740Y-79029710D01*
X153766324Y-79043418D01*
X153736909Y-79052055D01*
X153727627Y-79062766D01*
X153645671Y-79103745D01*
X153639842Y-79103540D01*
X153606628Y-79123267D01*
X153592199Y-79130482D01*
X153588167Y-79134232D01*
X153564105Y-79148524D01*
X153556543Y-79163647D01*
X153544159Y-79175167D01*
X153537225Y-79202282D01*
X153476593Y-79323547D01*
X153457143Y-79353813D01*
X153457143Y-79384466D01*
X153451713Y-79414638D01*
X152552172Y-79414638D01*
X152576089Y-79366802D01*
X152642553Y-79333571D01*
X152857446Y-79333571D01*
X152987922Y-79398809D01*
X153052495Y-79410430D01*
X153133862Y-79376683D01*
X153184069Y-79304303D01*
X153187174Y-79216270D01*
X153142190Y-79140533D01*
X152967166Y-79053021D01*
X152936901Y-79033571D01*
X152906248Y-79033571D01*
X152876076Y-79028141D01*
X152862984Y-79033571D01*
X152615218Y-79033571D01*
X152579454Y-79029710D01*
X152552038Y-79043418D01*
X152522623Y-79052055D01*
X152513341Y-79062766D01*
X152431385Y-79103745D01*
X152425556Y-79103540D01*
X152392342Y-79123267D01*
X152377913Y-79130482D01*
X152373881Y-79134232D01*
X152349819Y-79148524D01*
X152342257Y-79163647D01*
X152329873Y-79175167D01*
X152322939Y-79202282D01*
X152262307Y-79323547D01*
X152242857Y-79353813D01*
X152242857Y-79384466D01*
X152237427Y-79414638D01*
X151971428Y-79414638D01*
X151971428Y-79405933D01*
X151975289Y-79370170D01*
X151961581Y-79342755D01*
X151952944Y-79313337D01*
X151942232Y-79304055D01*
X151901254Y-79222098D01*
X151901460Y-79216270D01*
X151881737Y-79183065D01*
X151874519Y-79168627D01*
X151870766Y-79164592D01*
X151856476Y-79140533D01*
X151841352Y-79132971D01*
X151829833Y-79120587D01*
X151802716Y-79113653D01*
X151681452Y-79053021D01*
X151651187Y-79033571D01*
X151620534Y-79033571D01*
X151590362Y-79028141D01*
X151577270Y-79033571D01*
X151258075Y-79033571D01*
X151222311Y-79029710D01*
X151194895Y-79043418D01*
X151179627Y-79047900D01*
X151172086Y-79041366D01*
X151084894Y-79028829D01*
X151004767Y-79065422D01*
X150957143Y-79139527D01*
X150957143Y-79236126D01*
X150950908Y-79260510D01*
X150957143Y-79279272D01*
X150957143Y-79807553D01*
X150950908Y-79831937D01*
X150542857Y-79831937D01*
X150542857Y-79162003D01*
X150524373Y-79099051D01*
X150457800Y-79041366D01*
X150370608Y-79028829D01*
X150290481Y-79065422D01*
X150242857Y-79139527D01*
X150242857Y-79862447D01*
X150198151Y-79951857D01*
X150161145Y-79988863D01*
X150071731Y-80033571D01*
X149942717Y-80033571D01*
X149879765Y-80052055D01*
X149822080Y-80118628D01*
X149809543Y-80205820D01*
X149755968Y-80205820D01*
X149763218Y-80174599D01*
X149410352Y-79186576D01*
X149520694Y-78910722D01*
X149553139Y-78878277D01*
X149693516Y-78808089D01*
X149741556Y-78763404D01*
X149763378Y-78678061D01*
X149735598Y-78594468D01*
X149667034Y-78539165D01*
X149579454Y-78529710D01*
X149414026Y-78612425D01*
X149389365Y-78617790D01*
X149360150Y-78647004D01*
X149329873Y-78675167D01*
X149329146Y-78678007D01*
X149295634Y-78711519D01*
X149269943Y-78729825D01*
X149256912Y-78762401D01*
X149240097Y-78793196D01*
X149240779Y-78802734D01*
X149125957Y-79089789D01*
X149123552Y-79091643D01*
X149120454Y-79100315D01*
X149113850Y-79106738D01*
X149106476Y-79138492D01*
X149102718Y-79147888D01*
X149102446Y-79150737D01*
X148744342Y-80153432D01*
X148740576Y-80218933D01*
X147539315Y-80218933D01*
X147547599Y-80161322D01*
X147511006Y-80081195D01*
X147436901Y-80033571D01*
X147328572Y-80033571D01*
X147328572Y-79162003D01*
X147310088Y-79099051D01*
X147268440Y-79062963D01*
X147380972Y-79062963D01*
X147417565Y-79143090D01*
X147491670Y-79190714D01*
X148700140Y-79190714D01*
X148763092Y-79172230D01*
X148820777Y-79105657D01*
X148833314Y-79018465D01*
X148796721Y-78938338D01*
X148722616Y-78890714D01*
X147514146Y-78890714D01*
X147451194Y-78909198D01*
X147393509Y-78975771D01*
X147380972Y-79062963D01*
X147268440Y-79062963D01*
X147243515Y-79041366D01*
X147156323Y-79028829D01*
X147076196Y-79065422D01*
X147028572Y-79139527D01*
X147028572Y-80033571D01*
X146799861Y-80033571D01*
X146736909Y-80052055D01*
X146679224Y-80118628D01*
X146666687Y-80205820D01*
X146703280Y-80285947D01*
X146777385Y-80333571D01*
X147028572Y-80333571D01*
X147028572Y-80433875D01*
X146995340Y-80500338D01*
X146928876Y-80533571D01*
X146799861Y-80533571D01*
X146736909Y-80552055D01*
X146679224Y-80618628D01*
X146666687Y-80705820D01*
X142471429Y-80705820D01*
X142471429Y-80333571D01*
X142557282Y-80333571D01*
X142620234Y-80315087D01*
X142677919Y-80248514D01*
X142690456Y-80161322D01*
X142653863Y-80081195D01*
X142579758Y-80033571D01*
X142471429Y-80033571D01*
X142471429Y-79405932D01*
X142475290Y-79370168D01*
X142461581Y-79342752D01*
X142452945Y-79313337D01*
X142442233Y-79304055D01*
X142420460Y-79260510D01*
X142808051Y-79260510D01*
X142835831Y-79344103D01*
X142904395Y-79399406D01*
X142991974Y-79408861D01*
X143142553Y-79333571D01*
X143357446Y-79333571D01*
X143446861Y-79378278D01*
X143483864Y-79415281D01*
X143528571Y-79504695D01*
X143528571Y-79862447D01*
X143483863Y-79951861D01*
X143446861Y-79988863D01*
X143357447Y-80033571D01*
X143142553Y-80033571D01*
X143012077Y-79968333D01*
X142947505Y-79956712D01*
X142866138Y-79990459D01*
X142815931Y-80062839D01*
X142812826Y-80150872D01*
X142857809Y-80226609D01*
X143032837Y-80314123D01*
X143063099Y-80333571D01*
X143093752Y-80333571D01*
X143123924Y-80339001D01*
X143137016Y-80333571D01*
X143384782Y-80333571D01*
X143420545Y-80337432D01*
X143447959Y-80323724D01*
X143477377Y-80315087D01*
X143486659Y-80304374D01*
X143585973Y-80254716D01*
X143610635Y-80249352D01*
X143639849Y-80220137D01*
X143670127Y-80191975D01*
X143670853Y-80189134D01*
X143699909Y-80160079D01*
X143721610Y-80147190D01*
X143740089Y-80110231D01*
X143759903Y-80073946D01*
X143759693Y-80071021D01*
X143796718Y-79996972D01*
X144167568Y-79996972D01*
X144181275Y-80024386D01*
X144189913Y-80053805D01*
X144200624Y-80063086D01*
X144241602Y-80145043D01*
X144241397Y-80150872D01*
X144261121Y-80184081D01*
X144268338Y-80198515D01*
X144272089Y-80202547D01*
X144286380Y-80226609D01*
X144301505Y-80234171D01*
X144313024Y-80246555D01*
X144340139Y-80253488D01*
X144461408Y-80314123D01*
X144491670Y-80333571D01*
X144522323Y-80333571D01*
X144552495Y-80339001D01*
X144565587Y-80333571D01*
X144741925Y-80333571D01*
X144777688Y-80337432D01*
X144805102Y-80323724D01*
X144834520Y-80315087D01*
X144843802Y-80304374D01*
X144863358Y-80294596D01*
X144899343Y-80325776D01*
X144986535Y-80338313D01*
X145066662Y-80301720D01*
X145114286Y-80227615D01*
X145114286Y-80079000D01*
X145117046Y-80073946D01*
X145114286Y-80035356D01*
X145114286Y-79293197D01*
X145525811Y-79293197D01*
X145528572Y-79331795D01*
X145528572Y-80205139D01*
X145547056Y-80268091D01*
X145613629Y-80325776D01*
X145700821Y-80338313D01*
X145780948Y-80301720D01*
X145828572Y-80227615D01*
X145828572Y-79388560D01*
X145838854Y-79378277D01*
X145928267Y-79333571D01*
X146071732Y-79333571D01*
X146138197Y-79366803D01*
X146171429Y-79433267D01*
X146171429Y-80205139D01*
X146189913Y-80268091D01*
X146256486Y-80325776D01*
X146343678Y-80338313D01*
X146423805Y-80301720D01*
X146471429Y-80227615D01*
X146471429Y-79405932D01*
X146475290Y-79370168D01*
X146461581Y-79342752D01*
X146452945Y-79313337D01*
X146442233Y-79304055D01*
X146401254Y-79222099D01*
X146401460Y-79216270D01*
X146381732Y-79183056D01*
X146374518Y-79168627D01*
X146370767Y-79164595D01*
X146356476Y-79140533D01*
X146341352Y-79132971D01*
X146329833Y-79120587D01*
X146302717Y-79113653D01*
X146181452Y-79053021D01*
X146151187Y-79033571D01*
X146120534Y-79033571D01*
X146090362Y-79028141D01*
X146077270Y-79033571D01*
X145900932Y-79033571D01*
X145865168Y-79029710D01*
X145837752Y-79043418D01*
X145808337Y-79052055D01*
X145799055Y-79062766D01*
X145779498Y-79072545D01*
X145743515Y-79041366D01*
X145656323Y-79028829D01*
X145576196Y-79065422D01*
X145528572Y-79139527D01*
X145528572Y-79288141D01*
X145525811Y-79293197D01*
X145114286Y-79293197D01*
X145114286Y-79162003D01*
X145095802Y-79099051D01*
X145029229Y-79041366D01*
X144942037Y-79028829D01*
X144861910Y-79065422D01*
X144814286Y-79139527D01*
X144814286Y-79978582D01*
X144804004Y-79988863D01*
X144714590Y-80033571D01*
X144571124Y-80033571D01*
X144504660Y-80000339D01*
X144471429Y-79933875D01*
X144471429Y-79162003D01*
X144452945Y-79099051D01*
X144386372Y-79041366D01*
X144299180Y-79028829D01*
X144219053Y-79065422D01*
X144171429Y-79139527D01*
X144171429Y-79961209D01*
X144167568Y-79996972D01*
X143796718Y-79996972D01*
X143809123Y-79972162D01*
X143828571Y-79941901D01*
X143828571Y-79911249D01*
X143834001Y-79881075D01*
X143828571Y-79867983D01*
X143828571Y-79477361D01*
X143832432Y-79441598D01*
X143818724Y-79414183D01*
X143810087Y-79384765D01*
X143799375Y-79375483D01*
X143749717Y-79276165D01*
X143744352Y-79251505D01*
X143715144Y-79222297D01*
X143686976Y-79192015D01*
X143684135Y-79191288D01*
X143655077Y-79162231D01*
X143642190Y-79140533D01*
X143605240Y-79122058D01*
X143568944Y-79102239D01*
X143566020Y-79102448D01*
X143467166Y-79053021D01*
X143436901Y-79033571D01*
X143406248Y-79033571D01*
X143376076Y-79028141D01*
X143362984Y-79033571D01*
X143115218Y-79033571D01*
X143079454Y-79029710D01*
X143052038Y-79043418D01*
X143022623Y-79052055D01*
X143013341Y-79062766D01*
X142877913Y-79130482D01*
X142829873Y-79175167D01*
X142808051Y-79260510D01*
X142420460Y-79260510D01*
X142401254Y-79222099D01*
X142401460Y-79216270D01*
X142381732Y-79183056D01*
X142374518Y-79168627D01*
X142370767Y-79164595D01*
X142356476Y-79140533D01*
X142341352Y-79132971D01*
X142329833Y-79120587D01*
X142302717Y-79113653D01*
X142181452Y-79053021D01*
X142151187Y-79033571D01*
X142120534Y-79033571D01*
X142090362Y-79028141D01*
X142077270Y-79033571D01*
X141942718Y-79033571D01*
X141879766Y-79052055D01*
X141822081Y-79118628D01*
X141809544Y-79205820D01*
X141846137Y-79285947D01*
X141920242Y-79333571D01*
X142071732Y-79333571D01*
X142138197Y-79366803D01*
X142171429Y-79433267D01*
X142171429Y-80033571D01*
X141942718Y-80033571D01*
X141879766Y-80052055D01*
X141822081Y-80118628D01*
X141809544Y-80205820D01*
X141614286Y-80205820D01*
X141614286Y-79162003D01*
X141595802Y-79099051D01*
X141529229Y-79041366D01*
X141442037Y-79028829D01*
X141361910Y-79065422D01*
X141314286Y-79139527D01*
X141314286Y-80205139D01*
X140798831Y-80205139D01*
X140812984Y-80191975D01*
X140813710Y-80189134D01*
X140842766Y-80160079D01*
X140864467Y-80147190D01*
X140882946Y-80110231D01*
X140902760Y-80073946D01*
X140902550Y-80071021D01*
X140951980Y-79972162D01*
X140971428Y-79941901D01*
X140971428Y-79911249D01*
X140976858Y-79881075D01*
X140971428Y-79867983D01*
X140971428Y-79477361D01*
X140975289Y-79441598D01*
X140961581Y-79414183D01*
X140952944Y-79384765D01*
X140942232Y-79375483D01*
X140892574Y-79276165D01*
X140887209Y-79251505D01*
X140858001Y-79222297D01*
X140829833Y-79192015D01*
X140826992Y-79191288D01*
X140797934Y-79162231D01*
X140785047Y-79140533D01*
X140748097Y-79122058D01*
X140711801Y-79102239D01*
X140708877Y-79102448D01*
X140610023Y-79053021D01*
X140579758Y-79033571D01*
X140549105Y-79033571D01*
X140518933Y-79028141D01*
X140505841Y-79033571D01*
X140329503Y-79033571D01*
X140293739Y-79029710D01*
X140266323Y-79043418D01*
X140236908Y-79052055D01*
X140227626Y-79062766D01*
X140128311Y-79112424D01*
X140103648Y-79117790D01*
X140074417Y-79147020D01*
X140044158Y-79175167D01*
X140043431Y-79178006D01*
X140014374Y-79207064D01*
X139992676Y-79219952D01*
X139974200Y-79256903D01*
X139954382Y-79293197D01*
X139954591Y-79296121D01*
X139905164Y-79394975D01*
X139885714Y-79425241D01*
X139885714Y-79455894D01*
X139880284Y-79486066D01*
X139542857Y-79486066D01*
X139542857Y-79162003D01*
X139524373Y-79099051D01*
X139457800Y-79041366D01*
X139370608Y-79028829D01*
X139290481Y-79065422D01*
X139242857Y-79139527D01*
X139242857Y-79978582D01*
X139232575Y-79988863D01*
X139143161Y-80033571D01*
X138999695Y-80033571D01*
X138933231Y-80000339D01*
X138900000Y-79933875D01*
X138900000Y-79162003D01*
X138881516Y-79099051D01*
X138814943Y-79041366D01*
X138727751Y-79028829D01*
X138647624Y-79065422D01*
X138600000Y-79139527D01*
X138600000Y-79961209D01*
X138596139Y-79996972D01*
X137278571Y-79996972D01*
X137278571Y-78335714D01*
X160414286Y-78335714D01*
X160414286Y-81914286D01*
G37*
X166071428Y-116636428D02*
X165357142Y-116636428D01*
X165357142Y-116636428D02*
X165357142Y-115136428D01*
X166571428Y-116493571D02*
X166642857Y-116565000D01*
X166642857Y-116565000D02*
X166571428Y-116636428D01*
X166571428Y-116636428D02*
X166500000Y-116565000D01*
X166500000Y-116565000D02*
X166571428Y-116493571D01*
X166571428Y-116493571D02*
X166571428Y-116636428D01*
X166571428Y-115707857D02*
X166642857Y-115779285D01*
X166642857Y-115779285D02*
X166571428Y-115850714D01*
X166571428Y-115850714D02*
X166500000Y-115779285D01*
X166500000Y-115779285D02*
X166571428Y-115707857D01*
X166571428Y-115707857D02*
X166571428Y-115850714D01*
X168928571Y-115850714D02*
X169142857Y-115922142D01*
X169142857Y-115922142D02*
X169214286Y-115993571D01*
X169214286Y-115993571D02*
X169285714Y-116136428D01*
X169285714Y-116136428D02*
X169285714Y-116350714D01*
X169285714Y-116350714D02*
X169214286Y-116493571D01*
X169214286Y-116493571D02*
X169142857Y-116565000D01*
X169142857Y-116565000D02*
X169000000Y-116636428D01*
X169000000Y-116636428D02*
X168428571Y-116636428D01*
X168428571Y-116636428D02*
X168428571Y-115136428D01*
X168428571Y-115136428D02*
X168928571Y-115136428D01*
X168928571Y-115136428D02*
X169071429Y-115207857D01*
X169071429Y-115207857D02*
X169142857Y-115279285D01*
X169142857Y-115279285D02*
X169214286Y-115422142D01*
X169214286Y-115422142D02*
X169214286Y-115565000D01*
X169214286Y-115565000D02*
X169142857Y-115707857D01*
X169142857Y-115707857D02*
X169071429Y-115779285D01*
X169071429Y-115779285D02*
X168928571Y-115850714D01*
X168928571Y-115850714D02*
X168428571Y-115850714D01*
X170142857Y-116636428D02*
X170000000Y-116565000D01*
X170000000Y-116565000D02*
X169928571Y-116422142D01*
X169928571Y-116422142D02*
X169928571Y-115136428D01*
X171357143Y-115636428D02*
X171357143Y-116636428D01*
X170714285Y-115636428D02*
X170714285Y-116422142D01*
X170714285Y-116422142D02*
X170785714Y-116565000D01*
X170785714Y-116565000D02*
X170928571Y-116636428D01*
X170928571Y-116636428D02*
X171142857Y-116636428D01*
X171142857Y-116636428D02*
X171285714Y-116565000D01*
X171285714Y-116565000D02*
X171357143Y-116493571D01*
X172642857Y-116565000D02*
X172500000Y-116636428D01*
X172500000Y-116636428D02*
X172214286Y-116636428D01*
X172214286Y-116636428D02*
X172071428Y-116565000D01*
X172071428Y-116565000D02*
X172000000Y-116422142D01*
X172000000Y-116422142D02*
X172000000Y-115850714D01*
X172000000Y-115850714D02*
X172071428Y-115707857D01*
X172071428Y-115707857D02*
X172214286Y-115636428D01*
X172214286Y-115636428D02*
X172500000Y-115636428D01*
X172500000Y-115636428D02*
X172642857Y-115707857D01*
X172642857Y-115707857D02*
X172714286Y-115850714D01*
X172714286Y-115850714D02*
X172714286Y-115993571D01*
X172714286Y-115993571D02*
X172000000Y-116136428D01*
X166214285Y-119066428D02*
X165714285Y-118352142D01*
X165357142Y-119066428D02*
X165357142Y-117566428D01*
X165357142Y-117566428D02*
X165928571Y-117566428D01*
X165928571Y-117566428D02*
X166071428Y-117637857D01*
X166071428Y-117637857D02*
X166142857Y-117709285D01*
X166142857Y-117709285D02*
X166214285Y-117852142D01*
X166214285Y-117852142D02*
X166214285Y-118066428D01*
X166214285Y-118066428D02*
X166142857Y-118209285D01*
X166142857Y-118209285D02*
X166071428Y-118280714D01*
X166071428Y-118280714D02*
X165928571Y-118352142D01*
X165928571Y-118352142D02*
X165357142Y-118352142D01*
X166857142Y-118923571D02*
X166928571Y-118995000D01*
X166928571Y-118995000D02*
X166857142Y-119066428D01*
X166857142Y-119066428D02*
X166785714Y-118995000D01*
X166785714Y-118995000D02*
X166857142Y-118923571D01*
X166857142Y-118923571D02*
X166857142Y-119066428D01*
X166857142Y-118137857D02*
X166928571Y-118209285D01*
X166928571Y-118209285D02*
X166857142Y-118280714D01*
X166857142Y-118280714D02*
X166785714Y-118209285D01*
X166785714Y-118209285D02*
X166857142Y-118137857D01*
X166857142Y-118137857D02*
X166857142Y-118280714D01*
X169571428Y-119066428D02*
X169071428Y-118352142D01*
X168714285Y-119066428D02*
X168714285Y-117566428D01*
X168714285Y-117566428D02*
X169285714Y-117566428D01*
X169285714Y-117566428D02*
X169428571Y-117637857D01*
X169428571Y-117637857D02*
X169500000Y-117709285D01*
X169500000Y-117709285D02*
X169571428Y-117852142D01*
X169571428Y-117852142D02*
X169571428Y-118066428D01*
X169571428Y-118066428D02*
X169500000Y-118209285D01*
X169500000Y-118209285D02*
X169428571Y-118280714D01*
X169428571Y-118280714D02*
X169285714Y-118352142D01*
X169285714Y-118352142D02*
X168714285Y-118352142D01*
X170785714Y-118995000D02*
X170642857Y-119066428D01*
X170642857Y-119066428D02*
X170357143Y-119066428D01*
X170357143Y-119066428D02*
X170214285Y-118995000D01*
X170214285Y-118995000D02*
X170142857Y-118852142D01*
X170142857Y-118852142D02*
X170142857Y-118280714D01*
X170142857Y-118280714D02*
X170214285Y-118137857D01*
X170214285Y-118137857D02*
X170357143Y-118066428D01*
X170357143Y-118066428D02*
X170642857Y-118066428D01*
X170642857Y-118066428D02*
X170785714Y-118137857D01*
X170785714Y-118137857D02*
X170857143Y-118280714D01*
X170857143Y-118280714D02*
X170857143Y-118423571D01*
X170857143Y-118423571D02*
X170142857Y-118566428D01*
X172142857Y-119066428D02*
X172142857Y-117566428D01*
X172142857Y-118995000D02*
X171999999Y-119066428D01*
X171999999Y-119066428D02*
X171714285Y-119066428D01*
X171714285Y-119066428D02*
X171571428Y-118995000D01*
X171571428Y-118995000D02*
X171499999Y-118923571D01*
X171499999Y-118923571D02*
X171428571Y-118780714D01*
X171428571Y-118780714D02*
X171428571Y-118352142D01*
X171428571Y-118352142D02*
X171499999Y-118209285D01*
X171499999Y-118209285D02*
X171571428Y-118137857D01*
X171571428Y-118137857D02*
X171714285Y-118066428D01*
X171714285Y-118066428D02*
X171999999Y-118066428D01*
X171999999Y-118066428D02*
X172142857Y-118137857D01*
D12*
X129872380Y-110943704D02*
X129719047Y-110724657D01*
X129609523Y-110943704D02*
X129609523Y-110483704D01*
X129609523Y-110483704D02*
X129784761Y-110483704D01*
X129784761Y-110483704D02*
X129828571Y-110505609D01*
X129828571Y-110505609D02*
X129850476Y-110527514D01*
X129850476Y-110527514D02*
X129872380Y-110571323D01*
X129872380Y-110571323D02*
X129872380Y-110637038D01*
X129872380Y-110637038D02*
X129850476Y-110680847D01*
X129850476Y-110680847D02*
X129828571Y-110702752D01*
X129828571Y-110702752D02*
X129784761Y-110724657D01*
X129784761Y-110724657D02*
X129609523Y-110724657D01*
X130310476Y-110943704D02*
X130047619Y-110943704D01*
X130179047Y-110943704D02*
X130179047Y-110483704D01*
X130179047Y-110483704D02*
X130135238Y-110549419D01*
X130135238Y-110549419D02*
X130091428Y-110593228D01*
X130091428Y-110593228D02*
X130047619Y-110615133D01*
D13*
%TO.C,LED*%
X165544285Y-124853055D02*
X165544285Y-125413307D01*
X165544285Y-125413307D02*
X164367757Y-125413307D01*
X164928008Y-124460880D02*
X164928008Y-124068704D01*
X165544285Y-123900628D02*
X165544285Y-124460880D01*
X165544285Y-124460880D02*
X164367757Y-124460880D01*
X164367757Y-124460880D02*
X164367757Y-123900628D01*
X165544285Y-123396402D02*
X164367757Y-123396402D01*
X164367757Y-123396402D02*
X164367757Y-123116276D01*
X164367757Y-123116276D02*
X164423782Y-122948201D01*
X164423782Y-122948201D02*
X164535832Y-122836150D01*
X164535832Y-122836150D02*
X164647882Y-122780125D01*
X164647882Y-122780125D02*
X164871983Y-122724100D01*
X164871983Y-122724100D02*
X165040058Y-122724100D01*
X165040058Y-122724100D02*
X165264159Y-122780125D01*
X165264159Y-122780125D02*
X165376209Y-122836150D01*
X165376209Y-122836150D02*
X165488260Y-122948201D01*
X165488260Y-122948201D02*
X165544285Y-123116276D01*
X165544285Y-123116276D02*
X165544285Y-123396402D01*
%TO.C,AZUSA*%
X163724100Y-95208134D02*
X164284352Y-95208134D01*
X163612050Y-95544285D02*
X164004226Y-94367757D01*
X164004226Y-94367757D02*
X164396402Y-95544285D01*
X164676528Y-94367757D02*
X165460880Y-94367757D01*
X165460880Y-94367757D02*
X164676528Y-95544285D01*
X164676528Y-95544285D02*
X165460880Y-95544285D01*
X165909081Y-94367757D02*
X165909081Y-95320184D01*
X165909081Y-95320184D02*
X165965106Y-95432234D01*
X165965106Y-95432234D02*
X166021132Y-95488260D01*
X166021132Y-95488260D02*
X166133182Y-95544285D01*
X166133182Y-95544285D02*
X166357282Y-95544285D01*
X166357282Y-95544285D02*
X166469333Y-95488260D01*
X166469333Y-95488260D02*
X166525358Y-95432234D01*
X166525358Y-95432234D02*
X166581383Y-95320184D01*
X166581383Y-95320184D02*
X166581383Y-94367757D01*
X167085609Y-95488260D02*
X167253685Y-95544285D01*
X167253685Y-95544285D02*
X167533810Y-95544285D01*
X167533810Y-95544285D02*
X167645861Y-95488260D01*
X167645861Y-95488260D02*
X167701886Y-95432234D01*
X167701886Y-95432234D02*
X167757911Y-95320184D01*
X167757911Y-95320184D02*
X167757911Y-95208134D01*
X167757911Y-95208134D02*
X167701886Y-95096084D01*
X167701886Y-95096084D02*
X167645861Y-95040058D01*
X167645861Y-95040058D02*
X167533810Y-94984033D01*
X167533810Y-94984033D02*
X167309710Y-94928008D01*
X167309710Y-94928008D02*
X167197659Y-94871983D01*
X167197659Y-94871983D02*
X167141634Y-94815958D01*
X167141634Y-94815958D02*
X167085609Y-94703908D01*
X167085609Y-94703908D02*
X167085609Y-94591857D01*
X167085609Y-94591857D02*
X167141634Y-94479807D01*
X167141634Y-94479807D02*
X167197659Y-94423782D01*
X167197659Y-94423782D02*
X167309710Y-94367757D01*
X167309710Y-94367757D02*
X167589835Y-94367757D01*
X167589835Y-94367757D02*
X167757911Y-94423782D01*
X168206112Y-95208134D02*
X168766364Y-95208134D01*
X168094062Y-95544285D02*
X168486238Y-94367757D01*
X168486238Y-94367757D02*
X168878414Y-95544285D01*
%TO.C,SW1*%
X164724100Y-86238260D02*
X164892176Y-86294285D01*
X164892176Y-86294285D02*
X165172301Y-86294285D01*
X165172301Y-86294285D02*
X165284352Y-86238260D01*
X165284352Y-86238260D02*
X165340377Y-86182234D01*
X165340377Y-86182234D02*
X165396402Y-86070184D01*
X165396402Y-86070184D02*
X165396402Y-85958134D01*
X165396402Y-85958134D02*
X165340377Y-85846084D01*
X165340377Y-85846084D02*
X165284352Y-85790058D01*
X165284352Y-85790058D02*
X165172301Y-85734033D01*
X165172301Y-85734033D02*
X164948201Y-85678008D01*
X164948201Y-85678008D02*
X164836150Y-85621983D01*
X164836150Y-85621983D02*
X164780125Y-85565958D01*
X164780125Y-85565958D02*
X164724100Y-85453908D01*
X164724100Y-85453908D02*
X164724100Y-85341857D01*
X164724100Y-85341857D02*
X164780125Y-85229807D01*
X164780125Y-85229807D02*
X164836150Y-85173782D01*
X164836150Y-85173782D02*
X164948201Y-85117757D01*
X164948201Y-85117757D02*
X165228326Y-85117757D01*
X165228326Y-85117757D02*
X165396402Y-85173782D01*
X165788578Y-85117757D02*
X166068704Y-86294285D01*
X166068704Y-86294285D02*
X166292804Y-85453908D01*
X166292804Y-85453908D02*
X166516905Y-86294285D01*
X166516905Y-86294285D02*
X166797031Y-85117757D01*
X167861508Y-86294285D02*
X167189206Y-86294285D01*
X167525357Y-86294285D02*
X167525357Y-85117757D01*
X167525357Y-85117757D02*
X167413307Y-85285832D01*
X167413307Y-85285832D02*
X167301256Y-85397882D01*
X167301256Y-85397882D02*
X167189206Y-85453908D01*
%TO.C,SW2*%
X154474100Y-86238260D02*
X154642176Y-86294285D01*
X154642176Y-86294285D02*
X154922301Y-86294285D01*
X154922301Y-86294285D02*
X155034352Y-86238260D01*
X155034352Y-86238260D02*
X155090377Y-86182234D01*
X155090377Y-86182234D02*
X155146402Y-86070184D01*
X155146402Y-86070184D02*
X155146402Y-85958134D01*
X155146402Y-85958134D02*
X155090377Y-85846084D01*
X155090377Y-85846084D02*
X155034352Y-85790058D01*
X155034352Y-85790058D02*
X154922301Y-85734033D01*
X154922301Y-85734033D02*
X154698201Y-85678008D01*
X154698201Y-85678008D02*
X154586150Y-85621983D01*
X154586150Y-85621983D02*
X154530125Y-85565958D01*
X154530125Y-85565958D02*
X154474100Y-85453908D01*
X154474100Y-85453908D02*
X154474100Y-85341857D01*
X154474100Y-85341857D02*
X154530125Y-85229807D01*
X154530125Y-85229807D02*
X154586150Y-85173782D01*
X154586150Y-85173782D02*
X154698201Y-85117757D01*
X154698201Y-85117757D02*
X154978326Y-85117757D01*
X154978326Y-85117757D02*
X155146402Y-85173782D01*
X155538578Y-85117757D02*
X155818704Y-86294285D01*
X155818704Y-86294285D02*
X156042804Y-85453908D01*
X156042804Y-85453908D02*
X156266905Y-86294285D01*
X156266905Y-86294285D02*
X156547031Y-85117757D01*
X156939206Y-85229807D02*
X156995231Y-85173782D01*
X156995231Y-85173782D02*
X157107282Y-85117757D01*
X157107282Y-85117757D02*
X157387407Y-85117757D01*
X157387407Y-85117757D02*
X157499458Y-85173782D01*
X157499458Y-85173782D02*
X157555483Y-85229807D01*
X157555483Y-85229807D02*
X157611508Y-85341857D01*
X157611508Y-85341857D02*
X157611508Y-85453908D01*
X157611508Y-85453908D02*
X157555483Y-85621983D01*
X157555483Y-85621983D02*
X156883181Y-86294285D01*
X156883181Y-86294285D02*
X157611508Y-86294285D01*
D14*
%TO.C,C4*%
X150420170Y-107279371D02*
X150442228Y-107301428D01*
X150442228Y-107301428D02*
X150464285Y-107367600D01*
X150464285Y-107367600D02*
X150464285Y-107411714D01*
X150464285Y-107411714D02*
X150442228Y-107477885D01*
X150442228Y-107477885D02*
X150398113Y-107522000D01*
X150398113Y-107522000D02*
X150353999Y-107544057D01*
X150353999Y-107544057D02*
X150265770Y-107566114D01*
X150265770Y-107566114D02*
X150199599Y-107566114D01*
X150199599Y-107566114D02*
X150111370Y-107544057D01*
X150111370Y-107544057D02*
X150067256Y-107522000D01*
X150067256Y-107522000D02*
X150023142Y-107477885D01*
X150023142Y-107477885D02*
X150001085Y-107411714D01*
X150001085Y-107411714D02*
X150001085Y-107367600D01*
X150001085Y-107367600D02*
X150023142Y-107301428D01*
X150023142Y-107301428D02*
X150045199Y-107279371D01*
X150155485Y-106882343D02*
X150464285Y-106882343D01*
X149979028Y-106992628D02*
X150309885Y-107102914D01*
X150309885Y-107102914D02*
X150309885Y-106816171D01*
%TO.C,C5*%
X157670170Y-106279371D02*
X157692228Y-106301428D01*
X157692228Y-106301428D02*
X157714285Y-106367600D01*
X157714285Y-106367600D02*
X157714285Y-106411714D01*
X157714285Y-106411714D02*
X157692228Y-106477885D01*
X157692228Y-106477885D02*
X157648113Y-106522000D01*
X157648113Y-106522000D02*
X157603999Y-106544057D01*
X157603999Y-106544057D02*
X157515770Y-106566114D01*
X157515770Y-106566114D02*
X157449599Y-106566114D01*
X157449599Y-106566114D02*
X157361370Y-106544057D01*
X157361370Y-106544057D02*
X157317256Y-106522000D01*
X157317256Y-106522000D02*
X157273142Y-106477885D01*
X157273142Y-106477885D02*
X157251085Y-106411714D01*
X157251085Y-106411714D02*
X157251085Y-106367600D01*
X157251085Y-106367600D02*
X157273142Y-106301428D01*
X157273142Y-106301428D02*
X157295199Y-106279371D01*
X157251085Y-105860285D02*
X157251085Y-106080857D01*
X157251085Y-106080857D02*
X157471656Y-106102914D01*
X157471656Y-106102914D02*
X157449599Y-106080857D01*
X157449599Y-106080857D02*
X157427542Y-106036743D01*
X157427542Y-106036743D02*
X157427542Y-105926457D01*
X157427542Y-105926457D02*
X157449599Y-105882343D01*
X157449599Y-105882343D02*
X157471656Y-105860285D01*
X157471656Y-105860285D02*
X157515770Y-105838228D01*
X157515770Y-105838228D02*
X157626056Y-105838228D01*
X157626056Y-105838228D02*
X157670170Y-105860285D01*
X157670170Y-105860285D02*
X157692228Y-105882343D01*
X157692228Y-105882343D02*
X157714285Y-105926457D01*
X157714285Y-105926457D02*
X157714285Y-106036743D01*
X157714285Y-106036743D02*
X157692228Y-106080857D01*
X157692228Y-106080857D02*
X157670170Y-106102914D01*
D15*
%TO.C,Lipo\uFF3FTHRU*%
X147761998Y-102823472D02*
X147761998Y-103607824D01*
X147761998Y-103607824D02*
X146114859Y-103607824D01*
X147761998Y-102274426D02*
X146663905Y-102274426D01*
X146114859Y-102274426D02*
X146193294Y-102352861D01*
X146193294Y-102352861D02*
X146271729Y-102274426D01*
X146271729Y-102274426D02*
X146193294Y-102195990D01*
X146193294Y-102195990D02*
X146114859Y-102274426D01*
X146114859Y-102274426D02*
X146271729Y-102274426D01*
X146663905Y-101490074D02*
X148311044Y-101490074D01*
X146742340Y-101490074D02*
X146663905Y-101333203D01*
X146663905Y-101333203D02*
X146663905Y-101019462D01*
X146663905Y-101019462D02*
X146742340Y-100862592D01*
X146742340Y-100862592D02*
X146820775Y-100784157D01*
X146820775Y-100784157D02*
X146977646Y-100705722D01*
X146977646Y-100705722D02*
X147448257Y-100705722D01*
X147448257Y-100705722D02*
X147605127Y-100784157D01*
X147605127Y-100784157D02*
X147683563Y-100862592D01*
X147683563Y-100862592D02*
X147761998Y-101019462D01*
X147761998Y-101019462D02*
X147761998Y-101333203D01*
X147761998Y-101333203D02*
X147683563Y-101490074D01*
X147761998Y-99764499D02*
X147683563Y-99921369D01*
X147683563Y-99921369D02*
X147605127Y-99999805D01*
X147605127Y-99999805D02*
X147448257Y-100078240D01*
X147448257Y-100078240D02*
X146977646Y-100078240D01*
X146977646Y-100078240D02*
X146820775Y-99999805D01*
X146820775Y-99999805D02*
X146742340Y-99921369D01*
X146742340Y-99921369D02*
X146663905Y-99764499D01*
X146663905Y-99764499D02*
X146663905Y-99529193D01*
X146663905Y-99529193D02*
X146742340Y-99372323D01*
X146742340Y-99372323D02*
X146820775Y-99293888D01*
X146820775Y-99293888D02*
X146977646Y-99215453D01*
X146977646Y-99215453D02*
X147448257Y-99215453D01*
X147448257Y-99215453D02*
X147605127Y-99293888D01*
X147605127Y-99293888D02*
X147683563Y-99372323D01*
X147683563Y-99372323D02*
X147761998Y-99529193D01*
X147761998Y-99529193D02*
X147761998Y-99764499D01*
X147683563Y-98587971D02*
X147683563Y-97489878D01*
X146114859Y-97019267D02*
X146114859Y-96078045D01*
X147761998Y-96548656D02*
X146114859Y-96548656D01*
X147761998Y-95528999D02*
X146114859Y-95528999D01*
X146899211Y-95528999D02*
X146899211Y-94587776D01*
X147761998Y-94587776D02*
X146114859Y-94587776D01*
X147761998Y-92862202D02*
X146977646Y-93411249D01*
X147761998Y-93803425D02*
X146114859Y-93803425D01*
X146114859Y-93803425D02*
X146114859Y-93175943D01*
X146114859Y-93175943D02*
X146193294Y-93019073D01*
X146193294Y-93019073D02*
X146271729Y-92940637D01*
X146271729Y-92940637D02*
X146428599Y-92862202D01*
X146428599Y-92862202D02*
X146663905Y-92862202D01*
X146663905Y-92862202D02*
X146820775Y-92940637D01*
X146820775Y-92940637D02*
X146899211Y-93019073D01*
X146899211Y-93019073D02*
X146977646Y-93175943D01*
X146977646Y-93175943D02*
X146977646Y-93803425D01*
X146114859Y-92156286D02*
X147448257Y-92156286D01*
X147448257Y-92156286D02*
X147605127Y-92077850D01*
X147605127Y-92077850D02*
X147683563Y-91999415D01*
X147683563Y-91999415D02*
X147761998Y-91842545D01*
X147761998Y-91842545D02*
X147761998Y-91528804D01*
X147761998Y-91528804D02*
X147683563Y-91371934D01*
X147683563Y-91371934D02*
X147605127Y-91293498D01*
X147605127Y-91293498D02*
X147448257Y-91215063D01*
X147448257Y-91215063D02*
X146114859Y-91215063D01*
D13*
%TO.C,AZUSA_CON1*%
X144224100Y-124958134D02*
X144784352Y-124958134D01*
X144112050Y-125294285D02*
X144504226Y-124117757D01*
X144504226Y-124117757D02*
X144896402Y-125294285D01*
X145176528Y-124117757D02*
X145960880Y-124117757D01*
X145960880Y-124117757D02*
X145176528Y-125294285D01*
X145176528Y-125294285D02*
X145960880Y-125294285D01*
X146409081Y-124117757D02*
X146409081Y-125070184D01*
X146409081Y-125070184D02*
X146465106Y-125182234D01*
X146465106Y-125182234D02*
X146521132Y-125238260D01*
X146521132Y-125238260D02*
X146633182Y-125294285D01*
X146633182Y-125294285D02*
X146857282Y-125294285D01*
X146857282Y-125294285D02*
X146969333Y-125238260D01*
X146969333Y-125238260D02*
X147025358Y-125182234D01*
X147025358Y-125182234D02*
X147081383Y-125070184D01*
X147081383Y-125070184D02*
X147081383Y-124117757D01*
X147585609Y-125238260D02*
X147753685Y-125294285D01*
X147753685Y-125294285D02*
X148033810Y-125294285D01*
X148033810Y-125294285D02*
X148145861Y-125238260D01*
X148145861Y-125238260D02*
X148201886Y-125182234D01*
X148201886Y-125182234D02*
X148257911Y-125070184D01*
X148257911Y-125070184D02*
X148257911Y-124958134D01*
X148257911Y-124958134D02*
X148201886Y-124846084D01*
X148201886Y-124846084D02*
X148145861Y-124790058D01*
X148145861Y-124790058D02*
X148033810Y-124734033D01*
X148033810Y-124734033D02*
X147809710Y-124678008D01*
X147809710Y-124678008D02*
X147697659Y-124621983D01*
X147697659Y-124621983D02*
X147641634Y-124565958D01*
X147641634Y-124565958D02*
X147585609Y-124453908D01*
X147585609Y-124453908D02*
X147585609Y-124341857D01*
X147585609Y-124341857D02*
X147641634Y-124229807D01*
X147641634Y-124229807D02*
X147697659Y-124173782D01*
X147697659Y-124173782D02*
X147809710Y-124117757D01*
X147809710Y-124117757D02*
X148089835Y-124117757D01*
X148089835Y-124117757D02*
X148257911Y-124173782D01*
X148706112Y-124958134D02*
X149266364Y-124958134D01*
X148594062Y-125294285D02*
X148986238Y-124117757D01*
X148986238Y-124117757D02*
X149378414Y-125294285D01*
X149490465Y-125406335D02*
X150386867Y-125406335D01*
X151339294Y-125182234D02*
X151283269Y-125238260D01*
X151283269Y-125238260D02*
X151115193Y-125294285D01*
X151115193Y-125294285D02*
X151003143Y-125294285D01*
X151003143Y-125294285D02*
X150835068Y-125238260D01*
X150835068Y-125238260D02*
X150723017Y-125126209D01*
X150723017Y-125126209D02*
X150666992Y-125014159D01*
X150666992Y-125014159D02*
X150610967Y-124790058D01*
X150610967Y-124790058D02*
X150610967Y-124621983D01*
X150610967Y-124621983D02*
X150666992Y-124397882D01*
X150666992Y-124397882D02*
X150723017Y-124285832D01*
X150723017Y-124285832D02*
X150835068Y-124173782D01*
X150835068Y-124173782D02*
X151003143Y-124117757D01*
X151003143Y-124117757D02*
X151115193Y-124117757D01*
X151115193Y-124117757D02*
X151283269Y-124173782D01*
X151283269Y-124173782D02*
X151339294Y-124229807D01*
X152067621Y-124117757D02*
X152291721Y-124117757D01*
X152291721Y-124117757D02*
X152403772Y-124173782D01*
X152403772Y-124173782D02*
X152515822Y-124285832D01*
X152515822Y-124285832D02*
X152571847Y-124509933D01*
X152571847Y-124509933D02*
X152571847Y-124902109D01*
X152571847Y-124902109D02*
X152515822Y-125126209D01*
X152515822Y-125126209D02*
X152403772Y-125238260D01*
X152403772Y-125238260D02*
X152291721Y-125294285D01*
X152291721Y-125294285D02*
X152067621Y-125294285D01*
X152067621Y-125294285D02*
X151955571Y-125238260D01*
X151955571Y-125238260D02*
X151843520Y-125126209D01*
X151843520Y-125126209D02*
X151787495Y-124902109D01*
X151787495Y-124902109D02*
X151787495Y-124509933D01*
X151787495Y-124509933D02*
X151843520Y-124285832D01*
X151843520Y-124285832D02*
X151955571Y-124173782D01*
X151955571Y-124173782D02*
X152067621Y-124117757D01*
X153076073Y-125294285D02*
X153076073Y-124117757D01*
X153076073Y-124117757D02*
X153748375Y-125294285D01*
X153748375Y-125294285D02*
X153748375Y-124117757D01*
X154924903Y-125294285D02*
X154252601Y-125294285D01*
X154588752Y-125294285D02*
X154588752Y-124117757D01*
X154588752Y-124117757D02*
X154476702Y-124285832D01*
X154476702Y-124285832D02*
X154364651Y-124397882D01*
X154364651Y-124397882D02*
X154252601Y-124453908D01*
%TO.C,SERVO1*%
X134724100Y-125238260D02*
X134892176Y-125294285D01*
X134892176Y-125294285D02*
X135172301Y-125294285D01*
X135172301Y-125294285D02*
X135284352Y-125238260D01*
X135284352Y-125238260D02*
X135340377Y-125182234D01*
X135340377Y-125182234D02*
X135396402Y-125070184D01*
X135396402Y-125070184D02*
X135396402Y-124958134D01*
X135396402Y-124958134D02*
X135340377Y-124846084D01*
X135340377Y-124846084D02*
X135284352Y-124790058D01*
X135284352Y-124790058D02*
X135172301Y-124734033D01*
X135172301Y-124734033D02*
X134948201Y-124678008D01*
X134948201Y-124678008D02*
X134836150Y-124621983D01*
X134836150Y-124621983D02*
X134780125Y-124565958D01*
X134780125Y-124565958D02*
X134724100Y-124453908D01*
X134724100Y-124453908D02*
X134724100Y-124341857D01*
X134724100Y-124341857D02*
X134780125Y-124229807D01*
X134780125Y-124229807D02*
X134836150Y-124173782D01*
X134836150Y-124173782D02*
X134948201Y-124117757D01*
X134948201Y-124117757D02*
X135228326Y-124117757D01*
X135228326Y-124117757D02*
X135396402Y-124173782D01*
X135900628Y-124678008D02*
X136292804Y-124678008D01*
X136460880Y-125294285D02*
X135900628Y-125294285D01*
X135900628Y-125294285D02*
X135900628Y-124117757D01*
X135900628Y-124117757D02*
X136460880Y-124117757D01*
X137637408Y-125294285D02*
X137245232Y-124734033D01*
X136965106Y-125294285D02*
X136965106Y-124117757D01*
X136965106Y-124117757D02*
X137413307Y-124117757D01*
X137413307Y-124117757D02*
X137525358Y-124173782D01*
X137525358Y-124173782D02*
X137581383Y-124229807D01*
X137581383Y-124229807D02*
X137637408Y-124341857D01*
X137637408Y-124341857D02*
X137637408Y-124509933D01*
X137637408Y-124509933D02*
X137581383Y-124621983D01*
X137581383Y-124621983D02*
X137525358Y-124678008D01*
X137525358Y-124678008D02*
X137413307Y-124734033D01*
X137413307Y-124734033D02*
X136965106Y-124734033D01*
X137973559Y-124117757D02*
X138365735Y-125294285D01*
X138365735Y-125294285D02*
X138757911Y-124117757D01*
X139374188Y-124117757D02*
X139598288Y-124117757D01*
X139598288Y-124117757D02*
X139710339Y-124173782D01*
X139710339Y-124173782D02*
X139822389Y-124285832D01*
X139822389Y-124285832D02*
X139878414Y-124509933D01*
X139878414Y-124509933D02*
X139878414Y-124902109D01*
X139878414Y-124902109D02*
X139822389Y-125126209D01*
X139822389Y-125126209D02*
X139710339Y-125238260D01*
X139710339Y-125238260D02*
X139598288Y-125294285D01*
X139598288Y-125294285D02*
X139374188Y-125294285D01*
X139374188Y-125294285D02*
X139262138Y-125238260D01*
X139262138Y-125238260D02*
X139150087Y-125126209D01*
X139150087Y-125126209D02*
X139094062Y-124902109D01*
X139094062Y-124902109D02*
X139094062Y-124509933D01*
X139094062Y-124509933D02*
X139150087Y-124285832D01*
X139150087Y-124285832D02*
X139262138Y-124173782D01*
X139262138Y-124173782D02*
X139374188Y-124117757D01*
X140998917Y-125294285D02*
X140326615Y-125294285D01*
X140662766Y-125294285D02*
X140662766Y-124117757D01*
X140662766Y-124117757D02*
X140550716Y-124285832D01*
X140550716Y-124285832D02*
X140438665Y-124397882D01*
X140438665Y-124397882D02*
X140326615Y-124453908D01*
D14*
%TO.C,C1*%
X150420170Y-103279371D02*
X150442228Y-103301428D01*
X150442228Y-103301428D02*
X150464285Y-103367600D01*
X150464285Y-103367600D02*
X150464285Y-103411714D01*
X150464285Y-103411714D02*
X150442228Y-103477885D01*
X150442228Y-103477885D02*
X150398113Y-103522000D01*
X150398113Y-103522000D02*
X150353999Y-103544057D01*
X150353999Y-103544057D02*
X150265770Y-103566114D01*
X150265770Y-103566114D02*
X150199599Y-103566114D01*
X150199599Y-103566114D02*
X150111370Y-103544057D01*
X150111370Y-103544057D02*
X150067256Y-103522000D01*
X150067256Y-103522000D02*
X150023142Y-103477885D01*
X150023142Y-103477885D02*
X150001085Y-103411714D01*
X150001085Y-103411714D02*
X150001085Y-103367600D01*
X150001085Y-103367600D02*
X150023142Y-103301428D01*
X150023142Y-103301428D02*
X150045199Y-103279371D01*
X150464285Y-102838228D02*
X150464285Y-103102914D01*
X150464285Y-102970571D02*
X150001085Y-102970571D01*
X150001085Y-102970571D02*
X150067256Y-103014685D01*
X150067256Y-103014685D02*
X150111370Y-103058800D01*
X150111370Y-103058800D02*
X150133428Y-103102914D01*
%TO.C,C2*%
X157670170Y-96529371D02*
X157692228Y-96551428D01*
X157692228Y-96551428D02*
X157714285Y-96617600D01*
X157714285Y-96617600D02*
X157714285Y-96661714D01*
X157714285Y-96661714D02*
X157692228Y-96727885D01*
X157692228Y-96727885D02*
X157648113Y-96772000D01*
X157648113Y-96772000D02*
X157603999Y-96794057D01*
X157603999Y-96794057D02*
X157515770Y-96816114D01*
X157515770Y-96816114D02*
X157449599Y-96816114D01*
X157449599Y-96816114D02*
X157361370Y-96794057D01*
X157361370Y-96794057D02*
X157317256Y-96772000D01*
X157317256Y-96772000D02*
X157273142Y-96727885D01*
X157273142Y-96727885D02*
X157251085Y-96661714D01*
X157251085Y-96661714D02*
X157251085Y-96617600D01*
X157251085Y-96617600D02*
X157273142Y-96551428D01*
X157273142Y-96551428D02*
X157295199Y-96529371D01*
X157295199Y-96352914D02*
X157273142Y-96330857D01*
X157273142Y-96330857D02*
X157251085Y-96286743D01*
X157251085Y-96286743D02*
X157251085Y-96176457D01*
X157251085Y-96176457D02*
X157273142Y-96132343D01*
X157273142Y-96132343D02*
X157295199Y-96110285D01*
X157295199Y-96110285D02*
X157339313Y-96088228D01*
X157339313Y-96088228D02*
X157383428Y-96088228D01*
X157383428Y-96088228D02*
X157449599Y-96110285D01*
X157449599Y-96110285D02*
X157714285Y-96374971D01*
X157714285Y-96374971D02*
X157714285Y-96088228D01*
%TO.C,C3*%
X158920170Y-96529371D02*
X158942228Y-96551428D01*
X158942228Y-96551428D02*
X158964285Y-96617600D01*
X158964285Y-96617600D02*
X158964285Y-96661714D01*
X158964285Y-96661714D02*
X158942228Y-96727885D01*
X158942228Y-96727885D02*
X158898113Y-96772000D01*
X158898113Y-96772000D02*
X158853999Y-96794057D01*
X158853999Y-96794057D02*
X158765770Y-96816114D01*
X158765770Y-96816114D02*
X158699599Y-96816114D01*
X158699599Y-96816114D02*
X158611370Y-96794057D01*
X158611370Y-96794057D02*
X158567256Y-96772000D01*
X158567256Y-96772000D02*
X158523142Y-96727885D01*
X158523142Y-96727885D02*
X158501085Y-96661714D01*
X158501085Y-96661714D02*
X158501085Y-96617600D01*
X158501085Y-96617600D02*
X158523142Y-96551428D01*
X158523142Y-96551428D02*
X158545199Y-96529371D01*
X158501085Y-96374971D02*
X158501085Y-96088228D01*
X158501085Y-96088228D02*
X158677542Y-96242628D01*
X158677542Y-96242628D02*
X158677542Y-96176457D01*
X158677542Y-96176457D02*
X158699599Y-96132343D01*
X158699599Y-96132343D02*
X158721656Y-96110285D01*
X158721656Y-96110285D02*
X158765770Y-96088228D01*
X158765770Y-96088228D02*
X158876056Y-96088228D01*
X158876056Y-96088228D02*
X158920170Y-96110285D01*
X158920170Y-96110285D02*
X158942228Y-96132343D01*
X158942228Y-96132343D02*
X158964285Y-96176457D01*
X158964285Y-96176457D02*
X158964285Y-96308800D01*
X158964285Y-96308800D02*
X158942228Y-96352914D01*
X158942228Y-96352914D02*
X158920170Y-96374971D01*
%TO.C,C6*%
X158920170Y-106279371D02*
X158942228Y-106301428D01*
X158942228Y-106301428D02*
X158964285Y-106367600D01*
X158964285Y-106367600D02*
X158964285Y-106411714D01*
X158964285Y-106411714D02*
X158942228Y-106477885D01*
X158942228Y-106477885D02*
X158898113Y-106522000D01*
X158898113Y-106522000D02*
X158853999Y-106544057D01*
X158853999Y-106544057D02*
X158765770Y-106566114D01*
X158765770Y-106566114D02*
X158699599Y-106566114D01*
X158699599Y-106566114D02*
X158611370Y-106544057D01*
X158611370Y-106544057D02*
X158567256Y-106522000D01*
X158567256Y-106522000D02*
X158523142Y-106477885D01*
X158523142Y-106477885D02*
X158501085Y-106411714D01*
X158501085Y-106411714D02*
X158501085Y-106367600D01*
X158501085Y-106367600D02*
X158523142Y-106301428D01*
X158523142Y-106301428D02*
X158545199Y-106279371D01*
X158501085Y-105882343D02*
X158501085Y-105970571D01*
X158501085Y-105970571D02*
X158523142Y-106014685D01*
X158523142Y-106014685D02*
X158545199Y-106036743D01*
X158545199Y-106036743D02*
X158611370Y-106080857D01*
X158611370Y-106080857D02*
X158699599Y-106102914D01*
X158699599Y-106102914D02*
X158876056Y-106102914D01*
X158876056Y-106102914D02*
X158920170Y-106080857D01*
X158920170Y-106080857D02*
X158942228Y-106058800D01*
X158942228Y-106058800D02*
X158964285Y-106014685D01*
X158964285Y-106014685D02*
X158964285Y-105926457D01*
X158964285Y-105926457D02*
X158942228Y-105882343D01*
X158942228Y-105882343D02*
X158920170Y-105860285D01*
X158920170Y-105860285D02*
X158876056Y-105838228D01*
X158876056Y-105838228D02*
X158765770Y-105838228D01*
X158765770Y-105838228D02*
X158721656Y-105860285D01*
X158721656Y-105860285D02*
X158699599Y-105882343D01*
X158699599Y-105882343D02*
X158677542Y-105926457D01*
X158677542Y-105926457D02*
X158677542Y-106014685D01*
X158677542Y-106014685D02*
X158699599Y-106058800D01*
X158699599Y-106058800D02*
X158721656Y-106080857D01*
X158721656Y-106080857D02*
X158765770Y-106102914D01*
D13*
%TO.C,SERVO2*%
X134649100Y-117238260D02*
X134817176Y-117294285D01*
X134817176Y-117294285D02*
X135097301Y-117294285D01*
X135097301Y-117294285D02*
X135209352Y-117238260D01*
X135209352Y-117238260D02*
X135265377Y-117182234D01*
X135265377Y-117182234D02*
X135321402Y-117070184D01*
X135321402Y-117070184D02*
X135321402Y-116958134D01*
X135321402Y-116958134D02*
X135265377Y-116846084D01*
X135265377Y-116846084D02*
X135209352Y-116790058D01*
X135209352Y-116790058D02*
X135097301Y-116734033D01*
X135097301Y-116734033D02*
X134873201Y-116678008D01*
X134873201Y-116678008D02*
X134761150Y-116621983D01*
X134761150Y-116621983D02*
X134705125Y-116565958D01*
X134705125Y-116565958D02*
X134649100Y-116453908D01*
X134649100Y-116453908D02*
X134649100Y-116341857D01*
X134649100Y-116341857D02*
X134705125Y-116229807D01*
X134705125Y-116229807D02*
X134761150Y-116173782D01*
X134761150Y-116173782D02*
X134873201Y-116117757D01*
X134873201Y-116117757D02*
X135153326Y-116117757D01*
X135153326Y-116117757D02*
X135321402Y-116173782D01*
X135825628Y-116678008D02*
X136217804Y-116678008D01*
X136385880Y-117294285D02*
X135825628Y-117294285D01*
X135825628Y-117294285D02*
X135825628Y-116117757D01*
X135825628Y-116117757D02*
X136385880Y-116117757D01*
X137562408Y-117294285D02*
X137170232Y-116734033D01*
X136890106Y-117294285D02*
X136890106Y-116117757D01*
X136890106Y-116117757D02*
X137338307Y-116117757D01*
X137338307Y-116117757D02*
X137450358Y-116173782D01*
X137450358Y-116173782D02*
X137506383Y-116229807D01*
X137506383Y-116229807D02*
X137562408Y-116341857D01*
X137562408Y-116341857D02*
X137562408Y-116509933D01*
X137562408Y-116509933D02*
X137506383Y-116621983D01*
X137506383Y-116621983D02*
X137450358Y-116678008D01*
X137450358Y-116678008D02*
X137338307Y-116734033D01*
X137338307Y-116734033D02*
X136890106Y-116734033D01*
X137898559Y-116117757D02*
X138290735Y-117294285D01*
X138290735Y-117294285D02*
X138682911Y-116117757D01*
X139299188Y-116117757D02*
X139523288Y-116117757D01*
X139523288Y-116117757D02*
X139635339Y-116173782D01*
X139635339Y-116173782D02*
X139747389Y-116285832D01*
X139747389Y-116285832D02*
X139803414Y-116509933D01*
X139803414Y-116509933D02*
X139803414Y-116902109D01*
X139803414Y-116902109D02*
X139747389Y-117126209D01*
X139747389Y-117126209D02*
X139635339Y-117238260D01*
X139635339Y-117238260D02*
X139523288Y-117294285D01*
X139523288Y-117294285D02*
X139299188Y-117294285D01*
X139299188Y-117294285D02*
X139187138Y-117238260D01*
X139187138Y-117238260D02*
X139075087Y-117126209D01*
X139075087Y-117126209D02*
X139019062Y-116902109D01*
X139019062Y-116902109D02*
X139019062Y-116509933D01*
X139019062Y-116509933D02*
X139075087Y-116285832D01*
X139075087Y-116285832D02*
X139187138Y-116173782D01*
X139187138Y-116173782D02*
X139299188Y-116117757D01*
X140251615Y-116229807D02*
X140307640Y-116173782D01*
X140307640Y-116173782D02*
X140419691Y-116117757D01*
X140419691Y-116117757D02*
X140699816Y-116117757D01*
X140699816Y-116117757D02*
X140811867Y-116173782D01*
X140811867Y-116173782D02*
X140867892Y-116229807D01*
X140867892Y-116229807D02*
X140923917Y-116341857D01*
X140923917Y-116341857D02*
X140923917Y-116453908D01*
X140923917Y-116453908D02*
X140867892Y-116621983D01*
X140867892Y-116621983D02*
X140195590Y-117294285D01*
X140195590Y-117294285D02*
X140923917Y-117294285D01*
%TO.C,AZUSA_CON2*%
X144224100Y-116958134D02*
X144784352Y-116958134D01*
X144112050Y-117294285D02*
X144504226Y-116117757D01*
X144504226Y-116117757D02*
X144896402Y-117294285D01*
X145176528Y-116117757D02*
X145960880Y-116117757D01*
X145960880Y-116117757D02*
X145176528Y-117294285D01*
X145176528Y-117294285D02*
X145960880Y-117294285D01*
X146409081Y-116117757D02*
X146409081Y-117070184D01*
X146409081Y-117070184D02*
X146465106Y-117182234D01*
X146465106Y-117182234D02*
X146521132Y-117238260D01*
X146521132Y-117238260D02*
X146633182Y-117294285D01*
X146633182Y-117294285D02*
X146857282Y-117294285D01*
X146857282Y-117294285D02*
X146969333Y-117238260D01*
X146969333Y-117238260D02*
X147025358Y-117182234D01*
X147025358Y-117182234D02*
X147081383Y-117070184D01*
X147081383Y-117070184D02*
X147081383Y-116117757D01*
X147585609Y-117238260D02*
X147753685Y-117294285D01*
X147753685Y-117294285D02*
X148033810Y-117294285D01*
X148033810Y-117294285D02*
X148145861Y-117238260D01*
X148145861Y-117238260D02*
X148201886Y-117182234D01*
X148201886Y-117182234D02*
X148257911Y-117070184D01*
X148257911Y-117070184D02*
X148257911Y-116958134D01*
X148257911Y-116958134D02*
X148201886Y-116846084D01*
X148201886Y-116846084D02*
X148145861Y-116790058D01*
X148145861Y-116790058D02*
X148033810Y-116734033D01*
X148033810Y-116734033D02*
X147809710Y-116678008D01*
X147809710Y-116678008D02*
X147697659Y-116621983D01*
X147697659Y-116621983D02*
X147641634Y-116565958D01*
X147641634Y-116565958D02*
X147585609Y-116453908D01*
X147585609Y-116453908D02*
X147585609Y-116341857D01*
X147585609Y-116341857D02*
X147641634Y-116229807D01*
X147641634Y-116229807D02*
X147697659Y-116173782D01*
X147697659Y-116173782D02*
X147809710Y-116117757D01*
X147809710Y-116117757D02*
X148089835Y-116117757D01*
X148089835Y-116117757D02*
X148257911Y-116173782D01*
X148706112Y-116958134D02*
X149266364Y-116958134D01*
X148594062Y-117294285D02*
X148986238Y-116117757D01*
X148986238Y-116117757D02*
X149378414Y-117294285D01*
X149490465Y-117406335D02*
X150386867Y-117406335D01*
X151339294Y-117182234D02*
X151283269Y-117238260D01*
X151283269Y-117238260D02*
X151115193Y-117294285D01*
X151115193Y-117294285D02*
X151003143Y-117294285D01*
X151003143Y-117294285D02*
X150835068Y-117238260D01*
X150835068Y-117238260D02*
X150723017Y-117126209D01*
X150723017Y-117126209D02*
X150666992Y-117014159D01*
X150666992Y-117014159D02*
X150610967Y-116790058D01*
X150610967Y-116790058D02*
X150610967Y-116621983D01*
X150610967Y-116621983D02*
X150666992Y-116397882D01*
X150666992Y-116397882D02*
X150723017Y-116285832D01*
X150723017Y-116285832D02*
X150835068Y-116173782D01*
X150835068Y-116173782D02*
X151003143Y-116117757D01*
X151003143Y-116117757D02*
X151115193Y-116117757D01*
X151115193Y-116117757D02*
X151283269Y-116173782D01*
X151283269Y-116173782D02*
X151339294Y-116229807D01*
X152067621Y-116117757D02*
X152291721Y-116117757D01*
X152291721Y-116117757D02*
X152403772Y-116173782D01*
X152403772Y-116173782D02*
X152515822Y-116285832D01*
X152515822Y-116285832D02*
X152571847Y-116509933D01*
X152571847Y-116509933D02*
X152571847Y-116902109D01*
X152571847Y-116902109D02*
X152515822Y-117126209D01*
X152515822Y-117126209D02*
X152403772Y-117238260D01*
X152403772Y-117238260D02*
X152291721Y-117294285D01*
X152291721Y-117294285D02*
X152067621Y-117294285D01*
X152067621Y-117294285D02*
X151955571Y-117238260D01*
X151955571Y-117238260D02*
X151843520Y-117126209D01*
X151843520Y-117126209D02*
X151787495Y-116902109D01*
X151787495Y-116902109D02*
X151787495Y-116509933D01*
X151787495Y-116509933D02*
X151843520Y-116285832D01*
X151843520Y-116285832D02*
X151955571Y-116173782D01*
X151955571Y-116173782D02*
X152067621Y-116117757D01*
X153076073Y-117294285D02*
X153076073Y-116117757D01*
X153076073Y-116117757D02*
X153748375Y-117294285D01*
X153748375Y-117294285D02*
X153748375Y-116117757D01*
X154252601Y-116229807D02*
X154308626Y-116173782D01*
X154308626Y-116173782D02*
X154420677Y-116117757D01*
X154420677Y-116117757D02*
X154700802Y-116117757D01*
X154700802Y-116117757D02*
X154812853Y-116173782D01*
X154812853Y-116173782D02*
X154868878Y-116229807D01*
X154868878Y-116229807D02*
X154924903Y-116341857D01*
X154924903Y-116341857D02*
X154924903Y-116453908D01*
X154924903Y-116453908D02*
X154868878Y-116621983D01*
X154868878Y-116621983D02*
X154196576Y-117294285D01*
X154196576Y-117294285D02*
X154924903Y-117294285D01*
%TO.C,THRU*%
X129867757Y-121137949D02*
X129867757Y-120465648D01*
X131044285Y-120801798D02*
X129867757Y-120801798D01*
X131044285Y-120073472D02*
X129867757Y-120073472D01*
X130428008Y-120073472D02*
X130428008Y-119401170D01*
X131044285Y-119401170D02*
X129867757Y-119401170D01*
X131044285Y-118168617D02*
X130484033Y-118560793D01*
X131044285Y-118840919D02*
X129867757Y-118840919D01*
X129867757Y-118840919D02*
X129867757Y-118392718D01*
X129867757Y-118392718D02*
X129923782Y-118280667D01*
X129923782Y-118280667D02*
X129979807Y-118224642D01*
X129979807Y-118224642D02*
X130091857Y-118168617D01*
X130091857Y-118168617D02*
X130259933Y-118168617D01*
X130259933Y-118168617D02*
X130371983Y-118224642D01*
X130371983Y-118224642D02*
X130428008Y-118280667D01*
X130428008Y-118280667D02*
X130484033Y-118392718D01*
X130484033Y-118392718D02*
X130484033Y-118840919D01*
X129867757Y-117664391D02*
X130820184Y-117664391D01*
X130820184Y-117664391D02*
X130932234Y-117608366D01*
X130932234Y-117608366D02*
X130988260Y-117552341D01*
X130988260Y-117552341D02*
X131044285Y-117440290D01*
X131044285Y-117440290D02*
X131044285Y-117216190D01*
X131044285Y-117216190D02*
X130988260Y-117104139D01*
X130988260Y-117104139D02*
X130932234Y-117048114D01*
X130932234Y-117048114D02*
X130820184Y-116992089D01*
X130820184Y-116992089D02*
X129867757Y-116992089D01*
D14*
%TO.C,C7*%
X140420170Y-110375028D02*
X140442228Y-110397085D01*
X140442228Y-110397085D02*
X140464285Y-110463257D01*
X140464285Y-110463257D02*
X140464285Y-110507371D01*
X140464285Y-110507371D02*
X140442228Y-110573542D01*
X140442228Y-110573542D02*
X140398113Y-110617657D01*
X140398113Y-110617657D02*
X140353999Y-110639714D01*
X140353999Y-110639714D02*
X140265770Y-110661771D01*
X140265770Y-110661771D02*
X140199599Y-110661771D01*
X140199599Y-110661771D02*
X140111370Y-110639714D01*
X140111370Y-110639714D02*
X140067256Y-110617657D01*
X140067256Y-110617657D02*
X140023142Y-110573542D01*
X140023142Y-110573542D02*
X140001085Y-110507371D01*
X140001085Y-110507371D02*
X140001085Y-110463257D01*
X140001085Y-110463257D02*
X140023142Y-110397085D01*
X140023142Y-110397085D02*
X140045199Y-110375028D01*
X140001085Y-110220628D02*
X140001085Y-109911828D01*
X140001085Y-109911828D02*
X140464285Y-110110342D01*
D16*
%TO.C,TLP1*%
X135820582Y-110601736D02*
X136244080Y-110601736D01*
X136032331Y-111342856D02*
X136032331Y-110601736D01*
X136844034Y-111342856D02*
X136491120Y-111342856D01*
X136491120Y-111342856D02*
X136491120Y-110601736D01*
X137091074Y-111342856D02*
X137091074Y-110601736D01*
X137091074Y-110601736D02*
X137373405Y-110601736D01*
X137373405Y-110601736D02*
X137443988Y-110637027D01*
X137443988Y-110637027D02*
X137479279Y-110672319D01*
X137479279Y-110672319D02*
X137514571Y-110742902D01*
X137514571Y-110742902D02*
X137514571Y-110848776D01*
X137514571Y-110848776D02*
X137479279Y-110919359D01*
X137479279Y-110919359D02*
X137443988Y-110954650D01*
X137443988Y-110954650D02*
X137373405Y-110989942D01*
X137373405Y-110989942D02*
X137091074Y-110989942D01*
X138220399Y-111342856D02*
X137796902Y-111342856D01*
X138008651Y-111342856D02*
X138008651Y-110601736D01*
X138008651Y-110601736D02*
X137938068Y-110707610D01*
X137938068Y-110707610D02*
X137867485Y-110778193D01*
X137867485Y-110778193D02*
X137796902Y-110813485D01*
X138890937Y-110601736D02*
X138538023Y-110601736D01*
X138538023Y-110601736D02*
X138502731Y-110954650D01*
X138502731Y-110954650D02*
X138538023Y-110919359D01*
X138538023Y-110919359D02*
X138608606Y-110884067D01*
X138608606Y-110884067D02*
X138785063Y-110884067D01*
X138785063Y-110884067D02*
X138855646Y-110919359D01*
X138855646Y-110919359D02*
X138890937Y-110954650D01*
X138890937Y-110954650D02*
X138926228Y-111025233D01*
X138926228Y-111025233D02*
X138926228Y-111201690D01*
X138926228Y-111201690D02*
X138890937Y-111272273D01*
X138890937Y-111272273D02*
X138855646Y-111307565D01*
X138855646Y-111307565D02*
X138785063Y-111342856D01*
X138785063Y-111342856D02*
X138608606Y-111342856D01*
X138608606Y-111342856D02*
X138538023Y-111307565D01*
X138538023Y-111307565D02*
X138502731Y-111272273D01*
X139208560Y-110672319D02*
X139243852Y-110637027D01*
X139243852Y-110637027D02*
X139314435Y-110601736D01*
X139314435Y-110601736D02*
X139490892Y-110601736D01*
X139490892Y-110601736D02*
X139561475Y-110637027D01*
X139561475Y-110637027D02*
X139596766Y-110672319D01*
X139596766Y-110672319D02*
X139632057Y-110742902D01*
X139632057Y-110742902D02*
X139632057Y-110813485D01*
X139632057Y-110813485D02*
X139596766Y-110919359D01*
X139596766Y-110919359D02*
X139173269Y-111342856D01*
X139173269Y-111342856D02*
X139632057Y-111342856D01*
D17*
%TO.C,LED*%
X158781100Y-128223600D02*
X158081100Y-128223600D01*
X158781100Y-128223600D02*
X158781100Y-130363600D01*
X158081100Y-130363600D02*
X158781100Y-130363600D01*
X158081100Y-128223600D02*
X158081100Y-130363600D01*
X158781100Y-126723600D02*
X158081100Y-126723600D01*
X158781100Y-121483600D02*
X158081100Y-121483600D01*
X158781100Y-119983600D02*
X158081100Y-119983600D01*
X159781100Y-129663600D02*
X159781100Y-130363600D01*
X159781100Y-117843600D02*
X159781100Y-118543600D01*
X161701100Y-118543600D02*
X161701100Y-129663600D01*
X161701100Y-118543600D02*
X163131100Y-118543600D01*
X159781100Y-118543600D02*
X161701100Y-118543600D01*
X158781100Y-119983600D02*
X158781100Y-117843600D01*
X158781100Y-126723600D02*
X158781100Y-121483600D01*
X161701100Y-129663600D02*
X159781100Y-129663600D01*
X163131100Y-129663600D02*
X161701100Y-129663600D01*
X163131100Y-118543600D02*
X163131100Y-129663600D01*
X159781100Y-117843600D02*
X163831100Y-117843600D01*
X158081100Y-117843600D02*
X158781100Y-117843600D01*
X158081100Y-119983600D02*
X158081100Y-117843600D01*
X158081100Y-126723600D02*
X158081100Y-121483600D01*
X163831100Y-130363600D02*
X159781100Y-130363600D01*
X163831100Y-117843600D02*
X163831100Y-130363600D01*
%TO.C,AZUSA*%
X168001100Y-101223600D02*
X168001100Y-101923600D01*
X168001100Y-101223600D02*
X170141100Y-101223600D01*
X170141100Y-101923600D02*
X170141100Y-101223600D01*
X168001100Y-101923600D02*
X170141100Y-101923600D01*
X164841100Y-101223600D02*
X164841100Y-101923600D01*
X169441100Y-100223600D02*
X170141100Y-100223600D01*
X162701100Y-100223600D02*
X163401100Y-100223600D01*
X163401100Y-98303600D02*
X169441100Y-98303600D01*
X163401100Y-98303600D02*
X163401100Y-96873600D01*
X163401100Y-100223600D02*
X163401100Y-98303600D01*
X164841100Y-101223600D02*
X162701100Y-101223600D01*
X169441100Y-98303600D02*
X169441100Y-100223600D01*
X169441100Y-96873600D02*
X169441100Y-98303600D01*
X163401100Y-96873600D02*
X169441100Y-96873600D01*
X162701100Y-100223600D02*
X162701100Y-96173600D01*
X162701100Y-101923600D02*
X162701100Y-101223600D01*
X164841100Y-101923600D02*
X162701100Y-101923600D01*
X170141100Y-96173600D02*
X170141100Y-100223600D01*
X162701100Y-96173600D02*
X170141100Y-96173600D01*
%TO.C,SW1*%
X168001100Y-91793600D02*
X168001100Y-92493600D01*
X168001100Y-91793600D02*
X170141100Y-91793600D01*
X170141100Y-92493600D02*
X170141100Y-91793600D01*
X168001100Y-92493600D02*
X170141100Y-92493600D01*
X164841100Y-91793600D02*
X164841100Y-92493600D01*
X169441100Y-90793600D02*
X170141100Y-90793600D01*
X162701100Y-90793600D02*
X163401100Y-90793600D01*
X163401100Y-88873600D02*
X169441100Y-88873600D01*
X163401100Y-88873600D02*
X163401100Y-87443600D01*
X163401100Y-90793600D02*
X163401100Y-88873600D01*
X164841100Y-91793600D02*
X162701100Y-91793600D01*
X169441100Y-88873600D02*
X169441100Y-90793600D01*
X169441100Y-87443600D02*
X169441100Y-88873600D01*
X163401100Y-87443600D02*
X169441100Y-87443600D01*
X162701100Y-90793600D02*
X162701100Y-86743600D01*
X162701100Y-92493600D02*
X162701100Y-91793600D01*
X164841100Y-92493600D02*
X162701100Y-92493600D01*
X170141100Y-86743600D02*
X170141100Y-90793600D01*
X162701100Y-86743600D02*
X170141100Y-86743600D01*
%TO.C,SW2*%
X157841100Y-91793600D02*
X157841100Y-92493600D01*
X157841100Y-91793600D02*
X159981100Y-91793600D01*
X159981100Y-92493600D02*
X159981100Y-91793600D01*
X157841100Y-92493600D02*
X159981100Y-92493600D01*
X154681100Y-91793600D02*
X154681100Y-92493600D01*
X159281100Y-90793600D02*
X159981100Y-90793600D01*
X152541100Y-90793600D02*
X153241100Y-90793600D01*
X153241100Y-88873600D02*
X159281100Y-88873600D01*
X153241100Y-88873600D02*
X153241100Y-87443600D01*
X153241100Y-90793600D02*
X153241100Y-88873600D01*
X154681100Y-91793600D02*
X152541100Y-91793600D01*
X159281100Y-88873600D02*
X159281100Y-90793600D01*
X159281100Y-87443600D02*
X159281100Y-88873600D01*
X153241100Y-87443600D02*
X159281100Y-87443600D01*
X152541100Y-90793600D02*
X152541100Y-86743600D01*
X152541100Y-92493600D02*
X152541100Y-91793600D01*
X154681100Y-92493600D02*
X152541100Y-92493600D01*
X159981100Y-86743600D02*
X159981100Y-90793600D01*
X152541100Y-86743600D02*
X159981100Y-86743600D01*
D18*
%TO.C,C4*%
X150904100Y-106972600D02*
X151234100Y-106972600D01*
X151234100Y-106642600D02*
X150904100Y-106642600D01*
X150904100Y-107122600D02*
X151234100Y-107122600D01*
X150904100Y-106972600D02*
X150904100Y-107122600D01*
X150904100Y-106642600D02*
X150904100Y-106972600D01*
X150904100Y-106492600D02*
X150904100Y-106642600D01*
X151234100Y-106492600D02*
X150904100Y-106492600D01*
X151234100Y-106642600D02*
X151234100Y-106492600D01*
X151234100Y-106972600D02*
X151234100Y-106642600D01*
X151234100Y-107122600D02*
X151234100Y-106972600D01*
%TO.C,C5*%
X157423100Y-107610600D02*
X157753100Y-107610600D01*
X157753100Y-107280600D02*
X157423100Y-107280600D01*
X157423100Y-107760600D02*
X157753100Y-107760600D01*
X157423100Y-107610600D02*
X157423100Y-107760600D01*
X157423100Y-107280600D02*
X157423100Y-107610600D01*
X157423100Y-107130600D02*
X157423100Y-107280600D01*
X157753100Y-107130600D02*
X157423100Y-107130600D01*
X157753100Y-107280600D02*
X157753100Y-107130600D01*
X157753100Y-107610600D02*
X157753100Y-107280600D01*
X157753100Y-107760600D02*
X157753100Y-107610600D01*
D17*
%TO.C,Lipo\uFF3FTHRU*%
X145601100Y-90003600D02*
G75*
G03*
X139101100Y-86353601I-8264146J-7104301D01*
G01*
X139101100Y-107653599D02*
G75*
G03*
X145601100Y-104003600I-1764146J10754300D01*
G01*
X145601100Y-90753600D02*
X145601100Y-90003600D01*
X145601100Y-101503600D02*
X145601100Y-92503600D01*
X145601100Y-104003600D02*
X145601100Y-103253600D01*
X137001100Y-90503600D02*
X137001100Y-92503600D01*
X136001100Y-90503600D02*
X137001100Y-90503600D01*
X136001100Y-92503600D02*
X136001100Y-90503600D01*
X137001100Y-92503600D02*
X136001100Y-92503600D01*
X137001100Y-101503600D02*
X137001100Y-103503600D01*
X136001100Y-101503600D02*
X137001100Y-101503600D01*
X136001100Y-103503600D02*
X136001100Y-101503600D01*
X137001100Y-103503600D02*
X136001100Y-103503600D01*
X135001100Y-86353600D02*
X139101100Y-86353600D01*
X118401100Y-86353600D02*
X133251100Y-86353600D01*
X135001100Y-107653600D02*
X139101100Y-107653600D01*
X118401100Y-107653600D02*
X133251100Y-107653600D01*
X118401100Y-107653600D02*
X118401100Y-86353600D01*
X139101100Y-107653600D02*
X139101100Y-86353600D01*
%TO.C,AZUSA_CON1*%
X150581100Y-130653600D02*
X150581100Y-131353600D01*
X150581100Y-130653600D02*
X152721100Y-130653600D01*
X152721100Y-131353600D02*
X152721100Y-130653600D01*
X150581100Y-131353600D02*
X152721100Y-131353600D01*
X147421100Y-130653600D02*
X147421100Y-131353600D01*
X152021100Y-129653600D02*
X152721100Y-129653600D01*
X145281100Y-129653600D02*
X145981100Y-129653600D01*
X145981100Y-127733600D02*
X152021100Y-127733600D01*
X145981100Y-127733600D02*
X145981100Y-126303600D01*
X145981100Y-129653600D02*
X145981100Y-127733600D01*
X147421100Y-130653600D02*
X145281100Y-130653600D01*
X152021100Y-127733600D02*
X152021100Y-129653600D01*
X152021100Y-126303600D02*
X152021100Y-127733600D01*
X145981100Y-126303600D02*
X152021100Y-126303600D01*
X145281100Y-129653600D02*
X145281100Y-125603600D01*
X145281100Y-131353600D02*
X145281100Y-130653600D01*
X147421100Y-131353600D02*
X145281100Y-131353600D01*
X152721100Y-125603600D02*
X152721100Y-129653600D01*
X145281100Y-125603600D02*
X152721100Y-125603600D01*
%TO.C,SERVO1*%
X140851100Y-130653600D02*
X140851100Y-131353600D01*
X140851100Y-130653600D02*
X142991100Y-130653600D01*
X142991100Y-131353600D02*
X142991100Y-130653600D01*
X140851100Y-131353600D02*
X142991100Y-131353600D01*
X139351100Y-130653600D02*
X139351100Y-131353600D01*
X136651100Y-130653600D02*
X136651100Y-131353600D01*
X135151100Y-130653600D02*
X135151100Y-131353600D01*
X142291100Y-129653600D02*
X142991100Y-129653600D01*
X133011100Y-129653600D02*
X133711100Y-129653600D01*
X133711100Y-127733600D02*
X142291100Y-127733600D01*
X133711100Y-127733600D02*
X133711100Y-126303600D01*
X133711100Y-129653600D02*
X133711100Y-127733600D01*
X135151100Y-130653600D02*
X133011100Y-130653600D01*
X139351100Y-130653600D02*
X136651100Y-130653600D01*
X142291100Y-127733600D02*
X142291100Y-129653600D01*
X142291100Y-126303600D02*
X142291100Y-127733600D01*
X133711100Y-126303600D02*
X142291100Y-126303600D01*
X133011100Y-129653600D02*
X133011100Y-125603600D01*
X133011100Y-131353600D02*
X133011100Y-130653600D01*
X135151100Y-131353600D02*
X133011100Y-131353600D01*
X139351100Y-131353600D02*
X136651100Y-131353600D01*
X142991100Y-125603600D02*
X142991100Y-129653600D01*
X133011100Y-125603600D02*
X142991100Y-125603600D01*
%TO.C,U$1*%
X152461100Y-101273600D02*
X153731100Y-101273600D01*
X152461100Y-98733600D02*
X152461100Y-101273600D01*
X153731100Y-98733600D02*
X152461100Y-98733600D01*
X153731100Y-94923600D02*
X153731100Y-98733600D01*
X152461100Y-94923600D02*
X153731100Y-94923600D01*
X152461100Y-98733600D02*
X152461100Y-94923600D01*
X152461100Y-105083600D02*
X152461100Y-101273600D01*
X153731100Y-105083600D02*
X152461100Y-105083600D01*
X153731100Y-101273600D02*
X153731100Y-105083600D01*
X153731100Y-98733600D02*
X153731100Y-101273600D01*
X156271100Y-94923600D02*
X153731100Y-94923600D01*
X156271100Y-105083600D02*
X156271100Y-94923600D01*
X153731100Y-105083600D02*
X156271100Y-105083600D01*
D18*
%TO.C,C1*%
X150904100Y-103011600D02*
X151234100Y-103011600D01*
X151234100Y-102681600D02*
X150904100Y-102681600D01*
X150904100Y-103161600D02*
X151234100Y-103161600D01*
X150904100Y-103011600D02*
X150904100Y-103161600D01*
X150904100Y-102681600D02*
X150904100Y-103011600D01*
X150904100Y-102531600D02*
X150904100Y-102681600D01*
X151234100Y-102531600D02*
X150904100Y-102531600D01*
X151234100Y-102681600D02*
X151234100Y-102531600D01*
X151234100Y-103011600D02*
X151234100Y-102681600D01*
X151234100Y-103161600D02*
X151234100Y-103011600D01*
%TO.C,C2*%
X157423100Y-97842600D02*
X157753100Y-97842600D01*
X157753100Y-97512600D02*
X157423100Y-97512600D01*
X157423100Y-97992600D02*
X157753100Y-97992600D01*
X157423100Y-97842600D02*
X157423100Y-97992600D01*
X157423100Y-97512600D02*
X157423100Y-97842600D01*
X157423100Y-97362600D02*
X157423100Y-97512600D01*
X157753100Y-97362600D02*
X157423100Y-97362600D01*
X157753100Y-97512600D02*
X157753100Y-97362600D01*
X157753100Y-97842600D02*
X157753100Y-97512600D01*
X157753100Y-97992600D02*
X157753100Y-97842600D01*
%TO.C,C3*%
X158614100Y-97842600D02*
X158944100Y-97842600D01*
X158944100Y-97512600D02*
X158614100Y-97512600D01*
X158614100Y-97992600D02*
X158944100Y-97992600D01*
X158614100Y-97842600D02*
X158614100Y-97992600D01*
X158614100Y-97512600D02*
X158614100Y-97842600D01*
X158614100Y-97362600D02*
X158614100Y-97512600D01*
X158944100Y-97362600D02*
X158614100Y-97362600D01*
X158944100Y-97512600D02*
X158944100Y-97362600D01*
X158944100Y-97842600D02*
X158944100Y-97512600D01*
X158944100Y-97992600D02*
X158944100Y-97842600D01*
%TO.C,C6*%
X158614100Y-107610600D02*
X158944100Y-107610600D01*
X158944100Y-107280600D02*
X158614100Y-107280600D01*
X158614100Y-107760600D02*
X158944100Y-107760600D01*
X158614100Y-107610600D02*
X158614100Y-107760600D01*
X158614100Y-107280600D02*
X158614100Y-107610600D01*
X158614100Y-107130600D02*
X158614100Y-107280600D01*
X158944100Y-107130600D02*
X158614100Y-107130600D01*
X158944100Y-107280600D02*
X158944100Y-107130600D01*
X158944100Y-107610600D02*
X158944100Y-107280600D01*
X158944100Y-107760600D02*
X158944100Y-107610600D01*
%TO.C,LED_SW0*%
G36*
X164271100Y-112653600D02*
G01*
X162651100Y-112653600D01*
X162651100Y-111353600D01*
X164271100Y-111353600D01*
X164271100Y-112653600D01*
G37*
D11*
X164501100Y-111203600D02*
X162501100Y-111203600D01*
X169501100Y-111203600D02*
X164501100Y-111203600D01*
X169501100Y-112803600D02*
X169501100Y-111203600D01*
X164501100Y-112803600D02*
X169501100Y-112803600D01*
X162501100Y-112803600D02*
X164501100Y-112803600D01*
X162501100Y-111203600D02*
X162501100Y-112803600D01*
X171101100Y-110003600D02*
X160901100Y-110003600D01*
X171101100Y-114003600D02*
X171101100Y-110003600D01*
X160901100Y-114003600D02*
X171101100Y-114003600D01*
X160901100Y-110003600D02*
X160901100Y-114003600D01*
D17*
%TO.C,SERVO2*%
X140851100Y-122653600D02*
X140851100Y-123353600D01*
X140851100Y-122653600D02*
X142991100Y-122653600D01*
X142991100Y-123353600D02*
X142991100Y-122653600D01*
X140851100Y-123353600D02*
X142991100Y-123353600D01*
X139351100Y-122653600D02*
X139351100Y-123353600D01*
X136651100Y-122653600D02*
X136651100Y-123353600D01*
X135151100Y-122653600D02*
X135151100Y-123353600D01*
X142291100Y-121653600D02*
X142991100Y-121653600D01*
X133011100Y-121653600D02*
X133711100Y-121653600D01*
X133711100Y-119733600D02*
X142291100Y-119733600D01*
X133711100Y-119733600D02*
X133711100Y-118303600D01*
X133711100Y-121653600D02*
X133711100Y-119733600D01*
X135151100Y-122653600D02*
X133011100Y-122653600D01*
X139351100Y-122653600D02*
X136651100Y-122653600D01*
X142291100Y-119733600D02*
X142291100Y-121653600D01*
X142291100Y-118303600D02*
X142291100Y-119733600D01*
X133711100Y-118303600D02*
X142291100Y-118303600D01*
X133011100Y-121653600D02*
X133011100Y-117603600D01*
X133011100Y-123353600D02*
X133011100Y-122653600D01*
X135151100Y-123353600D02*
X133011100Y-123353600D01*
X139351100Y-123353600D02*
X136651100Y-123353600D01*
X142991100Y-117603600D02*
X142991100Y-121653600D01*
X133011100Y-117603600D02*
X142991100Y-117603600D01*
%TO.C,AZUSA_CON2*%
X150581100Y-122653600D02*
X150581100Y-123353600D01*
X150581100Y-122653600D02*
X152721100Y-122653600D01*
X152721100Y-123353600D02*
X152721100Y-122653600D01*
X150581100Y-123353600D02*
X152721100Y-123353600D01*
X147421100Y-122653600D02*
X147421100Y-123353600D01*
X152021100Y-121653600D02*
X152721100Y-121653600D01*
X145281100Y-121653600D02*
X145981100Y-121653600D01*
X145981100Y-119733600D02*
X152021100Y-119733600D01*
X145981100Y-119733600D02*
X145981100Y-118303600D01*
X145981100Y-121653600D02*
X145981100Y-119733600D01*
X147421100Y-122653600D02*
X145281100Y-122653600D01*
X152021100Y-119733600D02*
X152021100Y-121653600D01*
X152021100Y-118303600D02*
X152021100Y-119733600D01*
X145981100Y-118303600D02*
X152021100Y-118303600D01*
X145281100Y-121653600D02*
X145281100Y-117603600D01*
X145281100Y-123353600D02*
X145281100Y-122653600D01*
X147421100Y-123353600D02*
X145281100Y-123353600D01*
X152721100Y-117603600D02*
X152721100Y-121653600D01*
X145281100Y-117603600D02*
X152721100Y-117603600D01*
D19*
%TO.C,H1*%
X128701100Y-81003600D02*
G75*
G03*
X128701100Y-81003600I-1700000J0D01*
G01*
D20*
X130430100Y-81003600D02*
G75*
G03*
X130430100Y-81003600I-3429000J0D01*
G01*
D19*
%TO.C,H2*%
X171701100Y-81003600D02*
G75*
G03*
X171701100Y-81003600I-1700000J0D01*
G01*
D20*
X173430100Y-81003600D02*
G75*
G03*
X173430100Y-81003600I-3429000J0D01*
G01*
D19*
%TO.C,H3*%
X128701100Y-129003600D02*
G75*
G03*
X128701100Y-129003600I-1700000J0D01*
G01*
D20*
X130430100Y-129003600D02*
G75*
G03*
X130430100Y-129003600I-3429000J0D01*
G01*
D19*
%TO.C,H4*%
X171701100Y-129003600D02*
G75*
G03*
X171701100Y-129003600I-1700000J0D01*
G01*
D20*
X173430100Y-129003600D02*
G75*
G03*
X173430100Y-129003600I-3429000J0D01*
G01*
D17*
%TO.C,THRU*%
X124351100Y-120583600D02*
X123651100Y-120583600D01*
X124351100Y-120583600D02*
X124351100Y-122723600D01*
X123651100Y-122723600D02*
X124351100Y-122723600D01*
X123651100Y-120583600D02*
X123651100Y-122723600D01*
X124351100Y-117423600D02*
X123651100Y-117423600D01*
X125351100Y-122023600D02*
X125351100Y-122723600D01*
X125351100Y-115283600D02*
X125351100Y-115983600D01*
X127271100Y-115983600D02*
X127271100Y-122023600D01*
X127271100Y-115983600D02*
X128701100Y-115983600D01*
X125351100Y-115983600D02*
X127271100Y-115983600D01*
X124351100Y-117423600D02*
X124351100Y-115283600D01*
X127271100Y-122023600D02*
X125351100Y-122023600D01*
X128701100Y-122023600D02*
X127271100Y-122023600D01*
X128701100Y-115983600D02*
X128701100Y-122023600D01*
X125351100Y-115283600D02*
X129401100Y-115283600D01*
X123651100Y-115283600D02*
X124351100Y-115283600D01*
X123651100Y-117423600D02*
X123651100Y-115283600D01*
X129401100Y-122723600D02*
X125351100Y-122723600D01*
X129401100Y-115283600D02*
X129401100Y-122723600D01*
D18*
%TO.C,C7*%
X140805100Y-109333600D02*
X141705100Y-109333600D01*
X140805100Y-109943600D02*
X141705100Y-109943600D01*
X141705100Y-110443600D02*
X140805100Y-110443600D01*
X141705100Y-109943600D02*
X141705100Y-110443600D01*
X141705100Y-109333600D02*
X141705100Y-109943600D01*
X141705100Y-108833600D02*
X141705100Y-109333600D01*
X140805100Y-108833600D02*
X141705100Y-108833600D01*
X140805100Y-109333600D02*
X140805100Y-108833600D01*
X140805100Y-109943600D02*
X140805100Y-109333600D01*
X140805100Y-110443600D02*
X140805100Y-109943600D01*
D11*
%TO.C,TLP1*%
X141701100Y-114581600D02*
X140476100Y-114581600D01*
X141701100Y-114981600D02*
X141701100Y-114581600D01*
X140476100Y-114981600D02*
X141701100Y-114981600D01*
X141701100Y-113311600D02*
X140476100Y-113311600D01*
X141701100Y-113711600D02*
X141701100Y-113311600D01*
X140476100Y-113711600D02*
X141701100Y-113711600D01*
X141701100Y-112041600D02*
X140476100Y-112041600D01*
X141701100Y-112441600D02*
X141701100Y-112041600D01*
X140476100Y-112441600D02*
X141701100Y-112441600D01*
X134651100Y-114981600D02*
X135876100Y-114981600D01*
X134651100Y-114581600D02*
X134651100Y-114981600D01*
X135876100Y-114581600D02*
X134651100Y-114581600D01*
X134651100Y-112441600D02*
X135876100Y-112441600D01*
X134651100Y-112041600D02*
X134651100Y-112441600D01*
X135876100Y-112041600D02*
X134651100Y-112041600D01*
X137101100Y-112411600D02*
G75*
G03*
X137101100Y-112411600I-400000J0D01*
G01*
X139901100Y-114711600D02*
G75*
G03*
X139901100Y-114711600I-300000J0D01*
G01*
X140426100Y-115361600D02*
X140426100Y-111661600D01*
X135876100Y-115361600D02*
X140426100Y-115361600D01*
X135876100Y-112441600D02*
X135876100Y-115361600D01*
X135876100Y-112041600D02*
X135876100Y-112441600D01*
X135876100Y-111661600D02*
X135876100Y-112041600D01*
X140426100Y-111661600D02*
X135876100Y-111661600D01*
%TO.C,R1*%
X131581100Y-111632600D02*
X131581100Y-112432600D01*
X130581100Y-111632600D02*
X130581100Y-112432600D01*
X130581100Y-111632600D02*
X130281100Y-111632600D01*
X131581100Y-111632600D02*
X130581100Y-111632600D01*
X131881100Y-111632600D02*
X131581100Y-111632600D01*
X131881100Y-112432600D02*
X131881100Y-111632600D01*
X131581100Y-112432600D02*
X131881100Y-112432600D01*
X130581100Y-112432600D02*
X131581100Y-112432600D01*
X130281100Y-112432600D02*
X130581100Y-112432600D01*
X130281100Y-111632600D02*
X130281100Y-112432600D01*
%TD*%
M02*
