%TF.GenerationSoftware,KiCad,Pcbnew,7.0.1*%
%TF.CreationDate,2023-09-17T22:33:06+09:00*%
%TF.ProjectId,Mix necessary function,4d697820-6e65-4636-9573-736172792066,rev?*%
%TF.SameCoordinates,Original*%
%TF.FileFunction,Copper,L2,Bot*%
%TF.FilePolarity,Positive*%
%FSLAX46Y46*%
G04 Gerber Fmt 4.6, Leading zero omitted, Abs format (unit mm)*
G04 Created by KiCad (PCBNEW 7.0.1) date 2023-09-17 22:33:06*
%MOMM*%
%LPD*%
G01*
G04 APERTURE LIST*
%TA.AperFunction,ComponentPad*%
%ADD10R,1.508000X1.508000*%
%TD*%
%TA.AperFunction,ComponentPad*%
%ADD11C,1.508000*%
%TD*%
%TA.AperFunction,ComponentPad*%
%ADD12C,2.550000*%
%TD*%
%TA.AperFunction,ComponentPad*%
%ADD13C,5.016000*%
%TD*%
%TA.AperFunction,ComponentPad*%
%ADD14C,1.108000*%
%TD*%
%TA.AperFunction,ComponentPad*%
%ADD15R,1.108000X1.108000*%
%TD*%
%TA.AperFunction,ComponentPad*%
%ADD16C,1.300000*%
%TD*%
%TA.AperFunction,ViaPad*%
%ADD17C,0.756400*%
%TD*%
%TA.AperFunction,Conductor*%
%ADD18C,0.500000*%
%TD*%
G04 APERTURE END LIST*
D10*
%TO.P,LED,1*%
%TO.N,BLUE*%
X161031100Y-128313600D03*
D11*
%TO.P,LED,2*%
%TO.N,RED*%
X161031100Y-125773600D03*
%TO.P,LED,3*%
%TO.N,N/C*%
X161031100Y-123233600D03*
%TO.P,LED,4*%
%TO.N,+12V*%
X161031100Y-120693600D03*
%TD*%
D10*
%TO.P,AZUSA,1*%
%TO.N,AGND*%
X167691100Y-99573600D03*
D11*
%TO.P,AZUSA,2*%
%TO.N,VCC*%
X165151100Y-99573600D03*
%TD*%
D10*
%TO.P,SW1,1*%
%TO.N,EM*%
X167691100Y-90143600D03*
D11*
%TO.P,SW1,2*%
%TO.N,VCC*%
X165151100Y-90143600D03*
%TD*%
D10*
%TO.P,SW2,1*%
%TO.N,AGND*%
X157531100Y-90143600D03*
D11*
%TO.P,SW2,2*%
%TO.N,EM*%
X154991100Y-90143600D03*
%TD*%
D12*
%TO.P,LIPO\uFF3FTHRU,P$4*%
%TO.N,N/C*%
X134100000Y-86800000D03*
%TO.P,LIPO\uFF3FTHRU,P$3*%
X134100000Y-105700000D03*
D13*
%TO.P,LIPO\uFF3FTHRU,-*%
%TO.N,GND*%
X143000000Y-90800000D03*
%TO.P,LIPO\uFF3FTHRU,+*%
%TO.N,N$20*%
X143000000Y-101700000D03*
%TD*%
D10*
%TO.P,AZUSA_CON1,1*%
%TO.N,GND*%
X150271100Y-129003600D03*
D11*
%TO.P,AZUSA_CON1,2*%
%TO.N,PWM1_SERVO*%
X147731100Y-129003600D03*
%TD*%
D10*
%TO.P,SERVO1,1*%
%TO.N,GND*%
X140541100Y-129003600D03*
D11*
%TO.P,SERVO1,2*%
%TO.N,+6V*%
X138001100Y-129003600D03*
%TO.P,SERVO1,3*%
%TO.N,PWM1_SERVO*%
X135461100Y-129003600D03*
%TD*%
D14*
%TO.P,U$1,INPUT*%
%TO.N,PVCC*%
X155001100Y-102543600D03*
%TO.P,U$1,OUTPUT*%
%TO.N,+6V*%
X155001100Y-97463600D03*
D15*
%TO.P,U$1,GND*%
%TO.N,GND*%
X155001100Y-100003600D03*
%TD*%
D16*
%TO.P,LED_SW0,R*%
%TO.N,RED*%
X168541100Y-112003600D03*
%TO.P,LED_SW0,L*%
%TO.N,BLUE*%
X163461100Y-112003600D03*
%TO.P,LED_SW0,C*%
%TO.N,GND*%
X166001100Y-112003600D03*
%TD*%
D10*
%TO.P,SERVO2,1*%
%TO.N,GND*%
X140541100Y-121003600D03*
D11*
%TO.P,SERVO2,2*%
%TO.N,+6V*%
X138001100Y-121003600D03*
%TO.P,SERVO2,3*%
%TO.N,PWM2_SERVO*%
X135461100Y-121003600D03*
%TD*%
D10*
%TO.P,AZUSA_CON2,1*%
%TO.N,GND*%
X150271100Y-121003600D03*
D11*
%TO.P,AZUSA_CON2,2*%
%TO.N,PWM2_SERVO*%
X147731100Y-121003600D03*
%TD*%
D10*
%TO.P,THRU,1*%
%TO.N,N$1*%
X126001100Y-121273600D03*
D11*
%TO.P,THRU,2*%
%TO.N,N$92*%
X126001100Y-118733600D03*
%TD*%
D17*
%TO.N,PVCC*%
X142701100Y-117003600D03*
X150801100Y-99703600D03*
%TO.N,GND*%
X153643100Y-118064600D03*
X149143100Y-118064600D03*
X156441100Y-116050600D03*
X130941100Y-109450600D03*
X135141100Y-98950600D03*
X130941100Y-103350600D03*
X148243100Y-114764600D03*
X155659100Y-106445600D03*
X157690100Y-111921600D03*
X167479100Y-87145600D03*
X155701100Y-87018600D03*
X142919100Y-98210600D03*
X140941100Y-107050600D03*
X140906100Y-112083600D03*
X142143100Y-115664600D03*
X127050100Y-119669600D03*
X128244100Y-121410600D03*
X149121100Y-107098600D03*
X152877100Y-107860600D03*
X162875100Y-124897600D03*
X169468100Y-123808600D03*
X163489100Y-131532600D03*
X146741100Y-131909600D03*
X136230100Y-131924600D03*
X147214100Y-119112600D03*
X133925100Y-127525600D03*
X136641100Y-118699600D03*
%TD*%
D18*
%TO.N,PVCC*%
X145501100Y-105003600D02*
X145501100Y-116003600D01*
X144501100Y-117003600D02*
X142701100Y-117003600D01*
X145501100Y-116003600D02*
X144501100Y-117003600D01*
X150801100Y-99703600D02*
X145501100Y-105003600D01*
%TD*%
M02*
