%TF.GenerationSoftware,KiCad,Pcbnew,7.0.1*%
%TF.CreationDate,2023-09-15T11:15:50+09:00*%
%TF.ProjectId,_________,0a070658-9c5f-4cbd-9eef-2e6b69636164,rev?*%
%TF.SameCoordinates,Original*%
%TF.FileFunction,Copper,L1,Top*%
%TF.FilePolarity,Positive*%
%FSLAX46Y46*%
G04 Gerber Fmt 4.6, Leading zero omitted, Abs format (unit mm)*
G04 Created by KiCad (PCBNEW 7.0.1) date 2023-09-15 11:15:50*
%MOMM*%
%LPD*%
G01*
G04 APERTURE LIST*
G04 Aperture macros list*
%AMOutline5P*
0 Free polygon, 5 corners , with rotation*
0 The origin of the aperture is its center*
0 number of corners: always 5*
0 $1 to $10 corner X, Y*
0 $11 Rotation angle, in degrees counterclockwise*
0 create outline with 5 corners*
4,1,5,$1,$2,$3,$4,$5,$6,$7,$8,$9,$10,$1,$2,$11*%
%AMOutline6P*
0 Free polygon, 6 corners , with rotation*
0 The origin of the aperture is its center*
0 number of corners: always 6*
0 $1 to $12 corner X, Y*
0 $13 Rotation angle, in degrees counterclockwise*
0 create outline with 6 corners*
4,1,6,$1,$2,$3,$4,$5,$6,$7,$8,$9,$10,$11,$12,$1,$2,$13*%
%AMOutline7P*
0 Free polygon, 7 corners , with rotation*
0 The origin of the aperture is its center*
0 number of corners: always 7*
0 $1 to $14 corner X, Y*
0 $15 Rotation angle, in degrees counterclockwise*
0 create outline with 7 corners*
4,1,7,$1,$2,$3,$4,$5,$6,$7,$8,$9,$10,$11,$12,$13,$14,$1,$2,$15*%
%AMOutline8P*
0 Free polygon, 8 corners , with rotation*
0 The origin of the aperture is its center*
0 number of corners: always 8*
0 $1 to $16 corner X, Y*
0 $17 Rotation angle, in degrees counterclockwise*
0 create outline with 8 corners*
4,1,8,$1,$2,$3,$4,$5,$6,$7,$8,$9,$10,$11,$12,$13,$14,$15,$16,$1,$2,$17*%
G04 Aperture macros list end*
%TA.AperFunction,ComponentPad*%
%ADD10R,1.508000X1.508000*%
%TD*%
%TA.AperFunction,ComponentPad*%
%ADD11C,1.508000*%
%TD*%
%TA.AperFunction,SMDPad,CuDef*%
%ADD12R,0.350000X0.400000*%
%TD*%
%TA.AperFunction,ComponentPad*%
%ADD13O,3.048000X1.524000*%
%TD*%
%TA.AperFunction,ComponentPad*%
%ADD14Outline8P,-0.711200X0.294589X-0.294589X0.711200X0.294589X0.711200X0.711200X0.294589X0.711200X-0.294589X0.294589X-0.711200X-0.294589X-0.711200X-0.711200X-0.294589X180.000000*%
%TD*%
%TA.AperFunction,SMDPad,CuDef*%
%ADD15R,1.300000X1.600000*%
%TD*%
%TA.AperFunction,SMDPad,CuDef*%
%ADD16R,2.200000X3.500000*%
%TD*%
%TA.AperFunction,SMDPad,CuDef*%
%ADD17R,2.200000X1.200000*%
%TD*%
%TA.AperFunction,SMDPad,CuDef*%
%ADD18R,0.700000X0.825000*%
%TD*%
%TA.AperFunction,SMDPad,CuDef*%
%ADD19R,0.700000X1.500000*%
%TD*%
%TA.AperFunction,SMDPad,CuDef*%
%ADD20R,0.700000X0.800000*%
%TD*%
%TA.AperFunction,SMDPad,CuDef*%
%ADD21R,0.800000X0.800000*%
%TD*%
%TA.AperFunction,SMDPad,CuDef*%
%ADD22R,1.600000X1.300000*%
%TD*%
%TA.AperFunction,SMDPad,CuDef*%
%ADD23R,0.650000X1.200000*%
%TD*%
%TA.AperFunction,SMDPad,CuDef*%
%ADD24R,0.800000X1.400000*%
%TD*%
%TA.AperFunction,ComponentPad*%
%ADD25O,1.524000X3.048000*%
%TD*%
%TA.AperFunction,ViaPad*%
%ADD26C,0.756400*%
%TD*%
%TA.AperFunction,Conductor*%
%ADD27C,0.200000*%
%TD*%
%TA.AperFunction,Conductor*%
%ADD28C,0.300000*%
%TD*%
G04 APERTURE END LIST*
D10*
%TO.P,AZUSA_CTRL,1*%
%TO.N,PGND*%
X137281100Y-133683600D03*
D11*
%TO.P,AZUSA_CTRL,2*%
%TO.N,N$9*%
X134741100Y-133683600D03*
%TD*%
D12*
%TO.P,C13,2*%
%TO.N,SGND*%
X168826100Y-90503600D03*
%TO.P,C13,1*%
%TO.N,+3V3*%
X168176100Y-90503600D03*
%TD*%
%TO.P,C12,2*%
%TO.N,SGND*%
X168826100Y-88163600D03*
%TO.P,C12,1*%
%TO.N,+5V*%
X168176100Y-88163600D03*
%TD*%
D10*
%TO.P,CTRL,1*%
%TO.N,PGND*%
X147491100Y-133683600D03*
D11*
%TO.P,CTRL,2*%
%TO.N,N$8*%
X144951100Y-133683600D03*
%TD*%
D10*
%TO.P,ENC1,1*%
%TO.N,SGND*%
X112221100Y-79153600D03*
D11*
%TO.P,ENC1,2*%
%TO.N,N/C*%
X114761100Y-79153600D03*
%TO.P,ENC1,3*%
%TO.N,EN1_A*%
X117301100Y-79153600D03*
%TO.P,ENC1,4*%
%TO.N,+5V*%
X119841100Y-79153600D03*
%TO.P,ENC1,5*%
%TO.N,EN1_B*%
X122381100Y-79153600D03*
%TD*%
D10*
%TO.P,ENC2,1*%
%TO.N,SGND*%
X112221100Y-70453600D03*
D11*
%TO.P,ENC2,2*%
%TO.N,N/C*%
X114761100Y-70453600D03*
%TO.P,ENC2,3*%
%TO.N,EN2_A*%
X117301100Y-70453600D03*
%TO.P,ENC2,4*%
%TO.N,+5V*%
X119841100Y-70453600D03*
%TO.P,ENC2,5*%
%TO.N,EN2_B*%
X122381100Y-70453600D03*
%TD*%
D10*
%TO.P,ENC3,1*%
%TO.N,SGND*%
X129221100Y-70453600D03*
D11*
%TO.P,ENC3,2*%
%TO.N,N/C*%
X131761100Y-70453600D03*
%TO.P,ENC3,3*%
%TO.N,EN3_A*%
X134301100Y-70453600D03*
%TO.P,ENC3,4*%
%TO.N,+5V*%
X136841100Y-70453600D03*
%TO.P,ENC3,5*%
%TO.N,EN3_B*%
X139381100Y-70453600D03*
%TD*%
D13*
%TO.P,BOOT,2*%
%TO.N,BOOT0*%
X156066100Y-89230000D03*
%TO.P,BOOT,1*%
%TO.N,+3V3*%
X156066100Y-91770000D03*
%TD*%
%TO.P,ST-LINK,6*%
%TO.N,SWO*%
X147901100Y-79093600D03*
%TO.P,ST-LINK,5*%
%TO.N,NRST*%
X147901100Y-81633600D03*
%TO.P,ST-LINK,4*%
%TO.N,SWDIO*%
X147901100Y-84173600D03*
%TO.P,ST-LINK,3*%
%TO.N,SGND*%
X147901100Y-86713600D03*
%TO.P,ST-LINK,2*%
%TO.N,SWCLK*%
X147901100Y-89253600D03*
%TO.P,ST-LINK,1*%
%TO.N,+3V3*%
X147901100Y-91793600D03*
%TD*%
D14*
%TO.P,ML1,10*%
%TO.N,PWM1*%
X169731100Y-74003600D03*
%TO.P,ML1,9*%
%TO.N,DIR1*%
X169731100Y-71463600D03*
%TO.P,ML1,8*%
%TO.N,PWM2*%
X172271100Y-74003600D03*
%TO.P,ML1,7*%
%TO.N,DIR2*%
X172271100Y-71463600D03*
%TO.P,ML1,6*%
%TO.N,PWM3*%
X174811100Y-74003600D03*
%TO.P,ML1,5*%
%TO.N,DIR3*%
X174811100Y-71463600D03*
%TO.P,ML1,4*%
%TO.N,PWM4*%
X177351100Y-74003600D03*
%TO.P,ML1,3*%
%TO.N,DIR4*%
X177351100Y-71463600D03*
%TO.P,ML1,2*%
%TO.N,+3V3*%
X179891100Y-74003600D03*
%TO.P,ML1,1*%
%TO.N,SGND*%
X179891100Y-71463600D03*
%TD*%
%TO.P,ML2,10*%
%TO.N,LED4*%
X148151100Y-73893600D03*
%TO.P,ML2,9*%
%TO.N,LED5*%
X148151100Y-71353600D03*
%TO.P,ML2,8*%
%TO.N,LED3*%
X150691100Y-73893600D03*
%TO.P,ML2,7*%
%TO.N,LED6*%
X150691100Y-71353600D03*
%TO.P,ML2,6*%
%TO.N,LED2*%
X153231100Y-73893600D03*
%TO.P,ML2,5*%
%TO.N,LED7*%
X153231100Y-71353600D03*
%TO.P,ML2,4*%
%TO.N,LED1*%
X155771100Y-73893600D03*
%TO.P,ML2,3*%
%TO.N,LED8*%
X155771100Y-71353600D03*
%TO.P,ML2,2*%
%TO.N,+5V*%
X158311100Y-73893600D03*
%TO.P,ML2,1*%
%TO.N,SGND*%
X158311100Y-71353600D03*
%TD*%
D15*
%TO.P,R1,2*%
%TO.N,N$10*%
X140871100Y-126273600D03*
%TO.P,R1,1*%
%TO.N,N$9*%
X138971100Y-126273600D03*
%TD*%
D16*
%TO.P,REGYURETA0,VOUT*%
%TO.N,+3V3*%
X159401100Y-90513600D03*
D17*
%TO.P,REGYURETA0,INPUT*%
%TO.N,+5V*%
X165601100Y-88163600D03*
%TO.P,REGYURETA0,OUTPUT*%
%TO.N,+3V3*%
X165601100Y-90513600D03*
%TO.P,REGYURETA0,ADJ/GND*%
%TO.N,SGND*%
X165601100Y-92863600D03*
%TD*%
D18*
%TO.P,T1,COLLECTOR*%
%TO.N,N$9*%
X134901100Y-127681100D03*
%TO.P,T1,EMITTER*%
%TO.N,N$8*%
X133951100Y-125306100D03*
%TO.P,T1,BASE*%
%TO.N,N$10*%
X135851100Y-125306100D03*
%TD*%
D19*
%TO.P,U$2,P$4*%
%TO.N,SGND*%
X175681100Y-95563600D03*
%TO.P,U$2,P$3*%
%TO.N,N/C*%
X171181100Y-95563600D03*
%TO.P,U$2,P$2*%
X175681100Y-103063600D03*
%TO.P,U$2,P$1*%
%TO.N,NRST*%
X171181100Y-103063600D03*
%TD*%
D20*
%TO.P,C19,P$2*%
%TO.N,SGND*%
X163401100Y-107353600D03*
%TO.P,C19,P$1*%
%TO.N,+3V3*%
X162001100Y-107353600D03*
%TD*%
%TO.P,C20,P$2*%
%TO.N,SGND*%
X163401100Y-109453600D03*
%TO.P,C20,P$1*%
%TO.N,+3V3*%
X162001100Y-109453600D03*
%TD*%
%TO.P,C21,P$2*%
%TO.N,SGND*%
X166401100Y-107353600D03*
%TO.P,C21,P$1*%
%TO.N,+3V3*%
X165001100Y-107353600D03*
%TD*%
%TO.P,C22,P$2*%
%TO.N,SGND*%
X166501100Y-109453600D03*
%TO.P,C22,P$1*%
%TO.N,+3V3*%
X165101100Y-109453600D03*
%TD*%
D12*
%TO.P,C11,2*%
%TO.N,SGND*%
X168826100Y-89253600D03*
%TO.P,C11,1*%
%TO.N,+5V*%
X168176100Y-89253600D03*
%TD*%
%TO.P,C14,2*%
%TO.N,SGND*%
X168826100Y-91653600D03*
%TO.P,C14,1*%
%TO.N,+3V3*%
X168176100Y-91653600D03*
%TD*%
D13*
%TO.P,TWE_LEFT,14*%
%TO.N,N/C*%
X110539100Y-122242600D03*
%TO.P,TWE_LEFT,13*%
X110539100Y-119702600D03*
%TO.P,TWE_LEFT,12*%
X110539100Y-117162600D03*
%TO.P,TWE_LEFT,11*%
X110539100Y-114622600D03*
%TO.P,TWE_LEFT,10*%
%TO.N,RX*%
X110539100Y-112082600D03*
%TO.P,TWE_LEFT,9*%
%TO.N,N/C*%
X110539100Y-109542600D03*
%TO.P,TWE_LEFT,8*%
X110539100Y-107002600D03*
%TO.P,TWE_LEFT,7*%
X110539100Y-104462600D03*
%TO.P,TWE_LEFT,6*%
X110539100Y-101922600D03*
%TO.P,TWE_LEFT,5*%
X110539100Y-99382600D03*
%TO.P,TWE_LEFT,4*%
X110539100Y-96842600D03*
%TO.P,TWE_LEFT,3*%
%TO.N,TX*%
X110539100Y-94302600D03*
%TO.P,TWE_LEFT,2*%
%TO.N,N/C*%
X110539100Y-91762600D03*
%TO.P,TWE_LEFT,1*%
%TO.N,SGND*%
X110539100Y-89222600D03*
%TD*%
%TO.P,TWE_RIGHT,14*%
%TO.N,COM_LED2*%
X126191100Y-122263600D03*
%TO.P,TWE_RIGHT,13*%
%TO.N,N/C*%
X126191100Y-119723600D03*
%TO.P,TWE_RIGHT,12*%
X126191100Y-117183600D03*
%TO.P,TWE_RIGHT,11*%
X126191100Y-114643600D03*
%TO.P,TWE_RIGHT,10*%
X126191100Y-112103600D03*
%TO.P,TWE_RIGHT,9*%
X126191100Y-109563600D03*
%TO.P,TWE_RIGHT,8*%
X126191100Y-107023600D03*
%TO.P,TWE_RIGHT,7*%
X126191100Y-104483600D03*
%TO.P,TWE_RIGHT,6*%
X126191100Y-101943600D03*
%TO.P,TWE_RIGHT,5*%
X126191100Y-99403600D03*
%TO.P,TWE_RIGHT,4*%
X126191100Y-96863600D03*
%TO.P,TWE_RIGHT,3*%
X126191100Y-94323600D03*
%TO.P,TWE_RIGHT,2*%
X126191100Y-91783600D03*
%TO.P,TWE_RIGHT,1*%
%TO.N,+3V3*%
X126191100Y-89243600D03*
%TD*%
D15*
%TO.P,R12,2*%
%TO.N,N$19*%
X119351100Y-133353600D03*
%TO.P,R12,1*%
%TO.N,COM_LED2*%
X117451100Y-133353600D03*
%TD*%
D21*
%TO.P,U$8,CATHODE*%
%TO.N,SGND*%
X118969050Y-128665000D03*
%TO.P,U$8,ANODE*%
%TO.N,N$19*%
X117469050Y-128665000D03*
%TD*%
D13*
%TO.P,PIN_SOCKET1,2*%
%TO.N,RX*%
X139181100Y-89203600D03*
%TO.P,PIN_SOCKET1,1*%
%TO.N,UART_RX*%
X139181100Y-91743600D03*
%TD*%
%TO.P,PIN_SOCKET2,2*%
%TO.N,TX*%
X134711100Y-89203600D03*
%TO.P,PIN_SOCKET2,1*%
%TO.N,UART_TX*%
X134711100Y-91743600D03*
%TD*%
D10*
%TO.P,DOWN,1*%
%TO.N,NO2*%
X188001100Y-103783600D03*
D11*
%TO.P,DOWN,2*%
%TO.N,+3V3*%
X188001100Y-106323600D03*
%TD*%
D22*
%TO.P,R11,2*%
%TO.N,SGND*%
X181701100Y-101903600D03*
%TO.P,R11,1*%
%TO.N,NO2*%
X181701100Y-103803600D03*
%TD*%
D10*
%TO.P,UP,1*%
%TO.N,NO1*%
X188001100Y-95183600D03*
D11*
%TO.P,UP,2*%
%TO.N,+3V3*%
X188001100Y-97723600D03*
%TD*%
D22*
%TO.P,R10,2*%
%TO.N,SGND*%
X181701100Y-95703600D03*
%TO.P,R10,1*%
%TO.N,NO1*%
X181701100Y-97603600D03*
%TD*%
D20*
%TO.P,C15,P$2*%
%TO.N,SGND*%
X178901100Y-107353600D03*
%TO.P,C15,P$1*%
%TO.N,+5V*%
X177501100Y-107353600D03*
%TD*%
%TO.P,C16,P$2*%
%TO.N,SGND*%
X178901100Y-109453600D03*
%TO.P,C16,P$1*%
%TO.N,+5V*%
X177501100Y-109453600D03*
%TD*%
%TO.P,C17,P$2*%
%TO.N,SGND*%
X181901100Y-107353600D03*
%TO.P,C17,P$1*%
%TO.N,+5V*%
X180501100Y-107353600D03*
%TD*%
%TO.P,C18,P$2*%
%TO.N,SGND*%
X181901100Y-109453600D03*
%TO.P,C18,P$1*%
%TO.N,+5V*%
X180501100Y-109453600D03*
%TD*%
D23*
%TO.P,FB1,2*%
%TO.N,N$46*%
X166276100Y-105000000D03*
%TO.P,FB1,1*%
%TO.N,+3V3*%
X164926100Y-105000000D03*
%TD*%
D20*
%TO.P,C24,P$2*%
%TO.N,SGND*%
X169301100Y-109453600D03*
%TO.P,C24,P$1*%
%TO.N,N$46*%
X167901100Y-109453600D03*
%TD*%
D24*
%TO.P,C23,P$2*%
%TO.N,SGND*%
X169901100Y-107053600D03*
%TO.P,C23,P$1*%
%TO.N,N$46*%
X167901100Y-107053600D03*
%TD*%
D25*
%TO.P,LEFT_U,2*%
%TO.N,SGND*%
X182512100Y-114760600D03*
%TO.P,LEFT_U,1*%
X185052100Y-114760600D03*
%TD*%
%TO.P,RIGHT_U,2*%
%TO.N,SGND*%
X182524100Y-137611600D03*
%TO.P,RIGHT_U,1*%
X185064100Y-137611600D03*
%TD*%
%TO.P,LEFT_D,4*%
%TO.N,+5V*%
X159681100Y-114738600D03*
%TO.P,LEFT_D,3*%
%TO.N,COM_LED*%
X162221100Y-114738600D03*
%TO.P,LEFT_D,2*%
%TO.N,N/C*%
X164761100Y-114738600D03*
%TO.P,LEFT_D,1*%
%TO.N,SGND*%
X167301100Y-114738600D03*
%TD*%
%TO.P,RIGHT_D,4*%
%TO.N,SCK*%
X159652100Y-137596600D03*
%TO.P,RIGHT_D,3*%
%TO.N,MOSI*%
X162192100Y-137596600D03*
%TO.P,RIGHT_D,2*%
%TO.N,MISO*%
X164732100Y-137596600D03*
%TO.P,RIGHT_D,1*%
%TO.N,CS*%
X167272100Y-137596600D03*
%TD*%
D10*
%TO.P,AZUSA_CON1,1*%
%TO.N,SGND*%
X188101100Y-84883600D03*
D11*
%TO.P,AZUSA_CON1,2*%
%TO.N,PWM1_SERVO*%
X188101100Y-87423600D03*
%TD*%
D10*
%TO.P,AZUSA_CON2,1*%
%TO.N,SGND*%
X179801100Y-85083600D03*
D11*
%TO.P,AZUSA_CON2,2*%
%TO.N,PWM2_SERVO*%
X179801100Y-87623600D03*
%TD*%
D26*
%TO.N,SGND*%
X133550000Y-80300000D03*
%TO.N,PWM1_SERVO*%
X152701100Y-112053600D03*
%TO.N,PWM2_SERVO*%
X178701100Y-81744800D03*
X172401100Y-86153600D03*
X164201100Y-86153600D03*
X159001100Y-86153600D03*
%TO.N,N$46*%
X163726100Y-103996600D03*
%TO.N,NO1*%
X180101100Y-99353600D03*
%TO.N,NO2*%
X180101100Y-100553600D03*
%TO.N,PWM1*%
X162246462Y-104742400D03*
X144601100Y-103153600D03*
%TO.N,LED8*%
X161131700Y-95353600D03*
X159712481Y-103483982D03*
%TO.N,LED7*%
X161901100Y-94753600D03*
X160488100Y-104070600D03*
%TO.N,LED1*%
X160401100Y-96053600D03*
X158966937Y-102934200D03*
%TO.N,+3V3*%
X173995787Y-89992200D03*
X170801100Y-90053600D03*
X132101100Y-111153600D03*
X149801100Y-111853600D03*
X156001100Y-109953600D03*
%TO.N,UART_RX*%
X150401100Y-94653600D03*
%TO.N,UART_TX*%
X149554700Y-96253600D03*
%TO.N,COM_LED*%
X154891100Y-109950600D03*
%TO.N,PWM2*%
X163101100Y-105173000D03*
X143801100Y-103673000D03*
%TO.N,EN1_B*%
X150251700Y-109854582D03*
X142301100Y-104753600D03*
%TO.N,EN1_A*%
X150894100Y-110570600D03*
X142201100Y-105753600D03*
%TO.N,SGND*%
X175998815Y-104598561D03*
X158601100Y-96753600D03*
X160001100Y-107353600D03*
X159500000Y-80600000D03*
X186950000Y-111250000D03*
X108301100Y-108553600D03*
X169101100Y-140853600D03*
X160201100Y-140853600D03*
X171501100Y-134253600D03*
X141101100Y-108353600D03*
X141101100Y-115153600D03*
X132301100Y-84953600D03*
X169201100Y-69553600D03*
X170401100Y-109653600D03*
X143401100Y-83053600D03*
X182701100Y-69653600D03*
X161301100Y-69453600D03*
X131901100Y-88953600D03*
X140101100Y-95153600D03*
X147601100Y-95453600D03*
X110301100Y-85053600D03*
X114500000Y-88900000D03*
X118401100Y-85053600D03*
X171301100Y-107053600D03*
X177901100Y-100453600D03*
X163201100Y-95953600D03*
X150401100Y-82753600D03*
X151301100Y-81353600D03*
X150401100Y-92853600D03*
X145901100Y-85153600D03*
X138501100Y-127953600D03*
X136501100Y-123853600D03*
X143901100Y-123953600D03*
X123701100Y-81753600D03*
X144601100Y-69453600D03*
X159600000Y-99200000D03*
X175701100Y-78853600D03*
X176101100Y-76453600D03*
X120901100Y-73653600D03*
X174401100Y-92653600D03*
X164601100Y-81753600D03*
%TO.N,NRST*%
X164536250Y-103263750D03*
%TD*%
D27*
%TO.N,PWM2_SERVO*%
X178701100Y-81792800D02*
X178701100Y-81744800D01*
X173201100Y-83591600D02*
X174999900Y-81792800D01*
X174999900Y-81792800D02*
X178701100Y-81792800D01*
X173201100Y-85353600D02*
X173201100Y-83591600D01*
X172401100Y-86153600D02*
X173201100Y-85353600D01*
%TO.N,N$19*%
X117469050Y-131435650D02*
X117469050Y-128665000D01*
X117451100Y-131453600D02*
X117469050Y-131435650D01*
X119351100Y-133353600D02*
X117451100Y-131453600D01*
%TO.N,N$46*%
X166276100Y-104276100D02*
X166276100Y-105253600D01*
X165996600Y-103996600D02*
X166276100Y-104276100D01*
X163726100Y-103996600D02*
X165996600Y-103996600D01*
%TO.N,NRST*%
X168991100Y-103033600D02*
X171181100Y-103063600D01*
X168724700Y-103300000D02*
X168991100Y-103033600D01*
X164572500Y-103300000D02*
X168724700Y-103300000D01*
X164536250Y-103263750D02*
X164572500Y-103300000D01*
X150401100Y-88733600D02*
X150401100Y-84133600D01*
X157470500Y-95803000D02*
X150401100Y-88733600D01*
X162281706Y-103353600D02*
X160662306Y-104973000D01*
X158370500Y-104973000D02*
X157470500Y-104073000D01*
X150401100Y-84133600D02*
X147901100Y-81633600D01*
X164446400Y-103353600D02*
X162281706Y-103353600D01*
X157470500Y-104073000D02*
X157470500Y-95803000D01*
X164536250Y-103263750D02*
X164446400Y-103353600D01*
X160662306Y-104973000D02*
X158370500Y-104973000D01*
D28*
%TO.N,+3V3*%
X166301100Y-110653600D02*
X165101100Y-109453600D01*
X176154700Y-105400000D02*
X170901100Y-110653600D01*
X170901100Y-110653600D02*
X166301100Y-110653600D01*
X187077500Y-105400000D02*
X176154700Y-105400000D01*
X188001100Y-106323600D02*
X187077500Y-105400000D01*
D27*
%TO.N,PWM1_SERVO*%
X152701100Y-114453600D02*
X158001100Y-119753600D01*
X189171100Y-87423600D02*
X188101100Y-87423600D01*
X191501100Y-89753600D02*
X189171100Y-87423600D01*
X191501100Y-116853600D02*
X191501100Y-89753600D01*
X188601100Y-119753600D02*
X191501100Y-116853600D01*
X158001100Y-119753600D02*
X188601100Y-119753600D01*
X152701100Y-112053600D02*
X152701100Y-114453600D01*
%TO.N,PWM2_SERVO*%
X159001100Y-86153600D02*
X164201100Y-86153600D01*
%TO.N,N$46*%
X167901100Y-107053600D02*
X167901100Y-109453600D01*
X167901100Y-106178600D02*
X166976100Y-105253600D01*
X166276100Y-105253600D02*
X166976100Y-105253600D01*
X167901100Y-106178600D02*
X167901100Y-107053600D01*
%TO.N,NO1*%
X180101100Y-98503600D02*
X180101100Y-99353600D01*
X181001100Y-97603600D02*
X180101100Y-98503600D01*
X181701100Y-97603600D02*
X181001100Y-97603600D01*
X181701100Y-97603600D02*
X181711100Y-97613600D01*
X184571100Y-97613600D02*
X181711100Y-97613600D01*
X187001100Y-95183600D02*
X184571100Y-97613600D01*
X188001100Y-95183600D02*
X187001100Y-95183600D01*
%TO.N,NO2*%
X180901100Y-103803600D02*
X180101100Y-103003600D01*
X181701100Y-103803600D02*
X180901100Y-103803600D01*
X180101100Y-100553600D02*
X180101100Y-103003600D01*
X187981100Y-103803600D02*
X181701100Y-103803600D01*
X188001100Y-103783600D02*
X187981100Y-103803600D01*
%TO.N,RX*%
X109830100Y-112082600D02*
X110539100Y-112082600D01*
X107201100Y-109453600D02*
X109830100Y-112082600D01*
X107201100Y-86653600D02*
X107201100Y-109453600D01*
X110001100Y-83853600D02*
X107201100Y-86653600D01*
X135731100Y-83853600D02*
X110001100Y-83853600D01*
X139181100Y-87303600D02*
X135731100Y-83853600D01*
X139181100Y-89203600D02*
X139181100Y-87303600D01*
%TO.N,TX*%
X110539100Y-94102600D02*
X110539100Y-94302600D01*
X118583700Y-86058000D02*
X110539100Y-94102600D01*
X131565500Y-86058000D02*
X118583700Y-86058000D01*
X134711100Y-89203600D02*
X131565500Y-86058000D01*
%TO.N,COM_LED2*%
X116651100Y-133353600D02*
X115251100Y-131953600D01*
X116651100Y-133353600D02*
X117451100Y-133353600D01*
X115251100Y-125763600D02*
X115251100Y-131953600D01*
X118751100Y-122263600D02*
X115251100Y-125763600D01*
X126191100Y-122263600D02*
X118751100Y-122263600D01*
%TO.N,PWM1*%
X151309293Y-103153600D02*
X153728693Y-105573000D01*
X161415862Y-105573000D02*
X162246462Y-104742400D01*
X161415862Y-105573000D02*
X153728693Y-105573000D01*
X151309293Y-103153600D02*
X144601100Y-103153600D01*
%TO.N,LED8*%
X161131700Y-102064763D02*
X161131700Y-95353600D01*
X159712481Y-103483982D02*
X161131700Y-102064763D01*
%TO.N,LED7*%
X160488100Y-103991600D02*
X160488100Y-104070600D01*
X161901100Y-102578600D02*
X160488100Y-103991600D01*
X161901100Y-94753600D02*
X161901100Y-102578600D01*
%TO.N,LED1*%
X160401100Y-101500038D02*
X160401100Y-96053600D01*
X158966937Y-102934200D02*
X160401100Y-101500038D01*
%TO.N,+5V*%
X119841100Y-69913600D02*
X119841100Y-70453600D01*
X120901100Y-68853600D02*
X119841100Y-69913600D01*
X135241100Y-68853600D02*
X120901100Y-68853600D01*
X136841100Y-70453600D02*
X135241100Y-68853600D01*
X139020900Y-72633400D02*
X136841100Y-70453600D01*
D28*
X177501100Y-109453600D02*
X170001100Y-116953600D01*
X174701100Y-91853600D02*
X187501100Y-91853600D01*
X170508700Y-87661200D02*
X174701100Y-91853600D01*
X168525843Y-87661200D02*
X170508700Y-87661200D01*
X168348700Y-87991000D02*
X168348700Y-87838344D01*
X168176100Y-88163600D02*
X168348700Y-87991000D01*
X168348700Y-87838344D02*
X168525843Y-87661200D01*
X159681100Y-116533600D02*
X159681100Y-114738600D01*
X160101100Y-116953600D02*
X159681100Y-116533600D01*
X170001100Y-116953600D02*
X160101100Y-116953600D01*
X177501100Y-107353600D02*
X177501100Y-109453600D01*
X177501100Y-106653600D02*
X177501100Y-107353600D01*
X177801100Y-106353600D02*
X177501100Y-106653600D01*
X179901100Y-106353600D02*
X177801100Y-106353600D01*
X180501100Y-106953600D02*
X179901100Y-106353600D01*
X180501100Y-107353600D02*
X180501100Y-106953600D01*
X180501100Y-107353600D02*
X180501100Y-109453600D01*
X168176100Y-88163600D02*
X168176100Y-89253600D01*
D27*
X158311100Y-73893600D02*
X157050900Y-72633400D01*
X119841100Y-70653600D02*
X119841100Y-70453600D01*
X119841100Y-79153600D02*
X119841100Y-70653600D01*
D28*
X187501100Y-91853600D02*
X190001100Y-94353600D01*
X190001100Y-106953600D02*
X190001100Y-94353600D01*
X186501100Y-110453600D02*
X190001100Y-106953600D01*
X181501100Y-110453600D02*
X186501100Y-110453600D01*
X180501100Y-109453600D02*
X181501100Y-110453600D01*
X165601100Y-88163600D02*
X165601100Y-81183600D01*
X165601100Y-88163600D02*
X168176100Y-88163600D01*
D27*
X157050900Y-72633400D02*
X139020900Y-72633400D01*
D28*
X165601100Y-81183600D02*
X158311100Y-73893600D01*
%TO.N,+3V3*%
X161501100Y-109953600D02*
X162001100Y-109453600D01*
X162001100Y-109453600D02*
X162001100Y-107353600D01*
X165001100Y-109353600D02*
X165101100Y-109453600D01*
X165001100Y-107353600D02*
X165001100Y-109353600D01*
X165001100Y-107253600D02*
X165001100Y-107353600D01*
X159401100Y-90513600D02*
X165601100Y-90513600D01*
X151401100Y-111853600D02*
X149801100Y-111853600D01*
X152501100Y-110753600D02*
X151401100Y-111853600D01*
X152501100Y-109853600D02*
X152501100Y-110753600D01*
X153401100Y-108953600D02*
X152501100Y-109853600D01*
X155601100Y-108953600D02*
X153401100Y-108953600D01*
X156001100Y-109353600D02*
X155601100Y-108953600D01*
X156001100Y-109953600D02*
X156001100Y-109353600D01*
X170748700Y-90001200D02*
X168425843Y-90001200D01*
X170748700Y-90001200D02*
X170801100Y-90053600D01*
X168148700Y-90278344D02*
X168148700Y-90476200D01*
X168176100Y-90503600D02*
X168148700Y-90476200D01*
X168148700Y-90278344D02*
X168425843Y-90001200D01*
D27*
X165001100Y-105328600D02*
X165001100Y-107353600D01*
X164926100Y-105253600D02*
X165001100Y-105328600D01*
X132801100Y-111853600D02*
X132101100Y-111153600D01*
X149801100Y-111853600D02*
X132801100Y-111853600D01*
D28*
X179891100Y-74003600D02*
X179891100Y-82996888D01*
X168176100Y-90513600D02*
X165601100Y-90513600D01*
X168176100Y-90513600D02*
X168176100Y-91653600D01*
X168176100Y-90503600D02*
X168176100Y-90513600D01*
X162243075Y-106504675D02*
X162001100Y-106746650D01*
X162001100Y-107353600D02*
X162001100Y-106746650D01*
X164252175Y-106504675D02*
X165001100Y-107253600D01*
X162243075Y-106504675D02*
X164252175Y-106504675D01*
X156001100Y-109953600D02*
X161501100Y-109953600D01*
X173995787Y-88892200D02*
X173995787Y-89992200D01*
X179891100Y-82996888D02*
X173995787Y-88892200D01*
X157554100Y-90513600D02*
X156066100Y-92001600D01*
X159401100Y-90513600D02*
X157554100Y-90513600D01*
%TO.N,N$10*%
X140871100Y-126173600D02*
X140871100Y-126273600D01*
X140871100Y-126173600D02*
X139403600Y-124706100D01*
X136451100Y-124706100D02*
X139403600Y-124706100D01*
X135851100Y-125306100D02*
X136451100Y-124706100D01*
%TO.N,N$9*%
X137563600Y-127681100D02*
X138971100Y-126273600D01*
X134901100Y-127681100D02*
X137563600Y-127681100D01*
X134919590Y-133505110D02*
X134741100Y-133683600D01*
X134919590Y-127699591D02*
X134919590Y-133505110D01*
D27*
X134901100Y-127681100D02*
X134919590Y-127699591D01*
D28*
%TO.N,N$8*%
X144951100Y-126903600D02*
X144951100Y-133683600D01*
X140901100Y-122853600D02*
X144951100Y-126903600D01*
X135338581Y-122853600D02*
X140901100Y-122853600D01*
X133920500Y-124271682D02*
X135338581Y-122853600D01*
X133951100Y-125306100D02*
X133920500Y-125275500D01*
X133920500Y-124271682D02*
X133920500Y-125275500D01*
D27*
%TO.N,UART_RX*%
X142091100Y-94653600D02*
X139181100Y-91743600D01*
X150401100Y-94653600D02*
X142091100Y-94653600D01*
%TO.N,UART_TX*%
X134711100Y-91743600D02*
X134737500Y-91743600D01*
X139247500Y-96253600D02*
X134737500Y-91743600D01*
X149554700Y-96253600D02*
X139247500Y-96253600D01*
%TO.N,COM_LED*%
X154891100Y-109950600D02*
X157702700Y-112762200D01*
X162221100Y-114082019D02*
X160901281Y-112762200D01*
X162221100Y-114738600D02*
X162221100Y-114082019D01*
X157702700Y-112762200D02*
X160901281Y-112762200D01*
D28*
%TO.N,PGND*%
X137281100Y-134733600D02*
X137801100Y-135253600D01*
X147491100Y-134363600D02*
X147491100Y-133683600D01*
X146601100Y-135253600D02*
X147491100Y-134363600D01*
X137801100Y-135253600D02*
X146601100Y-135253600D01*
X137281100Y-133683600D02*
X137281100Y-134733600D01*
D27*
%TO.N,PWM2*%
X153101100Y-106073000D02*
X150901100Y-103873000D01*
X162101100Y-106073000D02*
X153101100Y-106073000D01*
X163001100Y-105173000D02*
X162101100Y-106073000D01*
X163001100Y-105173000D02*
X163101100Y-105173000D01*
X143801100Y-103673000D02*
X144001100Y-103873000D01*
X150901100Y-103873000D02*
X144001100Y-103873000D01*
%TO.N,EN1_B*%
X147413081Y-109865582D02*
X142301100Y-104753600D01*
X150240700Y-109865582D02*
X147413081Y-109865582D01*
X150251700Y-109854582D02*
X150240700Y-109865582D01*
%TO.N,EN1_A*%
X147028100Y-110580600D02*
X142201100Y-105753600D01*
X150884100Y-110580600D02*
X147028100Y-110580600D01*
X150894100Y-110570600D02*
X150884100Y-110580600D01*
%TD*%
M02*
