%TF.GenerationSoftware,KiCad,Pcbnew,7.0.1*%
%TF.CreationDate,2023-09-15T11:15:50+09:00*%
%TF.ProjectId,_________,0a070658-9c5f-4cbd-9eef-2e6b69636164,rev?*%
%TF.SameCoordinates,Original*%
%TF.FileFunction,Legend,Top*%
%TF.FilePolarity,Positive*%
%FSLAX46Y46*%
G04 Gerber Fmt 4.6, Leading zero omitted, Abs format (unit mm)*
G04 Created by KiCad (PCBNEW 7.0.1) date 2023-09-15 11:15:50*
%MOMM*%
%LPD*%
G01*
G04 APERTURE LIST*
%ADD10C,0.200000*%
%ADD11C,0.187500*%
%ADD12C,0.100000*%
%ADD13C,0.101600*%
%ADD14C,0.048768*%
%ADD15C,0.093472*%
%ADD16C,0.036800*%
%ADD17C,0.114300*%
%ADD18C,0.160020*%
%ADD19C,0.127000*%
%ADD20C,0.073472*%
%ADD21C,0.050000*%
%ADD22C,0.203200*%
%ADD23C,0.152400*%
%ADD24C,0.050800*%
%ADD25C,0.076200*%
G04 APERTURE END LIST*
D10*
X185373571Y-131535714D02*
X185087857Y-131107142D01*
X185087857Y-131107142D02*
X185587857Y-131392857D01*
X185587857Y-131392857D02*
X186016428Y-131392857D01*
X186016428Y-131392857D02*
X186302142Y-131321428D01*
X186302142Y-131321428D02*
X186445000Y-131178571D01*
X186445000Y-131178571D02*
X186373571Y-130964285D01*
X186373571Y-130964285D02*
X186230714Y-130892857D01*
X186230714Y-130892857D02*
X185945000Y-130821428D01*
X185945000Y-130821428D02*
X185516428Y-130750000D01*
X185516428Y-130750000D02*
X185087857Y-130821428D01*
X185087857Y-130821428D02*
X185659285Y-130464285D01*
X185159285Y-129464285D02*
X185159285Y-128964285D01*
X184873571Y-129821428D02*
X185445000Y-129892856D01*
X185445000Y-129892856D02*
X185873571Y-129892856D01*
X185873571Y-129892856D02*
X186373571Y-129821428D01*
X186373571Y-129821428D02*
X185873571Y-129678571D01*
X185945000Y-129464285D02*
X186230714Y-129464285D01*
X186230714Y-129464285D02*
X186302142Y-129392856D01*
X186302142Y-129392856D02*
X186302142Y-128964285D01*
X185873571Y-128249999D02*
X185587857Y-127678570D01*
X185587857Y-127678570D02*
X185659285Y-127464284D01*
X185659285Y-127464284D02*
X185802142Y-127464284D01*
X185802142Y-127464284D02*
X185945000Y-127535713D01*
X185945000Y-127535713D02*
X186016428Y-127749999D01*
X185445000Y-128178570D02*
X186516428Y-127821427D01*
X185373571Y-127964284D02*
X185516428Y-127821427D01*
X185230714Y-126749998D02*
X185230714Y-126249998D01*
X184873571Y-126392855D02*
X186373571Y-126749998D01*
X185587857Y-126321427D02*
X185587857Y-125892855D01*
X185945000Y-126392855D02*
X186230714Y-126321427D01*
X186230714Y-126321427D02*
X186373571Y-126178570D01*
X186373571Y-126178570D02*
X186373571Y-125821427D01*
X185016428Y-124607141D02*
X185016428Y-123535712D01*
X185230714Y-125321426D02*
X185230714Y-124749998D01*
X185516428Y-124678569D02*
X185516428Y-123464284D01*
X185802142Y-124678569D02*
X185802142Y-123464284D01*
X186516428Y-125249998D02*
X186516428Y-124964284D01*
X184802142Y-124964284D02*
X186516428Y-124964284D01*
X184802142Y-124035712D02*
X185087857Y-124035712D01*
X185087857Y-123749998D02*
X185445000Y-123821426D01*
X185159285Y-124321426D02*
X185516428Y-124249998D01*
X185516428Y-124249998D02*
X186159285Y-124464284D01*
X186159285Y-124464284D02*
X186516428Y-123535712D01*
X185730714Y-124749998D02*
X185873571Y-125321426D01*
X185802142Y-123749998D02*
X186159285Y-123892855D01*
X186159285Y-123892855D02*
X186302142Y-124035712D01*
X186302142Y-124035712D02*
X186516428Y-124678569D01*
X185016428Y-122321426D02*
X185016428Y-121249998D01*
X185302142Y-122249998D02*
X185302142Y-121392855D01*
X185730714Y-123107140D02*
X185730714Y-122464283D01*
X186516428Y-121607140D02*
X186516428Y-121249998D01*
X185659285Y-122749998D02*
X186516428Y-122749998D01*
X184802142Y-121821426D02*
X185302142Y-121821426D01*
X185802142Y-121607140D02*
X186516428Y-121607140D01*
X185587857Y-122321426D02*
X185587857Y-121321426D01*
X185587857Y-121321426D02*
X185802142Y-121321426D01*
X186302142Y-121249998D02*
X186516428Y-121249998D01*
X185159285Y-123107140D02*
X185373571Y-122821426D01*
X185373571Y-122821426D02*
X185659285Y-123035712D01*
X185873571Y-122464283D02*
X186230714Y-122464283D01*
X185445000Y-122607140D02*
X185802142Y-122464283D01*
X184802142Y-122821426D02*
X185230714Y-122964283D01*
X185016428Y-122535712D02*
X185373571Y-122821426D01*
X185945000Y-122964283D02*
X186302142Y-123107140D01*
X185587857Y-122321426D02*
X185802142Y-122321426D01*
X185873571Y-122035712D02*
X186230714Y-122035712D01*
X186230714Y-122035712D02*
X186516428Y-122392855D01*
D11*
X194966428Y-90892857D02*
X193466428Y-90892857D01*
X193466428Y-90892857D02*
X193466428Y-90321428D01*
X193466428Y-90321428D02*
X193537857Y-90178571D01*
X193537857Y-90178571D02*
X193609285Y-90107142D01*
X193609285Y-90107142D02*
X193752142Y-90035714D01*
X193752142Y-90035714D02*
X193966428Y-90035714D01*
X193966428Y-90035714D02*
X194109285Y-90107142D01*
X194109285Y-90107142D02*
X194180714Y-90178571D01*
X194180714Y-90178571D02*
X194252142Y-90321428D01*
X194252142Y-90321428D02*
X194252142Y-90892857D01*
X193466428Y-89535714D02*
X194966428Y-89178571D01*
X194966428Y-89178571D02*
X193895000Y-88892857D01*
X193895000Y-88892857D02*
X194966428Y-88607142D01*
X194966428Y-88607142D02*
X193466428Y-88250000D01*
X194966428Y-87678571D02*
X193466428Y-87678571D01*
X193466428Y-87678571D02*
X194537857Y-87178571D01*
X194537857Y-87178571D02*
X193466428Y-86678571D01*
X193466428Y-86678571D02*
X194966428Y-86678571D01*
X195109285Y-86321428D02*
X195109285Y-85178570D01*
X194895000Y-84178571D02*
X194966428Y-84321428D01*
X194966428Y-84321428D02*
X194966428Y-84607142D01*
X194966428Y-84607142D02*
X194895000Y-84749999D01*
X194895000Y-84749999D02*
X194823571Y-84821428D01*
X194823571Y-84821428D02*
X194680714Y-84892856D01*
X194680714Y-84892856D02*
X194252142Y-84892856D01*
X194252142Y-84892856D02*
X194109285Y-84821428D01*
X194109285Y-84821428D02*
X194037857Y-84749999D01*
X194037857Y-84749999D02*
X193966428Y-84607142D01*
X193966428Y-84607142D02*
X193966428Y-84321428D01*
X193966428Y-84321428D02*
X194037857Y-84178571D01*
X194966428Y-83321428D02*
X194895000Y-83464285D01*
X194895000Y-83464285D02*
X194823571Y-83535714D01*
X194823571Y-83535714D02*
X194680714Y-83607142D01*
X194680714Y-83607142D02*
X194252142Y-83607142D01*
X194252142Y-83607142D02*
X194109285Y-83535714D01*
X194109285Y-83535714D02*
X194037857Y-83464285D01*
X194037857Y-83464285D02*
X193966428Y-83321428D01*
X193966428Y-83321428D02*
X193966428Y-83107142D01*
X193966428Y-83107142D02*
X194037857Y-82964285D01*
X194037857Y-82964285D02*
X194109285Y-82892857D01*
X194109285Y-82892857D02*
X194252142Y-82821428D01*
X194252142Y-82821428D02*
X194680714Y-82821428D01*
X194680714Y-82821428D02*
X194823571Y-82892857D01*
X194823571Y-82892857D02*
X194895000Y-82964285D01*
X194895000Y-82964285D02*
X194966428Y-83107142D01*
X194966428Y-83107142D02*
X194966428Y-83321428D01*
X193966428Y-82178571D02*
X194966428Y-82178571D01*
X194109285Y-82178571D02*
X194037857Y-82107142D01*
X194037857Y-82107142D02*
X193966428Y-81964285D01*
X193966428Y-81964285D02*
X193966428Y-81749999D01*
X193966428Y-81749999D02*
X194037857Y-81607142D01*
X194037857Y-81607142D02*
X194180714Y-81535714D01*
X194180714Y-81535714D02*
X194966428Y-81535714D01*
X195016428Y-106978571D02*
X195016428Y-107692857D01*
X195016428Y-107692857D02*
X193516428Y-107692857D01*
X195016428Y-106478571D02*
X194016428Y-106478571D01*
X193516428Y-106478571D02*
X193587857Y-106549999D01*
X193587857Y-106549999D02*
X193659285Y-106478571D01*
X193659285Y-106478571D02*
X193587857Y-106407142D01*
X193587857Y-106407142D02*
X193516428Y-106478571D01*
X193516428Y-106478571D02*
X193659285Y-106478571D01*
X195016428Y-105764285D02*
X194016428Y-105764285D01*
X194159285Y-105764285D02*
X194087857Y-105692856D01*
X194087857Y-105692856D02*
X194016428Y-105549999D01*
X194016428Y-105549999D02*
X194016428Y-105335713D01*
X194016428Y-105335713D02*
X194087857Y-105192856D01*
X194087857Y-105192856D02*
X194230714Y-105121428D01*
X194230714Y-105121428D02*
X195016428Y-105121428D01*
X194230714Y-105121428D02*
X194087857Y-105049999D01*
X194087857Y-105049999D02*
X194016428Y-104907142D01*
X194016428Y-104907142D02*
X194016428Y-104692856D01*
X194016428Y-104692856D02*
X194087857Y-104549999D01*
X194087857Y-104549999D02*
X194230714Y-104478570D01*
X194230714Y-104478570D02*
X195016428Y-104478570D01*
X195016428Y-103764285D02*
X194016428Y-103764285D01*
X193516428Y-103764285D02*
X193587857Y-103835713D01*
X193587857Y-103835713D02*
X193659285Y-103764285D01*
X193659285Y-103764285D02*
X193587857Y-103692856D01*
X193587857Y-103692856D02*
X193516428Y-103764285D01*
X193516428Y-103764285D02*
X193659285Y-103764285D01*
X194016428Y-103264284D02*
X194016428Y-102692856D01*
X193516428Y-103049999D02*
X194802142Y-103049999D01*
X194802142Y-103049999D02*
X194945000Y-102978570D01*
X194945000Y-102978570D02*
X195016428Y-102835713D01*
X195016428Y-102835713D02*
X195016428Y-102692856D01*
X195159285Y-102549999D02*
X195159285Y-101407141D01*
X194945000Y-101121427D02*
X195016428Y-100978570D01*
X195016428Y-100978570D02*
X195016428Y-100692856D01*
X195016428Y-100692856D02*
X194945000Y-100549999D01*
X194945000Y-100549999D02*
X194802142Y-100478570D01*
X194802142Y-100478570D02*
X194730714Y-100478570D01*
X194730714Y-100478570D02*
X194587857Y-100549999D01*
X194587857Y-100549999D02*
X194516428Y-100692856D01*
X194516428Y-100692856D02*
X194516428Y-100907142D01*
X194516428Y-100907142D02*
X194445000Y-101049999D01*
X194445000Y-101049999D02*
X194302142Y-101121427D01*
X194302142Y-101121427D02*
X194230714Y-101121427D01*
X194230714Y-101121427D02*
X194087857Y-101049999D01*
X194087857Y-101049999D02*
X194016428Y-100907142D01*
X194016428Y-100907142D02*
X194016428Y-100692856D01*
X194016428Y-100692856D02*
X194087857Y-100549999D01*
X194016428Y-99978570D02*
X195016428Y-99692856D01*
X195016428Y-99692856D02*
X194302142Y-99407141D01*
X194302142Y-99407141D02*
X195016428Y-99121427D01*
X195016428Y-99121427D02*
X194016428Y-98835713D01*
X195016428Y-98264284D02*
X194016428Y-98264284D01*
X193516428Y-98264284D02*
X193587857Y-98335712D01*
X193587857Y-98335712D02*
X193659285Y-98264284D01*
X193659285Y-98264284D02*
X193587857Y-98192855D01*
X193587857Y-98192855D02*
X193516428Y-98264284D01*
X193516428Y-98264284D02*
X193659285Y-98264284D01*
X194016428Y-97764283D02*
X194016428Y-97192855D01*
X193516428Y-97549998D02*
X194802142Y-97549998D01*
X194802142Y-97549998D02*
X194945000Y-97478569D01*
X194945000Y-97478569D02*
X195016428Y-97335712D01*
X195016428Y-97335712D02*
X195016428Y-97192855D01*
X194945000Y-96049998D02*
X195016428Y-96192855D01*
X195016428Y-96192855D02*
X195016428Y-96478569D01*
X195016428Y-96478569D02*
X194945000Y-96621426D01*
X194945000Y-96621426D02*
X194873571Y-96692855D01*
X194873571Y-96692855D02*
X194730714Y-96764283D01*
X194730714Y-96764283D02*
X194302142Y-96764283D01*
X194302142Y-96764283D02*
X194159285Y-96692855D01*
X194159285Y-96692855D02*
X194087857Y-96621426D01*
X194087857Y-96621426D02*
X194016428Y-96478569D01*
X194016428Y-96478569D02*
X194016428Y-96192855D01*
X194016428Y-96192855D02*
X194087857Y-96049998D01*
X195016428Y-95407141D02*
X193516428Y-95407141D01*
X195016428Y-94764284D02*
X194230714Y-94764284D01*
X194230714Y-94764284D02*
X194087857Y-94835712D01*
X194087857Y-94835712D02*
X194016428Y-94978569D01*
X194016428Y-94978569D02*
X194016428Y-95192855D01*
X194016428Y-95192855D02*
X194087857Y-95335712D01*
X194087857Y-95335712D02*
X194159285Y-95407141D01*
D12*
X192550000Y-80450000D02*
X192550000Y-91850000D01*
X173400000Y-80450000D02*
X192550000Y-80450000D01*
X173400000Y-91850000D02*
X173400000Y-80450000D01*
X173650000Y-91850000D02*
X173400000Y-91850000D01*
X178800000Y-91850000D02*
X173650000Y-91850000D01*
X178800000Y-91850000D02*
X178800000Y-106200000D01*
X187450000Y-91850000D02*
X178800000Y-91850000D01*
X192550000Y-110000000D02*
X182750000Y-110000000D01*
X192550000Y-91850000D02*
X192550000Y-110000000D01*
X187450000Y-91850000D02*
X192550000Y-91850000D01*
X186700000Y-114750000D02*
X186322100Y-114750000D01*
X186700000Y-137611600D02*
X186700000Y-114750000D01*
X186334100Y-137611600D02*
X186700000Y-137611600D01*
D11*
X133614285Y-141223571D02*
X133542857Y-141295000D01*
X133542857Y-141295000D02*
X133328571Y-141366428D01*
X133328571Y-141366428D02*
X133185714Y-141366428D01*
X133185714Y-141366428D02*
X132971428Y-141295000D01*
X132971428Y-141295000D02*
X132828571Y-141152142D01*
X132828571Y-141152142D02*
X132757142Y-141009285D01*
X132757142Y-141009285D02*
X132685714Y-140723571D01*
X132685714Y-140723571D02*
X132685714Y-140509285D01*
X132685714Y-140509285D02*
X132757142Y-140223571D01*
X132757142Y-140223571D02*
X132828571Y-140080714D01*
X132828571Y-140080714D02*
X132971428Y-139937857D01*
X132971428Y-139937857D02*
X133185714Y-139866428D01*
X133185714Y-139866428D02*
X133328571Y-139866428D01*
X133328571Y-139866428D02*
X133542857Y-139937857D01*
X133542857Y-139937857D02*
X133614285Y-140009285D01*
X134042857Y-139866428D02*
X134900000Y-139866428D01*
X134471428Y-141366428D02*
X134471428Y-139866428D01*
X136257142Y-141366428D02*
X135757142Y-140652142D01*
X135399999Y-141366428D02*
X135399999Y-139866428D01*
X135399999Y-139866428D02*
X135971428Y-139866428D01*
X135971428Y-139866428D02*
X136114285Y-139937857D01*
X136114285Y-139937857D02*
X136185714Y-140009285D01*
X136185714Y-140009285D02*
X136257142Y-140152142D01*
X136257142Y-140152142D02*
X136257142Y-140366428D01*
X136257142Y-140366428D02*
X136185714Y-140509285D01*
X136185714Y-140509285D02*
X136114285Y-140580714D01*
X136114285Y-140580714D02*
X135971428Y-140652142D01*
X135971428Y-140652142D02*
X135399999Y-140652142D01*
X137614285Y-141366428D02*
X136899999Y-141366428D01*
X136899999Y-141366428D02*
X136899999Y-139866428D01*
X137757143Y-141509285D02*
X138900000Y-141509285D01*
X139900000Y-141295000D02*
X139757142Y-141366428D01*
X139757142Y-141366428D02*
X139471428Y-141366428D01*
X139471428Y-141366428D02*
X139328571Y-141295000D01*
X139328571Y-141295000D02*
X139257142Y-141223571D01*
X139257142Y-141223571D02*
X139185714Y-141080714D01*
X139185714Y-141080714D02*
X139185714Y-140652142D01*
X139185714Y-140652142D02*
X139257142Y-140509285D01*
X139257142Y-140509285D02*
X139328571Y-140437857D01*
X139328571Y-140437857D02*
X139471428Y-140366428D01*
X139471428Y-140366428D02*
X139757142Y-140366428D01*
X139757142Y-140366428D02*
X139900000Y-140437857D01*
X140757142Y-141366428D02*
X140614285Y-141295000D01*
X140614285Y-141295000D02*
X140542856Y-141223571D01*
X140542856Y-141223571D02*
X140471428Y-141080714D01*
X140471428Y-141080714D02*
X140471428Y-140652142D01*
X140471428Y-140652142D02*
X140542856Y-140509285D01*
X140542856Y-140509285D02*
X140614285Y-140437857D01*
X140614285Y-140437857D02*
X140757142Y-140366428D01*
X140757142Y-140366428D02*
X140971428Y-140366428D01*
X140971428Y-140366428D02*
X141114285Y-140437857D01*
X141114285Y-140437857D02*
X141185714Y-140509285D01*
X141185714Y-140509285D02*
X141257142Y-140652142D01*
X141257142Y-140652142D02*
X141257142Y-141080714D01*
X141257142Y-141080714D02*
X141185714Y-141223571D01*
X141185714Y-141223571D02*
X141114285Y-141295000D01*
X141114285Y-141295000D02*
X140971428Y-141366428D01*
X140971428Y-141366428D02*
X140757142Y-141366428D01*
X141899999Y-140366428D02*
X141899999Y-141366428D01*
X141899999Y-140509285D02*
X141971428Y-140437857D01*
X141971428Y-140437857D02*
X142114285Y-140366428D01*
X142114285Y-140366428D02*
X142328571Y-140366428D01*
X142328571Y-140366428D02*
X142471428Y-140437857D01*
X142471428Y-140437857D02*
X142542857Y-140580714D01*
X142542857Y-140580714D02*
X142542857Y-141366428D01*
X143114285Y-140366428D02*
X143471428Y-141366428D01*
X143471428Y-141366428D02*
X143828571Y-140366428D01*
X144971428Y-141295000D02*
X144828571Y-141366428D01*
X144828571Y-141366428D02*
X144542857Y-141366428D01*
X144542857Y-141366428D02*
X144399999Y-141295000D01*
X144399999Y-141295000D02*
X144328571Y-141152142D01*
X144328571Y-141152142D02*
X144328571Y-140580714D01*
X144328571Y-140580714D02*
X144399999Y-140437857D01*
X144399999Y-140437857D02*
X144542857Y-140366428D01*
X144542857Y-140366428D02*
X144828571Y-140366428D01*
X144828571Y-140366428D02*
X144971428Y-140437857D01*
X144971428Y-140437857D02*
X145042857Y-140580714D01*
X145042857Y-140580714D02*
X145042857Y-140723571D01*
X145042857Y-140723571D02*
X144328571Y-140866428D01*
X145685713Y-141366428D02*
X145685713Y-140366428D01*
X145685713Y-140652142D02*
X145757142Y-140509285D01*
X145757142Y-140509285D02*
X145828571Y-140437857D01*
X145828571Y-140437857D02*
X145971428Y-140366428D01*
X145971428Y-140366428D02*
X146114285Y-140366428D01*
X146542856Y-141295000D02*
X146685713Y-141366428D01*
X146685713Y-141366428D02*
X146971427Y-141366428D01*
X146971427Y-141366428D02*
X147114284Y-141295000D01*
X147114284Y-141295000D02*
X147185713Y-141152142D01*
X147185713Y-141152142D02*
X147185713Y-141080714D01*
X147185713Y-141080714D02*
X147114284Y-140937857D01*
X147114284Y-140937857D02*
X146971427Y-140866428D01*
X146971427Y-140866428D02*
X146757142Y-140866428D01*
X146757142Y-140866428D02*
X146614284Y-140795000D01*
X146614284Y-140795000D02*
X146542856Y-140652142D01*
X146542856Y-140652142D02*
X146542856Y-140580714D01*
X146542856Y-140580714D02*
X146614284Y-140437857D01*
X146614284Y-140437857D02*
X146757142Y-140366428D01*
X146757142Y-140366428D02*
X146971427Y-140366428D01*
X146971427Y-140366428D02*
X147114284Y-140437857D01*
X147828570Y-141366428D02*
X147828570Y-140366428D01*
X147828570Y-139866428D02*
X147757142Y-139937857D01*
X147757142Y-139937857D02*
X147828570Y-140009285D01*
X147828570Y-140009285D02*
X147899999Y-139937857D01*
X147899999Y-139937857D02*
X147828570Y-139866428D01*
X147828570Y-139866428D02*
X147828570Y-140009285D01*
X148757142Y-141366428D02*
X148614285Y-141295000D01*
X148614285Y-141295000D02*
X148542856Y-141223571D01*
X148542856Y-141223571D02*
X148471428Y-141080714D01*
X148471428Y-141080714D02*
X148471428Y-140652142D01*
X148471428Y-140652142D02*
X148542856Y-140509285D01*
X148542856Y-140509285D02*
X148614285Y-140437857D01*
X148614285Y-140437857D02*
X148757142Y-140366428D01*
X148757142Y-140366428D02*
X148971428Y-140366428D01*
X148971428Y-140366428D02*
X149114285Y-140437857D01*
X149114285Y-140437857D02*
X149185714Y-140509285D01*
X149185714Y-140509285D02*
X149257142Y-140652142D01*
X149257142Y-140652142D02*
X149257142Y-141080714D01*
X149257142Y-141080714D02*
X149185714Y-141223571D01*
X149185714Y-141223571D02*
X149114285Y-141295000D01*
X149114285Y-141295000D02*
X148971428Y-141366428D01*
X148971428Y-141366428D02*
X148757142Y-141366428D01*
X149899999Y-140366428D02*
X149899999Y-141366428D01*
X149899999Y-140509285D02*
X149971428Y-140437857D01*
X149971428Y-140437857D02*
X150114285Y-140366428D01*
X150114285Y-140366428D02*
X150328571Y-140366428D01*
X150328571Y-140366428D02*
X150471428Y-140437857D01*
X150471428Y-140437857D02*
X150542857Y-140580714D01*
X150542857Y-140580714D02*
X150542857Y-141366428D01*
D12*
X130000000Y-122000000D02*
X130000000Y-139000000D01*
X152500000Y-122000000D02*
X130000000Y-122000000D01*
X152500000Y-139000000D02*
X152500000Y-122000000D01*
X130000000Y-139000000D02*
X152500000Y-139000000D01*
X110500000Y-123512600D02*
X110539100Y-123512600D01*
X110500000Y-124000000D02*
X110500000Y-123512600D01*
X126191100Y-124000000D02*
X110500000Y-124000000D01*
X126191100Y-123533600D02*
X126191100Y-124000000D01*
X117150000Y-87000000D02*
G75*
G03*
X119550000Y-87000000I1200000J0D01*
G01*
X110550000Y-87000000D02*
X117150000Y-87000000D01*
X126191100Y-87000000D02*
X119550000Y-87000000D01*
X126191100Y-87973600D02*
X126191100Y-87000000D01*
X110539100Y-87952600D02*
X110539100Y-87000000D01*
D13*
X134112376Y-123442210D02*
X134780033Y-123442210D01*
X134446204Y-124610610D02*
X134446204Y-123442210D01*
X135781519Y-124610610D02*
X135113862Y-124610610D01*
X135447690Y-124610610D02*
X135447690Y-123442210D01*
X135447690Y-123442210D02*
X135336414Y-123609124D01*
X135336414Y-123609124D02*
X135225138Y-123720400D01*
X135225138Y-123720400D02*
X135113862Y-123776038D01*
X141188610Y-94321809D02*
X142134457Y-94321809D01*
X142134457Y-94321809D02*
X142245733Y-94266171D01*
X142245733Y-94266171D02*
X142301372Y-94210533D01*
X142301372Y-94210533D02*
X142357010Y-94099257D01*
X142357010Y-94099257D02*
X142357010Y-93876704D01*
X142357010Y-93876704D02*
X142301372Y-93765428D01*
X142301372Y-93765428D02*
X142245733Y-93709790D01*
X142245733Y-93709790D02*
X142134457Y-93654152D01*
X142134457Y-93654152D02*
X141188610Y-93654152D01*
X142023181Y-93153409D02*
X142023181Y-92597028D01*
X142357010Y-93264685D02*
X141188610Y-92875219D01*
X141188610Y-92875219D02*
X142357010Y-92485752D01*
X142357010Y-91428628D02*
X141800629Y-91818095D01*
X142357010Y-92096285D02*
X141188610Y-92096285D01*
X141188610Y-92096285D02*
X141188610Y-91651180D01*
X141188610Y-91651180D02*
X141244248Y-91539904D01*
X141244248Y-91539904D02*
X141299886Y-91484266D01*
X141299886Y-91484266D02*
X141411162Y-91428628D01*
X141411162Y-91428628D02*
X141578076Y-91428628D01*
X141578076Y-91428628D02*
X141689352Y-91484266D01*
X141689352Y-91484266D02*
X141744991Y-91539904D01*
X141744991Y-91539904D02*
X141800629Y-91651180D01*
X141800629Y-91651180D02*
X141800629Y-92096285D01*
X141188610Y-91094799D02*
X141188610Y-90427142D01*
X142357010Y-90760971D02*
X141188610Y-90760971D01*
X142468286Y-90315866D02*
X142468286Y-89425656D01*
X142301372Y-89203103D02*
X142357010Y-89036189D01*
X142357010Y-89036189D02*
X142357010Y-88757998D01*
X142357010Y-88757998D02*
X142301372Y-88646722D01*
X142301372Y-88646722D02*
X142245733Y-88591084D01*
X142245733Y-88591084D02*
X142134457Y-88535446D01*
X142134457Y-88535446D02*
X142023181Y-88535446D01*
X142023181Y-88535446D02*
X141911905Y-88591084D01*
X141911905Y-88591084D02*
X141856267Y-88646722D01*
X141856267Y-88646722D02*
X141800629Y-88757998D01*
X141800629Y-88757998D02*
X141744991Y-88980551D01*
X141744991Y-88980551D02*
X141689352Y-89091827D01*
X141689352Y-89091827D02*
X141633714Y-89147465D01*
X141633714Y-89147465D02*
X141522438Y-89203103D01*
X141522438Y-89203103D02*
X141411162Y-89203103D01*
X141411162Y-89203103D02*
X141299886Y-89147465D01*
X141299886Y-89147465D02*
X141244248Y-89091827D01*
X141244248Y-89091827D02*
X141188610Y-88980551D01*
X141188610Y-88980551D02*
X141188610Y-88702360D01*
X141188610Y-88702360D02*
X141244248Y-88535446D01*
X142357010Y-88034703D02*
X141188610Y-88034703D01*
X142357010Y-87367046D02*
X141689352Y-87867789D01*
X141188610Y-87367046D02*
X141856267Y-88034703D01*
X141188610Y-87033217D02*
X141188610Y-86365560D01*
X142357010Y-86699389D02*
X141188610Y-86699389D01*
D14*
X165221575Y-106191196D02*
X165034631Y-106191196D01*
X165034631Y-106484965D02*
X165034631Y-105924133D01*
X165034631Y-105924133D02*
X165301694Y-105924133D01*
X165702288Y-106191196D02*
X165782407Y-106217902D01*
X165782407Y-106217902D02*
X165809113Y-106244608D01*
X165809113Y-106244608D02*
X165835819Y-106298021D01*
X165835819Y-106298021D02*
X165835819Y-106378140D01*
X165835819Y-106378140D02*
X165809113Y-106431552D01*
X165809113Y-106431552D02*
X165782407Y-106458259D01*
X165782407Y-106458259D02*
X165728994Y-106484965D01*
X165728994Y-106484965D02*
X165515344Y-106484965D01*
X165515344Y-106484965D02*
X165515344Y-105924133D01*
X165515344Y-105924133D02*
X165702288Y-105924133D01*
X165702288Y-105924133D02*
X165755701Y-105950839D01*
X165755701Y-105950839D02*
X165782407Y-105977545D01*
X165782407Y-105977545D02*
X165809113Y-106030958D01*
X165809113Y-106030958D02*
X165809113Y-106084371D01*
X165809113Y-106084371D02*
X165782407Y-106137783D01*
X165782407Y-106137783D02*
X165755701Y-106164489D01*
X165755701Y-106164489D02*
X165702288Y-106191196D01*
X165702288Y-106191196D02*
X165515344Y-106191196D01*
X166369945Y-106484965D02*
X166049470Y-106484965D01*
X166209707Y-106484965D02*
X166209707Y-105924133D01*
X166209707Y-105924133D02*
X166156295Y-106004252D01*
X166156295Y-106004252D02*
X166102882Y-106057664D01*
X166102882Y-106057664D02*
X166049470Y-106084371D01*
D13*
X169458110Y-101307752D02*
X168901729Y-101697219D01*
X169458110Y-101975409D02*
X168289710Y-101975409D01*
X168289710Y-101975409D02*
X168289710Y-101530304D01*
X168289710Y-101530304D02*
X168345348Y-101419028D01*
X168345348Y-101419028D02*
X168400986Y-101363390D01*
X168400986Y-101363390D02*
X168512262Y-101307752D01*
X168512262Y-101307752D02*
X168679176Y-101307752D01*
X168679176Y-101307752D02*
X168790452Y-101363390D01*
X168790452Y-101363390D02*
X168846091Y-101419028D01*
X168846091Y-101419028D02*
X168901729Y-101530304D01*
X168901729Y-101530304D02*
X168901729Y-101975409D01*
X168846091Y-100807009D02*
X168846091Y-100417542D01*
X169458110Y-100250628D02*
X169458110Y-100807009D01*
X169458110Y-100807009D02*
X168289710Y-100807009D01*
X168289710Y-100807009D02*
X168289710Y-100250628D01*
X169402472Y-99805523D02*
X169458110Y-99638609D01*
X169458110Y-99638609D02*
X169458110Y-99360418D01*
X169458110Y-99360418D02*
X169402472Y-99249142D01*
X169402472Y-99249142D02*
X169346833Y-99193504D01*
X169346833Y-99193504D02*
X169235557Y-99137866D01*
X169235557Y-99137866D02*
X169124281Y-99137866D01*
X169124281Y-99137866D02*
X169013005Y-99193504D01*
X169013005Y-99193504D02*
X168957367Y-99249142D01*
X168957367Y-99249142D02*
X168901729Y-99360418D01*
X168901729Y-99360418D02*
X168846091Y-99582971D01*
X168846091Y-99582971D02*
X168790452Y-99694247D01*
X168790452Y-99694247D02*
X168734814Y-99749885D01*
X168734814Y-99749885D02*
X168623538Y-99805523D01*
X168623538Y-99805523D02*
X168512262Y-99805523D01*
X168512262Y-99805523D02*
X168400986Y-99749885D01*
X168400986Y-99749885D02*
X168345348Y-99694247D01*
X168345348Y-99694247D02*
X168289710Y-99582971D01*
X168289710Y-99582971D02*
X168289710Y-99304780D01*
X168289710Y-99304780D02*
X168345348Y-99137866D01*
X168846091Y-98637123D02*
X168846091Y-98247656D01*
X169458110Y-98080742D02*
X169458110Y-98637123D01*
X169458110Y-98637123D02*
X168289710Y-98637123D01*
X168289710Y-98637123D02*
X168289710Y-98080742D01*
X168289710Y-97746913D02*
X168289710Y-97079256D01*
X169458110Y-97413085D02*
X168289710Y-97413085D01*
D15*
%TO.C,AZUSA_CTRL*%
X130724100Y-129308134D02*
X131284352Y-129308134D01*
X130612050Y-129644285D02*
X131004226Y-128467757D01*
X131004226Y-128467757D02*
X131396402Y-129644285D01*
X131676528Y-128467757D02*
X132460880Y-128467757D01*
X132460880Y-128467757D02*
X131676528Y-129644285D01*
X131676528Y-129644285D02*
X132460880Y-129644285D01*
X132909081Y-128467757D02*
X132909081Y-129420184D01*
X132909081Y-129420184D02*
X132965106Y-129532234D01*
X132965106Y-129532234D02*
X133021132Y-129588260D01*
X133021132Y-129588260D02*
X133133182Y-129644285D01*
X133133182Y-129644285D02*
X133357282Y-129644285D01*
X133357282Y-129644285D02*
X133469333Y-129588260D01*
X133469333Y-129588260D02*
X133525358Y-129532234D01*
X133525358Y-129532234D02*
X133581383Y-129420184D01*
X133581383Y-129420184D02*
X133581383Y-128467757D01*
X134085609Y-129588260D02*
X134253685Y-129644285D01*
X134253685Y-129644285D02*
X134533810Y-129644285D01*
X134533810Y-129644285D02*
X134645861Y-129588260D01*
X134645861Y-129588260D02*
X134701886Y-129532234D01*
X134701886Y-129532234D02*
X134757911Y-129420184D01*
X134757911Y-129420184D02*
X134757911Y-129308134D01*
X134757911Y-129308134D02*
X134701886Y-129196084D01*
X134701886Y-129196084D02*
X134645861Y-129140058D01*
X134645861Y-129140058D02*
X134533810Y-129084033D01*
X134533810Y-129084033D02*
X134309710Y-129028008D01*
X134309710Y-129028008D02*
X134197659Y-128971983D01*
X134197659Y-128971983D02*
X134141634Y-128915958D01*
X134141634Y-128915958D02*
X134085609Y-128803908D01*
X134085609Y-128803908D02*
X134085609Y-128691857D01*
X134085609Y-128691857D02*
X134141634Y-128579807D01*
X134141634Y-128579807D02*
X134197659Y-128523782D01*
X134197659Y-128523782D02*
X134309710Y-128467757D01*
X134309710Y-128467757D02*
X134589835Y-128467757D01*
X134589835Y-128467757D02*
X134757911Y-128523782D01*
X135206112Y-129308134D02*
X135766364Y-129308134D01*
X135094062Y-129644285D02*
X135486238Y-128467757D01*
X135486238Y-128467757D02*
X135878414Y-129644285D01*
X135990465Y-129756335D02*
X136886867Y-129756335D01*
X137839294Y-129532234D02*
X137783269Y-129588260D01*
X137783269Y-129588260D02*
X137615193Y-129644285D01*
X137615193Y-129644285D02*
X137503143Y-129644285D01*
X137503143Y-129644285D02*
X137335068Y-129588260D01*
X137335068Y-129588260D02*
X137223017Y-129476209D01*
X137223017Y-129476209D02*
X137166992Y-129364159D01*
X137166992Y-129364159D02*
X137110967Y-129140058D01*
X137110967Y-129140058D02*
X137110967Y-128971983D01*
X137110967Y-128971983D02*
X137166992Y-128747882D01*
X137166992Y-128747882D02*
X137223017Y-128635832D01*
X137223017Y-128635832D02*
X137335068Y-128523782D01*
X137335068Y-128523782D02*
X137503143Y-128467757D01*
X137503143Y-128467757D02*
X137615193Y-128467757D01*
X137615193Y-128467757D02*
X137783269Y-128523782D01*
X137783269Y-128523782D02*
X137839294Y-128579807D01*
X138175445Y-128467757D02*
X138847747Y-128467757D01*
X138511596Y-129644285D02*
X138511596Y-128467757D01*
X139912224Y-129644285D02*
X139520048Y-129084033D01*
X139239922Y-129644285D02*
X139239922Y-128467757D01*
X139239922Y-128467757D02*
X139688123Y-128467757D01*
X139688123Y-128467757D02*
X139800174Y-128523782D01*
X139800174Y-128523782D02*
X139856199Y-128579807D01*
X139856199Y-128579807D02*
X139912224Y-128691857D01*
X139912224Y-128691857D02*
X139912224Y-128859933D01*
X139912224Y-128859933D02*
X139856199Y-128971983D01*
X139856199Y-128971983D02*
X139800174Y-129028008D01*
X139800174Y-129028008D02*
X139688123Y-129084033D01*
X139688123Y-129084033D02*
X139239922Y-129084033D01*
X140976702Y-129644285D02*
X140416450Y-129644285D01*
X140416450Y-129644285D02*
X140416450Y-128467757D01*
D16*
%TO.C,C13*%
X169563571Y-90961270D02*
X169541514Y-90983328D01*
X169541514Y-90983328D02*
X169475342Y-91005385D01*
X169475342Y-91005385D02*
X169431228Y-91005385D01*
X169431228Y-91005385D02*
X169365057Y-90983328D01*
X169365057Y-90983328D02*
X169320942Y-90939213D01*
X169320942Y-90939213D02*
X169298885Y-90895099D01*
X169298885Y-90895099D02*
X169276828Y-90806870D01*
X169276828Y-90806870D02*
X169276828Y-90740699D01*
X169276828Y-90740699D02*
X169298885Y-90652470D01*
X169298885Y-90652470D02*
X169320942Y-90608356D01*
X169320942Y-90608356D02*
X169365057Y-90564242D01*
X169365057Y-90564242D02*
X169431228Y-90542185D01*
X169431228Y-90542185D02*
X169475342Y-90542185D01*
X169475342Y-90542185D02*
X169541514Y-90564242D01*
X169541514Y-90564242D02*
X169563571Y-90586299D01*
X170004714Y-91005385D02*
X169740028Y-91005385D01*
X169872371Y-91005385D02*
X169872371Y-90542185D01*
X169872371Y-90542185D02*
X169828257Y-90608356D01*
X169828257Y-90608356D02*
X169784142Y-90652470D01*
X169784142Y-90652470D02*
X169740028Y-90674528D01*
X170159114Y-90542185D02*
X170445857Y-90542185D01*
X170445857Y-90542185D02*
X170291457Y-90718642D01*
X170291457Y-90718642D02*
X170357628Y-90718642D01*
X170357628Y-90718642D02*
X170401743Y-90740699D01*
X170401743Y-90740699D02*
X170423800Y-90762756D01*
X170423800Y-90762756D02*
X170445857Y-90806870D01*
X170445857Y-90806870D02*
X170445857Y-90917156D01*
X170445857Y-90917156D02*
X170423800Y-90961270D01*
X170423800Y-90961270D02*
X170401743Y-90983328D01*
X170401743Y-90983328D02*
X170357628Y-91005385D01*
X170357628Y-91005385D02*
X170225285Y-91005385D01*
X170225285Y-91005385D02*
X170181171Y-90983328D01*
X170181171Y-90983328D02*
X170159114Y-90961270D01*
%TO.C,C12*%
X169563571Y-88521270D02*
X169541514Y-88543328D01*
X169541514Y-88543328D02*
X169475342Y-88565385D01*
X169475342Y-88565385D02*
X169431228Y-88565385D01*
X169431228Y-88565385D02*
X169365057Y-88543328D01*
X169365057Y-88543328D02*
X169320942Y-88499213D01*
X169320942Y-88499213D02*
X169298885Y-88455099D01*
X169298885Y-88455099D02*
X169276828Y-88366870D01*
X169276828Y-88366870D02*
X169276828Y-88300699D01*
X169276828Y-88300699D02*
X169298885Y-88212470D01*
X169298885Y-88212470D02*
X169320942Y-88168356D01*
X169320942Y-88168356D02*
X169365057Y-88124242D01*
X169365057Y-88124242D02*
X169431228Y-88102185D01*
X169431228Y-88102185D02*
X169475342Y-88102185D01*
X169475342Y-88102185D02*
X169541514Y-88124242D01*
X169541514Y-88124242D02*
X169563571Y-88146299D01*
X170004714Y-88565385D02*
X169740028Y-88565385D01*
X169872371Y-88565385D02*
X169872371Y-88102185D01*
X169872371Y-88102185D02*
X169828257Y-88168356D01*
X169828257Y-88168356D02*
X169784142Y-88212470D01*
X169784142Y-88212470D02*
X169740028Y-88234528D01*
X170181171Y-88146299D02*
X170203228Y-88124242D01*
X170203228Y-88124242D02*
X170247343Y-88102185D01*
X170247343Y-88102185D02*
X170357628Y-88102185D01*
X170357628Y-88102185D02*
X170401743Y-88124242D01*
X170401743Y-88124242D02*
X170423800Y-88146299D01*
X170423800Y-88146299D02*
X170445857Y-88190413D01*
X170445857Y-88190413D02*
X170445857Y-88234528D01*
X170445857Y-88234528D02*
X170423800Y-88300699D01*
X170423800Y-88300699D02*
X170159114Y-88565385D01*
X170159114Y-88565385D02*
X170445857Y-88565385D01*
D15*
%TO.C,CTRL*%
X144952427Y-129532234D02*
X144896402Y-129588260D01*
X144896402Y-129588260D02*
X144728326Y-129644285D01*
X144728326Y-129644285D02*
X144616276Y-129644285D01*
X144616276Y-129644285D02*
X144448201Y-129588260D01*
X144448201Y-129588260D02*
X144336150Y-129476209D01*
X144336150Y-129476209D02*
X144280125Y-129364159D01*
X144280125Y-129364159D02*
X144224100Y-129140058D01*
X144224100Y-129140058D02*
X144224100Y-128971983D01*
X144224100Y-128971983D02*
X144280125Y-128747882D01*
X144280125Y-128747882D02*
X144336150Y-128635832D01*
X144336150Y-128635832D02*
X144448201Y-128523782D01*
X144448201Y-128523782D02*
X144616276Y-128467757D01*
X144616276Y-128467757D02*
X144728326Y-128467757D01*
X144728326Y-128467757D02*
X144896402Y-128523782D01*
X144896402Y-128523782D02*
X144952427Y-128579807D01*
X145288578Y-128467757D02*
X145960880Y-128467757D01*
X145624729Y-129644285D02*
X145624729Y-128467757D01*
X147025357Y-129644285D02*
X146633181Y-129084033D01*
X146353055Y-129644285D02*
X146353055Y-128467757D01*
X146353055Y-128467757D02*
X146801256Y-128467757D01*
X146801256Y-128467757D02*
X146913307Y-128523782D01*
X146913307Y-128523782D02*
X146969332Y-128579807D01*
X146969332Y-128579807D02*
X147025357Y-128691857D01*
X147025357Y-128691857D02*
X147025357Y-128859933D01*
X147025357Y-128859933D02*
X146969332Y-128971983D01*
X146969332Y-128971983D02*
X146913307Y-129028008D01*
X146913307Y-129028008D02*
X146801256Y-129084033D01*
X146801256Y-129084033D02*
X146353055Y-129084033D01*
X148089835Y-129644285D02*
X147529583Y-129644285D01*
X147529583Y-129644285D02*
X147529583Y-128467757D01*
%TO.C,ENC1*%
X118067163Y-83728008D02*
X118459339Y-83728008D01*
X118627415Y-84344285D02*
X118067163Y-84344285D01*
X118067163Y-84344285D02*
X118067163Y-83167757D01*
X118067163Y-83167757D02*
X118627415Y-83167757D01*
X119131641Y-84344285D02*
X119131641Y-83167757D01*
X119131641Y-83167757D02*
X119803943Y-84344285D01*
X119803943Y-84344285D02*
X119803943Y-83167757D01*
X121036496Y-84232234D02*
X120980471Y-84288260D01*
X120980471Y-84288260D02*
X120812395Y-84344285D01*
X120812395Y-84344285D02*
X120700345Y-84344285D01*
X120700345Y-84344285D02*
X120532270Y-84288260D01*
X120532270Y-84288260D02*
X120420219Y-84176209D01*
X120420219Y-84176209D02*
X120364194Y-84064159D01*
X120364194Y-84064159D02*
X120308169Y-83840058D01*
X120308169Y-83840058D02*
X120308169Y-83671983D01*
X120308169Y-83671983D02*
X120364194Y-83447882D01*
X120364194Y-83447882D02*
X120420219Y-83335832D01*
X120420219Y-83335832D02*
X120532270Y-83223782D01*
X120532270Y-83223782D02*
X120700345Y-83167757D01*
X120700345Y-83167757D02*
X120812395Y-83167757D01*
X120812395Y-83167757D02*
X120980471Y-83223782D01*
X120980471Y-83223782D02*
X121036496Y-83279807D01*
X122156999Y-84344285D02*
X121484697Y-84344285D01*
X121820848Y-84344285D02*
X121820848Y-83167757D01*
X121820848Y-83167757D02*
X121708798Y-83335832D01*
X121708798Y-83335832D02*
X121596747Y-83447882D01*
X121596747Y-83447882D02*
X121484697Y-83503908D01*
%TO.C,ENC2*%
X118086063Y-74928008D02*
X118478239Y-74928008D01*
X118646315Y-75544285D02*
X118086063Y-75544285D01*
X118086063Y-75544285D02*
X118086063Y-74367757D01*
X118086063Y-74367757D02*
X118646315Y-74367757D01*
X119150541Y-75544285D02*
X119150541Y-74367757D01*
X119150541Y-74367757D02*
X119822843Y-75544285D01*
X119822843Y-75544285D02*
X119822843Y-74367757D01*
X121055396Y-75432234D02*
X120999371Y-75488260D01*
X120999371Y-75488260D02*
X120831295Y-75544285D01*
X120831295Y-75544285D02*
X120719245Y-75544285D01*
X120719245Y-75544285D02*
X120551170Y-75488260D01*
X120551170Y-75488260D02*
X120439119Y-75376209D01*
X120439119Y-75376209D02*
X120383094Y-75264159D01*
X120383094Y-75264159D02*
X120327069Y-75040058D01*
X120327069Y-75040058D02*
X120327069Y-74871983D01*
X120327069Y-74871983D02*
X120383094Y-74647882D01*
X120383094Y-74647882D02*
X120439119Y-74535832D01*
X120439119Y-74535832D02*
X120551170Y-74423782D01*
X120551170Y-74423782D02*
X120719245Y-74367757D01*
X120719245Y-74367757D02*
X120831295Y-74367757D01*
X120831295Y-74367757D02*
X120999371Y-74423782D01*
X120999371Y-74423782D02*
X121055396Y-74479807D01*
X121503597Y-74479807D02*
X121559622Y-74423782D01*
X121559622Y-74423782D02*
X121671673Y-74367757D01*
X121671673Y-74367757D02*
X121951798Y-74367757D01*
X121951798Y-74367757D02*
X122063849Y-74423782D01*
X122063849Y-74423782D02*
X122119874Y-74479807D01*
X122119874Y-74479807D02*
X122175899Y-74591857D01*
X122175899Y-74591857D02*
X122175899Y-74703908D01*
X122175899Y-74703908D02*
X122119874Y-74871983D01*
X122119874Y-74871983D02*
X121447572Y-75544285D01*
X121447572Y-75544285D02*
X122175899Y-75544285D01*
%TO.C,ENC3*%
X135067163Y-74928008D02*
X135459339Y-74928008D01*
X135627415Y-75544285D02*
X135067163Y-75544285D01*
X135067163Y-75544285D02*
X135067163Y-74367757D01*
X135067163Y-74367757D02*
X135627415Y-74367757D01*
X136131641Y-75544285D02*
X136131641Y-74367757D01*
X136131641Y-74367757D02*
X136803943Y-75544285D01*
X136803943Y-75544285D02*
X136803943Y-74367757D01*
X138036496Y-75432234D02*
X137980471Y-75488260D01*
X137980471Y-75488260D02*
X137812395Y-75544285D01*
X137812395Y-75544285D02*
X137700345Y-75544285D01*
X137700345Y-75544285D02*
X137532270Y-75488260D01*
X137532270Y-75488260D02*
X137420219Y-75376209D01*
X137420219Y-75376209D02*
X137364194Y-75264159D01*
X137364194Y-75264159D02*
X137308169Y-75040058D01*
X137308169Y-75040058D02*
X137308169Y-74871983D01*
X137308169Y-74871983D02*
X137364194Y-74647882D01*
X137364194Y-74647882D02*
X137420219Y-74535832D01*
X137420219Y-74535832D02*
X137532270Y-74423782D01*
X137532270Y-74423782D02*
X137700345Y-74367757D01*
X137700345Y-74367757D02*
X137812395Y-74367757D01*
X137812395Y-74367757D02*
X137980471Y-74423782D01*
X137980471Y-74423782D02*
X138036496Y-74479807D01*
X138428672Y-74367757D02*
X139156999Y-74367757D01*
X139156999Y-74367757D02*
X138764823Y-74815958D01*
X138764823Y-74815958D02*
X138932898Y-74815958D01*
X138932898Y-74815958D02*
X139044949Y-74871983D01*
X139044949Y-74871983D02*
X139100974Y-74928008D01*
X139100974Y-74928008D02*
X139156999Y-75040058D01*
X139156999Y-75040058D02*
X139156999Y-75320184D01*
X139156999Y-75320184D02*
X139100974Y-75432234D01*
X139100974Y-75432234D02*
X139044949Y-75488260D01*
X139044949Y-75488260D02*
X138932898Y-75544285D01*
X138932898Y-75544285D02*
X138596747Y-75544285D01*
X138596747Y-75544285D02*
X138484697Y-75488260D01*
X138484697Y-75488260D02*
X138428672Y-75432234D01*
D17*
%TO.C,BOOT*%
X153429282Y-92108000D02*
X153484316Y-91942900D01*
X153484316Y-91942900D02*
X153539349Y-91887866D01*
X153539349Y-91887866D02*
X153649416Y-91832833D01*
X153649416Y-91832833D02*
X153814516Y-91832833D01*
X153814516Y-91832833D02*
X153924582Y-91887866D01*
X153924582Y-91887866D02*
X153979616Y-91942900D01*
X153979616Y-91942900D02*
X154034649Y-92052966D01*
X154034649Y-92052966D02*
X154034649Y-92493233D01*
X154034649Y-92493233D02*
X152878949Y-92493233D01*
X152878949Y-92493233D02*
X152878949Y-92108000D01*
X152878949Y-92108000D02*
X152933982Y-91997933D01*
X152933982Y-91997933D02*
X152989016Y-91942900D01*
X152989016Y-91942900D02*
X153099082Y-91887866D01*
X153099082Y-91887866D02*
X153209149Y-91887866D01*
X153209149Y-91887866D02*
X153319216Y-91942900D01*
X153319216Y-91942900D02*
X153374249Y-91997933D01*
X153374249Y-91997933D02*
X153429282Y-92108000D01*
X153429282Y-92108000D02*
X153429282Y-92493233D01*
X152878949Y-91117400D02*
X152878949Y-90897266D01*
X152878949Y-90897266D02*
X152933982Y-90787200D01*
X152933982Y-90787200D02*
X153044049Y-90677133D01*
X153044049Y-90677133D02*
X153264182Y-90622100D01*
X153264182Y-90622100D02*
X153649416Y-90622100D01*
X153649416Y-90622100D02*
X153869549Y-90677133D01*
X153869549Y-90677133D02*
X153979616Y-90787200D01*
X153979616Y-90787200D02*
X154034649Y-90897266D01*
X154034649Y-90897266D02*
X154034649Y-91117400D01*
X154034649Y-91117400D02*
X153979616Y-91227466D01*
X153979616Y-91227466D02*
X153869549Y-91337533D01*
X153869549Y-91337533D02*
X153649416Y-91392566D01*
X153649416Y-91392566D02*
X153264182Y-91392566D01*
X153264182Y-91392566D02*
X153044049Y-91337533D01*
X153044049Y-91337533D02*
X152933982Y-91227466D01*
X152933982Y-91227466D02*
X152878949Y-91117400D01*
X152878949Y-89906667D02*
X152878949Y-89686533D01*
X152878949Y-89686533D02*
X152933982Y-89576467D01*
X152933982Y-89576467D02*
X153044049Y-89466400D01*
X153044049Y-89466400D02*
X153264182Y-89411367D01*
X153264182Y-89411367D02*
X153649416Y-89411367D01*
X153649416Y-89411367D02*
X153869549Y-89466400D01*
X153869549Y-89466400D02*
X153979616Y-89576467D01*
X153979616Y-89576467D02*
X154034649Y-89686533D01*
X154034649Y-89686533D02*
X154034649Y-89906667D01*
X154034649Y-89906667D02*
X153979616Y-90016733D01*
X153979616Y-90016733D02*
X153869549Y-90126800D01*
X153869549Y-90126800D02*
X153649416Y-90181833D01*
X153649416Y-90181833D02*
X153264182Y-90181833D01*
X153264182Y-90181833D02*
X153044049Y-90126800D01*
X153044049Y-90126800D02*
X152933982Y-90016733D01*
X152933982Y-90016733D02*
X152878949Y-89906667D01*
X152878949Y-89081167D02*
X152878949Y-88420767D01*
X154034649Y-88750967D02*
X152878949Y-88750967D01*
%TO.C,ST-LINK*%
X145779616Y-92979866D02*
X145834649Y-92814766D01*
X145834649Y-92814766D02*
X145834649Y-92539600D01*
X145834649Y-92539600D02*
X145779616Y-92429533D01*
X145779616Y-92429533D02*
X145724582Y-92374500D01*
X145724582Y-92374500D02*
X145614516Y-92319466D01*
X145614516Y-92319466D02*
X145504449Y-92319466D01*
X145504449Y-92319466D02*
X145394382Y-92374500D01*
X145394382Y-92374500D02*
X145339349Y-92429533D01*
X145339349Y-92429533D02*
X145284316Y-92539600D01*
X145284316Y-92539600D02*
X145229282Y-92759733D01*
X145229282Y-92759733D02*
X145174249Y-92869800D01*
X145174249Y-92869800D02*
X145119216Y-92924833D01*
X145119216Y-92924833D02*
X145009149Y-92979866D01*
X145009149Y-92979866D02*
X144899082Y-92979866D01*
X144899082Y-92979866D02*
X144789016Y-92924833D01*
X144789016Y-92924833D02*
X144733982Y-92869800D01*
X144733982Y-92869800D02*
X144678949Y-92759733D01*
X144678949Y-92759733D02*
X144678949Y-92484566D01*
X144678949Y-92484566D02*
X144733982Y-92319466D01*
X144678949Y-91989266D02*
X144678949Y-91328866D01*
X145834649Y-91659066D02*
X144678949Y-91659066D01*
X145394382Y-90943633D02*
X145394382Y-90063100D01*
X145834649Y-88962433D02*
X145834649Y-89512766D01*
X145834649Y-89512766D02*
X144678949Y-89512766D01*
X145834649Y-88577199D02*
X144678949Y-88577199D01*
X145834649Y-88026866D02*
X144678949Y-88026866D01*
X144678949Y-88026866D02*
X145834649Y-87366466D01*
X145834649Y-87366466D02*
X144678949Y-87366466D01*
X145834649Y-86816133D02*
X144678949Y-86816133D01*
X145834649Y-86155733D02*
X145174249Y-86651033D01*
X144678949Y-86155733D02*
X145339349Y-86816133D01*
D18*
%TO.C,ML1*%
X180656487Y-79848508D02*
X180656487Y-78230528D01*
X180656487Y-78230528D02*
X181195814Y-79386228D01*
X181195814Y-79386228D02*
X181735140Y-78230528D01*
X181735140Y-78230528D02*
X181735140Y-79848508D01*
X183276074Y-79848508D02*
X182505607Y-79848508D01*
X182505607Y-79848508D02*
X182505607Y-78230528D01*
X184662913Y-79848508D02*
X183738353Y-79848508D01*
X184200633Y-79848508D02*
X184200633Y-78230528D01*
X184200633Y-78230528D02*
X184046540Y-78461668D01*
X184046540Y-78461668D02*
X183892447Y-78615762D01*
X183892447Y-78615762D02*
X183738353Y-78692808D01*
D19*
X182648814Y-72194575D02*
X182703242Y-72140147D01*
X182703242Y-72140147D02*
X182812100Y-72085718D01*
X182812100Y-72085718D02*
X183084242Y-72085718D01*
X183084242Y-72085718D02*
X183193100Y-72140147D01*
X183193100Y-72140147D02*
X183247528Y-72194575D01*
X183247528Y-72194575D02*
X183301957Y-72303432D01*
X183301957Y-72303432D02*
X183301957Y-72412290D01*
X183301957Y-72412290D02*
X183247528Y-72575575D01*
X183247528Y-72575575D02*
X182594385Y-73228718D01*
X182594385Y-73228718D02*
X183301957Y-73228718D01*
X183301957Y-70688718D02*
X182648814Y-70688718D01*
X182975385Y-70688718D02*
X182975385Y-69545718D01*
X182975385Y-69545718D02*
X182866528Y-69709004D01*
X182866528Y-69709004D02*
X182757671Y-69817861D01*
X182757671Y-69817861D02*
X182648814Y-69872290D01*
X176697957Y-68529718D02*
X176044814Y-68529718D01*
X176371385Y-68529718D02*
X176371385Y-67386718D01*
X176371385Y-67386718D02*
X176262528Y-67550004D01*
X176262528Y-67550004D02*
X176153671Y-67658861D01*
X176153671Y-67658861D02*
X176044814Y-67713290D01*
X177405528Y-67386718D02*
X177514385Y-67386718D01*
X177514385Y-67386718D02*
X177623242Y-67441147D01*
X177623242Y-67441147D02*
X177677671Y-67495575D01*
X177677671Y-67495575D02*
X177732099Y-67604432D01*
X177732099Y-67604432D02*
X177786528Y-67822147D01*
X177786528Y-67822147D02*
X177786528Y-68094290D01*
X177786528Y-68094290D02*
X177732099Y-68312004D01*
X177732099Y-68312004D02*
X177677671Y-68420861D01*
X177677671Y-68420861D02*
X177623242Y-68475290D01*
X177623242Y-68475290D02*
X177514385Y-68529718D01*
X177514385Y-68529718D02*
X177405528Y-68529718D01*
X177405528Y-68529718D02*
X177296671Y-68475290D01*
X177296671Y-68475290D02*
X177242242Y-68420861D01*
X177242242Y-68420861D02*
X177187813Y-68312004D01*
X177187813Y-68312004D02*
X177133385Y-68094290D01*
X177133385Y-68094290D02*
X177133385Y-67822147D01*
X177133385Y-67822147D02*
X177187813Y-67604432D01*
X177187813Y-67604432D02*
X177242242Y-67495575D01*
X177242242Y-67495575D02*
X177296671Y-67441147D01*
X177296671Y-67441147D02*
X177405528Y-67386718D01*
D18*
%TO.C,ML2*%
X159085387Y-79648508D02*
X159085387Y-78030528D01*
X159085387Y-78030528D02*
X159624714Y-79186228D01*
X159624714Y-79186228D02*
X160164040Y-78030528D01*
X160164040Y-78030528D02*
X160164040Y-79648508D01*
X161704974Y-79648508D02*
X160934507Y-79648508D01*
X160934507Y-79648508D02*
X160934507Y-78030528D01*
X162167253Y-78184622D02*
X162244300Y-78107575D01*
X162244300Y-78107575D02*
X162398393Y-78030528D01*
X162398393Y-78030528D02*
X162783627Y-78030528D01*
X162783627Y-78030528D02*
X162937720Y-78107575D01*
X162937720Y-78107575D02*
X163014767Y-78184622D01*
X163014767Y-78184622D02*
X163091813Y-78338715D01*
X163091813Y-78338715D02*
X163091813Y-78492808D01*
X163091813Y-78492808D02*
X163014767Y-78723948D01*
X163014767Y-78723948D02*
X162090207Y-79648508D01*
X162090207Y-79648508D02*
X163091813Y-79648508D01*
D19*
X161068814Y-72084575D02*
X161123242Y-72030147D01*
X161123242Y-72030147D02*
X161232100Y-71975718D01*
X161232100Y-71975718D02*
X161504242Y-71975718D01*
X161504242Y-71975718D02*
X161613100Y-72030147D01*
X161613100Y-72030147D02*
X161667528Y-72084575D01*
X161667528Y-72084575D02*
X161721957Y-72193432D01*
X161721957Y-72193432D02*
X161721957Y-72302290D01*
X161721957Y-72302290D02*
X161667528Y-72465575D01*
X161667528Y-72465575D02*
X161014385Y-73118718D01*
X161014385Y-73118718D02*
X161721957Y-73118718D01*
X161721957Y-70578718D02*
X161068814Y-70578718D01*
X161395385Y-70578718D02*
X161395385Y-69435718D01*
X161395385Y-69435718D02*
X161286528Y-69599004D01*
X161286528Y-69599004D02*
X161177671Y-69707861D01*
X161177671Y-69707861D02*
X161068814Y-69762290D01*
X155117957Y-68419718D02*
X154464814Y-68419718D01*
X154791385Y-68419718D02*
X154791385Y-67276718D01*
X154791385Y-67276718D02*
X154682528Y-67440004D01*
X154682528Y-67440004D02*
X154573671Y-67548861D01*
X154573671Y-67548861D02*
X154464814Y-67603290D01*
X155825528Y-67276718D02*
X155934385Y-67276718D01*
X155934385Y-67276718D02*
X156043242Y-67331147D01*
X156043242Y-67331147D02*
X156097671Y-67385575D01*
X156097671Y-67385575D02*
X156152099Y-67494432D01*
X156152099Y-67494432D02*
X156206528Y-67712147D01*
X156206528Y-67712147D02*
X156206528Y-67984290D01*
X156206528Y-67984290D02*
X156152099Y-68202004D01*
X156152099Y-68202004D02*
X156097671Y-68310861D01*
X156097671Y-68310861D02*
X156043242Y-68365290D01*
X156043242Y-68365290D02*
X155934385Y-68419718D01*
X155934385Y-68419718D02*
X155825528Y-68419718D01*
X155825528Y-68419718D02*
X155716671Y-68365290D01*
X155716671Y-68365290D02*
X155662242Y-68310861D01*
X155662242Y-68310861D02*
X155607813Y-68202004D01*
X155607813Y-68202004D02*
X155553385Y-67984290D01*
X155553385Y-67984290D02*
X155553385Y-67712147D01*
X155553385Y-67712147D02*
X155607813Y-67494432D01*
X155607813Y-67494432D02*
X155662242Y-67385575D01*
X155662242Y-67385575D02*
X155716671Y-67331147D01*
X155716671Y-67331147D02*
X155825528Y-67276718D01*
D15*
%TO.C,R1*%
X139803527Y-124544285D02*
X139411351Y-123984033D01*
X139131225Y-124544285D02*
X139131225Y-123367757D01*
X139131225Y-123367757D02*
X139579426Y-123367757D01*
X139579426Y-123367757D02*
X139691477Y-123423782D01*
X139691477Y-123423782D02*
X139747502Y-123479807D01*
X139747502Y-123479807D02*
X139803527Y-123591857D01*
X139803527Y-123591857D02*
X139803527Y-123759933D01*
X139803527Y-123759933D02*
X139747502Y-123871983D01*
X139747502Y-123871983D02*
X139691477Y-123928008D01*
X139691477Y-123928008D02*
X139579426Y-123984033D01*
X139579426Y-123984033D02*
X139131225Y-123984033D01*
X140924030Y-124544285D02*
X140251728Y-124544285D01*
X140587879Y-124544285D02*
X140587879Y-123367757D01*
X140587879Y-123367757D02*
X140475829Y-123535832D01*
X140475829Y-123535832D02*
X140363778Y-123647882D01*
X140363778Y-123647882D02*
X140251728Y-123703908D01*
D14*
%TO.C,C19*%
X162388627Y-108621251D02*
X162359949Y-108649930D01*
X162359949Y-108649930D02*
X162273915Y-108678608D01*
X162273915Y-108678608D02*
X162216559Y-108678608D01*
X162216559Y-108678608D02*
X162130524Y-108649930D01*
X162130524Y-108649930D02*
X162073168Y-108592573D01*
X162073168Y-108592573D02*
X162044490Y-108535217D01*
X162044490Y-108535217D02*
X162015812Y-108420505D01*
X162015812Y-108420505D02*
X162015812Y-108334470D01*
X162015812Y-108334470D02*
X162044490Y-108219758D01*
X162044490Y-108219758D02*
X162073168Y-108162402D01*
X162073168Y-108162402D02*
X162130524Y-108105046D01*
X162130524Y-108105046D02*
X162216559Y-108076368D01*
X162216559Y-108076368D02*
X162273915Y-108076368D01*
X162273915Y-108076368D02*
X162359949Y-108105046D01*
X162359949Y-108105046D02*
X162388627Y-108133724D01*
X162962189Y-108678608D02*
X162618052Y-108678608D01*
X162790120Y-108678608D02*
X162790120Y-108076368D01*
X162790120Y-108076368D02*
X162732764Y-108162402D01*
X162732764Y-108162402D02*
X162675408Y-108219758D01*
X162675408Y-108219758D02*
X162618052Y-108248436D01*
X163248970Y-108678608D02*
X163363682Y-108678608D01*
X163363682Y-108678608D02*
X163421039Y-108649930D01*
X163421039Y-108649930D02*
X163449717Y-108621251D01*
X163449717Y-108621251D02*
X163507073Y-108535217D01*
X163507073Y-108535217D02*
X163535751Y-108420505D01*
X163535751Y-108420505D02*
X163535751Y-108191080D01*
X163535751Y-108191080D02*
X163507073Y-108133724D01*
X163507073Y-108133724D02*
X163478395Y-108105046D01*
X163478395Y-108105046D02*
X163421039Y-108076368D01*
X163421039Y-108076368D02*
X163306326Y-108076368D01*
X163306326Y-108076368D02*
X163248970Y-108105046D01*
X163248970Y-108105046D02*
X163220292Y-108133724D01*
X163220292Y-108133724D02*
X163191614Y-108191080D01*
X163191614Y-108191080D02*
X163191614Y-108334470D01*
X163191614Y-108334470D02*
X163220292Y-108391827D01*
X163220292Y-108391827D02*
X163248970Y-108420505D01*
X163248970Y-108420505D02*
X163306326Y-108449183D01*
X163306326Y-108449183D02*
X163421039Y-108449183D01*
X163421039Y-108449183D02*
X163478395Y-108420505D01*
X163478395Y-108420505D02*
X163507073Y-108391827D01*
X163507073Y-108391827D02*
X163535751Y-108334470D01*
%TO.C,C20*%
X162387527Y-110721251D02*
X162358849Y-110749930D01*
X162358849Y-110749930D02*
X162272815Y-110778608D01*
X162272815Y-110778608D02*
X162215459Y-110778608D01*
X162215459Y-110778608D02*
X162129424Y-110749930D01*
X162129424Y-110749930D02*
X162072068Y-110692573D01*
X162072068Y-110692573D02*
X162043390Y-110635217D01*
X162043390Y-110635217D02*
X162014712Y-110520505D01*
X162014712Y-110520505D02*
X162014712Y-110434470D01*
X162014712Y-110434470D02*
X162043390Y-110319758D01*
X162043390Y-110319758D02*
X162072068Y-110262402D01*
X162072068Y-110262402D02*
X162129424Y-110205046D01*
X162129424Y-110205046D02*
X162215459Y-110176368D01*
X162215459Y-110176368D02*
X162272815Y-110176368D01*
X162272815Y-110176368D02*
X162358849Y-110205046D01*
X162358849Y-110205046D02*
X162387527Y-110233724D01*
X162616952Y-110233724D02*
X162645630Y-110205046D01*
X162645630Y-110205046D02*
X162702986Y-110176368D01*
X162702986Y-110176368D02*
X162846377Y-110176368D01*
X162846377Y-110176368D02*
X162903733Y-110205046D01*
X162903733Y-110205046D02*
X162932411Y-110233724D01*
X162932411Y-110233724D02*
X162961089Y-110291080D01*
X162961089Y-110291080D02*
X162961089Y-110348436D01*
X162961089Y-110348436D02*
X162932411Y-110434470D01*
X162932411Y-110434470D02*
X162588274Y-110778608D01*
X162588274Y-110778608D02*
X162961089Y-110778608D01*
X163333904Y-110176368D02*
X163391261Y-110176368D01*
X163391261Y-110176368D02*
X163448617Y-110205046D01*
X163448617Y-110205046D02*
X163477295Y-110233724D01*
X163477295Y-110233724D02*
X163505973Y-110291080D01*
X163505973Y-110291080D02*
X163534651Y-110405792D01*
X163534651Y-110405792D02*
X163534651Y-110549183D01*
X163534651Y-110549183D02*
X163505973Y-110663895D01*
X163505973Y-110663895D02*
X163477295Y-110721251D01*
X163477295Y-110721251D02*
X163448617Y-110749930D01*
X163448617Y-110749930D02*
X163391261Y-110778608D01*
X163391261Y-110778608D02*
X163333904Y-110778608D01*
X163333904Y-110778608D02*
X163276548Y-110749930D01*
X163276548Y-110749930D02*
X163247870Y-110721251D01*
X163247870Y-110721251D02*
X163219192Y-110663895D01*
X163219192Y-110663895D02*
X163190514Y-110549183D01*
X163190514Y-110549183D02*
X163190514Y-110405792D01*
X163190514Y-110405792D02*
X163219192Y-110291080D01*
X163219192Y-110291080D02*
X163247870Y-110233724D01*
X163247870Y-110233724D02*
X163276548Y-110205046D01*
X163276548Y-110205046D02*
X163333904Y-110176368D01*
%TO.C,C21*%
X165488627Y-108621251D02*
X165459949Y-108649930D01*
X165459949Y-108649930D02*
X165373915Y-108678608D01*
X165373915Y-108678608D02*
X165316559Y-108678608D01*
X165316559Y-108678608D02*
X165230524Y-108649930D01*
X165230524Y-108649930D02*
X165173168Y-108592573D01*
X165173168Y-108592573D02*
X165144490Y-108535217D01*
X165144490Y-108535217D02*
X165115812Y-108420505D01*
X165115812Y-108420505D02*
X165115812Y-108334470D01*
X165115812Y-108334470D02*
X165144490Y-108219758D01*
X165144490Y-108219758D02*
X165173168Y-108162402D01*
X165173168Y-108162402D02*
X165230524Y-108105046D01*
X165230524Y-108105046D02*
X165316559Y-108076368D01*
X165316559Y-108076368D02*
X165373915Y-108076368D01*
X165373915Y-108076368D02*
X165459949Y-108105046D01*
X165459949Y-108105046D02*
X165488627Y-108133724D01*
X165718052Y-108133724D02*
X165746730Y-108105046D01*
X165746730Y-108105046D02*
X165804086Y-108076368D01*
X165804086Y-108076368D02*
X165947477Y-108076368D01*
X165947477Y-108076368D02*
X166004833Y-108105046D01*
X166004833Y-108105046D02*
X166033511Y-108133724D01*
X166033511Y-108133724D02*
X166062189Y-108191080D01*
X166062189Y-108191080D02*
X166062189Y-108248436D01*
X166062189Y-108248436D02*
X166033511Y-108334470D01*
X166033511Y-108334470D02*
X165689374Y-108678608D01*
X165689374Y-108678608D02*
X166062189Y-108678608D01*
X166635751Y-108678608D02*
X166291614Y-108678608D01*
X166463682Y-108678608D02*
X166463682Y-108076368D01*
X166463682Y-108076368D02*
X166406326Y-108162402D01*
X166406326Y-108162402D02*
X166348970Y-108219758D01*
X166348970Y-108219758D02*
X166291614Y-108248436D01*
%TO.C,C22*%
X165488627Y-110721251D02*
X165459949Y-110749930D01*
X165459949Y-110749930D02*
X165373915Y-110778608D01*
X165373915Y-110778608D02*
X165316559Y-110778608D01*
X165316559Y-110778608D02*
X165230524Y-110749930D01*
X165230524Y-110749930D02*
X165173168Y-110692573D01*
X165173168Y-110692573D02*
X165144490Y-110635217D01*
X165144490Y-110635217D02*
X165115812Y-110520505D01*
X165115812Y-110520505D02*
X165115812Y-110434470D01*
X165115812Y-110434470D02*
X165144490Y-110319758D01*
X165144490Y-110319758D02*
X165173168Y-110262402D01*
X165173168Y-110262402D02*
X165230524Y-110205046D01*
X165230524Y-110205046D02*
X165316559Y-110176368D01*
X165316559Y-110176368D02*
X165373915Y-110176368D01*
X165373915Y-110176368D02*
X165459949Y-110205046D01*
X165459949Y-110205046D02*
X165488627Y-110233724D01*
X165718052Y-110233724D02*
X165746730Y-110205046D01*
X165746730Y-110205046D02*
X165804086Y-110176368D01*
X165804086Y-110176368D02*
X165947477Y-110176368D01*
X165947477Y-110176368D02*
X166004833Y-110205046D01*
X166004833Y-110205046D02*
X166033511Y-110233724D01*
X166033511Y-110233724D02*
X166062189Y-110291080D01*
X166062189Y-110291080D02*
X166062189Y-110348436D01*
X166062189Y-110348436D02*
X166033511Y-110434470D01*
X166033511Y-110434470D02*
X165689374Y-110778608D01*
X165689374Y-110778608D02*
X166062189Y-110778608D01*
X166291614Y-110233724D02*
X166320292Y-110205046D01*
X166320292Y-110205046D02*
X166377648Y-110176368D01*
X166377648Y-110176368D02*
X166521039Y-110176368D01*
X166521039Y-110176368D02*
X166578395Y-110205046D01*
X166578395Y-110205046D02*
X166607073Y-110233724D01*
X166607073Y-110233724D02*
X166635751Y-110291080D01*
X166635751Y-110291080D02*
X166635751Y-110348436D01*
X166635751Y-110348436D02*
X166607073Y-110434470D01*
X166607073Y-110434470D02*
X166262936Y-110778608D01*
X166262936Y-110778608D02*
X166635751Y-110778608D01*
D16*
%TO.C,C11*%
X169563571Y-89711270D02*
X169541514Y-89733328D01*
X169541514Y-89733328D02*
X169475342Y-89755385D01*
X169475342Y-89755385D02*
X169431228Y-89755385D01*
X169431228Y-89755385D02*
X169365057Y-89733328D01*
X169365057Y-89733328D02*
X169320942Y-89689213D01*
X169320942Y-89689213D02*
X169298885Y-89645099D01*
X169298885Y-89645099D02*
X169276828Y-89556870D01*
X169276828Y-89556870D02*
X169276828Y-89490699D01*
X169276828Y-89490699D02*
X169298885Y-89402470D01*
X169298885Y-89402470D02*
X169320942Y-89358356D01*
X169320942Y-89358356D02*
X169365057Y-89314242D01*
X169365057Y-89314242D02*
X169431228Y-89292185D01*
X169431228Y-89292185D02*
X169475342Y-89292185D01*
X169475342Y-89292185D02*
X169541514Y-89314242D01*
X169541514Y-89314242D02*
X169563571Y-89336299D01*
X170004714Y-89755385D02*
X169740028Y-89755385D01*
X169872371Y-89755385D02*
X169872371Y-89292185D01*
X169872371Y-89292185D02*
X169828257Y-89358356D01*
X169828257Y-89358356D02*
X169784142Y-89402470D01*
X169784142Y-89402470D02*
X169740028Y-89424528D01*
X170445857Y-89755385D02*
X170181171Y-89755385D01*
X170313514Y-89755385D02*
X170313514Y-89292185D01*
X170313514Y-89292185D02*
X170269400Y-89358356D01*
X170269400Y-89358356D02*
X170225285Y-89402470D01*
X170225285Y-89402470D02*
X170181171Y-89424528D01*
%TO.C,C14*%
X169563571Y-92111270D02*
X169541514Y-92133328D01*
X169541514Y-92133328D02*
X169475342Y-92155385D01*
X169475342Y-92155385D02*
X169431228Y-92155385D01*
X169431228Y-92155385D02*
X169365057Y-92133328D01*
X169365057Y-92133328D02*
X169320942Y-92089213D01*
X169320942Y-92089213D02*
X169298885Y-92045099D01*
X169298885Y-92045099D02*
X169276828Y-91956870D01*
X169276828Y-91956870D02*
X169276828Y-91890699D01*
X169276828Y-91890699D02*
X169298885Y-91802470D01*
X169298885Y-91802470D02*
X169320942Y-91758356D01*
X169320942Y-91758356D02*
X169365057Y-91714242D01*
X169365057Y-91714242D02*
X169431228Y-91692185D01*
X169431228Y-91692185D02*
X169475342Y-91692185D01*
X169475342Y-91692185D02*
X169541514Y-91714242D01*
X169541514Y-91714242D02*
X169563571Y-91736299D01*
X170004714Y-92155385D02*
X169740028Y-92155385D01*
X169872371Y-92155385D02*
X169872371Y-91692185D01*
X169872371Y-91692185D02*
X169828257Y-91758356D01*
X169828257Y-91758356D02*
X169784142Y-91802470D01*
X169784142Y-91802470D02*
X169740028Y-91824528D01*
X170401743Y-91846585D02*
X170401743Y-92155385D01*
X170291457Y-91670128D02*
X170181171Y-92000985D01*
X170181171Y-92000985D02*
X170467914Y-92000985D01*
D17*
%TO.C,TWE_LEFT*%
X112578949Y-95969765D02*
X112578949Y-95309365D01*
X113734649Y-95639565D02*
X112578949Y-95639565D01*
X112578949Y-95034199D02*
X113734649Y-94759032D01*
X113734649Y-94759032D02*
X112909149Y-94538899D01*
X112909149Y-94538899D02*
X113734649Y-94318765D01*
X113734649Y-94318765D02*
X112578949Y-94043599D01*
X113129282Y-93603332D02*
X113129282Y-93218099D01*
X113734649Y-93052999D02*
X113734649Y-93603332D01*
X113734649Y-93603332D02*
X112578949Y-93603332D01*
X112578949Y-93603332D02*
X112578949Y-93052999D01*
X113844716Y-92832866D02*
X113844716Y-91952332D01*
X113734649Y-91126833D02*
X113734649Y-91677166D01*
X113734649Y-91677166D02*
X112578949Y-91677166D01*
X113129282Y-90741599D02*
X113129282Y-90356366D01*
X113734649Y-90191266D02*
X113734649Y-90741599D01*
X113734649Y-90741599D02*
X112578949Y-90741599D01*
X112578949Y-90741599D02*
X112578949Y-90191266D01*
X113129282Y-89310733D02*
X113129282Y-89695966D01*
X113734649Y-89695966D02*
X112578949Y-89695966D01*
X112578949Y-89695966D02*
X112578949Y-89145633D01*
X112578949Y-88870466D02*
X112578949Y-88210066D01*
X113734649Y-88540266D02*
X112578949Y-88540266D01*
%TO.C,TWE_RIGHT*%
X128278949Y-97070431D02*
X128278949Y-96410031D01*
X129434649Y-96740231D02*
X128278949Y-96740231D01*
X128278949Y-96134865D02*
X129434649Y-95859698D01*
X129434649Y-95859698D02*
X128609149Y-95639565D01*
X128609149Y-95639565D02*
X129434649Y-95419431D01*
X129434649Y-95419431D02*
X128278949Y-95144265D01*
X128829282Y-94703998D02*
X128829282Y-94318765D01*
X129434649Y-94153665D02*
X129434649Y-94703998D01*
X129434649Y-94703998D02*
X128278949Y-94703998D01*
X128278949Y-94703998D02*
X128278949Y-94153665D01*
X129544716Y-93933532D02*
X129544716Y-93052998D01*
X129434649Y-92117432D02*
X128884316Y-92502665D01*
X129434649Y-92777832D02*
X128278949Y-92777832D01*
X128278949Y-92777832D02*
X128278949Y-92337565D01*
X128278949Y-92337565D02*
X128333982Y-92227499D01*
X128333982Y-92227499D02*
X128389016Y-92172465D01*
X128389016Y-92172465D02*
X128499082Y-92117432D01*
X128499082Y-92117432D02*
X128664182Y-92117432D01*
X128664182Y-92117432D02*
X128774249Y-92172465D01*
X128774249Y-92172465D02*
X128829282Y-92227499D01*
X128829282Y-92227499D02*
X128884316Y-92337565D01*
X128884316Y-92337565D02*
X128884316Y-92777832D01*
X129434649Y-91622132D02*
X128278949Y-91622132D01*
X128333982Y-90466432D02*
X128278949Y-90576499D01*
X128278949Y-90576499D02*
X128278949Y-90741599D01*
X128278949Y-90741599D02*
X128333982Y-90906699D01*
X128333982Y-90906699D02*
X128444049Y-91016766D01*
X128444049Y-91016766D02*
X128554116Y-91071799D01*
X128554116Y-91071799D02*
X128774249Y-91126832D01*
X128774249Y-91126832D02*
X128939349Y-91126832D01*
X128939349Y-91126832D02*
X129159482Y-91071799D01*
X129159482Y-91071799D02*
X129269549Y-91016766D01*
X129269549Y-91016766D02*
X129379616Y-90906699D01*
X129379616Y-90906699D02*
X129434649Y-90741599D01*
X129434649Y-90741599D02*
X129434649Y-90631532D01*
X129434649Y-90631532D02*
X129379616Y-90466432D01*
X129379616Y-90466432D02*
X129324582Y-90411399D01*
X129324582Y-90411399D02*
X128939349Y-90411399D01*
X128939349Y-90411399D02*
X128939349Y-90631532D01*
X129434649Y-89916099D02*
X128278949Y-89916099D01*
X128829282Y-89916099D02*
X128829282Y-89255699D01*
X129434649Y-89255699D02*
X128278949Y-89255699D01*
X128278949Y-88870466D02*
X128278949Y-88210066D01*
X129434649Y-88540266D02*
X128278949Y-88540266D01*
D15*
%TO.C,R12*%
X117652427Y-132044285D02*
X117260251Y-131484033D01*
X116980125Y-132044285D02*
X116980125Y-130867757D01*
X116980125Y-130867757D02*
X117428326Y-130867757D01*
X117428326Y-130867757D02*
X117540377Y-130923782D01*
X117540377Y-130923782D02*
X117596402Y-130979807D01*
X117596402Y-130979807D02*
X117652427Y-131091857D01*
X117652427Y-131091857D02*
X117652427Y-131259933D01*
X117652427Y-131259933D02*
X117596402Y-131371983D01*
X117596402Y-131371983D02*
X117540377Y-131428008D01*
X117540377Y-131428008D02*
X117428326Y-131484033D01*
X117428326Y-131484033D02*
X116980125Y-131484033D01*
X118772930Y-132044285D02*
X118100628Y-132044285D01*
X118436779Y-132044285D02*
X118436779Y-130867757D01*
X118436779Y-130867757D02*
X118324729Y-131035832D01*
X118324729Y-131035832D02*
X118212678Y-131147882D01*
X118212678Y-131147882D02*
X118100628Y-131203908D01*
X119221131Y-130979807D02*
X119277156Y-130923782D01*
X119277156Y-130923782D02*
X119389207Y-130867757D01*
X119389207Y-130867757D02*
X119669332Y-130867757D01*
X119669332Y-130867757D02*
X119781383Y-130923782D01*
X119781383Y-130923782D02*
X119837408Y-130979807D01*
X119837408Y-130979807D02*
X119893433Y-131091857D01*
X119893433Y-131091857D02*
X119893433Y-131203908D01*
X119893433Y-131203908D02*
X119837408Y-131371983D01*
X119837408Y-131371983D02*
X119165106Y-132044285D01*
X119165106Y-132044285D02*
X119893433Y-132044285D01*
%TO.C,DOWN*%
X184244285Y-107419874D02*
X183067757Y-107419874D01*
X183067757Y-107419874D02*
X183067757Y-107139748D01*
X183067757Y-107139748D02*
X183123782Y-106971673D01*
X183123782Y-106971673D02*
X183235832Y-106859622D01*
X183235832Y-106859622D02*
X183347882Y-106803597D01*
X183347882Y-106803597D02*
X183571983Y-106747572D01*
X183571983Y-106747572D02*
X183740058Y-106747572D01*
X183740058Y-106747572D02*
X183964159Y-106803597D01*
X183964159Y-106803597D02*
X184076209Y-106859622D01*
X184076209Y-106859622D02*
X184188260Y-106971673D01*
X184188260Y-106971673D02*
X184244285Y-107139748D01*
X184244285Y-107139748D02*
X184244285Y-107419874D01*
X183067757Y-106019245D02*
X183067757Y-105795145D01*
X183067757Y-105795145D02*
X183123782Y-105683094D01*
X183123782Y-105683094D02*
X183235832Y-105571044D01*
X183235832Y-105571044D02*
X183459933Y-105515019D01*
X183459933Y-105515019D02*
X183852109Y-105515019D01*
X183852109Y-105515019D02*
X184076209Y-105571044D01*
X184076209Y-105571044D02*
X184188260Y-105683094D01*
X184188260Y-105683094D02*
X184244285Y-105795145D01*
X184244285Y-105795145D02*
X184244285Y-106019245D01*
X184244285Y-106019245D02*
X184188260Y-106131296D01*
X184188260Y-106131296D02*
X184076209Y-106243346D01*
X184076209Y-106243346D02*
X183852109Y-106299371D01*
X183852109Y-106299371D02*
X183459933Y-106299371D01*
X183459933Y-106299371D02*
X183235832Y-106243346D01*
X183235832Y-106243346D02*
X183123782Y-106131296D01*
X183123782Y-106131296D02*
X183067757Y-106019245D01*
X183067757Y-105122843D02*
X184244285Y-104842717D01*
X184244285Y-104842717D02*
X183403908Y-104618617D01*
X183403908Y-104618617D02*
X184244285Y-104394516D01*
X184244285Y-104394516D02*
X183067757Y-104114391D01*
X184244285Y-103666190D02*
X183067757Y-103666190D01*
X183067757Y-103666190D02*
X184244285Y-102993888D01*
X184244285Y-102993888D02*
X183067757Y-102993888D01*
%TO.C,R11*%
X180444285Y-103547572D02*
X179884033Y-103939748D01*
X180444285Y-104219874D02*
X179267757Y-104219874D01*
X179267757Y-104219874D02*
X179267757Y-103771673D01*
X179267757Y-103771673D02*
X179323782Y-103659622D01*
X179323782Y-103659622D02*
X179379807Y-103603597D01*
X179379807Y-103603597D02*
X179491857Y-103547572D01*
X179491857Y-103547572D02*
X179659933Y-103547572D01*
X179659933Y-103547572D02*
X179771983Y-103603597D01*
X179771983Y-103603597D02*
X179828008Y-103659622D01*
X179828008Y-103659622D02*
X179884033Y-103771673D01*
X179884033Y-103771673D02*
X179884033Y-104219874D01*
X180444285Y-102427069D02*
X180444285Y-103099371D01*
X180444285Y-102763220D02*
X179267757Y-102763220D01*
X179267757Y-102763220D02*
X179435832Y-102875270D01*
X179435832Y-102875270D02*
X179547882Y-102987321D01*
X179547882Y-102987321D02*
X179603908Y-103099371D01*
X180444285Y-101306566D02*
X180444285Y-101978868D01*
X180444285Y-101642717D02*
X179267757Y-101642717D01*
X179267757Y-101642717D02*
X179435832Y-101754767D01*
X179435832Y-101754767D02*
X179547882Y-101866818D01*
X179547882Y-101866818D02*
X179603908Y-101978868D01*
%TO.C,UP*%
X183167757Y-97619874D02*
X184120184Y-97619874D01*
X184120184Y-97619874D02*
X184232234Y-97563849D01*
X184232234Y-97563849D02*
X184288260Y-97507824D01*
X184288260Y-97507824D02*
X184344285Y-97395773D01*
X184344285Y-97395773D02*
X184344285Y-97171673D01*
X184344285Y-97171673D02*
X184288260Y-97059622D01*
X184288260Y-97059622D02*
X184232234Y-97003597D01*
X184232234Y-97003597D02*
X184120184Y-96947572D01*
X184120184Y-96947572D02*
X183167757Y-96947572D01*
X184344285Y-96387321D02*
X183167757Y-96387321D01*
X183167757Y-96387321D02*
X183167757Y-95939120D01*
X183167757Y-95939120D02*
X183223782Y-95827069D01*
X183223782Y-95827069D02*
X183279807Y-95771044D01*
X183279807Y-95771044D02*
X183391857Y-95715019D01*
X183391857Y-95715019D02*
X183559933Y-95715019D01*
X183559933Y-95715019D02*
X183671983Y-95771044D01*
X183671983Y-95771044D02*
X183728008Y-95827069D01*
X183728008Y-95827069D02*
X183784033Y-95939120D01*
X183784033Y-95939120D02*
X183784033Y-96387321D01*
%TO.C,R10*%
X180344285Y-97447572D02*
X179784033Y-97839748D01*
X180344285Y-98119874D02*
X179167757Y-98119874D01*
X179167757Y-98119874D02*
X179167757Y-97671673D01*
X179167757Y-97671673D02*
X179223782Y-97559622D01*
X179223782Y-97559622D02*
X179279807Y-97503597D01*
X179279807Y-97503597D02*
X179391857Y-97447572D01*
X179391857Y-97447572D02*
X179559933Y-97447572D01*
X179559933Y-97447572D02*
X179671983Y-97503597D01*
X179671983Y-97503597D02*
X179728008Y-97559622D01*
X179728008Y-97559622D02*
X179784033Y-97671673D01*
X179784033Y-97671673D02*
X179784033Y-98119874D01*
X180344285Y-96327069D02*
X180344285Y-96999371D01*
X180344285Y-96663220D02*
X179167757Y-96663220D01*
X179167757Y-96663220D02*
X179335832Y-96775270D01*
X179335832Y-96775270D02*
X179447882Y-96887321D01*
X179447882Y-96887321D02*
X179503908Y-96999371D01*
X179167757Y-95598742D02*
X179167757Y-95486692D01*
X179167757Y-95486692D02*
X179223782Y-95374642D01*
X179223782Y-95374642D02*
X179279807Y-95318617D01*
X179279807Y-95318617D02*
X179391857Y-95262591D01*
X179391857Y-95262591D02*
X179615958Y-95206566D01*
X179615958Y-95206566D02*
X179896084Y-95206566D01*
X179896084Y-95206566D02*
X180120184Y-95262591D01*
X180120184Y-95262591D02*
X180232234Y-95318617D01*
X180232234Y-95318617D02*
X180288260Y-95374642D01*
X180288260Y-95374642D02*
X180344285Y-95486692D01*
X180344285Y-95486692D02*
X180344285Y-95598742D01*
X180344285Y-95598742D02*
X180288260Y-95710793D01*
X180288260Y-95710793D02*
X180232234Y-95766818D01*
X180232234Y-95766818D02*
X180120184Y-95822843D01*
X180120184Y-95822843D02*
X179896084Y-95878868D01*
X179896084Y-95878868D02*
X179615958Y-95878868D01*
X179615958Y-95878868D02*
X179391857Y-95822843D01*
X179391857Y-95822843D02*
X179279807Y-95766818D01*
X179279807Y-95766818D02*
X179223782Y-95710793D01*
X179223782Y-95710793D02*
X179167757Y-95598742D01*
D14*
%TO.C,C15*%
X177888627Y-108774851D02*
X177859949Y-108803530D01*
X177859949Y-108803530D02*
X177773915Y-108832208D01*
X177773915Y-108832208D02*
X177716559Y-108832208D01*
X177716559Y-108832208D02*
X177630524Y-108803530D01*
X177630524Y-108803530D02*
X177573168Y-108746173D01*
X177573168Y-108746173D02*
X177544490Y-108688817D01*
X177544490Y-108688817D02*
X177515812Y-108574105D01*
X177515812Y-108574105D02*
X177515812Y-108488070D01*
X177515812Y-108488070D02*
X177544490Y-108373358D01*
X177544490Y-108373358D02*
X177573168Y-108316002D01*
X177573168Y-108316002D02*
X177630524Y-108258646D01*
X177630524Y-108258646D02*
X177716559Y-108229968D01*
X177716559Y-108229968D02*
X177773915Y-108229968D01*
X177773915Y-108229968D02*
X177859949Y-108258646D01*
X177859949Y-108258646D02*
X177888627Y-108287324D01*
X178462189Y-108832208D02*
X178118052Y-108832208D01*
X178290120Y-108832208D02*
X178290120Y-108229968D01*
X178290120Y-108229968D02*
X178232764Y-108316002D01*
X178232764Y-108316002D02*
X178175408Y-108373358D01*
X178175408Y-108373358D02*
X178118052Y-108402036D01*
X179007073Y-108229968D02*
X178720292Y-108229968D01*
X178720292Y-108229968D02*
X178691614Y-108516749D01*
X178691614Y-108516749D02*
X178720292Y-108488070D01*
X178720292Y-108488070D02*
X178777648Y-108459392D01*
X178777648Y-108459392D02*
X178921039Y-108459392D01*
X178921039Y-108459392D02*
X178978395Y-108488070D01*
X178978395Y-108488070D02*
X179007073Y-108516749D01*
X179007073Y-108516749D02*
X179035751Y-108574105D01*
X179035751Y-108574105D02*
X179035751Y-108717495D01*
X179035751Y-108717495D02*
X179007073Y-108774851D01*
X179007073Y-108774851D02*
X178978395Y-108803530D01*
X178978395Y-108803530D02*
X178921039Y-108832208D01*
X178921039Y-108832208D02*
X178777648Y-108832208D01*
X178777648Y-108832208D02*
X178720292Y-108803530D01*
X178720292Y-108803530D02*
X178691614Y-108774851D01*
%TO.C,C16*%
X177888627Y-110874851D02*
X177859949Y-110903530D01*
X177859949Y-110903530D02*
X177773915Y-110932208D01*
X177773915Y-110932208D02*
X177716559Y-110932208D01*
X177716559Y-110932208D02*
X177630524Y-110903530D01*
X177630524Y-110903530D02*
X177573168Y-110846173D01*
X177573168Y-110846173D02*
X177544490Y-110788817D01*
X177544490Y-110788817D02*
X177515812Y-110674105D01*
X177515812Y-110674105D02*
X177515812Y-110588070D01*
X177515812Y-110588070D02*
X177544490Y-110473358D01*
X177544490Y-110473358D02*
X177573168Y-110416002D01*
X177573168Y-110416002D02*
X177630524Y-110358646D01*
X177630524Y-110358646D02*
X177716559Y-110329968D01*
X177716559Y-110329968D02*
X177773915Y-110329968D01*
X177773915Y-110329968D02*
X177859949Y-110358646D01*
X177859949Y-110358646D02*
X177888627Y-110387324D01*
X178462189Y-110932208D02*
X178118052Y-110932208D01*
X178290120Y-110932208D02*
X178290120Y-110329968D01*
X178290120Y-110329968D02*
X178232764Y-110416002D01*
X178232764Y-110416002D02*
X178175408Y-110473358D01*
X178175408Y-110473358D02*
X178118052Y-110502036D01*
X178978395Y-110329968D02*
X178863682Y-110329968D01*
X178863682Y-110329968D02*
X178806326Y-110358646D01*
X178806326Y-110358646D02*
X178777648Y-110387324D01*
X178777648Y-110387324D02*
X178720292Y-110473358D01*
X178720292Y-110473358D02*
X178691614Y-110588070D01*
X178691614Y-110588070D02*
X178691614Y-110817495D01*
X178691614Y-110817495D02*
X178720292Y-110874851D01*
X178720292Y-110874851D02*
X178748970Y-110903530D01*
X178748970Y-110903530D02*
X178806326Y-110932208D01*
X178806326Y-110932208D02*
X178921039Y-110932208D01*
X178921039Y-110932208D02*
X178978395Y-110903530D01*
X178978395Y-110903530D02*
X179007073Y-110874851D01*
X179007073Y-110874851D02*
X179035751Y-110817495D01*
X179035751Y-110817495D02*
X179035751Y-110674105D01*
X179035751Y-110674105D02*
X179007073Y-110616749D01*
X179007073Y-110616749D02*
X178978395Y-110588070D01*
X178978395Y-110588070D02*
X178921039Y-110559392D01*
X178921039Y-110559392D02*
X178806326Y-110559392D01*
X178806326Y-110559392D02*
X178748970Y-110588070D01*
X178748970Y-110588070D02*
X178720292Y-110616749D01*
X178720292Y-110616749D02*
X178691614Y-110674105D01*
%TO.C,C17*%
X180988627Y-108774851D02*
X180959949Y-108803530D01*
X180959949Y-108803530D02*
X180873915Y-108832208D01*
X180873915Y-108832208D02*
X180816559Y-108832208D01*
X180816559Y-108832208D02*
X180730524Y-108803530D01*
X180730524Y-108803530D02*
X180673168Y-108746173D01*
X180673168Y-108746173D02*
X180644490Y-108688817D01*
X180644490Y-108688817D02*
X180615812Y-108574105D01*
X180615812Y-108574105D02*
X180615812Y-108488070D01*
X180615812Y-108488070D02*
X180644490Y-108373358D01*
X180644490Y-108373358D02*
X180673168Y-108316002D01*
X180673168Y-108316002D02*
X180730524Y-108258646D01*
X180730524Y-108258646D02*
X180816559Y-108229968D01*
X180816559Y-108229968D02*
X180873915Y-108229968D01*
X180873915Y-108229968D02*
X180959949Y-108258646D01*
X180959949Y-108258646D02*
X180988627Y-108287324D01*
X181562189Y-108832208D02*
X181218052Y-108832208D01*
X181390120Y-108832208D02*
X181390120Y-108229968D01*
X181390120Y-108229968D02*
X181332764Y-108316002D01*
X181332764Y-108316002D02*
X181275408Y-108373358D01*
X181275408Y-108373358D02*
X181218052Y-108402036D01*
X181762936Y-108229968D02*
X182164429Y-108229968D01*
X182164429Y-108229968D02*
X181906326Y-108832208D01*
%TO.C,C18*%
X180988627Y-110874851D02*
X180959949Y-110903530D01*
X180959949Y-110903530D02*
X180873915Y-110932208D01*
X180873915Y-110932208D02*
X180816559Y-110932208D01*
X180816559Y-110932208D02*
X180730524Y-110903530D01*
X180730524Y-110903530D02*
X180673168Y-110846173D01*
X180673168Y-110846173D02*
X180644490Y-110788817D01*
X180644490Y-110788817D02*
X180615812Y-110674105D01*
X180615812Y-110674105D02*
X180615812Y-110588070D01*
X180615812Y-110588070D02*
X180644490Y-110473358D01*
X180644490Y-110473358D02*
X180673168Y-110416002D01*
X180673168Y-110416002D02*
X180730524Y-110358646D01*
X180730524Y-110358646D02*
X180816559Y-110329968D01*
X180816559Y-110329968D02*
X180873915Y-110329968D01*
X180873915Y-110329968D02*
X180959949Y-110358646D01*
X180959949Y-110358646D02*
X180988627Y-110387324D01*
X181562189Y-110932208D02*
X181218052Y-110932208D01*
X181390120Y-110932208D02*
X181390120Y-110329968D01*
X181390120Y-110329968D02*
X181332764Y-110416002D01*
X181332764Y-110416002D02*
X181275408Y-110473358D01*
X181275408Y-110473358D02*
X181218052Y-110502036D01*
X181906326Y-110588070D02*
X181848970Y-110559392D01*
X181848970Y-110559392D02*
X181820292Y-110530714D01*
X181820292Y-110530714D02*
X181791614Y-110473358D01*
X181791614Y-110473358D02*
X181791614Y-110444680D01*
X181791614Y-110444680D02*
X181820292Y-110387324D01*
X181820292Y-110387324D02*
X181848970Y-110358646D01*
X181848970Y-110358646D02*
X181906326Y-110329968D01*
X181906326Y-110329968D02*
X182021039Y-110329968D01*
X182021039Y-110329968D02*
X182078395Y-110358646D01*
X182078395Y-110358646D02*
X182107073Y-110387324D01*
X182107073Y-110387324D02*
X182135751Y-110444680D01*
X182135751Y-110444680D02*
X182135751Y-110473358D01*
X182135751Y-110473358D02*
X182107073Y-110530714D01*
X182107073Y-110530714D02*
X182078395Y-110559392D01*
X182078395Y-110559392D02*
X182021039Y-110588070D01*
X182021039Y-110588070D02*
X181906326Y-110588070D01*
X181906326Y-110588070D02*
X181848970Y-110616749D01*
X181848970Y-110616749D02*
X181820292Y-110645427D01*
X181820292Y-110645427D02*
X181791614Y-110702783D01*
X181791614Y-110702783D02*
X181791614Y-110817495D01*
X181791614Y-110817495D02*
X181820292Y-110874851D01*
X181820292Y-110874851D02*
X181848970Y-110903530D01*
X181848970Y-110903530D02*
X181906326Y-110932208D01*
X181906326Y-110932208D02*
X182021039Y-110932208D01*
X182021039Y-110932208D02*
X182078395Y-110903530D01*
X182078395Y-110903530D02*
X182107073Y-110874851D01*
X182107073Y-110874851D02*
X182135751Y-110817495D01*
X182135751Y-110817495D02*
X182135751Y-110702783D01*
X182135751Y-110702783D02*
X182107073Y-110645427D01*
X182107073Y-110645427D02*
X182078395Y-110616749D01*
X182078395Y-110616749D02*
X182021039Y-110588070D01*
%TO.C,C24*%
X168288627Y-110721251D02*
X168259949Y-110749930D01*
X168259949Y-110749930D02*
X168173915Y-110778608D01*
X168173915Y-110778608D02*
X168116559Y-110778608D01*
X168116559Y-110778608D02*
X168030524Y-110749930D01*
X168030524Y-110749930D02*
X167973168Y-110692573D01*
X167973168Y-110692573D02*
X167944490Y-110635217D01*
X167944490Y-110635217D02*
X167915812Y-110520505D01*
X167915812Y-110520505D02*
X167915812Y-110434470D01*
X167915812Y-110434470D02*
X167944490Y-110319758D01*
X167944490Y-110319758D02*
X167973168Y-110262402D01*
X167973168Y-110262402D02*
X168030524Y-110205046D01*
X168030524Y-110205046D02*
X168116559Y-110176368D01*
X168116559Y-110176368D02*
X168173915Y-110176368D01*
X168173915Y-110176368D02*
X168259949Y-110205046D01*
X168259949Y-110205046D02*
X168288627Y-110233724D01*
X168518052Y-110233724D02*
X168546730Y-110205046D01*
X168546730Y-110205046D02*
X168604086Y-110176368D01*
X168604086Y-110176368D02*
X168747477Y-110176368D01*
X168747477Y-110176368D02*
X168804833Y-110205046D01*
X168804833Y-110205046D02*
X168833511Y-110233724D01*
X168833511Y-110233724D02*
X168862189Y-110291080D01*
X168862189Y-110291080D02*
X168862189Y-110348436D01*
X168862189Y-110348436D02*
X168833511Y-110434470D01*
X168833511Y-110434470D02*
X168489374Y-110778608D01*
X168489374Y-110778608D02*
X168862189Y-110778608D01*
X169378395Y-110377114D02*
X169378395Y-110778608D01*
X169235004Y-110147690D02*
X169091614Y-110577861D01*
X169091614Y-110577861D02*
X169464429Y-110577861D01*
%TO.C,C23*%
X168382669Y-108618548D02*
X168354341Y-108646876D01*
X168354341Y-108646876D02*
X168269359Y-108675203D01*
X168269359Y-108675203D02*
X168212703Y-108675203D01*
X168212703Y-108675203D02*
X168127720Y-108646876D01*
X168127720Y-108646876D02*
X168071065Y-108590220D01*
X168071065Y-108590220D02*
X168042738Y-108533565D01*
X168042738Y-108533565D02*
X168014410Y-108420255D01*
X168014410Y-108420255D02*
X168014410Y-108335272D01*
X168014410Y-108335272D02*
X168042738Y-108221961D01*
X168042738Y-108221961D02*
X168071065Y-108165306D01*
X168071065Y-108165306D02*
X168127720Y-108108651D01*
X168127720Y-108108651D02*
X168212703Y-108080323D01*
X168212703Y-108080323D02*
X168269359Y-108080323D01*
X168269359Y-108080323D02*
X168354341Y-108108651D01*
X168354341Y-108108651D02*
X168382669Y-108136978D01*
X168609290Y-108136978D02*
X168637618Y-108108651D01*
X168637618Y-108108651D02*
X168694273Y-108080323D01*
X168694273Y-108080323D02*
X168835911Y-108080323D01*
X168835911Y-108080323D02*
X168892566Y-108108651D01*
X168892566Y-108108651D02*
X168920894Y-108136978D01*
X168920894Y-108136978D02*
X168949221Y-108193634D01*
X168949221Y-108193634D02*
X168949221Y-108250289D01*
X168949221Y-108250289D02*
X168920894Y-108335272D01*
X168920894Y-108335272D02*
X168580962Y-108675203D01*
X168580962Y-108675203D02*
X168949221Y-108675203D01*
X169147514Y-108080323D02*
X169515773Y-108080323D01*
X169515773Y-108080323D02*
X169317480Y-108306944D01*
X169317480Y-108306944D02*
X169402463Y-108306944D01*
X169402463Y-108306944D02*
X169459118Y-108335272D01*
X169459118Y-108335272D02*
X169487446Y-108363599D01*
X169487446Y-108363599D02*
X169515773Y-108420255D01*
X169515773Y-108420255D02*
X169515773Y-108561893D01*
X169515773Y-108561893D02*
X169487446Y-108618548D01*
X169487446Y-108618548D02*
X169459118Y-108646876D01*
X169459118Y-108646876D02*
X169402463Y-108675203D01*
X169402463Y-108675203D02*
X169232497Y-108675203D01*
X169232497Y-108675203D02*
X169175842Y-108646876D01*
X169175842Y-108646876D02*
X169147514Y-108618548D01*
D17*
%TO.C,LEFT_U*%
X181281901Y-118034649D02*
X180731567Y-118034649D01*
X180731567Y-118034649D02*
X180731567Y-116878949D01*
X181667134Y-117429282D02*
X182052368Y-117429282D01*
X182217468Y-118034649D02*
X181667134Y-118034649D01*
X181667134Y-118034649D02*
X181667134Y-116878949D01*
X181667134Y-116878949D02*
X182217468Y-116878949D01*
X183098001Y-117429282D02*
X182712767Y-117429282D01*
X182712767Y-118034649D02*
X182712767Y-116878949D01*
X182712767Y-116878949D02*
X183263101Y-116878949D01*
X183538267Y-116878949D02*
X184198667Y-116878949D01*
X183868467Y-118034649D02*
X183868467Y-116878949D01*
X184308734Y-118144716D02*
X185189267Y-118144716D01*
X185464433Y-116878949D02*
X185464433Y-117814516D01*
X185464433Y-117814516D02*
X185519467Y-117924582D01*
X185519467Y-117924582D02*
X185574500Y-117979616D01*
X185574500Y-117979616D02*
X185684567Y-118034649D01*
X185684567Y-118034649D02*
X185904700Y-118034649D01*
X185904700Y-118034649D02*
X186014767Y-117979616D01*
X186014767Y-117979616D02*
X186069800Y-117924582D01*
X186069800Y-117924582D02*
X186124833Y-117814516D01*
X186124833Y-117814516D02*
X186124833Y-116878949D01*
%TO.C,RIGHT_U*%
X180301601Y-140934649D02*
X179916368Y-140384316D01*
X179641201Y-140934649D02*
X179641201Y-139778949D01*
X179641201Y-139778949D02*
X180081468Y-139778949D01*
X180081468Y-139778949D02*
X180191535Y-139833982D01*
X180191535Y-139833982D02*
X180246568Y-139889016D01*
X180246568Y-139889016D02*
X180301601Y-139999082D01*
X180301601Y-139999082D02*
X180301601Y-140164182D01*
X180301601Y-140164182D02*
X180246568Y-140274249D01*
X180246568Y-140274249D02*
X180191535Y-140329282D01*
X180191535Y-140329282D02*
X180081468Y-140384316D01*
X180081468Y-140384316D02*
X179641201Y-140384316D01*
X180796901Y-140934649D02*
X180796901Y-139778949D01*
X181952601Y-139833982D02*
X181842534Y-139778949D01*
X181842534Y-139778949D02*
X181677434Y-139778949D01*
X181677434Y-139778949D02*
X181512334Y-139833982D01*
X181512334Y-139833982D02*
X181402268Y-139944049D01*
X181402268Y-139944049D02*
X181347234Y-140054116D01*
X181347234Y-140054116D02*
X181292201Y-140274249D01*
X181292201Y-140274249D02*
X181292201Y-140439349D01*
X181292201Y-140439349D02*
X181347234Y-140659482D01*
X181347234Y-140659482D02*
X181402268Y-140769549D01*
X181402268Y-140769549D02*
X181512334Y-140879616D01*
X181512334Y-140879616D02*
X181677434Y-140934649D01*
X181677434Y-140934649D02*
X181787501Y-140934649D01*
X181787501Y-140934649D02*
X181952601Y-140879616D01*
X181952601Y-140879616D02*
X182007634Y-140824582D01*
X182007634Y-140824582D02*
X182007634Y-140439349D01*
X182007634Y-140439349D02*
X181787501Y-140439349D01*
X182502934Y-140934649D02*
X182502934Y-139778949D01*
X182502934Y-140329282D02*
X183163334Y-140329282D01*
X183163334Y-140934649D02*
X183163334Y-139778949D01*
X183548567Y-139778949D02*
X184208967Y-139778949D01*
X183878767Y-140934649D02*
X183878767Y-139778949D01*
X184319034Y-141044716D02*
X185199567Y-141044716D01*
X185474733Y-139778949D02*
X185474733Y-140714516D01*
X185474733Y-140714516D02*
X185529767Y-140824582D01*
X185529767Y-140824582D02*
X185584800Y-140879616D01*
X185584800Y-140879616D02*
X185694867Y-140934649D01*
X185694867Y-140934649D02*
X185915000Y-140934649D01*
X185915000Y-140934649D02*
X186025067Y-140879616D01*
X186025067Y-140879616D02*
X186080100Y-140824582D01*
X186080100Y-140824582D02*
X186135133Y-140714516D01*
X186135133Y-140714516D02*
X186135133Y-139778949D01*
%TO.C,LEFT_D*%
X163536934Y-117934649D02*
X162986600Y-117934649D01*
X162986600Y-117934649D02*
X162986600Y-116778949D01*
X163922167Y-117329282D02*
X164307401Y-117329282D01*
X164472501Y-117934649D02*
X163922167Y-117934649D01*
X163922167Y-117934649D02*
X163922167Y-116778949D01*
X163922167Y-116778949D02*
X164472501Y-116778949D01*
X165353034Y-117329282D02*
X164967800Y-117329282D01*
X164967800Y-117934649D02*
X164967800Y-116778949D01*
X164967800Y-116778949D02*
X165518134Y-116778949D01*
X165793300Y-116778949D02*
X166453700Y-116778949D01*
X166123500Y-117934649D02*
X166123500Y-116778949D01*
X166563767Y-118044716D02*
X167444300Y-118044716D01*
X167719466Y-117934649D02*
X167719466Y-116778949D01*
X167719466Y-116778949D02*
X167994633Y-116778949D01*
X167994633Y-116778949D02*
X168159733Y-116833982D01*
X168159733Y-116833982D02*
X168269800Y-116944049D01*
X168269800Y-116944049D02*
X168324833Y-117054116D01*
X168324833Y-117054116D02*
X168379866Y-117274249D01*
X168379866Y-117274249D02*
X168379866Y-117439349D01*
X168379866Y-117439349D02*
X168324833Y-117659482D01*
X168324833Y-117659482D02*
X168269800Y-117769549D01*
X168269800Y-117769549D02*
X168159733Y-117879616D01*
X168159733Y-117879616D02*
X167994633Y-117934649D01*
X167994633Y-117934649D02*
X167719466Y-117934649D01*
%TO.C,RIGHT_D*%
X162564634Y-140834649D02*
X162179401Y-140284316D01*
X161904234Y-140834649D02*
X161904234Y-139678949D01*
X161904234Y-139678949D02*
X162344501Y-139678949D01*
X162344501Y-139678949D02*
X162454568Y-139733982D01*
X162454568Y-139733982D02*
X162509601Y-139789016D01*
X162509601Y-139789016D02*
X162564634Y-139899082D01*
X162564634Y-139899082D02*
X162564634Y-140064182D01*
X162564634Y-140064182D02*
X162509601Y-140174249D01*
X162509601Y-140174249D02*
X162454568Y-140229282D01*
X162454568Y-140229282D02*
X162344501Y-140284316D01*
X162344501Y-140284316D02*
X161904234Y-140284316D01*
X163059934Y-140834649D02*
X163059934Y-139678949D01*
X164215634Y-139733982D02*
X164105567Y-139678949D01*
X164105567Y-139678949D02*
X163940467Y-139678949D01*
X163940467Y-139678949D02*
X163775367Y-139733982D01*
X163775367Y-139733982D02*
X163665301Y-139844049D01*
X163665301Y-139844049D02*
X163610267Y-139954116D01*
X163610267Y-139954116D02*
X163555234Y-140174249D01*
X163555234Y-140174249D02*
X163555234Y-140339349D01*
X163555234Y-140339349D02*
X163610267Y-140559482D01*
X163610267Y-140559482D02*
X163665301Y-140669549D01*
X163665301Y-140669549D02*
X163775367Y-140779616D01*
X163775367Y-140779616D02*
X163940467Y-140834649D01*
X163940467Y-140834649D02*
X164050534Y-140834649D01*
X164050534Y-140834649D02*
X164215634Y-140779616D01*
X164215634Y-140779616D02*
X164270667Y-140724582D01*
X164270667Y-140724582D02*
X164270667Y-140339349D01*
X164270667Y-140339349D02*
X164050534Y-140339349D01*
X164765967Y-140834649D02*
X164765967Y-139678949D01*
X164765967Y-140229282D02*
X165426367Y-140229282D01*
X165426367Y-140834649D02*
X165426367Y-139678949D01*
X165811600Y-139678949D02*
X166472000Y-139678949D01*
X166141800Y-140834649D02*
X166141800Y-139678949D01*
X166582067Y-140944716D02*
X167462600Y-140944716D01*
X167737766Y-140834649D02*
X167737766Y-139678949D01*
X167737766Y-139678949D02*
X168012933Y-139678949D01*
X168012933Y-139678949D02*
X168178033Y-139733982D01*
X168178033Y-139733982D02*
X168288100Y-139844049D01*
X168288100Y-139844049D02*
X168343133Y-139954116D01*
X168343133Y-139954116D02*
X168398166Y-140174249D01*
X168398166Y-140174249D02*
X168398166Y-140339349D01*
X168398166Y-140339349D02*
X168343133Y-140559482D01*
X168343133Y-140559482D02*
X168288100Y-140669549D01*
X168288100Y-140669549D02*
X168178033Y-140779616D01*
X168178033Y-140779616D02*
X168012933Y-140834649D01*
X168012933Y-140834649D02*
X167737766Y-140834649D01*
D20*
%TO.C,AZUSA_CON1*%
X183808134Y-91475899D02*
X183808134Y-90915648D01*
X184144285Y-91587949D02*
X182967757Y-91195773D01*
X182967757Y-91195773D02*
X184144285Y-90803597D01*
X182967757Y-90523471D02*
X182967757Y-89739119D01*
X182967757Y-89739119D02*
X184144285Y-90523471D01*
X184144285Y-90523471D02*
X184144285Y-89739119D01*
X182967757Y-89290918D02*
X183920184Y-89290918D01*
X183920184Y-89290918D02*
X184032234Y-89234893D01*
X184032234Y-89234893D02*
X184088260Y-89178868D01*
X184088260Y-89178868D02*
X184144285Y-89066817D01*
X184144285Y-89066817D02*
X184144285Y-88842717D01*
X184144285Y-88842717D02*
X184088260Y-88730666D01*
X184088260Y-88730666D02*
X184032234Y-88674641D01*
X184032234Y-88674641D02*
X183920184Y-88618616D01*
X183920184Y-88618616D02*
X182967757Y-88618616D01*
X184088260Y-88114390D02*
X184144285Y-87946315D01*
X184144285Y-87946315D02*
X184144285Y-87666189D01*
X184144285Y-87666189D02*
X184088260Y-87554139D01*
X184088260Y-87554139D02*
X184032234Y-87498113D01*
X184032234Y-87498113D02*
X183920184Y-87442088D01*
X183920184Y-87442088D02*
X183808134Y-87442088D01*
X183808134Y-87442088D02*
X183696084Y-87498113D01*
X183696084Y-87498113D02*
X183640058Y-87554139D01*
X183640058Y-87554139D02*
X183584033Y-87666189D01*
X183584033Y-87666189D02*
X183528008Y-87890289D01*
X183528008Y-87890289D02*
X183471983Y-88002340D01*
X183471983Y-88002340D02*
X183415958Y-88058365D01*
X183415958Y-88058365D02*
X183303908Y-88114390D01*
X183303908Y-88114390D02*
X183191857Y-88114390D01*
X183191857Y-88114390D02*
X183079807Y-88058365D01*
X183079807Y-88058365D02*
X183023782Y-88002340D01*
X183023782Y-88002340D02*
X182967757Y-87890289D01*
X182967757Y-87890289D02*
X182967757Y-87610164D01*
X182967757Y-87610164D02*
X183023782Y-87442088D01*
X183808134Y-86993887D02*
X183808134Y-86433636D01*
X184144285Y-87105937D02*
X182967757Y-86713761D01*
X182967757Y-86713761D02*
X184144285Y-86321585D01*
X184256335Y-86209535D02*
X184256335Y-85313132D01*
X184032234Y-84360705D02*
X184088260Y-84416730D01*
X184088260Y-84416730D02*
X184144285Y-84584806D01*
X184144285Y-84584806D02*
X184144285Y-84696856D01*
X184144285Y-84696856D02*
X184088260Y-84864931D01*
X184088260Y-84864931D02*
X183976209Y-84976982D01*
X183976209Y-84976982D02*
X183864159Y-85033007D01*
X183864159Y-85033007D02*
X183640058Y-85089032D01*
X183640058Y-85089032D02*
X183471983Y-85089032D01*
X183471983Y-85089032D02*
X183247882Y-85033007D01*
X183247882Y-85033007D02*
X183135832Y-84976982D01*
X183135832Y-84976982D02*
X183023782Y-84864931D01*
X183023782Y-84864931D02*
X182967757Y-84696856D01*
X182967757Y-84696856D02*
X182967757Y-84584806D01*
X182967757Y-84584806D02*
X183023782Y-84416730D01*
X183023782Y-84416730D02*
X183079807Y-84360705D01*
X182967757Y-83632378D02*
X182967757Y-83408278D01*
X182967757Y-83408278D02*
X183023782Y-83296227D01*
X183023782Y-83296227D02*
X183135832Y-83184177D01*
X183135832Y-83184177D02*
X183359933Y-83128152D01*
X183359933Y-83128152D02*
X183752109Y-83128152D01*
X183752109Y-83128152D02*
X183976209Y-83184177D01*
X183976209Y-83184177D02*
X184088260Y-83296227D01*
X184088260Y-83296227D02*
X184144285Y-83408278D01*
X184144285Y-83408278D02*
X184144285Y-83632378D01*
X184144285Y-83632378D02*
X184088260Y-83744429D01*
X184088260Y-83744429D02*
X183976209Y-83856479D01*
X183976209Y-83856479D02*
X183752109Y-83912504D01*
X183752109Y-83912504D02*
X183359933Y-83912504D01*
X183359933Y-83912504D02*
X183135832Y-83856479D01*
X183135832Y-83856479D02*
X183023782Y-83744429D01*
X183023782Y-83744429D02*
X182967757Y-83632378D01*
X184144285Y-82623926D02*
X182967757Y-82623926D01*
X182967757Y-82623926D02*
X184144285Y-81951624D01*
X184144285Y-81951624D02*
X182967757Y-81951624D01*
X184144285Y-80775096D02*
X184144285Y-81447398D01*
X184144285Y-81111247D02*
X182967757Y-81111247D01*
X182967757Y-81111247D02*
X183135832Y-81223297D01*
X183135832Y-81223297D02*
X183247882Y-81335348D01*
X183247882Y-81335348D02*
X183303908Y-81447398D01*
%TO.C,AZUSA_CON2*%
X175508134Y-91475899D02*
X175508134Y-90915648D01*
X175844285Y-91587949D02*
X174667757Y-91195773D01*
X174667757Y-91195773D02*
X175844285Y-90803597D01*
X174667757Y-90523471D02*
X174667757Y-89739119D01*
X174667757Y-89739119D02*
X175844285Y-90523471D01*
X175844285Y-90523471D02*
X175844285Y-89739119D01*
X174667757Y-89290918D02*
X175620184Y-89290918D01*
X175620184Y-89290918D02*
X175732234Y-89234893D01*
X175732234Y-89234893D02*
X175788260Y-89178868D01*
X175788260Y-89178868D02*
X175844285Y-89066817D01*
X175844285Y-89066817D02*
X175844285Y-88842717D01*
X175844285Y-88842717D02*
X175788260Y-88730666D01*
X175788260Y-88730666D02*
X175732234Y-88674641D01*
X175732234Y-88674641D02*
X175620184Y-88618616D01*
X175620184Y-88618616D02*
X174667757Y-88618616D01*
X175788260Y-88114390D02*
X175844285Y-87946315D01*
X175844285Y-87946315D02*
X175844285Y-87666189D01*
X175844285Y-87666189D02*
X175788260Y-87554139D01*
X175788260Y-87554139D02*
X175732234Y-87498113D01*
X175732234Y-87498113D02*
X175620184Y-87442088D01*
X175620184Y-87442088D02*
X175508134Y-87442088D01*
X175508134Y-87442088D02*
X175396084Y-87498113D01*
X175396084Y-87498113D02*
X175340058Y-87554139D01*
X175340058Y-87554139D02*
X175284033Y-87666189D01*
X175284033Y-87666189D02*
X175228008Y-87890289D01*
X175228008Y-87890289D02*
X175171983Y-88002340D01*
X175171983Y-88002340D02*
X175115958Y-88058365D01*
X175115958Y-88058365D02*
X175003908Y-88114390D01*
X175003908Y-88114390D02*
X174891857Y-88114390D01*
X174891857Y-88114390D02*
X174779807Y-88058365D01*
X174779807Y-88058365D02*
X174723782Y-88002340D01*
X174723782Y-88002340D02*
X174667757Y-87890289D01*
X174667757Y-87890289D02*
X174667757Y-87610164D01*
X174667757Y-87610164D02*
X174723782Y-87442088D01*
X175508134Y-86993887D02*
X175508134Y-86433636D01*
X175844285Y-87105937D02*
X174667757Y-86713761D01*
X174667757Y-86713761D02*
X175844285Y-86321585D01*
X175956335Y-86209535D02*
X175956335Y-85313132D01*
X175732234Y-84360705D02*
X175788260Y-84416730D01*
X175788260Y-84416730D02*
X175844285Y-84584806D01*
X175844285Y-84584806D02*
X175844285Y-84696856D01*
X175844285Y-84696856D02*
X175788260Y-84864931D01*
X175788260Y-84864931D02*
X175676209Y-84976982D01*
X175676209Y-84976982D02*
X175564159Y-85033007D01*
X175564159Y-85033007D02*
X175340058Y-85089032D01*
X175340058Y-85089032D02*
X175171983Y-85089032D01*
X175171983Y-85089032D02*
X174947882Y-85033007D01*
X174947882Y-85033007D02*
X174835832Y-84976982D01*
X174835832Y-84976982D02*
X174723782Y-84864931D01*
X174723782Y-84864931D02*
X174667757Y-84696856D01*
X174667757Y-84696856D02*
X174667757Y-84584806D01*
X174667757Y-84584806D02*
X174723782Y-84416730D01*
X174723782Y-84416730D02*
X174779807Y-84360705D01*
X174667757Y-83632378D02*
X174667757Y-83408278D01*
X174667757Y-83408278D02*
X174723782Y-83296227D01*
X174723782Y-83296227D02*
X174835832Y-83184177D01*
X174835832Y-83184177D02*
X175059933Y-83128152D01*
X175059933Y-83128152D02*
X175452109Y-83128152D01*
X175452109Y-83128152D02*
X175676209Y-83184177D01*
X175676209Y-83184177D02*
X175788260Y-83296227D01*
X175788260Y-83296227D02*
X175844285Y-83408278D01*
X175844285Y-83408278D02*
X175844285Y-83632378D01*
X175844285Y-83632378D02*
X175788260Y-83744429D01*
X175788260Y-83744429D02*
X175676209Y-83856479D01*
X175676209Y-83856479D02*
X175452109Y-83912504D01*
X175452109Y-83912504D02*
X175059933Y-83912504D01*
X175059933Y-83912504D02*
X174835832Y-83856479D01*
X174835832Y-83856479D02*
X174723782Y-83744429D01*
X174723782Y-83744429D02*
X174667757Y-83632378D01*
X175844285Y-82623926D02*
X174667757Y-82623926D01*
X174667757Y-82623926D02*
X175844285Y-81951624D01*
X175844285Y-81951624D02*
X174667757Y-81951624D01*
X174779807Y-81447398D02*
X174723782Y-81391373D01*
X174723782Y-81391373D02*
X174667757Y-81279323D01*
X174667757Y-81279323D02*
X174667757Y-80999197D01*
X174667757Y-80999197D02*
X174723782Y-80887147D01*
X174723782Y-80887147D02*
X174779807Y-80831121D01*
X174779807Y-80831121D02*
X174891857Y-80775096D01*
X174891857Y-80775096D02*
X175003908Y-80775096D01*
X175003908Y-80775096D02*
X175171983Y-80831121D01*
X175171983Y-80831121D02*
X175844285Y-81503423D01*
X175844285Y-81503423D02*
X175844285Y-80775096D01*
D19*
%TO.C,AZUSA_CTRL*%
X137591100Y-135333600D02*
X137591100Y-136033600D01*
X137591100Y-135333600D02*
X139731100Y-135333600D01*
X139731100Y-136033600D02*
X139731100Y-135333600D01*
X137591100Y-136033600D02*
X139731100Y-136033600D01*
X134431100Y-135333600D02*
X134431100Y-136033600D01*
X139031100Y-134333600D02*
X139731100Y-134333600D01*
X132291100Y-134333600D02*
X132991100Y-134333600D01*
X132991100Y-132413600D02*
X139031100Y-132413600D01*
X132991100Y-132413600D02*
X132991100Y-130983600D01*
X132991100Y-134333600D02*
X132991100Y-132413600D01*
X134431100Y-135333600D02*
X132291100Y-135333600D01*
X139031100Y-132413600D02*
X139031100Y-134333600D01*
X139031100Y-130983600D02*
X139031100Y-132413600D01*
X132991100Y-130983600D02*
X139031100Y-130983600D01*
X132291100Y-134333600D02*
X132291100Y-130283600D01*
X132291100Y-136033600D02*
X132291100Y-135333600D01*
X134431100Y-136033600D02*
X132291100Y-136033600D01*
X139731100Y-130283600D02*
X139731100Y-134333600D01*
X132291100Y-130283600D02*
X139731100Y-130283600D01*
D21*
%TO.C,C13*%
X168666100Y-90668600D02*
X168666100Y-90338600D01*
X168336100Y-90338600D02*
X168336100Y-90668600D01*
X168816100Y-90668600D02*
X168816100Y-90338600D01*
X168666100Y-90668600D02*
X168816100Y-90668600D01*
X168336100Y-90668600D02*
X168666100Y-90668600D01*
X168186100Y-90668600D02*
X168336100Y-90668600D01*
X168186100Y-90338600D02*
X168186100Y-90668600D01*
X168336100Y-90338600D02*
X168186100Y-90338600D01*
X168666100Y-90338600D02*
X168336100Y-90338600D01*
X168816100Y-90338600D02*
X168666100Y-90338600D01*
%TO.C,C12*%
X168666100Y-88328600D02*
X168666100Y-87998600D01*
X168336100Y-87998600D02*
X168336100Y-88328600D01*
X168816100Y-88328600D02*
X168816100Y-87998600D01*
X168666100Y-88328600D02*
X168816100Y-88328600D01*
X168336100Y-88328600D02*
X168666100Y-88328600D01*
X168186100Y-88328600D02*
X168336100Y-88328600D01*
X168186100Y-87998600D02*
X168186100Y-88328600D01*
X168336100Y-87998600D02*
X168186100Y-87998600D01*
X168666100Y-87998600D02*
X168336100Y-87998600D01*
X168816100Y-87998600D02*
X168666100Y-87998600D01*
D19*
%TO.C,CTRL*%
X147801100Y-135333600D02*
X147801100Y-136033600D01*
X147801100Y-135333600D02*
X149941100Y-135333600D01*
X149941100Y-136033600D02*
X149941100Y-135333600D01*
X147801100Y-136033600D02*
X149941100Y-136033600D01*
X144641100Y-135333600D02*
X144641100Y-136033600D01*
X149241100Y-134333600D02*
X149941100Y-134333600D01*
X142501100Y-134333600D02*
X143201100Y-134333600D01*
X143201100Y-132413600D02*
X149241100Y-132413600D01*
X143201100Y-132413600D02*
X143201100Y-130983600D01*
X143201100Y-134333600D02*
X143201100Y-132413600D01*
X144641100Y-135333600D02*
X142501100Y-135333600D01*
X149241100Y-132413600D02*
X149241100Y-134333600D01*
X149241100Y-130983600D02*
X149241100Y-132413600D01*
X143201100Y-130983600D02*
X149241100Y-130983600D01*
X142501100Y-134333600D02*
X142501100Y-130283600D01*
X142501100Y-136033600D02*
X142501100Y-135333600D01*
X144641100Y-136033600D02*
X142501100Y-136033600D01*
X149941100Y-130283600D02*
X149941100Y-134333600D01*
X142501100Y-130283600D02*
X149941100Y-130283600D01*
%TO.C,ENC1*%
X111911100Y-77503600D02*
X111911100Y-76803600D01*
X111911100Y-77503600D02*
X109771100Y-77503600D01*
X109771100Y-76803600D02*
X109771100Y-77503600D01*
X111911100Y-76803600D02*
X109771100Y-76803600D01*
X113411100Y-77503600D02*
X113411100Y-76803600D01*
X121191100Y-77503600D02*
X121191100Y-76803600D01*
X122691100Y-77503600D02*
X122691100Y-76803600D01*
X110471100Y-78503600D02*
X109771100Y-78503600D01*
X124831100Y-78503600D02*
X124131100Y-78503600D01*
X124131100Y-80423600D02*
X110471100Y-80423600D01*
X124131100Y-80423600D02*
X124131100Y-81853600D01*
X124131100Y-78503600D02*
X124131100Y-80423600D01*
X122691100Y-77503600D02*
X124831100Y-77503600D01*
X113411100Y-77503600D02*
X121191100Y-77503600D01*
X110471100Y-80423600D02*
X110471100Y-78503600D01*
X110471100Y-81853600D02*
X110471100Y-80423600D01*
X124131100Y-81853600D02*
X110471100Y-81853600D01*
X124831100Y-78503600D02*
X124831100Y-82553600D01*
X124831100Y-76803600D02*
X124831100Y-77503600D01*
X122691100Y-76803600D02*
X124831100Y-76803600D01*
X113411100Y-76803600D02*
X121191100Y-76803600D01*
X109771100Y-82553600D02*
X109771100Y-78503600D01*
X124831100Y-82553600D02*
X109771100Y-82553600D01*
%TO.C,ENC2*%
X111911100Y-68803600D02*
X111911100Y-68103600D01*
X111911100Y-68803600D02*
X109771100Y-68803600D01*
X109771100Y-68103600D02*
X109771100Y-68803600D01*
X111911100Y-68103600D02*
X109771100Y-68103600D01*
X113411100Y-68803600D02*
X113411100Y-68103600D01*
X121191100Y-68803600D02*
X121191100Y-68103600D01*
X122691100Y-68803600D02*
X122691100Y-68103600D01*
X110471100Y-69803600D02*
X109771100Y-69803600D01*
X124831100Y-69803600D02*
X124131100Y-69803600D01*
X124131100Y-71723600D02*
X110471100Y-71723600D01*
X124131100Y-71723600D02*
X124131100Y-73153600D01*
X124131100Y-69803600D02*
X124131100Y-71723600D01*
X122691100Y-68803600D02*
X124831100Y-68803600D01*
X113411100Y-68803600D02*
X121191100Y-68803600D01*
X110471100Y-71723600D02*
X110471100Y-69803600D01*
X110471100Y-73153600D02*
X110471100Y-71723600D01*
X124131100Y-73153600D02*
X110471100Y-73153600D01*
X124831100Y-69803600D02*
X124831100Y-73853600D01*
X124831100Y-68103600D02*
X124831100Y-68803600D01*
X122691100Y-68103600D02*
X124831100Y-68103600D01*
X113411100Y-68103600D02*
X121191100Y-68103600D01*
X109771100Y-73853600D02*
X109771100Y-69803600D01*
X124831100Y-73853600D02*
X109771100Y-73853600D01*
%TO.C,ENC3*%
X128911100Y-68803600D02*
X128911100Y-68103600D01*
X128911100Y-68803600D02*
X126771100Y-68803600D01*
X126771100Y-68103600D02*
X126771100Y-68803600D01*
X128911100Y-68103600D02*
X126771100Y-68103600D01*
X130411100Y-68803600D02*
X130411100Y-68103600D01*
X138191100Y-68803600D02*
X138191100Y-68103600D01*
X139691100Y-68803600D02*
X139691100Y-68103600D01*
X127471100Y-69803600D02*
X126771100Y-69803600D01*
X141831100Y-69803600D02*
X141131100Y-69803600D01*
X141131100Y-71723600D02*
X127471100Y-71723600D01*
X141131100Y-71723600D02*
X141131100Y-73153600D01*
X141131100Y-69803600D02*
X141131100Y-71723600D01*
X139691100Y-68803600D02*
X141831100Y-68803600D01*
X130411100Y-68803600D02*
X138191100Y-68803600D01*
X127471100Y-71723600D02*
X127471100Y-69803600D01*
X127471100Y-73153600D02*
X127471100Y-71723600D01*
X141131100Y-73153600D02*
X127471100Y-73153600D01*
X141831100Y-69803600D02*
X141831100Y-73853600D01*
X141831100Y-68103600D02*
X141831100Y-68803600D01*
X139691100Y-68103600D02*
X141831100Y-68103600D01*
X130411100Y-68103600D02*
X138191100Y-68103600D01*
X126771100Y-73853600D02*
X126771100Y-69803600D01*
X141831100Y-73853600D02*
X126771100Y-73853600D01*
D22*
%TO.C,H1*%
X194251100Y-137973600D02*
G75*
G03*
X194251100Y-137973600I-1700000J0D01*
G01*
D23*
X195980100Y-137973600D02*
G75*
G03*
X195980100Y-137973600I-3429000J0D01*
G01*
D22*
%TO.C,H2*%
X106481100Y-137973600D02*
G75*
G03*
X106481100Y-137973600I-1700000J0D01*
G01*
D23*
X108210100Y-137973600D02*
G75*
G03*
X108210100Y-137973600I-3429000J0D01*
G01*
D22*
%TO.C,H3*%
X193951100Y-71823600D02*
G75*
G03*
X193951100Y-71823600I-1700000J0D01*
G01*
D23*
X195680100Y-71823600D02*
G75*
G03*
X195680100Y-71823600I-3429000J0D01*
G01*
D22*
%TO.C,H4*%
X106481100Y-72023600D02*
G75*
G03*
X106481100Y-72023600I-1700000J0D01*
G01*
D23*
X108210100Y-72023600D02*
G75*
G03*
X108210100Y-72023600I-3429000J0D01*
G01*
%TO.C,BOOT*%
X157336100Y-89865000D02*
X156701100Y-90500000D01*
X157336100Y-88595000D02*
X157336100Y-89865000D01*
X156701100Y-87960000D02*
X157336100Y-88595000D01*
X155431100Y-87960000D02*
X156701100Y-87960000D01*
X154796100Y-88595000D02*
X155431100Y-87960000D01*
X154796100Y-89865000D02*
X154796100Y-88595000D01*
X155431100Y-90500000D02*
X154796100Y-89865000D01*
X157336100Y-91135000D02*
X157336100Y-92405000D01*
X156701100Y-93040000D02*
X157336100Y-92405000D01*
X154796100Y-92405000D02*
X155431100Y-93040000D01*
X155431100Y-93040000D02*
X156701100Y-93040000D01*
X156701100Y-90500000D02*
X157336100Y-91135000D01*
X155431100Y-90500000D02*
X156701100Y-90500000D01*
X154796100Y-91135000D02*
X155431100Y-90500000D01*
X154796100Y-92405000D02*
X154796100Y-91135000D01*
%TO.C,ST-LINK*%
X149171100Y-78458600D02*
X149171100Y-79728600D01*
X148536100Y-80363600D02*
X149171100Y-79728600D01*
X146631100Y-79728600D02*
X147266100Y-80363600D01*
X148536100Y-77823600D02*
X149171100Y-78458600D01*
X147266100Y-77823600D02*
X148536100Y-77823600D01*
X146631100Y-78458600D02*
X147266100Y-77823600D01*
X146631100Y-79728600D02*
X146631100Y-78458600D01*
X149171100Y-91158600D02*
X149171100Y-92428600D01*
X148536100Y-93063600D02*
X149171100Y-92428600D01*
X146631100Y-92428600D02*
X147266100Y-93063600D01*
X147266100Y-93063600D02*
X148536100Y-93063600D01*
X149171100Y-89888600D02*
X148536100Y-90523600D01*
X149171100Y-88618600D02*
X149171100Y-89888600D01*
X148536100Y-87983600D02*
X149171100Y-88618600D01*
X147266100Y-87983600D02*
X148536100Y-87983600D01*
X146631100Y-88618600D02*
X147266100Y-87983600D01*
X146631100Y-89888600D02*
X146631100Y-88618600D01*
X147266100Y-90523600D02*
X146631100Y-89888600D01*
X148536100Y-90523600D02*
X149171100Y-91158600D01*
X147266100Y-90523600D02*
X148536100Y-90523600D01*
X146631100Y-91158600D02*
X147266100Y-90523600D01*
X146631100Y-92428600D02*
X146631100Y-91158600D01*
X149171100Y-83538600D02*
X149171100Y-84808600D01*
X148536100Y-85443600D02*
X149171100Y-84808600D01*
X146631100Y-84808600D02*
X147266100Y-85443600D01*
X149171100Y-87348600D02*
X148536100Y-87983600D01*
X149171100Y-86078600D02*
X149171100Y-87348600D01*
X148536100Y-85443600D02*
X149171100Y-86078600D01*
X147266100Y-85443600D02*
X148536100Y-85443600D01*
X146631100Y-86078600D02*
X147266100Y-85443600D01*
X146631100Y-87348600D02*
X146631100Y-86078600D01*
X147266100Y-87983600D02*
X146631100Y-87348600D01*
X149171100Y-82268600D02*
X148536100Y-82903600D01*
X149171100Y-80998600D02*
X149171100Y-82268600D01*
X148536100Y-80363600D02*
X149171100Y-80998600D01*
X147266100Y-80363600D02*
X148536100Y-80363600D01*
X146631100Y-80998600D02*
X147266100Y-80363600D01*
X146631100Y-82268600D02*
X146631100Y-80998600D01*
X147266100Y-82903600D02*
X146631100Y-82268600D01*
X148536100Y-82903600D02*
X149171100Y-83538600D01*
X147266100Y-82903600D02*
X148536100Y-82903600D01*
X146631100Y-83538600D02*
X147266100Y-82903600D01*
X146631100Y-84808600D02*
X146631100Y-83538600D01*
D19*
%TO.C,ML1*%
X180526100Y-68288600D02*
X184971100Y-68288600D01*
X180526100Y-68288600D02*
X180526100Y-68415600D01*
X179256100Y-68415600D02*
X180526100Y-68415600D01*
X179256100Y-68415600D02*
X179256100Y-68288600D01*
X176843100Y-68288600D02*
X179256100Y-68288600D01*
X170239100Y-68796600D02*
X171763100Y-68796600D01*
X170239100Y-69304600D02*
X170239100Y-68796600D01*
X171763100Y-68796600D02*
X172271100Y-68796600D01*
X171763100Y-69304600D02*
X171763100Y-68796600D01*
X176843100Y-69304600D02*
X176843100Y-68288600D01*
D24*
X183955100Y-69304600D02*
X176843100Y-69304600D01*
X183955100Y-76162600D02*
X183955100Y-69304600D01*
X165667100Y-76162600D02*
X183955100Y-76162600D01*
X165667100Y-69304600D02*
X165667100Y-76162600D01*
X170239100Y-69304600D02*
X165667100Y-69304600D01*
D19*
X172779100Y-69304600D02*
X172779100Y-68288600D01*
D24*
X171763100Y-69304600D02*
X172779100Y-69304600D01*
D19*
X169731100Y-68796600D02*
X170239100Y-68796600D01*
X169731100Y-68796600D02*
X169350100Y-68288600D01*
X172652100Y-68288600D02*
X172271100Y-68796600D01*
X170239100Y-69558600D02*
X171763100Y-69558600D01*
X170239100Y-69558600D02*
X170239100Y-69304600D01*
X171763100Y-69558600D02*
X172779100Y-69558600D01*
X171763100Y-69558600D02*
X171763100Y-69304600D01*
X172779100Y-68288600D02*
X176843100Y-68288600D01*
X172652100Y-68288600D02*
X172779100Y-68288600D01*
X182431100Y-77178600D02*
X175446100Y-77178600D01*
X182431100Y-77432600D02*
X182431100Y-77178600D01*
X183701100Y-77432600D02*
X183701100Y-77178600D01*
X182431100Y-77432600D02*
X183701100Y-77432600D01*
X175446100Y-77432600D02*
X175446100Y-77178600D01*
X174176100Y-77178600D02*
X167191100Y-77178600D01*
X174176100Y-77432600D02*
X174176100Y-77178600D01*
X174176100Y-77432600D02*
X175446100Y-77432600D01*
X165921100Y-77178600D02*
X164651100Y-77178600D01*
X167191100Y-77178600D02*
X167191100Y-77432600D01*
X165921100Y-77432600D02*
X167191100Y-77432600D01*
X165921100Y-77178600D02*
X165921100Y-77432600D01*
X172779100Y-69558600D02*
X172779100Y-69304600D01*
X172779100Y-70320600D02*
X172779100Y-69558600D01*
X176843100Y-69558600D02*
X176843100Y-69304600D01*
X176843100Y-69558600D02*
X183701100Y-69558600D01*
X176843100Y-69558600D02*
X176843100Y-70320600D01*
X172779100Y-70320600D02*
X176843100Y-70320600D01*
X165921100Y-69558600D02*
X170239100Y-69558600D01*
X184971100Y-77178600D02*
X184971100Y-68288600D01*
X164651100Y-68288600D02*
X164651100Y-77178600D01*
X164651100Y-68288600D02*
X169350100Y-68288600D01*
X184971100Y-77178600D02*
X183701100Y-77178600D01*
X183701100Y-75908600D02*
X183701100Y-69558600D01*
X165921100Y-69558600D02*
X165921100Y-75908600D01*
X183701100Y-75908600D02*
X165921100Y-75908600D01*
%TO.C,ML2*%
X158946100Y-68178600D02*
X163391100Y-68178600D01*
X158946100Y-68178600D02*
X158946100Y-68305600D01*
X157676100Y-68305600D02*
X158946100Y-68305600D01*
X157676100Y-68305600D02*
X157676100Y-68178600D01*
X155263100Y-68178600D02*
X157676100Y-68178600D01*
X148659100Y-68686600D02*
X150183100Y-68686600D01*
X148659100Y-69194600D02*
X148659100Y-68686600D01*
X150183100Y-68686600D02*
X150691100Y-68686600D01*
X150183100Y-69194600D02*
X150183100Y-68686600D01*
X155263100Y-69194600D02*
X155263100Y-68178600D01*
D24*
X162375100Y-69194600D02*
X155263100Y-69194600D01*
X162375100Y-76052600D02*
X162375100Y-69194600D01*
X144087100Y-76052600D02*
X162375100Y-76052600D01*
X144087100Y-69194600D02*
X144087100Y-76052600D01*
X148659100Y-69194600D02*
X144087100Y-69194600D01*
D19*
X151199100Y-69194600D02*
X151199100Y-68178600D01*
D24*
X150183100Y-69194600D02*
X151199100Y-69194600D01*
D19*
X148151100Y-68686600D02*
X148659100Y-68686600D01*
X148151100Y-68686600D02*
X147770100Y-68178600D01*
X151072100Y-68178600D02*
X150691100Y-68686600D01*
X148659100Y-69448600D02*
X150183100Y-69448600D01*
X148659100Y-69448600D02*
X148659100Y-69194600D01*
X150183100Y-69448600D02*
X151199100Y-69448600D01*
X150183100Y-69448600D02*
X150183100Y-69194600D01*
X151199100Y-68178600D02*
X155263100Y-68178600D01*
X151072100Y-68178600D02*
X151199100Y-68178600D01*
X160851100Y-77068600D02*
X153866100Y-77068600D01*
X160851100Y-77322600D02*
X160851100Y-77068600D01*
X162121100Y-77322600D02*
X162121100Y-77068600D01*
X160851100Y-77322600D02*
X162121100Y-77322600D01*
X153866100Y-77322600D02*
X153866100Y-77068600D01*
X152596100Y-77068600D02*
X145611100Y-77068600D01*
X152596100Y-77322600D02*
X152596100Y-77068600D01*
X152596100Y-77322600D02*
X153866100Y-77322600D01*
X144341100Y-77068600D02*
X143071100Y-77068600D01*
X145611100Y-77068600D02*
X145611100Y-77322600D01*
X144341100Y-77322600D02*
X145611100Y-77322600D01*
X144341100Y-77068600D02*
X144341100Y-77322600D01*
X151199100Y-69448600D02*
X151199100Y-69194600D01*
X151199100Y-70210600D02*
X151199100Y-69448600D01*
X155263100Y-69448600D02*
X155263100Y-69194600D01*
X155263100Y-69448600D02*
X162121100Y-69448600D01*
X155263100Y-69448600D02*
X155263100Y-70210600D01*
X151199100Y-70210600D02*
X155263100Y-70210600D01*
X144341100Y-69448600D02*
X148659100Y-69448600D01*
X163391100Y-77068600D02*
X163391100Y-68178600D01*
X143071100Y-68178600D02*
X143071100Y-77068600D01*
X143071100Y-68178600D02*
X147770100Y-68178600D01*
X163391100Y-77068600D02*
X162121100Y-77068600D01*
X162121100Y-75798600D02*
X162121100Y-69448600D01*
X144341100Y-69448600D02*
X144341100Y-75798600D01*
X162121100Y-75798600D02*
X144341100Y-75798600D01*
D25*
%TO.C,REGYURETA0*%
X160501100Y-94088600D02*
X160501100Y-86938600D01*
X164501100Y-94088600D02*
X160501100Y-94088600D01*
X164501100Y-86938600D02*
X164501100Y-94088600D01*
X160501100Y-86938600D02*
X164501100Y-86938600D01*
D19*
%TO.C,T1*%
X134651100Y-127368600D02*
X133351100Y-127368600D01*
X135151100Y-127368600D02*
X134651100Y-127368600D01*
X136451100Y-127368600D02*
X135151100Y-127368600D01*
X136101100Y-125618600D02*
X136451100Y-125618600D01*
X135601100Y-125618600D02*
X136101100Y-125618600D01*
X134201100Y-125618600D02*
X135601100Y-125618600D01*
X133701100Y-125618600D02*
X134201100Y-125618600D01*
X133351100Y-125618600D02*
X133701100Y-125618600D01*
X133351100Y-125618600D02*
X133351100Y-127368600D01*
X136451100Y-125618600D02*
X136451100Y-127368600D01*
D21*
%TO.C,U$2*%
X175281100Y-99313600D02*
G75*
G03*
X175281100Y-99313600I-1850000J0D01*
G01*
X175181100Y-99313600D02*
G75*
G03*
X175181100Y-99313600I-1750000J0D01*
G01*
D25*
X176181100Y-97313600D02*
G75*
G03*
X176181100Y-97313600I-750000J0D01*
G01*
X172181100Y-97313600D02*
G75*
G03*
X172181100Y-97313600I-750000J0D01*
G01*
X176181100Y-101313600D02*
G75*
G03*
X176181100Y-101313600I-750000J0D01*
G01*
X172181100Y-101313600D02*
G75*
G03*
X172181100Y-101313600I-750000J0D01*
G01*
D19*
X170431100Y-96313600D02*
X170431100Y-102313600D01*
X176431100Y-96313600D02*
X170431100Y-96313600D01*
X176431100Y-102313600D02*
X176431100Y-96313600D01*
X170431100Y-102313600D02*
X176431100Y-102313600D01*
D21*
%TO.C,C19*%
X163006100Y-106903600D02*
X163006100Y-107803600D01*
X162396100Y-106903600D02*
X162396100Y-107803600D01*
X161896100Y-107803600D02*
X161896100Y-106903600D01*
X162396100Y-107803600D02*
X161896100Y-107803600D01*
X163006100Y-107803600D02*
X162396100Y-107803600D01*
X163506100Y-107803600D02*
X163006100Y-107803600D01*
X163506100Y-106903600D02*
X163506100Y-107803600D01*
X163006100Y-106903600D02*
X163506100Y-106903600D01*
X162396100Y-106903600D02*
X163006100Y-106903600D01*
X161896100Y-106903600D02*
X162396100Y-106903600D01*
%TO.C,C20*%
X163006100Y-109003600D02*
X163006100Y-109903600D01*
X162396100Y-109003600D02*
X162396100Y-109903600D01*
X161896100Y-109903600D02*
X161896100Y-109003600D01*
X162396100Y-109903600D02*
X161896100Y-109903600D01*
X163006100Y-109903600D02*
X162396100Y-109903600D01*
X163506100Y-109903600D02*
X163006100Y-109903600D01*
X163506100Y-109003600D02*
X163506100Y-109903600D01*
X163006100Y-109003600D02*
X163506100Y-109003600D01*
X162396100Y-109003600D02*
X163006100Y-109003600D01*
X161896100Y-109003600D02*
X162396100Y-109003600D01*
%TO.C,C21*%
X166006100Y-106903600D02*
X166006100Y-107803600D01*
X165396100Y-106903600D02*
X165396100Y-107803600D01*
X164896100Y-107803600D02*
X164896100Y-106903600D01*
X165396100Y-107803600D02*
X164896100Y-107803600D01*
X166006100Y-107803600D02*
X165396100Y-107803600D01*
X166506100Y-107803600D02*
X166006100Y-107803600D01*
X166506100Y-106903600D02*
X166506100Y-107803600D01*
X166006100Y-106903600D02*
X166506100Y-106903600D01*
X165396100Y-106903600D02*
X166006100Y-106903600D01*
X164896100Y-106903600D02*
X165396100Y-106903600D01*
%TO.C,C22*%
X166106100Y-109003600D02*
X166106100Y-109903600D01*
X165496100Y-109003600D02*
X165496100Y-109903600D01*
X164996100Y-109903600D02*
X164996100Y-109003600D01*
X165496100Y-109903600D02*
X164996100Y-109903600D01*
X166106100Y-109903600D02*
X165496100Y-109903600D01*
X166606100Y-109903600D02*
X166106100Y-109903600D01*
X166606100Y-109003600D02*
X166606100Y-109903600D01*
X166106100Y-109003600D02*
X166606100Y-109003600D01*
X165496100Y-109003600D02*
X166106100Y-109003600D01*
X164996100Y-109003600D02*
X165496100Y-109003600D01*
%TO.C,C11*%
X168666100Y-89418600D02*
X168666100Y-89088600D01*
X168336100Y-89088600D02*
X168336100Y-89418600D01*
X168816100Y-89418600D02*
X168816100Y-89088600D01*
X168666100Y-89418600D02*
X168816100Y-89418600D01*
X168336100Y-89418600D02*
X168666100Y-89418600D01*
X168186100Y-89418600D02*
X168336100Y-89418600D01*
X168186100Y-89088600D02*
X168186100Y-89418600D01*
X168336100Y-89088600D02*
X168186100Y-89088600D01*
X168666100Y-89088600D02*
X168336100Y-89088600D01*
X168816100Y-89088600D02*
X168666100Y-89088600D01*
%TO.C,C14*%
X168666100Y-91818600D02*
X168666100Y-91488600D01*
X168336100Y-91488600D02*
X168336100Y-91818600D01*
X168816100Y-91818600D02*
X168816100Y-91488600D01*
X168666100Y-91818600D02*
X168816100Y-91818600D01*
X168336100Y-91818600D02*
X168666100Y-91818600D01*
X168186100Y-91818600D02*
X168336100Y-91818600D01*
X168186100Y-91488600D02*
X168186100Y-91818600D01*
X168336100Y-91488600D02*
X168186100Y-91488600D01*
X168666100Y-91488600D02*
X168336100Y-91488600D01*
X168816100Y-91488600D02*
X168666100Y-91488600D01*
D23*
%TO.C,TWE_LEFT*%
X109269100Y-121607600D02*
X109904100Y-120972600D01*
X109269100Y-122877600D02*
X109269100Y-121607600D01*
X109904100Y-123512600D02*
X109269100Y-122877600D01*
X111174100Y-123512600D02*
X109904100Y-123512600D01*
X111809100Y-122877600D02*
X111174100Y-123512600D01*
X111809100Y-121607600D02*
X111809100Y-122877600D01*
X111174100Y-120972600D02*
X111809100Y-121607600D01*
X109269100Y-89857600D02*
X109269100Y-88587600D01*
X109904100Y-87952600D02*
X109269100Y-88587600D01*
X111809100Y-88587600D02*
X111174100Y-87952600D01*
X111174100Y-87952600D02*
X109904100Y-87952600D01*
X109269100Y-91127600D02*
X109904100Y-90492600D01*
X109269100Y-92397600D02*
X109269100Y-91127600D01*
X109904100Y-93032600D02*
X109269100Y-92397600D01*
X111174100Y-93032600D02*
X109904100Y-93032600D01*
X111809100Y-92397600D02*
X111174100Y-93032600D01*
X111809100Y-91127600D02*
X111809100Y-92397600D01*
X111174100Y-90492600D02*
X111809100Y-91127600D01*
X109904100Y-90492600D02*
X109269100Y-89857600D01*
X111174100Y-90492600D02*
X109904100Y-90492600D01*
X111809100Y-89857600D02*
X111174100Y-90492600D01*
X111809100Y-88587600D02*
X111809100Y-89857600D01*
X109269100Y-97477600D02*
X109269100Y-96207600D01*
X109904100Y-95572600D02*
X109269100Y-96207600D01*
X111809100Y-96207600D02*
X111174100Y-95572600D01*
X109269100Y-93667600D02*
X109904100Y-93032600D01*
X109269100Y-94937600D02*
X109269100Y-93667600D01*
X109904100Y-95572600D02*
X109269100Y-94937600D01*
X111174100Y-95572600D02*
X109904100Y-95572600D01*
X111809100Y-94937600D02*
X111174100Y-95572600D01*
X111809100Y-93667600D02*
X111809100Y-94937600D01*
X111174100Y-93032600D02*
X111809100Y-93667600D01*
X109269100Y-98747600D02*
X109904100Y-98112600D01*
X109269100Y-100017600D02*
X109269100Y-98747600D01*
X109904100Y-100652600D02*
X109269100Y-100017600D01*
X111174100Y-100652600D02*
X109904100Y-100652600D01*
X111809100Y-100017600D02*
X111174100Y-100652600D01*
X111809100Y-98747600D02*
X111809100Y-100017600D01*
X111174100Y-98112600D02*
X111809100Y-98747600D01*
X109904100Y-98112600D02*
X109269100Y-97477600D01*
X111174100Y-98112600D02*
X109904100Y-98112600D01*
X111809100Y-97477600D02*
X111174100Y-98112600D01*
X111809100Y-96207600D02*
X111809100Y-97477600D01*
X109269100Y-105097600D02*
X109269100Y-103827600D01*
X109904100Y-103192600D02*
X109269100Y-103827600D01*
X111809100Y-103827600D02*
X111174100Y-103192600D01*
X109269100Y-101287600D02*
X109904100Y-100652600D01*
X109269100Y-102557600D02*
X109269100Y-101287600D01*
X109904100Y-103192600D02*
X109269100Y-102557600D01*
X111174100Y-103192600D02*
X109904100Y-103192600D01*
X111809100Y-102557600D02*
X111174100Y-103192600D01*
X111809100Y-101287600D02*
X111809100Y-102557600D01*
X111174100Y-100652600D02*
X111809100Y-101287600D01*
X109269100Y-106367600D02*
X109904100Y-105732600D01*
X109269100Y-107637600D02*
X109269100Y-106367600D01*
X109904100Y-108272600D02*
X109269100Y-107637600D01*
X111174100Y-108272600D02*
X109904100Y-108272600D01*
X111809100Y-107637600D02*
X111174100Y-108272600D01*
X111809100Y-106367600D02*
X111809100Y-107637600D01*
X111174100Y-105732600D02*
X111809100Y-106367600D01*
X109904100Y-105732600D02*
X109269100Y-105097600D01*
X111174100Y-105732600D02*
X109904100Y-105732600D01*
X111809100Y-105097600D02*
X111174100Y-105732600D01*
X111809100Y-103827600D02*
X111809100Y-105097600D01*
X109269100Y-112717600D02*
X109269100Y-111447600D01*
X109904100Y-110812600D02*
X109269100Y-111447600D01*
X111809100Y-111447600D02*
X111174100Y-110812600D01*
X109269100Y-108907600D02*
X109904100Y-108272600D01*
X109269100Y-110177600D02*
X109269100Y-108907600D01*
X109904100Y-110812600D02*
X109269100Y-110177600D01*
X111174100Y-110812600D02*
X109904100Y-110812600D01*
X111809100Y-110177600D02*
X111174100Y-110812600D01*
X111809100Y-108907600D02*
X111809100Y-110177600D01*
X111174100Y-108272600D02*
X111809100Y-108907600D01*
X109269100Y-113987600D02*
X109904100Y-113352600D01*
X109269100Y-115257600D02*
X109269100Y-113987600D01*
X109904100Y-115892600D02*
X109269100Y-115257600D01*
X111174100Y-115892600D02*
X109904100Y-115892600D01*
X111809100Y-115257600D02*
X111174100Y-115892600D01*
X111809100Y-113987600D02*
X111809100Y-115257600D01*
X111174100Y-113352600D02*
X111809100Y-113987600D01*
X109904100Y-113352600D02*
X109269100Y-112717600D01*
X111174100Y-113352600D02*
X109904100Y-113352600D01*
X111809100Y-112717600D02*
X111174100Y-113352600D01*
X111809100Y-111447600D02*
X111809100Y-112717600D01*
X109269100Y-120337600D02*
X109269100Y-119067600D01*
X109904100Y-118432600D02*
X109269100Y-119067600D01*
X111809100Y-119067600D02*
X111174100Y-118432600D01*
X109269100Y-116527600D02*
X109904100Y-115892600D01*
X109269100Y-117797600D02*
X109269100Y-116527600D01*
X109904100Y-118432600D02*
X109269100Y-117797600D01*
X111174100Y-118432600D02*
X109904100Y-118432600D01*
X111809100Y-117797600D02*
X111174100Y-118432600D01*
X111809100Y-116527600D02*
X111809100Y-117797600D01*
X111174100Y-115892600D02*
X111809100Y-116527600D01*
X109904100Y-120972600D02*
X109269100Y-120337600D01*
X111174100Y-120972600D02*
X109904100Y-120972600D01*
X111809100Y-120337600D02*
X111174100Y-120972600D01*
X111809100Y-119067600D02*
X111809100Y-120337600D01*
%TO.C,TWE_RIGHT*%
X124921100Y-121628600D02*
X125556100Y-120993600D01*
X124921100Y-122898600D02*
X124921100Y-121628600D01*
X125556100Y-123533600D02*
X124921100Y-122898600D01*
X126826100Y-123533600D02*
X125556100Y-123533600D01*
X127461100Y-122898600D02*
X126826100Y-123533600D01*
X127461100Y-121628600D02*
X127461100Y-122898600D01*
X126826100Y-120993600D02*
X127461100Y-121628600D01*
X124921100Y-89878600D02*
X124921100Y-88608600D01*
X125556100Y-87973600D02*
X124921100Y-88608600D01*
X127461100Y-88608600D02*
X126826100Y-87973600D01*
X126826100Y-87973600D02*
X125556100Y-87973600D01*
X124921100Y-91148600D02*
X125556100Y-90513600D01*
X124921100Y-92418600D02*
X124921100Y-91148600D01*
X125556100Y-93053600D02*
X124921100Y-92418600D01*
X126826100Y-93053600D02*
X125556100Y-93053600D01*
X127461100Y-92418600D02*
X126826100Y-93053600D01*
X127461100Y-91148600D02*
X127461100Y-92418600D01*
X126826100Y-90513600D02*
X127461100Y-91148600D01*
X125556100Y-90513600D02*
X124921100Y-89878600D01*
X126826100Y-90513600D02*
X125556100Y-90513600D01*
X127461100Y-89878600D02*
X126826100Y-90513600D01*
X127461100Y-88608600D02*
X127461100Y-89878600D01*
X124921100Y-97498600D02*
X124921100Y-96228600D01*
X125556100Y-95593600D02*
X124921100Y-96228600D01*
X127461100Y-96228600D02*
X126826100Y-95593600D01*
X124921100Y-93688600D02*
X125556100Y-93053600D01*
X124921100Y-94958600D02*
X124921100Y-93688600D01*
X125556100Y-95593600D02*
X124921100Y-94958600D01*
X126826100Y-95593600D02*
X125556100Y-95593600D01*
X127461100Y-94958600D02*
X126826100Y-95593600D01*
X127461100Y-93688600D02*
X127461100Y-94958600D01*
X126826100Y-93053600D02*
X127461100Y-93688600D01*
X124921100Y-98768600D02*
X125556100Y-98133600D01*
X124921100Y-100038600D02*
X124921100Y-98768600D01*
X125556100Y-100673600D02*
X124921100Y-100038600D01*
X126826100Y-100673600D02*
X125556100Y-100673600D01*
X127461100Y-100038600D02*
X126826100Y-100673600D01*
X127461100Y-98768600D02*
X127461100Y-100038600D01*
X126826100Y-98133600D02*
X127461100Y-98768600D01*
X125556100Y-98133600D02*
X124921100Y-97498600D01*
X126826100Y-98133600D02*
X125556100Y-98133600D01*
X127461100Y-97498600D02*
X126826100Y-98133600D01*
X127461100Y-96228600D02*
X127461100Y-97498600D01*
X124921100Y-105118600D02*
X124921100Y-103848600D01*
X125556100Y-103213600D02*
X124921100Y-103848600D01*
X127461100Y-103848600D02*
X126826100Y-103213600D01*
X124921100Y-101308600D02*
X125556100Y-100673600D01*
X124921100Y-102578600D02*
X124921100Y-101308600D01*
X125556100Y-103213600D02*
X124921100Y-102578600D01*
X126826100Y-103213600D02*
X125556100Y-103213600D01*
X127461100Y-102578600D02*
X126826100Y-103213600D01*
X127461100Y-101308600D02*
X127461100Y-102578600D01*
X126826100Y-100673600D02*
X127461100Y-101308600D01*
X124921100Y-106388600D02*
X125556100Y-105753600D01*
X124921100Y-107658600D02*
X124921100Y-106388600D01*
X125556100Y-108293600D02*
X124921100Y-107658600D01*
X126826100Y-108293600D02*
X125556100Y-108293600D01*
X127461100Y-107658600D02*
X126826100Y-108293600D01*
X127461100Y-106388600D02*
X127461100Y-107658600D01*
X126826100Y-105753600D02*
X127461100Y-106388600D01*
X125556100Y-105753600D02*
X124921100Y-105118600D01*
X126826100Y-105753600D02*
X125556100Y-105753600D01*
X127461100Y-105118600D02*
X126826100Y-105753600D01*
X127461100Y-103848600D02*
X127461100Y-105118600D01*
X124921100Y-112738600D02*
X124921100Y-111468600D01*
X125556100Y-110833600D02*
X124921100Y-111468600D01*
X127461100Y-111468600D02*
X126826100Y-110833600D01*
X124921100Y-108928600D02*
X125556100Y-108293600D01*
X124921100Y-110198600D02*
X124921100Y-108928600D01*
X125556100Y-110833600D02*
X124921100Y-110198600D01*
X126826100Y-110833600D02*
X125556100Y-110833600D01*
X127461100Y-110198600D02*
X126826100Y-110833600D01*
X127461100Y-108928600D02*
X127461100Y-110198600D01*
X126826100Y-108293600D02*
X127461100Y-108928600D01*
X124921100Y-114008600D02*
X125556100Y-113373600D01*
X124921100Y-115278600D02*
X124921100Y-114008600D01*
X125556100Y-115913600D02*
X124921100Y-115278600D01*
X126826100Y-115913600D02*
X125556100Y-115913600D01*
X127461100Y-115278600D02*
X126826100Y-115913600D01*
X127461100Y-114008600D02*
X127461100Y-115278600D01*
X126826100Y-113373600D02*
X127461100Y-114008600D01*
X125556100Y-113373600D02*
X124921100Y-112738600D01*
X126826100Y-113373600D02*
X125556100Y-113373600D01*
X127461100Y-112738600D02*
X126826100Y-113373600D01*
X127461100Y-111468600D02*
X127461100Y-112738600D01*
X124921100Y-120358600D02*
X124921100Y-119088600D01*
X125556100Y-118453600D02*
X124921100Y-119088600D01*
X127461100Y-119088600D02*
X126826100Y-118453600D01*
X124921100Y-116548600D02*
X125556100Y-115913600D01*
X124921100Y-117818600D02*
X124921100Y-116548600D01*
X125556100Y-118453600D02*
X124921100Y-117818600D01*
X126826100Y-118453600D02*
X125556100Y-118453600D01*
X127461100Y-117818600D02*
X126826100Y-118453600D01*
X127461100Y-116548600D02*
X127461100Y-117818600D01*
X126826100Y-115913600D02*
X127461100Y-116548600D01*
X125556100Y-120993600D02*
X124921100Y-120358600D01*
X126826100Y-120993600D02*
X125556100Y-120993600D01*
X127461100Y-120358600D02*
X126826100Y-120993600D01*
X127461100Y-119088600D02*
X127461100Y-120358600D01*
D25*
%TO.C,U$8*%
X119069050Y-127875000D02*
X119289050Y-127875000D01*
X117209050Y-127735000D02*
X117209050Y-128025000D01*
X117069050Y-127875000D02*
X117349050Y-127875000D01*
X118769050Y-128265000D02*
X117669050Y-128265000D01*
X118769050Y-129065000D02*
X118769050Y-128265000D01*
X117669050Y-129065000D02*
X118769050Y-129065000D01*
X117669050Y-128265000D02*
X117669050Y-129065000D01*
D23*
%TO.C,PIN_SOCKET1*%
X140451100Y-89838600D02*
X139816100Y-90473600D01*
X140451100Y-88568600D02*
X140451100Y-89838600D01*
X139816100Y-87933600D02*
X140451100Y-88568600D01*
X138546100Y-87933600D02*
X139816100Y-87933600D01*
X137911100Y-88568600D02*
X138546100Y-87933600D01*
X137911100Y-89838600D02*
X137911100Y-88568600D01*
X138546100Y-90473600D02*
X137911100Y-89838600D01*
X140451100Y-91108600D02*
X140451100Y-92378600D01*
X139816100Y-93013600D02*
X140451100Y-92378600D01*
X137911100Y-92378600D02*
X138546100Y-93013600D01*
X138546100Y-93013600D02*
X139816100Y-93013600D01*
X139816100Y-90473600D02*
X140451100Y-91108600D01*
X138546100Y-90473600D02*
X139816100Y-90473600D01*
X137911100Y-91108600D02*
X138546100Y-90473600D01*
X137911100Y-92378600D02*
X137911100Y-91108600D01*
%TO.C,PIN_SOCKET2*%
X135981100Y-89838600D02*
X135346100Y-90473600D01*
X135981100Y-88568600D02*
X135981100Y-89838600D01*
X135346100Y-87933600D02*
X135981100Y-88568600D01*
X134076100Y-87933600D02*
X135346100Y-87933600D01*
X133441100Y-88568600D02*
X134076100Y-87933600D01*
X133441100Y-89838600D02*
X133441100Y-88568600D01*
X134076100Y-90473600D02*
X133441100Y-89838600D01*
X135981100Y-91108600D02*
X135981100Y-92378600D01*
X135346100Y-93013600D02*
X135981100Y-92378600D01*
X133441100Y-92378600D02*
X134076100Y-93013600D01*
X134076100Y-93013600D02*
X135346100Y-93013600D01*
X135346100Y-90473600D02*
X135981100Y-91108600D01*
X134076100Y-90473600D02*
X135346100Y-90473600D01*
X133441100Y-91108600D02*
X134076100Y-90473600D01*
X133441100Y-92378600D02*
X133441100Y-91108600D01*
D19*
%TO.C,DOWN*%
X189651100Y-103473600D02*
X190351100Y-103473600D01*
X189651100Y-103473600D02*
X189651100Y-101333600D01*
X190351100Y-101333600D02*
X189651100Y-101333600D01*
X190351100Y-103473600D02*
X190351100Y-101333600D01*
X189651100Y-106633600D02*
X190351100Y-106633600D01*
X188651100Y-102033600D02*
X188651100Y-101333600D01*
X188651100Y-108773600D02*
X188651100Y-108073600D01*
X186731100Y-108073600D02*
X186731100Y-102033600D01*
X186731100Y-108073600D02*
X185301100Y-108073600D01*
X188651100Y-108073600D02*
X186731100Y-108073600D01*
X189651100Y-106633600D02*
X189651100Y-108773600D01*
X186731100Y-102033600D02*
X188651100Y-102033600D01*
X185301100Y-102033600D02*
X186731100Y-102033600D01*
X185301100Y-108073600D02*
X185301100Y-102033600D01*
X188651100Y-108773600D02*
X184601100Y-108773600D01*
X190351100Y-108773600D02*
X189651100Y-108773600D01*
X190351100Y-106633600D02*
X190351100Y-108773600D01*
X184601100Y-101333600D02*
X188651100Y-101333600D01*
X184601100Y-108773600D02*
X184601100Y-101333600D01*
%TO.C,UP*%
X189651100Y-94873600D02*
X190351100Y-94873600D01*
X189651100Y-94873600D02*
X189651100Y-92733600D01*
X190351100Y-92733600D02*
X189651100Y-92733600D01*
X190351100Y-94873600D02*
X190351100Y-92733600D01*
X189651100Y-98033600D02*
X190351100Y-98033600D01*
X188651100Y-93433600D02*
X188651100Y-92733600D01*
X188651100Y-100173600D02*
X188651100Y-99473600D01*
X186731100Y-99473600D02*
X186731100Y-93433600D01*
X186731100Y-99473600D02*
X185301100Y-99473600D01*
X188651100Y-99473600D02*
X186731100Y-99473600D01*
X189651100Y-98033600D02*
X189651100Y-100173600D01*
X186731100Y-93433600D02*
X188651100Y-93433600D01*
X185301100Y-93433600D02*
X186731100Y-93433600D01*
X185301100Y-99473600D02*
X185301100Y-93433600D01*
X188651100Y-100173600D02*
X184601100Y-100173600D01*
X190351100Y-100173600D02*
X189651100Y-100173600D01*
X190351100Y-98033600D02*
X190351100Y-100173600D01*
X184601100Y-92733600D02*
X188651100Y-92733600D01*
X184601100Y-100173600D02*
X184601100Y-92733600D01*
D21*
%TO.C,C15*%
X178506100Y-106903600D02*
X178506100Y-107803600D01*
X177896100Y-106903600D02*
X177896100Y-107803600D01*
X177396100Y-107803600D02*
X177396100Y-106903600D01*
X177896100Y-107803600D02*
X177396100Y-107803600D01*
X178506100Y-107803600D02*
X177896100Y-107803600D01*
X179006100Y-107803600D02*
X178506100Y-107803600D01*
X179006100Y-106903600D02*
X179006100Y-107803600D01*
X178506100Y-106903600D02*
X179006100Y-106903600D01*
X177896100Y-106903600D02*
X178506100Y-106903600D01*
X177396100Y-106903600D02*
X177896100Y-106903600D01*
%TO.C,C16*%
X178506100Y-109003600D02*
X178506100Y-109903600D01*
X177896100Y-109003600D02*
X177896100Y-109903600D01*
X177396100Y-109903600D02*
X177396100Y-109003600D01*
X177896100Y-109903600D02*
X177396100Y-109903600D01*
X178506100Y-109903600D02*
X177896100Y-109903600D01*
X179006100Y-109903600D02*
X178506100Y-109903600D01*
X179006100Y-109003600D02*
X179006100Y-109903600D01*
X178506100Y-109003600D02*
X179006100Y-109003600D01*
X177896100Y-109003600D02*
X178506100Y-109003600D01*
X177396100Y-109003600D02*
X177896100Y-109003600D01*
%TO.C,C17*%
X181506100Y-106903600D02*
X181506100Y-107803600D01*
X180896100Y-106903600D02*
X180896100Y-107803600D01*
X180396100Y-107803600D02*
X180396100Y-106903600D01*
X180896100Y-107803600D02*
X180396100Y-107803600D01*
X181506100Y-107803600D02*
X180896100Y-107803600D01*
X182006100Y-107803600D02*
X181506100Y-107803600D01*
X182006100Y-106903600D02*
X182006100Y-107803600D01*
X181506100Y-106903600D02*
X182006100Y-106903600D01*
X180896100Y-106903600D02*
X181506100Y-106903600D01*
X180396100Y-106903600D02*
X180896100Y-106903600D01*
%TO.C,C18*%
X181506100Y-109003600D02*
X181506100Y-109903600D01*
X180896100Y-109003600D02*
X180896100Y-109903600D01*
X180396100Y-109903600D02*
X180396100Y-109003600D01*
X180896100Y-109903600D02*
X180396100Y-109903600D01*
X181506100Y-109903600D02*
X180896100Y-109903600D01*
X182006100Y-109903600D02*
X181506100Y-109903600D01*
X182006100Y-109003600D02*
X182006100Y-109903600D01*
X181506100Y-109003600D02*
X182006100Y-109003600D01*
X180896100Y-109003600D02*
X181506100Y-109003600D01*
X180396100Y-109003600D02*
X180896100Y-109003600D01*
D12*
%TO.C,FB1*%
X165976100Y-104525000D02*
X165976100Y-105475000D01*
X165226100Y-105475000D02*
X165226100Y-104525000D01*
X165226100Y-104525000D02*
X164726100Y-104525000D01*
X165976100Y-104525000D02*
X165226100Y-104525000D01*
X166476100Y-104525000D02*
X165976100Y-104525000D01*
X166476100Y-105475000D02*
X166476100Y-104525000D01*
X165976100Y-105475000D02*
X166476100Y-105475000D01*
X165226100Y-105475000D02*
X165976100Y-105475000D01*
X164726100Y-105475000D02*
X165226100Y-105475000D01*
X164726100Y-104525000D02*
X164726100Y-105475000D01*
D21*
%TO.C,C24*%
X168906100Y-109003600D02*
X168906100Y-109903600D01*
X168296100Y-109003600D02*
X168296100Y-109903600D01*
X167796100Y-109903600D02*
X167796100Y-109003600D01*
X168296100Y-109903600D02*
X167796100Y-109903600D01*
X168906100Y-109903600D02*
X168296100Y-109903600D01*
X169406100Y-109903600D02*
X168906100Y-109903600D01*
X169406100Y-109003600D02*
X169406100Y-109903600D01*
X168906100Y-109003600D02*
X169406100Y-109003600D01*
X168296100Y-109003600D02*
X168906100Y-109003600D01*
X167796100Y-109003600D02*
X168296100Y-109003600D01*
%TO.C,C23*%
X169301100Y-106328600D02*
X169301100Y-107778600D01*
X168501100Y-106328600D02*
X168501100Y-107778600D01*
X168501100Y-106328600D02*
X167801100Y-106328600D01*
X169301100Y-106328600D02*
X168501100Y-106328600D01*
X170001100Y-106328600D02*
X169301100Y-106328600D01*
X170001100Y-107778600D02*
X170001100Y-106328600D01*
X169301100Y-107778600D02*
X170001100Y-107778600D01*
X168501100Y-107778600D02*
X169301100Y-107778600D01*
X167801100Y-107778600D02*
X168501100Y-107778600D01*
X167801100Y-106328600D02*
X167801100Y-107778600D01*
D23*
%TO.C,LEFT_U*%
X183147100Y-113490600D02*
X183782100Y-114125600D01*
X181877100Y-113490600D02*
X183147100Y-113490600D01*
X181242100Y-114125600D02*
X181877100Y-113490600D01*
X181242100Y-115395600D02*
X181242100Y-114125600D01*
X181877100Y-116030600D02*
X181242100Y-115395600D01*
X183147100Y-116030600D02*
X181877100Y-116030600D01*
X183782100Y-115395600D02*
X183147100Y-116030600D01*
X184417100Y-113490600D02*
X185687100Y-113490600D01*
X186322100Y-114125600D02*
X185687100Y-113490600D01*
X185687100Y-116030600D02*
X186322100Y-115395600D01*
X186322100Y-115395600D02*
X186322100Y-114125600D01*
X183782100Y-114125600D02*
X184417100Y-113490600D01*
X183782100Y-115395600D02*
X183782100Y-114125600D01*
X184417100Y-116030600D02*
X183782100Y-115395600D01*
X185687100Y-116030600D02*
X184417100Y-116030600D01*
%TO.C,RIGHT_U*%
X183159100Y-136341600D02*
X183794100Y-136976600D01*
X181889100Y-136341600D02*
X183159100Y-136341600D01*
X181254100Y-136976600D02*
X181889100Y-136341600D01*
X181254100Y-138246600D02*
X181254100Y-136976600D01*
X181889100Y-138881600D02*
X181254100Y-138246600D01*
X183159100Y-138881600D02*
X181889100Y-138881600D01*
X183794100Y-138246600D02*
X183159100Y-138881600D01*
X184429100Y-136341600D02*
X185699100Y-136341600D01*
X186334100Y-136976600D02*
X185699100Y-136341600D01*
X185699100Y-138881600D02*
X186334100Y-138246600D01*
X186334100Y-138246600D02*
X186334100Y-136976600D01*
X183794100Y-136976600D02*
X184429100Y-136341600D01*
X183794100Y-138246600D02*
X183794100Y-136976600D01*
X184429100Y-138881600D02*
X183794100Y-138246600D01*
X185699100Y-138881600D02*
X184429100Y-138881600D01*
%TO.C,LEFT_D*%
X159046100Y-113468600D02*
X160316100Y-113468600D01*
X160951100Y-114103600D02*
X160316100Y-113468600D01*
X160316100Y-116008600D02*
X160951100Y-115373600D01*
X158411100Y-114103600D02*
X159046100Y-113468600D01*
X158411100Y-115373600D02*
X158411100Y-114103600D01*
X159046100Y-116008600D02*
X158411100Y-115373600D01*
X160316100Y-116008600D02*
X159046100Y-116008600D01*
X166666100Y-113468600D02*
X167936100Y-113468600D01*
X168571100Y-114103600D02*
X167936100Y-113468600D01*
X167936100Y-116008600D02*
X168571100Y-115373600D01*
X168571100Y-115373600D02*
X168571100Y-114103600D01*
X165396100Y-113468600D02*
X166031100Y-114103600D01*
X164126100Y-113468600D02*
X165396100Y-113468600D01*
X163491100Y-114103600D02*
X164126100Y-113468600D01*
X163491100Y-115373600D02*
X163491100Y-114103600D01*
X164126100Y-116008600D02*
X163491100Y-115373600D01*
X165396100Y-116008600D02*
X164126100Y-116008600D01*
X166031100Y-115373600D02*
X165396100Y-116008600D01*
X166031100Y-114103600D02*
X166666100Y-113468600D01*
X166031100Y-115373600D02*
X166031100Y-114103600D01*
X166666100Y-116008600D02*
X166031100Y-115373600D01*
X167936100Y-116008600D02*
X166666100Y-116008600D01*
X162856100Y-113468600D02*
X163491100Y-114103600D01*
X161586100Y-113468600D02*
X162856100Y-113468600D01*
X160951100Y-114103600D02*
X161586100Y-113468600D01*
X160951100Y-115373600D02*
X160951100Y-114103600D01*
X161586100Y-116008600D02*
X160951100Y-115373600D01*
X162856100Y-116008600D02*
X161586100Y-116008600D01*
X163491100Y-115373600D02*
X162856100Y-116008600D01*
%TO.C,RIGHT_D*%
X159017100Y-136326600D02*
X160287100Y-136326600D01*
X160922100Y-136961600D02*
X160287100Y-136326600D01*
X160287100Y-138866600D02*
X160922100Y-138231600D01*
X158382100Y-136961600D02*
X159017100Y-136326600D01*
X158382100Y-138231600D02*
X158382100Y-136961600D01*
X159017100Y-138866600D02*
X158382100Y-138231600D01*
X160287100Y-138866600D02*
X159017100Y-138866600D01*
X166637100Y-136326600D02*
X167907100Y-136326600D01*
X168542100Y-136961600D02*
X167907100Y-136326600D01*
X167907100Y-138866600D02*
X168542100Y-138231600D01*
X168542100Y-138231600D02*
X168542100Y-136961600D01*
X165367100Y-136326600D02*
X166002100Y-136961600D01*
X164097100Y-136326600D02*
X165367100Y-136326600D01*
X163462100Y-136961600D02*
X164097100Y-136326600D01*
X163462100Y-138231600D02*
X163462100Y-136961600D01*
X164097100Y-138866600D02*
X163462100Y-138231600D01*
X165367100Y-138866600D02*
X164097100Y-138866600D01*
X166002100Y-138231600D02*
X165367100Y-138866600D01*
X166002100Y-136961600D02*
X166637100Y-136326600D01*
X166002100Y-138231600D02*
X166002100Y-136961600D01*
X166637100Y-138866600D02*
X166002100Y-138231600D01*
X167907100Y-138866600D02*
X166637100Y-138866600D01*
X162827100Y-136326600D02*
X163462100Y-136961600D01*
X161557100Y-136326600D02*
X162827100Y-136326600D01*
X160922100Y-136961600D02*
X161557100Y-136326600D01*
X160922100Y-138231600D02*
X160922100Y-136961600D01*
X161557100Y-138866600D02*
X160922100Y-138231600D01*
X162827100Y-138866600D02*
X161557100Y-138866600D01*
X163462100Y-138231600D02*
X162827100Y-138866600D01*
D19*
%TO.C,AZUSA_CON1*%
X189751100Y-84573600D02*
X190451100Y-84573600D01*
X189751100Y-84573600D02*
X189751100Y-82433600D01*
X190451100Y-82433600D02*
X189751100Y-82433600D01*
X190451100Y-84573600D02*
X190451100Y-82433600D01*
X189751100Y-87733600D02*
X190451100Y-87733600D01*
X188751100Y-83133600D02*
X188751100Y-82433600D01*
X188751100Y-89873600D02*
X188751100Y-89173600D01*
X186831100Y-89173600D02*
X186831100Y-83133600D01*
X186831100Y-89173600D02*
X185401100Y-89173600D01*
X188751100Y-89173600D02*
X186831100Y-89173600D01*
X189751100Y-87733600D02*
X189751100Y-89873600D01*
X186831100Y-83133600D02*
X188751100Y-83133600D01*
X185401100Y-83133600D02*
X186831100Y-83133600D01*
X185401100Y-89173600D02*
X185401100Y-83133600D01*
X188751100Y-89873600D02*
X184701100Y-89873600D01*
X190451100Y-89873600D02*
X189751100Y-89873600D01*
X190451100Y-87733600D02*
X190451100Y-89873600D01*
X184701100Y-82433600D02*
X188751100Y-82433600D01*
X184701100Y-89873600D02*
X184701100Y-82433600D01*
%TO.C,AZUSA_CON2*%
X181451100Y-84773600D02*
X182151100Y-84773600D01*
X181451100Y-84773600D02*
X181451100Y-82633600D01*
X182151100Y-82633600D02*
X181451100Y-82633600D01*
X182151100Y-84773600D02*
X182151100Y-82633600D01*
X181451100Y-87933600D02*
X182151100Y-87933600D01*
X180451100Y-83333600D02*
X180451100Y-82633600D01*
X180451100Y-90073600D02*
X180451100Y-89373600D01*
X178531100Y-89373600D02*
X178531100Y-83333600D01*
X178531100Y-89373600D02*
X177101100Y-89373600D01*
X180451100Y-89373600D02*
X178531100Y-89373600D01*
X181451100Y-87933600D02*
X181451100Y-90073600D01*
X178531100Y-83333600D02*
X180451100Y-83333600D01*
X177101100Y-83333600D02*
X178531100Y-83333600D01*
X177101100Y-89373600D02*
X177101100Y-83333600D01*
X180451100Y-90073600D02*
X176401100Y-90073600D01*
X182151100Y-90073600D02*
X181451100Y-90073600D01*
X182151100Y-87933600D02*
X182151100Y-90073600D01*
X176401100Y-82633600D02*
X180451100Y-82633600D01*
X176401100Y-90073600D02*
X176401100Y-82633600D01*
%TD*%
M02*
