%TF.GenerationSoftware,KiCad,Pcbnew,7.0.1*%
%TF.CreationDate,2023-09-15T11:15:50+09:00*%
%TF.ProjectId,_________,0a070658-9c5f-4cbd-9eef-2e6b69636164,rev?*%
%TF.SameCoordinates,Original*%
%TF.FileFunction,Legend,Bot*%
%TF.FilePolarity,Positive*%
%FSLAX46Y46*%
G04 Gerber Fmt 4.6, Leading zero omitted, Abs format (unit mm)*
G04 Created by KiCad (PCBNEW 7.0.1) date 2023-09-15 11:15:50*
%MOMM*%
%LPD*%
G01*
G04 APERTURE LIST*
%ADD10C,0.100000*%
%ADD11C,0.101600*%
%ADD12C,0.036800*%
%ADD13C,0.093472*%
%ADD14C,0.032512*%
%ADD15C,0.073600*%
%ADD16C,0.050000*%
%ADD17C,0.127000*%
G04 APERTURE END LIST*
D10*
G36*
X124999755Y-136310000D02*
G01*
X124981895Y-136321838D01*
X124966416Y-136335370D01*
X124953319Y-136350597D01*
X124942602Y-136367519D01*
X124934268Y-136386135D01*
X124928314Y-136406445D01*
X124924742Y-136428450D01*
X124923551Y-136452149D01*
X124926280Y-136476799D01*
X124929030Y-136501536D01*
X124931802Y-136526358D01*
X124934596Y-136551266D01*
X124937412Y-136576260D01*
X124940250Y-136601339D01*
X124943110Y-136626505D01*
X124945991Y-136651756D01*
X124948895Y-136677094D01*
X124951821Y-136702517D01*
X124954768Y-136728026D01*
X124957738Y-136753621D01*
X124960729Y-136779302D01*
X124963743Y-136805068D01*
X124966778Y-136830921D01*
X124969836Y-136856859D01*
X124972915Y-136882884D01*
X124976016Y-136908994D01*
X124979139Y-136935190D01*
X124982284Y-136961471D01*
X124985451Y-136987839D01*
X124988640Y-137014293D01*
X124991851Y-137040832D01*
X124995084Y-137067458D01*
X124998339Y-137094169D01*
X125001616Y-137120966D01*
X125004914Y-137147849D01*
X125008235Y-137174818D01*
X125011578Y-137201872D01*
X125014942Y-137229013D01*
X125018329Y-137256239D01*
X125021737Y-137283551D01*
X125021359Y-137303673D01*
X125019963Y-137326149D01*
X125017539Y-137347551D01*
X125014086Y-137367877D01*
X125010990Y-137381737D01*
X124992581Y-137390624D01*
X124972125Y-137392342D01*
X124951670Y-137385472D01*
X124945533Y-137381737D01*
X124924214Y-137356084D01*
X124904096Y-137331026D01*
X124885181Y-137306564D01*
X124867467Y-137282697D01*
X124850956Y-137259425D01*
X124835647Y-137236748D01*
X124821540Y-137214667D01*
X124808635Y-137193182D01*
X124796933Y-137172291D01*
X124786432Y-137151996D01*
X124777134Y-137132296D01*
X124769037Y-137113192D01*
X124762143Y-137094683D01*
X124754056Y-137068036D01*
X124748674Y-137042728D01*
X124729160Y-137035580D01*
X124722227Y-137054749D01*
X124726692Y-137064710D01*
X124730997Y-137097116D01*
X124735729Y-137128755D01*
X124740888Y-137159627D01*
X124746475Y-137189732D01*
X124752490Y-137219069D01*
X124758932Y-137247640D01*
X124765801Y-137275444D01*
X124773098Y-137302480D01*
X124780822Y-137328750D01*
X124788974Y-137354252D01*
X124797553Y-137378987D01*
X124806559Y-137402956D01*
X124815993Y-137426157D01*
X124825854Y-137448591D01*
X124836143Y-137470258D01*
X124846859Y-137491158D01*
X124859519Y-137514641D01*
X124872951Y-137535814D01*
X124887156Y-137554678D01*
X124902134Y-137571231D01*
X124917885Y-137585475D01*
X124934409Y-137597409D01*
X124951705Y-137607033D01*
X124975969Y-137616273D01*
X124995069Y-137620507D01*
X125014941Y-137622432D01*
X125021737Y-137622561D01*
X125041656Y-137616554D01*
X125060381Y-137609524D01*
X125086228Y-137597062D01*
X125109388Y-137582299D01*
X125129860Y-137565234D01*
X125147644Y-137545868D01*
X125162741Y-137524201D01*
X125175150Y-137500233D01*
X125184872Y-137473964D01*
X125191906Y-137445393D01*
X125195102Y-137425067D01*
X125197103Y-137403719D01*
X125191662Y-137361748D01*
X125186328Y-137320589D01*
X125181102Y-137280240D01*
X125175984Y-137240702D01*
X125170974Y-137201975D01*
X125166071Y-137164059D01*
X125161277Y-137126955D01*
X125156590Y-137090661D01*
X125152011Y-137055178D01*
X125147539Y-137020506D01*
X125143176Y-136986645D01*
X125138920Y-136953595D01*
X125134772Y-136921356D01*
X125130732Y-136889927D01*
X125126800Y-136859310D01*
X125122976Y-136829504D01*
X125119259Y-136800509D01*
X125115650Y-136772324D01*
X125112149Y-136744951D01*
X125108756Y-136718389D01*
X125105471Y-136692637D01*
X125102293Y-136667697D01*
X125099224Y-136643567D01*
X125096262Y-136620249D01*
X125093408Y-136597741D01*
X125090661Y-136576045D01*
X125088023Y-136555159D01*
X125085492Y-136535085D01*
X125080754Y-136497368D01*
X125076448Y-136462896D01*
X125095788Y-136467002D01*
X125115465Y-136479321D01*
X125130443Y-136493950D01*
X125145610Y-136513198D01*
X125160966Y-136537066D01*
X125171308Y-136555545D01*
X125181734Y-136576076D01*
X125192244Y-136598661D01*
X125202838Y-136623299D01*
X125213516Y-136649990D01*
X125224278Y-136678735D01*
X125235124Y-136709532D01*
X125240579Y-136725701D01*
X125252697Y-136755082D01*
X125264385Y-136785830D01*
X125275641Y-136817944D01*
X125286466Y-136851425D01*
X125296860Y-136886271D01*
X125306822Y-136922484D01*
X125316353Y-136960063D01*
X125320957Y-136979365D01*
X125325453Y-136999009D01*
X125329841Y-137018994D01*
X125334122Y-137039320D01*
X125338294Y-137059988D01*
X125342359Y-137080998D01*
X125346316Y-137102349D01*
X125350166Y-137124042D01*
X125353907Y-137146076D01*
X125357540Y-137168452D01*
X125361066Y-137191169D01*
X125364484Y-137214228D01*
X125367794Y-137237629D01*
X125370997Y-137261371D01*
X125374091Y-137285455D01*
X125377078Y-137309880D01*
X125379957Y-137334647D01*
X125382728Y-137359755D01*
X125386656Y-137383625D01*
X125390198Y-137405957D01*
X125393354Y-137426753D01*
X125396960Y-137452089D01*
X125399880Y-137474693D01*
X125402112Y-137494564D01*
X125403937Y-137515561D01*
X125404710Y-137535122D01*
X125406255Y-137558140D01*
X125410892Y-137578101D01*
X125420209Y-137597525D01*
X125433733Y-137612789D01*
X125448674Y-137622561D01*
X125469678Y-137617370D01*
X125488974Y-137607418D01*
X125506559Y-137592702D01*
X125522435Y-137573224D01*
X125533220Y-137555489D01*
X125543043Y-137535076D01*
X125551904Y-137511983D01*
X125559804Y-137486212D01*
X125566742Y-137457762D01*
X125568841Y-137447683D01*
X125563346Y-137425541D01*
X125557850Y-137403078D01*
X125552355Y-137380295D01*
X125546859Y-137357191D01*
X125541364Y-137333766D01*
X125535868Y-137310021D01*
X125530373Y-137285956D01*
X125524877Y-137261570D01*
X125520168Y-137233191D01*
X125515564Y-137205453D01*
X125511066Y-137178355D01*
X125506674Y-137151897D01*
X125502387Y-137126079D01*
X125498207Y-137100902D01*
X125494133Y-137076364D01*
X125490164Y-137052467D01*
X125486302Y-137029210D01*
X125482545Y-137006593D01*
X125478894Y-136984617D01*
X125475350Y-136963280D01*
X125471911Y-136942584D01*
X125468577Y-136922528D01*
X125465350Y-136903112D01*
X125459214Y-136866201D01*
X125453501Y-136831851D01*
X125448211Y-136800061D01*
X125443346Y-136770832D01*
X125438903Y-136744164D01*
X125434885Y-136720056D01*
X125431290Y-136698509D01*
X125426692Y-136670990D01*
X125424684Y-136645106D01*
X125422874Y-136620758D01*
X125421261Y-136597948D01*
X125419845Y-136576675D01*
X125418627Y-136556938D01*
X125417311Y-136533014D01*
X125416345Y-136511822D01*
X125415632Y-136489175D01*
X125415457Y-136474131D01*
X125435072Y-136467882D01*
X125454005Y-136478308D01*
X125466034Y-136497275D01*
X125470167Y-136506859D01*
X125481055Y-136526315D01*
X125491859Y-136546457D01*
X125502579Y-136567286D01*
X125513215Y-136588803D01*
X125523767Y-136611006D01*
X125534235Y-136633896D01*
X125544619Y-136657473D01*
X125554919Y-136681737D01*
X125565135Y-136706688D01*
X125575268Y-136732326D01*
X125585316Y-136758651D01*
X125595280Y-136785662D01*
X125605161Y-136813361D01*
X125614957Y-136841747D01*
X125624670Y-136870819D01*
X125634298Y-136900579D01*
X125642568Y-136928917D01*
X125651014Y-136959220D01*
X125659635Y-136991489D01*
X125668431Y-137025723D01*
X125677403Y-137061922D01*
X125686551Y-137100087D01*
X125691191Y-137119906D01*
X125695874Y-137140217D01*
X125700602Y-137161019D01*
X125705373Y-137182313D01*
X125710188Y-137204098D01*
X125715047Y-137226374D01*
X125719950Y-137249141D01*
X125724897Y-137272400D01*
X125729888Y-137296151D01*
X125734922Y-137320392D01*
X125740001Y-137345125D01*
X125745123Y-137370349D01*
X125750290Y-137396065D01*
X125755500Y-137422272D01*
X125760754Y-137448970D01*
X125766052Y-137476160D01*
X125771394Y-137503841D01*
X125776780Y-137532013D01*
X125782209Y-137560677D01*
X125787683Y-137589832D01*
X125800334Y-137607257D01*
X125816048Y-137619773D01*
X125835267Y-137623772D01*
X125855829Y-137616781D01*
X125863886Y-137611325D01*
X125880794Y-137598347D01*
X125894146Y-137583590D01*
X125904812Y-137565110D01*
X125907850Y-137557103D01*
X125917467Y-137538480D01*
X125923628Y-137518879D01*
X125927235Y-137499621D01*
X125929295Y-137478098D01*
X125929832Y-137458429D01*
X125928496Y-137433430D01*
X125925504Y-137406888D01*
X125922138Y-137383164D01*
X125917811Y-137356169D01*
X125914391Y-137336355D01*
X125910544Y-137315087D01*
X125906270Y-137292365D01*
X125901569Y-137268189D01*
X125896439Y-137242558D01*
X125890883Y-137215474D01*
X125884899Y-137186936D01*
X125878488Y-137156944D01*
X125875122Y-137141402D01*
X125871073Y-137118352D01*
X125867107Y-137095729D01*
X125863226Y-137073533D01*
X125859429Y-137051765D01*
X125855716Y-137030424D01*
X125852086Y-137009511D01*
X125848541Y-136989025D01*
X125845080Y-136968967D01*
X125841702Y-136949336D01*
X125836794Y-136920691D01*
X125832074Y-136893007D01*
X125827543Y-136866285D01*
X125823201Y-136840525D01*
X125820411Y-136823886D01*
X125816483Y-136799911D01*
X125812941Y-136777078D01*
X125809785Y-136755386D01*
X125807016Y-136734837D01*
X125804633Y-136715430D01*
X125802057Y-136691330D01*
X125800168Y-136669260D01*
X125798966Y-136649221D01*
X125798429Y-136627027D01*
X125798692Y-136604537D01*
X125799479Y-136584694D01*
X125801116Y-136564378D01*
X125804474Y-136543221D01*
X125809176Y-136528841D01*
X125819440Y-136511477D01*
X125838119Y-136504203D01*
X125853140Y-136506859D01*
X125876158Y-136507632D01*
X125896119Y-136509950D01*
X125915543Y-136514609D01*
X125934404Y-136523689D01*
X125940579Y-136528841D01*
X125957065Y-136517728D01*
X125962561Y-136506859D01*
X125954163Y-136486984D01*
X125945334Y-136468391D01*
X125936074Y-136451080D01*
X125921375Y-136427518D01*
X125905705Y-136406842D01*
X125889066Y-136389050D01*
X125871456Y-136374144D01*
X125852876Y-136362122D01*
X125833326Y-136352986D01*
X125812805Y-136346735D01*
X125791314Y-136343369D01*
X125776448Y-136342728D01*
X125756791Y-136344338D01*
X125735313Y-136350520D01*
X125716136Y-136361340D01*
X125699261Y-136376796D01*
X125686955Y-136393218D01*
X125678262Y-136408674D01*
X125670791Y-136426917D01*
X125664867Y-136449042D01*
X125661110Y-136470445D01*
X125658427Y-136494542D01*
X125657053Y-136515761D01*
X125656366Y-136538704D01*
X125656280Y-136550823D01*
X125656791Y-136573881D01*
X125658326Y-136599336D01*
X125660147Y-136619999D01*
X125662544Y-136642011D01*
X125665517Y-136665371D01*
X125669065Y-136690080D01*
X125673188Y-136716136D01*
X125677886Y-136743540D01*
X125683160Y-136772293D01*
X125686995Y-136792210D01*
X125689009Y-136802393D01*
X125680178Y-136779418D01*
X125671454Y-136757021D01*
X125662836Y-136735202D01*
X125654326Y-136713962D01*
X125645923Y-136693300D01*
X125637626Y-136673215D01*
X125629436Y-136653709D01*
X125621353Y-136634781D01*
X125613377Y-136616432D01*
X125597746Y-136581467D01*
X125582542Y-136548815D01*
X125567765Y-136518475D01*
X125553416Y-136490448D01*
X125539494Y-136464734D01*
X125525999Y-136441333D01*
X125512932Y-136420244D01*
X125500293Y-136401467D01*
X125488081Y-136385004D01*
X125470564Y-136364645D01*
X125459420Y-136353963D01*
X125440210Y-136345912D01*
X125421046Y-136340994D01*
X125399201Y-136339208D01*
X125377418Y-136341513D01*
X125371981Y-136342728D01*
X125349887Y-136350659D01*
X125331538Y-136360712D01*
X125314462Y-136375579D01*
X125302779Y-136393502D01*
X125296487Y-136414482D01*
X125295289Y-136430167D01*
X125290481Y-136450363D01*
X125287046Y-136472604D01*
X125284985Y-136496891D01*
X125284341Y-136516449D01*
X125284470Y-136537157D01*
X125285372Y-136559016D01*
X125287046Y-136582025D01*
X125289493Y-136606185D01*
X125292713Y-136631496D01*
X125295289Y-136649009D01*
X125286458Y-136630813D01*
X125277734Y-136613109D01*
X125260607Y-136579170D01*
X125243907Y-136547194D01*
X125227634Y-136517178D01*
X125211789Y-136489125D01*
X125196371Y-136463033D01*
X125181380Y-136438902D01*
X125166817Y-136416734D01*
X125152682Y-136396526D01*
X125138974Y-136378281D01*
X125125693Y-136361997D01*
X125106573Y-136341248D01*
X125088415Y-136324914D01*
X125071219Y-136312992D01*
X125065701Y-136310000D01*
X125047252Y-136301112D01*
X125026663Y-136299395D01*
X125005979Y-136306264D01*
X124999755Y-136310000D01*
G37*
G36*
X123579239Y-136342728D02*
G01*
X123699406Y-136408674D01*
X123715789Y-136401007D01*
X123734711Y-136393456D01*
X123754117Y-136386692D01*
X123768643Y-136377263D01*
X123788151Y-136368058D01*
X123809927Y-136361155D01*
X123829805Y-136357159D01*
X123851258Y-136354762D01*
X123874284Y-136353963D01*
X123900166Y-136354902D01*
X123925789Y-136357718D01*
X123951152Y-136362412D01*
X123976256Y-136368984D01*
X124001100Y-136377433D01*
X124025684Y-136387760D01*
X124050009Y-136399965D01*
X124074075Y-136414047D01*
X124097881Y-136430007D01*
X124121427Y-136447844D01*
X124144714Y-136467559D01*
X124167742Y-136489152D01*
X124190510Y-136512622D01*
X124213019Y-136537970D01*
X124235268Y-136565195D01*
X124257257Y-136594298D01*
X124278434Y-136623254D01*
X124298244Y-136652726D01*
X124316688Y-136682712D01*
X124333766Y-136713214D01*
X124349478Y-136744231D01*
X124363823Y-136775763D01*
X124376802Y-136807810D01*
X124388415Y-136840373D01*
X124398662Y-136873451D01*
X124407543Y-136907044D01*
X124415057Y-136941152D01*
X124421205Y-136975775D01*
X124425987Y-137010914D01*
X124429402Y-137046567D01*
X124431452Y-137082736D01*
X124432135Y-137119420D01*
X124431791Y-137144318D01*
X124430761Y-137169918D01*
X124429537Y-137189578D01*
X124427927Y-137209634D01*
X124425931Y-137230084D01*
X124423548Y-137250930D01*
X124420779Y-137272170D01*
X124417623Y-137293806D01*
X124414081Y-137315836D01*
X124410153Y-137338262D01*
X124408713Y-137345783D01*
X124403230Y-137368479D01*
X124396005Y-137391373D01*
X124387036Y-137414464D01*
X124376324Y-137437752D01*
X124363869Y-137461238D01*
X124349671Y-137484922D01*
X124333730Y-137508803D01*
X124322134Y-137524833D01*
X124309763Y-137540951D01*
X124296618Y-137557157D01*
X124282698Y-137573451D01*
X124268004Y-137589832D01*
X124259811Y-137595787D01*
X124235100Y-137611478D01*
X124210191Y-137623906D01*
X124185085Y-137633071D01*
X124159782Y-137638973D01*
X124134281Y-137641612D01*
X124108582Y-137640988D01*
X124082686Y-137637101D01*
X124056593Y-137629951D01*
X124030302Y-137619538D01*
X124012665Y-137610783D01*
X123994940Y-137600579D01*
X123984125Y-137594915D01*
X123966043Y-137584196D01*
X123949036Y-137572449D01*
X123933104Y-137559673D01*
X123918248Y-137545868D01*
X123904914Y-137534992D01*
X123889212Y-137521375D01*
X123874584Y-137507734D01*
X123858447Y-137491333D01*
X123843855Y-137474899D01*
X123830809Y-137458429D01*
X123830756Y-137461209D01*
X123827390Y-137482426D01*
X123820337Y-137503069D01*
X123811521Y-137522002D01*
X123800034Y-137542510D01*
X123788921Y-137560050D01*
X123776099Y-137578597D01*
X123766327Y-137593538D01*
X123751063Y-137607062D01*
X123731639Y-137616378D01*
X123711678Y-137621015D01*
X123688660Y-137622561D01*
X123668064Y-137620962D01*
X123647491Y-137616168D01*
X123626943Y-137608178D01*
X123606419Y-137596991D01*
X123590016Y-137585741D01*
X123573629Y-137572445D01*
X123557257Y-137557103D01*
X123543169Y-137540046D01*
X123529665Y-137521847D01*
X123516745Y-137502505D01*
X123504409Y-137482022D01*
X123492657Y-137460396D01*
X123481488Y-137437629D01*
X123470904Y-137413719D01*
X123460903Y-137388668D01*
X123451486Y-137362474D01*
X123442654Y-137335138D01*
X123437090Y-137316280D01*
X123428846Y-137300587D01*
X123426786Y-137279567D01*
X123437090Y-137261570D01*
X123447836Y-137261570D01*
X123450615Y-137267653D01*
X123459331Y-137285269D01*
X123471833Y-137307274D01*
X123485343Y-137327584D01*
X123499860Y-137346200D01*
X123515385Y-137363121D01*
X123531917Y-137378348D01*
X123549456Y-137391881D01*
X123568004Y-137403719D01*
X123583796Y-137413336D01*
X123601582Y-137421493D01*
X123622836Y-137425701D01*
X123641918Y-137420205D01*
X123655443Y-137403719D01*
X123659820Y-137388863D01*
X123663869Y-137368182D01*
X123665976Y-137348306D01*
X123666678Y-137327027D01*
X123666506Y-137306255D01*
X123665991Y-137284971D01*
X123665132Y-137263176D01*
X123663930Y-137240870D01*
X123662384Y-137218052D01*
X123660495Y-137194723D01*
X123658263Y-137170883D01*
X123655687Y-137146531D01*
X123652767Y-137121668D01*
X123649504Y-137096294D01*
X123645898Y-137070408D01*
X123641948Y-137044010D01*
X123637655Y-137017102D01*
X123633018Y-136989682D01*
X123628038Y-136961750D01*
X123622714Y-136933307D01*
X123617150Y-136904353D01*
X123611326Y-136874887D01*
X123605243Y-136844910D01*
X123598900Y-136814422D01*
X123592298Y-136783422D01*
X123585437Y-136751911D01*
X123578315Y-136719889D01*
X123570935Y-136687355D01*
X123563294Y-136654309D01*
X123555395Y-136620753D01*
X123554324Y-136616280D01*
X123754117Y-136616280D01*
X123754170Y-136622663D01*
X123754972Y-136644765D01*
X123756735Y-136671298D01*
X123758444Y-136691448D01*
X123760582Y-136713567D01*
X123763146Y-136737655D01*
X123766138Y-136763713D01*
X123769557Y-136791740D01*
X123773404Y-136821736D01*
X123777679Y-136853701D01*
X123782380Y-136887636D01*
X123787509Y-136923539D01*
X123793066Y-136961412D01*
X123796004Y-136981087D01*
X123799050Y-137001254D01*
X123802202Y-137021914D01*
X123805461Y-137043066D01*
X123808827Y-137064710D01*
X123813068Y-137085567D01*
X123817608Y-137105762D01*
X123822448Y-137125295D01*
X123827588Y-137144165D01*
X123838766Y-137179920D01*
X123851142Y-137213026D01*
X123864717Y-137243484D01*
X123879490Y-137271294D01*
X123895461Y-137296454D01*
X123912630Y-137318967D01*
X123930998Y-137338831D01*
X123950564Y-137356046D01*
X123971329Y-137370613D01*
X123993292Y-137382531D01*
X124016453Y-137391801D01*
X124040812Y-137398422D01*
X124066370Y-137402395D01*
X124093126Y-137403719D01*
X124111612Y-137403032D01*
X124132788Y-137400241D01*
X124151817Y-137395304D01*
X124171818Y-137386546D01*
X124188728Y-137374696D01*
X124202547Y-137359755D01*
X124203909Y-137358379D01*
X124216332Y-137341054D01*
X124224689Y-137322522D01*
X124230850Y-137302900D01*
X124235275Y-137283551D01*
X124237283Y-137271285D01*
X124240191Y-137251281D01*
X124242955Y-137228000D01*
X124244930Y-137205508D01*
X124246115Y-137183807D01*
X124246510Y-137162896D01*
X124247513Y-137135827D01*
X124247833Y-137109271D01*
X124247471Y-137083227D01*
X124246426Y-137057696D01*
X124244700Y-137032676D01*
X124242291Y-137008170D01*
X124239201Y-136984175D01*
X124235428Y-136960693D01*
X124230973Y-136937723D01*
X124225836Y-136915266D01*
X124220016Y-136893321D01*
X124213515Y-136871888D01*
X124206331Y-136850967D01*
X124198465Y-136830559D01*
X124189917Y-136810663D01*
X124180687Y-136791280D01*
X124170775Y-136772409D01*
X124160180Y-136754050D01*
X124148903Y-136736204D01*
X124136945Y-136718870D01*
X124124304Y-136702048D01*
X124110980Y-136685738D01*
X124096975Y-136669941D01*
X124082288Y-136654657D01*
X124066918Y-136639884D01*
X124050866Y-136625624D01*
X124034132Y-136611877D01*
X124016716Y-136598641D01*
X123998618Y-136585918D01*
X123979837Y-136573707D01*
X123960375Y-136562009D01*
X123940230Y-136550823D01*
X123935479Y-136550143D01*
X123913016Y-136547400D01*
X123892699Y-136545754D01*
X123871152Y-136545227D01*
X123849921Y-136546610D01*
X123830809Y-136550823D01*
X123815185Y-136559005D01*
X123794984Y-136571278D01*
X123778663Y-136583551D01*
X123764528Y-136597870D01*
X123754117Y-136616280D01*
X123554324Y-136616280D01*
X123547235Y-136586685D01*
X123538817Y-136552105D01*
X123530138Y-136517014D01*
X123521201Y-136481412D01*
X123512003Y-136445299D01*
X123502547Y-136408674D01*
X123502547Y-136375457D01*
X123508553Y-136362977D01*
X123521526Y-136346905D01*
X123540188Y-136337525D01*
X123559873Y-136337181D01*
X123579239Y-136342728D01*
G37*
G36*
X122054660Y-135651757D02*
G01*
X122070795Y-135664710D01*
X122081597Y-135677157D01*
X122097321Y-135696478D01*
X122112469Y-135716581D01*
X122127042Y-135737465D01*
X122141040Y-135759131D01*
X122154462Y-135781578D01*
X122167309Y-135804806D01*
X122179581Y-135828816D01*
X122191277Y-135853607D01*
X122202399Y-135879179D01*
X122212944Y-135905533D01*
X122180216Y-135938262D01*
X122184349Y-135972397D01*
X122188566Y-136006535D01*
X122192867Y-136040678D01*
X122197252Y-136074824D01*
X122201721Y-136108974D01*
X122206273Y-136143128D01*
X122210910Y-136177286D01*
X122215631Y-136211448D01*
X122220436Y-136245613D01*
X122225324Y-136279782D01*
X122230297Y-136313955D01*
X122235354Y-136348132D01*
X122240494Y-136382313D01*
X122245719Y-136416497D01*
X122251027Y-136450685D01*
X122256420Y-136484877D01*
X122268966Y-136467664D01*
X122281935Y-136451561D01*
X122295329Y-136436569D01*
X122309146Y-136422687D01*
X122330665Y-136403947D01*
X122353138Y-136387705D01*
X122376564Y-136373962D01*
X122400943Y-136362718D01*
X122426275Y-136353972D01*
X122452560Y-136347725D01*
X122479798Y-136343977D01*
X122507990Y-136342728D01*
X122529867Y-136343369D01*
X122551656Y-136345293D01*
X122573357Y-136348498D01*
X122594971Y-136352986D01*
X122616497Y-136358756D01*
X122637935Y-136365809D01*
X122659285Y-136374144D01*
X122680547Y-136383761D01*
X122701722Y-136394660D01*
X122722809Y-136406842D01*
X122743808Y-136420306D01*
X122764719Y-136435052D01*
X122785543Y-136451080D01*
X122806279Y-136468391D01*
X122826927Y-136486984D01*
X122847487Y-136506859D01*
X122872627Y-136533367D01*
X122896145Y-136560990D01*
X122918041Y-136589726D01*
X122938315Y-136619577D01*
X122956967Y-136650543D01*
X122973997Y-136682622D01*
X122989406Y-136715817D01*
X123003192Y-136750125D01*
X123015357Y-136785548D01*
X123025899Y-136822085D01*
X123034820Y-136859737D01*
X123038672Y-136878980D01*
X123042118Y-136898503D01*
X123045159Y-136918303D01*
X123047795Y-136938383D01*
X123050025Y-136958741D01*
X123051850Y-136979378D01*
X123053269Y-137000293D01*
X123054283Y-137021487D01*
X123054891Y-137042959D01*
X123055094Y-137064710D01*
X123054538Y-137102354D01*
X123052873Y-137138715D01*
X123050096Y-137173795D01*
X123046209Y-137207592D01*
X123041212Y-137240107D01*
X123035104Y-137271339D01*
X123027885Y-137301290D01*
X123019556Y-137329958D01*
X123010117Y-137357343D01*
X122999567Y-137383447D01*
X122987906Y-137408268D01*
X122975135Y-137431807D01*
X122961253Y-137454064D01*
X122946261Y-137475038D01*
X122930158Y-137494730D01*
X122912944Y-137513140D01*
X122899225Y-137526390D01*
X122878488Y-137544662D01*
X122857562Y-137561011D01*
X122836448Y-137575437D01*
X122815144Y-137587939D01*
X122793652Y-137598518D01*
X122771970Y-137607173D01*
X122750100Y-137613905D01*
X122728041Y-137618714D01*
X122705793Y-137621599D01*
X122683356Y-137622561D01*
X122657774Y-137621578D01*
X122633050Y-137618630D01*
X122609185Y-137613716D01*
X122586178Y-137606837D01*
X122564030Y-137597993D01*
X122542741Y-137587184D01*
X122522310Y-137574408D01*
X122502739Y-137559668D01*
X122484025Y-137542962D01*
X122466171Y-137524291D01*
X122449175Y-137503654D01*
X122433038Y-137481052D01*
X122417759Y-137456485D01*
X122403339Y-137429952D01*
X122389778Y-137401454D01*
X122377076Y-137370990D01*
X122377737Y-137379757D01*
X122379594Y-137404650D01*
X122381263Y-137427431D01*
X122382743Y-137448099D01*
X122384422Y-137472370D01*
X122385765Y-137492887D01*
X122386972Y-137513251D01*
X122387822Y-137535122D01*
X122387143Y-137553501D01*
X122384383Y-137574586D01*
X122379501Y-137593572D01*
X122370840Y-137613585D01*
X122359122Y-137630575D01*
X122344347Y-137644542D01*
X122328256Y-137654892D01*
X122308029Y-137662708D01*
X122286953Y-137663326D01*
X122267655Y-137655289D01*
X122254656Y-137646893D01*
X122240319Y-137628241D01*
X122230378Y-137606794D01*
X122223813Y-137586901D01*
X122218013Y-137563746D01*
X122212977Y-137537327D01*
X122210044Y-137517903D01*
X122207451Y-137497027D01*
X122205197Y-137474702D01*
X122203283Y-137450927D01*
X122201709Y-137425701D01*
X122198234Y-137391155D01*
X122194586Y-137355905D01*
X122190765Y-137319950D01*
X122186772Y-137283292D01*
X122182606Y-137245930D01*
X122178268Y-137207863D01*
X122173756Y-137169092D01*
X122169072Y-137129617D01*
X122164216Y-137089439D01*
X122159186Y-137048556D01*
X122153984Y-137006968D01*
X122148609Y-136964677D01*
X122143062Y-136921682D01*
X122137342Y-136877982D01*
X122133080Y-136845868D01*
X122311130Y-136845868D01*
X122311258Y-136866192D01*
X122311643Y-136886132D01*
X122313183Y-136924858D01*
X122315750Y-136962046D01*
X122319343Y-136997696D01*
X122323962Y-137031808D01*
X122329608Y-137064382D01*
X122336281Y-137095418D01*
X122343981Y-137124916D01*
X122352707Y-137152876D01*
X122362459Y-137179298D01*
X122373238Y-137204182D01*
X122385044Y-137227528D01*
X122397876Y-137249337D01*
X122411735Y-137269607D01*
X122426621Y-137288339D01*
X122442533Y-137305533D01*
X122454909Y-137317423D01*
X122473631Y-137333819D01*
X122492541Y-137348490D01*
X122511641Y-137361434D01*
X122530929Y-137372652D01*
X122550407Y-137382145D01*
X122570073Y-137389912D01*
X122589928Y-137395952D01*
X122609973Y-137400267D01*
X122630206Y-137402856D01*
X122650628Y-137403719D01*
X122660069Y-137403505D01*
X122682938Y-137401101D01*
X122704758Y-137396025D01*
X122725528Y-137388278D01*
X122745249Y-137377860D01*
X122763920Y-137364770D01*
X122781542Y-137349009D01*
X122797168Y-137331652D01*
X122811257Y-137312372D01*
X122823810Y-137291169D01*
X122834825Y-137268042D01*
X122844303Y-137242992D01*
X122852244Y-137216018D01*
X122856685Y-137196967D01*
X122860442Y-137177062D01*
X122863516Y-137156301D01*
X122865907Y-137134685D01*
X122867614Y-137112215D01*
X122868639Y-137088890D01*
X122868981Y-137064710D01*
X122868340Y-137029642D01*
X122866416Y-136995513D01*
X122863210Y-136962323D01*
X122858722Y-136930071D01*
X122852952Y-136898758D01*
X122845900Y-136868384D01*
X122837565Y-136838949D01*
X122827948Y-136810453D01*
X122817049Y-136782896D01*
X122804867Y-136756277D01*
X122791403Y-136730597D01*
X122776657Y-136705856D01*
X122760628Y-136682054D01*
X122743318Y-136659190D01*
X122724725Y-136637266D01*
X122704849Y-136616280D01*
X122700715Y-136612253D01*
X122683321Y-136597423D01*
X122664552Y-136584638D01*
X122644410Y-136573899D01*
X122622894Y-136565206D01*
X122600003Y-136558558D01*
X122575739Y-136553955D01*
X122550102Y-136551398D01*
X122529972Y-136550823D01*
X122525189Y-136550887D01*
X122501607Y-136553124D01*
X122478573Y-136558558D01*
X122456088Y-136567187D01*
X122438495Y-136576392D01*
X122421253Y-136587643D01*
X122404362Y-136600939D01*
X122387822Y-136616280D01*
X122378535Y-136626164D01*
X122365728Y-136642107D01*
X122354269Y-136659389D01*
X122344159Y-136678011D01*
X122335396Y-136697972D01*
X122327981Y-136719272D01*
X122321915Y-136741912D01*
X122317196Y-136765892D01*
X122313826Y-136791211D01*
X122311804Y-136817870D01*
X122311130Y-136845868D01*
X122133080Y-136845868D01*
X122131449Y-136833579D01*
X122125383Y-136788471D01*
X122119145Y-136742659D01*
X122112734Y-136696144D01*
X122106151Y-136648924D01*
X122099394Y-136601000D01*
X122092465Y-136552371D01*
X122085364Y-136503039D01*
X122078089Y-136453003D01*
X122070642Y-136402262D01*
X122063023Y-136350818D01*
X122055230Y-136298669D01*
X122047265Y-136245816D01*
X122039127Y-136192259D01*
X122030817Y-136137998D01*
X122022334Y-136083033D01*
X122013678Y-136027364D01*
X122004849Y-135970990D01*
X122002161Y-135957313D01*
X121998121Y-135936796D01*
X121994072Y-135916280D01*
X121990015Y-135895764D01*
X121985949Y-135875247D01*
X121981875Y-135854731D01*
X121977792Y-135834214D01*
X121973700Y-135813698D01*
X121969600Y-135793182D01*
X121965492Y-135772665D01*
X121961374Y-135752149D01*
X121966896Y-135733890D01*
X121975509Y-135709700D01*
X121984516Y-135689348D01*
X121997141Y-135668183D01*
X122013908Y-135651322D01*
X122035478Y-135645162D01*
X122054660Y-135651757D01*
G37*
G36*
X121047496Y-136310768D02*
G01*
X121073376Y-136313075D01*
X121099168Y-136316920D01*
X121124873Y-136322303D01*
X121150490Y-136329224D01*
X121176019Y-136337683D01*
X121201460Y-136347680D01*
X121226814Y-136359214D01*
X121252080Y-136372287D01*
X121277258Y-136386898D01*
X121302348Y-136403046D01*
X121327350Y-136420733D01*
X121352265Y-136439958D01*
X121377092Y-136460720D01*
X121401831Y-136483021D01*
X121426482Y-136506859D01*
X121438594Y-136519313D01*
X121461663Y-136545119D01*
X121483195Y-136572123D01*
X121503188Y-136600325D01*
X121521644Y-136629726D01*
X121538562Y-136660325D01*
X121553941Y-136692122D01*
X121567783Y-136725118D01*
X121580087Y-136759312D01*
X121590853Y-136794704D01*
X121600080Y-136831295D01*
X121607770Y-136869084D01*
X121611038Y-136888428D01*
X121613922Y-136908071D01*
X121616421Y-136928014D01*
X121618536Y-136948257D01*
X121620266Y-136968799D01*
X121621612Y-136989641D01*
X121622573Y-137010782D01*
X121623150Y-137032223D01*
X121623342Y-137053963D01*
X121622659Y-137090374D01*
X121620610Y-137125847D01*
X121617194Y-137160381D01*
X121612412Y-137193975D01*
X121606264Y-137226631D01*
X121598750Y-137258349D01*
X121589869Y-137289127D01*
X121579623Y-137318967D01*
X121568010Y-137347867D01*
X121555030Y-137375829D01*
X121540685Y-137402853D01*
X121524973Y-137428937D01*
X121507895Y-137454083D01*
X121489451Y-137478289D01*
X121469641Y-137501557D01*
X121448464Y-137523886D01*
X121434615Y-137537137D01*
X121413197Y-137555409D01*
X121391006Y-137571758D01*
X121368043Y-137586184D01*
X121344306Y-137598686D01*
X121319797Y-137609265D01*
X121294515Y-137617920D01*
X121268460Y-137624652D01*
X121241633Y-137629460D01*
X121214032Y-137632346D01*
X121185659Y-137633307D01*
X121162607Y-137632837D01*
X121139917Y-137631428D01*
X121117590Y-137629078D01*
X121095625Y-137625789D01*
X121074023Y-137621560D01*
X121052783Y-137616392D01*
X121031906Y-137610283D01*
X121011392Y-137603235D01*
X120991240Y-137595247D01*
X120971450Y-137586319D01*
X120952023Y-137576452D01*
X120932959Y-137565644D01*
X120914257Y-137553897D01*
X120895918Y-137541211D01*
X120877942Y-137527584D01*
X120860327Y-137513018D01*
X120843076Y-137497512D01*
X120826187Y-137481066D01*
X120809660Y-137463680D01*
X120793497Y-137445355D01*
X120777695Y-137426090D01*
X120762256Y-137405885D01*
X120747180Y-137384740D01*
X120732466Y-137362656D01*
X120718115Y-137339631D01*
X120704127Y-137315668D01*
X120690500Y-137290764D01*
X120677237Y-137264920D01*
X120664336Y-137238137D01*
X120651798Y-137210414D01*
X120639622Y-137181751D01*
X120627808Y-137152149D01*
X120627190Y-137146801D01*
X120625685Y-137123584D01*
X120627373Y-137103468D01*
X120642188Y-137088585D01*
X120660537Y-137097438D01*
X120677090Y-137117613D01*
X120693899Y-137137105D01*
X120710963Y-137155914D01*
X120728284Y-137174039D01*
X120745860Y-137191481D01*
X120763691Y-137208241D01*
X120781779Y-137224317D01*
X120800122Y-137239710D01*
X120818720Y-137254420D01*
X120837575Y-137268447D01*
X120856685Y-137281790D01*
X120876051Y-137294451D01*
X120895672Y-137306428D01*
X120915549Y-137317723D01*
X120935682Y-137328334D01*
X120956071Y-137338262D01*
X120978413Y-137348039D01*
X121000378Y-137356855D01*
X121021965Y-137364709D01*
X121043174Y-137371601D01*
X121064005Y-137377532D01*
X121084458Y-137382500D01*
X121104534Y-137386507D01*
X121124232Y-137389553D01*
X121149908Y-137392117D01*
X121174912Y-137392972D01*
X121182359Y-137392919D01*
X121203931Y-137392117D01*
X121224353Y-137390354D01*
X121249793Y-137386507D01*
X121273187Y-137380951D01*
X121294535Y-137373685D01*
X121313838Y-137364709D01*
X121331095Y-137354023D01*
X121349790Y-137338262D01*
X121360378Y-137326775D01*
X121374980Y-137307455D01*
X121388045Y-137285628D01*
X121399572Y-137261293D01*
X121409563Y-137234451D01*
X121415369Y-137215163D01*
X121420493Y-137194762D01*
X121424933Y-137173245D01*
X121428690Y-137150615D01*
X121431764Y-137126870D01*
X121434155Y-137102010D01*
X121435863Y-137076037D01*
X121436888Y-137048949D01*
X121437229Y-137020746D01*
X121408797Y-137022608D01*
X121380899Y-137024042D01*
X121353533Y-137025047D01*
X121326702Y-137025623D01*
X121300403Y-137025772D01*
X121274638Y-137025492D01*
X121249406Y-137024783D01*
X121224707Y-137023647D01*
X121200542Y-137022081D01*
X121176910Y-137020088D01*
X121153812Y-137017666D01*
X121131246Y-137014816D01*
X121109214Y-137011537D01*
X121087716Y-137007830D01*
X121066750Y-137003695D01*
X121046318Y-136999131D01*
X121026420Y-136994139D01*
X121007054Y-136988718D01*
X120969924Y-136976592D01*
X120934926Y-136962752D01*
X120902062Y-136947199D01*
X120871332Y-136929932D01*
X120842734Y-136910951D01*
X120816270Y-136890258D01*
X120791939Y-136867850D01*
X120786560Y-136862310D01*
X120771446Y-136844792D01*
X120757869Y-136825926D01*
X120745829Y-136805711D01*
X120735326Y-136784149D01*
X120726360Y-136761238D01*
X120718931Y-136736979D01*
X120713040Y-136711373D01*
X120708685Y-136684418D01*
X120707348Y-136670990D01*
X120879378Y-136670990D01*
X120880529Y-136694386D01*
X120883981Y-136715481D01*
X120889734Y-136734274D01*
X120899354Y-136753291D01*
X120912107Y-136769176D01*
X120917922Y-136774596D01*
X120939203Y-136789952D01*
X120956586Y-136799435D01*
X120976526Y-136808316D01*
X120999023Y-136816594D01*
X121024077Y-136824268D01*
X121051688Y-136831340D01*
X121081856Y-136837808D01*
X121114580Y-136843674D01*
X121149862Y-136848937D01*
X121187701Y-136853596D01*
X121207579Y-136855700D01*
X121228096Y-136857653D01*
X121249253Y-136859455D01*
X121271049Y-136861107D01*
X121293484Y-136862608D01*
X121316558Y-136863958D01*
X121340271Y-136865157D01*
X121364624Y-136866205D01*
X121389616Y-136867103D01*
X121415247Y-136867850D01*
X121405634Y-136841050D01*
X121395845Y-136815361D01*
X121385881Y-136790782D01*
X121375741Y-136767314D01*
X121365426Y-136744956D01*
X121354935Y-136723709D01*
X121344268Y-136703572D01*
X121333426Y-136684546D01*
X121322408Y-136666630D01*
X121311215Y-136649825D01*
X121294096Y-136626700D01*
X121276582Y-136606073D01*
X121258673Y-136587945D01*
X121240369Y-136572316D01*
X121222148Y-136558698D01*
X121204305Y-136546419D01*
X121186840Y-136535480D01*
X121169753Y-136525880D01*
X121147557Y-136515163D01*
X121126033Y-136506829D01*
X121105181Y-136500875D01*
X121085000Y-136497303D01*
X121065491Y-136496113D01*
X121043968Y-136497135D01*
X121023115Y-136500204D01*
X121002935Y-136505317D01*
X120983426Y-136512477D01*
X120964589Y-136521682D01*
X120946423Y-136532932D01*
X120928929Y-136546228D01*
X120912107Y-136561570D01*
X120906258Y-136568093D01*
X120894848Y-136586318D01*
X120887561Y-136605289D01*
X120882575Y-136627351D01*
X120880177Y-136648097D01*
X120879378Y-136670990D01*
X120707348Y-136670990D01*
X120705867Y-136656115D01*
X120704842Y-136636497D01*
X120704501Y-136616280D01*
X120704842Y-136600026D01*
X120706635Y-136576290D01*
X120709965Y-136553326D01*
X120714833Y-136531136D01*
X120721237Y-136509718D01*
X120729178Y-136489072D01*
X120738656Y-136469200D01*
X120749672Y-136450100D01*
X120762224Y-136431774D01*
X120776313Y-136414220D01*
X120791939Y-136397438D01*
X120803083Y-136386850D01*
X120820600Y-136372249D01*
X120839078Y-136359184D01*
X120858519Y-136347656D01*
X120878920Y-136337666D01*
X120900284Y-136329212D01*
X120922609Y-136322296D01*
X120945896Y-136316916D01*
X120970145Y-136313074D01*
X120995356Y-136310768D01*
X121021528Y-136310000D01*
X121047496Y-136310768D01*
G37*
G36*
X118610877Y-135612056D02*
G01*
X118628436Y-135620746D01*
X118633146Y-135628340D01*
X118646640Y-135651757D01*
X118659181Y-135676128D01*
X118670769Y-135701451D01*
X118681403Y-135727728D01*
X118691085Y-135754958D01*
X118697009Y-135773640D01*
X118702511Y-135792747D01*
X118707588Y-135812276D01*
X118712242Y-135832230D01*
X118716473Y-135852607D01*
X118720279Y-135873408D01*
X118723662Y-135894632D01*
X118726622Y-135916280D01*
X118693893Y-135927027D01*
X118694374Y-135954644D01*
X118695229Y-135976367D01*
X118696511Y-136000737D01*
X118698221Y-136027757D01*
X118700358Y-136057425D01*
X118702923Y-136089741D01*
X118705915Y-136124706D01*
X118709334Y-136162319D01*
X118711204Y-136182119D01*
X118713181Y-136202581D01*
X118715265Y-136223705D01*
X118717455Y-136245492D01*
X118719753Y-136267940D01*
X118722157Y-136291051D01*
X118724668Y-136314823D01*
X118727286Y-136339258D01*
X118730011Y-136364355D01*
X118732843Y-136390114D01*
X118735781Y-136416535D01*
X118738826Y-136443618D01*
X118741979Y-136471364D01*
X118745238Y-136499771D01*
X118748604Y-136528841D01*
X118752674Y-136562226D01*
X118756702Y-136595397D01*
X118760688Y-136628355D01*
X118764632Y-136661099D01*
X118768534Y-136693629D01*
X118772395Y-136725945D01*
X118776213Y-136758048D01*
X118779989Y-136789937D01*
X118783723Y-136821612D01*
X118787416Y-136853073D01*
X118791066Y-136884321D01*
X118794674Y-136915355D01*
X118798240Y-136946176D01*
X118801765Y-136976782D01*
X118805247Y-137007175D01*
X118808688Y-137037355D01*
X118812086Y-137067320D01*
X118815442Y-137097072D01*
X118818757Y-137126610D01*
X118822029Y-137155935D01*
X118825260Y-137185045D01*
X118828448Y-137213942D01*
X118831595Y-137242626D01*
X118834699Y-137271095D01*
X118837762Y-137299351D01*
X118840783Y-137327393D01*
X118843761Y-137355221D01*
X118846698Y-137382836D01*
X118849593Y-137410237D01*
X118852445Y-137437424D01*
X118855256Y-137464398D01*
X118858025Y-137491158D01*
X118857853Y-137504494D01*
X118856479Y-137529117D01*
X118853731Y-137551007D01*
X118849610Y-137570165D01*
X118842526Y-137590269D01*
X118831191Y-137608759D01*
X118814061Y-137622561D01*
X118794405Y-137634286D01*
X118772927Y-137643445D01*
X118753750Y-137647246D01*
X118734285Y-137644909D01*
X118715875Y-137633307D01*
X118683147Y-137600579D01*
X118671912Y-137425701D01*
X118663707Y-137437812D01*
X118647168Y-137460882D01*
X118630452Y-137482413D01*
X118613561Y-137502407D01*
X118596495Y-137520863D01*
X118579253Y-137537780D01*
X118561835Y-137553160D01*
X118544242Y-137567002D01*
X118526474Y-137579305D01*
X118508529Y-137590071D01*
X118490410Y-137599299D01*
X118472114Y-137606989D01*
X118444342Y-137615640D01*
X118416175Y-137620830D01*
X118387613Y-137622561D01*
X118364450Y-137621834D01*
X118341367Y-137619653D01*
X118318364Y-137616018D01*
X118295442Y-137610928D01*
X118272599Y-137604385D01*
X118249837Y-137596388D01*
X118227155Y-137586937D01*
X118204553Y-137576032D01*
X118182031Y-137563673D01*
X118159589Y-137549860D01*
X118137228Y-137534593D01*
X118114946Y-137517872D01*
X118092745Y-137499697D01*
X118070624Y-137480068D01*
X118048583Y-137458985D01*
X118026622Y-137436448D01*
X118016524Y-137425336D01*
X117997290Y-137402022D01*
X117979338Y-137377254D01*
X117962669Y-137351033D01*
X117947281Y-137323357D01*
X117933176Y-137294227D01*
X117920353Y-137263643D01*
X117908813Y-137231606D01*
X117898555Y-137198114D01*
X117889579Y-137163168D01*
X117881885Y-137126768D01*
X117875474Y-137088914D01*
X117872749Y-137069442D01*
X117870345Y-137049606D01*
X117868261Y-137029407D01*
X117866498Y-137008845D01*
X117865055Y-136987918D01*
X117863933Y-136966629D01*
X117863132Y-136944976D01*
X117862651Y-136922959D01*
X117862491Y-136900579D01*
X117862649Y-136889832D01*
X118048604Y-136889832D01*
X118048989Y-136918189D01*
X118050146Y-136945863D01*
X118052073Y-136972854D01*
X118054771Y-136999161D01*
X118058240Y-137024786D01*
X118062480Y-137049727D01*
X118067491Y-137073985D01*
X118073272Y-137097561D01*
X118079825Y-137120453D01*
X118087148Y-137142662D01*
X118095243Y-137164187D01*
X118104108Y-137185030D01*
X118113744Y-137205190D01*
X118124151Y-137224666D01*
X118135329Y-137243459D01*
X118147278Y-137261570D01*
X118153489Y-137270315D01*
X118166362Y-137286973D01*
X118179833Y-137302521D01*
X118193904Y-137316958D01*
X118208574Y-137330284D01*
X118223843Y-137342500D01*
X118247870Y-137358742D01*
X118273245Y-137372485D01*
X118299968Y-137383729D01*
X118318532Y-137389837D01*
X118337696Y-137394835D01*
X118357458Y-137398722D01*
X118377820Y-137401498D01*
X118398781Y-137403164D01*
X118420341Y-137403719D01*
X118430056Y-137403633D01*
X118450252Y-137402946D01*
X118471470Y-137401572D01*
X118493712Y-137399512D01*
X118516976Y-137396764D01*
X118541263Y-137393329D01*
X118566572Y-137389208D01*
X118586226Y-137385666D01*
X118606454Y-137381737D01*
X118609180Y-137380353D01*
X118627032Y-137370075D01*
X118644801Y-137357069D01*
X118659760Y-137342719D01*
X118671912Y-137327027D01*
X118670386Y-137295218D01*
X118668496Y-137264029D01*
X118666242Y-137233459D01*
X118663623Y-137203509D01*
X118660639Y-137174177D01*
X118657291Y-137145465D01*
X118653579Y-137117371D01*
X118649502Y-137089897D01*
X118645061Y-137063043D01*
X118640255Y-137036807D01*
X118635085Y-137011191D01*
X118629551Y-136986193D01*
X118623652Y-136961815D01*
X118617388Y-136938057D01*
X118610760Y-136914917D01*
X118603768Y-136892397D01*
X118596411Y-136870495D01*
X118588690Y-136849213D01*
X118580604Y-136828550D01*
X118572154Y-136808507D01*
X118563339Y-136789082D01*
X118554160Y-136770277D01*
X118544616Y-136752091D01*
X118534708Y-136734524D01*
X118513799Y-136701248D01*
X118491431Y-136670449D01*
X118467606Y-136642126D01*
X118442323Y-136616280D01*
X118431266Y-136605692D01*
X118414200Y-136591090D01*
X118396558Y-136578025D01*
X118378342Y-136566498D01*
X118359550Y-136556507D01*
X118340183Y-136548054D01*
X118320240Y-136541137D01*
X118299722Y-136535758D01*
X118278629Y-136531915D01*
X118256961Y-136529610D01*
X118234717Y-136528841D01*
X118226518Y-136529055D01*
X118206403Y-136531459D01*
X118186838Y-136536535D01*
X118167821Y-136544282D01*
X118149352Y-136554700D01*
X118131432Y-136567790D01*
X118114061Y-136583551D01*
X118098719Y-136602656D01*
X118088556Y-136620581D01*
X118079543Y-136641588D01*
X118071680Y-136665678D01*
X118064968Y-136692850D01*
X118061133Y-136712678D01*
X118057809Y-136733875D01*
X118054996Y-136756443D01*
X118052695Y-136780381D01*
X118050905Y-136805688D01*
X118049627Y-136832366D01*
X118048860Y-136860414D01*
X118048604Y-136889832D01*
X117862649Y-136889832D01*
X117863046Y-136862935D01*
X117864712Y-136826573D01*
X117867488Y-136791494D01*
X117871375Y-136757697D01*
X117876373Y-136725182D01*
X117882481Y-136693949D01*
X117889699Y-136663999D01*
X117898028Y-136635331D01*
X117907468Y-136607945D01*
X117918018Y-136581842D01*
X117929679Y-136557021D01*
X117942450Y-136533482D01*
X117956332Y-136511225D01*
X117971324Y-136490251D01*
X117987427Y-136470559D01*
X118004640Y-136452149D01*
X118017102Y-136440259D01*
X118036275Y-136423863D01*
X118056023Y-136409193D01*
X118076346Y-136396248D01*
X118097244Y-136385030D01*
X118118718Y-136375537D01*
X118140767Y-136367771D01*
X118163392Y-136361730D01*
X118186591Y-136357415D01*
X118210367Y-136354826D01*
X118234717Y-136353963D01*
X118248436Y-136354305D01*
X118269173Y-136356098D01*
X118290099Y-136359428D01*
X118311214Y-136364295D01*
X118332517Y-136370700D01*
X118354009Y-136378641D01*
X118375691Y-136388119D01*
X118397561Y-136399134D01*
X118419620Y-136411687D01*
X118441868Y-136425776D01*
X118464305Y-136441402D01*
X118483135Y-136457766D01*
X118501277Y-136474131D01*
X118518733Y-136490495D01*
X118535502Y-136506859D01*
X118551584Y-136523224D01*
X118566979Y-136539588D01*
X118581687Y-136555952D01*
X118595708Y-136572316D01*
X118592299Y-136543073D01*
X118588911Y-136514085D01*
X118585544Y-136485352D01*
X118582198Y-136456873D01*
X118578873Y-136428650D01*
X118575569Y-136400680D01*
X118572286Y-136372966D01*
X118569024Y-136345506D01*
X118565783Y-136318301D01*
X118562563Y-136291351D01*
X118559364Y-136264656D01*
X118556186Y-136238215D01*
X118553029Y-136212029D01*
X118549893Y-136186098D01*
X118546778Y-136160421D01*
X118543684Y-136135000D01*
X118540611Y-136109832D01*
X118537559Y-136084920D01*
X118534528Y-136060263D01*
X118531518Y-136035860D01*
X118528529Y-136011712D01*
X118525560Y-135987818D01*
X118522613Y-135964180D01*
X118519687Y-135940796D01*
X118516782Y-135917667D01*
X118513898Y-135894792D01*
X118511035Y-135872173D01*
X118508193Y-135849808D01*
X118505371Y-135827698D01*
X118502571Y-135805842D01*
X118499792Y-135784241D01*
X118497034Y-135762896D01*
X118500583Y-135741547D01*
X118505857Y-135721222D01*
X118512856Y-135701919D01*
X118521580Y-135683639D01*
X118532029Y-135666381D01*
X118544203Y-135650147D01*
X118558102Y-135634935D01*
X118573726Y-135620746D01*
X118590108Y-135611049D01*
X118610877Y-135612056D01*
G37*
G36*
X116419993Y-136386692D02*
G01*
X116413596Y-136405614D01*
X116410337Y-136426763D01*
X116409032Y-136446738D01*
X116408757Y-136462896D01*
X116413377Y-136483406D01*
X116421590Y-136506029D01*
X116430444Y-136527695D01*
X116441608Y-136553387D01*
X116450334Y-136572753D01*
X116460087Y-136593909D01*
X116470866Y-136616854D01*
X116482671Y-136641590D01*
X116495504Y-136668115D01*
X116509363Y-136696430D01*
X116524248Y-136726535D01*
X116540160Y-136758429D01*
X116555766Y-136789662D01*
X116571137Y-136820467D01*
X116586273Y-136850845D01*
X116601175Y-136880795D01*
X116615842Y-136910318D01*
X116630274Y-136939413D01*
X116644472Y-136968081D01*
X116658435Y-136996322D01*
X116672163Y-137024135D01*
X116685656Y-137051521D01*
X116698915Y-137078479D01*
X116711939Y-137105010D01*
X116724728Y-137131113D01*
X116737283Y-137156789D01*
X116749603Y-137182038D01*
X116761688Y-137206859D01*
X116773539Y-137231253D01*
X116785155Y-137255219D01*
X116796536Y-137278758D01*
X116807682Y-137301870D01*
X116818594Y-137324554D01*
X116829271Y-137346810D01*
X116839713Y-137368640D01*
X116849921Y-137390041D01*
X116859894Y-137411016D01*
X116869632Y-137431563D01*
X116879136Y-137451682D01*
X116888405Y-137471374D01*
X116897439Y-137490639D01*
X116906238Y-137509476D01*
X116914803Y-137527886D01*
X116923133Y-137545868D01*
X116931942Y-137564114D01*
X116940602Y-137581911D01*
X116957472Y-137616157D01*
X116973743Y-137648605D01*
X116989414Y-137679255D01*
X117004487Y-137708109D01*
X117018960Y-137735164D01*
X117032834Y-137760422D01*
X117046109Y-137783883D01*
X117058785Y-137805546D01*
X117070862Y-137825412D01*
X117082339Y-137843480D01*
X117093217Y-137859751D01*
X117108411Y-137880787D01*
X117122257Y-137897778D01*
X117130739Y-137906859D01*
X117147729Y-137922201D01*
X117165727Y-137935497D01*
X117184732Y-137946747D01*
X117204745Y-137955952D01*
X117225765Y-137963111D01*
X117247793Y-137968225D01*
X117270828Y-137971294D01*
X117294870Y-137972316D01*
X117318300Y-137971517D01*
X117340656Y-137969120D01*
X117361939Y-137965125D01*
X117382149Y-137959532D01*
X117401285Y-137952340D01*
X117419348Y-137943551D01*
X117426273Y-137939588D01*
X117442637Y-137928368D01*
X117459002Y-137916446D01*
X117475366Y-137903821D01*
X117491730Y-137890495D01*
X117508094Y-137876466D01*
X117524459Y-137861735D01*
X117540823Y-137846302D01*
X117557187Y-137830167D01*
X117570926Y-137813490D01*
X117581917Y-137795477D01*
X117591534Y-137776310D01*
X117599777Y-137757350D01*
X117601151Y-137753963D01*
X117577093Y-137763741D01*
X117554193Y-137772556D01*
X117532453Y-137780410D01*
X117511873Y-137787302D01*
X117492451Y-137793233D01*
X117468359Y-137799644D01*
X117446327Y-137804346D01*
X117426357Y-137807338D01*
X117404291Y-137808674D01*
X117377926Y-137810784D01*
X117352136Y-137809057D01*
X117326921Y-137803492D01*
X117302282Y-137794088D01*
X117278218Y-137780846D01*
X117254729Y-137763765D01*
X117239389Y-137750246D01*
X117224305Y-137735021D01*
X117209477Y-137718090D01*
X117194904Y-137699453D01*
X117180588Y-137679110D01*
X117166527Y-137657062D01*
X117152721Y-137633307D01*
X117140746Y-137610572D01*
X117129365Y-137588771D01*
X117118580Y-137567905D01*
X117108391Y-137547975D01*
X117098797Y-137528979D01*
X117089798Y-137510919D01*
X117077416Y-137485581D01*
X117066374Y-137462347D01*
X117056671Y-137441216D01*
X117048307Y-137422190D01*
X117039240Y-137400093D01*
X117032554Y-137381737D01*
X117043377Y-137358631D01*
X117053986Y-137335781D01*
X117064381Y-137313187D01*
X117074563Y-137290848D01*
X117084532Y-137268765D01*
X117094286Y-137246938D01*
X117103827Y-137225366D01*
X117113154Y-137204050D01*
X117122267Y-137182990D01*
X117131167Y-137162186D01*
X117139853Y-137141637D01*
X117148325Y-137121344D01*
X117156583Y-137101306D01*
X117164628Y-137081524D01*
X117172459Y-137061998D01*
X117180076Y-137042728D01*
X117187480Y-137023713D01*
X117194670Y-137004954D01*
X117201646Y-136986451D01*
X117214957Y-136950212D01*
X117227414Y-136914995D01*
X117239015Y-136880801D01*
X117249762Y-136847630D01*
X117259654Y-136815481D01*
X117268691Y-136784355D01*
X117272889Y-136769176D01*
X117279558Y-136749316D01*
X117285887Y-136730647D01*
X117294744Y-136704875D01*
X117302837Y-136681783D01*
X117310166Y-136661370D01*
X117318748Y-136638319D01*
X117325973Y-136620031D01*
X117334262Y-136601530D01*
X117338834Y-136594298D01*
X117353409Y-136578751D01*
X117369070Y-136566949D01*
X117387927Y-136556196D01*
X117409980Y-136546493D01*
X117429924Y-136539487D01*
X117451914Y-136533152D01*
X117469748Y-136528841D01*
X117489841Y-136520598D01*
X117502592Y-136505485D01*
X117487136Y-136491747D01*
X117469748Y-136484877D01*
X117453384Y-136469536D01*
X117437020Y-136456240D01*
X117420655Y-136444989D01*
X117400200Y-136433803D01*
X117379745Y-136425813D01*
X117359289Y-136421018D01*
X117338834Y-136419420D01*
X117312950Y-136418556D01*
X117288602Y-136419993D01*
X117265792Y-136423731D01*
X117244518Y-136429770D01*
X117224782Y-136438111D01*
X117206582Y-136448752D01*
X117189920Y-136461695D01*
X117174795Y-136476939D01*
X117161206Y-136494485D01*
X117149155Y-136514332D01*
X117141974Y-136528841D01*
X117135146Y-136555313D01*
X117128339Y-136581422D01*
X117121552Y-136607169D01*
X117114787Y-136632553D01*
X117108043Y-136657574D01*
X117101319Y-136682233D01*
X117094617Y-136706530D01*
X117087936Y-136730464D01*
X117081275Y-136754035D01*
X117074636Y-136777244D01*
X117068017Y-136800090D01*
X117061420Y-136822574D01*
X117054844Y-136844695D01*
X117048288Y-136866453D01*
X117041754Y-136887849D01*
X117035240Y-136908883D01*
X117028748Y-136929554D01*
X117022276Y-136949862D01*
X117015826Y-136969808D01*
X117009396Y-136989392D01*
X117002988Y-137008612D01*
X116996600Y-137027470D01*
X116990234Y-137045966D01*
X116977564Y-137081870D01*
X116964978Y-137116323D01*
X116952475Y-137149327D01*
X116940057Y-137180880D01*
X116933879Y-137196113D01*
X116923664Y-137174956D01*
X116913535Y-137153864D01*
X116903491Y-137132836D01*
X116893534Y-137111872D01*
X116883662Y-137090971D01*
X116873876Y-137070135D01*
X116864176Y-137049362D01*
X116854562Y-137028654D01*
X116845033Y-137008009D01*
X116835591Y-136987428D01*
X116826234Y-136966911D01*
X116816963Y-136946458D01*
X116807779Y-136926069D01*
X116798680Y-136905744D01*
X116789666Y-136885483D01*
X116780739Y-136865286D01*
X116771898Y-136845152D01*
X116763142Y-136825083D01*
X116754473Y-136805077D01*
X116745889Y-136785136D01*
X116737391Y-136765258D01*
X116728979Y-136745444D01*
X116720653Y-136725695D01*
X116712412Y-136706009D01*
X116704258Y-136686387D01*
X116696189Y-136666829D01*
X116688206Y-136647335D01*
X116680310Y-136627904D01*
X116672499Y-136608538D01*
X116664773Y-136589236D01*
X116657134Y-136569997D01*
X116649581Y-136550823D01*
X116651092Y-136531245D01*
X116654660Y-136510208D01*
X116659026Y-136490287D01*
X116660327Y-136484877D01*
X116645627Y-136465987D01*
X116628881Y-136447417D01*
X116610090Y-136429167D01*
X116594654Y-136415690D01*
X116578067Y-136402394D01*
X116560330Y-136389278D01*
X116541442Y-136376342D01*
X116521404Y-136363586D01*
X116500215Y-136351011D01*
X116485450Y-136342728D01*
X116419993Y-136386692D01*
G37*
G36*
X114074881Y-135647147D02*
G01*
X114094503Y-135654360D01*
X114113852Y-135664710D01*
X114118767Y-135685196D01*
X114121532Y-135705970D01*
X114123232Y-135726823D01*
X114124385Y-135750897D01*
X114124911Y-135772474D01*
X114125087Y-135796113D01*
X114153519Y-135865885D01*
X114181417Y-135934398D01*
X114208782Y-136001650D01*
X114235614Y-136067642D01*
X114261913Y-136132373D01*
X114287678Y-136195845D01*
X114312910Y-136258055D01*
X114337609Y-136319006D01*
X114361774Y-136378696D01*
X114385406Y-136437126D01*
X114408504Y-136494296D01*
X114431070Y-136550205D01*
X114453102Y-136604854D01*
X114474600Y-136658242D01*
X114495565Y-136710370D01*
X114515997Y-136761238D01*
X114535896Y-136810846D01*
X114555261Y-136859193D01*
X114574093Y-136906280D01*
X114592392Y-136952106D01*
X114610157Y-136996673D01*
X114627389Y-137039978D01*
X114644088Y-137082024D01*
X114660253Y-137122809D01*
X114675885Y-137162334D01*
X114690984Y-137200599D01*
X114705549Y-137237603D01*
X114719581Y-137273347D01*
X114733080Y-137307830D01*
X114746046Y-137341054D01*
X114758478Y-137373016D01*
X114770376Y-137403719D01*
X114770365Y-137410504D01*
X114770201Y-137430219D01*
X114769674Y-137455010D01*
X114768796Y-137478091D01*
X114767568Y-137499462D01*
X114765538Y-137523772D01*
X114762959Y-137545410D01*
X114759141Y-137567850D01*
X114758630Y-137581184D01*
X114755274Y-137602866D01*
X114748786Y-137622444D01*
X114739165Y-137639918D01*
X114726413Y-137655289D01*
X114724335Y-137657898D01*
X114705414Y-137668736D01*
X114685502Y-137663593D01*
X114669361Y-137651562D01*
X114655298Y-137636923D01*
X114640213Y-137617826D01*
X114628227Y-137600579D01*
X114619314Y-137578044D01*
X114609062Y-137551474D01*
X114601482Y-137531519D01*
X114593308Y-137509770D01*
X114584538Y-137486227D01*
X114575173Y-137460891D01*
X114565212Y-137433761D01*
X114554656Y-137404837D01*
X114543505Y-137374120D01*
X114531759Y-137341609D01*
X114519417Y-137307304D01*
X114506480Y-137271206D01*
X114499788Y-137252484D01*
X114492947Y-137233314D01*
X114485957Y-137213695D01*
X114478819Y-137193628D01*
X114471532Y-137173113D01*
X114464096Y-137152149D01*
X114457066Y-137170124D01*
X114443964Y-137189222D01*
X114426068Y-137204575D01*
X114408300Y-137214162D01*
X114387463Y-137221352D01*
X114363557Y-137226145D01*
X114343615Y-137228167D01*
X114321946Y-137228841D01*
X114302306Y-137228286D01*
X114281730Y-137226620D01*
X114260220Y-137223844D01*
X114237774Y-137219957D01*
X114214394Y-137214959D01*
X114190078Y-137208851D01*
X114164828Y-137201633D01*
X114138642Y-137193304D01*
X114111522Y-137183864D01*
X114083466Y-137173314D01*
X114054476Y-137161653D01*
X114024550Y-137148882D01*
X113993690Y-137135000D01*
X113961894Y-137120008D01*
X113929164Y-137103905D01*
X113895498Y-137086692D01*
X113893455Y-137102319D01*
X113889562Y-137132994D01*
X113885929Y-137162898D01*
X113882555Y-137192032D01*
X113879441Y-137220395D01*
X113876587Y-137247986D01*
X113873992Y-137274807D01*
X113871656Y-137300857D01*
X113869580Y-137326137D01*
X113867764Y-137350645D01*
X113866206Y-137374382D01*
X113864909Y-137397349D01*
X113863871Y-137419544D01*
X113863092Y-137440969D01*
X113862573Y-137461623D01*
X113862281Y-137491158D01*
X113852754Y-137510991D01*
X113843223Y-137529458D01*
X113833688Y-137546559D01*
X113819378Y-137569649D01*
X113805060Y-137589664D01*
X113790733Y-137606606D01*
X113771617Y-137624412D01*
X113752486Y-137636754D01*
X113733340Y-137643631D01*
X113709385Y-137644542D01*
X113695680Y-137643675D01*
X113675833Y-137638375D01*
X113656959Y-137625656D01*
X113645350Y-137609756D01*
X113637486Y-137589038D01*
X113633891Y-137568995D01*
X113632693Y-137545868D01*
X113635564Y-137523032D01*
X113638327Y-137502890D01*
X113641769Y-137478813D01*
X113645891Y-137450801D01*
X113650692Y-137418855D01*
X113656172Y-137382974D01*
X113659167Y-137363558D01*
X113662331Y-137343159D01*
X113665666Y-137321775D01*
X113669170Y-137299409D01*
X113672844Y-137276058D01*
X113676688Y-137251724D01*
X113680702Y-137226406D01*
X113684886Y-137200105D01*
X113689239Y-137172820D01*
X113693762Y-137144551D01*
X113698456Y-137115299D01*
X113703318Y-137085063D01*
X113708351Y-137053843D01*
X113713554Y-137021640D01*
X113718926Y-136988453D01*
X113724468Y-136954282D01*
X113727876Y-136933307D01*
X113928227Y-136933307D01*
X113944679Y-136939932D01*
X113969686Y-136949069D01*
X113995088Y-136957243D01*
X114020886Y-136964456D01*
X114047078Y-136970707D01*
X114073665Y-136975996D01*
X114100647Y-136980324D01*
X114128024Y-136983690D01*
X114155796Y-136986094D01*
X114183964Y-136987537D01*
X114212526Y-136988018D01*
X114234561Y-136988018D01*
X114256947Y-136988018D01*
X114279685Y-136988018D01*
X114302773Y-136988018D01*
X114326213Y-136988018D01*
X114350004Y-136988018D01*
X114374146Y-136988018D01*
X114398639Y-136988018D01*
X114384366Y-136946111D01*
X114370308Y-136905145D01*
X114356465Y-136865118D01*
X114342837Y-136826031D01*
X114329423Y-136787884D01*
X114316224Y-136750677D01*
X114303239Y-136714409D01*
X114290470Y-136679081D01*
X114277915Y-136644693D01*
X114265574Y-136611244D01*
X114253448Y-136578736D01*
X114241537Y-136547167D01*
X114229841Y-136516538D01*
X114218359Y-136486848D01*
X114207092Y-136458099D01*
X114196039Y-136430289D01*
X114185201Y-136403419D01*
X114174578Y-136377489D01*
X114164170Y-136352498D01*
X114153976Y-136328447D01*
X114143997Y-136305336D01*
X114134232Y-136283165D01*
X114124683Y-136261934D01*
X114115348Y-136241642D01*
X114106227Y-136222290D01*
X114097321Y-136203878D01*
X114080154Y-136169873D01*
X114063845Y-136139627D01*
X114048394Y-136113140D01*
X114042983Y-136144404D01*
X114037678Y-136175305D01*
X114032481Y-136205843D01*
X114027390Y-136236017D01*
X114022406Y-136265827D01*
X114017528Y-136295274D01*
X114012758Y-136324358D01*
X114008094Y-136353078D01*
X114003538Y-136381434D01*
X113999088Y-136409427D01*
X113994745Y-136437057D01*
X113990509Y-136464323D01*
X113986380Y-136491225D01*
X113982357Y-136517764D01*
X113978442Y-136543940D01*
X113974633Y-136569752D01*
X113970931Y-136595200D01*
X113967336Y-136620285D01*
X113963848Y-136645007D01*
X113960467Y-136669365D01*
X113957193Y-136693359D01*
X113954025Y-136716990D01*
X113950964Y-136740258D01*
X113948011Y-136763162D01*
X113945164Y-136785702D01*
X113942424Y-136807879D01*
X113939790Y-136829692D01*
X113937264Y-136851142D01*
X113934844Y-136872229D01*
X113932532Y-136892952D01*
X113930326Y-136913311D01*
X113928227Y-136933307D01*
X113727876Y-136933307D01*
X113730180Y-136919128D01*
X113736062Y-136882990D01*
X113742114Y-136845868D01*
X113748281Y-136808392D01*
X113754446Y-136771128D01*
X113760611Y-136734077D01*
X113766775Y-136697239D01*
X113772938Y-136660613D01*
X113779100Y-136624201D01*
X113785260Y-136588001D01*
X113791420Y-136552014D01*
X113797579Y-136516239D01*
X113803738Y-136480678D01*
X113809895Y-136445329D01*
X113816051Y-136410192D01*
X113822206Y-136375269D01*
X113828360Y-136340558D01*
X113834514Y-136306061D01*
X113840666Y-136271775D01*
X113846817Y-136237703D01*
X113852968Y-136203844D01*
X113859117Y-136170197D01*
X113865266Y-136136763D01*
X113871413Y-136103541D01*
X113877560Y-136070533D01*
X113883706Y-136037737D01*
X113889850Y-136005154D01*
X113895994Y-135972784D01*
X113902137Y-135940626D01*
X113908279Y-135908681D01*
X113914420Y-135876949D01*
X113920560Y-135845430D01*
X113926699Y-135814124D01*
X113932837Y-135783030D01*
X113938974Y-135752149D01*
X114037648Y-135653963D01*
X114054325Y-135645567D01*
X114074881Y-135647147D01*
G37*
G36*
X112677814Y-136332878D02*
G01*
X112705746Y-136335569D01*
X112733166Y-136340053D01*
X112760075Y-136346331D01*
X112786472Y-136354402D01*
X112812358Y-136364267D01*
X112837732Y-136375926D01*
X112862595Y-136389378D01*
X112886947Y-136404625D01*
X112910788Y-136421664D01*
X112934117Y-136440498D01*
X112956934Y-136461125D01*
X112979240Y-136483545D01*
X113001035Y-136507760D01*
X113022319Y-136533768D01*
X113043091Y-136561570D01*
X113064226Y-136590568D01*
X113083910Y-136620165D01*
X113102144Y-136650361D01*
X113118928Y-136681157D01*
X113134262Y-136712552D01*
X113148146Y-136744546D01*
X113160579Y-136777139D01*
X113171563Y-136810331D01*
X113181096Y-136844122D01*
X113189179Y-136878513D01*
X113195811Y-136913503D01*
X113200994Y-136949091D01*
X113204726Y-136985279D01*
X113207008Y-137022067D01*
X113207840Y-137059453D01*
X113207222Y-137097438D01*
X113206667Y-137134997D01*
X113205001Y-137171101D01*
X113202225Y-137205751D01*
X113198338Y-137238947D01*
X113193340Y-137270689D01*
X113187232Y-137300977D01*
X113180014Y-137329811D01*
X113171685Y-137357191D01*
X113162245Y-137383117D01*
X113151695Y-137407589D01*
X113140034Y-137430607D01*
X113127263Y-137452171D01*
X113113381Y-137472281D01*
X113098389Y-137490937D01*
X113082286Y-137508139D01*
X113065073Y-137523886D01*
X113049966Y-137537137D01*
X113026984Y-137555409D01*
X113003615Y-137571758D01*
X112979860Y-137586184D01*
X112955719Y-137598686D01*
X112931191Y-137609265D01*
X112906277Y-137617920D01*
X112880976Y-137624652D01*
X112855289Y-137629460D01*
X112829216Y-137632346D01*
X112802756Y-137633307D01*
X112777130Y-137630006D01*
X112752274Y-137625598D01*
X112728189Y-137620084D01*
X112704876Y-137613463D01*
X112682333Y-137605735D01*
X112660561Y-137596900D01*
X112639560Y-137586958D01*
X112619330Y-137575910D01*
X112599870Y-137563755D01*
X112581182Y-137550494D01*
X112563264Y-137536125D01*
X112546118Y-137520650D01*
X112529742Y-137504068D01*
X112514137Y-137486380D01*
X112499303Y-137467585D01*
X112485240Y-137447683D01*
X112475825Y-137435093D01*
X112462347Y-137415249D01*
X112449642Y-137394255D01*
X112437709Y-137372110D01*
X112426549Y-137348814D01*
X112416162Y-137324368D01*
X112406548Y-137298771D01*
X112397707Y-137272023D01*
X112389638Y-137244125D01*
X112384689Y-137224887D01*
X112380082Y-137205138D01*
X112375819Y-137184877D01*
X112373045Y-137159842D01*
X112370095Y-137133953D01*
X112366969Y-137107208D01*
X112363668Y-137079609D01*
X112360192Y-137051154D01*
X112356540Y-137021845D01*
X112352712Y-136991681D01*
X112348709Y-136960662D01*
X112344530Y-136928789D01*
X112340175Y-136896060D01*
X112335645Y-136862477D01*
X112333376Y-136845868D01*
X112430530Y-136845868D01*
X112431043Y-136869131D01*
X112432583Y-136892389D01*
X112435149Y-136915644D01*
X112438743Y-136938894D01*
X112443362Y-136962141D01*
X112449008Y-136985384D01*
X112455681Y-137008624D01*
X112463381Y-137031859D01*
X112472106Y-137055091D01*
X112481859Y-137078319D01*
X112492638Y-137101543D01*
X112504444Y-137124763D01*
X112517276Y-137147980D01*
X112531135Y-137171192D01*
X112546020Y-137194401D01*
X112561933Y-137217606D01*
X112578356Y-137237481D01*
X112594776Y-137256074D01*
X112611191Y-137273385D01*
X112627603Y-137289413D01*
X112644011Y-137304159D01*
X112660416Y-137317623D01*
X112676816Y-137329805D01*
X112701410Y-137345673D01*
X112725995Y-137358656D01*
X112750571Y-137368754D01*
X112775139Y-137375967D01*
X112799699Y-137380295D01*
X112824249Y-137381737D01*
X112848020Y-137377139D01*
X112870056Y-137371588D01*
X112890358Y-137365083D01*
X112908925Y-137357626D01*
X112930983Y-137346200D01*
X112949958Y-137333079D01*
X112965849Y-137318265D01*
X112978657Y-137301755D01*
X112988381Y-137283551D01*
X112994229Y-137266770D01*
X113001133Y-137243193D01*
X113007014Y-137218242D01*
X113010754Y-137198627D01*
X113013918Y-137178240D01*
X113016507Y-137157079D01*
X113018520Y-137135146D01*
X113019958Y-137112440D01*
X113020821Y-137088961D01*
X113021109Y-137064710D01*
X113020726Y-137041490D01*
X113019575Y-137018357D01*
X113017657Y-136995312D01*
X113014972Y-136972356D01*
X113011521Y-136949486D01*
X113007302Y-136926705D01*
X113002316Y-136904011D01*
X112996563Y-136881406D01*
X112990043Y-136858888D01*
X112982755Y-136836457D01*
X112974701Y-136814115D01*
X112965880Y-136791860D01*
X112956291Y-136769693D01*
X112945936Y-136747614D01*
X112934813Y-136725623D01*
X112922923Y-136703719D01*
X112909160Y-136681226D01*
X112895225Y-136660274D01*
X112881118Y-136640865D01*
X112866839Y-136622997D01*
X112852389Y-136606671D01*
X112837767Y-136591886D01*
X112822973Y-136578644D01*
X112800460Y-136561671D01*
X112777561Y-136548167D01*
X112754275Y-136538132D01*
X112730603Y-136531566D01*
X112706545Y-136528469D01*
X112682100Y-136528841D01*
X112667249Y-136529269D01*
X112645609Y-136531512D01*
X112624733Y-136535680D01*
X112604622Y-136541771D01*
X112585275Y-136549785D01*
X112566692Y-136559723D01*
X112548873Y-136571584D01*
X112531819Y-136585368D01*
X112515528Y-136601076D01*
X112500002Y-136618707D01*
X112485240Y-136638262D01*
X112478615Y-136648003D01*
X112466647Y-136668779D01*
X112456389Y-136691280D01*
X112447841Y-136715506D01*
X112442551Y-136734807D01*
X112438224Y-136755079D01*
X112434858Y-136776321D01*
X112432453Y-136798533D01*
X112431011Y-136821715D01*
X112430530Y-136845868D01*
X112333376Y-136845868D01*
X112330940Y-136828039D01*
X112326059Y-136792745D01*
X112321002Y-136756598D01*
X112315770Y-136719595D01*
X112310362Y-136681737D01*
X112310704Y-136661520D01*
X112312497Y-136632318D01*
X112315827Y-136604465D01*
X112320695Y-136577959D01*
X112327099Y-136552802D01*
X112335040Y-136528992D01*
X112344518Y-136506531D01*
X112355533Y-136485418D01*
X112368086Y-136465653D01*
X112382175Y-136447236D01*
X112397801Y-136430167D01*
X112403341Y-136424126D01*
X112420859Y-136407155D01*
X112439726Y-136391909D01*
X112459940Y-136378389D01*
X112481503Y-136366596D01*
X112504413Y-136356528D01*
X112528672Y-136348186D01*
X112554279Y-136341570D01*
X112581234Y-136336680D01*
X112609537Y-136333516D01*
X112629155Y-136332365D01*
X112649371Y-136331981D01*
X112677814Y-136332878D01*
G37*
G36*
X111349023Y-136375457D02*
G01*
X111341069Y-136399438D01*
X111333818Y-136422046D01*
X111327270Y-136443280D01*
X111321423Y-136463140D01*
X111315102Y-136486033D01*
X111309879Y-136506779D01*
X111305059Y-136528841D01*
X111300871Y-136551555D01*
X111298510Y-136572301D01*
X111296673Y-136596816D01*
X111295582Y-136619141D01*
X111294826Y-136643879D01*
X111294480Y-136664014D01*
X111294323Y-136685507D01*
X111294312Y-136692972D01*
X111315806Y-136867850D01*
X111318595Y-136895161D01*
X111321469Y-136922385D01*
X111324427Y-136949521D01*
X111327468Y-136976569D01*
X111330594Y-137003529D01*
X111333803Y-137030401D01*
X111337097Y-137057186D01*
X111340474Y-137083883D01*
X111343935Y-137110492D01*
X111347481Y-137137013D01*
X111351110Y-137163447D01*
X111354823Y-137189793D01*
X111358621Y-137216051D01*
X111362502Y-137242221D01*
X111366467Y-137268303D01*
X111370516Y-137294298D01*
X111374645Y-137314792D01*
X111375964Y-137336566D01*
X111371911Y-137357060D01*
X111359412Y-137373198D01*
X111338545Y-137380969D01*
X111327041Y-137381737D01*
X111306182Y-137380938D01*
X111284823Y-137378541D01*
X111262963Y-137374546D01*
X111240602Y-137368953D01*
X111217740Y-137361761D01*
X111199089Y-137354858D01*
X111184891Y-137349009D01*
X111168413Y-137337789D01*
X111151949Y-137325867D01*
X111135501Y-137313242D01*
X111119068Y-137299916D01*
X111102650Y-137285887D01*
X111086248Y-137271156D01*
X111069861Y-137255723D01*
X111053489Y-137239588D01*
X111034957Y-137229360D01*
X111019129Y-137240994D01*
X111019139Y-137260906D01*
X111020760Y-137272316D01*
X111027813Y-137292619D01*
X111035293Y-137312494D01*
X111043200Y-137331942D01*
X111051535Y-137350963D01*
X111060297Y-137369556D01*
X111069487Y-137387721D01*
X111079104Y-137405459D01*
X111089148Y-137422770D01*
X111099620Y-137439653D01*
X111110519Y-137456109D01*
X111121846Y-137472137D01*
X111139638Y-137495379D01*
X111158391Y-137517658D01*
X111178106Y-137538976D01*
X111184891Y-137545868D01*
X111203400Y-137563502D01*
X111222106Y-137579402D01*
X111241009Y-137593567D01*
X111260110Y-137605998D01*
X111279409Y-137616694D01*
X111298905Y-137625656D01*
X111318599Y-137632883D01*
X111338490Y-137638375D01*
X111358578Y-137642133D01*
X111378864Y-137644157D01*
X111392498Y-137644542D01*
X111412636Y-137642997D01*
X111432019Y-137638360D01*
X111450647Y-137630632D01*
X111468518Y-137619813D01*
X111485634Y-137605902D01*
X111491172Y-137600579D01*
X111504790Y-137585241D01*
X111517069Y-137567989D01*
X111528009Y-137548823D01*
X111537609Y-137527741D01*
X111545869Y-137504744D01*
X111552790Y-137479833D01*
X111558371Y-137453007D01*
X111562613Y-137424266D01*
X111564697Y-137404041D01*
X111566185Y-137382966D01*
X111567078Y-137361039D01*
X111567376Y-137338262D01*
X111566696Y-137312983D01*
X111565295Y-137289535D01*
X111563130Y-137262241D01*
X111561262Y-137241908D01*
X111559054Y-137219865D01*
X111556507Y-137196113D01*
X111553620Y-137170650D01*
X111550393Y-137143478D01*
X111546827Y-137114596D01*
X111542921Y-137084005D01*
X111538675Y-137051704D01*
X111534090Y-137017693D01*
X111529165Y-136981973D01*
X111523900Y-136944542D01*
X111521855Y-136924144D01*
X111519809Y-136903981D01*
X111517764Y-136884054D01*
X111515718Y-136864362D01*
X111513673Y-136844906D01*
X111509582Y-136806701D01*
X111505491Y-136769439D01*
X111501400Y-136733119D01*
X111497308Y-136697742D01*
X111493217Y-136663308D01*
X111489126Y-136629816D01*
X111485035Y-136597267D01*
X111480944Y-136565660D01*
X111476853Y-136534996D01*
X111472762Y-136505275D01*
X111468671Y-136476496D01*
X111464580Y-136448660D01*
X111460489Y-136421767D01*
X111458443Y-136408674D01*
X111448185Y-136382318D01*
X111437927Y-136360771D01*
X111427669Y-136344033D01*
X111413991Y-136329195D01*
X111393475Y-136322967D01*
X111376378Y-136332470D01*
X111362700Y-136349689D01*
X111352442Y-136368213D01*
X111349023Y-136375457D01*
G37*
G36*
X111315806Y-135675457D02*
G01*
X111302647Y-135694286D01*
X111290526Y-135712429D01*
X111279444Y-135729885D01*
X111269399Y-135746653D01*
X111258303Y-135766648D01*
X111248830Y-135785570D01*
X111239602Y-135806859D01*
X111231037Y-135825556D01*
X111223824Y-135845607D01*
X111218994Y-135866485D01*
X111217620Y-135883551D01*
X111218294Y-135905894D01*
X111220316Y-135927859D01*
X111223686Y-135949446D01*
X111228405Y-135970655D01*
X111234471Y-135991486D01*
X111241886Y-136011939D01*
X111250648Y-136032015D01*
X111260759Y-136051713D01*
X111272218Y-136071033D01*
X111285025Y-136089975D01*
X111294312Y-136102393D01*
X111313592Y-136107431D01*
X111334486Y-136107011D01*
X111354362Y-136103652D01*
X111359769Y-136102393D01*
X111377305Y-136086297D01*
X111392908Y-136070983D01*
X111406579Y-136056450D01*
X111421803Y-136038288D01*
X111433591Y-136021516D01*
X111443497Y-136002503D01*
X111448300Y-135982554D01*
X111447208Y-135970990D01*
X111440413Y-135951905D01*
X111433706Y-135932995D01*
X111427087Y-135914261D01*
X111420555Y-135895703D01*
X111410922Y-135868194D01*
X111401487Y-135841080D01*
X111392249Y-135814361D01*
X111383209Y-135788037D01*
X111374366Y-135762108D01*
X111365721Y-135736575D01*
X111357273Y-135711436D01*
X111349023Y-135686692D01*
X111345779Y-135666704D01*
X111325375Y-135667101D01*
X111315806Y-135675457D01*
G37*
D11*
X155654152Y-115745733D02*
X155709790Y-115801372D01*
X155709790Y-115801372D02*
X155876704Y-115857010D01*
X155876704Y-115857010D02*
X155987980Y-115857010D01*
X155987980Y-115857010D02*
X156154895Y-115801372D01*
X156154895Y-115801372D02*
X156266171Y-115690095D01*
X156266171Y-115690095D02*
X156321809Y-115578819D01*
X156321809Y-115578819D02*
X156377447Y-115356267D01*
X156377447Y-115356267D02*
X156377447Y-115189352D01*
X156377447Y-115189352D02*
X156321809Y-114966800D01*
X156321809Y-114966800D02*
X156266171Y-114855524D01*
X156266171Y-114855524D02*
X156154895Y-114744248D01*
X156154895Y-114744248D02*
X155987980Y-114688610D01*
X155987980Y-114688610D02*
X155876704Y-114688610D01*
X155876704Y-114688610D02*
X155709790Y-114744248D01*
X155709790Y-114744248D02*
X155654152Y-114799886D01*
X154597028Y-114688610D02*
X155153409Y-114688610D01*
X155153409Y-114688610D02*
X155209047Y-115244991D01*
X155209047Y-115244991D02*
X155153409Y-115189352D01*
X155153409Y-115189352D02*
X155042133Y-115133714D01*
X155042133Y-115133714D02*
X154763942Y-115133714D01*
X154763942Y-115133714D02*
X154652666Y-115189352D01*
X154652666Y-115189352D02*
X154597028Y-115244991D01*
X154597028Y-115244991D02*
X154541390Y-115356267D01*
X154541390Y-115356267D02*
X154541390Y-115634457D01*
X154541390Y-115634457D02*
X154597028Y-115745733D01*
X154597028Y-115745733D02*
X154652666Y-115801372D01*
X154652666Y-115801372D02*
X154763942Y-115857010D01*
X154763942Y-115857010D02*
X155042133Y-115857010D01*
X155042133Y-115857010D02*
X155153409Y-115801372D01*
X155153409Y-115801372D02*
X155209047Y-115745733D01*
D12*
%TO.C,0.1\u03BC*%
X163001485Y-103251085D02*
X162957371Y-103251085D01*
X162957371Y-103251085D02*
X162913257Y-103273142D01*
X162913257Y-103273142D02*
X162891200Y-103295199D01*
X162891200Y-103295199D02*
X162869142Y-103339313D01*
X162869142Y-103339313D02*
X162847085Y-103427542D01*
X162847085Y-103427542D02*
X162847085Y-103537828D01*
X162847085Y-103537828D02*
X162869142Y-103626056D01*
X162869142Y-103626056D02*
X162891200Y-103670170D01*
X162891200Y-103670170D02*
X162913257Y-103692228D01*
X162913257Y-103692228D02*
X162957371Y-103714285D01*
X162957371Y-103714285D02*
X163001485Y-103714285D01*
X163001485Y-103714285D02*
X163045600Y-103692228D01*
X163045600Y-103692228D02*
X163067657Y-103670170D01*
X163067657Y-103670170D02*
X163089714Y-103626056D01*
X163089714Y-103626056D02*
X163111771Y-103537828D01*
X163111771Y-103537828D02*
X163111771Y-103427542D01*
X163111771Y-103427542D02*
X163089714Y-103339313D01*
X163089714Y-103339313D02*
X163067657Y-103295199D01*
X163067657Y-103295199D02*
X163045600Y-103273142D01*
X163045600Y-103273142D02*
X163001485Y-103251085D01*
X162648571Y-103670170D02*
X162626514Y-103692228D01*
X162626514Y-103692228D02*
X162648571Y-103714285D01*
X162648571Y-103714285D02*
X162670628Y-103692228D01*
X162670628Y-103692228D02*
X162648571Y-103670170D01*
X162648571Y-103670170D02*
X162648571Y-103714285D01*
X162185371Y-103714285D02*
X162450057Y-103714285D01*
X162317714Y-103714285D02*
X162317714Y-103251085D01*
X162317714Y-103251085D02*
X162361828Y-103317256D01*
X162361828Y-103317256D02*
X162405943Y-103361370D01*
X162405943Y-103361370D02*
X162450057Y-103383428D01*
X161986857Y-103405485D02*
X161986857Y-103868685D01*
X161766285Y-103648113D02*
X161744228Y-103692228D01*
X161744228Y-103692228D02*
X161700114Y-103714285D01*
X161986857Y-103648113D02*
X161964800Y-103692228D01*
X161964800Y-103692228D02*
X161920685Y-103714285D01*
X161920685Y-103714285D02*
X161832457Y-103714285D01*
X161832457Y-103714285D02*
X161788343Y-103692228D01*
X161788343Y-103692228D02*
X161766285Y-103648113D01*
X161766285Y-103648113D02*
X161766285Y-103405485D01*
%TO.C,C1*%
X172438628Y-101070170D02*
X172460685Y-101092228D01*
X172460685Y-101092228D02*
X172526857Y-101114285D01*
X172526857Y-101114285D02*
X172570971Y-101114285D01*
X172570971Y-101114285D02*
X172637142Y-101092228D01*
X172637142Y-101092228D02*
X172681257Y-101048113D01*
X172681257Y-101048113D02*
X172703314Y-101003999D01*
X172703314Y-101003999D02*
X172725371Y-100915770D01*
X172725371Y-100915770D02*
X172725371Y-100849599D01*
X172725371Y-100849599D02*
X172703314Y-100761370D01*
X172703314Y-100761370D02*
X172681257Y-100717256D01*
X172681257Y-100717256D02*
X172637142Y-100673142D01*
X172637142Y-100673142D02*
X172570971Y-100651085D01*
X172570971Y-100651085D02*
X172526857Y-100651085D01*
X172526857Y-100651085D02*
X172460685Y-100673142D01*
X172460685Y-100673142D02*
X172438628Y-100695199D01*
X171997485Y-101114285D02*
X172262171Y-101114285D01*
X172129828Y-101114285D02*
X172129828Y-100651085D01*
X172129828Y-100651085D02*
X172173942Y-100717256D01*
X172173942Y-100717256D02*
X172218057Y-100761370D01*
X172218057Y-100761370D02*
X172262171Y-100783428D01*
%TO.C,C2*%
X172438628Y-102470170D02*
X172460685Y-102492228D01*
X172460685Y-102492228D02*
X172526857Y-102514285D01*
X172526857Y-102514285D02*
X172570971Y-102514285D01*
X172570971Y-102514285D02*
X172637142Y-102492228D01*
X172637142Y-102492228D02*
X172681257Y-102448113D01*
X172681257Y-102448113D02*
X172703314Y-102403999D01*
X172703314Y-102403999D02*
X172725371Y-102315770D01*
X172725371Y-102315770D02*
X172725371Y-102249599D01*
X172725371Y-102249599D02*
X172703314Y-102161370D01*
X172703314Y-102161370D02*
X172681257Y-102117256D01*
X172681257Y-102117256D02*
X172637142Y-102073142D01*
X172637142Y-102073142D02*
X172570971Y-102051085D01*
X172570971Y-102051085D02*
X172526857Y-102051085D01*
X172526857Y-102051085D02*
X172460685Y-102073142D01*
X172460685Y-102073142D02*
X172438628Y-102095199D01*
X172262171Y-102095199D02*
X172240114Y-102073142D01*
X172240114Y-102073142D02*
X172196000Y-102051085D01*
X172196000Y-102051085D02*
X172085714Y-102051085D01*
X172085714Y-102051085D02*
X172041600Y-102073142D01*
X172041600Y-102073142D02*
X172019542Y-102095199D01*
X172019542Y-102095199D02*
X171997485Y-102139313D01*
X171997485Y-102139313D02*
X171997485Y-102183428D01*
X171997485Y-102183428D02*
X172019542Y-102249599D01*
X172019542Y-102249599D02*
X172284228Y-102514285D01*
X172284228Y-102514285D02*
X171997485Y-102514285D01*
%TO.C,C3*%
X170438628Y-101070170D02*
X170460685Y-101092228D01*
X170460685Y-101092228D02*
X170526857Y-101114285D01*
X170526857Y-101114285D02*
X170570971Y-101114285D01*
X170570971Y-101114285D02*
X170637142Y-101092228D01*
X170637142Y-101092228D02*
X170681257Y-101048113D01*
X170681257Y-101048113D02*
X170703314Y-101003999D01*
X170703314Y-101003999D02*
X170725371Y-100915770D01*
X170725371Y-100915770D02*
X170725371Y-100849599D01*
X170725371Y-100849599D02*
X170703314Y-100761370D01*
X170703314Y-100761370D02*
X170681257Y-100717256D01*
X170681257Y-100717256D02*
X170637142Y-100673142D01*
X170637142Y-100673142D02*
X170570971Y-100651085D01*
X170570971Y-100651085D02*
X170526857Y-100651085D01*
X170526857Y-100651085D02*
X170460685Y-100673142D01*
X170460685Y-100673142D02*
X170438628Y-100695199D01*
X170284228Y-100651085D02*
X169997485Y-100651085D01*
X169997485Y-100651085D02*
X170151885Y-100827542D01*
X170151885Y-100827542D02*
X170085714Y-100827542D01*
X170085714Y-100827542D02*
X170041600Y-100849599D01*
X170041600Y-100849599D02*
X170019542Y-100871656D01*
X170019542Y-100871656D02*
X169997485Y-100915770D01*
X169997485Y-100915770D02*
X169997485Y-101026056D01*
X169997485Y-101026056D02*
X170019542Y-101070170D01*
X170019542Y-101070170D02*
X170041600Y-101092228D01*
X170041600Y-101092228D02*
X170085714Y-101114285D01*
X170085714Y-101114285D02*
X170218057Y-101114285D01*
X170218057Y-101114285D02*
X170262171Y-101092228D01*
X170262171Y-101092228D02*
X170284228Y-101070170D01*
%TO.C,C4*%
X170438628Y-102470170D02*
X170460685Y-102492228D01*
X170460685Y-102492228D02*
X170526857Y-102514285D01*
X170526857Y-102514285D02*
X170570971Y-102514285D01*
X170570971Y-102514285D02*
X170637142Y-102492228D01*
X170637142Y-102492228D02*
X170681257Y-102448113D01*
X170681257Y-102448113D02*
X170703314Y-102403999D01*
X170703314Y-102403999D02*
X170725371Y-102315770D01*
X170725371Y-102315770D02*
X170725371Y-102249599D01*
X170725371Y-102249599D02*
X170703314Y-102161370D01*
X170703314Y-102161370D02*
X170681257Y-102117256D01*
X170681257Y-102117256D02*
X170637142Y-102073142D01*
X170637142Y-102073142D02*
X170570971Y-102051085D01*
X170570971Y-102051085D02*
X170526857Y-102051085D01*
X170526857Y-102051085D02*
X170460685Y-102073142D01*
X170460685Y-102073142D02*
X170438628Y-102095199D01*
X170041600Y-102205485D02*
X170041600Y-102514285D01*
X170151885Y-102029028D02*
X170262171Y-102359885D01*
X170262171Y-102359885D02*
X169975428Y-102359885D01*
D13*
%TO.C,R2*%
X160375703Y-98644285D02*
X160767879Y-98084033D01*
X161048005Y-98644285D02*
X161048005Y-97467757D01*
X161048005Y-97467757D02*
X160599804Y-97467757D01*
X160599804Y-97467757D02*
X160487753Y-97523782D01*
X160487753Y-97523782D02*
X160431728Y-97579807D01*
X160431728Y-97579807D02*
X160375703Y-97691857D01*
X160375703Y-97691857D02*
X160375703Y-97859933D01*
X160375703Y-97859933D02*
X160431728Y-97971983D01*
X160431728Y-97971983D02*
X160487753Y-98028008D01*
X160487753Y-98028008D02*
X160599804Y-98084033D01*
X160599804Y-98084033D02*
X161048005Y-98084033D01*
X159927502Y-97579807D02*
X159871477Y-97523782D01*
X159871477Y-97523782D02*
X159759427Y-97467757D01*
X159759427Y-97467757D02*
X159479301Y-97467757D01*
X159479301Y-97467757D02*
X159367251Y-97523782D01*
X159367251Y-97523782D02*
X159311225Y-97579807D01*
X159311225Y-97579807D02*
X159255200Y-97691857D01*
X159255200Y-97691857D02*
X159255200Y-97803908D01*
X159255200Y-97803908D02*
X159311225Y-97971983D01*
X159311225Y-97971983D02*
X159983527Y-98644285D01*
X159983527Y-98644285D02*
X159255200Y-98644285D01*
%TO.C,R3*%
X160375703Y-101444285D02*
X160767879Y-100884033D01*
X161048005Y-101444285D02*
X161048005Y-100267757D01*
X161048005Y-100267757D02*
X160599804Y-100267757D01*
X160599804Y-100267757D02*
X160487753Y-100323782D01*
X160487753Y-100323782D02*
X160431728Y-100379807D01*
X160431728Y-100379807D02*
X160375703Y-100491857D01*
X160375703Y-100491857D02*
X160375703Y-100659933D01*
X160375703Y-100659933D02*
X160431728Y-100771983D01*
X160431728Y-100771983D02*
X160487753Y-100828008D01*
X160487753Y-100828008D02*
X160599804Y-100884033D01*
X160599804Y-100884033D02*
X161048005Y-100884033D01*
X159983527Y-100267757D02*
X159255200Y-100267757D01*
X159255200Y-100267757D02*
X159647376Y-100715958D01*
X159647376Y-100715958D02*
X159479301Y-100715958D01*
X159479301Y-100715958D02*
X159367251Y-100771983D01*
X159367251Y-100771983D02*
X159311225Y-100828008D01*
X159311225Y-100828008D02*
X159255200Y-100940058D01*
X159255200Y-100940058D02*
X159255200Y-101220184D01*
X159255200Y-101220184D02*
X159311225Y-101332234D01*
X159311225Y-101332234D02*
X159367251Y-101388260D01*
X159367251Y-101388260D02*
X159479301Y-101444285D01*
X159479301Y-101444285D02*
X159815452Y-101444285D01*
X159815452Y-101444285D02*
X159927502Y-101388260D01*
X159927502Y-101388260D02*
X159983527Y-101332234D01*
D14*
%TO.C,U$1*%
X155629883Y-103190040D02*
X155576470Y-103207844D01*
X155576470Y-103207844D02*
X155487449Y-103207844D01*
X155487449Y-103207844D02*
X155451841Y-103190040D01*
X155451841Y-103190040D02*
X155434037Y-103172235D01*
X155434037Y-103172235D02*
X155416232Y-103136627D01*
X155416232Y-103136627D02*
X155416232Y-103101019D01*
X155416232Y-103101019D02*
X155434037Y-103065410D01*
X155434037Y-103065410D02*
X155451841Y-103047606D01*
X155451841Y-103047606D02*
X155487449Y-103029802D01*
X155487449Y-103029802D02*
X155558666Y-103011998D01*
X155558666Y-103011998D02*
X155594274Y-102994193D01*
X155594274Y-102994193D02*
X155612079Y-102976389D01*
X155612079Y-102976389D02*
X155629883Y-102940781D01*
X155629883Y-102940781D02*
X155629883Y-102905172D01*
X155629883Y-102905172D02*
X155612079Y-102869564D01*
X155612079Y-102869564D02*
X155594274Y-102851760D01*
X155594274Y-102851760D02*
X155558666Y-102833956D01*
X155558666Y-102833956D02*
X155469645Y-102833956D01*
X155469645Y-102833956D02*
X155416232Y-102851760D01*
X155309407Y-102833956D02*
X155095757Y-102833956D01*
X155202582Y-103207844D02*
X155202582Y-102833956D01*
X154971128Y-103207844D02*
X154971128Y-102833956D01*
X154971128Y-102833956D02*
X154846498Y-103101019D01*
X154846498Y-103101019D02*
X154721869Y-102833956D01*
X154721869Y-102833956D02*
X154721869Y-103207844D01*
X154579435Y-102833956D02*
X154347980Y-102833956D01*
X154347980Y-102833956D02*
X154472610Y-102976389D01*
X154472610Y-102976389D02*
X154419197Y-102976389D01*
X154419197Y-102976389D02*
X154383589Y-102994193D01*
X154383589Y-102994193D02*
X154365785Y-103011998D01*
X154365785Y-103011998D02*
X154347980Y-103047606D01*
X154347980Y-103047606D02*
X154347980Y-103136627D01*
X154347980Y-103136627D02*
X154365785Y-103172235D01*
X154365785Y-103172235D02*
X154383589Y-103190040D01*
X154383589Y-103190040D02*
X154419197Y-103207844D01*
X154419197Y-103207844D02*
X154526022Y-103207844D01*
X154526022Y-103207844D02*
X154561631Y-103190040D01*
X154561631Y-103190040D02*
X154579435Y-103172235D01*
X154205547Y-102869564D02*
X154187743Y-102851760D01*
X154187743Y-102851760D02*
X154152134Y-102833956D01*
X154152134Y-102833956D02*
X154063113Y-102833956D01*
X154063113Y-102833956D02*
X154027505Y-102851760D01*
X154027505Y-102851760D02*
X154009701Y-102869564D01*
X154009701Y-102869564D02*
X153991896Y-102905172D01*
X153991896Y-102905172D02*
X153991896Y-102940781D01*
X153991896Y-102940781D02*
X154009701Y-102994193D01*
X154009701Y-102994193D02*
X154223351Y-103207844D01*
X154223351Y-103207844D02*
X153991896Y-103207844D01*
X153707029Y-103011998D02*
X153831659Y-103011998D01*
X153831659Y-103207844D02*
X153831659Y-102833956D01*
X153831659Y-102833956D02*
X153653617Y-102833956D01*
X153350946Y-102958585D02*
X153350946Y-103207844D01*
X153439967Y-102816152D02*
X153528988Y-103083214D01*
X153528988Y-103083214D02*
X153297533Y-103083214D01*
X152994862Y-102958585D02*
X152994862Y-103207844D01*
X153083883Y-102816152D02*
X153172904Y-103083214D01*
X153172904Y-103083214D02*
X152941449Y-103083214D01*
X152638778Y-102833956D02*
X152709995Y-102833956D01*
X152709995Y-102833956D02*
X152745603Y-102851760D01*
X152745603Y-102851760D02*
X152763407Y-102869564D01*
X152763407Y-102869564D02*
X152799016Y-102922977D01*
X152799016Y-102922977D02*
X152816820Y-102994193D01*
X152816820Y-102994193D02*
X152816820Y-103136627D01*
X152816820Y-103136627D02*
X152799016Y-103172235D01*
X152799016Y-103172235D02*
X152781211Y-103190040D01*
X152781211Y-103190040D02*
X152745603Y-103207844D01*
X152745603Y-103207844D02*
X152674386Y-103207844D01*
X152674386Y-103207844D02*
X152638778Y-103190040D01*
X152638778Y-103190040D02*
X152620974Y-103172235D01*
X152620974Y-103172235D02*
X152603169Y-103136627D01*
X152603169Y-103136627D02*
X152603169Y-103047606D01*
X152603169Y-103047606D02*
X152620974Y-103011998D01*
X152620974Y-103011998D02*
X152638778Y-102994193D01*
X152638778Y-102994193D02*
X152674386Y-102976389D01*
X152674386Y-102976389D02*
X152745603Y-102976389D01*
X152745603Y-102976389D02*
X152781211Y-102994193D01*
X152781211Y-102994193D02*
X152799016Y-103011998D01*
X152799016Y-103011998D02*
X152816820Y-103047606D01*
X152229281Y-103207844D02*
X152353911Y-103029802D01*
X152442932Y-103207844D02*
X152442932Y-102833956D01*
X152442932Y-102833956D02*
X152300498Y-102833956D01*
X152300498Y-102833956D02*
X152264890Y-102851760D01*
X152264890Y-102851760D02*
X152247085Y-102869564D01*
X152247085Y-102869564D02*
X152229281Y-102905172D01*
X152229281Y-102905172D02*
X152229281Y-102958585D01*
X152229281Y-102958585D02*
X152247085Y-102994193D01*
X152247085Y-102994193D02*
X152264890Y-103011998D01*
X152264890Y-103011998D02*
X152300498Y-103029802D01*
X152300498Y-103029802D02*
X152442932Y-103029802D01*
X152069044Y-103011998D02*
X151944414Y-103011998D01*
X151891002Y-103207844D02*
X152069044Y-103207844D01*
X152069044Y-103207844D02*
X152069044Y-102833956D01*
X152069044Y-102833956D02*
X151891002Y-102833956D01*
X151784176Y-102833956D02*
X151570526Y-102833956D01*
X151677351Y-103207844D02*
X151677351Y-102833956D01*
X151285659Y-102833956D02*
X151356876Y-102833956D01*
X151356876Y-102833956D02*
X151392484Y-102851760D01*
X151392484Y-102851760D02*
X151410288Y-102869564D01*
X151410288Y-102869564D02*
X151445897Y-102922977D01*
X151445897Y-102922977D02*
X151463701Y-102994193D01*
X151463701Y-102994193D02*
X151463701Y-103136627D01*
X151463701Y-103136627D02*
X151445897Y-103172235D01*
X151445897Y-103172235D02*
X151428092Y-103190040D01*
X151428092Y-103190040D02*
X151392484Y-103207844D01*
X151392484Y-103207844D02*
X151321267Y-103207844D01*
X151321267Y-103207844D02*
X151285659Y-103190040D01*
X151285659Y-103190040D02*
X151267855Y-103172235D01*
X151267855Y-103172235D02*
X151250050Y-103136627D01*
X151250050Y-103136627D02*
X151250050Y-103047606D01*
X151250050Y-103047606D02*
X151267855Y-103011998D01*
X151267855Y-103011998D02*
X151285659Y-102994193D01*
X151285659Y-102994193D02*
X151321267Y-102976389D01*
X151321267Y-102976389D02*
X151392484Y-102976389D01*
X151392484Y-102976389D02*
X151428092Y-102994193D01*
X151428092Y-102994193D02*
X151445897Y-103011998D01*
X151445897Y-103011998D02*
X151463701Y-103047606D01*
X151089813Y-103065410D02*
X150804946Y-103065410D01*
X150448862Y-103207844D02*
X150626904Y-103207844D01*
X150626904Y-103207844D02*
X150626904Y-102833956D01*
X150074974Y-103243452D02*
X150110582Y-103225648D01*
X150110582Y-103225648D02*
X150146191Y-103190040D01*
X150146191Y-103190040D02*
X150199603Y-103136627D01*
X150199603Y-103136627D02*
X150235212Y-103118823D01*
X150235212Y-103118823D02*
X150270820Y-103118823D01*
X150253016Y-103207844D02*
X150288624Y-103190040D01*
X150288624Y-103190040D02*
X150324233Y-103154431D01*
X150324233Y-103154431D02*
X150342037Y-103083214D01*
X150342037Y-103083214D02*
X150342037Y-102958585D01*
X150342037Y-102958585D02*
X150324233Y-102887368D01*
X150324233Y-102887368D02*
X150288624Y-102851760D01*
X150288624Y-102851760D02*
X150253016Y-102833956D01*
X150253016Y-102833956D02*
X150181799Y-102833956D01*
X150181799Y-102833956D02*
X150146191Y-102851760D01*
X150146191Y-102851760D02*
X150110582Y-102887368D01*
X150110582Y-102887368D02*
X150092778Y-102958585D01*
X150092778Y-102958585D02*
X150092778Y-103083214D01*
X150092778Y-103083214D02*
X150110582Y-103154431D01*
X150110582Y-103154431D02*
X150146191Y-103190040D01*
X150146191Y-103190040D02*
X150181799Y-103207844D01*
X150181799Y-103207844D02*
X150253016Y-103207844D01*
X149718890Y-103207844D02*
X149843520Y-103029802D01*
X149932541Y-103207844D02*
X149932541Y-102833956D01*
X149932541Y-102833956D02*
X149790107Y-102833956D01*
X149790107Y-102833956D02*
X149754499Y-102851760D01*
X149754499Y-102851760D02*
X149736694Y-102869564D01*
X149736694Y-102869564D02*
X149718890Y-102905172D01*
X149718890Y-102905172D02*
X149718890Y-102958585D01*
X149718890Y-102958585D02*
X149736694Y-102994193D01*
X149736694Y-102994193D02*
X149754499Y-103011998D01*
X149754499Y-103011998D02*
X149790107Y-103029802D01*
X149790107Y-103029802D02*
X149932541Y-103029802D01*
X149558653Y-103207844D02*
X149558653Y-102833956D01*
X149558653Y-102833956D02*
X149416219Y-102833956D01*
X149416219Y-102833956D02*
X149380611Y-102851760D01*
X149380611Y-102851760D02*
X149362806Y-102869564D01*
X149362806Y-102869564D02*
X149345002Y-102905172D01*
X149345002Y-102905172D02*
X149345002Y-102958585D01*
X149345002Y-102958585D02*
X149362806Y-102994193D01*
X149362806Y-102994193D02*
X149380611Y-103011998D01*
X149380611Y-103011998D02*
X149416219Y-103029802D01*
X149416219Y-103029802D02*
X149558653Y-103029802D01*
X149024527Y-102833956D02*
X149095744Y-102833956D01*
X149095744Y-102833956D02*
X149131352Y-102851760D01*
X149131352Y-102851760D02*
X149149156Y-102869564D01*
X149149156Y-102869564D02*
X149184765Y-102922977D01*
X149184765Y-102922977D02*
X149202569Y-102994193D01*
X149202569Y-102994193D02*
X149202569Y-103136627D01*
X149202569Y-103136627D02*
X149184765Y-103172235D01*
X149184765Y-103172235D02*
X149166960Y-103190040D01*
X149166960Y-103190040D02*
X149131352Y-103207844D01*
X149131352Y-103207844D02*
X149060135Y-103207844D01*
X149060135Y-103207844D02*
X149024527Y-103190040D01*
X149024527Y-103190040D02*
X149006723Y-103172235D01*
X149006723Y-103172235D02*
X148988918Y-103136627D01*
X148988918Y-103136627D02*
X148988918Y-103047606D01*
X148988918Y-103047606D02*
X149006723Y-103011998D01*
X149006723Y-103011998D02*
X149024527Y-102994193D01*
X149024527Y-102994193D02*
X149060135Y-102976389D01*
X149060135Y-102976389D02*
X149131352Y-102976389D01*
X149131352Y-102976389D02*
X149166960Y-102994193D01*
X149166960Y-102994193D02*
X149184765Y-103011998D01*
X149184765Y-103011998D02*
X149202569Y-103047606D01*
X148668443Y-102958585D02*
X148668443Y-103207844D01*
X148757464Y-102816152D02*
X148846485Y-103083214D01*
X148846485Y-103083214D02*
X148615030Y-103083214D01*
D13*
%TO.C,X1*%
X171331924Y-92767757D02*
X170547572Y-93944285D01*
X170547572Y-92767757D02*
X171331924Y-93944285D01*
X169483094Y-93944285D02*
X170155396Y-93944285D01*
X169819245Y-93944285D02*
X169819245Y-92767757D01*
X169819245Y-92767757D02*
X169931295Y-92935832D01*
X169931295Y-92935832D02*
X170043346Y-93047882D01*
X170043346Y-93047882D02*
X170155396Y-93103908D01*
D15*
%TO.C,X2*%
X168032229Y-103702170D02*
X167414629Y-104628570D01*
X167414629Y-103702170D02*
X168032229Y-104628570D01*
X167105828Y-103790398D02*
X167061714Y-103746284D01*
X167061714Y-103746284D02*
X166973486Y-103702170D01*
X166973486Y-103702170D02*
X166752914Y-103702170D01*
X166752914Y-103702170D02*
X166664686Y-103746284D01*
X166664686Y-103746284D02*
X166620571Y-103790398D01*
X166620571Y-103790398D02*
X166576457Y-103878627D01*
X166576457Y-103878627D02*
X166576457Y-103966856D01*
X166576457Y-103966856D02*
X166620571Y-104099198D01*
X166620571Y-104099198D02*
X167149943Y-104628570D01*
X167149943Y-104628570D02*
X166576457Y-104628570D01*
%TO.C,G\u002A\u002A\u002A*%
G36*
X182220833Y-128048021D02*
G01*
X183526204Y-128048064D01*
X183596729Y-128159693D01*
X183702083Y-128310935D01*
X183851864Y-128496442D01*
X184025434Y-128688416D01*
X184213228Y-128876844D01*
X184405681Y-129051710D01*
X184593228Y-129203000D01*
X184730595Y-129302147D01*
X185145314Y-129562332D01*
X185596799Y-129791497D01*
X186083895Y-129989209D01*
X186605448Y-130155033D01*
X187160302Y-130288534D01*
X187747302Y-130389279D01*
X187841799Y-130401148D01*
X187971525Y-130413228D01*
X188118003Y-130422063D01*
X188289274Y-130428005D01*
X188493375Y-130431404D01*
X188738343Y-130432613D01*
X188929937Y-130432488D01*
X189102108Y-130431358D01*
X189240830Y-130428744D01*
X189354230Y-130424186D01*
X189450435Y-130417225D01*
X189537572Y-130407403D01*
X189623767Y-130394261D01*
X189717148Y-130377340D01*
X189785208Y-130363873D01*
X190208129Y-130255407D01*
X190603486Y-130109951D01*
X190969067Y-129928579D01*
X191302655Y-129712367D01*
X191602038Y-129462389D01*
X191784806Y-129274201D01*
X191964710Y-129057478D01*
X192124591Y-128831996D01*
X192256832Y-128608541D01*
X192353814Y-128397899D01*
X192383636Y-128326949D01*
X192404604Y-128295350D01*
X192414081Y-128310331D01*
X192412090Y-128372146D01*
X192398652Y-128481047D01*
X192373787Y-128637288D01*
X192330652Y-128854647D01*
X192217667Y-129247565D01*
X192064189Y-129613024D01*
X191870160Y-129951103D01*
X191635524Y-130261881D01*
X191360227Y-130545440D01*
X191044210Y-130801858D01*
X190687419Y-131031216D01*
X190566581Y-131097423D01*
X190209898Y-131264419D01*
X189819356Y-131410017D01*
X189403532Y-131531590D01*
X188971003Y-131626510D01*
X188530346Y-131692149D01*
X188478672Y-131698016D01*
X188371059Y-131710267D01*
X188281174Y-131720542D01*
X188224470Y-131727076D01*
X188221924Y-131727356D01*
X188166374Y-131730900D01*
X188074960Y-131734319D01*
X187959784Y-131737235D01*
X187832948Y-131739271D01*
X187591320Y-131735122D01*
X187253821Y-131711399D01*
X186889462Y-131668614D01*
X186507632Y-131608456D01*
X186117719Y-131532618D01*
X185729113Y-131442788D01*
X185351202Y-131340659D01*
X184993376Y-131227921D01*
X184458037Y-131027398D01*
X183901450Y-130775504D01*
X183378459Y-130490136D01*
X182886741Y-130169893D01*
X182423970Y-129813378D01*
X181987823Y-129419193D01*
X181708529Y-129133838D01*
X181424732Y-128809388D01*
X181187042Y-128494660D01*
X180994672Y-128188680D01*
X180915463Y-128047977D01*
X182220833Y-128048021D01*
G37*
G36*
X164851997Y-124017992D02*
G01*
X165273040Y-124086145D01*
X165674601Y-124195300D01*
X166054081Y-124344579D01*
X166408878Y-124533102D01*
X166736390Y-124759989D01*
X167034019Y-125024359D01*
X167184001Y-125184221D01*
X167428110Y-125496211D01*
X167627659Y-125828201D01*
X167782784Y-126180524D01*
X167893619Y-126553512D01*
X167960300Y-126947498D01*
X167982960Y-127362813D01*
X167982965Y-127367352D01*
X167971177Y-127661674D01*
X167933931Y-127921207D01*
X167868942Y-128154166D01*
X167773930Y-128368768D01*
X167646610Y-128573228D01*
X167462988Y-128790100D01*
X167239355Y-128979802D01*
X166979618Y-129137700D01*
X166684733Y-129263307D01*
X166355658Y-129356135D01*
X165993352Y-129415696D01*
X165949362Y-129420445D01*
X165523879Y-129443410D01*
X165097553Y-129424002D01*
X164665755Y-129361577D01*
X164223863Y-129255489D01*
X163767248Y-129105093D01*
X163437579Y-128982745D01*
X163271757Y-128374658D01*
X163232668Y-128230426D01*
X163191644Y-128076932D01*
X163156729Y-127943983D01*
X163129650Y-127838238D01*
X163112134Y-127766355D01*
X163105906Y-127734992D01*
X163106289Y-127730677D01*
X163123821Y-127687196D01*
X163159418Y-127630994D01*
X163198211Y-127587332D01*
X163246758Y-127564146D01*
X163321831Y-127558574D01*
X163370257Y-127561354D01*
X163433975Y-127577227D01*
X163506966Y-127612332D01*
X163603593Y-127672476D01*
X163613106Y-127678699D01*
X163753400Y-127763186D01*
X163918321Y-127851912D01*
X164094747Y-127938677D01*
X164269558Y-128017282D01*
X164429632Y-128081529D01*
X164561849Y-128125218D01*
X164598263Y-128134898D01*
X164682041Y-128153618D01*
X164768744Y-128166480D01*
X164869867Y-128174546D01*
X164996909Y-128178877D01*
X165161368Y-128180534D01*
X165209659Y-128180673D01*
X165350868Y-128180220D01*
X165455775Y-128177536D01*
X165534208Y-128171610D01*
X165595996Y-128161434D01*
X165650964Y-128145999D01*
X165708942Y-128124294D01*
X165774424Y-128094232D01*
X165928660Y-127989423D01*
X166054595Y-127852620D01*
X166142833Y-127693160D01*
X166143442Y-127691617D01*
X166165761Y-127630703D01*
X166181359Y-127573118D01*
X166191345Y-127508412D01*
X166196830Y-127426133D01*
X166198926Y-127315830D01*
X166198742Y-127167052D01*
X166197374Y-127067285D01*
X166186993Y-126861486D01*
X166164305Y-126685100D01*
X166126522Y-126524934D01*
X166070856Y-126367793D01*
X165994520Y-126200482D01*
X165881542Y-126000304D01*
X165706638Y-125769334D01*
X165504385Y-125578634D01*
X165276016Y-125428972D01*
X165022763Y-125321118D01*
X164745858Y-125255841D01*
X164446532Y-125233911D01*
X164348617Y-125235419D01*
X164119590Y-125253941D01*
X163910959Y-125296461D01*
X163713708Y-125366633D01*
X163518825Y-125468111D01*
X163317294Y-125604546D01*
X163100103Y-125779593D01*
X163051092Y-125821197D01*
X162993803Y-125864317D01*
X162945833Y-125885832D01*
X162890299Y-125892157D01*
X162810319Y-125889708D01*
X162657482Y-125882370D01*
X162468888Y-125184971D01*
X162454404Y-125131213D01*
X162408452Y-124957885D01*
X162368112Y-124801504D01*
X162334867Y-124668117D01*
X162310200Y-124563768D01*
X162295595Y-124494502D01*
X162292536Y-124466365D01*
X162298078Y-124460231D01*
X162341959Y-124432408D01*
X162419531Y-124393552D01*
X162521501Y-124347726D01*
X162638576Y-124298995D01*
X162761463Y-124251422D01*
X162880869Y-124209073D01*
X162898898Y-124203097D01*
X163229363Y-124113386D01*
X163602429Y-124046956D01*
X164017631Y-124003891D01*
X164414073Y-123991723D01*
X164851997Y-124017992D01*
G37*
G36*
X153375503Y-124017992D02*
G01*
X153796546Y-124086145D01*
X154198108Y-124195300D01*
X154577588Y-124344579D01*
X154932384Y-124533102D01*
X155259897Y-124759989D01*
X155557525Y-125024359D01*
X155707508Y-125184221D01*
X155951617Y-125496211D01*
X156151166Y-125828201D01*
X156306291Y-126180524D01*
X156417126Y-126553512D01*
X156483806Y-126947498D01*
X156506467Y-127362813D01*
X156506472Y-127367352D01*
X156494684Y-127661674D01*
X156457437Y-127921207D01*
X156392449Y-128154166D01*
X156297436Y-128368768D01*
X156170116Y-128573228D01*
X155986495Y-128790100D01*
X155762862Y-128979802D01*
X155503124Y-129137700D01*
X155208239Y-129263307D01*
X154879165Y-129356135D01*
X154516859Y-129415696D01*
X154472869Y-129420445D01*
X154047386Y-129443410D01*
X153621059Y-129424002D01*
X153189262Y-129361577D01*
X152747369Y-129255489D01*
X152290755Y-129105093D01*
X151961086Y-128982745D01*
X151795264Y-128374658D01*
X151756175Y-128230426D01*
X151715150Y-128076932D01*
X151680236Y-127943983D01*
X151653157Y-127838238D01*
X151635640Y-127766355D01*
X151629412Y-127734992D01*
X151629795Y-127730677D01*
X151647328Y-127687196D01*
X151682925Y-127630994D01*
X151721718Y-127587332D01*
X151770265Y-127564146D01*
X151845338Y-127558574D01*
X151893764Y-127561354D01*
X151957481Y-127577227D01*
X152030473Y-127612332D01*
X152127100Y-127672476D01*
X152136613Y-127678699D01*
X152276907Y-127763186D01*
X152441828Y-127851912D01*
X152618254Y-127938677D01*
X152793064Y-128017282D01*
X152953139Y-128081529D01*
X153085356Y-128125218D01*
X153121769Y-128134898D01*
X153205548Y-128153618D01*
X153292250Y-128166480D01*
X153393374Y-128174546D01*
X153520416Y-128178877D01*
X153684874Y-128180534D01*
X153733166Y-128180673D01*
X153874374Y-128180220D01*
X153979282Y-128177536D01*
X154057715Y-128171610D01*
X154119502Y-128161434D01*
X154174471Y-128145999D01*
X154232449Y-128124294D01*
X154297931Y-128094232D01*
X154452167Y-127989423D01*
X154578102Y-127852620D01*
X154666340Y-127693160D01*
X154666949Y-127691617D01*
X154689268Y-127630703D01*
X154704865Y-127573118D01*
X154714851Y-127508412D01*
X154720337Y-127426133D01*
X154722432Y-127315830D01*
X154722249Y-127167052D01*
X154720880Y-127067285D01*
X154710499Y-126861486D01*
X154687812Y-126685100D01*
X154650029Y-126524934D01*
X154594363Y-126367793D01*
X154518027Y-126200482D01*
X154405049Y-126000304D01*
X154230144Y-125769334D01*
X154027892Y-125578634D01*
X153799523Y-125428972D01*
X153546269Y-125321118D01*
X153269364Y-125255841D01*
X152970039Y-125233911D01*
X152872124Y-125235419D01*
X152643097Y-125253941D01*
X152434466Y-125296461D01*
X152237215Y-125366633D01*
X152042331Y-125468111D01*
X151840801Y-125604546D01*
X151623609Y-125779593D01*
X151574599Y-125821197D01*
X151517310Y-125864317D01*
X151469339Y-125885832D01*
X151413806Y-125892157D01*
X151333826Y-125889708D01*
X151180988Y-125882370D01*
X150992395Y-125184971D01*
X150977910Y-125131213D01*
X150931959Y-124957885D01*
X150891619Y-124801504D01*
X150858374Y-124668117D01*
X150833707Y-124563768D01*
X150819102Y-124494502D01*
X150816043Y-124466365D01*
X150821585Y-124460231D01*
X150865466Y-124432408D01*
X150943038Y-124393552D01*
X151045008Y-124347726D01*
X151162083Y-124298995D01*
X151284970Y-124251422D01*
X151404376Y-124209073D01*
X151422405Y-124203097D01*
X151752869Y-124113386D01*
X152125936Y-124046956D01*
X152541137Y-124003891D01*
X152937580Y-123991723D01*
X153375503Y-124017992D01*
G37*
G36*
X174554304Y-124089697D02*
G01*
X175719107Y-124096050D01*
X175846682Y-124671098D01*
X175871313Y-124782345D01*
X175904618Y-124933531D01*
X175933188Y-125064136D01*
X175955545Y-125167364D01*
X175970213Y-125236417D01*
X175975712Y-125264499D01*
X175969753Y-125267856D01*
X175925401Y-125273787D01*
X175844806Y-125278543D01*
X175736362Y-125281705D01*
X175608466Y-125282852D01*
X175578671Y-125282862D01*
X175445490Y-125283452D01*
X175353068Y-125285552D01*
X175294507Y-125289993D01*
X175262910Y-125297607D01*
X175251381Y-125309224D01*
X175253021Y-125325674D01*
X175259243Y-125348310D01*
X175276786Y-125414917D01*
X175303751Y-125518585D01*
X175338643Y-125653533D01*
X175379968Y-125813980D01*
X175426232Y-125994145D01*
X175475941Y-126188247D01*
X175497193Y-126271302D01*
X175564395Y-126533197D01*
X175621426Y-126753654D01*
X175669660Y-126937354D01*
X175710472Y-127088984D01*
X175745238Y-127213227D01*
X175775332Y-127314767D01*
X175802131Y-127398289D01*
X175827009Y-127468476D01*
X175851341Y-127530013D01*
X175876503Y-127587584D01*
X175903870Y-127645874D01*
X175959898Y-127751154D01*
X176070217Y-127902737D01*
X176200900Y-128016603D01*
X176358441Y-128099230D01*
X176366349Y-128102370D01*
X176424959Y-128123635D01*
X176481847Y-128138557D01*
X176547144Y-128148217D01*
X176630982Y-128153695D01*
X176743489Y-128156072D01*
X176894797Y-128156428D01*
X176942405Y-128156313D01*
X177081204Y-128155077D01*
X177185037Y-128151579D01*
X177264770Y-128144551D01*
X177331266Y-128132729D01*
X177395393Y-128114846D01*
X177468014Y-128089636D01*
X177634753Y-128041180D01*
X177800540Y-128023507D01*
X177951371Y-128023507D01*
X178089895Y-128559378D01*
X178109456Y-128635506D01*
X178147552Y-128786596D01*
X178180252Y-128920072D01*
X178205790Y-129028508D01*
X178222394Y-129104474D01*
X178228298Y-129140544D01*
X178228161Y-129143807D01*
X178210801Y-129194730D01*
X178173240Y-129252679D01*
X178158161Y-129268738D01*
X178117332Y-129297217D01*
X178058049Y-129320892D01*
X177974221Y-129341066D01*
X177859756Y-129359044D01*
X177708564Y-129376127D01*
X177514554Y-129393620D01*
X177498976Y-129394872D01*
X177336695Y-129403780D01*
X177147357Y-129408220D01*
X176941809Y-129408466D01*
X176730898Y-129404795D01*
X176525472Y-129397481D01*
X176336379Y-129386801D01*
X176174465Y-129373029D01*
X176050578Y-129356441D01*
X175763627Y-129293885D01*
X175465611Y-129196822D01*
X175199722Y-129070824D01*
X174960235Y-128913112D01*
X174741425Y-128720906D01*
X174655429Y-128631251D01*
X174487384Y-128425160D01*
X174351557Y-128205398D01*
X174237034Y-127955400D01*
X174221534Y-127909798D01*
X174193695Y-127817252D01*
X174155992Y-127685233D01*
X174109567Y-127517969D01*
X174055561Y-127319686D01*
X173995118Y-127094612D01*
X173929378Y-126846974D01*
X173859484Y-126580998D01*
X173786577Y-126300911D01*
X173711798Y-126010941D01*
X173260464Y-124252520D01*
X173324982Y-124167932D01*
X173389501Y-124083344D01*
X174554304Y-124089697D01*
G37*
G36*
X171192134Y-124089849D02*
G01*
X171974056Y-124096050D01*
X172567296Y-126408478D01*
X172597565Y-126526482D01*
X172682034Y-126855940D01*
X172763627Y-127174409D01*
X172841414Y-127478249D01*
X172914465Y-127763819D01*
X172981850Y-128027476D01*
X173042641Y-128265580D01*
X173095906Y-128474489D01*
X173140716Y-128650562D01*
X173176141Y-128790158D01*
X173201251Y-128889634D01*
X173215116Y-128945350D01*
X173269697Y-129169793D01*
X173202919Y-129257344D01*
X173136141Y-129344894D01*
X171085947Y-129344894D01*
X169035752Y-129344894D01*
X168896648Y-128805531D01*
X168757543Y-128266167D01*
X168822090Y-128181542D01*
X168886637Y-128096917D01*
X170085387Y-128096917D01*
X170167605Y-128096900D01*
X170437840Y-128096527D01*
X170663400Y-128095598D01*
X170847630Y-128094029D01*
X170993877Y-128091733D01*
X171105488Y-128088624D01*
X171185808Y-128084615D01*
X171238185Y-128079621D01*
X171265964Y-128073554D01*
X171272492Y-128066329D01*
X171271077Y-128061640D01*
X171259241Y-128017708D01*
X171236557Y-127931281D01*
X171203961Y-127805992D01*
X171162389Y-127645473D01*
X171112780Y-127453355D01*
X171056071Y-127233272D01*
X170993198Y-126988855D01*
X170925099Y-126723737D01*
X170852712Y-126441550D01*
X170776972Y-126145926D01*
X170293099Y-124256110D01*
X170351655Y-124169879D01*
X170410212Y-124083648D01*
X171192134Y-124089849D01*
G37*
G36*
X161820048Y-126485034D02*
G01*
X161830682Y-126526487D01*
X161915155Y-126855944D01*
X161996751Y-127174413D01*
X162074541Y-127478253D01*
X162147595Y-127763822D01*
X162214983Y-128027479D01*
X162275776Y-128265582D01*
X162329043Y-128474491D01*
X162373854Y-128650563D01*
X162409280Y-128790158D01*
X162434391Y-128889634D01*
X162448257Y-128945350D01*
X162502837Y-129169793D01*
X162436060Y-129257344D01*
X162369282Y-129344894D01*
X161600661Y-129344894D01*
X160832040Y-129344894D01*
X160808162Y-129253131D01*
X160797149Y-129210411D01*
X160775299Y-129125183D01*
X160744980Y-129006679D01*
X160708075Y-128862262D01*
X160666467Y-128699296D01*
X160622039Y-128525144D01*
X160581036Y-128364398D01*
X160539149Y-128200285D01*
X160501825Y-128054140D01*
X160470943Y-127933329D01*
X160448386Y-127845213D01*
X160436035Y-127797158D01*
X160412275Y-127705395D01*
X159959556Y-127705395D01*
X159838712Y-127704690D01*
X159481191Y-127692654D01*
X159157215Y-127664616D01*
X158856654Y-127619153D01*
X158569378Y-127554844D01*
X158285260Y-127470266D01*
X158087884Y-127396980D01*
X157790627Y-127254438D01*
X157523846Y-127084926D01*
X157290930Y-126891409D01*
X157095262Y-126676846D01*
X156940228Y-126444201D01*
X156829215Y-126196434D01*
X156764314Y-125953639D01*
X156731489Y-125682270D01*
X156731582Y-125678418D01*
X158532559Y-125678418D01*
X158536156Y-125772254D01*
X158544328Y-125843708D01*
X158595022Y-126013113D01*
X158688124Y-126158207D01*
X158823523Y-126278880D01*
X159001110Y-126375025D01*
X159220774Y-126446533D01*
X159238620Y-126450517D01*
X159330892Y-126465330D01*
X159454343Y-126479288D01*
X159595011Y-126490979D01*
X159738934Y-126498988D01*
X159803049Y-126501546D01*
X159925036Y-126505804D01*
X160008116Y-126506915D01*
X160059333Y-126504246D01*
X160085728Y-126497164D01*
X160094345Y-126485034D01*
X160092225Y-126467226D01*
X160087687Y-126449140D01*
X160071817Y-126386473D01*
X160046855Y-126288198D01*
X160014634Y-126161520D01*
X159976985Y-126013646D01*
X159935742Y-125851782D01*
X159790721Y-125282852D01*
X159484570Y-125283036D01*
X159282857Y-125287228D01*
X159069084Y-125304544D01*
X158895912Y-125336223D01*
X158759609Y-125383276D01*
X158656443Y-125446716D01*
X158582681Y-125527553D01*
X158561900Y-125560864D01*
X158539951Y-125614205D01*
X158532559Y-125678418D01*
X156731582Y-125678418D01*
X156737990Y-125413764D01*
X156784351Y-125160501D01*
X156845226Y-124990409D01*
X156963243Y-124784502D01*
X157121857Y-124602976D01*
X157319063Y-124447641D01*
X157552858Y-124320311D01*
X157821238Y-124222796D01*
X157890578Y-124203241D01*
X157978442Y-124180267D01*
X158064442Y-124160813D01*
X158153195Y-124144589D01*
X158249321Y-124131306D01*
X158357438Y-124120672D01*
X158482165Y-124112398D01*
X158628120Y-124106194D01*
X158799922Y-124101768D01*
X159002189Y-124098831D01*
X159239539Y-124097093D01*
X159516592Y-124096262D01*
X159837965Y-124096050D01*
X161207144Y-124096050D01*
X161800410Y-126408478D01*
X161820048Y-126485034D01*
G37*
G36*
X150206686Y-126046928D02*
G01*
X150299444Y-126408478D01*
X150329716Y-126526488D01*
X150414189Y-126855945D01*
X150495785Y-127174414D01*
X150573575Y-127478253D01*
X150646630Y-127763822D01*
X150714019Y-128027479D01*
X150745827Y-128152058D01*
X150774812Y-128265582D01*
X150828079Y-128474491D01*
X150872891Y-128650563D01*
X150908317Y-128790158D01*
X150933428Y-128889634D01*
X150947293Y-128945350D01*
X151001874Y-129169793D01*
X150933215Y-129259810D01*
X150864556Y-129349826D01*
X149381122Y-129338048D01*
X149302707Y-129337418D01*
X148982373Y-129334609D01*
X148705298Y-129331571D01*
X148466842Y-129328009D01*
X148262368Y-129323630D01*
X148087236Y-129318139D01*
X147936807Y-129311243D01*
X147806443Y-129302648D01*
X147691505Y-129292059D01*
X147587353Y-129279183D01*
X147489350Y-129263725D01*
X147392856Y-129245392D01*
X147293233Y-129223890D01*
X147185841Y-129198924D01*
X146991752Y-129146021D01*
X146695387Y-129036341D01*
X146426613Y-128899849D01*
X146190176Y-128739493D01*
X145990822Y-128558220D01*
X145833300Y-128358979D01*
X145732531Y-128174695D01*
X145651118Y-127948992D01*
X145605642Y-127714537D01*
X145601108Y-127590557D01*
X147325694Y-127590557D01*
X147350647Y-127713945D01*
X147419949Y-127826523D01*
X147531526Y-127925825D01*
X147683307Y-128009385D01*
X147873217Y-128074739D01*
X147917011Y-128085736D01*
X148003395Y-128103128D01*
X148100437Y-128116281D01*
X148217708Y-128126110D01*
X148364776Y-128133527D01*
X148551211Y-128139446D01*
X149033444Y-128152058D01*
X148911050Y-127679916D01*
X148904967Y-127656489D01*
X148867169Y-127512744D01*
X148833069Y-127386022D01*
X148804767Y-127283925D01*
X148784365Y-127214050D01*
X148773962Y-127183998D01*
X148757851Y-127178065D01*
X148695811Y-127172323D01*
X148590999Y-127169758D01*
X148446977Y-127170437D01*
X148267302Y-127174428D01*
X148059513Y-127182318D01*
X147864920Y-127195482D01*
X147709743Y-127214565D01*
X147588968Y-127241084D01*
X147497578Y-127276554D01*
X147430559Y-127322491D01*
X147382896Y-127380412D01*
X147349573Y-127451832D01*
X147347162Y-127458824D01*
X147325694Y-127590557D01*
X145601108Y-127590557D01*
X145597088Y-127480612D01*
X145626440Y-127256500D01*
X145694682Y-127051481D01*
X145729409Y-126986182D01*
X145832351Y-126848553D01*
X145963584Y-126724181D01*
X146109435Y-126627059D01*
X146151358Y-126603919D01*
X146201764Y-126572709D01*
X146221393Y-126555341D01*
X146220598Y-126553736D01*
X146193304Y-126534016D01*
X146134960Y-126499903D01*
X146056241Y-126457705D01*
X145961312Y-126401195D01*
X145822688Y-126295509D01*
X145692721Y-126171902D01*
X145583670Y-126042411D01*
X145507792Y-125919075D01*
X145490044Y-125879566D01*
X145426852Y-125685291D01*
X145402829Y-125536533D01*
X147152670Y-125536533D01*
X147159833Y-125638352D01*
X147204697Y-125740434D01*
X147283340Y-125836018D01*
X147391839Y-125918344D01*
X147526270Y-125980653D01*
X147570290Y-125993566D01*
X147650733Y-126008983D01*
X147756179Y-126020578D01*
X147894599Y-126029149D01*
X148073966Y-126035495D01*
X148494945Y-126046928D01*
X148398195Y-125676106D01*
X148378409Y-125600032D01*
X148347902Y-125481698D01*
X148323499Y-125385705D01*
X148307310Y-125320385D01*
X148301445Y-125294068D01*
X148290122Y-125291419D01*
X148237821Y-125288013D01*
X148150315Y-125285297D01*
X148035714Y-125283501D01*
X147902129Y-125282852D01*
X147704782Y-125285560D01*
X147541572Y-125294868D01*
X147415509Y-125311938D01*
X147320735Y-125337925D01*
X147251395Y-125373989D01*
X147201633Y-125421286D01*
X147187133Y-125441734D01*
X147152670Y-125536533D01*
X145402829Y-125536533D01*
X145393355Y-125477866D01*
X145389959Y-125269978D01*
X145417073Y-125074315D01*
X145475107Y-124903565D01*
X145568776Y-124747539D01*
X145720096Y-124581372D01*
X145913659Y-124436883D01*
X146148220Y-124314825D01*
X146422534Y-124215950D01*
X146735356Y-124141012D01*
X146748805Y-124138513D01*
X146804347Y-124129278D01*
X146864298Y-124121498D01*
X146933110Y-124115049D01*
X147015237Y-124109808D01*
X147115131Y-124105651D01*
X147237247Y-124102454D01*
X147386036Y-124100094D01*
X147565953Y-124098448D01*
X147781450Y-124097391D01*
X148036981Y-124096800D01*
X148336998Y-124096551D01*
X149706174Y-124096050D01*
X150206686Y-126046928D01*
G37*
G36*
X188742476Y-126857172D02*
G01*
X188744000Y-126866839D01*
X188746161Y-126997806D01*
X188721462Y-127136630D01*
X188662484Y-127253593D01*
X188565445Y-127359115D01*
X188554681Y-127368428D01*
X188451154Y-127440409D01*
X188336886Y-127485044D01*
X188200269Y-127505490D01*
X188029698Y-127504906D01*
X187939377Y-127498535D01*
X187843591Y-127483966D01*
X187760387Y-127457858D01*
X187668821Y-127414995D01*
X187582988Y-127374159D01*
X187527849Y-127357311D01*
X187505497Y-127366361D01*
X187505376Y-127366716D01*
X187481509Y-127404728D01*
X187438923Y-127453186D01*
X187419667Y-127470917D01*
X187385774Y-127491478D01*
X187338953Y-127503175D01*
X187267208Y-127508422D01*
X187158546Y-127509634D01*
X187066101Y-127507631D01*
X186848368Y-127482993D01*
X186646884Y-127426954D01*
X186449081Y-127335319D01*
X186242389Y-127203893D01*
X186049884Y-127045415D01*
X185876559Y-126854277D01*
X185736701Y-126644629D01*
X185633114Y-126422545D01*
X185568600Y-126194098D01*
X185545962Y-125965363D01*
X185568002Y-125742414D01*
X185608185Y-125596872D01*
X185702156Y-125398661D01*
X185834754Y-125229084D01*
X186004851Y-125088839D01*
X186211318Y-124978623D01*
X186453029Y-124899130D01*
X186728855Y-124851058D01*
X187037668Y-124835102D01*
X187147983Y-124836992D01*
X187514070Y-124870446D01*
X187856779Y-124944893D01*
X188174409Y-125059321D01*
X188465260Y-125212719D01*
X188727631Y-125404078D01*
X188959822Y-125632386D01*
X189160132Y-125896632D01*
X189326862Y-126195806D01*
X189349370Y-126244516D01*
X189420123Y-126421494D01*
X189465480Y-126589034D01*
X189489571Y-126766009D01*
X189496524Y-126971291D01*
X189496386Y-127007809D01*
X189493086Y-127138978D01*
X189483936Y-127240375D01*
X189466980Y-127327445D01*
X189440263Y-127415634D01*
X189411573Y-127490870D01*
X189302956Y-127689350D01*
X189155836Y-127859619D01*
X188969672Y-128002040D01*
X188743922Y-128116976D01*
X188478043Y-128204789D01*
X188171494Y-128265844D01*
X188163311Y-128267007D01*
X188024396Y-128280185D01*
X187853516Y-128287257D01*
X187666155Y-128288355D01*
X187477797Y-128283613D01*
X187303923Y-128273164D01*
X187160019Y-128257141D01*
X186967023Y-128221854D01*
X186637518Y-128129323D01*
X186341384Y-128001068D01*
X186078674Y-127837113D01*
X185849441Y-127637484D01*
X185712565Y-127497399D01*
X185936214Y-127490342D01*
X185959394Y-127489618D01*
X186058125Y-127487657D01*
X186124952Y-127491337D01*
X186174201Y-127503984D01*
X186220197Y-127528919D01*
X186277267Y-127569468D01*
X186511654Y-127713301D01*
X186784975Y-127825914D01*
X187088918Y-127901742D01*
X187422317Y-127940497D01*
X187784007Y-127941892D01*
X188045414Y-127919276D01*
X188318710Y-127866895D01*
X188551872Y-127786843D01*
X188744822Y-127679176D01*
X188897485Y-127543949D01*
X189009784Y-127381218D01*
X189081642Y-127191039D01*
X189112983Y-126973469D01*
X189111595Y-126793404D01*
X189085702Y-126618346D01*
X189031418Y-126440217D01*
X188945215Y-126243680D01*
X188925487Y-126204411D01*
X188767837Y-125946840D01*
X188578939Y-125726615D01*
X188357473Y-125542405D01*
X188102119Y-125392878D01*
X188038792Y-125362880D01*
X187875333Y-125295070D01*
X187715521Y-125245890D01*
X187541894Y-125210580D01*
X187336985Y-125184380D01*
X187286436Y-125179717D01*
X187023626Y-125173005D01*
X186778933Y-125196079D01*
X186557452Y-125247427D01*
X186364282Y-125325539D01*
X186204518Y-125428904D01*
X186083256Y-125556012D01*
X186015271Y-125661880D01*
X185964717Y-125782513D01*
X185941551Y-125914963D01*
X185941182Y-126076036D01*
X185961908Y-126239015D01*
X186025662Y-126436540D01*
X186133338Y-126622682D01*
X186287442Y-126802697D01*
X186294966Y-126810198D01*
X186409315Y-126913996D01*
X186523520Y-127000669D01*
X186631673Y-127067471D01*
X186727872Y-127111653D01*
X186806209Y-127130470D01*
X186860781Y-127121173D01*
X186885681Y-127081015D01*
X186884447Y-127070626D01*
X186868287Y-127018114D01*
X186835574Y-126929454D01*
X186788644Y-126810494D01*
X186729835Y-126667088D01*
X186661482Y-126505084D01*
X186585922Y-126330335D01*
X186552912Y-126254789D01*
X187118676Y-126254789D01*
X187118910Y-126257008D01*
X187151864Y-126402942D01*
X187216545Y-126562982D01*
X187305215Y-126724618D01*
X187410137Y-126875342D01*
X187523573Y-127002643D01*
X187637784Y-127094011D01*
X187743573Y-127142419D01*
X187863973Y-127166828D01*
X187980522Y-127163890D01*
X188080712Y-127134004D01*
X188152040Y-127077570D01*
X188156390Y-127071592D01*
X188194723Y-126977235D01*
X188201848Y-126857172D01*
X188181225Y-126719359D01*
X188136312Y-126571750D01*
X188070567Y-126422303D01*
X187987450Y-126278972D01*
X187890420Y-126149715D01*
X187782935Y-126042486D01*
X187668455Y-125965242D01*
X187597815Y-125933768D01*
X187461421Y-125899921D01*
X187340471Y-125904790D01*
X187240344Y-125945545D01*
X187166417Y-126019351D01*
X187124068Y-126123376D01*
X187118676Y-126254789D01*
X186552912Y-126254789D01*
X186548506Y-126244705D01*
X186476022Y-126078191D01*
X186411424Y-125928963D01*
X186357071Y-125802523D01*
X186315324Y-125704375D01*
X186288545Y-125640025D01*
X186279094Y-125614976D01*
X186295730Y-125610132D01*
X186352344Y-125605382D01*
X186439609Y-125602154D01*
X186547637Y-125600963D01*
X186816180Y-125600963D01*
X186856626Y-125680491D01*
X186886320Y-125737307D01*
X186908721Y-125766825D01*
X186927938Y-125761951D01*
X186954203Y-125727628D01*
X187030033Y-125655496D01*
X187145163Y-125600662D01*
X187287660Y-125569479D01*
X187448635Y-125563844D01*
X187619199Y-125585656D01*
X187714263Y-125609841D01*
X187936837Y-125701113D01*
X188145381Y-125836168D01*
X188335455Y-126011795D01*
X188502621Y-126224782D01*
X188548923Y-126296869D01*
X188650095Y-126488001D01*
X188713599Y-126673942D01*
X188742476Y-126857172D01*
G37*
G36*
X189900672Y-124451024D02*
G01*
X190010711Y-124452146D01*
X190085570Y-124455196D01*
X190132469Y-124461136D01*
X190158629Y-124470929D01*
X190171272Y-124485537D01*
X190177618Y-124505925D01*
X190181784Y-124525278D01*
X190195190Y-124590393D01*
X190216391Y-124694772D01*
X190244347Y-124833250D01*
X190278018Y-125000664D01*
X190316365Y-125191848D01*
X190358347Y-125401639D01*
X190402924Y-125624871D01*
X190431862Y-125768950D01*
X190476874Y-125989240D01*
X190519859Y-126195167D01*
X190559596Y-126381120D01*
X190594861Y-126541485D01*
X190624433Y-126670650D01*
X190647091Y-126763004D01*
X190661611Y-126812933D01*
X190695412Y-126886877D01*
X190782258Y-127003384D01*
X190891275Y-127085441D01*
X191014480Y-127131850D01*
X191143890Y-127141416D01*
X191271522Y-127112940D01*
X191389393Y-127045225D01*
X191489520Y-126937075D01*
X191523851Y-126891928D01*
X191571348Y-126843340D01*
X191605731Y-126824470D01*
X191612608Y-126825726D01*
X191658688Y-126844427D01*
X191735283Y-126882055D01*
X191833570Y-126934142D01*
X191944727Y-126996217D01*
X192046418Y-127055354D01*
X192140059Y-127113391D01*
X192199100Y-127156062D01*
X192228612Y-127187122D01*
X192233665Y-127210330D01*
X192205326Y-127274490D01*
X192148713Y-127362635D01*
X192075260Y-127457296D01*
X191995373Y-127545140D01*
X191919460Y-127612836D01*
X191865404Y-127649318D01*
X191732616Y-127718304D01*
X191584204Y-127775209D01*
X191442293Y-127810852D01*
X191438746Y-127811431D01*
X191331383Y-127821341D01*
X191195125Y-127823769D01*
X191048579Y-127819270D01*
X190910351Y-127808397D01*
X190799050Y-127791705D01*
X190745442Y-127779182D01*
X190511639Y-127695212D01*
X190300899Y-127570688D01*
X190117152Y-127409589D01*
X189964324Y-127215891D01*
X189846343Y-126993574D01*
X189767136Y-126746614D01*
X189737495Y-126612801D01*
X189700289Y-126438124D01*
X189660419Y-126245076D01*
X189618924Y-126039183D01*
X189576842Y-125825971D01*
X189535212Y-125610969D01*
X189495072Y-125399701D01*
X189457461Y-125197695D01*
X189423417Y-125010479D01*
X189393978Y-124843578D01*
X189370184Y-124702519D01*
X189353072Y-124592829D01*
X189343682Y-124520036D01*
X189343051Y-124489665D01*
X189354146Y-124477315D01*
X189380600Y-124466067D01*
X189427842Y-124458446D01*
X189502908Y-124453804D01*
X189612833Y-124451493D01*
X189764651Y-124450867D01*
X189900672Y-124451024D01*
G37*
G36*
X180845426Y-124423320D02*
G01*
X181146967Y-124505453D01*
X181427319Y-124628362D01*
X181683549Y-124789112D01*
X181912724Y-124984772D01*
X182111910Y-125212405D01*
X182278176Y-125469080D01*
X182408587Y-125751861D01*
X182500212Y-126057815D01*
X182550116Y-126384008D01*
X182554038Y-126590614D01*
X182519867Y-126840500D01*
X182443809Y-127069557D01*
X182328276Y-127274499D01*
X182175682Y-127452040D01*
X181988438Y-127598895D01*
X181768958Y-127711778D01*
X181519653Y-127787404D01*
X181474060Y-127796436D01*
X181191908Y-127825754D01*
X180905442Y-127812976D01*
X180622961Y-127760158D01*
X180352765Y-127669355D01*
X180103154Y-127542622D01*
X179882427Y-127382013D01*
X179786819Y-127298929D01*
X179955346Y-127073934D01*
X180024233Y-126984651D01*
X180091598Y-126906451D01*
X180141127Y-126862617D01*
X180176964Y-126848940D01*
X180212265Y-126857238D01*
X180279174Y-126887644D01*
X180354516Y-126932698D01*
X180417301Y-126972973D01*
X180593009Y-127061390D01*
X180771584Y-127111452D01*
X180969075Y-127128267D01*
X180982430Y-127128323D01*
X181096415Y-127124172D01*
X181198788Y-127113108D01*
X181270933Y-127097056D01*
X181393037Y-127035251D01*
X181507817Y-126929143D01*
X181593332Y-126790010D01*
X181647525Y-126622558D01*
X181668339Y-126431491D01*
X181653717Y-126221512D01*
X181625374Y-126073163D01*
X181547179Y-125823185D01*
X181436922Y-125603486D01*
X181296928Y-125416905D01*
X181129523Y-125266279D01*
X180937032Y-125154448D01*
X180721782Y-125084249D01*
X180545409Y-125065986D01*
X180355424Y-125089924D01*
X180177787Y-125158107D01*
X180020330Y-125268477D01*
X179921796Y-125357497D01*
X179656273Y-125123541D01*
X179618308Y-125089908D01*
X179527627Y-125007990D01*
X179453456Y-124938740D01*
X179402624Y-124888615D01*
X179381956Y-124864073D01*
X179381933Y-124864005D01*
X179393752Y-124829743D01*
X179438978Y-124777734D01*
X179508931Y-124715138D01*
X179594929Y-124649117D01*
X179688291Y-124586831D01*
X179780336Y-124535442D01*
X179808336Y-124521981D01*
X180043774Y-124434345D01*
X180288744Y-124389773D01*
X180553083Y-124386369D01*
X180845426Y-124423320D01*
G37*
G36*
X184443823Y-124451024D02*
G01*
X184553865Y-124452146D01*
X184628727Y-124455196D01*
X184675629Y-124461136D01*
X184701793Y-124470929D01*
X184714440Y-124485537D01*
X184720792Y-124505925D01*
X184721947Y-124511144D01*
X184731672Y-124558066D01*
X184749865Y-124647516D01*
X184775684Y-124775306D01*
X184808289Y-124937251D01*
X184846837Y-125129163D01*
X184890489Y-125346855D01*
X184938401Y-125586142D01*
X184989734Y-125842837D01*
X185043646Y-126112752D01*
X185093815Y-126364666D01*
X185150900Y-126653379D01*
X185199014Y-126899719D01*
X185238709Y-127106824D01*
X185270540Y-127277834D01*
X185295061Y-127415887D01*
X185312824Y-127524122D01*
X185324383Y-127605678D01*
X185330292Y-127663694D01*
X185331104Y-127701310D01*
X185327374Y-127721663D01*
X185301338Y-127778805D01*
X184176922Y-127778805D01*
X183052506Y-127778805D01*
X183023969Y-127638102D01*
X183010041Y-127569593D01*
X182985743Y-127450521D01*
X182962772Y-127338377D01*
X182960233Y-127326133D01*
X182946771Y-127260592D01*
X182939971Y-127208669D01*
X182944529Y-127168784D01*
X182965144Y-127139351D01*
X183006512Y-127118789D01*
X183073330Y-127105515D01*
X183170296Y-127097946D01*
X183302107Y-127094500D01*
X183473460Y-127093592D01*
X183689052Y-127093642D01*
X183713012Y-127093630D01*
X183888020Y-127092814D01*
X184045130Y-127090833D01*
X184178134Y-127087860D01*
X184280823Y-127084068D01*
X184346989Y-127079630D01*
X184370424Y-127074716D01*
X184369590Y-127069016D01*
X184361151Y-127023323D01*
X184344339Y-126936053D01*
X184320043Y-126811719D01*
X184289154Y-126654836D01*
X184252563Y-126469918D01*
X184211160Y-126261479D01*
X184165834Y-126034035D01*
X184117477Y-125792098D01*
X184102059Y-125714926D01*
X184040056Y-125401017D01*
X183988342Y-125132829D01*
X183946977Y-124910703D01*
X183916023Y-124734979D01*
X183895539Y-124606000D01*
X183885587Y-124524105D01*
X183886227Y-124489636D01*
X183897279Y-124477330D01*
X183923722Y-124466079D01*
X183970965Y-124458454D01*
X184046039Y-124453808D01*
X184155977Y-124451494D01*
X184307811Y-124450867D01*
X184443823Y-124451024D01*
G37*
G36*
X185264875Y-122096127D02*
G01*
X185779795Y-122147759D01*
X186305703Y-122236819D01*
X186845136Y-122363956D01*
X187400632Y-122529820D01*
X187974728Y-122735063D01*
X188569962Y-122980333D01*
X189188871Y-123266281D01*
X189333890Y-123337544D01*
X189468188Y-123405804D01*
X189565637Y-123458152D01*
X189625008Y-123493739D01*
X189645075Y-123511721D01*
X189624613Y-123511250D01*
X189562395Y-123491478D01*
X189457194Y-123451560D01*
X189227825Y-123366212D01*
X188935425Y-123268606D01*
X188619370Y-123172969D01*
X188292898Y-123083102D01*
X187969247Y-123002809D01*
X187661657Y-122935890D01*
X187176490Y-122853225D01*
X186695659Y-122800712D01*
X186233926Y-122780480D01*
X185794914Y-122792428D01*
X185382250Y-122836454D01*
X184999559Y-122912456D01*
X184650467Y-123020333D01*
X184594196Y-123042146D01*
X184304050Y-123179361D01*
X184028769Y-123350055D01*
X183776714Y-123547810D01*
X183556248Y-123766205D01*
X183375734Y-123998824D01*
X183286809Y-124132755D01*
X181980260Y-124132755D01*
X181970897Y-124132755D01*
X181686203Y-124132686D01*
X181446558Y-124132397D01*
X181248185Y-124131762D01*
X181087308Y-124130652D01*
X180960150Y-124128941D01*
X180862933Y-124126500D01*
X180791882Y-124123203D01*
X180743219Y-124118920D01*
X180713169Y-124113525D01*
X180697953Y-124106891D01*
X180693795Y-124098889D01*
X180696919Y-124089391D01*
X180707435Y-124070557D01*
X180779424Y-123962089D01*
X180880201Y-123832240D01*
X181002351Y-123689144D01*
X181138458Y-123540933D01*
X181281106Y-123395739D01*
X181422878Y-123261695D01*
X181556358Y-123146933D01*
X181810610Y-122955535D01*
X182211887Y-122704122D01*
X182637438Y-122495130D01*
X183087064Y-122328630D01*
X183560569Y-122204691D01*
X184057753Y-122123383D01*
X184578420Y-122084775D01*
X184758406Y-122081271D01*
X185264875Y-122096127D01*
G37*
G36*
X189704913Y-123533237D02*
G01*
X189692678Y-123545472D01*
X189680443Y-123533237D01*
X189692678Y-123521002D01*
X189704913Y-123533237D01*
G37*
D16*
%TO.C,0.1\u03BC*%
X162236100Y-102918600D02*
X162236100Y-102588600D01*
X162566100Y-102588600D02*
X162566100Y-102918600D01*
X162086100Y-102918600D02*
X162086100Y-102588600D01*
X162236100Y-102918600D02*
X162086100Y-102918600D01*
X162566100Y-102918600D02*
X162236100Y-102918600D01*
X162716100Y-102918600D02*
X162566100Y-102918600D01*
X162716100Y-102588600D02*
X162716100Y-102918600D01*
X162566100Y-102588600D02*
X162716100Y-102588600D01*
X162236100Y-102588600D02*
X162566100Y-102588600D01*
X162086100Y-102588600D02*
X162236100Y-102588600D01*
%TO.C,C1*%
X172136100Y-100418600D02*
X172136100Y-100088600D01*
X172466100Y-100088600D02*
X172466100Y-100418600D01*
X171986100Y-100418600D02*
X171986100Y-100088600D01*
X172136100Y-100418600D02*
X171986100Y-100418600D01*
X172466100Y-100418600D02*
X172136100Y-100418600D01*
X172616100Y-100418600D02*
X172466100Y-100418600D01*
X172616100Y-100088600D02*
X172616100Y-100418600D01*
X172466100Y-100088600D02*
X172616100Y-100088600D01*
X172136100Y-100088600D02*
X172466100Y-100088600D01*
X171986100Y-100088600D02*
X172136100Y-100088600D01*
%TO.C,C2*%
X172136100Y-101818600D02*
X172136100Y-101488600D01*
X172466100Y-101488600D02*
X172466100Y-101818600D01*
X171986100Y-101818600D02*
X171986100Y-101488600D01*
X172136100Y-101818600D02*
X171986100Y-101818600D01*
X172466100Y-101818600D02*
X172136100Y-101818600D01*
X172616100Y-101818600D02*
X172466100Y-101818600D01*
X172616100Y-101488600D02*
X172616100Y-101818600D01*
X172466100Y-101488600D02*
X172616100Y-101488600D01*
X172136100Y-101488600D02*
X172466100Y-101488600D01*
X171986100Y-101488600D02*
X172136100Y-101488600D01*
D10*
%TO.C,C5*%
X156281100Y-112483600D02*
X156281100Y-114283600D01*
X154481100Y-114283600D02*
X154481100Y-112483600D01*
X154481100Y-114283600D02*
X153681100Y-114283600D01*
X156281100Y-114283600D02*
X154481100Y-114283600D01*
X157081100Y-114283600D02*
X156281100Y-114283600D01*
X157081100Y-112483600D02*
X157081100Y-114283600D01*
X156281100Y-112483600D02*
X157081100Y-112483600D01*
X154481100Y-112483600D02*
X156281100Y-112483600D01*
X153681100Y-112483600D02*
X154481100Y-112483600D01*
X153681100Y-114283600D02*
X153681100Y-112483600D01*
D16*
%TO.C,C3*%
X170136100Y-100418600D02*
X170136100Y-100088600D01*
X170466100Y-100088600D02*
X170466100Y-100418600D01*
X169986100Y-100418600D02*
X169986100Y-100088600D01*
X170136100Y-100418600D02*
X169986100Y-100418600D01*
X170466100Y-100418600D02*
X170136100Y-100418600D01*
X170616100Y-100418600D02*
X170466100Y-100418600D01*
X170616100Y-100088600D02*
X170616100Y-100418600D01*
X170466100Y-100088600D02*
X170616100Y-100088600D01*
X170136100Y-100088600D02*
X170466100Y-100088600D01*
X169986100Y-100088600D02*
X170136100Y-100088600D01*
%TO.C,C4*%
X170136100Y-101818600D02*
X170136100Y-101488600D01*
X170466100Y-101488600D02*
X170466100Y-101818600D01*
X169986100Y-101818600D02*
X169986100Y-101488600D01*
X170136100Y-101818600D02*
X169986100Y-101818600D01*
X170466100Y-101818600D02*
X170136100Y-101818600D01*
X170616100Y-101818600D02*
X170466100Y-101818600D01*
X170616100Y-101488600D02*
X170616100Y-101818600D01*
X170466100Y-101488600D02*
X170616100Y-101488600D01*
X170136100Y-101488600D02*
X170466100Y-101488600D01*
X169986100Y-101488600D02*
X170136100Y-101488600D01*
D17*
%TO.C,U$1*%
X155901100Y-106653600D02*
X155901100Y-107853600D01*
X155901100Y-106653600D02*
X157101100Y-106653600D01*
X155901100Y-106653600D02*
X155901100Y-105453600D01*
X155901100Y-106653600D02*
X154701100Y-106653600D01*
X156682121Y-106653600D02*
G75*
G03*
X156682121Y-106653600I-781021J0D01*
G01*
X156901100Y-97953600D02*
X157401100Y-98453600D01*
X147701100Y-97953600D02*
X156901100Y-97953600D01*
X147201100Y-98453600D02*
X147701100Y-97953600D01*
X156901100Y-108153600D02*
X147701100Y-108153600D01*
X157401100Y-107653600D02*
X156901100Y-108153600D01*
X157401100Y-98453600D02*
X157401100Y-107653600D01*
X147201100Y-107653600D02*
X147701100Y-108153600D01*
X147201100Y-98453600D02*
X147201100Y-107653600D01*
%TO.C,X1*%
X174301100Y-98283600D02*
X174301100Y-94483600D01*
X166301100Y-98283600D02*
X174301100Y-98283600D01*
X166301100Y-94483600D02*
X174301100Y-94483600D01*
X166301100Y-98283600D02*
X166301100Y-94483600D01*
D10*
%TO.C,X2*%
X165951100Y-103023600D02*
X165951100Y-99623600D01*
X168651100Y-103023600D02*
X165951100Y-103023600D01*
X168651100Y-99623600D02*
X168651100Y-103023600D01*
X165951100Y-99623600D02*
X168651100Y-99623600D01*
%TD*%
M02*
