%TF.GenerationSoftware,KiCad,Pcbnew,7.0.1*%
%TF.CreationDate,2023-09-15T11:15:50+09:00*%
%TF.ProjectId,_________,0a070658-9c5f-4cbd-9eef-2e6b69636164,rev?*%
%TF.SameCoordinates,Original*%
%TF.FileFunction,Copper,L2,Bot*%
%TF.FilePolarity,Positive*%
%FSLAX46Y46*%
G04 Gerber Fmt 4.6, Leading zero omitted, Abs format (unit mm)*
G04 Created by KiCad (PCBNEW 7.0.1) date 2023-09-15 11:15:50*
%MOMM*%
%LPD*%
G01*
G04 APERTURE LIST*
G04 Aperture macros list*
%AMOutline5P*
0 Free polygon, 5 corners , with rotation*
0 The origin of the aperture is its center*
0 number of corners: always 5*
0 $1 to $10 corner X, Y*
0 $11 Rotation angle, in degrees counterclockwise*
0 create outline with 5 corners*
4,1,5,$1,$2,$3,$4,$5,$6,$7,$8,$9,$10,$1,$2,$11*%
%AMOutline6P*
0 Free polygon, 6 corners , with rotation*
0 The origin of the aperture is its center*
0 number of corners: always 6*
0 $1 to $12 corner X, Y*
0 $13 Rotation angle, in degrees counterclockwise*
0 create outline with 6 corners*
4,1,6,$1,$2,$3,$4,$5,$6,$7,$8,$9,$10,$11,$12,$1,$2,$13*%
%AMOutline7P*
0 Free polygon, 7 corners , with rotation*
0 The origin of the aperture is its center*
0 number of corners: always 7*
0 $1 to $14 corner X, Y*
0 $15 Rotation angle, in degrees counterclockwise*
0 create outline with 7 corners*
4,1,7,$1,$2,$3,$4,$5,$6,$7,$8,$9,$10,$11,$12,$13,$14,$1,$2,$15*%
%AMOutline8P*
0 Free polygon, 8 corners , with rotation*
0 The origin of the aperture is its center*
0 number of corners: always 8*
0 $1 to $16 corner X, Y*
0 $17 Rotation angle, in degrees counterclockwise*
0 create outline with 8 corners*
4,1,8,$1,$2,$3,$4,$5,$6,$7,$8,$9,$10,$11,$12,$13,$14,$15,$16,$1,$2,$17*%
G04 Aperture macros list end*
%TA.AperFunction,SMDPad,CuDef*%
%ADD10R,0.350000X0.400000*%
%TD*%
%TA.AperFunction,ComponentPad*%
%ADD11R,1.508000X1.508000*%
%TD*%
%TA.AperFunction,ComponentPad*%
%ADD12C,1.508000*%
%TD*%
%TA.AperFunction,SMDPad,CuDef*%
%ADD13R,1.200000X1.700000*%
%TD*%
%TA.AperFunction,ComponentPad*%
%ADD14O,3.048000X1.524000*%
%TD*%
%TA.AperFunction,ComponentPad*%
%ADD15Outline8P,-0.711200X0.294589X-0.294589X0.711200X0.294589X0.711200X0.711200X0.294589X0.711200X-0.294589X0.294589X-0.711200X-0.294589X-0.711200X-0.711200X-0.294589X180.000000*%
%TD*%
%TA.AperFunction,SMDPad,CuDef*%
%ADD16R,1.300000X1.600000*%
%TD*%
%TA.AperFunction,SMDPad,CuDef*%
%ADD17R,0.270000X1.000000*%
%TD*%
%TA.AperFunction,SMDPad,CuDef*%
%ADD18R,1.000000X0.270000*%
%TD*%
%TA.AperFunction,SMDPad,CuDef*%
%ADD19R,1.300000X1.900000*%
%TD*%
%TA.AperFunction,SMDPad,CuDef*%
%ADD20R,1.100000X1.400000*%
%TD*%
%TA.AperFunction,ComponentPad*%
%ADD21O,1.524000X3.048000*%
%TD*%
%TA.AperFunction,ViaPad*%
%ADD22C,0.756400*%
%TD*%
%TA.AperFunction,Conductor*%
%ADD23C,0.200000*%
%TD*%
%TA.AperFunction,Conductor*%
%ADD24C,0.300000*%
%TD*%
%TA.AperFunction,Conductor*%
%ADD25C,0.250000*%
%TD*%
G04 APERTURE END LIST*
D10*
%TO.P,0.1\u03BC,2*%
%TO.N,SGND*%
X162076100Y-102753600D03*
%TO.P,0.1\u03BC,1*%
%TO.N,NRST*%
X162726100Y-102753600D03*
%TD*%
D11*
%TO.P,AZUSA_CTRL,1*%
%TO.N,PGND*%
X137281100Y-133683600D03*
D12*
%TO.P,AZUSA_CTRL,2*%
%TO.N,N$9*%
X134741100Y-133683600D03*
%TD*%
D10*
%TO.P,C1,2*%
%TO.N,N$3*%
X171976100Y-100253600D03*
%TO.P,C1,1*%
%TO.N,SGND*%
X172626100Y-100253600D03*
%TD*%
%TO.P,C2,2*%
%TO.N,N$1*%
X171976100Y-101653600D03*
%TO.P,C2,1*%
%TO.N,SGND*%
X172626100Y-101653600D03*
%TD*%
D13*
%TO.P,C5,2*%
%TO.N,SGND*%
X156981100Y-113383600D03*
%TO.P,C5,1*%
%TO.N,N$2*%
X153781100Y-113383600D03*
%TD*%
D10*
%TO.P,C3,2*%
%TO.N,N$4*%
X169976100Y-100253600D03*
%TO.P,C3,1*%
%TO.N,SGND*%
X170626100Y-100253600D03*
%TD*%
%TO.P,C4,2*%
%TO.N,N$5*%
X169976100Y-101653600D03*
%TO.P,C4,1*%
%TO.N,SGND*%
X170626100Y-101653600D03*
%TD*%
D11*
%TO.P,CTRL,1*%
%TO.N,PGND*%
X147491100Y-133683600D03*
D12*
%TO.P,CTRL,2*%
%TO.N,N$8*%
X144951100Y-133683600D03*
%TD*%
D11*
%TO.P,ENC1,1*%
%TO.N,SGND*%
X112221100Y-79153600D03*
D12*
%TO.P,ENC1,2*%
%TO.N,N/C*%
X114761100Y-79153600D03*
%TO.P,ENC1,3*%
%TO.N,EN1_A*%
X117301100Y-79153600D03*
%TO.P,ENC1,4*%
%TO.N,+5V*%
X119841100Y-79153600D03*
%TO.P,ENC1,5*%
%TO.N,EN1_B*%
X122381100Y-79153600D03*
%TD*%
D11*
%TO.P,ENC2,1*%
%TO.N,SGND*%
X112221100Y-70453600D03*
D12*
%TO.P,ENC2,2*%
%TO.N,N/C*%
X114761100Y-70453600D03*
%TO.P,ENC2,3*%
%TO.N,EN2_A*%
X117301100Y-70453600D03*
%TO.P,ENC2,4*%
%TO.N,+5V*%
X119841100Y-70453600D03*
%TO.P,ENC2,5*%
%TO.N,EN2_B*%
X122381100Y-70453600D03*
%TD*%
D11*
%TO.P,ENC3,1*%
%TO.N,SGND*%
X129221100Y-70453600D03*
D12*
%TO.P,ENC3,2*%
%TO.N,N/C*%
X131761100Y-70453600D03*
%TO.P,ENC3,3*%
%TO.N,EN3_A*%
X134301100Y-70453600D03*
%TO.P,ENC3,4*%
%TO.N,+5V*%
X136841100Y-70453600D03*
%TO.P,ENC3,5*%
%TO.N,EN3_B*%
X139381100Y-70453600D03*
%TD*%
D14*
%TO.P,BOOT,2*%
%TO.N,BOOT0*%
X156066100Y-89230000D03*
%TO.P,BOOT,1*%
%TO.N,+3V3*%
X156066100Y-91770000D03*
%TD*%
%TO.P,ST-LINK,6*%
%TO.N,SWO*%
X147901100Y-79093600D03*
%TO.P,ST-LINK,5*%
%TO.N,NRST*%
X147901100Y-81633600D03*
%TO.P,ST-LINK,4*%
%TO.N,SWDIO*%
X147901100Y-84173600D03*
%TO.P,ST-LINK,3*%
%TO.N,SGND*%
X147901100Y-86713600D03*
%TO.P,ST-LINK,2*%
%TO.N,SWCLK*%
X147901100Y-89253600D03*
%TO.P,ST-LINK,1*%
%TO.N,+3V3*%
X147901100Y-91793600D03*
%TD*%
D15*
%TO.P,ML1,10*%
%TO.N,PWM1*%
X169731100Y-74003600D03*
%TO.P,ML1,9*%
%TO.N,DIR1*%
X169731100Y-71463600D03*
%TO.P,ML1,8*%
%TO.N,PWM2*%
X172271100Y-74003600D03*
%TO.P,ML1,7*%
%TO.N,DIR2*%
X172271100Y-71463600D03*
%TO.P,ML1,6*%
%TO.N,PWM3*%
X174811100Y-74003600D03*
%TO.P,ML1,5*%
%TO.N,DIR3*%
X174811100Y-71463600D03*
%TO.P,ML1,4*%
%TO.N,PWM4*%
X177351100Y-74003600D03*
%TO.P,ML1,3*%
%TO.N,DIR4*%
X177351100Y-71463600D03*
%TO.P,ML1,2*%
%TO.N,+3V3*%
X179891100Y-74003600D03*
%TO.P,ML1,1*%
%TO.N,SGND*%
X179891100Y-71463600D03*
%TD*%
%TO.P,ML2,10*%
%TO.N,LED4*%
X148151100Y-73893600D03*
%TO.P,ML2,9*%
%TO.N,LED5*%
X148151100Y-71353600D03*
%TO.P,ML2,8*%
%TO.N,LED3*%
X150691100Y-73893600D03*
%TO.P,ML2,7*%
%TO.N,LED6*%
X150691100Y-71353600D03*
%TO.P,ML2,6*%
%TO.N,LED2*%
X153231100Y-73893600D03*
%TO.P,ML2,5*%
%TO.N,LED7*%
X153231100Y-71353600D03*
%TO.P,ML2,4*%
%TO.N,LED1*%
X155771100Y-73893600D03*
%TO.P,ML2,3*%
%TO.N,LED8*%
X155771100Y-71353600D03*
%TO.P,ML2,2*%
%TO.N,+5V*%
X158311100Y-73893600D03*
%TO.P,ML2,1*%
%TO.N,SGND*%
X158311100Y-71353600D03*
%TD*%
D16*
%TO.P,R2,2*%
%TO.N,N$1*%
X164351100Y-98033600D03*
%TO.P,R2,1*%
%TO.N,N$7*%
X162451100Y-98033600D03*
%TD*%
%TO.P,R3,2*%
%TO.N,N$5*%
X164251100Y-100823600D03*
%TO.P,R3,1*%
%TO.N,N$6*%
X162351100Y-100823600D03*
%TD*%
D17*
%TO.P,U$1,VDD4*%
%TO.N,+3V3*%
X156051100Y-97453600D03*
%TO.P,U$1,VSS4*%
%TO.N,SGND*%
X155551100Y-97453600D03*
%TO.P,U$1,PB9*%
%TO.N,N/C*%
X155051100Y-97453600D03*
%TO.P,U$1,PB8*%
X154551100Y-97453600D03*
%TO.P,U$1,BOOT0*%
%TO.N,BOOT0*%
X154051100Y-97453600D03*
%TO.P,U$1,PB7*%
%TO.N,N/C*%
X153551100Y-97453600D03*
%TO.P,U$1,PB6*%
%TO.N,PWM2_SERVO*%
X153051100Y-97453600D03*
%TO.P,U$1,PB5*%
%TO.N,LED2*%
X152551100Y-97453600D03*
%TO.P,U$1,PB4*%
%TO.N,LED3*%
X152051100Y-97453600D03*
%TO.P,U$1,PB3*%
%TO.N,SWO*%
X151551100Y-97453600D03*
%TO.P,U$1,PD2*%
%TO.N,N/C*%
X151051100Y-97453600D03*
%TO.P,U$1,PC12*%
X150551100Y-97453600D03*
%TO.P,U$1,PC11*%
%TO.N,UART_RX*%
X150051100Y-97453600D03*
%TO.P,U$1,PC10*%
%TO.N,UART_TX*%
X149551100Y-97453600D03*
%TO.P,U$1,PA15*%
%TO.N,N/C*%
X149051100Y-97453600D03*
%TO.P,U$1,PA14*%
%TO.N,SWCLK*%
X148551100Y-97453600D03*
D18*
%TO.P,U$1,VDD3*%
%TO.N,+3V3*%
X146701100Y-99303600D03*
%TO.P,U$1,VSS3*%
%TO.N,SGND*%
X146701100Y-99803600D03*
%TO.P,U$1,PA13*%
%TO.N,SWDIO*%
X146701100Y-100303600D03*
%TO.P,U$1,PA12*%
%TO.N,LED4*%
X146701100Y-100803600D03*
%TO.P,U$1,PA11*%
%TO.N,LED5*%
X146701100Y-101303600D03*
%TO.P,U$1,PA10*%
%TO.N,LED6*%
X146701100Y-101803600D03*
%TO.P,U$1,PA9*%
%TO.N,EN3_B*%
X146701100Y-102303600D03*
%TO.P,U$1,PA8*%
%TO.N,EN3_A*%
X146701100Y-102803600D03*
%TO.P,U$1,PC9*%
%TO.N,PWM1*%
X146701100Y-103303600D03*
%TO.P,U$1,PC8*%
%TO.N,PWM2*%
X146701100Y-103803600D03*
%TO.P,U$1,PC7*%
%TO.N,EN2_B*%
X146701100Y-104303600D03*
%TO.P,U$1,PC6*%
%TO.N,EN2_A*%
X146701100Y-104803600D03*
%TO.P,U$1,PB15*%
%TO.N,MOSI*%
X146701100Y-105303600D03*
%TO.P,U$1,PB14*%
%TO.N,MISO*%
X146701100Y-105803600D03*
%TO.P,U$1,PB13*%
%TO.N,SCK*%
X146701100Y-106303600D03*
%TO.P,U$1,PB12*%
%TO.N,CS*%
X146701100Y-106803600D03*
D17*
%TO.P,U$1,VDD2*%
%TO.N,+3V3*%
X148551100Y-108653600D03*
%TO.P,U$1,VSS2*%
%TO.N,SGND*%
X149051100Y-108653600D03*
%TO.P,U$1,VCAP_1*%
%TO.N,N$2*%
X149551100Y-108653600D03*
%TO.P,U$1,PA3*%
%TO.N,NO1*%
X156051100Y-108653600D03*
%TO.P,U$1,PB10*%
%TO.N,EN1_B*%
X150051100Y-108653600D03*
%TO.P,U$1,PB2*%
%TO.N,EN1_A*%
X150551100Y-108653600D03*
%TO.P,U$1,PB1*%
%TO.N,N/C*%
X151051100Y-108653600D03*
%TO.P,U$1,PB0*%
%TO.N,PWM1_SERVO*%
X151551100Y-108653600D03*
%TO.P,U$1,PC5*%
%TO.N,DIR1*%
X152051100Y-108653600D03*
%TO.P,U$1,PC4*%
%TO.N,DIR2*%
X152551100Y-108653600D03*
%TO.P,U$1,PA7*%
%TO.N,DIR3*%
X153051100Y-108653600D03*
%TO.P,U$1,PA6*%
%TO.N,DIR4*%
X153551100Y-108653600D03*
%TO.P,U$1,PA5*%
%TO.N,NO2*%
X154051100Y-108653600D03*
%TO.P,U$1,PA4*%
%TO.N,COM_LED*%
X154551100Y-108653600D03*
%TO.P,U$1,VDD1*%
%TO.N,+3V3*%
X155051100Y-108653600D03*
%TO.P,U$1,VSS1*%
%TO.N,SGND*%
X155551100Y-108653600D03*
D18*
%TO.P,U$1,PA2*%
%TO.N,N/C*%
X157901100Y-106803600D03*
%TO.P,U$1,PA1*%
%TO.N,PWM4*%
X157901100Y-106303600D03*
%TO.P,U$1,PA0*%
%TO.N,PWM3*%
X157901100Y-105803600D03*
%TO.P,U$1,VDDA/VREF+*%
%TO.N,N$46*%
X157901100Y-105303600D03*
%TO.P,U$1,VSSA/VREF-*%
%TO.N,SGND*%
X157901100Y-104803600D03*
%TO.P,U$1,PC3*%
%TO.N,LED7*%
X157901100Y-104303600D03*
%TO.P,U$1,PC2*%
%TO.N,LED8*%
X157901100Y-103803600D03*
%TO.P,U$1,PC1*%
%TO.N,N/C*%
X157901100Y-103303600D03*
%TO.P,U$1,PC13*%
X157901100Y-99803600D03*
%TO.P,U$1,PC14-OSC32_IN*%
%TO.N,N$3*%
X157901100Y-100303600D03*
%TO.P,U$1,PC15-OSC32_OUT*%
%TO.N,N$7*%
X157901100Y-100803600D03*
%TO.P,U$1,PH0-OSC_IN*%
%TO.N,N$4*%
X157901100Y-101303600D03*
%TO.P,U$1,PH1-OSC_OUT*%
%TO.N,N$6*%
X157901100Y-101803600D03*
%TO.P,U$1,NRST*%
%TO.N,NRST*%
X157901100Y-102303600D03*
%TO.P,U$1,PC0*%
%TO.N,LED1*%
X157901100Y-102803600D03*
%TO.P,U$1,VBAT*%
%TO.N,+3V3*%
X157901100Y-99303600D03*
%TD*%
D19*
%TO.P,X1,4*%
%TO.N,N$1*%
X167551100Y-97983600D03*
%TO.P,X1,3*%
%TO.N,N/C*%
X173051100Y-97983600D03*
%TO.P,X1,2*%
X173051100Y-94783600D03*
%TO.P,X1,1*%
%TO.N,N$3*%
X167551100Y-94783600D03*
%TD*%
D20*
%TO.P,X2,3*%
%TO.N,N$5*%
X166501100Y-102423600D03*
%TO.P,X2,4*%
%TO.N,SGND*%
X166501100Y-100223600D03*
%TO.P,X2,2*%
X168101100Y-102423600D03*
%TO.P,X2,1*%
%TO.N,N$4*%
X168101100Y-100223600D03*
%TD*%
D14*
%TO.P,TWE_LEFT,14*%
%TO.N,N/C*%
X110539100Y-122242600D03*
%TO.P,TWE_LEFT,13*%
X110539100Y-119702600D03*
%TO.P,TWE_LEFT,12*%
X110539100Y-117162600D03*
%TO.P,TWE_LEFT,11*%
X110539100Y-114622600D03*
%TO.P,TWE_LEFT,10*%
%TO.N,RX*%
X110539100Y-112082600D03*
%TO.P,TWE_LEFT,9*%
%TO.N,N/C*%
X110539100Y-109542600D03*
%TO.P,TWE_LEFT,8*%
X110539100Y-107002600D03*
%TO.P,TWE_LEFT,7*%
X110539100Y-104462600D03*
%TO.P,TWE_LEFT,6*%
X110539100Y-101922600D03*
%TO.P,TWE_LEFT,5*%
X110539100Y-99382600D03*
%TO.P,TWE_LEFT,4*%
X110539100Y-96842600D03*
%TO.P,TWE_LEFT,3*%
%TO.N,TX*%
X110539100Y-94302600D03*
%TO.P,TWE_LEFT,2*%
%TO.N,N/C*%
X110539100Y-91762600D03*
%TO.P,TWE_LEFT,1*%
%TO.N,SGND*%
X110539100Y-89222600D03*
%TD*%
%TO.P,TWE_RIGHT,14*%
%TO.N,COM_LED2*%
X126191100Y-122263600D03*
%TO.P,TWE_RIGHT,13*%
%TO.N,N/C*%
X126191100Y-119723600D03*
%TO.P,TWE_RIGHT,12*%
X126191100Y-117183600D03*
%TO.P,TWE_RIGHT,11*%
X126191100Y-114643600D03*
%TO.P,TWE_RIGHT,10*%
X126191100Y-112103600D03*
%TO.P,TWE_RIGHT,9*%
X126191100Y-109563600D03*
%TO.P,TWE_RIGHT,8*%
X126191100Y-107023600D03*
%TO.P,TWE_RIGHT,7*%
X126191100Y-104483600D03*
%TO.P,TWE_RIGHT,6*%
X126191100Y-101943600D03*
%TO.P,TWE_RIGHT,5*%
X126191100Y-99403600D03*
%TO.P,TWE_RIGHT,4*%
X126191100Y-96863600D03*
%TO.P,TWE_RIGHT,3*%
X126191100Y-94323600D03*
%TO.P,TWE_RIGHT,2*%
X126191100Y-91783600D03*
%TO.P,TWE_RIGHT,1*%
%TO.N,+3V3*%
X126191100Y-89243600D03*
%TD*%
%TO.P,PIN_SOCKET1,2*%
%TO.N,RX*%
X139181100Y-89203600D03*
%TO.P,PIN_SOCKET1,1*%
%TO.N,UART_RX*%
X139181100Y-91743600D03*
%TD*%
%TO.P,PIN_SOCKET2,2*%
%TO.N,TX*%
X134711100Y-89203600D03*
%TO.P,PIN_SOCKET2,1*%
%TO.N,UART_TX*%
X134711100Y-91743600D03*
%TD*%
D11*
%TO.P,DOWN,1*%
%TO.N,NO2*%
X188001100Y-103783600D03*
D12*
%TO.P,DOWN,2*%
%TO.N,+3V3*%
X188001100Y-106323600D03*
%TD*%
D11*
%TO.P,UP,1*%
%TO.N,NO1*%
X188001100Y-95183600D03*
D12*
%TO.P,UP,2*%
%TO.N,+3V3*%
X188001100Y-97723600D03*
%TD*%
D21*
%TO.P,LEFT_U,2*%
%TO.N,SGND*%
X182512100Y-114760600D03*
%TO.P,LEFT_U,1*%
X185052100Y-114760600D03*
%TD*%
%TO.P,RIGHT_U,2*%
%TO.N,SGND*%
X182524100Y-137611600D03*
%TO.P,RIGHT_U,1*%
X185064100Y-137611600D03*
%TD*%
%TO.P,LEFT_D,4*%
%TO.N,+5V*%
X159681100Y-114738600D03*
%TO.P,LEFT_D,3*%
%TO.N,COM_LED*%
X162221100Y-114738600D03*
%TO.P,LEFT_D,2*%
%TO.N,N/C*%
X164761100Y-114738600D03*
%TO.P,LEFT_D,1*%
%TO.N,SGND*%
X167301100Y-114738600D03*
%TD*%
%TO.P,RIGHT_D,4*%
%TO.N,SCK*%
X159652100Y-137596600D03*
%TO.P,RIGHT_D,3*%
%TO.N,MOSI*%
X162192100Y-137596600D03*
%TO.P,RIGHT_D,2*%
%TO.N,MISO*%
X164732100Y-137596600D03*
%TO.P,RIGHT_D,1*%
%TO.N,CS*%
X167272100Y-137596600D03*
%TD*%
D11*
%TO.P,AZUSA_CON1,1*%
%TO.N,SGND*%
X188101100Y-84883600D03*
D12*
%TO.P,AZUSA_CON1,2*%
%TO.N,PWM1_SERVO*%
X188101100Y-87423600D03*
%TD*%
D11*
%TO.P,AZUSA_CON2,1*%
%TO.N,SGND*%
X179801100Y-85083600D03*
D12*
%TO.P,AZUSA_CON2,2*%
%TO.N,PWM2_SERVO*%
X179801100Y-87623600D03*
%TD*%
D22*
%TO.N,SGND*%
X133550000Y-80300000D03*
%TO.N,PWM1_SERVO*%
X152701100Y-112053600D03*
%TO.N,PWM2_SERVO*%
X178701100Y-81744800D03*
X172401100Y-86153600D03*
X164201100Y-86153600D03*
X159001100Y-86153600D03*
%TO.N,N$46*%
X163726100Y-103996600D03*
%TO.N,NO1*%
X180101100Y-99353600D03*
%TO.N,NO2*%
X180101100Y-100553600D03*
%TO.N,PWM1*%
X162246462Y-104742400D03*
X144601100Y-103153600D03*
%TO.N,LED8*%
X161131700Y-95353600D03*
X159712481Y-103483982D03*
%TO.N,LED7*%
X161901100Y-94753600D03*
X160488100Y-104070600D03*
%TO.N,LED1*%
X160401100Y-96053600D03*
X158966937Y-102934200D03*
%TO.N,+3V3*%
X173995787Y-89992200D03*
X170801100Y-90053600D03*
X132101100Y-111153600D03*
X149801100Y-111853600D03*
X156001100Y-109953600D03*
%TO.N,UART_RX*%
X150401100Y-94653600D03*
%TO.N,UART_TX*%
X149554700Y-96253600D03*
%TO.N,COM_LED*%
X154891100Y-109950600D03*
%TO.N,PWM2*%
X163101100Y-105173000D03*
X143801100Y-103673000D03*
%TO.N,EN1_B*%
X150251700Y-109854582D03*
X142301100Y-104753600D03*
%TO.N,EN1_A*%
X150894100Y-110570600D03*
X142201100Y-105753600D03*
%TO.N,SGND*%
X175998815Y-104598561D03*
X158601100Y-96753600D03*
X160001100Y-107353600D03*
X159500000Y-80600000D03*
X186950000Y-111250000D03*
X108301100Y-108553600D03*
X169101100Y-140853600D03*
X160201100Y-140853600D03*
X171501100Y-134253600D03*
X141101100Y-108353600D03*
X141101100Y-115153600D03*
X132301100Y-84953600D03*
X169201100Y-69553600D03*
X170401100Y-109653600D03*
X143401100Y-83053600D03*
X182701100Y-69653600D03*
X161301100Y-69453600D03*
X131901100Y-88953600D03*
X140101100Y-95153600D03*
X147601100Y-95453600D03*
X110301100Y-85053600D03*
X114500000Y-88900000D03*
X118401100Y-85053600D03*
X171301100Y-107053600D03*
X177901100Y-100453600D03*
X163201100Y-95953600D03*
X150401100Y-82753600D03*
X151301100Y-81353600D03*
X150401100Y-92853600D03*
X145901100Y-85153600D03*
X138501100Y-127953600D03*
X136501100Y-123853600D03*
X143901100Y-123953600D03*
X123701100Y-81753600D03*
X144601100Y-69453600D03*
X159600000Y-99200000D03*
X175701100Y-78853600D03*
X176101100Y-76453600D03*
X120901100Y-73653600D03*
X174401100Y-92653600D03*
X164601100Y-81753600D03*
%TO.N,NRST*%
X164536250Y-103263750D03*
%TD*%
D23*
%TO.N,PWM2_SERVO*%
X172401100Y-86153600D02*
X164201100Y-86153600D01*
%TO.N,NO2*%
X154052700Y-108655200D02*
X154052700Y-110038957D01*
X154051100Y-108653600D02*
X154052700Y-108655200D01*
X154052700Y-110038957D02*
X154652343Y-110638600D01*
X171316100Y-110638600D02*
X180001100Y-101953600D01*
X154652343Y-110638600D02*
X171316100Y-110638600D01*
X180001100Y-100653600D02*
X180001100Y-101953600D01*
X180101100Y-100553600D02*
X180001100Y-100653600D01*
%TO.N,PWM2_SERVO*%
X155177518Y-86153600D02*
X159001100Y-86153600D01*
X153063700Y-97441000D02*
X153063700Y-88267419D01*
X153063700Y-88267419D02*
X155177518Y-86153600D01*
X153051100Y-97453600D02*
X153063700Y-97441000D01*
%TO.N,NRST*%
X164026100Y-102753600D02*
X162726100Y-102753600D01*
X164536250Y-103263750D02*
X164026100Y-102753600D01*
%TO.N,DIR2*%
X172271100Y-70044400D02*
X172271100Y-71463600D01*
X172831500Y-69484000D02*
X172271100Y-70044400D01*
X180893612Y-69484000D02*
X172831500Y-69484000D01*
X181801100Y-70391488D02*
X180893612Y-69484000D01*
X181801100Y-102151968D02*
X181801100Y-70391488D01*
X172223468Y-111729600D02*
X181801100Y-102151968D01*
X152551100Y-110147863D02*
X154132837Y-111729600D01*
X154132837Y-111729600D02*
X172223468Y-111729600D01*
X152551100Y-108653600D02*
X152551100Y-110147863D01*
%TO.N,PWM1_SERVO*%
X151551100Y-108653600D02*
X151551100Y-110903600D01*
X151551100Y-110903600D02*
X152701100Y-112053600D01*
%TO.N,PWM2_SERVO*%
X178701100Y-81744800D02*
X178701100Y-87048550D01*
X179276150Y-87623600D02*
X178701100Y-87048550D01*
X179801100Y-87623600D02*
X179276150Y-87623600D01*
%TO.N,N$46*%
X163662100Y-104060600D02*
X162017906Y-104060600D01*
X163726100Y-103996600D02*
X163662100Y-104060600D01*
X160787506Y-105291000D02*
X162017906Y-104060600D01*
X157913700Y-105291000D02*
X160787506Y-105291000D01*
X157901100Y-105303600D02*
X157913700Y-105291000D01*
%TO.N,NO1*%
X170901100Y-108653600D02*
X180101100Y-99453600D01*
X180101100Y-99453600D02*
X180101100Y-99353600D01*
X156051100Y-108653600D02*
X170901100Y-108653600D01*
%TO.N,PWM1*%
X170712300Y-104942400D02*
X163772306Y-104942400D01*
X176080100Y-99574600D02*
X170712300Y-104942400D01*
X163372306Y-104542400D02*
X163772306Y-104942400D01*
X162646462Y-104542400D02*
X163372306Y-104542400D01*
X162246462Y-104742400D02*
X162446462Y-104742400D01*
X162646462Y-104542400D02*
X162446462Y-104742400D01*
X144751100Y-103303600D02*
X144601100Y-103153600D01*
X146701100Y-103303600D02*
X144751100Y-103303600D01*
X169731100Y-74003600D02*
X169731100Y-74129600D01*
X176080100Y-80478600D02*
X169731100Y-74129600D01*
X176080100Y-80478600D02*
X176080100Y-99574600D01*
%TO.N,PWM4*%
X177345900Y-74988800D02*
X177345900Y-100007175D01*
X177351100Y-74983600D02*
X177345900Y-74988800D01*
X177351100Y-74003600D02*
X177351100Y-74983600D01*
X171049475Y-106303600D02*
X157901100Y-106303600D01*
X177345900Y-100007175D02*
X171049475Y-106303600D01*
%TO.N,LED8*%
X161131700Y-71584200D02*
X159901100Y-70353600D01*
X161131700Y-95353600D02*
X161131700Y-71584200D01*
X159388462Y-103808000D02*
X159712481Y-103483982D01*
X159388462Y-103808000D02*
X157905500Y-103808000D01*
X157901100Y-103803600D02*
X157905500Y-103808000D01*
X155771100Y-70983600D02*
X156401100Y-70353600D01*
X155771100Y-71353600D02*
X155771100Y-70983600D01*
X159901100Y-70353600D02*
X156401100Y-70353600D01*
%TO.N,LED7*%
X160227356Y-69748800D02*
X161901100Y-71422544D01*
X161901100Y-71422544D02*
X161901100Y-94753600D01*
X160055100Y-104503600D02*
X159001100Y-104503600D01*
X160055100Y-104503600D02*
X160488100Y-104070600D01*
X157901100Y-104303600D02*
X158801100Y-104303600D01*
X159001100Y-104503600D02*
X158801100Y-104303600D01*
X153231100Y-70723600D02*
X153231100Y-71353600D01*
X154205900Y-69748800D02*
X153231100Y-70723600D01*
X160227356Y-69748800D02*
X154205900Y-69748800D01*
%TO.N,LED6*%
X150391100Y-70253600D02*
X145301100Y-70253600D01*
X150691100Y-70553600D02*
X150391100Y-70253600D01*
X150691100Y-71353600D02*
X150691100Y-70553600D01*
X145301100Y-70253600D02*
X144301100Y-71253600D01*
X144301100Y-100553600D02*
X144301100Y-71253600D01*
X145551100Y-101803600D02*
X144301100Y-100553600D01*
X146701100Y-101803600D02*
X145551100Y-101803600D01*
%TO.N,LED5*%
X145851100Y-71353600D02*
X148151100Y-71353600D01*
X145851100Y-71353600D02*
X144701100Y-72503600D01*
X144701100Y-100353600D02*
X144701100Y-72503600D01*
X145651100Y-101303600D02*
X144701100Y-100353600D01*
X146701100Y-101303600D02*
X145651100Y-101303600D01*
%TO.N,LED4*%
X145709150Y-100803600D02*
X145153500Y-100247950D01*
X146701100Y-100803600D02*
X145709150Y-100803600D01*
X145153500Y-100247950D02*
X145153500Y-74991200D01*
X146251100Y-73893600D02*
X148151100Y-73893600D01*
X146251100Y-73893600D02*
X145153500Y-74991200D01*
%TO.N,LED3*%
X151591100Y-73893600D02*
X150691100Y-73893600D01*
X152051100Y-74353600D02*
X151591100Y-73893600D01*
X152051100Y-97453600D02*
X152051100Y-74353600D01*
%TO.N,LED2*%
X152551100Y-74173600D02*
X152551100Y-97453600D01*
X152831100Y-73893600D02*
X152551100Y-74173600D01*
X153231100Y-73893600D02*
X152831100Y-73893600D01*
%TO.N,LED1*%
X160401100Y-78523600D02*
X155771100Y-73893600D01*
X160401100Y-96053600D02*
X160401100Y-78523600D01*
X158836337Y-102803600D02*
X158966937Y-102934200D01*
X157901100Y-102803600D02*
X158836337Y-102803600D01*
D24*
%TO.N,+3V3*%
X157338443Y-99303600D02*
X155051100Y-101590944D01*
X155051100Y-101590944D02*
X155051100Y-108653600D01*
D25*
X155051100Y-109180900D02*
X155051100Y-108653600D01*
X155301200Y-109431000D02*
X155051100Y-109180900D01*
X155478500Y-109431000D02*
X155301200Y-109431000D01*
X156001100Y-109953600D02*
X155478500Y-109431000D01*
D24*
X173934387Y-90053600D02*
X173995787Y-89992200D01*
X170801100Y-90053600D02*
X173934387Y-90053600D01*
X157338443Y-99303600D02*
X157901100Y-99303600D01*
X156051100Y-98416257D02*
X155163756Y-99303600D01*
X156051100Y-97453600D02*
X156051100Y-98416257D01*
X157901100Y-98503600D02*
X157901100Y-99303600D01*
X156051100Y-97453600D02*
X156851100Y-97453600D01*
X157901100Y-98503600D02*
X156851100Y-97453600D01*
X156051100Y-92016600D02*
X156066100Y-92001600D01*
X156051100Y-97453600D02*
X156051100Y-92016600D01*
X155163756Y-99303600D02*
X146701100Y-99303600D01*
D23*
X131291100Y-110343600D02*
X131291100Y-94243600D01*
X132101100Y-111153600D02*
X131291100Y-110343600D01*
D24*
X149701100Y-111853600D02*
X148551100Y-110703600D01*
X149801100Y-111853600D02*
X149701100Y-111853600D01*
X148551100Y-108653600D02*
X148551100Y-110703600D01*
X186944700Y-98804344D02*
X188001100Y-97747944D01*
X188001100Y-106319257D02*
X186944700Y-105262857D01*
X188001100Y-97747944D02*
X188001100Y-97723600D01*
X188001100Y-106323600D02*
X188001100Y-106319257D01*
X186944700Y-105262857D02*
X186944700Y-98804344D01*
D23*
X126191100Y-89243600D02*
X126291100Y-89243600D01*
X131291100Y-94243600D02*
X126291100Y-89243600D01*
D24*
X146701100Y-92993600D02*
X146701100Y-99303600D01*
X147901100Y-91793600D02*
X146701100Y-92993600D01*
D23*
%TO.N,UART_RX*%
X150051100Y-97453600D02*
X150051100Y-96853600D01*
X150351100Y-96553600D02*
X150051100Y-96853600D01*
X150351100Y-94703600D02*
X150351100Y-96553600D01*
X150401100Y-94653600D02*
X150351100Y-94703600D01*
%TO.N,UART_TX*%
X149553500Y-96254800D02*
X149553500Y-97451200D01*
X149554700Y-96253600D02*
X149553500Y-96254800D01*
X149551100Y-97453600D02*
X149553500Y-97451200D01*
%TO.N,COM_LED*%
X154891100Y-109685550D02*
X154546700Y-109341150D01*
X154891100Y-109950600D02*
X154891100Y-109685550D01*
X154546700Y-108658000D02*
X154546700Y-109341150D01*
X154551100Y-108653600D02*
X154546700Y-108658000D01*
%TO.N,SWDIO*%
X147901100Y-84173600D02*
X145934100Y-86140600D01*
X146138100Y-100303600D02*
X145934100Y-100099600D01*
X146138100Y-100303600D02*
X146701100Y-100303600D01*
X145934100Y-86140600D02*
X145934100Y-100099600D01*
%TO.N,SWO*%
X151551100Y-96953600D02*
X151151100Y-96553600D01*
X151551100Y-97453600D02*
X151551100Y-96953600D01*
X151151100Y-82343600D02*
X151151100Y-96553600D01*
X151151100Y-82343600D02*
X147901100Y-79093600D01*
%TO.N,SWCLK*%
X149751100Y-90003600D02*
X149751100Y-92653600D01*
X149751100Y-90003600D02*
X149001100Y-89253600D01*
X147901100Y-89253600D02*
X149001100Y-89253600D01*
X148551100Y-93853600D02*
X148551100Y-97453600D01*
X149751100Y-92653600D02*
X148551100Y-93853600D01*
%TO.N,PWM3*%
X170951100Y-105803600D02*
X157901100Y-105803600D01*
X176901100Y-99853600D02*
X170951100Y-105803600D01*
X176901100Y-76022544D02*
X176901100Y-99853600D01*
X174882156Y-74003600D02*
X176901100Y-76022544D01*
X174811100Y-74003600D02*
X174882156Y-74003600D01*
%TO.N,PWM2*%
X163601100Y-105373000D02*
X170812756Y-105373000D01*
X163376100Y-105148000D02*
X163126100Y-105148000D01*
X163101100Y-105173000D02*
X163126100Y-105148000D01*
X163601100Y-105373000D02*
X163376100Y-105148000D01*
X143931700Y-103803600D02*
X143801100Y-103673000D01*
X146701100Y-103803600D02*
X143931700Y-103803600D01*
X172271100Y-74003600D02*
X176501100Y-78233600D01*
X170812756Y-105373000D02*
X176501100Y-99684657D01*
X176501100Y-78233600D02*
X176501100Y-99684657D01*
%TO.N,EN1_B*%
X150051100Y-109653982D02*
X150251700Y-109854582D01*
X150051100Y-108653600D02*
X150051100Y-109653982D01*
X141948700Y-85601200D02*
X138458300Y-82110800D01*
X122381100Y-79153600D02*
X122381100Y-79163032D01*
X125328868Y-82110800D02*
X122381100Y-79163032D01*
X138458300Y-82110800D02*
X125328868Y-82110800D01*
X141948700Y-85601200D02*
X141948700Y-104401200D01*
X142301100Y-104753600D02*
X141948700Y-104401200D01*
%TO.N,EN1_A*%
X150553700Y-109148150D02*
X150901100Y-109495550D01*
X150901100Y-110563600D02*
X150894100Y-110570600D01*
X150901100Y-109495550D02*
X150901100Y-110563600D01*
X150553700Y-108656200D02*
X150553700Y-109148150D01*
X150551100Y-108653600D02*
X150553700Y-108656200D01*
X117318093Y-79153600D02*
X117301100Y-79153600D01*
X120721693Y-82557200D02*
X117318093Y-79153600D01*
X138195100Y-82557200D02*
X120721693Y-82557200D01*
X141496300Y-85858400D02*
X138195100Y-82557200D01*
X142201100Y-105753600D02*
X141496300Y-105048800D01*
X141496300Y-85858400D02*
X141496300Y-105048800D01*
%TO.N,EN3_B*%
X145497100Y-102303600D02*
X143835100Y-100641600D01*
X146701100Y-102303600D02*
X145497100Y-102303600D01*
X139381100Y-70453600D02*
X139381100Y-80283600D01*
X143835100Y-84737600D02*
X139381100Y-80283600D01*
X143835100Y-100641600D02*
X143835100Y-84737600D01*
%TO.N,EN3_A*%
X143401100Y-100732600D02*
X145472100Y-102803600D01*
X145472100Y-102803600D02*
X146701100Y-102803600D01*
X134301100Y-79553600D02*
X134301100Y-70453600D01*
X135501100Y-80753600D02*
X134301100Y-79553600D01*
X139201100Y-80753600D02*
X135501100Y-80753600D01*
X143401100Y-84953600D02*
X139201100Y-80753600D01*
X143401100Y-100732600D02*
X143401100Y-84953600D01*
%TO.N,EN2_B*%
X146701100Y-104303600D02*
X143539100Y-104303600D01*
X143539100Y-104303600D02*
X142850100Y-103614600D01*
X122301100Y-70533600D02*
X122301100Y-75753600D01*
X122381100Y-70453600D02*
X122301100Y-70533600D01*
X127801100Y-81253600D02*
X122301100Y-75753600D01*
X139001100Y-81253600D02*
X127801100Y-81253600D01*
X142850100Y-85102600D02*
X139001100Y-81253600D01*
X142850100Y-103614600D02*
X142850100Y-85102600D01*
%TO.N,EN2_A*%
X142401100Y-103887600D02*
X143317100Y-104803600D01*
X143317100Y-104803600D02*
X146701100Y-104803600D01*
X142401100Y-85353600D02*
X138705900Y-81658400D01*
X117301100Y-72153600D02*
X117301100Y-70453600D01*
X126805900Y-81658400D02*
X117301100Y-72153600D01*
X138705900Y-81658400D02*
X126805900Y-81658400D01*
X142401100Y-85353600D02*
X142401100Y-103887600D01*
%TO.N,N$7*%
X161751100Y-98033600D02*
X158981100Y-100803600D01*
X161751100Y-98033600D02*
X162451100Y-98033600D01*
X157901100Y-100803600D02*
X158981100Y-100803600D01*
%TO.N,N$6*%
X161371100Y-101803600D02*
X162351100Y-100823600D01*
X157901100Y-101803600D02*
X161371100Y-101803600D01*
%TO.N,N$5*%
X169076100Y-103453600D02*
X169976100Y-102553600D01*
X166501100Y-103053600D02*
X166501100Y-102423600D01*
X166901100Y-103453600D02*
X166501100Y-103053600D01*
X166901100Y-103453600D02*
X169076100Y-103453600D01*
X169976100Y-102553600D02*
X169976100Y-101653600D01*
X164901100Y-100823600D02*
X166501100Y-102423600D01*
X164251100Y-100823600D02*
X164901100Y-100823600D01*
%TO.N,N$4*%
X168101100Y-100223600D02*
X169946100Y-100223600D01*
X169976100Y-100253600D02*
X169946100Y-100223600D01*
X168101100Y-99923600D02*
X167431100Y-99253600D01*
X168101100Y-99923600D02*
X168101100Y-100223600D01*
X161801100Y-99253600D02*
X167431100Y-99253600D01*
X159751100Y-101303600D02*
X161801100Y-99253600D01*
X157901100Y-101303600D02*
X159751100Y-101303600D01*
%TO.N,N$3*%
X171976100Y-99953600D02*
X171976100Y-100253600D01*
X172376100Y-99553600D02*
X171976100Y-99953600D01*
X174076100Y-99553600D02*
X172376100Y-99553600D01*
X175476100Y-98153600D02*
X174076100Y-99553600D01*
X175476100Y-94808600D02*
X175476100Y-98153600D01*
X167551100Y-94783600D02*
X167551100Y-94283600D01*
X168351100Y-93483600D02*
X167551100Y-94283600D01*
X174151100Y-93483600D02*
X168351100Y-93483600D01*
X175476100Y-94808600D02*
X174151100Y-93483600D01*
X163027812Y-94783600D02*
X167551100Y-94783600D01*
X158929700Y-98881713D02*
X163027812Y-94783600D01*
X158929700Y-100033288D02*
X158929700Y-98881713D01*
X158659787Y-100303200D02*
X158929700Y-100033288D01*
X158659787Y-100303200D02*
X157901500Y-100303200D01*
X157901100Y-100303600D02*
X157901500Y-100303200D01*
%TO.N,N$1*%
X167551100Y-97983600D02*
X169731100Y-97983600D01*
X171101100Y-99353600D02*
X169731100Y-97983600D01*
X171976100Y-101553600D02*
X171101100Y-100678600D01*
X171976100Y-101653600D02*
X171976100Y-101553600D01*
X171101100Y-99353600D02*
X171101100Y-100678600D01*
X167551100Y-97983600D02*
X166996100Y-98538600D01*
X164351100Y-98033600D02*
X164856100Y-98538600D01*
X166996100Y-98538600D02*
X164856100Y-98538600D01*
%TO.N,CS*%
X145801100Y-113003600D02*
X167272100Y-134474600D01*
X167272100Y-134474600D02*
X167272100Y-137596600D01*
X145801100Y-107703600D02*
X145801100Y-113003600D01*
X146701100Y-106803600D02*
X145801100Y-107703600D01*
%TO.N,DIR1*%
X152051100Y-110146238D02*
X154022262Y-112117400D01*
X152051100Y-108653600D02*
X152051100Y-110146238D01*
X154022262Y-112117400D02*
X172386300Y-112117400D01*
X152051100Y-108653600D02*
X152051700Y-108654200D01*
X182205900Y-102297800D02*
X182205900Y-70165232D01*
X169731100Y-70023600D02*
X169731100Y-71463600D01*
X170705900Y-69048800D02*
X169731100Y-70023600D01*
X182205900Y-70165232D02*
X181089468Y-69048800D01*
X181089468Y-69048800D02*
X170705900Y-69048800D01*
X172386300Y-112117400D02*
X182205900Y-102297800D01*
%TO.N,DIR3*%
X172104900Y-111349800D02*
X154255350Y-111349800D01*
X153051100Y-110145550D02*
X153051100Y-108653600D01*
X154255350Y-111349800D02*
X153051100Y-110145550D01*
X174811100Y-70363600D02*
X174811100Y-71463600D01*
X175325900Y-69848800D02*
X174811100Y-70363600D01*
X181401100Y-70622544D02*
X180627356Y-69848800D01*
X181401100Y-102053600D02*
X181401100Y-70622544D01*
X180627356Y-69848800D02*
X175325900Y-69848800D01*
X181401100Y-102053600D02*
X172104900Y-111349800D01*
%TO.N,DIR4*%
X171902700Y-110991000D02*
X154396550Y-110991000D01*
X153551100Y-110145550D02*
X153551100Y-108653600D01*
X154396550Y-110991000D02*
X153551100Y-110145550D01*
X181009100Y-101884600D02*
X171902700Y-110991000D01*
X177351100Y-70703600D02*
X177351100Y-71463600D01*
X177701100Y-70353600D02*
X177351100Y-70703600D01*
X180421100Y-70353600D02*
X177701100Y-70353600D01*
X181009100Y-70941600D02*
X180421100Y-70353600D01*
X181009100Y-101884600D02*
X181009100Y-70941600D01*
%TO.N,N$2*%
X149551100Y-110153600D02*
X149551100Y-108653600D01*
X152781100Y-113383600D02*
X149551100Y-110153600D01*
X153781100Y-113383600D02*
X152781100Y-113383600D01*
%TO.N,MOSI*%
X162192100Y-135019650D02*
X142067700Y-114895250D01*
X162192100Y-137596600D02*
X162192100Y-135019650D01*
X142067700Y-108178713D02*
X144946412Y-105300000D01*
X142067700Y-114895250D02*
X142067700Y-108178713D01*
X146697500Y-105300000D02*
X144946412Y-105300000D01*
X146701100Y-105303600D02*
X146697500Y-105300000D01*
%TO.N,MISO*%
X164732100Y-134923944D02*
X143972500Y-114164344D01*
X164732100Y-137596600D02*
X164732100Y-134923944D01*
X143972500Y-114164344D02*
X143972500Y-107973913D01*
X146697500Y-105800000D02*
X146146412Y-105800000D01*
X146701100Y-105803600D02*
X146697500Y-105800000D01*
X143972500Y-107973913D02*
X146146412Y-105800000D01*
%TO.N,SCK*%
X147193050Y-106303600D02*
X147547500Y-106658050D01*
X146701100Y-106303600D02*
X147193050Y-106303600D01*
X159652100Y-138288600D02*
X159652100Y-137596600D01*
X161301100Y-139937600D02*
X159652100Y-138288600D01*
X168417100Y-139937600D02*
X161301100Y-139937600D01*
X170301100Y-138053600D02*
X168417100Y-139937600D01*
X147547500Y-112086807D02*
X170301100Y-134840407D01*
X147547500Y-106658050D02*
X147547500Y-112086807D01*
X170301100Y-134840407D02*
X170301100Y-138053600D01*
%TO.N,NRST*%
X162726100Y-102883400D02*
X162403500Y-103206000D01*
X162726100Y-102753600D02*
X162726100Y-102883400D01*
X160894300Y-102303600D02*
X161796700Y-103206000D01*
X161796700Y-103206000D02*
X162403500Y-103206000D01*
X157901100Y-102303600D02*
X160894300Y-102303600D01*
%TO.N,BOOT0*%
X156066100Y-89480313D02*
X154053500Y-91492913D01*
X156066100Y-89461600D02*
X156066100Y-89480313D01*
X154053500Y-97451200D02*
X154053500Y-91492913D01*
X154051100Y-97453600D02*
X154053500Y-97451200D01*
%TD*%
M02*
