M48
; DRILL file {KiCad 7.0.1} date Fri Sep 15 11:15:29 2023
; FORMAT={-:-/ absolute / inch / decimal}
; #@! TF.CreationDate,2023-09-15T11:15:29+09:00
; #@! TF.GenerationSoftware,Kicad,Pcbnew,7.0.1
; #@! TF.FileFunction,Plated,1,2,PTH
FMAT,2
INCH
; #@! TA.AperFunction,Plated,PTH,ViaDrill
T1C0.0138
; #@! TA.AperFunction,Plated,PTH,ComponentDrill
T2C0.0360
; #@! TA.AperFunction,Plated,PTH,ComponentDrill
T3C0.0394
; #@! TA.AperFunction,Plated,PTH,ComponentDrill
T4C0.0400
%
G90
G05
T1
X4.2638Y-4.2738
X4.3426Y-3.3486
X4.5079Y-3.5
X4.6615Y-3.3486
X4.7599Y-2.8997
X4.8701Y-3.2186
X5.193Y-3.5021
X5.2008Y-4.3761
X5.2087Y-3.3446
X5.2579Y-3.1614
X5.3741Y-4.8761
X5.4528Y-5.0375
X5.5158Y-3.7462
X5.5552Y-4.2659
X5.5552Y-4.5336
X5.5985Y-4.1635
X5.6024Y-4.1242
X5.6457Y-3.2698
X5.6615Y-4.0816
X5.6654Y-4.8801
X5.693Y-2.7344
X5.693Y-4.0612
X5.7441Y-3.3525
X5.8111Y-3.758
X5.888Y-3.7895
X5.8977Y-4.4037
X5.9154Y-4.325
X5.9213Y-3.258
X5.9213Y-3.6557
X5.9213Y-3.7265
X5.9407Y-4.3532
X5.9567Y-3.2029
X6.0119Y-4.4116
X6.0981Y-4.3288
X6.1418Y-4.3289
X6.2441Y-3.8092
X6.2585Y-4.0525
X6.2599Y-3.3919
X6.2795Y-3.1732
X6.2835Y-3.9055
X6.2879Y-4.0742
X6.2993Y-4.2265
X6.3071Y-5.5454
X6.315Y-3.7816
X6.3184Y-4.0973
X6.3438Y-3.7541
X6.3504Y-2.7344
X6.3741Y-3.7305
X6.3877Y-4.1237
X6.4213Y-4.1407
X6.4252Y-3.7777
X6.4459Y-4.0944
X6.4646Y-3.3919
X6.4778Y-4.0655
X6.4804Y-3.2186
X6.6575Y-5.5454
X6.6615Y-2.7383
X6.7087Y-4.3171
X6.7245Y-3.5454
X6.7441Y-4.2147
X6.752Y-5.2856
X6.7874Y-3.3919
X6.8502Y-3.543
X6.8662Y-3.6478
X6.9174Y-3.1045
X6.9291Y-4.1181
X6.9331Y-3.01
X7.004Y-3.9549
X7.0355Y-3.2183
X7.0906Y-3.9116
X7.0906Y-3.9588
X7.193Y-2.7423
X7.3602Y-4.3799
T2
X5.8327Y-2.8092
X5.8327Y-2.9092
X5.9327Y-2.8092
X5.9327Y-2.9092
X6.0327Y-2.8092
X6.0327Y-2.9092
X6.1327Y-2.8092
X6.1327Y-2.9092
X6.2327Y-2.8092
X6.2327Y-2.9092
X6.6823Y-2.8135
X6.6823Y-2.9135
X6.7823Y-2.8135
X6.7823Y-2.9135
X6.8823Y-2.8135
X6.8823Y-2.9135
X6.9823Y-2.8135
X6.9823Y-2.9135
X7.0823Y-2.8135
X7.0823Y-2.9135
T3
X4.4182Y-2.7738
X4.4182Y-3.1163
X4.5182Y-2.7738
X4.5182Y-3.1163
X4.6182Y-2.7738
X4.6182Y-3.1163
X4.7182Y-2.7738
X4.7182Y-3.1163
X4.8182Y-2.7738
X4.8182Y-3.1163
X5.0874Y-2.7738
X5.1874Y-2.7738
X5.2874Y-2.7738
X5.3048Y-5.2631
X5.3874Y-2.7738
X5.4048Y-5.2631
X5.4874Y-2.7738
X5.7067Y-5.2631
X5.8067Y-5.2631
X7.0788Y-3.3497
X7.0788Y-3.4497
X7.4016Y-3.7474
X7.4016Y-3.8474
X7.4016Y-4.086
X7.4016Y-4.186
X7.4056Y-3.3419
X7.4056Y-3.4419
T4
X4.3519Y-3.5127
X4.3519Y-3.6127
X4.3519Y-3.7127
X4.3519Y-3.8127
X4.3519Y-3.9127
X4.3519Y-4.0127
X4.3519Y-4.1127
X4.3519Y-4.2127
X4.3519Y-4.3127
X4.3519Y-4.4127
X4.3519Y-4.5127
X4.3519Y-4.6127
X4.3519Y-4.7127
X4.3519Y-4.8127
X4.9682Y-3.5135
X4.9682Y-3.6135
X4.9682Y-3.7135
X4.9682Y-3.8135
X4.9682Y-3.9135
X4.9682Y-4.0135
X4.9682Y-4.1135
X4.9682Y-4.2135
X4.9682Y-4.3135
X4.9682Y-4.4135
X4.9682Y-4.5135
X4.9682Y-4.6135
X4.9682Y-4.7135
X4.9682Y-4.8135
X5.3036Y-3.512
X5.3036Y-3.612
X5.4796Y-3.512
X5.4796Y-3.612
X5.8229Y-3.1139
X5.8229Y-3.2139
X5.8229Y-3.3139
X5.8229Y-3.4139
X5.8229Y-3.5139
X5.8229Y-3.6139
X6.1443Y-3.513
X6.1443Y-3.613
X6.2855Y-5.4172
X6.2867Y-4.5173
X6.3855Y-5.4172
X6.3867Y-4.5173
X6.4855Y-5.4172
X6.4867Y-4.5173
X6.5855Y-5.4172
X6.5867Y-4.5173
X7.1855Y-4.5181
X7.186Y-5.4178
X7.2855Y-4.5181
X7.286Y-5.4178
T0
M30
