%TF.GenerationSoftware,KiCad,Pcbnew,7.0.1*%
%TF.CreationDate,2023-09-15T11:15:50+09:00*%
%TF.ProjectId,_________,0a070658-9c5f-4cbd-9eef-2e6b69636164,rev?*%
%TF.SameCoordinates,Original*%
%TF.FileFunction,Paste,Bot*%
%TF.FilePolarity,Positive*%
%FSLAX46Y46*%
G04 Gerber Fmt 4.6, Leading zero omitted, Abs format (unit mm)*
G04 Created by KiCad (PCBNEW 7.0.1) date 2023-09-15 11:15:50*
%MOMM*%
%LPD*%
G01*
G04 APERTURE LIST*
%ADD10R,0.350000X0.400000*%
%ADD11R,1.200000X1.700000*%
%ADD12R,1.300000X1.600000*%
%ADD13R,0.270000X1.000000*%
%ADD14R,1.000000X0.270000*%
%ADD15R,1.300000X1.900000*%
%ADD16R,1.100000X1.400000*%
G04 APERTURE END LIST*
D10*
%TO.C,0.1\u03BC*%
X162076100Y-102753600D03*
X162726100Y-102753600D03*
%TD*%
%TO.C,C1*%
X171976100Y-100253600D03*
X172626100Y-100253600D03*
%TD*%
%TO.C,C2*%
X171976100Y-101653600D03*
X172626100Y-101653600D03*
%TD*%
D11*
%TO.C,C5*%
X156981100Y-113383600D03*
X153781100Y-113383600D03*
%TD*%
D10*
%TO.C,C3*%
X169976100Y-100253600D03*
X170626100Y-100253600D03*
%TD*%
%TO.C,C4*%
X169976100Y-101653600D03*
X170626100Y-101653600D03*
%TD*%
D12*
%TO.C,R2*%
X164351100Y-98033600D03*
X162451100Y-98033600D03*
%TD*%
%TO.C,R3*%
X164251100Y-100823600D03*
X162351100Y-100823600D03*
%TD*%
D13*
%TO.C,U$1*%
X156051100Y-97453600D03*
X155551100Y-97453600D03*
X155051100Y-97453600D03*
X154551100Y-97453600D03*
X154051100Y-97453600D03*
X153551100Y-97453600D03*
X153051100Y-97453600D03*
X152551100Y-97453600D03*
X152051100Y-97453600D03*
X151551100Y-97453600D03*
X151051100Y-97453600D03*
X150551100Y-97453600D03*
X150051100Y-97453600D03*
X149551100Y-97453600D03*
X149051100Y-97453600D03*
X148551100Y-97453600D03*
D14*
X146701100Y-99303600D03*
X146701100Y-99803600D03*
X146701100Y-100303600D03*
X146701100Y-100803600D03*
X146701100Y-101303600D03*
X146701100Y-101803600D03*
X146701100Y-102303600D03*
X146701100Y-102803600D03*
X146701100Y-103303600D03*
X146701100Y-103803600D03*
X146701100Y-104303600D03*
X146701100Y-104803600D03*
X146701100Y-105303600D03*
X146701100Y-105803600D03*
X146701100Y-106303600D03*
X146701100Y-106803600D03*
D13*
X148551100Y-108653600D03*
X149051100Y-108653600D03*
X149551100Y-108653600D03*
X156051100Y-108653600D03*
X150051100Y-108653600D03*
X150551100Y-108653600D03*
X151051100Y-108653600D03*
X151551100Y-108653600D03*
X152051100Y-108653600D03*
X152551100Y-108653600D03*
X153051100Y-108653600D03*
X153551100Y-108653600D03*
X154051100Y-108653600D03*
X154551100Y-108653600D03*
X155051100Y-108653600D03*
X155551100Y-108653600D03*
D14*
X157901100Y-106803600D03*
X157901100Y-106303600D03*
X157901100Y-105803600D03*
X157901100Y-105303600D03*
X157901100Y-104803600D03*
X157901100Y-104303600D03*
X157901100Y-103803600D03*
X157901100Y-103303600D03*
X157901100Y-99803600D03*
X157901100Y-100303600D03*
X157901100Y-100803600D03*
X157901100Y-101303600D03*
X157901100Y-101803600D03*
X157901100Y-102303600D03*
X157901100Y-102803600D03*
X157901100Y-99303600D03*
%TD*%
D15*
%TO.C,X1*%
X167551100Y-97983600D03*
X173051100Y-97983600D03*
X173051100Y-94783600D03*
X167551100Y-94783600D03*
%TD*%
D16*
%TO.C,X2*%
X166501100Y-102423600D03*
X166501100Y-100223600D03*
X168101100Y-102423600D03*
X168101100Y-100223600D03*
%TD*%
M02*
