%TF.GenerationSoftware,KiCad,Pcbnew,7.0.1*%
%TF.CreationDate,2023-09-15T11:15:50+09:00*%
%TF.ProjectId,_________,0a070658-9c5f-4cbd-9eef-2e6b69636164,rev?*%
%TF.SameCoordinates,Original*%
%TF.FileFunction,Soldermask,Top*%
%TF.FilePolarity,Negative*%
%FSLAX46Y46*%
G04 Gerber Fmt 4.6, Leading zero omitted, Abs format (unit mm)*
G04 Created by KiCad (PCBNEW 7.0.1) date 2023-09-15 11:15:50*
%MOMM*%
%LPD*%
G01*
G04 APERTURE LIST*
G04 Aperture macros list*
%AMRoundRect*
0 Rectangle with rounded corners*
0 $1 Rounding radius*
0 $2 $3 $4 $5 $6 $7 $8 $9 X,Y pos of 4 corners*
0 Add a 4 corners polygon primitive as box body*
4,1,4,$2,$3,$4,$5,$6,$7,$8,$9,$2,$3,0*
0 Add four circle primitives for the rounded corners*
1,1,$1+$1,$2,$3*
1,1,$1+$1,$4,$5*
1,1,$1+$1,$6,$7*
1,1,$1+$1,$8,$9*
0 Add four rect primitives between the rounded corners*
20,1,$1+$1,$2,$3,$4,$5,0*
20,1,$1+$1,$4,$5,$6,$7,0*
20,1,$1+$1,$6,$7,$8,$9,0*
20,1,$1+$1,$8,$9,$2,$3,0*%
%AMFreePoly0*
4,1,25,0.333470,0.805066,0.366431,0.783042,0.783042,0.366431,0.805066,0.333470,0.812800,0.294589,0.812800,-0.294589,0.805066,-0.333470,0.783042,-0.366431,0.366431,-0.783042,0.333470,-0.805066,0.294589,-0.812800,-0.294589,-0.812800,-0.333470,-0.805066,-0.366431,-0.783042,-0.783042,-0.366431,-0.805066,-0.333470,-0.812800,-0.294589,-0.812800,0.294589,-0.805066,0.333470,-0.783042,0.366431,
-0.366431,0.783042,-0.333470,0.805066,-0.294589,0.812800,0.294589,0.812800,0.333470,0.805066,0.333470,0.805066,$1*%
G04 Aperture macros list end*
%ADD10RoundRect,0.101600X-0.754000X-0.754000X0.754000X-0.754000X0.754000X0.754000X-0.754000X0.754000X0*%
%ADD11C,1.711200*%
%ADD12RoundRect,0.101600X-0.175000X-0.200000X0.175000X-0.200000X0.175000X0.200000X-0.175000X0.200000X0*%
%ADD13RoundRect,0.101600X0.754000X0.754000X-0.754000X0.754000X-0.754000X-0.754000X0.754000X-0.754000X0*%
%ADD14C,3.200000*%
%ADD15O,3.251200X1.727200*%
%ADD16FreePoly0,180.000000*%
%ADD17RoundRect,0.101600X-0.650000X-0.800000X0.650000X-0.800000X0.650000X0.800000X-0.650000X0.800000X0*%
%ADD18RoundRect,0.101600X1.100000X-1.750000X1.100000X1.750000X-1.100000X1.750000X-1.100000X-1.750000X0*%
%ADD19RoundRect,0.101600X1.100000X0.600000X-1.100000X0.600000X-1.100000X-0.600000X1.100000X-0.600000X0*%
%ADD20RoundRect,0.101600X-0.350000X0.412500X-0.350000X-0.412500X0.350000X-0.412500X0.350000X0.412500X0*%
%ADD21RoundRect,0.101600X0.350000X-0.750000X0.350000X0.750000X-0.350000X0.750000X-0.350000X-0.750000X0*%
%ADD22RoundRect,0.101600X-0.350000X-0.400000X0.350000X-0.400000X0.350000X0.400000X-0.350000X0.400000X0*%
%ADD23RoundRect,0.101600X-0.400000X-0.400000X0.400000X-0.400000X0.400000X0.400000X-0.400000X0.400000X0*%
%ADD24RoundRect,0.101600X0.754000X-0.754000X0.754000X0.754000X-0.754000X0.754000X-0.754000X-0.754000X0*%
%ADD25RoundRect,0.101600X0.800000X-0.650000X0.800000X0.650000X-0.800000X0.650000X-0.800000X-0.650000X0*%
%ADD26RoundRect,0.101600X-0.325000X-0.600000X0.325000X-0.600000X0.325000X0.600000X-0.325000X0.600000X0*%
%ADD27RoundRect,0.101600X-0.400000X-0.700000X0.400000X-0.700000X0.400000X0.700000X-0.400000X0.700000X0*%
%ADD28O,1.727200X3.251200*%
G04 APERTURE END LIST*
D10*
%TO.C,AZUSA_CTRL*%
X137281100Y-133683600D03*
D11*
X134741100Y-133683600D03*
%TD*%
D12*
%TO.C,C13*%
X168826100Y-90503600D03*
X168176100Y-90503600D03*
%TD*%
%TO.C,C12*%
X168826100Y-88163600D03*
X168176100Y-88163600D03*
%TD*%
D10*
%TO.C,CTRL*%
X147491100Y-133683600D03*
D11*
X144951100Y-133683600D03*
%TD*%
D13*
%TO.C,ENC1*%
X112221100Y-79153600D03*
D11*
X114761100Y-79153600D03*
X117301100Y-79153600D03*
X119841100Y-79153600D03*
X122381100Y-79153600D03*
%TD*%
D13*
%TO.C,ENC2*%
X112221100Y-70453600D03*
D11*
X114761100Y-70453600D03*
X117301100Y-70453600D03*
X119841100Y-70453600D03*
X122381100Y-70453600D03*
%TD*%
D13*
%TO.C,ENC3*%
X129221100Y-70453600D03*
D11*
X131761100Y-70453600D03*
X134301100Y-70453600D03*
X136841100Y-70453600D03*
X139381100Y-70453600D03*
%TD*%
D14*
%TO.C,H1*%
X192551100Y-137973600D03*
%TD*%
%TO.C,H2*%
X104781100Y-137973600D03*
%TD*%
%TO.C,H3*%
X192251100Y-71823600D03*
%TD*%
%TO.C,H4*%
X104781100Y-72023600D03*
%TD*%
D15*
%TO.C,BOOT*%
X156066100Y-89230000D03*
X156066100Y-91770000D03*
%TD*%
%TO.C,ST-LINK*%
X147901100Y-79093600D03*
X147901100Y-81633600D03*
X147901100Y-84173600D03*
X147901100Y-86713600D03*
X147901100Y-89253600D03*
X147901100Y-91793600D03*
%TD*%
D16*
%TO.C,ML1*%
X169731100Y-74003600D03*
X169731100Y-71463600D03*
X172271100Y-74003600D03*
X172271100Y-71463600D03*
X174811100Y-74003600D03*
X174811100Y-71463600D03*
X177351100Y-74003600D03*
X177351100Y-71463600D03*
X179891100Y-74003600D03*
X179891100Y-71463600D03*
%TD*%
%TO.C,ML2*%
X148151100Y-73893600D03*
X148151100Y-71353600D03*
X150691100Y-73893600D03*
X150691100Y-71353600D03*
X153231100Y-73893600D03*
X153231100Y-71353600D03*
X155771100Y-73893600D03*
X155771100Y-71353600D03*
X158311100Y-73893600D03*
X158311100Y-71353600D03*
%TD*%
D17*
%TO.C,R1*%
X140871100Y-126273600D03*
X138971100Y-126273600D03*
%TD*%
D18*
%TO.C,REGYURETA0*%
X159401100Y-90513600D03*
D19*
X165601100Y-88163600D03*
X165601100Y-90513600D03*
X165601100Y-92863600D03*
%TD*%
D20*
%TO.C,T1*%
X134901100Y-127681100D03*
X133951100Y-125306100D03*
X135851100Y-125306100D03*
%TD*%
D21*
%TO.C,U$2*%
X175681100Y-95563600D03*
X171181100Y-95563600D03*
X175681100Y-103063600D03*
X171181100Y-103063600D03*
%TD*%
D22*
%TO.C,C19*%
X163401100Y-107353600D03*
X162001100Y-107353600D03*
%TD*%
%TO.C,C20*%
X163401100Y-109453600D03*
X162001100Y-109453600D03*
%TD*%
%TO.C,C21*%
X166401100Y-107353600D03*
X165001100Y-107353600D03*
%TD*%
%TO.C,C22*%
X166501100Y-109453600D03*
X165101100Y-109453600D03*
%TD*%
D12*
%TO.C,C11*%
X168826100Y-89253600D03*
X168176100Y-89253600D03*
%TD*%
%TO.C,C14*%
X168826100Y-91653600D03*
X168176100Y-91653600D03*
%TD*%
D15*
%TO.C,TWE_LEFT*%
X110539100Y-122242600D03*
X110539100Y-119702600D03*
X110539100Y-117162600D03*
X110539100Y-114622600D03*
X110539100Y-112082600D03*
X110539100Y-109542600D03*
X110539100Y-107002600D03*
X110539100Y-104462600D03*
X110539100Y-101922600D03*
X110539100Y-99382600D03*
X110539100Y-96842600D03*
X110539100Y-94302600D03*
X110539100Y-91762600D03*
X110539100Y-89222600D03*
%TD*%
%TO.C,TWE_RIGHT*%
X126191100Y-122263600D03*
X126191100Y-119723600D03*
X126191100Y-117183600D03*
X126191100Y-114643600D03*
X126191100Y-112103600D03*
X126191100Y-109563600D03*
X126191100Y-107023600D03*
X126191100Y-104483600D03*
X126191100Y-101943600D03*
X126191100Y-99403600D03*
X126191100Y-96863600D03*
X126191100Y-94323600D03*
X126191100Y-91783600D03*
X126191100Y-89243600D03*
%TD*%
D17*
%TO.C,R12*%
X119351100Y-133353600D03*
X117451100Y-133353600D03*
%TD*%
D23*
%TO.C,U$8*%
X118969050Y-128665000D03*
X117469050Y-128665000D03*
%TD*%
D15*
%TO.C,PIN_SOCKET1*%
X139181100Y-89203600D03*
X139181100Y-91743600D03*
%TD*%
%TO.C,PIN_SOCKET2*%
X134711100Y-89203600D03*
X134711100Y-91743600D03*
%TD*%
D24*
%TO.C,DOWN*%
X188001100Y-103783600D03*
D11*
X188001100Y-106323600D03*
%TD*%
D25*
%TO.C,R11*%
X181701100Y-101903600D03*
X181701100Y-103803600D03*
%TD*%
D24*
%TO.C,UP*%
X188001100Y-95183600D03*
D11*
X188001100Y-97723600D03*
%TD*%
D25*
%TO.C,R10*%
X181701100Y-95703600D03*
X181701100Y-97603600D03*
%TD*%
D22*
%TO.C,C15*%
X178901100Y-107353600D03*
X177501100Y-107353600D03*
%TD*%
%TO.C,C16*%
X178901100Y-109453600D03*
X177501100Y-109453600D03*
%TD*%
%TO.C,C17*%
X181901100Y-107353600D03*
X180501100Y-107353600D03*
%TD*%
%TO.C,C18*%
X181901100Y-109453600D03*
X180501100Y-109453600D03*
%TD*%
D26*
%TO.C,FB1*%
X166276100Y-105000000D03*
X164926100Y-105000000D03*
%TD*%
D22*
%TO.C,C24*%
X169301100Y-109453600D03*
X167901100Y-109453600D03*
%TD*%
D27*
%TO.C,C23*%
X169901100Y-107053600D03*
X167901100Y-107053600D03*
%TD*%
D28*
%TO.C,LEFT_U*%
X182512100Y-114760600D03*
X185052100Y-114760600D03*
%TD*%
%TO.C,RIGHT_U*%
X182524100Y-137611600D03*
X185064100Y-137611600D03*
%TD*%
%TO.C,LEFT_D*%
X159681100Y-114738600D03*
X162221100Y-114738600D03*
X164761100Y-114738600D03*
X167301100Y-114738600D03*
%TD*%
%TO.C,RIGHT_D*%
X159652100Y-137596600D03*
X162192100Y-137596600D03*
X164732100Y-137596600D03*
X167272100Y-137596600D03*
%TD*%
D24*
%TO.C,AZUSA_CON1*%
X188101100Y-84883600D03*
D11*
X188101100Y-87423600D03*
%TD*%
D24*
%TO.C,AZUSA_CON2*%
X179801100Y-85083600D03*
D11*
X179801100Y-87623600D03*
%TD*%
M02*
