%TF.GenerationSoftware,KiCad,Pcbnew,7.0.1*%
%TF.CreationDate,2023-09-15T11:15:50+09:00*%
%TF.ProjectId,_________,0a070658-9c5f-4cbd-9eef-2e6b69636164,rev?*%
%TF.SameCoordinates,Original*%
%TF.FileFunction,Soldermask,Bot*%
%TF.FilePolarity,Negative*%
%FSLAX46Y46*%
G04 Gerber Fmt 4.6, Leading zero omitted, Abs format (unit mm)*
G04 Created by KiCad (PCBNEW 7.0.1) date 2023-09-15 11:15:50*
%MOMM*%
%LPD*%
G01*
G04 APERTURE LIST*
G04 Aperture macros list*
%AMRoundRect*
0 Rectangle with rounded corners*
0 $1 Rounding radius*
0 $2 $3 $4 $5 $6 $7 $8 $9 X,Y pos of 4 corners*
0 Add a 4 corners polygon primitive as box body*
4,1,4,$2,$3,$4,$5,$6,$7,$8,$9,$2,$3,0*
0 Add four circle primitives for the rounded corners*
1,1,$1+$1,$2,$3*
1,1,$1+$1,$4,$5*
1,1,$1+$1,$6,$7*
1,1,$1+$1,$8,$9*
0 Add four rect primitives between the rounded corners*
20,1,$1+$1,$2,$3,$4,$5,0*
20,1,$1+$1,$4,$5,$6,$7,0*
20,1,$1+$1,$6,$7,$8,$9,0*
20,1,$1+$1,$8,$9,$2,$3,0*%
%AMFreePoly0*
4,1,25,0.333470,0.805066,0.366431,0.783042,0.783042,0.366431,0.805066,0.333470,0.812800,0.294589,0.812800,-0.294589,0.805066,-0.333470,0.783042,-0.366431,0.366431,-0.783042,0.333470,-0.805066,0.294589,-0.812800,-0.294589,-0.812800,-0.333470,-0.805066,-0.366431,-0.783042,-0.783042,-0.366431,-0.805066,-0.333470,-0.812800,-0.294589,-0.812800,0.294589,-0.805066,0.333470,-0.783042,0.366431,
-0.366431,0.783042,-0.333470,0.805066,-0.294589,0.812800,0.294589,0.812800,0.333470,0.805066,0.333470,0.805066,$1*%
G04 Aperture macros list end*
%ADD10RoundRect,0.101600X0.175000X0.200000X-0.175000X0.200000X-0.175000X-0.200000X0.175000X-0.200000X0*%
%ADD11RoundRect,0.101600X-0.754000X-0.754000X0.754000X-0.754000X0.754000X0.754000X-0.754000X0.754000X0*%
%ADD12C,1.711200*%
%ADD13RoundRect,0.101600X-0.600000X-0.850000X0.600000X-0.850000X0.600000X0.850000X-0.600000X0.850000X0*%
%ADD14RoundRect,0.101600X0.754000X0.754000X-0.754000X0.754000X-0.754000X-0.754000X0.754000X-0.754000X0*%
%ADD15C,3.200000*%
%ADD16O,3.251200X1.727200*%
%ADD17FreePoly0,180.000000*%
%ADD18RoundRect,0.101600X-0.650000X-0.800000X0.650000X-0.800000X0.650000X0.800000X-0.650000X0.800000X0*%
%ADD19RoundRect,0.101600X0.135000X-0.500000X0.135000X0.500000X-0.135000X0.500000X-0.135000X-0.500000X0*%
%ADD20RoundRect,0.101600X0.500000X0.135000X-0.500000X0.135000X-0.500000X-0.135000X0.500000X-0.135000X0*%
%ADD21RoundRect,0.101600X0.650000X0.950000X-0.650000X0.950000X-0.650000X-0.950000X0.650000X-0.950000X0*%
%ADD22RoundRect,0.101600X-0.550000X0.700000X-0.550000X-0.700000X0.550000X-0.700000X0.550000X0.700000X0*%
%ADD23RoundRect,0.101600X0.754000X-0.754000X0.754000X0.754000X-0.754000X0.754000X-0.754000X-0.754000X0*%
%ADD24O,1.727200X3.251200*%
G04 APERTURE END LIST*
D10*
%TO.C,0.1\u03BC*%
X162076100Y-102753600D03*
X162726100Y-102753600D03*
%TD*%
D11*
%TO.C,AZUSA_CTRL*%
X137281100Y-133683600D03*
D12*
X134741100Y-133683600D03*
%TD*%
D10*
%TO.C,C1*%
X171976100Y-100253600D03*
X172626100Y-100253600D03*
%TD*%
%TO.C,C2*%
X171976100Y-101653600D03*
X172626100Y-101653600D03*
%TD*%
D13*
%TO.C,C5*%
X156981100Y-113383600D03*
X153781100Y-113383600D03*
%TD*%
D10*
%TO.C,C3*%
X169976100Y-100253600D03*
X170626100Y-100253600D03*
%TD*%
%TO.C,C4*%
X169976100Y-101653600D03*
X170626100Y-101653600D03*
%TD*%
D11*
%TO.C,CTRL*%
X147491100Y-133683600D03*
D12*
X144951100Y-133683600D03*
%TD*%
D14*
%TO.C,ENC1*%
X112221100Y-79153600D03*
D12*
X114761100Y-79153600D03*
X117301100Y-79153600D03*
X119841100Y-79153600D03*
X122381100Y-79153600D03*
%TD*%
D14*
%TO.C,ENC2*%
X112221100Y-70453600D03*
D12*
X114761100Y-70453600D03*
X117301100Y-70453600D03*
X119841100Y-70453600D03*
X122381100Y-70453600D03*
%TD*%
D14*
%TO.C,ENC3*%
X129221100Y-70453600D03*
D12*
X131761100Y-70453600D03*
X134301100Y-70453600D03*
X136841100Y-70453600D03*
X139381100Y-70453600D03*
%TD*%
D15*
%TO.C,H1*%
X192551100Y-137973600D03*
%TD*%
%TO.C,H2*%
X104781100Y-137973600D03*
%TD*%
%TO.C,H3*%
X192251100Y-71823600D03*
%TD*%
%TO.C,H4*%
X104781100Y-72023600D03*
%TD*%
D16*
%TO.C,BOOT*%
X156066100Y-89230000D03*
X156066100Y-91770000D03*
%TD*%
%TO.C,ST-LINK*%
X147901100Y-79093600D03*
X147901100Y-81633600D03*
X147901100Y-84173600D03*
X147901100Y-86713600D03*
X147901100Y-89253600D03*
X147901100Y-91793600D03*
%TD*%
D17*
%TO.C,ML1*%
X169731100Y-74003600D03*
X169731100Y-71463600D03*
X172271100Y-74003600D03*
X172271100Y-71463600D03*
X174811100Y-74003600D03*
X174811100Y-71463600D03*
X177351100Y-74003600D03*
X177351100Y-71463600D03*
X179891100Y-74003600D03*
X179891100Y-71463600D03*
%TD*%
%TO.C,ML2*%
X148151100Y-73893600D03*
X148151100Y-71353600D03*
X150691100Y-73893600D03*
X150691100Y-71353600D03*
X153231100Y-73893600D03*
X153231100Y-71353600D03*
X155771100Y-73893600D03*
X155771100Y-71353600D03*
X158311100Y-73893600D03*
X158311100Y-71353600D03*
%TD*%
D18*
%TO.C,R2*%
X164351100Y-98033600D03*
X162451100Y-98033600D03*
%TD*%
%TO.C,R3*%
X164251100Y-100823600D03*
X162351100Y-100823600D03*
%TD*%
D19*
%TO.C,U$1*%
X156051100Y-97453600D03*
X155551100Y-97453600D03*
X155051100Y-97453600D03*
X154551100Y-97453600D03*
X154051100Y-97453600D03*
X153551100Y-97453600D03*
X153051100Y-97453600D03*
X152551100Y-97453600D03*
X152051100Y-97453600D03*
X151551100Y-97453600D03*
X151051100Y-97453600D03*
X150551100Y-97453600D03*
X150051100Y-97453600D03*
X149551100Y-97453600D03*
X149051100Y-97453600D03*
X148551100Y-97453600D03*
D20*
X146701100Y-99303600D03*
X146701100Y-99803600D03*
X146701100Y-100303600D03*
X146701100Y-100803600D03*
X146701100Y-101303600D03*
X146701100Y-101803600D03*
X146701100Y-102303600D03*
X146701100Y-102803600D03*
X146701100Y-103303600D03*
X146701100Y-103803600D03*
X146701100Y-104303600D03*
X146701100Y-104803600D03*
X146701100Y-105303600D03*
X146701100Y-105803600D03*
X146701100Y-106303600D03*
X146701100Y-106803600D03*
D19*
X148551100Y-108653600D03*
X149051100Y-108653600D03*
X149551100Y-108653600D03*
X156051100Y-108653600D03*
X150051100Y-108653600D03*
X150551100Y-108653600D03*
X151051100Y-108653600D03*
X151551100Y-108653600D03*
X152051100Y-108653600D03*
X152551100Y-108653600D03*
X153051100Y-108653600D03*
X153551100Y-108653600D03*
X154051100Y-108653600D03*
X154551100Y-108653600D03*
X155051100Y-108653600D03*
X155551100Y-108653600D03*
D20*
X157901100Y-106803600D03*
X157901100Y-106303600D03*
X157901100Y-105803600D03*
X157901100Y-105303600D03*
X157901100Y-104803600D03*
X157901100Y-104303600D03*
X157901100Y-103803600D03*
X157901100Y-103303600D03*
X157901100Y-99803600D03*
X157901100Y-100303600D03*
X157901100Y-100803600D03*
X157901100Y-101303600D03*
X157901100Y-101803600D03*
X157901100Y-102303600D03*
X157901100Y-102803600D03*
X157901100Y-99303600D03*
%TD*%
D21*
%TO.C,X1*%
X167551100Y-97983600D03*
X173051100Y-97983600D03*
X173051100Y-94783600D03*
X167551100Y-94783600D03*
%TD*%
D22*
%TO.C,X2*%
X166501100Y-102423600D03*
X166501100Y-100223600D03*
X168101100Y-102423600D03*
X168101100Y-100223600D03*
%TD*%
D16*
%TO.C,TWE_LEFT*%
X110539100Y-122242600D03*
X110539100Y-119702600D03*
X110539100Y-117162600D03*
X110539100Y-114622600D03*
X110539100Y-112082600D03*
X110539100Y-109542600D03*
X110539100Y-107002600D03*
X110539100Y-104462600D03*
X110539100Y-101922600D03*
X110539100Y-99382600D03*
X110539100Y-96842600D03*
X110539100Y-94302600D03*
X110539100Y-91762600D03*
X110539100Y-89222600D03*
%TD*%
%TO.C,TWE_RIGHT*%
X126191100Y-122263600D03*
X126191100Y-119723600D03*
X126191100Y-117183600D03*
X126191100Y-114643600D03*
X126191100Y-112103600D03*
X126191100Y-109563600D03*
X126191100Y-107023600D03*
X126191100Y-104483600D03*
X126191100Y-101943600D03*
X126191100Y-99403600D03*
X126191100Y-96863600D03*
X126191100Y-94323600D03*
X126191100Y-91783600D03*
X126191100Y-89243600D03*
%TD*%
%TO.C,PIN_SOCKET1*%
X139181100Y-89203600D03*
X139181100Y-91743600D03*
%TD*%
%TO.C,PIN_SOCKET2*%
X134711100Y-89203600D03*
X134711100Y-91743600D03*
%TD*%
D23*
%TO.C,DOWN*%
X188001100Y-103783600D03*
D12*
X188001100Y-106323600D03*
%TD*%
D23*
%TO.C,UP*%
X188001100Y-95183600D03*
D12*
X188001100Y-97723600D03*
%TD*%
D24*
%TO.C,LEFT_U*%
X182512100Y-114760600D03*
X185052100Y-114760600D03*
%TD*%
%TO.C,RIGHT_U*%
X182524100Y-137611600D03*
X185064100Y-137611600D03*
%TD*%
%TO.C,LEFT_D*%
X159681100Y-114738600D03*
X162221100Y-114738600D03*
X164761100Y-114738600D03*
X167301100Y-114738600D03*
%TD*%
%TO.C,RIGHT_D*%
X159652100Y-137596600D03*
X162192100Y-137596600D03*
X164732100Y-137596600D03*
X167272100Y-137596600D03*
%TD*%
D23*
%TO.C,AZUSA_CON1*%
X188101100Y-84883600D03*
D12*
X188101100Y-87423600D03*
%TD*%
D23*
%TO.C,AZUSA_CON2*%
X179801100Y-85083600D03*
D12*
X179801100Y-87623600D03*
%TD*%
M02*
