%TF.GenerationSoftware,KiCad,Pcbnew,7.0.1*%
%TF.CreationDate,2023-09-15T11:15:50+09:00*%
%TF.ProjectId,_________,0a070658-9c5f-4cbd-9eef-2e6b69636164,rev?*%
%TF.SameCoordinates,Original*%
%TF.FileFunction,Paste,Top*%
%TF.FilePolarity,Positive*%
%FSLAX46Y46*%
G04 Gerber Fmt 4.6, Leading zero omitted, Abs format (unit mm)*
G04 Created by KiCad (PCBNEW 7.0.1) date 2023-09-15 11:15:50*
%MOMM*%
%LPD*%
G01*
G04 APERTURE LIST*
%ADD10R,0.350000X0.400000*%
%ADD11R,1.300000X1.600000*%
%ADD12R,2.200000X3.500000*%
%ADD13R,2.200000X1.200000*%
%ADD14R,0.700000X0.825000*%
%ADD15R,0.700000X1.500000*%
%ADD16R,0.700000X0.800000*%
%ADD17R,0.800000X0.800000*%
%ADD18R,1.600000X1.300000*%
%ADD19R,0.650000X1.200000*%
%ADD20R,0.800000X1.400000*%
G04 APERTURE END LIST*
D10*
%TO.C,C13*%
X168826100Y-90503600D03*
X168176100Y-90503600D03*
%TD*%
%TO.C,C12*%
X168826100Y-88163600D03*
X168176100Y-88163600D03*
%TD*%
D11*
%TO.C,R1*%
X140871100Y-126273600D03*
X138971100Y-126273600D03*
%TD*%
D12*
%TO.C,REGYURETA0*%
X159401100Y-90513600D03*
D13*
X165601100Y-88163600D03*
X165601100Y-90513600D03*
X165601100Y-92863600D03*
%TD*%
D14*
%TO.C,T1*%
X134901100Y-127681100D03*
X133951100Y-125306100D03*
X135851100Y-125306100D03*
%TD*%
D15*
%TO.C,U$2*%
X175681100Y-95563600D03*
X171181100Y-95563600D03*
X175681100Y-103063600D03*
X171181100Y-103063600D03*
%TD*%
D16*
%TO.C,C19*%
X163401100Y-107353600D03*
X162001100Y-107353600D03*
%TD*%
%TO.C,C20*%
X163401100Y-109453600D03*
X162001100Y-109453600D03*
%TD*%
%TO.C,C21*%
X166401100Y-107353600D03*
X165001100Y-107353600D03*
%TD*%
%TO.C,C22*%
X166501100Y-109453600D03*
X165101100Y-109453600D03*
%TD*%
D10*
%TO.C,C11*%
X168826100Y-89253600D03*
X168176100Y-89253600D03*
%TD*%
%TO.C,C14*%
X168826100Y-91653600D03*
X168176100Y-91653600D03*
%TD*%
D11*
%TO.C,R12*%
X119351100Y-133353600D03*
X117451100Y-133353600D03*
%TD*%
D17*
%TO.C,U$8*%
X118969050Y-128665000D03*
X117469050Y-128665000D03*
%TD*%
D18*
%TO.C,R11*%
X181701100Y-101903600D03*
X181701100Y-103803600D03*
%TD*%
%TO.C,R10*%
X181701100Y-95703600D03*
X181701100Y-97603600D03*
%TD*%
D16*
%TO.C,C15*%
X178901100Y-107353600D03*
X177501100Y-107353600D03*
%TD*%
%TO.C,C16*%
X178901100Y-109453600D03*
X177501100Y-109453600D03*
%TD*%
%TO.C,C17*%
X181901100Y-107353600D03*
X180501100Y-107353600D03*
%TD*%
%TO.C,C18*%
X181901100Y-109453600D03*
X180501100Y-109453600D03*
%TD*%
D19*
%TO.C,FB1*%
X166276100Y-105000000D03*
X164926100Y-105000000D03*
%TD*%
D16*
%TO.C,C24*%
X169301100Y-109453600D03*
X167901100Y-109453600D03*
%TD*%
D20*
%TO.C,C23*%
X169901100Y-107053600D03*
X167901100Y-107053600D03*
%TD*%
M02*
