M48
; DRILL file {KiCad 7.0.1} date Fri Sep 15 12:38:18 2023
; FORMAT={-:-/ absolute / inch / decimal}
; #@! TF.CreationDate,2023-09-15T12:38:18+09:00
; #@! TF.GenerationSoftware,Kicad,Pcbnew,7.0.1
; #@! TF.FileFunction,Plated,1,2,PTH
FMAT,2
INCH
; #@! TA.AperFunction,Plated,PTH,ViaDrill
T1C0.0138
; #@! TA.AperFunction,Plated,PTH,ComponentDrill
T2C0.0236
; #@! TA.AperFunction,Plated,PTH,ComponentDrill
T3C0.0315
; #@! TA.AperFunction,Plated,PTH,ComponentDrill
T4C0.0394
; #@! TA.AperFunction,Plated,PTH,ComponentDrill
T5C0.0669
; #@! TA.AperFunction,Plated,PTH,ComponentDrill
T6C0.1575
%
G90
G05
T1
X5.3682Y-5.1964
X5.3732Y-4.8514
X5.3982Y-4.6664
X5.4588Y-3.8551
X5.6825Y-4.7014
X5.785Y-5.1827
X5.8275Y-4.8514
X5.8869Y-4.2196
X5.9419Y-3.9196
X6.0669Y-4.2414
X6.1382Y-3.4339
X6.255Y-4.1002
X6.3957Y-4.9058
X6.3982Y-4.6814
X6.4182Y-5.1664
X6.5882Y-3.4339
X6.6882Y-4.8714
T2
X6.1024Y-3.8371
X6.1024Y-3.9371
X6.1024Y-4.0371
T3
X6.4355Y-4.4096
X6.5355Y-4.4096
X6.6355Y-4.4096
T4
X5.3331Y-4.7639
X5.3331Y-5.0789
X5.4331Y-4.7639
X5.4331Y-5.0789
X5.5331Y-4.7639
X5.5331Y-5.0789
X5.8162Y-4.7639
X5.8162Y-5.0789
X5.9162Y-4.7639
X5.9162Y-5.0789
X6.102Y-3.549
X6.202Y-3.549
X6.3162Y-4.736
X6.3162Y-4.836
X6.3162Y-4.936
X6.3162Y-5.036
X6.502Y-3.549
X6.502Y-3.9202
X6.602Y-3.549
X6.602Y-3.9202
T5
X5.2796Y-3.447
X5.2796Y-4.1911
T6
X5.63Y-3.6045
X5.63Y-4.0336
T0
M30
