%TF.GenerationSoftware,KiCad,Pcbnew,7.0.1*%
%TF.CreationDate,2023-09-15T12:38:23+09:00*%
%TF.ProjectId,Mix necessary function,4d697820-6e65-4636-9573-736172792066,rev?*%
%TF.SameCoordinates,Original*%
%TF.FileFunction,Legend,Top*%
%TF.FilePolarity,Positive*%
%FSLAX46Y46*%
G04 Gerber Fmt 4.6, Leading zero omitted, Abs format (unit mm)*
G04 Created by KiCad (PCBNEW 7.0.1) date 2023-09-15 12:38:23*
%MOMM*%
%LPD*%
G01*
G04 APERTURE LIST*
%ADD10C,0.100000*%
%ADD11C,0.300000*%
%ADD12C,0.093472*%
%ADD13C,0.036800*%
%ADD14C,0.130861*%
%ADD15C,0.127000*%
%ADD16C,0.203200*%
%ADD17C,0.152400*%
%ADD18C,0.050000*%
G04 APERTURE END LIST*
D10*
X160800000Y-104150000D02*
X172400000Y-104150000D01*
X150100000Y-93950000D02*
X160800000Y-93950000D01*
X150100000Y-82900000D02*
X150100000Y-93950000D01*
X172400000Y-104150000D02*
X172400000Y-85200000D01*
X160800000Y-93950000D02*
X160800000Y-104150000D01*
X150100000Y-82900000D02*
X163900000Y-82900000D01*
D11*
X167671428Y-116486428D02*
X166957142Y-116486428D01*
X166957142Y-116486428D02*
X166957142Y-114986428D01*
X168171428Y-116343571D02*
X168242857Y-116415000D01*
X168242857Y-116415000D02*
X168171428Y-116486428D01*
X168171428Y-116486428D02*
X168100000Y-116415000D01*
X168100000Y-116415000D02*
X168171428Y-116343571D01*
X168171428Y-116343571D02*
X168171428Y-116486428D01*
X168171428Y-115557857D02*
X168242857Y-115629285D01*
X168242857Y-115629285D02*
X168171428Y-115700714D01*
X168171428Y-115700714D02*
X168100000Y-115629285D01*
X168100000Y-115629285D02*
X168171428Y-115557857D01*
X168171428Y-115557857D02*
X168171428Y-115700714D01*
X169385714Y-115700714D02*
X169600000Y-115772142D01*
X169600000Y-115772142D02*
X169671429Y-115843571D01*
X169671429Y-115843571D02*
X169742857Y-115986428D01*
X169742857Y-115986428D02*
X169742857Y-116200714D01*
X169742857Y-116200714D02*
X169671429Y-116343571D01*
X169671429Y-116343571D02*
X169600000Y-116415000D01*
X169600000Y-116415000D02*
X169457143Y-116486428D01*
X169457143Y-116486428D02*
X168885714Y-116486428D01*
X168885714Y-116486428D02*
X168885714Y-114986428D01*
X168885714Y-114986428D02*
X169385714Y-114986428D01*
X169385714Y-114986428D02*
X169528572Y-115057857D01*
X169528572Y-115057857D02*
X169600000Y-115129285D01*
X169600000Y-115129285D02*
X169671429Y-115272142D01*
X169671429Y-115272142D02*
X169671429Y-115415000D01*
X169671429Y-115415000D02*
X169600000Y-115557857D01*
X169600000Y-115557857D02*
X169528572Y-115629285D01*
X169528572Y-115629285D02*
X169385714Y-115700714D01*
X169385714Y-115700714D02*
X168885714Y-115700714D01*
X170600000Y-116486428D02*
X170457143Y-116415000D01*
X170457143Y-116415000D02*
X170385714Y-116272142D01*
X170385714Y-116272142D02*
X170385714Y-114986428D01*
X171814286Y-115486428D02*
X171814286Y-116486428D01*
X171171428Y-115486428D02*
X171171428Y-116272142D01*
X171171428Y-116272142D02*
X171242857Y-116415000D01*
X171242857Y-116415000D02*
X171385714Y-116486428D01*
X171385714Y-116486428D02*
X171600000Y-116486428D01*
X171600000Y-116486428D02*
X171742857Y-116415000D01*
X171742857Y-116415000D02*
X171814286Y-116343571D01*
X173100000Y-116415000D02*
X172957143Y-116486428D01*
X172957143Y-116486428D02*
X172671429Y-116486428D01*
X172671429Y-116486428D02*
X172528571Y-116415000D01*
X172528571Y-116415000D02*
X172457143Y-116272142D01*
X172457143Y-116272142D02*
X172457143Y-115700714D01*
X172457143Y-115700714D02*
X172528571Y-115557857D01*
X172528571Y-115557857D02*
X172671429Y-115486428D01*
X172671429Y-115486428D02*
X172957143Y-115486428D01*
X172957143Y-115486428D02*
X173100000Y-115557857D01*
X173100000Y-115557857D02*
X173171429Y-115700714D01*
X173171429Y-115700714D02*
X173171429Y-115843571D01*
X173171429Y-115843571D02*
X172457143Y-115986428D01*
X167814285Y-118916428D02*
X167314285Y-118202142D01*
X166957142Y-118916428D02*
X166957142Y-117416428D01*
X166957142Y-117416428D02*
X167528571Y-117416428D01*
X167528571Y-117416428D02*
X167671428Y-117487857D01*
X167671428Y-117487857D02*
X167742857Y-117559285D01*
X167742857Y-117559285D02*
X167814285Y-117702142D01*
X167814285Y-117702142D02*
X167814285Y-117916428D01*
X167814285Y-117916428D02*
X167742857Y-118059285D01*
X167742857Y-118059285D02*
X167671428Y-118130714D01*
X167671428Y-118130714D02*
X167528571Y-118202142D01*
X167528571Y-118202142D02*
X166957142Y-118202142D01*
X168457142Y-118773571D02*
X168528571Y-118845000D01*
X168528571Y-118845000D02*
X168457142Y-118916428D01*
X168457142Y-118916428D02*
X168385714Y-118845000D01*
X168385714Y-118845000D02*
X168457142Y-118773571D01*
X168457142Y-118773571D02*
X168457142Y-118916428D01*
X168457142Y-117987857D02*
X168528571Y-118059285D01*
X168528571Y-118059285D02*
X168457142Y-118130714D01*
X168457142Y-118130714D02*
X168385714Y-118059285D01*
X168385714Y-118059285D02*
X168457142Y-117987857D01*
X168457142Y-117987857D02*
X168457142Y-118130714D01*
X170028571Y-118916428D02*
X169528571Y-118202142D01*
X169171428Y-118916428D02*
X169171428Y-117416428D01*
X169171428Y-117416428D02*
X169742857Y-117416428D01*
X169742857Y-117416428D02*
X169885714Y-117487857D01*
X169885714Y-117487857D02*
X169957143Y-117559285D01*
X169957143Y-117559285D02*
X170028571Y-117702142D01*
X170028571Y-117702142D02*
X170028571Y-117916428D01*
X170028571Y-117916428D02*
X169957143Y-118059285D01*
X169957143Y-118059285D02*
X169885714Y-118130714D01*
X169885714Y-118130714D02*
X169742857Y-118202142D01*
X169742857Y-118202142D02*
X169171428Y-118202142D01*
X171242857Y-118845000D02*
X171100000Y-118916428D01*
X171100000Y-118916428D02*
X170814286Y-118916428D01*
X170814286Y-118916428D02*
X170671428Y-118845000D01*
X170671428Y-118845000D02*
X170600000Y-118702142D01*
X170600000Y-118702142D02*
X170600000Y-118130714D01*
X170600000Y-118130714D02*
X170671428Y-117987857D01*
X170671428Y-117987857D02*
X170814286Y-117916428D01*
X170814286Y-117916428D02*
X171100000Y-117916428D01*
X171100000Y-117916428D02*
X171242857Y-117987857D01*
X171242857Y-117987857D02*
X171314286Y-118130714D01*
X171314286Y-118130714D02*
X171314286Y-118273571D01*
X171314286Y-118273571D02*
X170600000Y-118416428D01*
X172600000Y-118916428D02*
X172600000Y-117416428D01*
X172600000Y-118845000D02*
X172457142Y-118916428D01*
X172457142Y-118916428D02*
X172171428Y-118916428D01*
X172171428Y-118916428D02*
X172028571Y-118845000D01*
X172028571Y-118845000D02*
X171957142Y-118773571D01*
X171957142Y-118773571D02*
X171885714Y-118630714D01*
X171885714Y-118630714D02*
X171885714Y-118202142D01*
X171885714Y-118202142D02*
X171957142Y-118059285D01*
X171957142Y-118059285D02*
X172028571Y-117987857D01*
X172028571Y-117987857D02*
X172171428Y-117916428D01*
X172171428Y-117916428D02*
X172457142Y-117916428D01*
X172457142Y-117916428D02*
X172600000Y-117987857D01*
D10*
X170790476Y-105541904D02*
X171266666Y-105541904D01*
X170695238Y-105827619D02*
X171028571Y-104827619D01*
X171028571Y-104827619D02*
X171361904Y-105827619D01*
X171695238Y-105160952D02*
X171695238Y-105827619D01*
X171695238Y-105256190D02*
X171742857Y-105208571D01*
X171742857Y-105208571D02*
X171838095Y-105160952D01*
X171838095Y-105160952D02*
X171980952Y-105160952D01*
X171980952Y-105160952D02*
X172076190Y-105208571D01*
X172076190Y-105208571D02*
X172123809Y-105303809D01*
X172123809Y-105303809D02*
X172123809Y-105827619D01*
X173028571Y-105827619D02*
X173028571Y-104827619D01*
X173028571Y-105780000D02*
X172933333Y-105827619D01*
X172933333Y-105827619D02*
X172742857Y-105827619D01*
X172742857Y-105827619D02*
X172647619Y-105780000D01*
X172647619Y-105780000D02*
X172600000Y-105732380D01*
X172600000Y-105732380D02*
X172552381Y-105637142D01*
X172552381Y-105637142D02*
X172552381Y-105351428D01*
X172552381Y-105351428D02*
X172600000Y-105256190D01*
X172600000Y-105256190D02*
X172647619Y-105208571D01*
X172647619Y-105208571D02*
X172742857Y-105160952D01*
X172742857Y-105160952D02*
X172933333Y-105160952D01*
X172933333Y-105160952D02*
X173028571Y-105208571D01*
D11*
G36*
X156307142Y-79683875D02*
G01*
X156273909Y-79750339D01*
X156207447Y-79783571D01*
X155992552Y-79783571D01*
X155926088Y-79750339D01*
X155899913Y-79697987D01*
X156307142Y-79616542D01*
X156307142Y-79683875D01*
G37*
G36*
X153735714Y-79683875D02*
G01*
X153702481Y-79750339D01*
X153636019Y-79783571D01*
X153421124Y-79783571D01*
X153354660Y-79750339D01*
X153328485Y-79697987D01*
X153735714Y-79616542D01*
X153735714Y-79683875D01*
G37*
G36*
X149988196Y-79116803D02*
G01*
X150021428Y-79183267D01*
X150021428Y-79255304D01*
X149988195Y-79321768D01*
X149921733Y-79355000D01*
X149608076Y-79355000D01*
X149607143Y-79354899D01*
X149607143Y-79097704D01*
X149635410Y-79083571D01*
X149921732Y-79083571D01*
X149988196Y-79116803D01*
G37*
G36*
X138939718Y-79128278D02*
G01*
X138976721Y-79165281D01*
X139021428Y-79254695D01*
X139021428Y-79612447D01*
X138976720Y-79701861D01*
X138939718Y-79738863D01*
X138850304Y-79783571D01*
X138706838Y-79783571D01*
X138617427Y-79738865D01*
X138580420Y-79701859D01*
X138535714Y-79612447D01*
X138535714Y-79254696D01*
X138580421Y-79165282D01*
X138617425Y-79128277D01*
X138706838Y-79083571D01*
X138850303Y-79083571D01*
X138939718Y-79128278D01*
G37*
G36*
X158764286Y-81664286D02*
G01*
X135628571Y-81664286D01*
X135628571Y-80350989D01*
X139586922Y-80350989D01*
X139594004Y-80383546D01*
X139596381Y-80416773D01*
X139603220Y-80425909D01*
X139605647Y-80437064D01*
X139629202Y-80460619D01*
X139649169Y-80487293D01*
X139659865Y-80491282D01*
X139681147Y-80512564D01*
X139682770Y-80518091D01*
X139703869Y-80536373D01*
X139720600Y-80558723D01*
X139736511Y-80564657D01*
X139749343Y-80575776D01*
X139766148Y-80578192D01*
X139781055Y-80586332D01*
X139792440Y-80585517D01*
X139803134Y-80589506D01*
X139819726Y-80585896D01*
X139836535Y-80588313D01*
X139851982Y-80581258D01*
X139868919Y-80580047D01*
X139878057Y-80573206D01*
X139889209Y-80570780D01*
X139901213Y-80558775D01*
X139916662Y-80551720D01*
X139925841Y-80537435D01*
X139939438Y-80527258D01*
X139943428Y-80516560D01*
X139984194Y-80475793D01*
X140010865Y-80455828D01*
X140022506Y-80424614D01*
X140038475Y-80395372D01*
X140037660Y-80383986D01*
X140041648Y-80373295D01*
X140034566Y-80340740D01*
X140032189Y-80307509D01*
X140025350Y-80298373D01*
X140022924Y-80287219D01*
X139999363Y-80263659D01*
X139979400Y-80236990D01*
X139968705Y-80233001D01*
X139947424Y-80211720D01*
X139945802Y-80206194D01*
X139924702Y-80187911D01*
X139907973Y-80165563D01*
X139892061Y-80159628D01*
X139879229Y-80148509D01*
X139862423Y-80146092D01*
X139847517Y-80137953D01*
X139836132Y-80138767D01*
X139825440Y-80134779D01*
X139808846Y-80138388D01*
X139792037Y-80135972D01*
X139776589Y-80143026D01*
X139759654Y-80144238D01*
X139750516Y-80151078D01*
X139739365Y-80153504D01*
X139727359Y-80165509D01*
X139711910Y-80172565D01*
X139702730Y-80186849D01*
X139689134Y-80197027D01*
X139685144Y-80207723D01*
X139644381Y-80248485D01*
X139617705Y-80268455D01*
X139606060Y-80299675D01*
X139590097Y-80328910D01*
X139590911Y-80340293D01*
X139586922Y-80350989D01*
X135628571Y-80350989D01*
X135628571Y-79746972D01*
X136946139Y-79746972D01*
X136959846Y-79774386D01*
X136968484Y-79803805D01*
X136979195Y-79813086D01*
X137020173Y-79895043D01*
X137019968Y-79900872D01*
X137039692Y-79934081D01*
X137046909Y-79948515D01*
X137050660Y-79952547D01*
X137064951Y-79976609D01*
X137080076Y-79984171D01*
X137091595Y-79996555D01*
X137118710Y-80003488D01*
X137239979Y-80064123D01*
X137270241Y-80083571D01*
X137300894Y-80083571D01*
X137331066Y-80089001D01*
X137344158Y-80083571D01*
X137520496Y-80083571D01*
X137556259Y-80087432D01*
X137583673Y-80073724D01*
X137613091Y-80065087D01*
X137622373Y-80054374D01*
X137641929Y-80044596D01*
X137677914Y-80075776D01*
X137765106Y-80088313D01*
X137845233Y-80051720D01*
X137892857Y-79977615D01*
X137892857Y-79829000D01*
X137895617Y-79823946D01*
X137892857Y-79785356D01*
X137892857Y-79236066D01*
X138230284Y-79236066D01*
X138235714Y-79249158D01*
X138235714Y-79639782D01*
X138231853Y-79675545D01*
X138245560Y-79702959D01*
X138254198Y-79732377D01*
X138264910Y-79741659D01*
X138314567Y-79840972D01*
X138319933Y-79865636D01*
X138349153Y-79894856D01*
X138377310Y-79925127D01*
X138380150Y-79925853D01*
X138409204Y-79954907D01*
X138422094Y-79976609D01*
X138459060Y-79995092D01*
X138495339Y-80014902D01*
X138498261Y-80014692D01*
X138597122Y-80064123D01*
X138627384Y-80083571D01*
X138658037Y-80083571D01*
X138688209Y-80089001D01*
X138701301Y-80083571D01*
X138877639Y-80083571D01*
X138913402Y-80087432D01*
X138940816Y-80073724D01*
X138970234Y-80065087D01*
X138979516Y-80054374D01*
X139078830Y-80004716D01*
X139103492Y-79999352D01*
X139132706Y-79970137D01*
X139148831Y-79955139D01*
X139664286Y-79955139D01*
X139682770Y-80018091D01*
X139749343Y-80075776D01*
X139836535Y-80088313D01*
X139916662Y-80051720D01*
X139964286Y-79977615D01*
X139964286Y-79955820D01*
X140159544Y-79955820D01*
X140196137Y-80035947D01*
X140270242Y-80083571D01*
X140521429Y-80083571D01*
X140521429Y-80455139D01*
X140539913Y-80518091D01*
X140606486Y-80575776D01*
X140693678Y-80588313D01*
X140773805Y-80551720D01*
X140821429Y-80477615D01*
X140821429Y-80455820D01*
X145016687Y-80455820D01*
X145053280Y-80535947D01*
X145127385Y-80583571D01*
X145306211Y-80583571D01*
X145341974Y-80587432D01*
X145369388Y-80573724D01*
X145398806Y-80565087D01*
X145408088Y-80554374D01*
X145490043Y-80513396D01*
X145495873Y-80513602D01*
X145529091Y-80493872D01*
X145543516Y-80486660D01*
X145547545Y-80482911D01*
X145571610Y-80468619D01*
X145579172Y-80453493D01*
X145591556Y-80441975D01*
X145598488Y-80414861D01*
X145659124Y-80293590D01*
X145678572Y-80263329D01*
X145678572Y-80232676D01*
X145684002Y-80202504D01*
X145678572Y-80189412D01*
X145678572Y-80083571D01*
X145764425Y-80083571D01*
X145827377Y-80065087D01*
X145885062Y-79998514D01*
X145889315Y-79968933D01*
X147090576Y-79968933D01*
X147133869Y-80045649D01*
X147211764Y-80086781D01*
X147299531Y-80079270D01*
X147369305Y-80025500D01*
X147600000Y-79379552D01*
X147823136Y-80004333D01*
X147861716Y-80057401D01*
X147943812Y-80089334D01*
X148030141Y-80071815D01*
X148093293Y-80010404D01*
X148105968Y-79955820D01*
X148159543Y-79955820D01*
X148196136Y-80035947D01*
X148270241Y-80083571D01*
X148449066Y-80083571D01*
X148484830Y-80087432D01*
X148512245Y-80073724D01*
X148541662Y-80065087D01*
X148550943Y-80054375D01*
X148615794Y-80021950D01*
X148677914Y-80075776D01*
X148765106Y-80088313D01*
X148845233Y-80051720D01*
X148892857Y-79977615D01*
X148892857Y-79661248D01*
X148898287Y-79631076D01*
X148892857Y-79617984D01*
X148892857Y-79581937D01*
X149300908Y-79581937D01*
X149307143Y-79600699D01*
X149307143Y-79711209D01*
X149303282Y-79746972D01*
X149316989Y-79774386D01*
X149325627Y-79803805D01*
X149336338Y-79813086D01*
X149377316Y-79895043D01*
X149377111Y-79900872D01*
X149396835Y-79934081D01*
X149404052Y-79948515D01*
X149407803Y-79952547D01*
X149422094Y-79976609D01*
X149437219Y-79984171D01*
X149448738Y-79996555D01*
X149475853Y-80003488D01*
X149597122Y-80064123D01*
X149627384Y-80083571D01*
X149658037Y-80083571D01*
X149688209Y-80089001D01*
X149701301Y-80083571D01*
X149949068Y-80083571D01*
X149984831Y-80087432D01*
X150012245Y-80073724D01*
X150041663Y-80065087D01*
X150050945Y-80054374D01*
X150186373Y-79986660D01*
X150234413Y-79941975D01*
X150256235Y-79856632D01*
X150228455Y-79773039D01*
X150159891Y-79717736D01*
X150072311Y-79708281D01*
X149921733Y-79783571D01*
X149706838Y-79783571D01*
X149640374Y-79750339D01*
X149607143Y-79683875D01*
X149607143Y-79669133D01*
X149635410Y-79655000D01*
X149949068Y-79655000D01*
X149984831Y-79658861D01*
X150012245Y-79645153D01*
X150041663Y-79636516D01*
X150050945Y-79625803D01*
X150132900Y-79584825D01*
X150138730Y-79585031D01*
X150171943Y-79565303D01*
X150186373Y-79558089D01*
X150190404Y-79554338D01*
X150214467Y-79540047D01*
X150222028Y-79524923D01*
X150234413Y-79513404D01*
X150241346Y-79486287D01*
X150301980Y-79365019D01*
X150321428Y-79334758D01*
X150321428Y-79304106D01*
X150326858Y-79273932D01*
X150321428Y-79260840D01*
X150321428Y-79164638D01*
X150587427Y-79164638D01*
X150592857Y-79177730D01*
X150592857Y-79211210D01*
X150588996Y-79246973D01*
X150602703Y-79274387D01*
X150611341Y-79303805D01*
X150622053Y-79313087D01*
X150663031Y-79395042D01*
X150662826Y-79400872D01*
X150682555Y-79434090D01*
X150689768Y-79448515D01*
X150693516Y-79452544D01*
X150707809Y-79476609D01*
X150722934Y-79484171D01*
X150734453Y-79496555D01*
X150761566Y-79503487D01*
X150882837Y-79564123D01*
X150913099Y-79583571D01*
X150943752Y-79583571D01*
X150973924Y-79589001D01*
X150987016Y-79583571D01*
X151136018Y-79583571D01*
X151202482Y-79616803D01*
X151235714Y-79683267D01*
X151235714Y-79683875D01*
X151202481Y-79750339D01*
X151136019Y-79783571D01*
X150992553Y-79783571D01*
X150862077Y-79718333D01*
X150797505Y-79706712D01*
X150716138Y-79740459D01*
X150665931Y-79812839D01*
X150662826Y-79900872D01*
X150707809Y-79976609D01*
X150882837Y-80064123D01*
X150913099Y-80083571D01*
X150943752Y-80083571D01*
X150973924Y-80089001D01*
X150987016Y-80083571D01*
X151163354Y-80083571D01*
X151199117Y-80087432D01*
X151226531Y-80073724D01*
X151255949Y-80065087D01*
X151265231Y-80054374D01*
X151347186Y-80013396D01*
X151353016Y-80013602D01*
X151386229Y-79993874D01*
X151400659Y-79986660D01*
X151404690Y-79982909D01*
X151428753Y-79968618D01*
X151436314Y-79953494D01*
X151448699Y-79941975D01*
X151455632Y-79914858D01*
X151516266Y-79793590D01*
X151535714Y-79763329D01*
X151535714Y-79732677D01*
X151541144Y-79702503D01*
X151535714Y-79689411D01*
X151535714Y-79655933D01*
X151539575Y-79620170D01*
X151525867Y-79592755D01*
X151517230Y-79563337D01*
X151506518Y-79554055D01*
X151465540Y-79472098D01*
X151465746Y-79466270D01*
X151446023Y-79433065D01*
X151438805Y-79418627D01*
X151435052Y-79414592D01*
X151420762Y-79390533D01*
X151405638Y-79382971D01*
X151394119Y-79370587D01*
X151367002Y-79363653D01*
X151245738Y-79303021D01*
X151215473Y-79283571D01*
X151184820Y-79283571D01*
X151154648Y-79278141D01*
X151141556Y-79283571D01*
X150992553Y-79283571D01*
X150926089Y-79250339D01*
X150892857Y-79183875D01*
X150892857Y-79183268D01*
X150902172Y-79164638D01*
X151801713Y-79164638D01*
X151807143Y-79177730D01*
X151807143Y-79211210D01*
X151803282Y-79246973D01*
X151816989Y-79274387D01*
X151825627Y-79303805D01*
X151836339Y-79313087D01*
X151877317Y-79395042D01*
X151877112Y-79400872D01*
X151896841Y-79434090D01*
X151904054Y-79448515D01*
X151907802Y-79452544D01*
X151922095Y-79476609D01*
X151937220Y-79484171D01*
X151948739Y-79496555D01*
X151975852Y-79503487D01*
X152097123Y-79564123D01*
X152127385Y-79583571D01*
X152158038Y-79583571D01*
X152188210Y-79589001D01*
X152201302Y-79583571D01*
X152350304Y-79583571D01*
X152416768Y-79616803D01*
X152450000Y-79683267D01*
X152450000Y-79683875D01*
X152416767Y-79750339D01*
X152350305Y-79783571D01*
X152206839Y-79783571D01*
X152076363Y-79718333D01*
X152011791Y-79706712D01*
X151930424Y-79740459D01*
X151880217Y-79812839D01*
X151877112Y-79900872D01*
X151922095Y-79976609D01*
X152097123Y-80064123D01*
X152127385Y-80083571D01*
X152158038Y-80083571D01*
X152188210Y-80089001D01*
X152201302Y-80083571D01*
X152377640Y-80083571D01*
X152413403Y-80087432D01*
X152440817Y-80073724D01*
X152470235Y-80065087D01*
X152479517Y-80054374D01*
X152561472Y-80013396D01*
X152567302Y-80013602D01*
X152600515Y-79993874D01*
X152614945Y-79986660D01*
X152618976Y-79982909D01*
X152643039Y-79968618D01*
X152650600Y-79953494D01*
X152662985Y-79941975D01*
X152669918Y-79914858D01*
X152730552Y-79793590D01*
X152750000Y-79763329D01*
X152750000Y-79746972D01*
X153017568Y-79746972D01*
X153031275Y-79774386D01*
X153039913Y-79803805D01*
X153050624Y-79813086D01*
X153091602Y-79895043D01*
X153091397Y-79900872D01*
X153111121Y-79934081D01*
X153118338Y-79948515D01*
X153122089Y-79952547D01*
X153136380Y-79976609D01*
X153151505Y-79984171D01*
X153163024Y-79996555D01*
X153190139Y-80003488D01*
X153311408Y-80064123D01*
X153341670Y-80083571D01*
X153372323Y-80083571D01*
X153402495Y-80089001D01*
X153415587Y-80083571D01*
X153663354Y-80083571D01*
X153699117Y-80087432D01*
X153726531Y-80073724D01*
X153755949Y-80065087D01*
X153765231Y-80054374D01*
X153847186Y-80013396D01*
X153853016Y-80013602D01*
X153886229Y-79993874D01*
X153900659Y-79986660D01*
X153904690Y-79982909D01*
X153928753Y-79968618D01*
X153936314Y-79953494D01*
X153948699Y-79941975D01*
X153955632Y-79914858D01*
X154016266Y-79793590D01*
X154035714Y-79763329D01*
X154035714Y-79732677D01*
X154041144Y-79702503D01*
X154035714Y-79689411D01*
X154035714Y-79473202D01*
X154037894Y-79469364D01*
X154035714Y-79429467D01*
X154035714Y-79155933D01*
X154039575Y-79120170D01*
X154025867Y-79092755D01*
X154017230Y-79063337D01*
X154006518Y-79054055D01*
X153984746Y-79010510D01*
X154300908Y-79010510D01*
X154328688Y-79094103D01*
X154397252Y-79149406D01*
X154484831Y-79158861D01*
X154635410Y-79083571D01*
X154850303Y-79083571D01*
X154939718Y-79128278D01*
X154976721Y-79165281D01*
X155021428Y-79254695D01*
X155021428Y-79612447D01*
X154976720Y-79701861D01*
X154939718Y-79738863D01*
X154850304Y-79783571D01*
X154635410Y-79783571D01*
X154504934Y-79718333D01*
X154440362Y-79706712D01*
X154358995Y-79740459D01*
X154308788Y-79812839D01*
X154305683Y-79900872D01*
X154350666Y-79976609D01*
X154525694Y-80064123D01*
X154555956Y-80083571D01*
X154586609Y-80083571D01*
X154616781Y-80089001D01*
X154629873Y-80083571D01*
X154877639Y-80083571D01*
X154913402Y-80087432D01*
X154940816Y-80073724D01*
X154970234Y-80065087D01*
X154979516Y-80054374D01*
X155078830Y-80004716D01*
X155103492Y-79999352D01*
X155132706Y-79970137D01*
X155162984Y-79941975D01*
X155163710Y-79939134D01*
X155192766Y-79910079D01*
X155214467Y-79897190D01*
X155232946Y-79860231D01*
X155252760Y-79823946D01*
X155252550Y-79821021D01*
X155289575Y-79746972D01*
X155588996Y-79746972D01*
X155602703Y-79774386D01*
X155611341Y-79803805D01*
X155622052Y-79813086D01*
X155663030Y-79895043D01*
X155662825Y-79900872D01*
X155682549Y-79934081D01*
X155689766Y-79948515D01*
X155693517Y-79952547D01*
X155707808Y-79976609D01*
X155722933Y-79984171D01*
X155734452Y-79996555D01*
X155761567Y-80003488D01*
X155882836Y-80064123D01*
X155913098Y-80083571D01*
X155943751Y-80083571D01*
X155973923Y-80089001D01*
X155987015Y-80083571D01*
X156234782Y-80083571D01*
X156270545Y-80087432D01*
X156297959Y-80073724D01*
X156327377Y-80065087D01*
X156336659Y-80054374D01*
X156418614Y-80013396D01*
X156424444Y-80013602D01*
X156457657Y-79993874D01*
X156472087Y-79986660D01*
X156476118Y-79982909D01*
X156500181Y-79968618D01*
X156507742Y-79953494D01*
X156520127Y-79941975D01*
X156527060Y-79914858D01*
X156587694Y-79793590D01*
X156607142Y-79763329D01*
X156607142Y-79746972D01*
X156946139Y-79746972D01*
X156959846Y-79774386D01*
X156968484Y-79803805D01*
X156979195Y-79813086D01*
X157020173Y-79895043D01*
X157019968Y-79900872D01*
X157039692Y-79934081D01*
X157046909Y-79948515D01*
X157050660Y-79952547D01*
X157064951Y-79976609D01*
X157080076Y-79984171D01*
X157091595Y-79996555D01*
X157118710Y-80003488D01*
X157239979Y-80064123D01*
X157270241Y-80083571D01*
X157300894Y-80083571D01*
X157331066Y-80089001D01*
X157344158Y-80083571D01*
X157520496Y-80083571D01*
X157556259Y-80087432D01*
X157583673Y-80073724D01*
X157613091Y-80065087D01*
X157622373Y-80054374D01*
X157641929Y-80044596D01*
X157677914Y-80075776D01*
X157765106Y-80088313D01*
X157845233Y-80051720D01*
X157892857Y-79977615D01*
X157892857Y-79829000D01*
X157895617Y-79823946D01*
X157892857Y-79785356D01*
X157892857Y-78912003D01*
X157874373Y-78849051D01*
X157807800Y-78791366D01*
X157720608Y-78778829D01*
X157640481Y-78815422D01*
X157592857Y-78889527D01*
X157592857Y-79728582D01*
X157582575Y-79738863D01*
X157493161Y-79783571D01*
X157349695Y-79783571D01*
X157283231Y-79750339D01*
X157250000Y-79683875D01*
X157250000Y-78912003D01*
X157231516Y-78849051D01*
X157164943Y-78791366D01*
X157077751Y-78778829D01*
X156997624Y-78815422D01*
X156950000Y-78889527D01*
X156950000Y-79711209D01*
X156946139Y-79746972D01*
X156607142Y-79746972D01*
X156607142Y-79732677D01*
X156612572Y-79702503D01*
X156607142Y-79689411D01*
X156607142Y-79473202D01*
X156609322Y-79469364D01*
X156607142Y-79429467D01*
X156607142Y-79155933D01*
X156611003Y-79120170D01*
X156597295Y-79092755D01*
X156588658Y-79063337D01*
X156577946Y-79054055D01*
X156536968Y-78972098D01*
X156537174Y-78966270D01*
X156517451Y-78933065D01*
X156510233Y-78918627D01*
X156506480Y-78914592D01*
X156492190Y-78890533D01*
X156477066Y-78882971D01*
X156465547Y-78870587D01*
X156438430Y-78863653D01*
X156317166Y-78803021D01*
X156286901Y-78783571D01*
X156256248Y-78783571D01*
X156226076Y-78778141D01*
X156212984Y-78783571D01*
X155965217Y-78783571D01*
X155929453Y-78779710D01*
X155902037Y-78793418D01*
X155872622Y-78802055D01*
X155863340Y-78812766D01*
X155727912Y-78880482D01*
X155679872Y-78925167D01*
X155658050Y-79010510D01*
X155685830Y-79094103D01*
X155754394Y-79149406D01*
X155841973Y-79158861D01*
X155992552Y-79083571D01*
X156207446Y-79083571D01*
X156273910Y-79116803D01*
X156307142Y-79183267D01*
X156307142Y-79310600D01*
X155738704Y-79424288D01*
X155720608Y-79421686D01*
X155696370Y-79432754D01*
X155692290Y-79433571D01*
X155676825Y-79441680D01*
X155640481Y-79458279D01*
X155638094Y-79461992D01*
X155634186Y-79464042D01*
X155614453Y-79498778D01*
X155592857Y-79532384D01*
X155592857Y-79536797D01*
X155590677Y-79540635D01*
X155592857Y-79580532D01*
X155592857Y-79711209D01*
X155588996Y-79746972D01*
X155289575Y-79746972D01*
X155301980Y-79722162D01*
X155321428Y-79691901D01*
X155321428Y-79661249D01*
X155326858Y-79631075D01*
X155321428Y-79617983D01*
X155321428Y-79227361D01*
X155325289Y-79191598D01*
X155311581Y-79164183D01*
X155302944Y-79134765D01*
X155292232Y-79125483D01*
X155242574Y-79026165D01*
X155237209Y-79001505D01*
X155208001Y-78972297D01*
X155179833Y-78942015D01*
X155176992Y-78941288D01*
X155147934Y-78912231D01*
X155135047Y-78890533D01*
X155098097Y-78872058D01*
X155061801Y-78852239D01*
X155058877Y-78852448D01*
X154960023Y-78803021D01*
X154929758Y-78783571D01*
X154899105Y-78783571D01*
X154868933Y-78778141D01*
X154855841Y-78783571D01*
X154608075Y-78783571D01*
X154572311Y-78779710D01*
X154544895Y-78793418D01*
X154515480Y-78802055D01*
X154506198Y-78812766D01*
X154370770Y-78880482D01*
X154322730Y-78925167D01*
X154300908Y-79010510D01*
X153984746Y-79010510D01*
X153965540Y-78972098D01*
X153965746Y-78966270D01*
X153946023Y-78933065D01*
X153938805Y-78918627D01*
X153935052Y-78914592D01*
X153920762Y-78890533D01*
X153905638Y-78882971D01*
X153894119Y-78870587D01*
X153867002Y-78863653D01*
X153745738Y-78803021D01*
X153715473Y-78783571D01*
X153684820Y-78783571D01*
X153654648Y-78778141D01*
X153641556Y-78783571D01*
X153393789Y-78783571D01*
X153358025Y-78779710D01*
X153330609Y-78793418D01*
X153301194Y-78802055D01*
X153291912Y-78812766D01*
X153156484Y-78880482D01*
X153108444Y-78925167D01*
X153086622Y-79010510D01*
X153114402Y-79094103D01*
X153182966Y-79149406D01*
X153270545Y-79158861D01*
X153421124Y-79083571D01*
X153636018Y-79083571D01*
X153702482Y-79116803D01*
X153735714Y-79183267D01*
X153735714Y-79310600D01*
X153167276Y-79424288D01*
X153149180Y-79421686D01*
X153124942Y-79432754D01*
X153120862Y-79433571D01*
X153105397Y-79441680D01*
X153069053Y-79458279D01*
X153066666Y-79461992D01*
X153062758Y-79464042D01*
X153043025Y-79498778D01*
X153021429Y-79532384D01*
X153021429Y-79536797D01*
X153019249Y-79540635D01*
X153021429Y-79580532D01*
X153021429Y-79711209D01*
X153017568Y-79746972D01*
X152750000Y-79746972D01*
X152750000Y-79732677D01*
X152755430Y-79702503D01*
X152750000Y-79689411D01*
X152750000Y-79655933D01*
X152753861Y-79620170D01*
X152740153Y-79592755D01*
X152731516Y-79563337D01*
X152720804Y-79554055D01*
X152679826Y-79472098D01*
X152680032Y-79466270D01*
X152660309Y-79433065D01*
X152653091Y-79418627D01*
X152649338Y-79414592D01*
X152635048Y-79390533D01*
X152619924Y-79382971D01*
X152608405Y-79370587D01*
X152581288Y-79363653D01*
X152460024Y-79303021D01*
X152429759Y-79283571D01*
X152399106Y-79283571D01*
X152368934Y-79278141D01*
X152355842Y-79283571D01*
X152206839Y-79283571D01*
X152140375Y-79250339D01*
X152107143Y-79183875D01*
X152107143Y-79183268D01*
X152140375Y-79116802D01*
X152206839Y-79083571D01*
X152421732Y-79083571D01*
X152552208Y-79148809D01*
X152616781Y-79160430D01*
X152698148Y-79126683D01*
X152748355Y-79054303D01*
X152751460Y-78966270D01*
X152706476Y-78890533D01*
X152531452Y-78803021D01*
X152501187Y-78783571D01*
X152470534Y-78783571D01*
X152440362Y-78778141D01*
X152427270Y-78783571D01*
X152179504Y-78783571D01*
X152143740Y-78779710D01*
X152116324Y-78793418D01*
X152086909Y-78802055D01*
X152077627Y-78812766D01*
X151995671Y-78853745D01*
X151989842Y-78853540D01*
X151956628Y-78873267D01*
X151942199Y-78880482D01*
X151938167Y-78884232D01*
X151914105Y-78898524D01*
X151906543Y-78913647D01*
X151894159Y-78925167D01*
X151887225Y-78952282D01*
X151826593Y-79073547D01*
X151807143Y-79103813D01*
X151807143Y-79134466D01*
X151801713Y-79164638D01*
X150902172Y-79164638D01*
X150926089Y-79116802D01*
X150992553Y-79083571D01*
X151207446Y-79083571D01*
X151337922Y-79148809D01*
X151402495Y-79160430D01*
X151483862Y-79126683D01*
X151534069Y-79054303D01*
X151537174Y-78966270D01*
X151492190Y-78890533D01*
X151317166Y-78803021D01*
X151286901Y-78783571D01*
X151256248Y-78783571D01*
X151226076Y-78778141D01*
X151212984Y-78783571D01*
X150965218Y-78783571D01*
X150929454Y-78779710D01*
X150902038Y-78793418D01*
X150872623Y-78802055D01*
X150863341Y-78812766D01*
X150781385Y-78853745D01*
X150775556Y-78853540D01*
X150742342Y-78873267D01*
X150727913Y-78880482D01*
X150723881Y-78884232D01*
X150699819Y-78898524D01*
X150692257Y-78913647D01*
X150679873Y-78925167D01*
X150672939Y-78952282D01*
X150612307Y-79073547D01*
X150592857Y-79103813D01*
X150592857Y-79134466D01*
X150587427Y-79164638D01*
X150321428Y-79164638D01*
X150321428Y-79155933D01*
X150325289Y-79120170D01*
X150311581Y-79092755D01*
X150302944Y-79063337D01*
X150292232Y-79054055D01*
X150251254Y-78972098D01*
X150251460Y-78966270D01*
X150231737Y-78933065D01*
X150224519Y-78918627D01*
X150220766Y-78914592D01*
X150206476Y-78890533D01*
X150191352Y-78882971D01*
X150179833Y-78870587D01*
X150152716Y-78863653D01*
X150031452Y-78803021D01*
X150001187Y-78783571D01*
X149970534Y-78783571D01*
X149940362Y-78778141D01*
X149927270Y-78783571D01*
X149608075Y-78783571D01*
X149572311Y-78779710D01*
X149544895Y-78793418D01*
X149529627Y-78797900D01*
X149522086Y-78791366D01*
X149434894Y-78778829D01*
X149354767Y-78815422D01*
X149307143Y-78889527D01*
X149307143Y-78986126D01*
X149300908Y-79010510D01*
X149307143Y-79029272D01*
X149307143Y-79557553D01*
X149300908Y-79581937D01*
X148892857Y-79581937D01*
X148892857Y-78912003D01*
X148874373Y-78849051D01*
X148807800Y-78791366D01*
X148720608Y-78778829D01*
X148640481Y-78815422D01*
X148592857Y-78889527D01*
X148592857Y-79612447D01*
X148548151Y-79701857D01*
X148511145Y-79738863D01*
X148421731Y-79783571D01*
X148292717Y-79783571D01*
X148229765Y-79802055D01*
X148172080Y-79868628D01*
X148159543Y-79955820D01*
X148105968Y-79955820D01*
X148113218Y-79924599D01*
X147760352Y-78936576D01*
X147870694Y-78660722D01*
X147903139Y-78628277D01*
X148043516Y-78558089D01*
X148091556Y-78513404D01*
X148113378Y-78428061D01*
X148085598Y-78344468D01*
X148017034Y-78289165D01*
X147929454Y-78279710D01*
X147764026Y-78362425D01*
X147739365Y-78367790D01*
X147710150Y-78397004D01*
X147679873Y-78425167D01*
X147679146Y-78428007D01*
X147645634Y-78461519D01*
X147619943Y-78479825D01*
X147606912Y-78512401D01*
X147590097Y-78543196D01*
X147590779Y-78552734D01*
X147475957Y-78839789D01*
X147473552Y-78841643D01*
X147470454Y-78850315D01*
X147463850Y-78856738D01*
X147456476Y-78888492D01*
X147452718Y-78897888D01*
X147452446Y-78900737D01*
X147094342Y-79903432D01*
X147090576Y-79968933D01*
X145889315Y-79968933D01*
X145897599Y-79911322D01*
X145861006Y-79831195D01*
X145786901Y-79783571D01*
X145678572Y-79783571D01*
X145678572Y-78912003D01*
X145660088Y-78849051D01*
X145618440Y-78812963D01*
X145730972Y-78812963D01*
X145767565Y-78893090D01*
X145841670Y-78940714D01*
X147050140Y-78940714D01*
X147113092Y-78922230D01*
X147170777Y-78855657D01*
X147183314Y-78768465D01*
X147146721Y-78688338D01*
X147072616Y-78640714D01*
X145864146Y-78640714D01*
X145801194Y-78659198D01*
X145743509Y-78725771D01*
X145730972Y-78812963D01*
X145618440Y-78812963D01*
X145593515Y-78791366D01*
X145506323Y-78778829D01*
X145426196Y-78815422D01*
X145378572Y-78889527D01*
X145378572Y-79783571D01*
X145149861Y-79783571D01*
X145086909Y-79802055D01*
X145029224Y-79868628D01*
X145016687Y-79955820D01*
X145053280Y-80035947D01*
X145127385Y-80083571D01*
X145378572Y-80083571D01*
X145378572Y-80183875D01*
X145345340Y-80250338D01*
X145278876Y-80283571D01*
X145149861Y-80283571D01*
X145086909Y-80302055D01*
X145029224Y-80368628D01*
X145016687Y-80455820D01*
X140821429Y-80455820D01*
X140821429Y-80083571D01*
X140907282Y-80083571D01*
X140970234Y-80065087D01*
X141027919Y-79998514D01*
X141040456Y-79911322D01*
X141003863Y-79831195D01*
X140929758Y-79783571D01*
X140821429Y-79783571D01*
X140821429Y-79155932D01*
X140825290Y-79120168D01*
X140811581Y-79092752D01*
X140802945Y-79063337D01*
X140792233Y-79054055D01*
X140770460Y-79010510D01*
X141158051Y-79010510D01*
X141185831Y-79094103D01*
X141254395Y-79149406D01*
X141341974Y-79158861D01*
X141492553Y-79083571D01*
X141707446Y-79083571D01*
X141796861Y-79128278D01*
X141833864Y-79165281D01*
X141878571Y-79254695D01*
X141878571Y-79612447D01*
X141833863Y-79701861D01*
X141796861Y-79738863D01*
X141707447Y-79783571D01*
X141492553Y-79783571D01*
X141362077Y-79718333D01*
X141297505Y-79706712D01*
X141216138Y-79740459D01*
X141165931Y-79812839D01*
X141162826Y-79900872D01*
X141207809Y-79976609D01*
X141382837Y-80064123D01*
X141413099Y-80083571D01*
X141443752Y-80083571D01*
X141473924Y-80089001D01*
X141487016Y-80083571D01*
X141734782Y-80083571D01*
X141770545Y-80087432D01*
X141797959Y-80073724D01*
X141827377Y-80065087D01*
X141836659Y-80054374D01*
X141935973Y-80004716D01*
X141960635Y-79999352D01*
X141989849Y-79970137D01*
X142020127Y-79941975D01*
X142020853Y-79939134D01*
X142049909Y-79910079D01*
X142071610Y-79897190D01*
X142090089Y-79860231D01*
X142109903Y-79823946D01*
X142109693Y-79821021D01*
X142146718Y-79746972D01*
X142517568Y-79746972D01*
X142531275Y-79774386D01*
X142539913Y-79803805D01*
X142550624Y-79813086D01*
X142591602Y-79895043D01*
X142591397Y-79900872D01*
X142611121Y-79934081D01*
X142618338Y-79948515D01*
X142622089Y-79952547D01*
X142636380Y-79976609D01*
X142651505Y-79984171D01*
X142663024Y-79996555D01*
X142690139Y-80003488D01*
X142811408Y-80064123D01*
X142841670Y-80083571D01*
X142872323Y-80083571D01*
X142902495Y-80089001D01*
X142915587Y-80083571D01*
X143091925Y-80083571D01*
X143127688Y-80087432D01*
X143155102Y-80073724D01*
X143184520Y-80065087D01*
X143193802Y-80054374D01*
X143213358Y-80044596D01*
X143249343Y-80075776D01*
X143336535Y-80088313D01*
X143416662Y-80051720D01*
X143464286Y-79977615D01*
X143464286Y-79829000D01*
X143467046Y-79823946D01*
X143464286Y-79785356D01*
X143464286Y-79043197D01*
X143875811Y-79043197D01*
X143878572Y-79081795D01*
X143878572Y-79955139D01*
X143897056Y-80018091D01*
X143963629Y-80075776D01*
X144050821Y-80088313D01*
X144130948Y-80051720D01*
X144178572Y-79977615D01*
X144178572Y-79138560D01*
X144188854Y-79128277D01*
X144278267Y-79083571D01*
X144421732Y-79083571D01*
X144488197Y-79116803D01*
X144521429Y-79183267D01*
X144521429Y-79955139D01*
X144539913Y-80018091D01*
X144606486Y-80075776D01*
X144693678Y-80088313D01*
X144773805Y-80051720D01*
X144821429Y-79977615D01*
X144821429Y-79155932D01*
X144825290Y-79120168D01*
X144811581Y-79092752D01*
X144802945Y-79063337D01*
X144792233Y-79054055D01*
X144751254Y-78972099D01*
X144751460Y-78966270D01*
X144731732Y-78933056D01*
X144724518Y-78918627D01*
X144720767Y-78914595D01*
X144706476Y-78890533D01*
X144691352Y-78882971D01*
X144679833Y-78870587D01*
X144652717Y-78863653D01*
X144531452Y-78803021D01*
X144501187Y-78783571D01*
X144470534Y-78783571D01*
X144440362Y-78778141D01*
X144427270Y-78783571D01*
X144250932Y-78783571D01*
X144215168Y-78779710D01*
X144187752Y-78793418D01*
X144158337Y-78802055D01*
X144149055Y-78812766D01*
X144129498Y-78822545D01*
X144093515Y-78791366D01*
X144006323Y-78778829D01*
X143926196Y-78815422D01*
X143878572Y-78889527D01*
X143878572Y-79038141D01*
X143875811Y-79043197D01*
X143464286Y-79043197D01*
X143464286Y-78912003D01*
X143445802Y-78849051D01*
X143379229Y-78791366D01*
X143292037Y-78778829D01*
X143211910Y-78815422D01*
X143164286Y-78889527D01*
X143164286Y-79728582D01*
X143154004Y-79738863D01*
X143064590Y-79783571D01*
X142921124Y-79783571D01*
X142854660Y-79750339D01*
X142821429Y-79683875D01*
X142821429Y-78912003D01*
X142802945Y-78849051D01*
X142736372Y-78791366D01*
X142649180Y-78778829D01*
X142569053Y-78815422D01*
X142521429Y-78889527D01*
X142521429Y-79711209D01*
X142517568Y-79746972D01*
X142146718Y-79746972D01*
X142159123Y-79722162D01*
X142178571Y-79691901D01*
X142178571Y-79661249D01*
X142184001Y-79631075D01*
X142178571Y-79617983D01*
X142178571Y-79227361D01*
X142182432Y-79191598D01*
X142168724Y-79164183D01*
X142160087Y-79134765D01*
X142149375Y-79125483D01*
X142099717Y-79026165D01*
X142094352Y-79001505D01*
X142065144Y-78972297D01*
X142036976Y-78942015D01*
X142034135Y-78941288D01*
X142005077Y-78912231D01*
X141992190Y-78890533D01*
X141955240Y-78872058D01*
X141918944Y-78852239D01*
X141916020Y-78852448D01*
X141817166Y-78803021D01*
X141786901Y-78783571D01*
X141756248Y-78783571D01*
X141726076Y-78778141D01*
X141712984Y-78783571D01*
X141465218Y-78783571D01*
X141429454Y-78779710D01*
X141402038Y-78793418D01*
X141372623Y-78802055D01*
X141363341Y-78812766D01*
X141227913Y-78880482D01*
X141179873Y-78925167D01*
X141158051Y-79010510D01*
X140770460Y-79010510D01*
X140751254Y-78972099D01*
X140751460Y-78966270D01*
X140731732Y-78933056D01*
X140724518Y-78918627D01*
X140720767Y-78914595D01*
X140706476Y-78890533D01*
X140691352Y-78882971D01*
X140679833Y-78870587D01*
X140652717Y-78863653D01*
X140531452Y-78803021D01*
X140501187Y-78783571D01*
X140470534Y-78783571D01*
X140440362Y-78778141D01*
X140427270Y-78783571D01*
X140292718Y-78783571D01*
X140229766Y-78802055D01*
X140172081Y-78868628D01*
X140159544Y-78955820D01*
X140196137Y-79035947D01*
X140270242Y-79083571D01*
X140421732Y-79083571D01*
X140488197Y-79116803D01*
X140521429Y-79183267D01*
X140521429Y-79783571D01*
X140292718Y-79783571D01*
X140229766Y-79802055D01*
X140172081Y-79868628D01*
X140159544Y-79955820D01*
X139964286Y-79955820D01*
X139964286Y-78912003D01*
X139945802Y-78849051D01*
X139879229Y-78791366D01*
X139792037Y-78778829D01*
X139711910Y-78815422D01*
X139664286Y-78889527D01*
X139664286Y-79955139D01*
X139148831Y-79955139D01*
X139162984Y-79941975D01*
X139163710Y-79939134D01*
X139192766Y-79910079D01*
X139214467Y-79897190D01*
X139232946Y-79860231D01*
X139252760Y-79823946D01*
X139252550Y-79821021D01*
X139301980Y-79722162D01*
X139321428Y-79691901D01*
X139321428Y-79661249D01*
X139326858Y-79631075D01*
X139321428Y-79617983D01*
X139321428Y-79227361D01*
X139325289Y-79191598D01*
X139311581Y-79164183D01*
X139302944Y-79134765D01*
X139292232Y-79125483D01*
X139242574Y-79026165D01*
X139237209Y-79001505D01*
X139208001Y-78972297D01*
X139179833Y-78942015D01*
X139176992Y-78941288D01*
X139147934Y-78912231D01*
X139135047Y-78890533D01*
X139098097Y-78872058D01*
X139061801Y-78852239D01*
X139058877Y-78852448D01*
X138960023Y-78803021D01*
X138929758Y-78783571D01*
X138899105Y-78783571D01*
X138868933Y-78778141D01*
X138855841Y-78783571D01*
X138679503Y-78783571D01*
X138643739Y-78779710D01*
X138616323Y-78793418D01*
X138586908Y-78802055D01*
X138577626Y-78812766D01*
X138478311Y-78862424D01*
X138453648Y-78867790D01*
X138424417Y-78897020D01*
X138394158Y-78925167D01*
X138393431Y-78928006D01*
X138364374Y-78957064D01*
X138342676Y-78969952D01*
X138324200Y-79006903D01*
X138304382Y-79043197D01*
X138304591Y-79046121D01*
X138255164Y-79144975D01*
X138235714Y-79175241D01*
X138235714Y-79205894D01*
X138230284Y-79236066D01*
X137892857Y-79236066D01*
X137892857Y-78912003D01*
X137874373Y-78849051D01*
X137807800Y-78791366D01*
X137720608Y-78778829D01*
X137640481Y-78815422D01*
X137592857Y-78889527D01*
X137592857Y-79728582D01*
X137582575Y-79738863D01*
X137493161Y-79783571D01*
X137349695Y-79783571D01*
X137283231Y-79750339D01*
X137250000Y-79683875D01*
X137250000Y-78912003D01*
X137231516Y-78849051D01*
X137164943Y-78791366D01*
X137077751Y-78778829D01*
X136997624Y-78815422D01*
X136950000Y-78889527D01*
X136950000Y-79711209D01*
X136946139Y-79746972D01*
X135628571Y-79746972D01*
X135628571Y-78085714D01*
X158764286Y-78085714D01*
X158764286Y-81664286D01*
G37*
D12*
%TO.C,LED*%
X165494285Y-124203055D02*
X165494285Y-124763307D01*
X165494285Y-124763307D02*
X164317757Y-124763307D01*
X164878008Y-123810880D02*
X164878008Y-123418704D01*
X165494285Y-123250628D02*
X165494285Y-123810880D01*
X165494285Y-123810880D02*
X164317757Y-123810880D01*
X164317757Y-123810880D02*
X164317757Y-123250628D01*
X165494285Y-122746402D02*
X164317757Y-122746402D01*
X164317757Y-122746402D02*
X164317757Y-122466276D01*
X164317757Y-122466276D02*
X164373782Y-122298201D01*
X164373782Y-122298201D02*
X164485832Y-122186150D01*
X164485832Y-122186150D02*
X164597882Y-122130125D01*
X164597882Y-122130125D02*
X164821983Y-122074100D01*
X164821983Y-122074100D02*
X164990058Y-122074100D01*
X164990058Y-122074100D02*
X165214159Y-122130125D01*
X165214159Y-122130125D02*
X165326209Y-122186150D01*
X165326209Y-122186150D02*
X165438260Y-122298201D01*
X165438260Y-122298201D02*
X165494285Y-122466276D01*
X165494285Y-122466276D02*
X165494285Y-122746402D01*
%TO.C,SW2*%
X154424100Y-86338260D02*
X154592176Y-86394285D01*
X154592176Y-86394285D02*
X154872301Y-86394285D01*
X154872301Y-86394285D02*
X154984352Y-86338260D01*
X154984352Y-86338260D02*
X155040377Y-86282234D01*
X155040377Y-86282234D02*
X155096402Y-86170184D01*
X155096402Y-86170184D02*
X155096402Y-86058134D01*
X155096402Y-86058134D02*
X155040377Y-85946084D01*
X155040377Y-85946084D02*
X154984352Y-85890058D01*
X154984352Y-85890058D02*
X154872301Y-85834033D01*
X154872301Y-85834033D02*
X154648201Y-85778008D01*
X154648201Y-85778008D02*
X154536150Y-85721983D01*
X154536150Y-85721983D02*
X154480125Y-85665958D01*
X154480125Y-85665958D02*
X154424100Y-85553908D01*
X154424100Y-85553908D02*
X154424100Y-85441857D01*
X154424100Y-85441857D02*
X154480125Y-85329807D01*
X154480125Y-85329807D02*
X154536150Y-85273782D01*
X154536150Y-85273782D02*
X154648201Y-85217757D01*
X154648201Y-85217757D02*
X154928326Y-85217757D01*
X154928326Y-85217757D02*
X155096402Y-85273782D01*
X155488578Y-85217757D02*
X155768704Y-86394285D01*
X155768704Y-86394285D02*
X155992804Y-85553908D01*
X155992804Y-85553908D02*
X156216905Y-86394285D01*
X156216905Y-86394285D02*
X156497031Y-85217757D01*
X156889206Y-85329807D02*
X156945231Y-85273782D01*
X156945231Y-85273782D02*
X157057282Y-85217757D01*
X157057282Y-85217757D02*
X157337407Y-85217757D01*
X157337407Y-85217757D02*
X157449458Y-85273782D01*
X157449458Y-85273782D02*
X157505483Y-85329807D01*
X157505483Y-85329807D02*
X157561508Y-85441857D01*
X157561508Y-85441857D02*
X157561508Y-85553908D01*
X157561508Y-85553908D02*
X157505483Y-85721983D01*
X157505483Y-85721983D02*
X156833181Y-86394285D01*
X156833181Y-86394285D02*
X157561508Y-86394285D01*
D13*
%TO.C,C5*%
X157720170Y-106379371D02*
X157742228Y-106401428D01*
X157742228Y-106401428D02*
X157764285Y-106467600D01*
X157764285Y-106467600D02*
X157764285Y-106511714D01*
X157764285Y-106511714D02*
X157742228Y-106577885D01*
X157742228Y-106577885D02*
X157698113Y-106622000D01*
X157698113Y-106622000D02*
X157653999Y-106644057D01*
X157653999Y-106644057D02*
X157565770Y-106666114D01*
X157565770Y-106666114D02*
X157499599Y-106666114D01*
X157499599Y-106666114D02*
X157411370Y-106644057D01*
X157411370Y-106644057D02*
X157367256Y-106622000D01*
X157367256Y-106622000D02*
X157323142Y-106577885D01*
X157323142Y-106577885D02*
X157301085Y-106511714D01*
X157301085Y-106511714D02*
X157301085Y-106467600D01*
X157301085Y-106467600D02*
X157323142Y-106401428D01*
X157323142Y-106401428D02*
X157345199Y-106379371D01*
X157301085Y-105960285D02*
X157301085Y-106180857D01*
X157301085Y-106180857D02*
X157521656Y-106202914D01*
X157521656Y-106202914D02*
X157499599Y-106180857D01*
X157499599Y-106180857D02*
X157477542Y-106136743D01*
X157477542Y-106136743D02*
X157477542Y-106026457D01*
X157477542Y-106026457D02*
X157499599Y-105982343D01*
X157499599Y-105982343D02*
X157521656Y-105960285D01*
X157521656Y-105960285D02*
X157565770Y-105938228D01*
X157565770Y-105938228D02*
X157676056Y-105938228D01*
X157676056Y-105938228D02*
X157720170Y-105960285D01*
X157720170Y-105960285D02*
X157742228Y-105982343D01*
X157742228Y-105982343D02*
X157764285Y-106026457D01*
X157764285Y-106026457D02*
X157764285Y-106136743D01*
X157764285Y-106136743D02*
X157742228Y-106180857D01*
X157742228Y-106180857D02*
X157720170Y-106202914D01*
D14*
%TO.C,Lipo_THRU*%
X148111998Y-102173472D02*
X148111998Y-102957824D01*
X148111998Y-102957824D02*
X146464859Y-102957824D01*
X148111998Y-101624426D02*
X147013905Y-101624426D01*
X146464859Y-101624426D02*
X146543294Y-101702861D01*
X146543294Y-101702861D02*
X146621729Y-101624426D01*
X146621729Y-101624426D02*
X146543294Y-101545990D01*
X146543294Y-101545990D02*
X146464859Y-101624426D01*
X146464859Y-101624426D02*
X146621729Y-101624426D01*
X147013905Y-100840074D02*
X148661044Y-100840074D01*
X147092340Y-100840074D02*
X147013905Y-100683203D01*
X147013905Y-100683203D02*
X147013905Y-100369462D01*
X147013905Y-100369462D02*
X147092340Y-100212592D01*
X147092340Y-100212592D02*
X147170775Y-100134157D01*
X147170775Y-100134157D02*
X147327646Y-100055722D01*
X147327646Y-100055722D02*
X147798257Y-100055722D01*
X147798257Y-100055722D02*
X147955127Y-100134157D01*
X147955127Y-100134157D02*
X148033563Y-100212592D01*
X148033563Y-100212592D02*
X148111998Y-100369462D01*
X148111998Y-100369462D02*
X148111998Y-100683203D01*
X148111998Y-100683203D02*
X148033563Y-100840074D01*
X148111998Y-99114499D02*
X148033563Y-99271369D01*
X148033563Y-99271369D02*
X147955127Y-99349805D01*
X147955127Y-99349805D02*
X147798257Y-99428240D01*
X147798257Y-99428240D02*
X147327646Y-99428240D01*
X147327646Y-99428240D02*
X147170775Y-99349805D01*
X147170775Y-99349805D02*
X147092340Y-99271369D01*
X147092340Y-99271369D02*
X147013905Y-99114499D01*
X147013905Y-99114499D02*
X147013905Y-98879193D01*
X147013905Y-98879193D02*
X147092340Y-98722323D01*
X147092340Y-98722323D02*
X147170775Y-98643888D01*
X147170775Y-98643888D02*
X147327646Y-98565453D01*
X147327646Y-98565453D02*
X147798257Y-98565453D01*
X147798257Y-98565453D02*
X147955127Y-98643888D01*
X147955127Y-98643888D02*
X148033563Y-98722323D01*
X148033563Y-98722323D02*
X148111998Y-98879193D01*
X148111998Y-98879193D02*
X148111998Y-99114499D01*
X148268868Y-98251712D02*
X148268868Y-96996748D01*
X146464859Y-96839878D02*
X146464859Y-95898656D01*
X148111998Y-96369267D02*
X146464859Y-96369267D01*
X148111998Y-95349610D02*
X146464859Y-95349610D01*
X147249211Y-95349610D02*
X147249211Y-94408387D01*
X148111998Y-94408387D02*
X146464859Y-94408387D01*
X148111998Y-92682813D02*
X147327646Y-93231860D01*
X148111998Y-93624036D02*
X146464859Y-93624036D01*
X146464859Y-93624036D02*
X146464859Y-92996554D01*
X146464859Y-92996554D02*
X146543294Y-92839684D01*
X146543294Y-92839684D02*
X146621729Y-92761248D01*
X146621729Y-92761248D02*
X146778599Y-92682813D01*
X146778599Y-92682813D02*
X147013905Y-92682813D01*
X147013905Y-92682813D02*
X147170775Y-92761248D01*
X147170775Y-92761248D02*
X147249211Y-92839684D01*
X147249211Y-92839684D02*
X147327646Y-92996554D01*
X147327646Y-92996554D02*
X147327646Y-93624036D01*
X146464859Y-91976897D02*
X147798257Y-91976897D01*
X147798257Y-91976897D02*
X147955127Y-91898461D01*
X147955127Y-91898461D02*
X148033563Y-91820026D01*
X148033563Y-91820026D02*
X148111998Y-91663156D01*
X148111998Y-91663156D02*
X148111998Y-91349415D01*
X148111998Y-91349415D02*
X148033563Y-91192545D01*
X148033563Y-91192545D02*
X147955127Y-91114109D01*
X147955127Y-91114109D02*
X147798257Y-91035674D01*
X147798257Y-91035674D02*
X146464859Y-91035674D01*
D13*
%TO.C,C4*%
X151220170Y-105679371D02*
X151242228Y-105701428D01*
X151242228Y-105701428D02*
X151264285Y-105767600D01*
X151264285Y-105767600D02*
X151264285Y-105811714D01*
X151264285Y-105811714D02*
X151242228Y-105877885D01*
X151242228Y-105877885D02*
X151198113Y-105922000D01*
X151198113Y-105922000D02*
X151153999Y-105944057D01*
X151153999Y-105944057D02*
X151065770Y-105966114D01*
X151065770Y-105966114D02*
X150999599Y-105966114D01*
X150999599Y-105966114D02*
X150911370Y-105944057D01*
X150911370Y-105944057D02*
X150867256Y-105922000D01*
X150867256Y-105922000D02*
X150823142Y-105877885D01*
X150823142Y-105877885D02*
X150801085Y-105811714D01*
X150801085Y-105811714D02*
X150801085Y-105767600D01*
X150801085Y-105767600D02*
X150823142Y-105701428D01*
X150823142Y-105701428D02*
X150845199Y-105679371D01*
X150955485Y-105282343D02*
X151264285Y-105282343D01*
X150779028Y-105392628D02*
X151109885Y-105502914D01*
X151109885Y-105502914D02*
X151109885Y-105216171D01*
%TO.C,C6*%
X158970170Y-106379371D02*
X158992228Y-106401428D01*
X158992228Y-106401428D02*
X159014285Y-106467600D01*
X159014285Y-106467600D02*
X159014285Y-106511714D01*
X159014285Y-106511714D02*
X158992228Y-106577885D01*
X158992228Y-106577885D02*
X158948113Y-106622000D01*
X158948113Y-106622000D02*
X158903999Y-106644057D01*
X158903999Y-106644057D02*
X158815770Y-106666114D01*
X158815770Y-106666114D02*
X158749599Y-106666114D01*
X158749599Y-106666114D02*
X158661370Y-106644057D01*
X158661370Y-106644057D02*
X158617256Y-106622000D01*
X158617256Y-106622000D02*
X158573142Y-106577885D01*
X158573142Y-106577885D02*
X158551085Y-106511714D01*
X158551085Y-106511714D02*
X158551085Y-106467600D01*
X158551085Y-106467600D02*
X158573142Y-106401428D01*
X158573142Y-106401428D02*
X158595199Y-106379371D01*
X158551085Y-105982343D02*
X158551085Y-106070571D01*
X158551085Y-106070571D02*
X158573142Y-106114685D01*
X158573142Y-106114685D02*
X158595199Y-106136743D01*
X158595199Y-106136743D02*
X158661370Y-106180857D01*
X158661370Y-106180857D02*
X158749599Y-106202914D01*
X158749599Y-106202914D02*
X158926056Y-106202914D01*
X158926056Y-106202914D02*
X158970170Y-106180857D01*
X158970170Y-106180857D02*
X158992228Y-106158800D01*
X158992228Y-106158800D02*
X159014285Y-106114685D01*
X159014285Y-106114685D02*
X159014285Y-106026457D01*
X159014285Y-106026457D02*
X158992228Y-105982343D01*
X158992228Y-105982343D02*
X158970170Y-105960285D01*
X158970170Y-105960285D02*
X158926056Y-105938228D01*
X158926056Y-105938228D02*
X158815770Y-105938228D01*
X158815770Y-105938228D02*
X158771656Y-105960285D01*
X158771656Y-105960285D02*
X158749599Y-105982343D01*
X158749599Y-105982343D02*
X158727542Y-106026457D01*
X158727542Y-106026457D02*
X158727542Y-106114685D01*
X158727542Y-106114685D02*
X158749599Y-106158800D01*
X158749599Y-106158800D02*
X158771656Y-106180857D01*
X158771656Y-106180857D02*
X158815770Y-106202914D01*
D12*
%TO.C,SERVO2*%
X134974100Y-117038260D02*
X135142176Y-117094285D01*
X135142176Y-117094285D02*
X135422301Y-117094285D01*
X135422301Y-117094285D02*
X135534352Y-117038260D01*
X135534352Y-117038260D02*
X135590377Y-116982234D01*
X135590377Y-116982234D02*
X135646402Y-116870184D01*
X135646402Y-116870184D02*
X135646402Y-116758134D01*
X135646402Y-116758134D02*
X135590377Y-116646084D01*
X135590377Y-116646084D02*
X135534352Y-116590058D01*
X135534352Y-116590058D02*
X135422301Y-116534033D01*
X135422301Y-116534033D02*
X135198201Y-116478008D01*
X135198201Y-116478008D02*
X135086150Y-116421983D01*
X135086150Y-116421983D02*
X135030125Y-116365958D01*
X135030125Y-116365958D02*
X134974100Y-116253908D01*
X134974100Y-116253908D02*
X134974100Y-116141857D01*
X134974100Y-116141857D02*
X135030125Y-116029807D01*
X135030125Y-116029807D02*
X135086150Y-115973782D01*
X135086150Y-115973782D02*
X135198201Y-115917757D01*
X135198201Y-115917757D02*
X135478326Y-115917757D01*
X135478326Y-115917757D02*
X135646402Y-115973782D01*
X136150628Y-116478008D02*
X136542804Y-116478008D01*
X136710880Y-117094285D02*
X136150628Y-117094285D01*
X136150628Y-117094285D02*
X136150628Y-115917757D01*
X136150628Y-115917757D02*
X136710880Y-115917757D01*
X137887408Y-117094285D02*
X137495232Y-116534033D01*
X137215106Y-117094285D02*
X137215106Y-115917757D01*
X137215106Y-115917757D02*
X137663307Y-115917757D01*
X137663307Y-115917757D02*
X137775358Y-115973782D01*
X137775358Y-115973782D02*
X137831383Y-116029807D01*
X137831383Y-116029807D02*
X137887408Y-116141857D01*
X137887408Y-116141857D02*
X137887408Y-116309933D01*
X137887408Y-116309933D02*
X137831383Y-116421983D01*
X137831383Y-116421983D02*
X137775358Y-116478008D01*
X137775358Y-116478008D02*
X137663307Y-116534033D01*
X137663307Y-116534033D02*
X137215106Y-116534033D01*
X138223559Y-115917757D02*
X138615735Y-117094285D01*
X138615735Y-117094285D02*
X139007911Y-115917757D01*
X139624188Y-115917757D02*
X139848288Y-115917757D01*
X139848288Y-115917757D02*
X139960339Y-115973782D01*
X139960339Y-115973782D02*
X140072389Y-116085832D01*
X140072389Y-116085832D02*
X140128414Y-116309933D01*
X140128414Y-116309933D02*
X140128414Y-116702109D01*
X140128414Y-116702109D02*
X140072389Y-116926209D01*
X140072389Y-116926209D02*
X139960339Y-117038260D01*
X139960339Y-117038260D02*
X139848288Y-117094285D01*
X139848288Y-117094285D02*
X139624188Y-117094285D01*
X139624188Y-117094285D02*
X139512138Y-117038260D01*
X139512138Y-117038260D02*
X139400087Y-116926209D01*
X139400087Y-116926209D02*
X139344062Y-116702109D01*
X139344062Y-116702109D02*
X139344062Y-116309933D01*
X139344062Y-116309933D02*
X139400087Y-116085832D01*
X139400087Y-116085832D02*
X139512138Y-115973782D01*
X139512138Y-115973782D02*
X139624188Y-115917757D01*
X140576615Y-116029807D02*
X140632640Y-115973782D01*
X140632640Y-115973782D02*
X140744691Y-115917757D01*
X140744691Y-115917757D02*
X141024816Y-115917757D01*
X141024816Y-115917757D02*
X141136867Y-115973782D01*
X141136867Y-115973782D02*
X141192892Y-116029807D01*
X141192892Y-116029807D02*
X141248917Y-116141857D01*
X141248917Y-116141857D02*
X141248917Y-116253908D01*
X141248917Y-116253908D02*
X141192892Y-116421983D01*
X141192892Y-116421983D02*
X140520590Y-117094285D01*
X140520590Y-117094285D02*
X141248917Y-117094285D01*
%TO.C,AZUSA_CON2*%
X144024100Y-116858134D02*
X144584352Y-116858134D01*
X143912050Y-117194285D02*
X144304226Y-116017757D01*
X144304226Y-116017757D02*
X144696402Y-117194285D01*
X144976528Y-116017757D02*
X145760880Y-116017757D01*
X145760880Y-116017757D02*
X144976528Y-117194285D01*
X144976528Y-117194285D02*
X145760880Y-117194285D01*
X146209081Y-116017757D02*
X146209081Y-116970184D01*
X146209081Y-116970184D02*
X146265106Y-117082234D01*
X146265106Y-117082234D02*
X146321132Y-117138260D01*
X146321132Y-117138260D02*
X146433182Y-117194285D01*
X146433182Y-117194285D02*
X146657282Y-117194285D01*
X146657282Y-117194285D02*
X146769333Y-117138260D01*
X146769333Y-117138260D02*
X146825358Y-117082234D01*
X146825358Y-117082234D02*
X146881383Y-116970184D01*
X146881383Y-116970184D02*
X146881383Y-116017757D01*
X147385609Y-117138260D02*
X147553685Y-117194285D01*
X147553685Y-117194285D02*
X147833810Y-117194285D01*
X147833810Y-117194285D02*
X147945861Y-117138260D01*
X147945861Y-117138260D02*
X148001886Y-117082234D01*
X148001886Y-117082234D02*
X148057911Y-116970184D01*
X148057911Y-116970184D02*
X148057911Y-116858134D01*
X148057911Y-116858134D02*
X148001886Y-116746084D01*
X148001886Y-116746084D02*
X147945861Y-116690058D01*
X147945861Y-116690058D02*
X147833810Y-116634033D01*
X147833810Y-116634033D02*
X147609710Y-116578008D01*
X147609710Y-116578008D02*
X147497659Y-116521983D01*
X147497659Y-116521983D02*
X147441634Y-116465958D01*
X147441634Y-116465958D02*
X147385609Y-116353908D01*
X147385609Y-116353908D02*
X147385609Y-116241857D01*
X147385609Y-116241857D02*
X147441634Y-116129807D01*
X147441634Y-116129807D02*
X147497659Y-116073782D01*
X147497659Y-116073782D02*
X147609710Y-116017757D01*
X147609710Y-116017757D02*
X147889835Y-116017757D01*
X147889835Y-116017757D02*
X148057911Y-116073782D01*
X148506112Y-116858134D02*
X149066364Y-116858134D01*
X148394062Y-117194285D02*
X148786238Y-116017757D01*
X148786238Y-116017757D02*
X149178414Y-117194285D01*
X149290465Y-117306335D02*
X150186867Y-117306335D01*
X151139294Y-117082234D02*
X151083269Y-117138260D01*
X151083269Y-117138260D02*
X150915193Y-117194285D01*
X150915193Y-117194285D02*
X150803143Y-117194285D01*
X150803143Y-117194285D02*
X150635068Y-117138260D01*
X150635068Y-117138260D02*
X150523017Y-117026209D01*
X150523017Y-117026209D02*
X150466992Y-116914159D01*
X150466992Y-116914159D02*
X150410967Y-116690058D01*
X150410967Y-116690058D02*
X150410967Y-116521983D01*
X150410967Y-116521983D02*
X150466992Y-116297882D01*
X150466992Y-116297882D02*
X150523017Y-116185832D01*
X150523017Y-116185832D02*
X150635068Y-116073782D01*
X150635068Y-116073782D02*
X150803143Y-116017757D01*
X150803143Y-116017757D02*
X150915193Y-116017757D01*
X150915193Y-116017757D02*
X151083269Y-116073782D01*
X151083269Y-116073782D02*
X151139294Y-116129807D01*
X151867621Y-116017757D02*
X152091721Y-116017757D01*
X152091721Y-116017757D02*
X152203772Y-116073782D01*
X152203772Y-116073782D02*
X152315822Y-116185832D01*
X152315822Y-116185832D02*
X152371847Y-116409933D01*
X152371847Y-116409933D02*
X152371847Y-116802109D01*
X152371847Y-116802109D02*
X152315822Y-117026209D01*
X152315822Y-117026209D02*
X152203772Y-117138260D01*
X152203772Y-117138260D02*
X152091721Y-117194285D01*
X152091721Y-117194285D02*
X151867621Y-117194285D01*
X151867621Y-117194285D02*
X151755571Y-117138260D01*
X151755571Y-117138260D02*
X151643520Y-117026209D01*
X151643520Y-117026209D02*
X151587495Y-116802109D01*
X151587495Y-116802109D02*
X151587495Y-116409933D01*
X151587495Y-116409933D02*
X151643520Y-116185832D01*
X151643520Y-116185832D02*
X151755571Y-116073782D01*
X151755571Y-116073782D02*
X151867621Y-116017757D01*
X152876073Y-117194285D02*
X152876073Y-116017757D01*
X152876073Y-116017757D02*
X153548375Y-117194285D01*
X153548375Y-117194285D02*
X153548375Y-116017757D01*
X154052601Y-116129807D02*
X154108626Y-116073782D01*
X154108626Y-116073782D02*
X154220677Y-116017757D01*
X154220677Y-116017757D02*
X154500802Y-116017757D01*
X154500802Y-116017757D02*
X154612853Y-116073782D01*
X154612853Y-116073782D02*
X154668878Y-116129807D01*
X154668878Y-116129807D02*
X154724903Y-116241857D01*
X154724903Y-116241857D02*
X154724903Y-116353908D01*
X154724903Y-116353908D02*
X154668878Y-116521983D01*
X154668878Y-116521983D02*
X153996576Y-117194285D01*
X153996576Y-117194285D02*
X154724903Y-117194285D01*
%TO.C,AZUSA*%
X163874100Y-95408134D02*
X164434352Y-95408134D01*
X163762050Y-95744285D02*
X164154226Y-94567757D01*
X164154226Y-94567757D02*
X164546402Y-95744285D01*
X164826528Y-94567757D02*
X165610880Y-94567757D01*
X165610880Y-94567757D02*
X164826528Y-95744285D01*
X164826528Y-95744285D02*
X165610880Y-95744285D01*
X166059081Y-94567757D02*
X166059081Y-95520184D01*
X166059081Y-95520184D02*
X166115106Y-95632234D01*
X166115106Y-95632234D02*
X166171132Y-95688260D01*
X166171132Y-95688260D02*
X166283182Y-95744285D01*
X166283182Y-95744285D02*
X166507282Y-95744285D01*
X166507282Y-95744285D02*
X166619333Y-95688260D01*
X166619333Y-95688260D02*
X166675358Y-95632234D01*
X166675358Y-95632234D02*
X166731383Y-95520184D01*
X166731383Y-95520184D02*
X166731383Y-94567757D01*
X167235609Y-95688260D02*
X167403685Y-95744285D01*
X167403685Y-95744285D02*
X167683810Y-95744285D01*
X167683810Y-95744285D02*
X167795861Y-95688260D01*
X167795861Y-95688260D02*
X167851886Y-95632234D01*
X167851886Y-95632234D02*
X167907911Y-95520184D01*
X167907911Y-95520184D02*
X167907911Y-95408134D01*
X167907911Y-95408134D02*
X167851886Y-95296084D01*
X167851886Y-95296084D02*
X167795861Y-95240058D01*
X167795861Y-95240058D02*
X167683810Y-95184033D01*
X167683810Y-95184033D02*
X167459710Y-95128008D01*
X167459710Y-95128008D02*
X167347659Y-95071983D01*
X167347659Y-95071983D02*
X167291634Y-95015958D01*
X167291634Y-95015958D02*
X167235609Y-94903908D01*
X167235609Y-94903908D02*
X167235609Y-94791857D01*
X167235609Y-94791857D02*
X167291634Y-94679807D01*
X167291634Y-94679807D02*
X167347659Y-94623782D01*
X167347659Y-94623782D02*
X167459710Y-94567757D01*
X167459710Y-94567757D02*
X167739835Y-94567757D01*
X167739835Y-94567757D02*
X167907911Y-94623782D01*
X168356112Y-95408134D02*
X168916364Y-95408134D01*
X168244062Y-95744285D02*
X168636238Y-94567757D01*
X168636238Y-94567757D02*
X169028414Y-95744285D01*
%TO.C,AZUSA_CON1*%
X144024100Y-124908134D02*
X144584352Y-124908134D01*
X143912050Y-125244285D02*
X144304226Y-124067757D01*
X144304226Y-124067757D02*
X144696402Y-125244285D01*
X144976528Y-124067757D02*
X145760880Y-124067757D01*
X145760880Y-124067757D02*
X144976528Y-125244285D01*
X144976528Y-125244285D02*
X145760880Y-125244285D01*
X146209081Y-124067757D02*
X146209081Y-125020184D01*
X146209081Y-125020184D02*
X146265106Y-125132234D01*
X146265106Y-125132234D02*
X146321132Y-125188260D01*
X146321132Y-125188260D02*
X146433182Y-125244285D01*
X146433182Y-125244285D02*
X146657282Y-125244285D01*
X146657282Y-125244285D02*
X146769333Y-125188260D01*
X146769333Y-125188260D02*
X146825358Y-125132234D01*
X146825358Y-125132234D02*
X146881383Y-125020184D01*
X146881383Y-125020184D02*
X146881383Y-124067757D01*
X147385609Y-125188260D02*
X147553685Y-125244285D01*
X147553685Y-125244285D02*
X147833810Y-125244285D01*
X147833810Y-125244285D02*
X147945861Y-125188260D01*
X147945861Y-125188260D02*
X148001886Y-125132234D01*
X148001886Y-125132234D02*
X148057911Y-125020184D01*
X148057911Y-125020184D02*
X148057911Y-124908134D01*
X148057911Y-124908134D02*
X148001886Y-124796084D01*
X148001886Y-124796084D02*
X147945861Y-124740058D01*
X147945861Y-124740058D02*
X147833810Y-124684033D01*
X147833810Y-124684033D02*
X147609710Y-124628008D01*
X147609710Y-124628008D02*
X147497659Y-124571983D01*
X147497659Y-124571983D02*
X147441634Y-124515958D01*
X147441634Y-124515958D02*
X147385609Y-124403908D01*
X147385609Y-124403908D02*
X147385609Y-124291857D01*
X147385609Y-124291857D02*
X147441634Y-124179807D01*
X147441634Y-124179807D02*
X147497659Y-124123782D01*
X147497659Y-124123782D02*
X147609710Y-124067757D01*
X147609710Y-124067757D02*
X147889835Y-124067757D01*
X147889835Y-124067757D02*
X148057911Y-124123782D01*
X148506112Y-124908134D02*
X149066364Y-124908134D01*
X148394062Y-125244285D02*
X148786238Y-124067757D01*
X148786238Y-124067757D02*
X149178414Y-125244285D01*
X149290465Y-125356335D02*
X150186867Y-125356335D01*
X151139294Y-125132234D02*
X151083269Y-125188260D01*
X151083269Y-125188260D02*
X150915193Y-125244285D01*
X150915193Y-125244285D02*
X150803143Y-125244285D01*
X150803143Y-125244285D02*
X150635068Y-125188260D01*
X150635068Y-125188260D02*
X150523017Y-125076209D01*
X150523017Y-125076209D02*
X150466992Y-124964159D01*
X150466992Y-124964159D02*
X150410967Y-124740058D01*
X150410967Y-124740058D02*
X150410967Y-124571983D01*
X150410967Y-124571983D02*
X150466992Y-124347882D01*
X150466992Y-124347882D02*
X150523017Y-124235832D01*
X150523017Y-124235832D02*
X150635068Y-124123782D01*
X150635068Y-124123782D02*
X150803143Y-124067757D01*
X150803143Y-124067757D02*
X150915193Y-124067757D01*
X150915193Y-124067757D02*
X151083269Y-124123782D01*
X151083269Y-124123782D02*
X151139294Y-124179807D01*
X151867621Y-124067757D02*
X152091721Y-124067757D01*
X152091721Y-124067757D02*
X152203772Y-124123782D01*
X152203772Y-124123782D02*
X152315822Y-124235832D01*
X152315822Y-124235832D02*
X152371847Y-124459933D01*
X152371847Y-124459933D02*
X152371847Y-124852109D01*
X152371847Y-124852109D02*
X152315822Y-125076209D01*
X152315822Y-125076209D02*
X152203772Y-125188260D01*
X152203772Y-125188260D02*
X152091721Y-125244285D01*
X152091721Y-125244285D02*
X151867621Y-125244285D01*
X151867621Y-125244285D02*
X151755571Y-125188260D01*
X151755571Y-125188260D02*
X151643520Y-125076209D01*
X151643520Y-125076209D02*
X151587495Y-124852109D01*
X151587495Y-124852109D02*
X151587495Y-124459933D01*
X151587495Y-124459933D02*
X151643520Y-124235832D01*
X151643520Y-124235832D02*
X151755571Y-124123782D01*
X151755571Y-124123782D02*
X151867621Y-124067757D01*
X152876073Y-125244285D02*
X152876073Y-124067757D01*
X152876073Y-124067757D02*
X153548375Y-125244285D01*
X153548375Y-125244285D02*
X153548375Y-124067757D01*
X154724903Y-125244285D02*
X154052601Y-125244285D01*
X154388752Y-125244285D02*
X154388752Y-124067757D01*
X154388752Y-124067757D02*
X154276702Y-124235832D01*
X154276702Y-124235832D02*
X154164651Y-124347882D01*
X154164651Y-124347882D02*
X154052601Y-124403908D01*
%TO.C,SERVO1*%
X135174100Y-125188260D02*
X135342176Y-125244285D01*
X135342176Y-125244285D02*
X135622301Y-125244285D01*
X135622301Y-125244285D02*
X135734352Y-125188260D01*
X135734352Y-125188260D02*
X135790377Y-125132234D01*
X135790377Y-125132234D02*
X135846402Y-125020184D01*
X135846402Y-125020184D02*
X135846402Y-124908134D01*
X135846402Y-124908134D02*
X135790377Y-124796084D01*
X135790377Y-124796084D02*
X135734352Y-124740058D01*
X135734352Y-124740058D02*
X135622301Y-124684033D01*
X135622301Y-124684033D02*
X135398201Y-124628008D01*
X135398201Y-124628008D02*
X135286150Y-124571983D01*
X135286150Y-124571983D02*
X135230125Y-124515958D01*
X135230125Y-124515958D02*
X135174100Y-124403908D01*
X135174100Y-124403908D02*
X135174100Y-124291857D01*
X135174100Y-124291857D02*
X135230125Y-124179807D01*
X135230125Y-124179807D02*
X135286150Y-124123782D01*
X135286150Y-124123782D02*
X135398201Y-124067757D01*
X135398201Y-124067757D02*
X135678326Y-124067757D01*
X135678326Y-124067757D02*
X135846402Y-124123782D01*
X136350628Y-124628008D02*
X136742804Y-124628008D01*
X136910880Y-125244285D02*
X136350628Y-125244285D01*
X136350628Y-125244285D02*
X136350628Y-124067757D01*
X136350628Y-124067757D02*
X136910880Y-124067757D01*
X138087408Y-125244285D02*
X137695232Y-124684033D01*
X137415106Y-125244285D02*
X137415106Y-124067757D01*
X137415106Y-124067757D02*
X137863307Y-124067757D01*
X137863307Y-124067757D02*
X137975358Y-124123782D01*
X137975358Y-124123782D02*
X138031383Y-124179807D01*
X138031383Y-124179807D02*
X138087408Y-124291857D01*
X138087408Y-124291857D02*
X138087408Y-124459933D01*
X138087408Y-124459933D02*
X138031383Y-124571983D01*
X138031383Y-124571983D02*
X137975358Y-124628008D01*
X137975358Y-124628008D02*
X137863307Y-124684033D01*
X137863307Y-124684033D02*
X137415106Y-124684033D01*
X138423559Y-124067757D02*
X138815735Y-125244285D01*
X138815735Y-125244285D02*
X139207911Y-124067757D01*
X139824188Y-124067757D02*
X140048288Y-124067757D01*
X140048288Y-124067757D02*
X140160339Y-124123782D01*
X140160339Y-124123782D02*
X140272389Y-124235832D01*
X140272389Y-124235832D02*
X140328414Y-124459933D01*
X140328414Y-124459933D02*
X140328414Y-124852109D01*
X140328414Y-124852109D02*
X140272389Y-125076209D01*
X140272389Y-125076209D02*
X140160339Y-125188260D01*
X140160339Y-125188260D02*
X140048288Y-125244285D01*
X140048288Y-125244285D02*
X139824188Y-125244285D01*
X139824188Y-125244285D02*
X139712138Y-125188260D01*
X139712138Y-125188260D02*
X139600087Y-125076209D01*
X139600087Y-125076209D02*
X139544062Y-124852109D01*
X139544062Y-124852109D02*
X139544062Y-124459933D01*
X139544062Y-124459933D02*
X139600087Y-124235832D01*
X139600087Y-124235832D02*
X139712138Y-124123782D01*
X139712138Y-124123782D02*
X139824188Y-124067757D01*
X141448917Y-125244285D02*
X140776615Y-125244285D01*
X141112766Y-125244285D02*
X141112766Y-124067757D01*
X141112766Y-124067757D02*
X141000716Y-124235832D01*
X141000716Y-124235832D02*
X140888665Y-124347882D01*
X140888665Y-124347882D02*
X140776615Y-124403908D01*
%TO.C,SW1*%
X164774100Y-86388260D02*
X164942176Y-86444285D01*
X164942176Y-86444285D02*
X165222301Y-86444285D01*
X165222301Y-86444285D02*
X165334352Y-86388260D01*
X165334352Y-86388260D02*
X165390377Y-86332234D01*
X165390377Y-86332234D02*
X165446402Y-86220184D01*
X165446402Y-86220184D02*
X165446402Y-86108134D01*
X165446402Y-86108134D02*
X165390377Y-85996084D01*
X165390377Y-85996084D02*
X165334352Y-85940058D01*
X165334352Y-85940058D02*
X165222301Y-85884033D01*
X165222301Y-85884033D02*
X164998201Y-85828008D01*
X164998201Y-85828008D02*
X164886150Y-85771983D01*
X164886150Y-85771983D02*
X164830125Y-85715958D01*
X164830125Y-85715958D02*
X164774100Y-85603908D01*
X164774100Y-85603908D02*
X164774100Y-85491857D01*
X164774100Y-85491857D02*
X164830125Y-85379807D01*
X164830125Y-85379807D02*
X164886150Y-85323782D01*
X164886150Y-85323782D02*
X164998201Y-85267757D01*
X164998201Y-85267757D02*
X165278326Y-85267757D01*
X165278326Y-85267757D02*
X165446402Y-85323782D01*
X165838578Y-85267757D02*
X166118704Y-86444285D01*
X166118704Y-86444285D02*
X166342804Y-85603908D01*
X166342804Y-85603908D02*
X166566905Y-86444285D01*
X166566905Y-86444285D02*
X166847031Y-85267757D01*
X167911508Y-86444285D02*
X167239206Y-86444285D01*
X167575357Y-86444285D02*
X167575357Y-85267757D01*
X167575357Y-85267757D02*
X167463307Y-85435832D01*
X167463307Y-85435832D02*
X167351256Y-85547882D01*
X167351256Y-85547882D02*
X167239206Y-85603908D01*
D13*
%TO.C,C3*%
X158970170Y-96579371D02*
X158992228Y-96601428D01*
X158992228Y-96601428D02*
X159014285Y-96667600D01*
X159014285Y-96667600D02*
X159014285Y-96711714D01*
X159014285Y-96711714D02*
X158992228Y-96777885D01*
X158992228Y-96777885D02*
X158948113Y-96822000D01*
X158948113Y-96822000D02*
X158903999Y-96844057D01*
X158903999Y-96844057D02*
X158815770Y-96866114D01*
X158815770Y-96866114D02*
X158749599Y-96866114D01*
X158749599Y-96866114D02*
X158661370Y-96844057D01*
X158661370Y-96844057D02*
X158617256Y-96822000D01*
X158617256Y-96822000D02*
X158573142Y-96777885D01*
X158573142Y-96777885D02*
X158551085Y-96711714D01*
X158551085Y-96711714D02*
X158551085Y-96667600D01*
X158551085Y-96667600D02*
X158573142Y-96601428D01*
X158573142Y-96601428D02*
X158595199Y-96579371D01*
X158551085Y-96424971D02*
X158551085Y-96138228D01*
X158551085Y-96138228D02*
X158727542Y-96292628D01*
X158727542Y-96292628D02*
X158727542Y-96226457D01*
X158727542Y-96226457D02*
X158749599Y-96182343D01*
X158749599Y-96182343D02*
X158771656Y-96160285D01*
X158771656Y-96160285D02*
X158815770Y-96138228D01*
X158815770Y-96138228D02*
X158926056Y-96138228D01*
X158926056Y-96138228D02*
X158970170Y-96160285D01*
X158970170Y-96160285D02*
X158992228Y-96182343D01*
X158992228Y-96182343D02*
X159014285Y-96226457D01*
X159014285Y-96226457D02*
X159014285Y-96358800D01*
X159014285Y-96358800D02*
X158992228Y-96402914D01*
X158992228Y-96402914D02*
X158970170Y-96424971D01*
%TO.C,C1*%
X151220170Y-101729371D02*
X151242228Y-101751428D01*
X151242228Y-101751428D02*
X151264285Y-101817600D01*
X151264285Y-101817600D02*
X151264285Y-101861714D01*
X151264285Y-101861714D02*
X151242228Y-101927885D01*
X151242228Y-101927885D02*
X151198113Y-101972000D01*
X151198113Y-101972000D02*
X151153999Y-101994057D01*
X151153999Y-101994057D02*
X151065770Y-102016114D01*
X151065770Y-102016114D02*
X150999599Y-102016114D01*
X150999599Y-102016114D02*
X150911370Y-101994057D01*
X150911370Y-101994057D02*
X150867256Y-101972000D01*
X150867256Y-101972000D02*
X150823142Y-101927885D01*
X150823142Y-101927885D02*
X150801085Y-101861714D01*
X150801085Y-101861714D02*
X150801085Y-101817600D01*
X150801085Y-101817600D02*
X150823142Y-101751428D01*
X150823142Y-101751428D02*
X150845199Y-101729371D01*
X151264285Y-101288228D02*
X151264285Y-101552914D01*
X151264285Y-101420571D02*
X150801085Y-101420571D01*
X150801085Y-101420571D02*
X150867256Y-101464685D01*
X150867256Y-101464685D02*
X150911370Y-101508800D01*
X150911370Y-101508800D02*
X150933428Y-101552914D01*
%TO.C,C2*%
X157720170Y-96579371D02*
X157742228Y-96601428D01*
X157742228Y-96601428D02*
X157764285Y-96667600D01*
X157764285Y-96667600D02*
X157764285Y-96711714D01*
X157764285Y-96711714D02*
X157742228Y-96777885D01*
X157742228Y-96777885D02*
X157698113Y-96822000D01*
X157698113Y-96822000D02*
X157653999Y-96844057D01*
X157653999Y-96844057D02*
X157565770Y-96866114D01*
X157565770Y-96866114D02*
X157499599Y-96866114D01*
X157499599Y-96866114D02*
X157411370Y-96844057D01*
X157411370Y-96844057D02*
X157367256Y-96822000D01*
X157367256Y-96822000D02*
X157323142Y-96777885D01*
X157323142Y-96777885D02*
X157301085Y-96711714D01*
X157301085Y-96711714D02*
X157301085Y-96667600D01*
X157301085Y-96667600D02*
X157323142Y-96601428D01*
X157323142Y-96601428D02*
X157345199Y-96579371D01*
X157345199Y-96402914D02*
X157323142Y-96380857D01*
X157323142Y-96380857D02*
X157301085Y-96336743D01*
X157301085Y-96336743D02*
X157301085Y-96226457D01*
X157301085Y-96226457D02*
X157323142Y-96182343D01*
X157323142Y-96182343D02*
X157345199Y-96160285D01*
X157345199Y-96160285D02*
X157389313Y-96138228D01*
X157389313Y-96138228D02*
X157433428Y-96138228D01*
X157433428Y-96138228D02*
X157499599Y-96160285D01*
X157499599Y-96160285D02*
X157764285Y-96424971D01*
X157764285Y-96424971D02*
X157764285Y-96138228D01*
D15*
%TO.C,U$1*%
X152461100Y-105083600D02*
X152461100Y-101273600D01*
X153731100Y-105083600D02*
X152461100Y-105083600D01*
X153731100Y-105083600D02*
X156271100Y-105083600D01*
X156271100Y-105083600D02*
X156271100Y-94923600D01*
X152461100Y-101273600D02*
X153731100Y-101273600D01*
X153731100Y-101273600D02*
X153731100Y-105083600D01*
X152461100Y-98733600D02*
X152461100Y-101273600D01*
X152461100Y-98733600D02*
X152461100Y-94923600D01*
X153731100Y-98733600D02*
X153731100Y-101273600D01*
X153731100Y-98733600D02*
X152461100Y-98733600D01*
X152461100Y-94923600D02*
X153731100Y-94923600D01*
X153731100Y-94923600D02*
X153731100Y-98733600D01*
X156271100Y-94923600D02*
X153731100Y-94923600D01*
D16*
%TO.C,H3*%
X128701100Y-129003600D02*
G75*
G03*
X128701100Y-129003600I-1700000J0D01*
G01*
D17*
X130430100Y-129003600D02*
G75*
G03*
X130430100Y-129003600I-3429000J0D01*
G01*
D15*
%TO.C,LED*%
X163831100Y-117843600D02*
X163831100Y-130363600D01*
X159781100Y-117843600D02*
X163831100Y-117843600D01*
X159781100Y-117843600D02*
X159781100Y-118543600D01*
X158081100Y-117843600D02*
X158781100Y-117843600D01*
X163131100Y-118543600D02*
X163131100Y-129663600D01*
X161701100Y-118543600D02*
X163131100Y-118543600D01*
X161701100Y-118543600D02*
X161701100Y-129663600D01*
X159781100Y-118543600D02*
X161701100Y-118543600D01*
X158781100Y-119983600D02*
X158781100Y-117843600D01*
X158781100Y-119983600D02*
X158081100Y-119983600D01*
X158081100Y-119983600D02*
X158081100Y-117843600D01*
X158781100Y-121483600D02*
X158081100Y-121483600D01*
X158781100Y-126723600D02*
X158781100Y-121483600D01*
X158781100Y-126723600D02*
X158081100Y-126723600D01*
X158081100Y-126723600D02*
X158081100Y-121483600D01*
X158781100Y-128223600D02*
X158081100Y-128223600D01*
X158781100Y-128223600D02*
X158781100Y-130363600D01*
X158081100Y-128223600D02*
X158081100Y-130363600D01*
X163131100Y-129663600D02*
X161701100Y-129663600D01*
X161701100Y-129663600D02*
X159781100Y-129663600D01*
X159781100Y-129663600D02*
X159781100Y-130363600D01*
X163831100Y-130363600D02*
X159781100Y-130363600D01*
X158081100Y-130363600D02*
X158781100Y-130363600D01*
D16*
%TO.C,H1*%
X128701100Y-81003600D02*
G75*
G03*
X128701100Y-81003600I-1700000J0D01*
G01*
D17*
X130430100Y-81003600D02*
G75*
G03*
X130430100Y-81003600I-3429000J0D01*
G01*
D15*
%TO.C,SW2*%
X152541100Y-86743600D02*
X159981100Y-86743600D01*
X152541100Y-90793600D02*
X152541100Y-86743600D01*
X152541100Y-90793600D02*
X153241100Y-90793600D01*
X152541100Y-92493600D02*
X152541100Y-91793600D01*
X153241100Y-87443600D02*
X159281100Y-87443600D01*
X153241100Y-88873600D02*
X153241100Y-87443600D01*
X153241100Y-88873600D02*
X159281100Y-88873600D01*
X153241100Y-90793600D02*
X153241100Y-88873600D01*
X154681100Y-91793600D02*
X152541100Y-91793600D01*
X154681100Y-91793600D02*
X154681100Y-92493600D01*
X154681100Y-92493600D02*
X152541100Y-92493600D01*
X157841100Y-91793600D02*
X157841100Y-92493600D01*
X157841100Y-91793600D02*
X159981100Y-91793600D01*
X157841100Y-92493600D02*
X159981100Y-92493600D01*
X159281100Y-87443600D02*
X159281100Y-88873600D01*
X159281100Y-88873600D02*
X159281100Y-90793600D01*
X159281100Y-90793600D02*
X159981100Y-90793600D01*
X159981100Y-86743600D02*
X159981100Y-90793600D01*
X159981100Y-92493600D02*
X159981100Y-91793600D01*
D16*
%TO.C,H4*%
X171701100Y-129003600D02*
G75*
G03*
X171701100Y-129003600I-1700000J0D01*
G01*
D17*
X173430100Y-129003600D02*
G75*
G03*
X173430100Y-129003600I-3429000J0D01*
G01*
D18*
%TO.C,C5*%
X157753100Y-107130600D02*
X157423100Y-107130600D01*
X157423100Y-107130600D02*
X157423100Y-107280600D01*
X157753100Y-107280600D02*
X157753100Y-107130600D01*
X157753100Y-107280600D02*
X157423100Y-107280600D01*
X157423100Y-107280600D02*
X157423100Y-107610600D01*
X157753100Y-107610600D02*
X157753100Y-107280600D01*
X157423100Y-107610600D02*
X157753100Y-107610600D01*
X157423100Y-107610600D02*
X157423100Y-107760600D01*
X157753100Y-107760600D02*
X157753100Y-107610600D01*
X157423100Y-107760600D02*
X157753100Y-107760600D01*
D15*
%TO.C,Lipo_THRU*%
X118401100Y-107653600D02*
X133251100Y-107653600D01*
X118401100Y-107653600D02*
X118401100Y-86353600D01*
X135001100Y-107653600D02*
X139101100Y-107653600D01*
X139101100Y-107653600D02*
X139101100Y-86353600D01*
X145601100Y-104003600D02*
X145601100Y-103253600D01*
X136001100Y-103503600D02*
X136001100Y-101503600D01*
X137001100Y-103503600D02*
X136001100Y-103503600D01*
X136001100Y-101503600D02*
X137001100Y-101503600D01*
X137001100Y-101503600D02*
X137001100Y-103503600D01*
X145601100Y-101503600D02*
X145601100Y-92503600D01*
X136001100Y-92503600D02*
X136001100Y-90503600D01*
X137001100Y-92503600D02*
X136001100Y-92503600D01*
X145601100Y-90753600D02*
X145601100Y-90003600D01*
X136001100Y-90503600D02*
X137001100Y-90503600D01*
X137001100Y-90503600D02*
X137001100Y-92503600D01*
X118401100Y-86353600D02*
X133251100Y-86353600D01*
X135001100Y-86353600D02*
X139101100Y-86353600D01*
X139101099Y-107653596D02*
G75*
G03*
X145601100Y-104003600I-1764139J10754296D01*
G01*
X145601100Y-90003600D02*
G75*
G03*
X139101100Y-86353600I-8264143J-7104296D01*
G01*
D18*
%TO.C,C4*%
X151234100Y-106492600D02*
X150904100Y-106492600D01*
X150904100Y-106492600D02*
X150904100Y-106642600D01*
X151234100Y-106642600D02*
X151234100Y-106492600D01*
X151234100Y-106642600D02*
X150904100Y-106642600D01*
X150904100Y-106642600D02*
X150904100Y-106972600D01*
X151234100Y-106972600D02*
X151234100Y-106642600D01*
X150904100Y-106972600D02*
X151234100Y-106972600D01*
X150904100Y-106972600D02*
X150904100Y-107122600D01*
X151234100Y-107122600D02*
X151234100Y-106972600D01*
X150904100Y-107122600D02*
X151234100Y-107122600D01*
%TO.C,C6*%
X158944100Y-107130600D02*
X158614100Y-107130600D01*
X158614100Y-107130600D02*
X158614100Y-107280600D01*
X158944100Y-107280600D02*
X158944100Y-107130600D01*
X158944100Y-107280600D02*
X158614100Y-107280600D01*
X158614100Y-107280600D02*
X158614100Y-107610600D01*
X158944100Y-107610600D02*
X158944100Y-107280600D01*
X158614100Y-107610600D02*
X158944100Y-107610600D01*
X158614100Y-107610600D02*
X158614100Y-107760600D01*
X158944100Y-107760600D02*
X158944100Y-107610600D01*
X158614100Y-107760600D02*
X158944100Y-107760600D01*
D15*
%TO.C,SERVO2*%
X133011100Y-117603600D02*
X142991100Y-117603600D01*
X133011100Y-121653600D02*
X133011100Y-117603600D01*
X133011100Y-121653600D02*
X133711100Y-121653600D01*
X133011100Y-123353600D02*
X133011100Y-122653600D01*
X133711100Y-118303600D02*
X142291100Y-118303600D01*
X133711100Y-119733600D02*
X133711100Y-118303600D01*
X133711100Y-119733600D02*
X142291100Y-119733600D01*
X133711100Y-121653600D02*
X133711100Y-119733600D01*
X135151100Y-122653600D02*
X133011100Y-122653600D01*
X135151100Y-122653600D02*
X135151100Y-123353600D01*
X135151100Y-123353600D02*
X133011100Y-123353600D01*
X136651100Y-122653600D02*
X136651100Y-123353600D01*
X139351100Y-122653600D02*
X136651100Y-122653600D01*
X139351100Y-122653600D02*
X139351100Y-123353600D01*
X139351100Y-123353600D02*
X136651100Y-123353600D01*
X140851100Y-122653600D02*
X140851100Y-123353600D01*
X140851100Y-122653600D02*
X142991100Y-122653600D01*
X140851100Y-123353600D02*
X142991100Y-123353600D01*
X142291100Y-118303600D02*
X142291100Y-119733600D01*
X142291100Y-119733600D02*
X142291100Y-121653600D01*
X142291100Y-121653600D02*
X142991100Y-121653600D01*
X142991100Y-117603600D02*
X142991100Y-121653600D01*
X142991100Y-123353600D02*
X142991100Y-122653600D01*
%TO.C,AZUSA_CON2*%
X145281100Y-117603600D02*
X152721100Y-117603600D01*
X145281100Y-121653600D02*
X145281100Y-117603600D01*
X145281100Y-121653600D02*
X145981100Y-121653600D01*
X145281100Y-123353600D02*
X145281100Y-122653600D01*
X145981100Y-118303600D02*
X152021100Y-118303600D01*
X145981100Y-119733600D02*
X145981100Y-118303600D01*
X145981100Y-119733600D02*
X152021100Y-119733600D01*
X145981100Y-121653600D02*
X145981100Y-119733600D01*
X147421100Y-122653600D02*
X145281100Y-122653600D01*
X147421100Y-122653600D02*
X147421100Y-123353600D01*
X147421100Y-123353600D02*
X145281100Y-123353600D01*
X150581100Y-122653600D02*
X150581100Y-123353600D01*
X150581100Y-122653600D02*
X152721100Y-122653600D01*
X150581100Y-123353600D02*
X152721100Y-123353600D01*
X152021100Y-118303600D02*
X152021100Y-119733600D01*
X152021100Y-119733600D02*
X152021100Y-121653600D01*
X152021100Y-121653600D02*
X152721100Y-121653600D01*
X152721100Y-117603600D02*
X152721100Y-121653600D01*
X152721100Y-123353600D02*
X152721100Y-122653600D01*
%TO.C,AZUSA*%
X162701100Y-96173600D02*
X170141100Y-96173600D01*
X162701100Y-100223600D02*
X162701100Y-96173600D01*
X162701100Y-100223600D02*
X163401100Y-100223600D01*
X162701100Y-101923600D02*
X162701100Y-101223600D01*
X163401100Y-96873600D02*
X169441100Y-96873600D01*
X163401100Y-98303600D02*
X163401100Y-96873600D01*
X163401100Y-98303600D02*
X169441100Y-98303600D01*
X163401100Y-100223600D02*
X163401100Y-98303600D01*
X164841100Y-101223600D02*
X162701100Y-101223600D01*
X164841100Y-101223600D02*
X164841100Y-101923600D01*
X164841100Y-101923600D02*
X162701100Y-101923600D01*
X168001100Y-101223600D02*
X168001100Y-101923600D01*
X168001100Y-101223600D02*
X170141100Y-101223600D01*
X168001100Y-101923600D02*
X170141100Y-101923600D01*
X169441100Y-96873600D02*
X169441100Y-98303600D01*
X169441100Y-98303600D02*
X169441100Y-100223600D01*
X169441100Y-100223600D02*
X170141100Y-100223600D01*
X170141100Y-96173600D02*
X170141100Y-100223600D01*
X170141100Y-101923600D02*
X170141100Y-101223600D01*
D10*
%TO.C,LED_SW0*%
X160901100Y-110003600D02*
X160901100Y-114003600D01*
X160901100Y-114003600D02*
X171101100Y-114003600D01*
X162501100Y-111203600D02*
X162501100Y-112803600D01*
X162501100Y-112803600D02*
X164501100Y-112803600D01*
X164501100Y-111203600D02*
X162501100Y-111203600D01*
X164501100Y-112803600D02*
X169501100Y-112803600D01*
X169501100Y-111203600D02*
X164501100Y-111203600D01*
X169501100Y-112803600D02*
X169501100Y-111203600D01*
X171101100Y-110003600D02*
X160901100Y-110003600D01*
X171101100Y-114003600D02*
X171101100Y-110003600D01*
G36*
X164271100Y-112653600D02*
G01*
X162651100Y-112653600D01*
X162651100Y-111353600D01*
X164271100Y-111353600D01*
X164271100Y-112653600D01*
G37*
D15*
%TO.C,AZUSA_CON1*%
X145281100Y-125603600D02*
X152721100Y-125603600D01*
X145281100Y-129653600D02*
X145281100Y-125603600D01*
X145281100Y-129653600D02*
X145981100Y-129653600D01*
X145281100Y-131353600D02*
X145281100Y-130653600D01*
X145981100Y-126303600D02*
X152021100Y-126303600D01*
X145981100Y-127733600D02*
X145981100Y-126303600D01*
X145981100Y-127733600D02*
X152021100Y-127733600D01*
X145981100Y-129653600D02*
X145981100Y-127733600D01*
X147421100Y-130653600D02*
X145281100Y-130653600D01*
X147421100Y-130653600D02*
X147421100Y-131353600D01*
X147421100Y-131353600D02*
X145281100Y-131353600D01*
X150581100Y-130653600D02*
X150581100Y-131353600D01*
X150581100Y-130653600D02*
X152721100Y-130653600D01*
X150581100Y-131353600D02*
X152721100Y-131353600D01*
X152021100Y-126303600D02*
X152021100Y-127733600D01*
X152021100Y-127733600D02*
X152021100Y-129653600D01*
X152021100Y-129653600D02*
X152721100Y-129653600D01*
X152721100Y-125603600D02*
X152721100Y-129653600D01*
X152721100Y-131353600D02*
X152721100Y-130653600D01*
D16*
%TO.C,H2*%
X171701100Y-81003600D02*
G75*
G03*
X171701100Y-81003600I-1700000J0D01*
G01*
D17*
X173430100Y-81003600D02*
G75*
G03*
X173430100Y-81003600I-3429000J0D01*
G01*
D15*
%TO.C,SERVO1*%
X133011100Y-125603600D02*
X142991100Y-125603600D01*
X133011100Y-129653600D02*
X133011100Y-125603600D01*
X133011100Y-129653600D02*
X133711100Y-129653600D01*
X133011100Y-131353600D02*
X133011100Y-130653600D01*
X133711100Y-126303600D02*
X142291100Y-126303600D01*
X133711100Y-127733600D02*
X133711100Y-126303600D01*
X133711100Y-127733600D02*
X142291100Y-127733600D01*
X133711100Y-129653600D02*
X133711100Y-127733600D01*
X135151100Y-130653600D02*
X133011100Y-130653600D01*
X135151100Y-130653600D02*
X135151100Y-131353600D01*
X135151100Y-131353600D02*
X133011100Y-131353600D01*
X136651100Y-130653600D02*
X136651100Y-131353600D01*
X139351100Y-130653600D02*
X136651100Y-130653600D01*
X139351100Y-130653600D02*
X139351100Y-131353600D01*
X139351100Y-131353600D02*
X136651100Y-131353600D01*
X140851100Y-130653600D02*
X140851100Y-131353600D01*
X140851100Y-130653600D02*
X142991100Y-130653600D01*
X140851100Y-131353600D02*
X142991100Y-131353600D01*
X142291100Y-126303600D02*
X142291100Y-127733600D01*
X142291100Y-127733600D02*
X142291100Y-129653600D01*
X142291100Y-129653600D02*
X142991100Y-129653600D01*
X142991100Y-125603600D02*
X142991100Y-129653600D01*
X142991100Y-131353600D02*
X142991100Y-130653600D01*
%TO.C,SW1*%
X162701100Y-86743600D02*
X170141100Y-86743600D01*
X162701100Y-90793600D02*
X162701100Y-86743600D01*
X162701100Y-90793600D02*
X163401100Y-90793600D01*
X162701100Y-92493600D02*
X162701100Y-91793600D01*
X163401100Y-87443600D02*
X169441100Y-87443600D01*
X163401100Y-88873600D02*
X163401100Y-87443600D01*
X163401100Y-88873600D02*
X169441100Y-88873600D01*
X163401100Y-90793600D02*
X163401100Y-88873600D01*
X164841100Y-91793600D02*
X162701100Y-91793600D01*
X164841100Y-91793600D02*
X164841100Y-92493600D01*
X164841100Y-92493600D02*
X162701100Y-92493600D01*
X168001100Y-91793600D02*
X168001100Y-92493600D01*
X168001100Y-91793600D02*
X170141100Y-91793600D01*
X168001100Y-92493600D02*
X170141100Y-92493600D01*
X169441100Y-87443600D02*
X169441100Y-88873600D01*
X169441100Y-88873600D02*
X169441100Y-90793600D01*
X169441100Y-90793600D02*
X170141100Y-90793600D01*
X170141100Y-86743600D02*
X170141100Y-90793600D01*
X170141100Y-92493600D02*
X170141100Y-91793600D01*
D18*
%TO.C,C3*%
X158944100Y-97362600D02*
X158614100Y-97362600D01*
X158614100Y-97362600D02*
X158614100Y-97512600D01*
X158944100Y-97512600D02*
X158944100Y-97362600D01*
X158944100Y-97512600D02*
X158614100Y-97512600D01*
X158614100Y-97512600D02*
X158614100Y-97842600D01*
X158944100Y-97842600D02*
X158944100Y-97512600D01*
X158614100Y-97842600D02*
X158944100Y-97842600D01*
X158614100Y-97842600D02*
X158614100Y-97992600D01*
X158944100Y-97992600D02*
X158944100Y-97842600D01*
X158614100Y-97992600D02*
X158944100Y-97992600D01*
%TO.C,C1*%
X151234100Y-102531600D02*
X150904100Y-102531600D01*
X150904100Y-102531600D02*
X150904100Y-102681600D01*
X151234100Y-102681600D02*
X151234100Y-102531600D01*
X151234100Y-102681600D02*
X150904100Y-102681600D01*
X150904100Y-102681600D02*
X150904100Y-103011600D01*
X151234100Y-103011600D02*
X151234100Y-102681600D01*
X150904100Y-103011600D02*
X151234100Y-103011600D01*
X150904100Y-103011600D02*
X150904100Y-103161600D01*
X151234100Y-103161600D02*
X151234100Y-103011600D01*
X150904100Y-103161600D02*
X151234100Y-103161600D01*
%TO.C,C2*%
X157753100Y-97362600D02*
X157423100Y-97362600D01*
X157423100Y-97362600D02*
X157423100Y-97512600D01*
X157753100Y-97512600D02*
X157753100Y-97362600D01*
X157753100Y-97512600D02*
X157423100Y-97512600D01*
X157423100Y-97512600D02*
X157423100Y-97842600D01*
X157753100Y-97842600D02*
X157753100Y-97512600D01*
X157423100Y-97842600D02*
X157753100Y-97842600D01*
X157423100Y-97842600D02*
X157423100Y-97992600D01*
X157753100Y-97992600D02*
X157753100Y-97842600D01*
X157423100Y-97992600D02*
X157753100Y-97992600D01*
%TD*%
M02*
