M48
; DRILL file {KiCad 7.0.1} date Sun Sep 17 13:04:22 2023
; FORMAT={-:-/ absolute / inch / decimal}
; #@! TF.CreationDate,2023-09-17T13:04:22+09:00
; #@! TF.GenerationSoftware,Kicad,Pcbnew,7.0.1
; #@! TF.FileFunction,Plated,1,2,PTH
FMAT,2
INCH
; #@! TA.AperFunction,Plated,PTH,ViaDrill
T1C0.0138
; #@! TA.AperFunction,Plated,PTH,ComponentDrill
T2C0.0320
; #@! TA.AperFunction,Plated,PTH,ComponentDrill
T3C0.0394
; #@! TA.AperFunction,Plated,PTH,ComponentDrill
T4C0.0400
%
G90
G05
T1
X5.203Y-3.8238
X5.303Y-4.8038
X5.503Y-3.6738
X5.5709Y-3.252
X6.153Y-3.8288
X6.288Y-4.7838
X6.478Y-3.7538
X6.498Y-3.3438
T2
X6.153Y-4.8088
X6.153Y-4.9088
T3
X5.303Y-4.9088
X5.403Y-4.9088
X6.353Y-4.9088
X6.453Y-4.9088
T4
X5.053Y-3.3088
X5.053Y-3.4088
X5.053Y-3.5088
X5.053Y-3.6088
X5.053Y-3.7088
X5.053Y-3.8088
X5.053Y-3.9088
X5.053Y-4.0088
X5.053Y-4.1088
X5.053Y-4.2088
X5.053Y-4.3088
X5.053Y-4.4088
X5.053Y-4.5088
X5.053Y-4.6088
X5.653Y-3.3088
X5.653Y-3.4088
X5.653Y-3.5088
X5.653Y-3.6088
X5.653Y-3.7088
X5.653Y-3.8088
X5.653Y-3.9088
X5.653Y-4.0088
X5.653Y-4.1088
X5.653Y-4.2088
X5.653Y-4.3088
X5.653Y-4.4088
X5.653Y-4.5088
X5.653Y-4.6088
X6.003Y-3.3088
X6.003Y-3.4088
X6.003Y-3.5088
X6.003Y-3.6088
X6.003Y-3.7088
X6.003Y-3.8088
X6.003Y-3.9088
X6.003Y-4.0088
X6.003Y-4.1088
X6.003Y-4.2088
X6.003Y-4.3088
X6.003Y-4.4088
X6.003Y-4.5088
X6.003Y-4.6088
X6.603Y-3.3088
X6.603Y-3.4088
X6.603Y-3.5088
X6.603Y-3.6088
X6.603Y-3.7088
X6.603Y-3.8088
X6.603Y-3.9088
X6.603Y-4.0088
X6.603Y-4.1088
X6.603Y-4.2088
X6.603Y-4.3088
X6.603Y-4.4088
X6.603Y-4.5088
X6.603Y-4.6088
T0
M30
