%TF.GenerationSoftware,KiCad,Pcbnew,7.0.1*%
%TF.CreationDate,2023-09-17T13:04:26+09:00*%
%TF.ProjectId,remote emergency switch,72656d6f-7465-4206-956d-657267656e63,rev?*%
%TF.SameCoordinates,Original*%
%TF.FileFunction,Soldermask,Top*%
%TF.FilePolarity,Negative*%
%FSLAX46Y46*%
G04 Gerber Fmt 4.6, Leading zero omitted, Abs format (unit mm)*
G04 Created by KiCad (PCBNEW 7.0.1) date 2023-09-17 13:04:26*
%MOMM*%
%LPD*%
G01*
G04 APERTURE LIST*
G04 Aperture macros list*
%AMRoundRect*
0 Rectangle with rounded corners*
0 $1 Rounding radius*
0 $2 $3 $4 $5 $6 $7 $8 $9 X,Y pos of 4 corners*
0 Add a 4 corners polygon primitive as box body*
4,1,4,$2,$3,$4,$5,$6,$7,$8,$9,$2,$3,0*
0 Add four circle primitives for the rounded corners*
1,1,$1+$1,$2,$3*
1,1,$1+$1,$4,$5*
1,1,$1+$1,$6,$7*
1,1,$1+$1,$8,$9*
0 Add four rect primitives between the rounded corners*
20,1,$1+$1,$2,$3,$4,$5,0*
20,1,$1+$1,$4,$5,$6,$7,0*
20,1,$1+$1,$6,$7,$8,$9,0*
20,1,$1+$1,$8,$9,$2,$3,0*%
%AMFreePoly0*
4,1,25,0.312428,0.754266,0.345389,0.732242,0.732242,0.345389,0.754266,0.312428,0.762000,0.273547,0.762000,-0.273547,0.754266,-0.312428,0.732242,-0.345389,0.345389,-0.732242,0.312428,-0.754266,0.273547,-0.762000,-0.273547,-0.762000,-0.312428,-0.754266,-0.345389,-0.732242,-0.732242,-0.345389,-0.754266,-0.312428,-0.762000,-0.273547,-0.762000,0.273547,-0.754266,0.312428,-0.732242,0.345389,
-0.345389,0.732242,-0.312428,0.754266,-0.273547,0.762000,0.273547,0.762000,0.312428,0.754266,0.312428,0.754266,$1*%
G04 Aperture macros list end*
%ADD10O,1.000000X6.000000*%
%ADD11C,3.200000*%
%ADD12RoundRect,0.101600X-0.175000X-0.200000X0.175000X-0.200000X0.175000X0.200000X-0.175000X0.200000X0*%
%ADD13RoundRect,0.101600X-0.754000X-0.754000X0.754000X-0.754000X0.754000X0.754000X-0.754000X0.754000X0*%
%ADD14C,1.711200*%
%ADD15O,3.251200X1.727200*%
%ADD16RoundRect,0.101600X0.600000X-1.100000X0.600000X1.100000X-0.600000X1.100000X-0.600000X-1.100000X0*%
%ADD17RoundRect,0.101600X-1.750000X-1.100000X1.750000X-1.100000X1.750000X1.100000X-1.750000X1.100000X0*%
%ADD18FreePoly0,270.000000*%
%ADD19O,1.000000X19.500000*%
%ADD20RoundRect,0.101600X-0.250000X1.150000X-0.250000X-1.150000X0.250000X-1.150000X0.250000X1.150000X0*%
%ADD21RoundRect,0.101600X1.000000X1.250000X-1.000000X1.250000X-1.000000X-1.250000X1.000000X-1.250000X0*%
G04 APERTURE END LIST*
D10*
%TO.C,*%
X148000000Y-87743600D03*
%TD*%
D11*
%TO.C,H3*%
X135966100Y-114523600D03*
%TD*%
D12*
%TO.C,C3*%
X135641100Y-108935600D03*
X136291100Y-108935600D03*
%TD*%
D13*
%TO.C,EME1*%
X137236100Y-124683600D03*
D14*
X134696100Y-124683600D03*
%TD*%
D15*
%TO.C,TWE_RIGHT2*%
X167716100Y-84043600D03*
X167716100Y-86583600D03*
X167716100Y-89123600D03*
X167716100Y-91663600D03*
X167716100Y-94203600D03*
X167716100Y-96743600D03*
X167716100Y-99283600D03*
X167716100Y-101823600D03*
X167716100Y-104363600D03*
X167716100Y-106903600D03*
X167716100Y-109443600D03*
X167716100Y-111983600D03*
X167716100Y-114523600D03*
X167716100Y-117063600D03*
%TD*%
D16*
%TO.C,REGYURETA0*%
X133616100Y-103653600D03*
X138316100Y-103653600D03*
X135966100Y-103653600D03*
D17*
X135966100Y-97453600D03*
%TD*%
D12*
%TO.C,C4*%
X135641100Y-106395600D03*
X136291100Y-106395600D03*
%TD*%
D13*
%TO.C,CELL_SUPPLY0*%
X163906100Y-124683600D03*
D14*
X161366100Y-124683600D03*
%TD*%
D15*
%TO.C,TWE_LEFT2*%
X152476100Y-84043600D03*
X152476100Y-86583600D03*
X152476100Y-89123600D03*
X152476100Y-91663600D03*
X152476100Y-94203600D03*
X152476100Y-96743600D03*
X152476100Y-99283600D03*
X152476100Y-101823600D03*
X152476100Y-104363600D03*
X152476100Y-106903600D03*
X152476100Y-109443600D03*
X152476100Y-111983600D03*
X152476100Y-114523600D03*
X152476100Y-117063600D03*
%TD*%
D10*
%TO.C,*%
X148000000Y-122263600D03*
%TD*%
D11*
%TO.C,H2*%
X160096100Y-113253600D03*
%TD*%
%TO.C,H1*%
X160096100Y-85694600D03*
%TD*%
D15*
%TO.C,TWE_RIGHT1*%
X143586100Y-84043600D03*
X143586100Y-86583600D03*
X143586100Y-89123600D03*
X143586100Y-91663600D03*
X143586100Y-94203600D03*
X143586100Y-96743600D03*
X143586100Y-99283600D03*
X143586100Y-101823600D03*
X143586100Y-104363600D03*
X143586100Y-106903600D03*
X143586100Y-109443600D03*
X143586100Y-111983600D03*
X143586100Y-114523600D03*
X143586100Y-117063600D03*
%TD*%
D12*
%TO.C,C1*%
X138181100Y-106395600D03*
X138831100Y-106395600D03*
%TD*%
D18*
%TO.C,C5*%
X156286100Y-122143600D03*
X156286100Y-124683600D03*
%TD*%
D19*
%TO.C,*%
X148000000Y-104993600D03*
%TD*%
D20*
%TO.C,DEVICE0*%
X135966100Y-90623600D03*
X136766100Y-90623600D03*
X134366100Y-90623600D03*
X135166100Y-90623600D03*
D21*
X140416100Y-90603600D03*
X140416100Y-85103600D03*
X131516100Y-90603600D03*
X131516100Y-85103600D03*
D20*
X137566100Y-90623600D03*
%TD*%
D15*
%TO.C,TWE_LEFT1*%
X128346100Y-84043600D03*
X128346100Y-86583600D03*
X128346100Y-89123600D03*
X128346100Y-91663600D03*
X128346100Y-94203600D03*
X128346100Y-96743600D03*
X128346100Y-99283600D03*
X128346100Y-101823600D03*
X128346100Y-104363600D03*
X128346100Y-106903600D03*
X128346100Y-109443600D03*
X128346100Y-111983600D03*
X128346100Y-114523600D03*
X128346100Y-117063600D03*
%TD*%
D12*
%TO.C,C2*%
X138181100Y-108935600D03*
X138831100Y-108935600D03*
%TD*%
M02*
