M48
; DRILL file {KiCad 7.0.1} date Fri Sep 15 15:11:20 2023
; FORMAT={-:-/ absolute / inch / decimal}
; #@! TF.CreationDate,2023-09-15T15:11:20+09:00
; #@! TF.GenerationSoftware,Kicad,Pcbnew,7.0.1
; #@! TF.FileFunction,NonPlated,1,2,NPTH
FMAT,2
INCH
; #@! TA.AperFunction,NonPlated,NPTH,ComponentDrill
T1C0.0035
; #@! TA.AperFunction,NonPlated,NPTH,ComponentDrill
T2C0.0039
; #@! TA.AperFunction,NonPlated,NPTH,ComponentDrill
T3C0.1260
%
G90
G05
T1
X5.8268Y-3.2571
T2
X5.7402Y-3.1591
X5.7402Y-5.1079
X5.7437Y-3.1602
X5.7437Y-5.1071
X5.7472Y-3.1614
X5.7472Y-5.1059
X5.7508Y-3.1626
X5.7508Y-5.1047
X5.7543Y-3.1638
X5.7543Y-5.1035
X5.7579Y-3.1654
X5.7579Y-5.102
X5.7614Y-3.1669
X5.7614Y-5.1004
X5.765Y-3.1685
X5.765Y-5.0988
X5.7681Y-3.1705
X5.7681Y-5.0969
X5.7713Y-3.1724
X5.7713Y-5.0949
X5.7744Y-3.1744
X5.7744Y-5.0929
X5.7776Y-3.1764
X5.7776Y-5.0909
X5.7807Y-3.1787
X5.7807Y-5.0886
X5.7839Y-3.1811
X5.7839Y-5.0862
X5.787Y-3.1835
X5.787Y-5.0839
X5.7902Y-3.1862
X5.7902Y-5.0811
X5.7929Y-3.1886
X5.7929Y-5.0787
X5.7957Y-3.1913
X5.7957Y-5.076
X5.798Y-3.1941
X5.798Y-5.0732
X5.8008Y-3.1969
X5.8008Y-5.0705
X5.8031Y-3.1996
X5.8031Y-5.0677
X5.8055Y-3.2028
X5.8055Y-5.0646
X5.8079Y-3.2059
X5.8079Y-5.0614
X5.8102Y-3.2091
X5.8102Y-5.0583
X5.8122Y-3.2126
X5.8122Y-5.0547
X5.8142Y-3.2157
X5.8142Y-5.0516
X5.8161Y-3.2193
X5.8161Y-5.048
X5.8181Y-3.2228
X5.8181Y-5.0445
X5.8197Y-3.2264
X5.8197Y-5.0409
X5.8213Y-3.2299
X5.8213Y-5.0374
X5.8224Y-3.2335
X5.8224Y-5.0339
X5.8236Y-3.237
X5.8236Y-5.0303
X5.8248Y-3.2406
X5.8248Y-5.0268
X5.826Y-3.2441
X5.826Y-5.0232
X5.8268Y-3.2476
X5.8268Y-3.25
X5.8268Y-3.2531
X5.8268Y-3.3583
X5.8268Y-4.752
X5.8268Y-5.013
X5.8268Y-5.0154
X5.8268Y-5.0193
X5.8283Y-3.2413
X5.8283Y-5.026
X5.8295Y-3.2378
X5.8295Y-5.0295
X5.8307Y-3.2343
X5.8307Y-5.0331
X5.8323Y-3.2307
X5.8323Y-5.0366
X5.8339Y-3.2272
X5.8339Y-5.0402
X5.8354Y-3.2236
X5.8354Y-5.0437
X5.837Y-3.2201
X5.837Y-5.0472
X5.839Y-3.2169
X5.839Y-5.0504
X5.8406Y-3.2138
X5.8406Y-5.0535
X5.8425Y-3.2106
X5.8425Y-5.0567
X5.8445Y-3.2075
X5.8445Y-5.0598
X5.8469Y-3.2043
X5.8469Y-5.063
X5.8492Y-3.2016
X5.8492Y-5.0657
X5.8516Y-3.1984
X5.8516Y-5.0689
X5.8539Y-3.1957
X5.8539Y-5.0717
X5.8567Y-3.1929
X5.8567Y-5.0744
X5.8594Y-3.1902
X5.8594Y-5.0772
X5.8622Y-3.1874
X5.8622Y-5.0799
X5.865Y-3.185
X5.865Y-5.0823
X5.8677Y-3.1827
X5.8677Y-5.0846
X5.8705Y-3.1803
X5.8705Y-5.087
X5.8736Y-3.1783
X5.8736Y-5.089
X5.8764Y-3.176
X5.8764Y-5.0913
X5.8795Y-3.174
X5.8795Y-5.0933
X5.8827Y-3.172
X5.8827Y-5.0953
X5.8858Y-3.1701
X5.8858Y-5.0972
X5.8894Y-3.1685
X5.8894Y-5.0988
X5.8929Y-3.1669
X5.8929Y-5.1004
X5.8961Y-3.1654
X5.8961Y-5.102
X5.8992Y-3.1638
X5.8992Y-5.1035
X5.9028Y-3.1626
X5.9028Y-5.1047
X5.9063Y-3.1614
X5.9063Y-5.1059
X5.9098Y-3.1598
X5.9098Y-5.1067
X5.9134Y-3.1591
X5.9134Y-5.1079
T3
X5.353Y-4.5088
X6.303Y-3.3738
X6.303Y-4.4588
T2
G00X5.8268Y-3.2539
M15
G01X5.8268Y-3.3484
M16
G05
G00X5.8268Y-3.3681
M15
G01X5.8268Y-4.7421
M16
G05
G00X5.8268Y-4.7618
M15
G01X5.8268Y-5.0098
M16
G05
T0
M30
