%TF.GenerationSoftware,KiCad,Pcbnew,7.0.1*%
%TF.CreationDate,2023-09-17T13:04:26+09:00*%
%TF.ProjectId,remote emergency switch,72656d6f-7465-4206-956d-657267656e63,rev?*%
%TF.SameCoordinates,Original*%
%TF.FileFunction,Copper,L2,Bot*%
%TF.FilePolarity,Positive*%
%FSLAX46Y46*%
G04 Gerber Fmt 4.6, Leading zero omitted, Abs format (unit mm)*
G04 Created by KiCad (PCBNEW 7.0.1) date 2023-09-17 13:04:26*
%MOMM*%
%LPD*%
G01*
G04 APERTURE LIST*
G04 Aperture macros list*
%AMOutline5P*
0 Free polygon, 5 corners , with rotation*
0 The origin of the aperture is its center*
0 number of corners: always 5*
0 $1 to $10 corner X, Y*
0 $11 Rotation angle, in degrees counterclockwise*
0 create outline with 5 corners*
4,1,5,$1,$2,$3,$4,$5,$6,$7,$8,$9,$10,$1,$2,$11*%
%AMOutline6P*
0 Free polygon, 6 corners , with rotation*
0 The origin of the aperture is its center*
0 number of corners: always 6*
0 $1 to $12 corner X, Y*
0 $13 Rotation angle, in degrees counterclockwise*
0 create outline with 6 corners*
4,1,6,$1,$2,$3,$4,$5,$6,$7,$8,$9,$10,$11,$12,$1,$2,$13*%
%AMOutline7P*
0 Free polygon, 7 corners , with rotation*
0 The origin of the aperture is its center*
0 number of corners: always 7*
0 $1 to $14 corner X, Y*
0 $15 Rotation angle, in degrees counterclockwise*
0 create outline with 7 corners*
4,1,7,$1,$2,$3,$4,$5,$6,$7,$8,$9,$10,$11,$12,$13,$14,$1,$2,$15*%
%AMOutline8P*
0 Free polygon, 8 corners , with rotation*
0 The origin of the aperture is its center*
0 number of corners: always 8*
0 $1 to $16 corner X, Y*
0 $17 Rotation angle, in degrees counterclockwise*
0 create outline with 8 corners*
4,1,8,$1,$2,$3,$4,$5,$6,$7,$8,$9,$10,$11,$12,$13,$14,$15,$16,$1,$2,$17*%
G04 Aperture macros list end*
%TA.AperFunction,ComponentPad*%
%ADD10R,1.508000X1.508000*%
%TD*%
%TA.AperFunction,ComponentPad*%
%ADD11C,1.508000*%
%TD*%
%TA.AperFunction,ComponentPad*%
%ADD12O,3.048000X1.524000*%
%TD*%
%TA.AperFunction,ComponentPad*%
%ADD13Outline8P,-0.660400X0.273547X-0.273547X0.660400X0.273547X0.660400X0.660400X0.273547X0.660400X-0.273547X0.273547X-0.660400X-0.273547X-0.660400X-0.660400X-0.273547X270.000000*%
%TD*%
%TA.AperFunction,ViaPad*%
%ADD14C,0.756400*%
%TD*%
G04 APERTURE END LIST*
D10*
%TO.P,EME1,1*%
%TO.N,SGND*%
X137236100Y-124683600D03*
D11*
%TO.P,EME1,2*%
%TO.N,EM1*%
X134696100Y-124683600D03*
%TD*%
D12*
%TO.P,TWE_RIGHT2,1*%
%TO.N,+3V3*%
X167716100Y-84043600D03*
%TO.P,TWE_RIGHT2,2*%
%TO.N,N/C*%
X167716100Y-86583600D03*
%TO.P,TWE_RIGHT2,3*%
X167716100Y-89123600D03*
%TO.P,TWE_RIGHT2,4*%
X167716100Y-91663600D03*
%TO.P,TWE_RIGHT2,5*%
X167716100Y-94203600D03*
%TO.P,TWE_RIGHT2,6*%
X167716100Y-96743600D03*
%TO.P,TWE_RIGHT2,7*%
X167716100Y-99283600D03*
%TO.P,TWE_RIGHT2,8*%
X167716100Y-101823600D03*
%TO.P,TWE_RIGHT2,9*%
X167716100Y-104363600D03*
%TO.P,TWE_RIGHT2,10*%
X167716100Y-106903600D03*
%TO.P,TWE_RIGHT2,11*%
X167716100Y-109443600D03*
%TO.P,TWE_RIGHT2,12*%
X167716100Y-111983600D03*
%TO.P,TWE_RIGHT2,13*%
X167716100Y-114523600D03*
%TO.P,TWE_RIGHT2,14*%
X167716100Y-117063600D03*
%TD*%
D10*
%TO.P,CELL_SUPPLY0,1*%
%TO.N,SGND*%
X163906100Y-124683600D03*
D11*
%TO.P,CELL_SUPPLY0,2*%
%TO.N,+3V3*%
X161366100Y-124683600D03*
%TD*%
D12*
%TO.P,TWE_LEFT2,1*%
%TO.N,SGND*%
X152476100Y-84043600D03*
%TO.P,TWE_LEFT2,2*%
%TO.N,N/C*%
X152476100Y-86583600D03*
%TO.P,TWE_LEFT2,3*%
X152476100Y-89123600D03*
%TO.P,TWE_LEFT2,4*%
X152476100Y-91663600D03*
%TO.P,TWE_LEFT2,5*%
X152476100Y-94203600D03*
%TO.P,TWE_LEFT2,6*%
X152476100Y-96743600D03*
%TO.P,TWE_LEFT2,7*%
X152476100Y-99283600D03*
%TO.P,TWE_LEFT2,8*%
X152476100Y-101823600D03*
%TO.P,TWE_LEFT2,9*%
X152476100Y-104363600D03*
%TO.P,TWE_LEFT2,10*%
X152476100Y-106903600D03*
%TO.P,TWE_LEFT2,11*%
X152476100Y-109443600D03*
%TO.P,TWE_LEFT2,12*%
X152476100Y-111983600D03*
%TO.P,TWE_LEFT2,13*%
X152476100Y-114523600D03*
%TO.P,TWE_LEFT2,14*%
X152476100Y-117063600D03*
%TD*%
%TO.P,TWE_RIGHT1,1*%
%TO.N,+3V3*%
X143586100Y-84043600D03*
%TO.P,TWE_RIGHT1,2*%
%TO.N,N/C*%
X143586100Y-86583600D03*
%TO.P,TWE_RIGHT1,3*%
X143586100Y-89123600D03*
%TO.P,TWE_RIGHT1,4*%
X143586100Y-91663600D03*
%TO.P,TWE_RIGHT1,5*%
X143586100Y-94203600D03*
%TO.P,TWE_RIGHT1,6*%
X143586100Y-96743600D03*
%TO.P,TWE_RIGHT1,7*%
X143586100Y-99283600D03*
%TO.P,TWE_RIGHT1,8*%
X143586100Y-101823600D03*
%TO.P,TWE_RIGHT1,9*%
X143586100Y-104363600D03*
%TO.P,TWE_RIGHT1,10*%
X143586100Y-106903600D03*
%TO.P,TWE_RIGHT1,11*%
X143586100Y-109443600D03*
%TO.P,TWE_RIGHT1,12*%
X143586100Y-111983600D03*
%TO.P,TWE_RIGHT1,13*%
X143586100Y-114523600D03*
%TO.P,TWE_RIGHT1,14*%
%TO.N,EM1*%
X143586100Y-117063600D03*
%TD*%
D13*
%TO.P,C5,1*%
%TO.N,+3V3*%
X156286100Y-122143600D03*
%TO.P,C5,2*%
%TO.N,SGND*%
X156286100Y-124683600D03*
%TD*%
D12*
%TO.P,TWE_LEFT1,1*%
%TO.N,SGND*%
X128346100Y-84043600D03*
%TO.P,TWE_LEFT1,2*%
%TO.N,N/C*%
X128346100Y-86583600D03*
%TO.P,TWE_LEFT1,3*%
X128346100Y-89123600D03*
%TO.P,TWE_LEFT1,4*%
X128346100Y-91663600D03*
%TO.P,TWE_LEFT1,5*%
X128346100Y-94203600D03*
%TO.P,TWE_LEFT1,6*%
X128346100Y-96743600D03*
%TO.P,TWE_LEFT1,7*%
X128346100Y-99283600D03*
%TO.P,TWE_LEFT1,8*%
X128346100Y-101823600D03*
%TO.P,TWE_LEFT1,9*%
X128346100Y-104363600D03*
%TO.P,TWE_LEFT1,10*%
X128346100Y-106903600D03*
%TO.P,TWE_LEFT1,11*%
X128346100Y-109443600D03*
%TO.P,TWE_LEFT1,12*%
X128346100Y-111983600D03*
%TO.P,TWE_LEFT1,13*%
X128346100Y-114523600D03*
%TO.P,TWE_LEFT1,14*%
X128346100Y-117063600D03*
%TD*%
D14*
%TO.N,SGND*%
X139776100Y-93314600D03*
X165049100Y-84932600D03*
X141500000Y-82600000D03*
X156286100Y-97251600D03*
X159715100Y-121508600D03*
X132156100Y-97124600D03*
X134696100Y-122016600D03*
X164541100Y-95346600D03*
%TD*%
M02*
