%TF.GenerationSoftware,KiCad,Pcbnew,7.0.1*%
%TF.CreationDate,2023-09-15T15:11:26+09:00*%
%TF.ProjectId,remote emergency switch,72656d6f-7465-4206-956d-657267656e63,rev?*%
%TF.SameCoordinates,Original*%
%TF.FileFunction,Copper,L1,Top*%
%TF.FilePolarity,Positive*%
%FSLAX46Y46*%
G04 Gerber Fmt 4.6, Leading zero omitted, Abs format (unit mm)*
G04 Created by KiCad (PCBNEW 7.0.1) date 2023-09-15 15:11:26*
%MOMM*%
%LPD*%
G01*
G04 APERTURE LIST*
G04 Aperture macros list*
%AMOutline5P*
0 Free polygon, 5 corners , with rotation*
0 The origin of the aperture is its center*
0 number of corners: always 5*
0 $1 to $10 corner X, Y*
0 $11 Rotation angle, in degrees counterclockwise*
0 create outline with 5 corners*
4,1,5,$1,$2,$3,$4,$5,$6,$7,$8,$9,$10,$1,$2,$11*%
%AMOutline6P*
0 Free polygon, 6 corners , with rotation*
0 The origin of the aperture is its center*
0 number of corners: always 6*
0 $1 to $12 corner X, Y*
0 $13 Rotation angle, in degrees counterclockwise*
0 create outline with 6 corners*
4,1,6,$1,$2,$3,$4,$5,$6,$7,$8,$9,$10,$11,$12,$1,$2,$13*%
%AMOutline7P*
0 Free polygon, 7 corners , with rotation*
0 The origin of the aperture is its center*
0 number of corners: always 7*
0 $1 to $14 corner X, Y*
0 $15 Rotation angle, in degrees counterclockwise*
0 create outline with 7 corners*
4,1,7,$1,$2,$3,$4,$5,$6,$7,$8,$9,$10,$11,$12,$13,$14,$1,$2,$15*%
%AMOutline8P*
0 Free polygon, 8 corners , with rotation*
0 The origin of the aperture is its center*
0 number of corners: always 8*
0 $1 to $16 corner X, Y*
0 $17 Rotation angle, in degrees counterclockwise*
0 create outline with 8 corners*
4,1,8,$1,$2,$3,$4,$5,$6,$7,$8,$9,$10,$11,$12,$13,$14,$15,$16,$1,$2,$17*%
G04 Aperture macros list end*
%TA.AperFunction,WasherPad*%
%ADD10C,0.100000*%
%TD*%
%TA.AperFunction,ComponentPad*%
%ADD11Outline8P,-0.660400X0.273547X-0.273547X0.660400X0.273547X0.660400X0.660400X0.273547X0.660400X-0.273547X0.273547X-0.660400X-0.273547X-0.660400X-0.660400X-0.273547X270.000000*%
%TD*%
%TA.AperFunction,ComponentPad*%
%ADD12R,1.508000X1.508000*%
%TD*%
%TA.AperFunction,ComponentPad*%
%ADD13C,1.508000*%
%TD*%
%TA.AperFunction,ComponentPad*%
%ADD14O,3.048000X1.524000*%
%TD*%
%TA.AperFunction,SMDPad,CuDef*%
%ADD15R,2.000000X2.500000*%
%TD*%
%TA.AperFunction,SMDPad,CuDef*%
%ADD16R,0.500000X2.300000*%
%TD*%
%TA.AperFunction,SMDPad,CuDef*%
%ADD17R,3.500000X2.200000*%
%TD*%
%TA.AperFunction,SMDPad,CuDef*%
%ADD18R,1.200000X2.200000*%
%TD*%
%TA.AperFunction,SMDPad,CuDef*%
%ADD19R,0.350000X0.400000*%
%TD*%
%TA.AperFunction,ViaPad*%
%ADD20C,0.756400*%
%TD*%
%TA.AperFunction,Conductor*%
%ADD21C,0.200000*%
%TD*%
G04 APERTURE END LIST*
D10*
%TO.P,,*%
%TO.N,*%
X148000000Y-82730000D03*
%TD*%
D11*
%TO.P,C15,2*%
%TO.N,SGND*%
X156286100Y-124683600D03*
%TO.P,C15,1*%
%TO.N,+3V3*%
X156286100Y-122143600D03*
%TD*%
D12*
%TO.P,EME1,1*%
%TO.N,SGND*%
X137236100Y-124683600D03*
D13*
%TO.P,EME1,2*%
%TO.N,EM1*%
X134696100Y-124683600D03*
%TD*%
D14*
%TO.P,TWE_LEFT1,14*%
%TO.N,N/C*%
X128346100Y-117063600D03*
%TO.P,TWE_LEFT1,13*%
X128346100Y-114523600D03*
%TO.P,TWE_LEFT1,12*%
X128346100Y-111983600D03*
%TO.P,TWE_LEFT1,11*%
X128346100Y-109443600D03*
%TO.P,TWE_LEFT1,10*%
X128346100Y-106903600D03*
%TO.P,TWE_LEFT1,9*%
X128346100Y-104363600D03*
%TO.P,TWE_LEFT1,8*%
X128346100Y-101823600D03*
%TO.P,TWE_LEFT1,7*%
X128346100Y-99283600D03*
%TO.P,TWE_LEFT1,6*%
X128346100Y-96743600D03*
%TO.P,TWE_LEFT1,5*%
X128346100Y-94203600D03*
%TO.P,TWE_LEFT1,4*%
X128346100Y-91663600D03*
%TO.P,TWE_LEFT1,3*%
X128346100Y-89123600D03*
%TO.P,TWE_LEFT1,2*%
X128346100Y-86583600D03*
%TO.P,TWE_LEFT1,1*%
%TO.N,SGND*%
X128346100Y-84043600D03*
%TD*%
%TO.P,TWE_RIGHT1,14*%
%TO.N,EM1*%
X143586100Y-117063600D03*
%TO.P,TWE_RIGHT1,13*%
%TO.N,N/C*%
X143586100Y-114523600D03*
%TO.P,TWE_RIGHT1,12*%
X143586100Y-111983600D03*
%TO.P,TWE_RIGHT1,11*%
X143586100Y-109443600D03*
%TO.P,TWE_RIGHT1,10*%
X143586100Y-106903600D03*
%TO.P,TWE_RIGHT1,9*%
X143586100Y-104363600D03*
%TO.P,TWE_RIGHT1,8*%
X143586100Y-101823600D03*
%TO.P,TWE_RIGHT1,7*%
X143586100Y-99283600D03*
%TO.P,TWE_RIGHT1,6*%
X143586100Y-96743600D03*
%TO.P,TWE_RIGHT1,5*%
X143586100Y-94203600D03*
%TO.P,TWE_RIGHT1,4*%
X143586100Y-91663600D03*
%TO.P,TWE_RIGHT1,3*%
X143586100Y-89123600D03*
%TO.P,TWE_RIGHT1,2*%
X143586100Y-86583600D03*
%TO.P,TWE_RIGHT1,1*%
%TO.N,+3V3*%
X143586100Y-84043600D03*
%TD*%
%TO.P,TWE_LEFT2,14*%
%TO.N,N/C*%
X152476100Y-117063600D03*
%TO.P,TWE_LEFT2,13*%
X152476100Y-114523600D03*
%TO.P,TWE_LEFT2,12*%
X152476100Y-111983600D03*
%TO.P,TWE_LEFT2,11*%
X152476100Y-109443600D03*
%TO.P,TWE_LEFT2,10*%
X152476100Y-106903600D03*
%TO.P,TWE_LEFT2,9*%
X152476100Y-104363600D03*
%TO.P,TWE_LEFT2,8*%
X152476100Y-101823600D03*
%TO.P,TWE_LEFT2,7*%
X152476100Y-99283600D03*
%TO.P,TWE_LEFT2,6*%
X152476100Y-96743600D03*
%TO.P,TWE_LEFT2,5*%
X152476100Y-94203600D03*
%TO.P,TWE_LEFT2,4*%
X152476100Y-91663600D03*
%TO.P,TWE_LEFT2,3*%
X152476100Y-89123600D03*
%TO.P,TWE_LEFT2,2*%
X152476100Y-86583600D03*
%TO.P,TWE_LEFT2,1*%
%TO.N,SGND*%
X152476100Y-84043600D03*
%TD*%
%TO.P,TWE_RIGHT2,14*%
%TO.N,N/C*%
X167716100Y-117063600D03*
%TO.P,TWE_RIGHT2,13*%
X167716100Y-114523600D03*
%TO.P,TWE_RIGHT2,12*%
X167716100Y-111983600D03*
%TO.P,TWE_RIGHT2,11*%
X167716100Y-109443600D03*
%TO.P,TWE_RIGHT2,10*%
X167716100Y-106903600D03*
%TO.P,TWE_RIGHT2,9*%
X167716100Y-104363600D03*
%TO.P,TWE_RIGHT2,8*%
X167716100Y-101823600D03*
%TO.P,TWE_RIGHT2,7*%
X167716100Y-99283600D03*
%TO.P,TWE_RIGHT2,6*%
X167716100Y-96743600D03*
%TO.P,TWE_RIGHT2,5*%
X167716100Y-94203600D03*
%TO.P,TWE_RIGHT2,4*%
X167716100Y-91663600D03*
%TO.P,TWE_RIGHT2,3*%
X167716100Y-89123600D03*
%TO.P,TWE_RIGHT2,2*%
X167716100Y-86583600D03*
%TO.P,TWE_RIGHT2,1*%
%TO.N,+3V3*%
X167716100Y-84043600D03*
%TD*%
D12*
%TO.P,CELL_SUPPLY0,1*%
%TO.N,SGND*%
X163906100Y-124683600D03*
D13*
%TO.P,CELL_SUPPLY0,2*%
%TO.N,+3V3*%
X161366100Y-124683600D03*
%TD*%
D15*
%TO.P,DEVICE0,P$9*%
%TO.N,N/C*%
X131516100Y-85103600D03*
%TO.P,DEVICE0,P$8*%
X131516100Y-90603600D03*
%TO.P,DEVICE0,P$7*%
X140416100Y-85103600D03*
%TO.P,DEVICE0,P$6*%
X140416100Y-90603600D03*
D16*
%TO.P,DEVICE0,GND*%
%TO.N,SGND*%
X134366100Y-90623600D03*
%TO.P,DEVICE0,ID*%
%TO.N,N/C*%
X135166100Y-90623600D03*
%TO.P,DEVICE0,D+*%
%TO.N,D+*%
X135966100Y-90623600D03*
%TO.P,DEVICE0,D-*%
%TO.N,D-*%
X136766100Y-90623600D03*
%TO.P,DEVICE0,VBUS*%
%TO.N,+5V*%
X137566100Y-90623600D03*
%TD*%
D17*
%TO.P,REGYURETA0,VOUT*%
%TO.N,+3V3*%
X135966100Y-97453600D03*
D18*
%TO.P,REGYURETA0,INPUT*%
%TO.N,+5V*%
X138316100Y-103653600D03*
%TO.P,REGYURETA0,OUTPUT*%
%TO.N,+3V3*%
X135966100Y-103653600D03*
%TO.P,REGYURETA0,ADJ/GND*%
%TO.N,SGND*%
X133616100Y-103653600D03*
%TD*%
D19*
%TO.P,C2,2*%
%TO.N,SGND*%
X138831100Y-108935600D03*
%TO.P,C2,1*%
%TO.N,+5V*%
X138181100Y-108935600D03*
%TD*%
%TO.P,C3,2*%
%TO.N,SGND*%
X136291100Y-108935600D03*
%TO.P,C3,1*%
%TO.N,+3V3*%
X135641100Y-108935600D03*
%TD*%
%TO.P,C1,2*%
%TO.N,SGND*%
X138831100Y-106395600D03*
%TO.P,C1,1*%
%TO.N,+5V*%
X138181100Y-106395600D03*
%TD*%
%TO.P,C4,2*%
%TO.N,SGND*%
X136291100Y-106395600D03*
%TO.P,C4,1*%
%TO.N,+3V3*%
X135641100Y-106395600D03*
%TD*%
D20*
%TO.N,SGND*%
X142697100Y-81884600D03*
X165049100Y-84932600D03*
X164541100Y-95346600D03*
X156286100Y-97251600D03*
X159715100Y-121508600D03*
X134696100Y-122016600D03*
X139776100Y-93314600D03*
X132156100Y-97124600D03*
%TD*%
D21*
%TO.N,+3V3*%
X157556100Y-94203600D02*
X155016100Y-96743600D01*
X163906100Y-94203600D02*
X157556100Y-94203600D01*
X165176100Y-92933600D02*
X163906100Y-94203600D01*
X165176100Y-86583600D02*
X165176100Y-92933600D01*
X167716100Y-84043600D02*
X165176100Y-86583600D01*
X155016100Y-120873600D02*
X156286100Y-122143600D01*
X155016100Y-96743600D02*
X155016100Y-120873600D01*
X134136100Y-97453600D02*
X135966100Y-97453600D01*
X133426100Y-96743600D02*
X134136100Y-97453600D01*
X135966100Y-103653600D02*
X135966100Y-97453600D01*
X135863700Y-106173000D02*
X135641100Y-106395600D01*
X135863700Y-106091050D02*
X135863700Y-106173000D01*
X135966100Y-105988650D02*
X135863700Y-106091050D01*
X135966100Y-103653600D02*
X135966100Y-105988650D01*
X135641100Y-106395600D02*
X135641100Y-108935600D01*
X133426100Y-89123600D02*
X133426100Y-96743600D01*
X139141100Y-83408600D02*
X133426100Y-89123600D01*
X142951100Y-83408600D02*
X139141100Y-83408600D01*
X143586100Y-84043600D02*
X142951100Y-83408600D01*
X158826100Y-122143600D02*
X161366100Y-124683600D01*
X156286100Y-122143600D02*
X158826100Y-122143600D01*
%TO.N,+5V*%
X138316100Y-92786650D02*
X138316100Y-103653600D01*
X137566100Y-92036650D02*
X138316100Y-92786650D01*
X137566100Y-90623600D02*
X137566100Y-92036650D01*
X138316100Y-106260600D02*
X138181100Y-106395600D01*
X138316100Y-103653600D02*
X138316100Y-106260600D01*
X138181100Y-106395600D02*
X138181100Y-108935600D01*
%TO.N,EM1*%
X134696100Y-123413600D02*
X134696100Y-124683600D01*
X135966100Y-122143600D02*
X134696100Y-123413600D01*
X138506100Y-122143600D02*
X135966100Y-122143600D01*
X143586100Y-117063600D02*
X138506100Y-122143600D01*
%TD*%
M02*
