%TF.GenerationSoftware,KiCad,Pcbnew,7.0.1*%
%TF.CreationDate,2023-09-15T15:11:26+09:00*%
%TF.ProjectId,remote emergency switch,72656d6f-7465-4206-956d-657267656e63,rev?*%
%TF.SameCoordinates,Original*%
%TF.FileFunction,Legend,Top*%
%TF.FilePolarity,Positive*%
%FSLAX46Y46*%
G04 Gerber Fmt 4.6, Leading zero omitted, Abs format (unit mm)*
G04 Created by KiCad (PCBNEW 7.0.1) date 2023-09-15 15:11:26*
%MOMM*%
%LPD*%
G01*
G04 APERTURE LIST*
%ADD10C,0.150000*%
%ADD11C,0.114300*%
%ADD12C,0.093472*%
%ADD13C,0.036800*%
%ADD14C,0.304800*%
%ADD15C,0.152400*%
%ADD16C,0.127000*%
%ADD17C,0.076200*%
%ADD18C,0.050000*%
%ADD19C,0.203200*%
G04 APERTURE END LIST*
D10*
%TO.C,*%
D11*
%TO.C,C15*%
X153916682Y-124311067D02*
X153971716Y-124366100D01*
X153971716Y-124366100D02*
X154026749Y-124531200D01*
X154026749Y-124531200D02*
X154026749Y-124641267D01*
X154026749Y-124641267D02*
X153971716Y-124806367D01*
X153971716Y-124806367D02*
X153861649Y-124916434D01*
X153861649Y-124916434D02*
X153751582Y-124971467D01*
X153751582Y-124971467D02*
X153531449Y-125026500D01*
X153531449Y-125026500D02*
X153366349Y-125026500D01*
X153366349Y-125026500D02*
X153146216Y-124971467D01*
X153146216Y-124971467D02*
X153036149Y-124916434D01*
X153036149Y-124916434D02*
X152926082Y-124806367D01*
X152926082Y-124806367D02*
X152871049Y-124641267D01*
X152871049Y-124641267D02*
X152871049Y-124531200D01*
X152871049Y-124531200D02*
X152926082Y-124366100D01*
X152926082Y-124366100D02*
X152981116Y-124311067D01*
X154026749Y-123210400D02*
X154026749Y-123870800D01*
X154026749Y-123540600D02*
X152871049Y-123540600D01*
X152871049Y-123540600D02*
X153036149Y-123650667D01*
X153036149Y-123650667D02*
X153146216Y-123760734D01*
X153146216Y-123760734D02*
X153201249Y-123870800D01*
X152871049Y-122164767D02*
X152871049Y-122715100D01*
X152871049Y-122715100D02*
X153421382Y-122770133D01*
X153421382Y-122770133D02*
X153366349Y-122715100D01*
X153366349Y-122715100D02*
X153311316Y-122605033D01*
X153311316Y-122605033D02*
X153311316Y-122329867D01*
X153311316Y-122329867D02*
X153366349Y-122219800D01*
X153366349Y-122219800D02*
X153421382Y-122164767D01*
X153421382Y-122164767D02*
X153531449Y-122109733D01*
X153531449Y-122109733D02*
X153806616Y-122109733D01*
X153806616Y-122109733D02*
X153916682Y-122164767D01*
X153916682Y-122164767D02*
X153971716Y-122219800D01*
X153971716Y-122219800D02*
X154026749Y-122329867D01*
X154026749Y-122329867D02*
X154026749Y-122605033D01*
X154026749Y-122605033D02*
X153971716Y-122715100D01*
X153971716Y-122715100D02*
X153916682Y-122770133D01*
D12*
%TO.C,EME1*%
X134341225Y-120801608D02*
X134733401Y-120801608D01*
X134901477Y-121417885D02*
X134341225Y-121417885D01*
X134341225Y-121417885D02*
X134341225Y-120241357D01*
X134341225Y-120241357D02*
X134901477Y-120241357D01*
X135405703Y-121417885D02*
X135405703Y-120241357D01*
X135405703Y-120241357D02*
X135797879Y-121081734D01*
X135797879Y-121081734D02*
X136190055Y-120241357D01*
X136190055Y-120241357D02*
X136190055Y-121417885D01*
X136750306Y-120801608D02*
X137142482Y-120801608D01*
X137310558Y-121417885D02*
X136750306Y-121417885D01*
X136750306Y-121417885D02*
X136750306Y-120241357D01*
X136750306Y-120241357D02*
X137310558Y-120241357D01*
X138431061Y-121417885D02*
X137758759Y-121417885D01*
X138094910Y-121417885D02*
X138094910Y-120241357D01*
X138094910Y-120241357D02*
X137982860Y-120409432D01*
X137982860Y-120409432D02*
X137870809Y-120521482D01*
X137870809Y-120521482D02*
X137758759Y-120577508D01*
D11*
%TO.C,TWE_LEFT1*%
X129553849Y-111987832D02*
X129553849Y-111327432D01*
X130709549Y-111657632D02*
X129553849Y-111657632D01*
X129553849Y-111052266D02*
X130709549Y-110777099D01*
X130709549Y-110777099D02*
X129884049Y-110556966D01*
X129884049Y-110556966D02*
X130709549Y-110336832D01*
X130709549Y-110336832D02*
X129553849Y-110061666D01*
X130104182Y-109621399D02*
X130104182Y-109236166D01*
X130709549Y-109071066D02*
X130709549Y-109621399D01*
X130709549Y-109621399D02*
X129553849Y-109621399D01*
X129553849Y-109621399D02*
X129553849Y-109071066D01*
X130819616Y-108850933D02*
X130819616Y-107970399D01*
X130709549Y-107144900D02*
X130709549Y-107695233D01*
X130709549Y-107695233D02*
X129553849Y-107695233D01*
X130104182Y-106759666D02*
X130104182Y-106374433D01*
X130709549Y-106209333D02*
X130709549Y-106759666D01*
X130709549Y-106759666D02*
X129553849Y-106759666D01*
X129553849Y-106759666D02*
X129553849Y-106209333D01*
X130104182Y-105328800D02*
X130104182Y-105714033D01*
X130709549Y-105714033D02*
X129553849Y-105714033D01*
X129553849Y-105714033D02*
X129553849Y-105163700D01*
X129553849Y-104888533D02*
X129553849Y-104228133D01*
X130709549Y-104558333D02*
X129553849Y-104558333D01*
X130709549Y-103237533D02*
X130709549Y-103897933D01*
X130709549Y-103567733D02*
X129553849Y-103567733D01*
X129553849Y-103567733D02*
X129718949Y-103677800D01*
X129718949Y-103677800D02*
X129829016Y-103787867D01*
X129829016Y-103787867D02*
X129884049Y-103897933D01*
%TO.C,TWE_RIGHT1*%
X144793849Y-113088498D02*
X144793849Y-112428098D01*
X145949549Y-112758298D02*
X144793849Y-112758298D01*
X144793849Y-112152932D02*
X145949549Y-111877765D01*
X145949549Y-111877765D02*
X145124049Y-111657632D01*
X145124049Y-111657632D02*
X145949549Y-111437498D01*
X145949549Y-111437498D02*
X144793849Y-111162332D01*
X145344182Y-110722065D02*
X145344182Y-110336832D01*
X145949549Y-110171732D02*
X145949549Y-110722065D01*
X145949549Y-110722065D02*
X144793849Y-110722065D01*
X144793849Y-110722065D02*
X144793849Y-110171732D01*
X146059616Y-109951599D02*
X146059616Y-109071065D01*
X145949549Y-108135499D02*
X145399216Y-108520732D01*
X145949549Y-108795899D02*
X144793849Y-108795899D01*
X144793849Y-108795899D02*
X144793849Y-108355632D01*
X144793849Y-108355632D02*
X144848882Y-108245566D01*
X144848882Y-108245566D02*
X144903916Y-108190532D01*
X144903916Y-108190532D02*
X145013982Y-108135499D01*
X145013982Y-108135499D02*
X145179082Y-108135499D01*
X145179082Y-108135499D02*
X145289149Y-108190532D01*
X145289149Y-108190532D02*
X145344182Y-108245566D01*
X145344182Y-108245566D02*
X145399216Y-108355632D01*
X145399216Y-108355632D02*
X145399216Y-108795899D01*
X145949549Y-107640199D02*
X144793849Y-107640199D01*
X144848882Y-106484499D02*
X144793849Y-106594566D01*
X144793849Y-106594566D02*
X144793849Y-106759666D01*
X144793849Y-106759666D02*
X144848882Y-106924766D01*
X144848882Y-106924766D02*
X144958949Y-107034833D01*
X144958949Y-107034833D02*
X145069016Y-107089866D01*
X145069016Y-107089866D02*
X145289149Y-107144899D01*
X145289149Y-107144899D02*
X145454249Y-107144899D01*
X145454249Y-107144899D02*
X145674382Y-107089866D01*
X145674382Y-107089866D02*
X145784449Y-107034833D01*
X145784449Y-107034833D02*
X145894516Y-106924766D01*
X145894516Y-106924766D02*
X145949549Y-106759666D01*
X145949549Y-106759666D02*
X145949549Y-106649599D01*
X145949549Y-106649599D02*
X145894516Y-106484499D01*
X145894516Y-106484499D02*
X145839482Y-106429466D01*
X145839482Y-106429466D02*
X145454249Y-106429466D01*
X145454249Y-106429466D02*
X145454249Y-106649599D01*
X145949549Y-105934166D02*
X144793849Y-105934166D01*
X145344182Y-105934166D02*
X145344182Y-105273766D01*
X145949549Y-105273766D02*
X144793849Y-105273766D01*
X144793849Y-104888533D02*
X144793849Y-104228133D01*
X145949549Y-104558333D02*
X144793849Y-104558333D01*
X145949549Y-103237533D02*
X145949549Y-103897933D01*
X145949549Y-103567733D02*
X144793849Y-103567733D01*
X144793849Y-103567733D02*
X144958949Y-103677800D01*
X144958949Y-103677800D02*
X145069016Y-103787867D01*
X145069016Y-103787867D02*
X145124049Y-103897933D01*
%TO.C,TWE_LEFT2*%
X153683849Y-91667832D02*
X153683849Y-91007432D01*
X154839549Y-91337632D02*
X153683849Y-91337632D01*
X153683849Y-90732266D02*
X154839549Y-90457099D01*
X154839549Y-90457099D02*
X154014049Y-90236966D01*
X154014049Y-90236966D02*
X154839549Y-90016832D01*
X154839549Y-90016832D02*
X153683849Y-89741666D01*
X154234182Y-89301399D02*
X154234182Y-88916166D01*
X154839549Y-88751066D02*
X154839549Y-89301399D01*
X154839549Y-89301399D02*
X153683849Y-89301399D01*
X153683849Y-89301399D02*
X153683849Y-88751066D01*
X154949616Y-88530933D02*
X154949616Y-87650399D01*
X154839549Y-86824900D02*
X154839549Y-87375233D01*
X154839549Y-87375233D02*
X153683849Y-87375233D01*
X154234182Y-86439666D02*
X154234182Y-86054433D01*
X154839549Y-85889333D02*
X154839549Y-86439666D01*
X154839549Y-86439666D02*
X153683849Y-86439666D01*
X153683849Y-86439666D02*
X153683849Y-85889333D01*
X154234182Y-85008800D02*
X154234182Y-85394033D01*
X154839549Y-85394033D02*
X153683849Y-85394033D01*
X153683849Y-85394033D02*
X153683849Y-84843700D01*
X153683849Y-84568533D02*
X153683849Y-83908133D01*
X154839549Y-84238333D02*
X153683849Y-84238333D01*
X153793916Y-83577933D02*
X153738882Y-83522900D01*
X153738882Y-83522900D02*
X153683849Y-83412833D01*
X153683849Y-83412833D02*
X153683849Y-83137667D01*
X153683849Y-83137667D02*
X153738882Y-83027600D01*
X153738882Y-83027600D02*
X153793916Y-82972567D01*
X153793916Y-82972567D02*
X153903982Y-82917533D01*
X153903982Y-82917533D02*
X154014049Y-82917533D01*
X154014049Y-82917533D02*
X154179149Y-82972567D01*
X154179149Y-82972567D02*
X154839549Y-83632967D01*
X154839549Y-83632967D02*
X154839549Y-82917533D01*
%TO.C,TWE_RIGHT2*%
X168923849Y-92768498D02*
X168923849Y-92108098D01*
X170079549Y-92438298D02*
X168923849Y-92438298D01*
X168923849Y-91832932D02*
X170079549Y-91557765D01*
X170079549Y-91557765D02*
X169254049Y-91337632D01*
X169254049Y-91337632D02*
X170079549Y-91117498D01*
X170079549Y-91117498D02*
X168923849Y-90842332D01*
X169474182Y-90402065D02*
X169474182Y-90016832D01*
X170079549Y-89851732D02*
X170079549Y-90402065D01*
X170079549Y-90402065D02*
X168923849Y-90402065D01*
X168923849Y-90402065D02*
X168923849Y-89851732D01*
X170189616Y-89631599D02*
X170189616Y-88751065D01*
X170079549Y-87815499D02*
X169529216Y-88200732D01*
X170079549Y-88475899D02*
X168923849Y-88475899D01*
X168923849Y-88475899D02*
X168923849Y-88035632D01*
X168923849Y-88035632D02*
X168978882Y-87925566D01*
X168978882Y-87925566D02*
X169033916Y-87870532D01*
X169033916Y-87870532D02*
X169143982Y-87815499D01*
X169143982Y-87815499D02*
X169309082Y-87815499D01*
X169309082Y-87815499D02*
X169419149Y-87870532D01*
X169419149Y-87870532D02*
X169474182Y-87925566D01*
X169474182Y-87925566D02*
X169529216Y-88035632D01*
X169529216Y-88035632D02*
X169529216Y-88475899D01*
X170079549Y-87320199D02*
X168923849Y-87320199D01*
X168978882Y-86164499D02*
X168923849Y-86274566D01*
X168923849Y-86274566D02*
X168923849Y-86439666D01*
X168923849Y-86439666D02*
X168978882Y-86604766D01*
X168978882Y-86604766D02*
X169088949Y-86714833D01*
X169088949Y-86714833D02*
X169199016Y-86769866D01*
X169199016Y-86769866D02*
X169419149Y-86824899D01*
X169419149Y-86824899D02*
X169584249Y-86824899D01*
X169584249Y-86824899D02*
X169804382Y-86769866D01*
X169804382Y-86769866D02*
X169914449Y-86714833D01*
X169914449Y-86714833D02*
X170024516Y-86604766D01*
X170024516Y-86604766D02*
X170079549Y-86439666D01*
X170079549Y-86439666D02*
X170079549Y-86329599D01*
X170079549Y-86329599D02*
X170024516Y-86164499D01*
X170024516Y-86164499D02*
X169969482Y-86109466D01*
X169969482Y-86109466D02*
X169584249Y-86109466D01*
X169584249Y-86109466D02*
X169584249Y-86329599D01*
X170079549Y-85614166D02*
X168923849Y-85614166D01*
X169474182Y-85614166D02*
X169474182Y-84953766D01*
X170079549Y-84953766D02*
X168923849Y-84953766D01*
X168923849Y-84568533D02*
X168923849Y-83908133D01*
X170079549Y-84238333D02*
X168923849Y-84238333D01*
X169033916Y-83577933D02*
X168978882Y-83522900D01*
X168978882Y-83522900D02*
X168923849Y-83412833D01*
X168923849Y-83412833D02*
X168923849Y-83137667D01*
X168923849Y-83137667D02*
X168978882Y-83027600D01*
X168978882Y-83027600D02*
X169033916Y-82972567D01*
X169033916Y-82972567D02*
X169143982Y-82917533D01*
X169143982Y-82917533D02*
X169254049Y-82917533D01*
X169254049Y-82917533D02*
X169419149Y-82972567D01*
X169419149Y-82972567D02*
X170079549Y-83632967D01*
X170079549Y-83632967D02*
X170079549Y-82917533D01*
D12*
%TO.C,CELL_SUPPLY0*%
X157873527Y-121051834D02*
X157817502Y-121107860D01*
X157817502Y-121107860D02*
X157649426Y-121163885D01*
X157649426Y-121163885D02*
X157537376Y-121163885D01*
X157537376Y-121163885D02*
X157369301Y-121107860D01*
X157369301Y-121107860D02*
X157257250Y-120995809D01*
X157257250Y-120995809D02*
X157201225Y-120883759D01*
X157201225Y-120883759D02*
X157145200Y-120659658D01*
X157145200Y-120659658D02*
X157145200Y-120491583D01*
X157145200Y-120491583D02*
X157201225Y-120267482D01*
X157201225Y-120267482D02*
X157257250Y-120155432D01*
X157257250Y-120155432D02*
X157369301Y-120043382D01*
X157369301Y-120043382D02*
X157537376Y-119987357D01*
X157537376Y-119987357D02*
X157649426Y-119987357D01*
X157649426Y-119987357D02*
X157817502Y-120043382D01*
X157817502Y-120043382D02*
X157873527Y-120099407D01*
X158377753Y-120547608D02*
X158769929Y-120547608D01*
X158938005Y-121163885D02*
X158377753Y-121163885D01*
X158377753Y-121163885D02*
X158377753Y-119987357D01*
X158377753Y-119987357D02*
X158938005Y-119987357D01*
X160002483Y-121163885D02*
X159442231Y-121163885D01*
X159442231Y-121163885D02*
X159442231Y-119987357D01*
X160954910Y-121163885D02*
X160394658Y-121163885D01*
X160394658Y-121163885D02*
X160394658Y-119987357D01*
X161066960Y-121275935D02*
X161963362Y-121275935D01*
X162187462Y-121107860D02*
X162355538Y-121163885D01*
X162355538Y-121163885D02*
X162635663Y-121163885D01*
X162635663Y-121163885D02*
X162747714Y-121107860D01*
X162747714Y-121107860D02*
X162803739Y-121051834D01*
X162803739Y-121051834D02*
X162859764Y-120939784D01*
X162859764Y-120939784D02*
X162859764Y-120827734D01*
X162859764Y-120827734D02*
X162803739Y-120715684D01*
X162803739Y-120715684D02*
X162747714Y-120659658D01*
X162747714Y-120659658D02*
X162635663Y-120603633D01*
X162635663Y-120603633D02*
X162411563Y-120547608D01*
X162411563Y-120547608D02*
X162299512Y-120491583D01*
X162299512Y-120491583D02*
X162243487Y-120435558D01*
X162243487Y-120435558D02*
X162187462Y-120323508D01*
X162187462Y-120323508D02*
X162187462Y-120211457D01*
X162187462Y-120211457D02*
X162243487Y-120099407D01*
X162243487Y-120099407D02*
X162299512Y-120043382D01*
X162299512Y-120043382D02*
X162411563Y-119987357D01*
X162411563Y-119987357D02*
X162691688Y-119987357D01*
X162691688Y-119987357D02*
X162859764Y-120043382D01*
X163363990Y-119987357D02*
X163363990Y-120939784D01*
X163363990Y-120939784D02*
X163420015Y-121051834D01*
X163420015Y-121051834D02*
X163476041Y-121107860D01*
X163476041Y-121107860D02*
X163588091Y-121163885D01*
X163588091Y-121163885D02*
X163812191Y-121163885D01*
X163812191Y-121163885D02*
X163924242Y-121107860D01*
X163924242Y-121107860D02*
X163980267Y-121051834D01*
X163980267Y-121051834D02*
X164036292Y-120939784D01*
X164036292Y-120939784D02*
X164036292Y-119987357D01*
X164596543Y-121163885D02*
X164596543Y-119987357D01*
X164596543Y-119987357D02*
X165044744Y-119987357D01*
X165044744Y-119987357D02*
X165156795Y-120043382D01*
X165156795Y-120043382D02*
X165212820Y-120099407D01*
X165212820Y-120099407D02*
X165268845Y-120211457D01*
X165268845Y-120211457D02*
X165268845Y-120379533D01*
X165268845Y-120379533D02*
X165212820Y-120491583D01*
X165212820Y-120491583D02*
X165156795Y-120547608D01*
X165156795Y-120547608D02*
X165044744Y-120603633D01*
X165044744Y-120603633D02*
X164596543Y-120603633D01*
X165773071Y-121163885D02*
X165773071Y-119987357D01*
X165773071Y-119987357D02*
X166221272Y-119987357D01*
X166221272Y-119987357D02*
X166333323Y-120043382D01*
X166333323Y-120043382D02*
X166389348Y-120099407D01*
X166389348Y-120099407D02*
X166445373Y-120211457D01*
X166445373Y-120211457D02*
X166445373Y-120379533D01*
X166445373Y-120379533D02*
X166389348Y-120491583D01*
X166389348Y-120491583D02*
X166333323Y-120547608D01*
X166333323Y-120547608D02*
X166221272Y-120603633D01*
X166221272Y-120603633D02*
X165773071Y-120603633D01*
X167509851Y-121163885D02*
X166949599Y-121163885D01*
X166949599Y-121163885D02*
X166949599Y-119987357D01*
X168126127Y-120603633D02*
X168126127Y-121163885D01*
X167733951Y-119987357D02*
X168126127Y-120603633D01*
X168126127Y-120603633D02*
X168518303Y-119987357D01*
X169134580Y-119987357D02*
X169246630Y-119987357D01*
X169246630Y-119987357D02*
X169358680Y-120043382D01*
X169358680Y-120043382D02*
X169414706Y-120099407D01*
X169414706Y-120099407D02*
X169470731Y-120211457D01*
X169470731Y-120211457D02*
X169526756Y-120435558D01*
X169526756Y-120435558D02*
X169526756Y-120715684D01*
X169526756Y-120715684D02*
X169470731Y-120939784D01*
X169470731Y-120939784D02*
X169414706Y-121051834D01*
X169414706Y-121051834D02*
X169358680Y-121107860D01*
X169358680Y-121107860D02*
X169246630Y-121163885D01*
X169246630Y-121163885D02*
X169134580Y-121163885D01*
X169134580Y-121163885D02*
X169022530Y-121107860D01*
X169022530Y-121107860D02*
X168966504Y-121051834D01*
X168966504Y-121051834D02*
X168910479Y-120939784D01*
X168910479Y-120939784D02*
X168854454Y-120715684D01*
X168854454Y-120715684D02*
X168854454Y-120435558D01*
X168854454Y-120435558D02*
X168910479Y-120211457D01*
X168910479Y-120211457D02*
X168966504Y-120099407D01*
X168966504Y-120099407D02*
X169022530Y-120043382D01*
X169022530Y-120043382D02*
X169134580Y-119987357D01*
D13*
%TO.C,C2*%
X138457571Y-110020270D02*
X138435514Y-110042328D01*
X138435514Y-110042328D02*
X138369342Y-110064385D01*
X138369342Y-110064385D02*
X138325228Y-110064385D01*
X138325228Y-110064385D02*
X138259057Y-110042328D01*
X138259057Y-110042328D02*
X138214942Y-109998213D01*
X138214942Y-109998213D02*
X138192885Y-109954099D01*
X138192885Y-109954099D02*
X138170828Y-109865870D01*
X138170828Y-109865870D02*
X138170828Y-109799699D01*
X138170828Y-109799699D02*
X138192885Y-109711470D01*
X138192885Y-109711470D02*
X138214942Y-109667356D01*
X138214942Y-109667356D02*
X138259057Y-109623242D01*
X138259057Y-109623242D02*
X138325228Y-109601185D01*
X138325228Y-109601185D02*
X138369342Y-109601185D01*
X138369342Y-109601185D02*
X138435514Y-109623242D01*
X138435514Y-109623242D02*
X138457571Y-109645299D01*
X138634028Y-109645299D02*
X138656085Y-109623242D01*
X138656085Y-109623242D02*
X138700200Y-109601185D01*
X138700200Y-109601185D02*
X138810485Y-109601185D01*
X138810485Y-109601185D02*
X138854600Y-109623242D01*
X138854600Y-109623242D02*
X138876657Y-109645299D01*
X138876657Y-109645299D02*
X138898714Y-109689413D01*
X138898714Y-109689413D02*
X138898714Y-109733528D01*
X138898714Y-109733528D02*
X138876657Y-109799699D01*
X138876657Y-109799699D02*
X138611971Y-110064385D01*
X138611971Y-110064385D02*
X138898714Y-110064385D01*
%TO.C,C3*%
X135917571Y-110020270D02*
X135895514Y-110042328D01*
X135895514Y-110042328D02*
X135829342Y-110064385D01*
X135829342Y-110064385D02*
X135785228Y-110064385D01*
X135785228Y-110064385D02*
X135719057Y-110042328D01*
X135719057Y-110042328D02*
X135674942Y-109998213D01*
X135674942Y-109998213D02*
X135652885Y-109954099D01*
X135652885Y-109954099D02*
X135630828Y-109865870D01*
X135630828Y-109865870D02*
X135630828Y-109799699D01*
X135630828Y-109799699D02*
X135652885Y-109711470D01*
X135652885Y-109711470D02*
X135674942Y-109667356D01*
X135674942Y-109667356D02*
X135719057Y-109623242D01*
X135719057Y-109623242D02*
X135785228Y-109601185D01*
X135785228Y-109601185D02*
X135829342Y-109601185D01*
X135829342Y-109601185D02*
X135895514Y-109623242D01*
X135895514Y-109623242D02*
X135917571Y-109645299D01*
X136071971Y-109601185D02*
X136358714Y-109601185D01*
X136358714Y-109601185D02*
X136204314Y-109777642D01*
X136204314Y-109777642D02*
X136270485Y-109777642D01*
X136270485Y-109777642D02*
X136314600Y-109799699D01*
X136314600Y-109799699D02*
X136336657Y-109821756D01*
X136336657Y-109821756D02*
X136358714Y-109865870D01*
X136358714Y-109865870D02*
X136358714Y-109976156D01*
X136358714Y-109976156D02*
X136336657Y-110020270D01*
X136336657Y-110020270D02*
X136314600Y-110042328D01*
X136314600Y-110042328D02*
X136270485Y-110064385D01*
X136270485Y-110064385D02*
X136138142Y-110064385D01*
X136138142Y-110064385D02*
X136094028Y-110042328D01*
X136094028Y-110042328D02*
X136071971Y-110020270D01*
%TO.C,C1*%
X138457571Y-107480270D02*
X138435514Y-107502328D01*
X138435514Y-107502328D02*
X138369342Y-107524385D01*
X138369342Y-107524385D02*
X138325228Y-107524385D01*
X138325228Y-107524385D02*
X138259057Y-107502328D01*
X138259057Y-107502328D02*
X138214942Y-107458213D01*
X138214942Y-107458213D02*
X138192885Y-107414099D01*
X138192885Y-107414099D02*
X138170828Y-107325870D01*
X138170828Y-107325870D02*
X138170828Y-107259699D01*
X138170828Y-107259699D02*
X138192885Y-107171470D01*
X138192885Y-107171470D02*
X138214942Y-107127356D01*
X138214942Y-107127356D02*
X138259057Y-107083242D01*
X138259057Y-107083242D02*
X138325228Y-107061185D01*
X138325228Y-107061185D02*
X138369342Y-107061185D01*
X138369342Y-107061185D02*
X138435514Y-107083242D01*
X138435514Y-107083242D02*
X138457571Y-107105299D01*
X138898714Y-107524385D02*
X138634028Y-107524385D01*
X138766371Y-107524385D02*
X138766371Y-107061185D01*
X138766371Y-107061185D02*
X138722257Y-107127356D01*
X138722257Y-107127356D02*
X138678142Y-107171470D01*
X138678142Y-107171470D02*
X138634028Y-107193528D01*
%TO.C,C4*%
X135917571Y-107480270D02*
X135895514Y-107502328D01*
X135895514Y-107502328D02*
X135829342Y-107524385D01*
X135829342Y-107524385D02*
X135785228Y-107524385D01*
X135785228Y-107524385D02*
X135719057Y-107502328D01*
X135719057Y-107502328D02*
X135674942Y-107458213D01*
X135674942Y-107458213D02*
X135652885Y-107414099D01*
X135652885Y-107414099D02*
X135630828Y-107325870D01*
X135630828Y-107325870D02*
X135630828Y-107259699D01*
X135630828Y-107259699D02*
X135652885Y-107171470D01*
X135652885Y-107171470D02*
X135674942Y-107127356D01*
X135674942Y-107127356D02*
X135719057Y-107083242D01*
X135719057Y-107083242D02*
X135785228Y-107061185D01*
X135785228Y-107061185D02*
X135829342Y-107061185D01*
X135829342Y-107061185D02*
X135895514Y-107083242D01*
X135895514Y-107083242D02*
X135917571Y-107105299D01*
X136314600Y-107215585D02*
X136314600Y-107524385D01*
X136204314Y-107039128D02*
X136094028Y-107369985D01*
X136094028Y-107369985D02*
X136380771Y-107369985D01*
D14*
%TO.C,C15*%
X157048100Y-123743800D02*
X155524100Y-123743800D01*
X157048100Y-123108800D02*
X155524100Y-123108800D01*
D15*
X155143100Y-125064600D02*
G75*
G03*
X155651100Y-125572600I508000J0D01*
G01*
X156921100Y-125572600D02*
G75*
G03*
X157429100Y-125064600I0J508000D01*
G01*
X155143100Y-125064600D02*
X155143100Y-121762600D01*
X155651100Y-125572600D02*
X156921100Y-125572600D01*
X157429100Y-125064600D02*
X157429100Y-121762600D01*
X155651100Y-121254600D02*
G75*
G03*
X155143100Y-121762600I0J-508000D01*
G01*
X157429100Y-121762600D02*
G75*
G03*
X156921100Y-121254600I-508000J0D01*
G01*
X155651100Y-121254600D02*
X156921100Y-121254600D01*
D16*
%TO.C,EME1*%
X137546100Y-126333600D02*
X137546100Y-127033600D01*
X137546100Y-126333600D02*
X139686100Y-126333600D01*
X139686100Y-127033600D02*
X139686100Y-126333600D01*
X137546100Y-127033600D02*
X139686100Y-127033600D01*
X134386100Y-126333600D02*
X134386100Y-127033600D01*
X138986100Y-125333600D02*
X139686100Y-125333600D01*
X132246100Y-125333600D02*
X132946100Y-125333600D01*
X132946100Y-123413600D02*
X138986100Y-123413600D01*
X132946100Y-123413600D02*
X132946100Y-121983600D01*
X132946100Y-125333600D02*
X132946100Y-123413600D01*
X134386100Y-126333600D02*
X132246100Y-126333600D01*
X138986100Y-123413600D02*
X138986100Y-125333600D01*
X138986100Y-121983600D02*
X138986100Y-123413600D01*
X132946100Y-121983600D02*
X138986100Y-121983600D01*
X132246100Y-125333600D02*
X132246100Y-121283600D01*
X132246100Y-127033600D02*
X132246100Y-126333600D01*
X134386100Y-127033600D02*
X132246100Y-127033600D01*
X139686100Y-121283600D02*
X139686100Y-125333600D01*
X132246100Y-121283600D02*
X139686100Y-121283600D01*
D15*
%TO.C,TWE_LEFT1*%
X127076100Y-116428600D02*
X127711100Y-115793600D01*
X127076100Y-117698600D02*
X127076100Y-116428600D01*
X127711100Y-118333600D02*
X127076100Y-117698600D01*
X128981100Y-118333600D02*
X127711100Y-118333600D01*
X129616100Y-117698600D02*
X128981100Y-118333600D01*
X129616100Y-116428600D02*
X129616100Y-117698600D01*
X128981100Y-115793600D02*
X129616100Y-116428600D01*
X127076100Y-84678600D02*
X127076100Y-83408600D01*
X127711100Y-82773600D02*
X127076100Y-83408600D01*
X129616100Y-83408600D02*
X128981100Y-82773600D01*
X128981100Y-82773600D02*
X127711100Y-82773600D01*
X127076100Y-85948600D02*
X127711100Y-85313600D01*
X127076100Y-87218600D02*
X127076100Y-85948600D01*
X127711100Y-87853600D02*
X127076100Y-87218600D01*
X128981100Y-87853600D02*
X127711100Y-87853600D01*
X129616100Y-87218600D02*
X128981100Y-87853600D01*
X129616100Y-85948600D02*
X129616100Y-87218600D01*
X128981100Y-85313600D02*
X129616100Y-85948600D01*
X127711100Y-85313600D02*
X127076100Y-84678600D01*
X128981100Y-85313600D02*
X127711100Y-85313600D01*
X129616100Y-84678600D02*
X128981100Y-85313600D01*
X129616100Y-83408600D02*
X129616100Y-84678600D01*
X127076100Y-92298600D02*
X127076100Y-91028600D01*
X127711100Y-90393600D02*
X127076100Y-91028600D01*
X129616100Y-91028600D02*
X128981100Y-90393600D01*
X127076100Y-88488600D02*
X127711100Y-87853600D01*
X127076100Y-89758600D02*
X127076100Y-88488600D01*
X127711100Y-90393600D02*
X127076100Y-89758600D01*
X128981100Y-90393600D02*
X127711100Y-90393600D01*
X129616100Y-89758600D02*
X128981100Y-90393600D01*
X129616100Y-88488600D02*
X129616100Y-89758600D01*
X128981100Y-87853600D02*
X129616100Y-88488600D01*
X127076100Y-93568600D02*
X127711100Y-92933600D01*
X127076100Y-94838600D02*
X127076100Y-93568600D01*
X127711100Y-95473600D02*
X127076100Y-94838600D01*
X128981100Y-95473600D02*
X127711100Y-95473600D01*
X129616100Y-94838600D02*
X128981100Y-95473600D01*
X129616100Y-93568600D02*
X129616100Y-94838600D01*
X128981100Y-92933600D02*
X129616100Y-93568600D01*
X127711100Y-92933600D02*
X127076100Y-92298600D01*
X128981100Y-92933600D02*
X127711100Y-92933600D01*
X129616100Y-92298600D02*
X128981100Y-92933600D01*
X129616100Y-91028600D02*
X129616100Y-92298600D01*
X127076100Y-99918600D02*
X127076100Y-98648600D01*
X127711100Y-98013600D02*
X127076100Y-98648600D01*
X129616100Y-98648600D02*
X128981100Y-98013600D01*
X127076100Y-96108600D02*
X127711100Y-95473600D01*
X127076100Y-97378600D02*
X127076100Y-96108600D01*
X127711100Y-98013600D02*
X127076100Y-97378600D01*
X128981100Y-98013600D02*
X127711100Y-98013600D01*
X129616100Y-97378600D02*
X128981100Y-98013600D01*
X129616100Y-96108600D02*
X129616100Y-97378600D01*
X128981100Y-95473600D02*
X129616100Y-96108600D01*
X127076100Y-101188600D02*
X127711100Y-100553600D01*
X127076100Y-102458600D02*
X127076100Y-101188600D01*
X127711100Y-103093600D02*
X127076100Y-102458600D01*
X128981100Y-103093600D02*
X127711100Y-103093600D01*
X129616100Y-102458600D02*
X128981100Y-103093600D01*
X129616100Y-101188600D02*
X129616100Y-102458600D01*
X128981100Y-100553600D02*
X129616100Y-101188600D01*
X127711100Y-100553600D02*
X127076100Y-99918600D01*
X128981100Y-100553600D02*
X127711100Y-100553600D01*
X129616100Y-99918600D02*
X128981100Y-100553600D01*
X129616100Y-98648600D02*
X129616100Y-99918600D01*
X127076100Y-107538600D02*
X127076100Y-106268600D01*
X127711100Y-105633600D02*
X127076100Y-106268600D01*
X129616100Y-106268600D02*
X128981100Y-105633600D01*
X127076100Y-103728600D02*
X127711100Y-103093600D01*
X127076100Y-104998600D02*
X127076100Y-103728600D01*
X127711100Y-105633600D02*
X127076100Y-104998600D01*
X128981100Y-105633600D02*
X127711100Y-105633600D01*
X129616100Y-104998600D02*
X128981100Y-105633600D01*
X129616100Y-103728600D02*
X129616100Y-104998600D01*
X128981100Y-103093600D02*
X129616100Y-103728600D01*
X127076100Y-108808600D02*
X127711100Y-108173600D01*
X127076100Y-110078600D02*
X127076100Y-108808600D01*
X127711100Y-110713600D02*
X127076100Y-110078600D01*
X128981100Y-110713600D02*
X127711100Y-110713600D01*
X129616100Y-110078600D02*
X128981100Y-110713600D01*
X129616100Y-108808600D02*
X129616100Y-110078600D01*
X128981100Y-108173600D02*
X129616100Y-108808600D01*
X127711100Y-108173600D02*
X127076100Y-107538600D01*
X128981100Y-108173600D02*
X127711100Y-108173600D01*
X129616100Y-107538600D02*
X128981100Y-108173600D01*
X129616100Y-106268600D02*
X129616100Y-107538600D01*
X127076100Y-115158600D02*
X127076100Y-113888600D01*
X127711100Y-113253600D02*
X127076100Y-113888600D01*
X129616100Y-113888600D02*
X128981100Y-113253600D01*
X127076100Y-111348600D02*
X127711100Y-110713600D01*
X127076100Y-112618600D02*
X127076100Y-111348600D01*
X127711100Y-113253600D02*
X127076100Y-112618600D01*
X128981100Y-113253600D02*
X127711100Y-113253600D01*
X129616100Y-112618600D02*
X128981100Y-113253600D01*
X129616100Y-111348600D02*
X129616100Y-112618600D01*
X128981100Y-110713600D02*
X129616100Y-111348600D01*
X127711100Y-115793600D02*
X127076100Y-115158600D01*
X128981100Y-115793600D02*
X127711100Y-115793600D01*
X129616100Y-115158600D02*
X128981100Y-115793600D01*
X129616100Y-113888600D02*
X129616100Y-115158600D01*
%TO.C,TWE_RIGHT1*%
X142316100Y-116428600D02*
X142951100Y-115793600D01*
X142316100Y-117698600D02*
X142316100Y-116428600D01*
X142951100Y-118333600D02*
X142316100Y-117698600D01*
X144221100Y-118333600D02*
X142951100Y-118333600D01*
X144856100Y-117698600D02*
X144221100Y-118333600D01*
X144856100Y-116428600D02*
X144856100Y-117698600D01*
X144221100Y-115793600D02*
X144856100Y-116428600D01*
X142316100Y-84678600D02*
X142316100Y-83408600D01*
X142951100Y-82773600D02*
X142316100Y-83408600D01*
X144856100Y-83408600D02*
X144221100Y-82773600D01*
X144221100Y-82773600D02*
X142951100Y-82773600D01*
X142316100Y-85948600D02*
X142951100Y-85313600D01*
X142316100Y-87218600D02*
X142316100Y-85948600D01*
X142951100Y-87853600D02*
X142316100Y-87218600D01*
X144221100Y-87853600D02*
X142951100Y-87853600D01*
X144856100Y-87218600D02*
X144221100Y-87853600D01*
X144856100Y-85948600D02*
X144856100Y-87218600D01*
X144221100Y-85313600D02*
X144856100Y-85948600D01*
X142951100Y-85313600D02*
X142316100Y-84678600D01*
X144221100Y-85313600D02*
X142951100Y-85313600D01*
X144856100Y-84678600D02*
X144221100Y-85313600D01*
X144856100Y-83408600D02*
X144856100Y-84678600D01*
X142316100Y-92298600D02*
X142316100Y-91028600D01*
X142951100Y-90393600D02*
X142316100Y-91028600D01*
X144856100Y-91028600D02*
X144221100Y-90393600D01*
X142316100Y-88488600D02*
X142951100Y-87853600D01*
X142316100Y-89758600D02*
X142316100Y-88488600D01*
X142951100Y-90393600D02*
X142316100Y-89758600D01*
X144221100Y-90393600D02*
X142951100Y-90393600D01*
X144856100Y-89758600D02*
X144221100Y-90393600D01*
X144856100Y-88488600D02*
X144856100Y-89758600D01*
X144221100Y-87853600D02*
X144856100Y-88488600D01*
X142316100Y-93568600D02*
X142951100Y-92933600D01*
X142316100Y-94838600D02*
X142316100Y-93568600D01*
X142951100Y-95473600D02*
X142316100Y-94838600D01*
X144221100Y-95473600D02*
X142951100Y-95473600D01*
X144856100Y-94838600D02*
X144221100Y-95473600D01*
X144856100Y-93568600D02*
X144856100Y-94838600D01*
X144221100Y-92933600D02*
X144856100Y-93568600D01*
X142951100Y-92933600D02*
X142316100Y-92298600D01*
X144221100Y-92933600D02*
X142951100Y-92933600D01*
X144856100Y-92298600D02*
X144221100Y-92933600D01*
X144856100Y-91028600D02*
X144856100Y-92298600D01*
X142316100Y-99918600D02*
X142316100Y-98648600D01*
X142951100Y-98013600D02*
X142316100Y-98648600D01*
X144856100Y-98648600D02*
X144221100Y-98013600D01*
X142316100Y-96108600D02*
X142951100Y-95473600D01*
X142316100Y-97378600D02*
X142316100Y-96108600D01*
X142951100Y-98013600D02*
X142316100Y-97378600D01*
X144221100Y-98013600D02*
X142951100Y-98013600D01*
X144856100Y-97378600D02*
X144221100Y-98013600D01*
X144856100Y-96108600D02*
X144856100Y-97378600D01*
X144221100Y-95473600D02*
X144856100Y-96108600D01*
X142316100Y-101188600D02*
X142951100Y-100553600D01*
X142316100Y-102458600D02*
X142316100Y-101188600D01*
X142951100Y-103093600D02*
X142316100Y-102458600D01*
X144221100Y-103093600D02*
X142951100Y-103093600D01*
X144856100Y-102458600D02*
X144221100Y-103093600D01*
X144856100Y-101188600D02*
X144856100Y-102458600D01*
X144221100Y-100553600D02*
X144856100Y-101188600D01*
X142951100Y-100553600D02*
X142316100Y-99918600D01*
X144221100Y-100553600D02*
X142951100Y-100553600D01*
X144856100Y-99918600D02*
X144221100Y-100553600D01*
X144856100Y-98648600D02*
X144856100Y-99918600D01*
X142316100Y-107538600D02*
X142316100Y-106268600D01*
X142951100Y-105633600D02*
X142316100Y-106268600D01*
X144856100Y-106268600D02*
X144221100Y-105633600D01*
X142316100Y-103728600D02*
X142951100Y-103093600D01*
X142316100Y-104998600D02*
X142316100Y-103728600D01*
X142951100Y-105633600D02*
X142316100Y-104998600D01*
X144221100Y-105633600D02*
X142951100Y-105633600D01*
X144856100Y-104998600D02*
X144221100Y-105633600D01*
X144856100Y-103728600D02*
X144856100Y-104998600D01*
X144221100Y-103093600D02*
X144856100Y-103728600D01*
X142316100Y-108808600D02*
X142951100Y-108173600D01*
X142316100Y-110078600D02*
X142316100Y-108808600D01*
X142951100Y-110713600D02*
X142316100Y-110078600D01*
X144221100Y-110713600D02*
X142951100Y-110713600D01*
X144856100Y-110078600D02*
X144221100Y-110713600D01*
X144856100Y-108808600D02*
X144856100Y-110078600D01*
X144221100Y-108173600D02*
X144856100Y-108808600D01*
X142951100Y-108173600D02*
X142316100Y-107538600D01*
X144221100Y-108173600D02*
X142951100Y-108173600D01*
X144856100Y-107538600D02*
X144221100Y-108173600D01*
X144856100Y-106268600D02*
X144856100Y-107538600D01*
X142316100Y-115158600D02*
X142316100Y-113888600D01*
X142951100Y-113253600D02*
X142316100Y-113888600D01*
X144856100Y-113888600D02*
X144221100Y-113253600D01*
X142316100Y-111348600D02*
X142951100Y-110713600D01*
X142316100Y-112618600D02*
X142316100Y-111348600D01*
X142951100Y-113253600D02*
X142316100Y-112618600D01*
X144221100Y-113253600D02*
X142951100Y-113253600D01*
X144856100Y-112618600D02*
X144221100Y-113253600D01*
X144856100Y-111348600D02*
X144856100Y-112618600D01*
X144221100Y-110713600D02*
X144856100Y-111348600D01*
X142951100Y-115793600D02*
X142316100Y-115158600D01*
X144221100Y-115793600D02*
X142951100Y-115793600D01*
X144856100Y-115158600D02*
X144221100Y-115793600D01*
X144856100Y-113888600D02*
X144856100Y-115158600D01*
%TO.C,TWE_LEFT2*%
X151206100Y-116428600D02*
X151841100Y-115793600D01*
X151206100Y-117698600D02*
X151206100Y-116428600D01*
X151841100Y-118333600D02*
X151206100Y-117698600D01*
X153111100Y-118333600D02*
X151841100Y-118333600D01*
X153746100Y-117698600D02*
X153111100Y-118333600D01*
X153746100Y-116428600D02*
X153746100Y-117698600D01*
X153111100Y-115793600D02*
X153746100Y-116428600D01*
X151206100Y-84678600D02*
X151206100Y-83408600D01*
X151841100Y-82773600D02*
X151206100Y-83408600D01*
X153746100Y-83408600D02*
X153111100Y-82773600D01*
X153111100Y-82773600D02*
X151841100Y-82773600D01*
X151206100Y-85948600D02*
X151841100Y-85313600D01*
X151206100Y-87218600D02*
X151206100Y-85948600D01*
X151841100Y-87853600D02*
X151206100Y-87218600D01*
X153111100Y-87853600D02*
X151841100Y-87853600D01*
X153746100Y-87218600D02*
X153111100Y-87853600D01*
X153746100Y-85948600D02*
X153746100Y-87218600D01*
X153111100Y-85313600D02*
X153746100Y-85948600D01*
X151841100Y-85313600D02*
X151206100Y-84678600D01*
X153111100Y-85313600D02*
X151841100Y-85313600D01*
X153746100Y-84678600D02*
X153111100Y-85313600D01*
X153746100Y-83408600D02*
X153746100Y-84678600D01*
X151206100Y-92298600D02*
X151206100Y-91028600D01*
X151841100Y-90393600D02*
X151206100Y-91028600D01*
X153746100Y-91028600D02*
X153111100Y-90393600D01*
X151206100Y-88488600D02*
X151841100Y-87853600D01*
X151206100Y-89758600D02*
X151206100Y-88488600D01*
X151841100Y-90393600D02*
X151206100Y-89758600D01*
X153111100Y-90393600D02*
X151841100Y-90393600D01*
X153746100Y-89758600D02*
X153111100Y-90393600D01*
X153746100Y-88488600D02*
X153746100Y-89758600D01*
X153111100Y-87853600D02*
X153746100Y-88488600D01*
X151206100Y-93568600D02*
X151841100Y-92933600D01*
X151206100Y-94838600D02*
X151206100Y-93568600D01*
X151841100Y-95473600D02*
X151206100Y-94838600D01*
X153111100Y-95473600D02*
X151841100Y-95473600D01*
X153746100Y-94838600D02*
X153111100Y-95473600D01*
X153746100Y-93568600D02*
X153746100Y-94838600D01*
X153111100Y-92933600D02*
X153746100Y-93568600D01*
X151841100Y-92933600D02*
X151206100Y-92298600D01*
X153111100Y-92933600D02*
X151841100Y-92933600D01*
X153746100Y-92298600D02*
X153111100Y-92933600D01*
X153746100Y-91028600D02*
X153746100Y-92298600D01*
X151206100Y-99918600D02*
X151206100Y-98648600D01*
X151841100Y-98013600D02*
X151206100Y-98648600D01*
X153746100Y-98648600D02*
X153111100Y-98013600D01*
X151206100Y-96108600D02*
X151841100Y-95473600D01*
X151206100Y-97378600D02*
X151206100Y-96108600D01*
X151841100Y-98013600D02*
X151206100Y-97378600D01*
X153111100Y-98013600D02*
X151841100Y-98013600D01*
X153746100Y-97378600D02*
X153111100Y-98013600D01*
X153746100Y-96108600D02*
X153746100Y-97378600D01*
X153111100Y-95473600D02*
X153746100Y-96108600D01*
X151206100Y-101188600D02*
X151841100Y-100553600D01*
X151206100Y-102458600D02*
X151206100Y-101188600D01*
X151841100Y-103093600D02*
X151206100Y-102458600D01*
X153111100Y-103093600D02*
X151841100Y-103093600D01*
X153746100Y-102458600D02*
X153111100Y-103093600D01*
X153746100Y-101188600D02*
X153746100Y-102458600D01*
X153111100Y-100553600D02*
X153746100Y-101188600D01*
X151841100Y-100553600D02*
X151206100Y-99918600D01*
X153111100Y-100553600D02*
X151841100Y-100553600D01*
X153746100Y-99918600D02*
X153111100Y-100553600D01*
X153746100Y-98648600D02*
X153746100Y-99918600D01*
X151206100Y-107538600D02*
X151206100Y-106268600D01*
X151841100Y-105633600D02*
X151206100Y-106268600D01*
X153746100Y-106268600D02*
X153111100Y-105633600D01*
X151206100Y-103728600D02*
X151841100Y-103093600D01*
X151206100Y-104998600D02*
X151206100Y-103728600D01*
X151841100Y-105633600D02*
X151206100Y-104998600D01*
X153111100Y-105633600D02*
X151841100Y-105633600D01*
X153746100Y-104998600D02*
X153111100Y-105633600D01*
X153746100Y-103728600D02*
X153746100Y-104998600D01*
X153111100Y-103093600D02*
X153746100Y-103728600D01*
X151206100Y-108808600D02*
X151841100Y-108173600D01*
X151206100Y-110078600D02*
X151206100Y-108808600D01*
X151841100Y-110713600D02*
X151206100Y-110078600D01*
X153111100Y-110713600D02*
X151841100Y-110713600D01*
X153746100Y-110078600D02*
X153111100Y-110713600D01*
X153746100Y-108808600D02*
X153746100Y-110078600D01*
X153111100Y-108173600D02*
X153746100Y-108808600D01*
X151841100Y-108173600D02*
X151206100Y-107538600D01*
X153111100Y-108173600D02*
X151841100Y-108173600D01*
X153746100Y-107538600D02*
X153111100Y-108173600D01*
X153746100Y-106268600D02*
X153746100Y-107538600D01*
X151206100Y-115158600D02*
X151206100Y-113888600D01*
X151841100Y-113253600D02*
X151206100Y-113888600D01*
X153746100Y-113888600D02*
X153111100Y-113253600D01*
X151206100Y-111348600D02*
X151841100Y-110713600D01*
X151206100Y-112618600D02*
X151206100Y-111348600D01*
X151841100Y-113253600D02*
X151206100Y-112618600D01*
X153111100Y-113253600D02*
X151841100Y-113253600D01*
X153746100Y-112618600D02*
X153111100Y-113253600D01*
X153746100Y-111348600D02*
X153746100Y-112618600D01*
X153111100Y-110713600D02*
X153746100Y-111348600D01*
X151841100Y-115793600D02*
X151206100Y-115158600D01*
X153111100Y-115793600D02*
X151841100Y-115793600D01*
X153746100Y-115158600D02*
X153111100Y-115793600D01*
X153746100Y-113888600D02*
X153746100Y-115158600D01*
%TO.C,TWE_RIGHT2*%
X166446100Y-116428600D02*
X167081100Y-115793600D01*
X166446100Y-117698600D02*
X166446100Y-116428600D01*
X167081100Y-118333600D02*
X166446100Y-117698600D01*
X168351100Y-118333600D02*
X167081100Y-118333600D01*
X168986100Y-117698600D02*
X168351100Y-118333600D01*
X168986100Y-116428600D02*
X168986100Y-117698600D01*
X168351100Y-115793600D02*
X168986100Y-116428600D01*
X166446100Y-84678600D02*
X166446100Y-83408600D01*
X167081100Y-82773600D02*
X166446100Y-83408600D01*
X168986100Y-83408600D02*
X168351100Y-82773600D01*
X168351100Y-82773600D02*
X167081100Y-82773600D01*
X166446100Y-85948600D02*
X167081100Y-85313600D01*
X166446100Y-87218600D02*
X166446100Y-85948600D01*
X167081100Y-87853600D02*
X166446100Y-87218600D01*
X168351100Y-87853600D02*
X167081100Y-87853600D01*
X168986100Y-87218600D02*
X168351100Y-87853600D01*
X168986100Y-85948600D02*
X168986100Y-87218600D01*
X168351100Y-85313600D02*
X168986100Y-85948600D01*
X167081100Y-85313600D02*
X166446100Y-84678600D01*
X168351100Y-85313600D02*
X167081100Y-85313600D01*
X168986100Y-84678600D02*
X168351100Y-85313600D01*
X168986100Y-83408600D02*
X168986100Y-84678600D01*
X166446100Y-92298600D02*
X166446100Y-91028600D01*
X167081100Y-90393600D02*
X166446100Y-91028600D01*
X168986100Y-91028600D02*
X168351100Y-90393600D01*
X166446100Y-88488600D02*
X167081100Y-87853600D01*
X166446100Y-89758600D02*
X166446100Y-88488600D01*
X167081100Y-90393600D02*
X166446100Y-89758600D01*
X168351100Y-90393600D02*
X167081100Y-90393600D01*
X168986100Y-89758600D02*
X168351100Y-90393600D01*
X168986100Y-88488600D02*
X168986100Y-89758600D01*
X168351100Y-87853600D02*
X168986100Y-88488600D01*
X166446100Y-93568600D02*
X167081100Y-92933600D01*
X166446100Y-94838600D02*
X166446100Y-93568600D01*
X167081100Y-95473600D02*
X166446100Y-94838600D01*
X168351100Y-95473600D02*
X167081100Y-95473600D01*
X168986100Y-94838600D02*
X168351100Y-95473600D01*
X168986100Y-93568600D02*
X168986100Y-94838600D01*
X168351100Y-92933600D02*
X168986100Y-93568600D01*
X167081100Y-92933600D02*
X166446100Y-92298600D01*
X168351100Y-92933600D02*
X167081100Y-92933600D01*
X168986100Y-92298600D02*
X168351100Y-92933600D01*
X168986100Y-91028600D02*
X168986100Y-92298600D01*
X166446100Y-99918600D02*
X166446100Y-98648600D01*
X167081100Y-98013600D02*
X166446100Y-98648600D01*
X168986100Y-98648600D02*
X168351100Y-98013600D01*
X166446100Y-96108600D02*
X167081100Y-95473600D01*
X166446100Y-97378600D02*
X166446100Y-96108600D01*
X167081100Y-98013600D02*
X166446100Y-97378600D01*
X168351100Y-98013600D02*
X167081100Y-98013600D01*
X168986100Y-97378600D02*
X168351100Y-98013600D01*
X168986100Y-96108600D02*
X168986100Y-97378600D01*
X168351100Y-95473600D02*
X168986100Y-96108600D01*
X166446100Y-101188600D02*
X167081100Y-100553600D01*
X166446100Y-102458600D02*
X166446100Y-101188600D01*
X167081100Y-103093600D02*
X166446100Y-102458600D01*
X168351100Y-103093600D02*
X167081100Y-103093600D01*
X168986100Y-102458600D02*
X168351100Y-103093600D01*
X168986100Y-101188600D02*
X168986100Y-102458600D01*
X168351100Y-100553600D02*
X168986100Y-101188600D01*
X167081100Y-100553600D02*
X166446100Y-99918600D01*
X168351100Y-100553600D02*
X167081100Y-100553600D01*
X168986100Y-99918600D02*
X168351100Y-100553600D01*
X168986100Y-98648600D02*
X168986100Y-99918600D01*
X166446100Y-107538600D02*
X166446100Y-106268600D01*
X167081100Y-105633600D02*
X166446100Y-106268600D01*
X168986100Y-106268600D02*
X168351100Y-105633600D01*
X166446100Y-103728600D02*
X167081100Y-103093600D01*
X166446100Y-104998600D02*
X166446100Y-103728600D01*
X167081100Y-105633600D02*
X166446100Y-104998600D01*
X168351100Y-105633600D02*
X167081100Y-105633600D01*
X168986100Y-104998600D02*
X168351100Y-105633600D01*
X168986100Y-103728600D02*
X168986100Y-104998600D01*
X168351100Y-103093600D02*
X168986100Y-103728600D01*
X166446100Y-108808600D02*
X167081100Y-108173600D01*
X166446100Y-110078600D02*
X166446100Y-108808600D01*
X167081100Y-110713600D02*
X166446100Y-110078600D01*
X168351100Y-110713600D02*
X167081100Y-110713600D01*
X168986100Y-110078600D02*
X168351100Y-110713600D01*
X168986100Y-108808600D02*
X168986100Y-110078600D01*
X168351100Y-108173600D02*
X168986100Y-108808600D01*
X167081100Y-108173600D02*
X166446100Y-107538600D01*
X168351100Y-108173600D02*
X167081100Y-108173600D01*
X168986100Y-107538600D02*
X168351100Y-108173600D01*
X168986100Y-106268600D02*
X168986100Y-107538600D01*
X166446100Y-115158600D02*
X166446100Y-113888600D01*
X167081100Y-113253600D02*
X166446100Y-113888600D01*
X168986100Y-113888600D02*
X168351100Y-113253600D01*
X166446100Y-111348600D02*
X167081100Y-110713600D01*
X166446100Y-112618600D02*
X166446100Y-111348600D01*
X167081100Y-113253600D02*
X166446100Y-112618600D01*
X168351100Y-113253600D02*
X167081100Y-113253600D01*
X168986100Y-112618600D02*
X168351100Y-113253600D01*
X168986100Y-111348600D02*
X168986100Y-112618600D01*
X168351100Y-110713600D02*
X168986100Y-111348600D01*
X167081100Y-115793600D02*
X166446100Y-115158600D01*
X168351100Y-115793600D02*
X167081100Y-115793600D01*
X168986100Y-115158600D02*
X168351100Y-115793600D01*
X168986100Y-113888600D02*
X168986100Y-115158600D01*
D16*
%TO.C,CELL_SUPPLY0*%
X164216100Y-126333600D02*
X164216100Y-127033600D01*
X164216100Y-126333600D02*
X166356100Y-126333600D01*
X166356100Y-127033600D02*
X166356100Y-126333600D01*
X164216100Y-127033600D02*
X166356100Y-127033600D01*
X161056100Y-126333600D02*
X161056100Y-127033600D01*
X165656100Y-125333600D02*
X166356100Y-125333600D01*
X158916100Y-125333600D02*
X159616100Y-125333600D01*
X159616100Y-123413600D02*
X165656100Y-123413600D01*
X159616100Y-123413600D02*
X159616100Y-121983600D01*
X159616100Y-125333600D02*
X159616100Y-123413600D01*
X161056100Y-126333600D02*
X158916100Y-126333600D01*
X165656100Y-123413600D02*
X165656100Y-125333600D01*
X165656100Y-121983600D02*
X165656100Y-123413600D01*
X159616100Y-121983600D02*
X165656100Y-121983600D01*
X158916100Y-125333600D02*
X158916100Y-121283600D01*
X158916100Y-127033600D02*
X158916100Y-126333600D01*
X161056100Y-127033600D02*
X158916100Y-127033600D01*
X166356100Y-121283600D02*
X166356100Y-125333600D01*
X158916100Y-121283600D02*
X166356100Y-121283600D01*
%TO.C,DEVICE0*%
X132631100Y-91853600D02*
X132631100Y-82153600D01*
X139301100Y-82153600D02*
X139301100Y-91853600D01*
X139301100Y-91853600D02*
X139816100Y-91853600D01*
X132631100Y-91853600D02*
X139301100Y-91853600D01*
X132116100Y-91853600D02*
X132631100Y-91853600D01*
X132116100Y-91853600D02*
X132116100Y-82153600D01*
X132631100Y-82153600D02*
X132116100Y-82153600D01*
X139301100Y-82153600D02*
X132631100Y-82153600D01*
X139816100Y-82153600D02*
X139301100Y-82153600D01*
X139836100Y-91853600D02*
X139816100Y-82153600D01*
D17*
%TO.C,REGYURETA0*%
X132391100Y-98553600D02*
X139541100Y-98553600D01*
X132391100Y-102553600D02*
X132391100Y-98553600D01*
X139541100Y-102553600D02*
X132391100Y-102553600D01*
X139541100Y-98553600D02*
X139541100Y-102553600D01*
D18*
%TO.C,C2*%
X138671100Y-109100600D02*
X138671100Y-108770600D01*
X138341100Y-108770600D02*
X138341100Y-109100600D01*
X138821100Y-109100600D02*
X138821100Y-108770600D01*
X138671100Y-109100600D02*
X138821100Y-109100600D01*
X138341100Y-109100600D02*
X138671100Y-109100600D01*
X138191100Y-109100600D02*
X138341100Y-109100600D01*
X138191100Y-108770600D02*
X138191100Y-109100600D01*
X138341100Y-108770600D02*
X138191100Y-108770600D01*
X138671100Y-108770600D02*
X138341100Y-108770600D01*
X138821100Y-108770600D02*
X138671100Y-108770600D01*
%TO.C,C3*%
X136131100Y-109100600D02*
X136131100Y-108770600D01*
X135801100Y-108770600D02*
X135801100Y-109100600D01*
X136281100Y-109100600D02*
X136281100Y-108770600D01*
X136131100Y-109100600D02*
X136281100Y-109100600D01*
X135801100Y-109100600D02*
X136131100Y-109100600D01*
X135651100Y-109100600D02*
X135801100Y-109100600D01*
X135651100Y-108770600D02*
X135651100Y-109100600D01*
X135801100Y-108770600D02*
X135651100Y-108770600D01*
X136131100Y-108770600D02*
X135801100Y-108770600D01*
X136281100Y-108770600D02*
X136131100Y-108770600D01*
%TO.C,C1*%
X138671100Y-106560600D02*
X138671100Y-106230600D01*
X138341100Y-106230600D02*
X138341100Y-106560600D01*
X138821100Y-106560600D02*
X138821100Y-106230600D01*
X138671100Y-106560600D02*
X138821100Y-106560600D01*
X138341100Y-106560600D02*
X138671100Y-106560600D01*
X138191100Y-106560600D02*
X138341100Y-106560600D01*
X138191100Y-106230600D02*
X138191100Y-106560600D01*
X138341100Y-106230600D02*
X138191100Y-106230600D01*
X138671100Y-106230600D02*
X138341100Y-106230600D01*
X138821100Y-106230600D02*
X138671100Y-106230600D01*
%TO.C,C4*%
X136131100Y-106560600D02*
X136131100Y-106230600D01*
X135801100Y-106230600D02*
X135801100Y-106560600D01*
X136281100Y-106560600D02*
X136281100Y-106230600D01*
X136131100Y-106560600D02*
X136281100Y-106560600D01*
X135801100Y-106560600D02*
X136131100Y-106560600D01*
X135651100Y-106560600D02*
X135801100Y-106560600D01*
X135651100Y-106230600D02*
X135651100Y-106560600D01*
X135801100Y-106230600D02*
X135651100Y-106230600D01*
X136131100Y-106230600D02*
X135801100Y-106230600D01*
X136281100Y-106230600D02*
X136131100Y-106230600D01*
D19*
%TO.C,H1*%
X161796100Y-85694600D02*
G75*
G03*
X161796100Y-85694600I-1700000J0D01*
G01*
D15*
X163525100Y-85694600D02*
G75*
G03*
X163525100Y-85694600I-3429000J0D01*
G01*
D19*
%TO.C,H2*%
X161796100Y-113253600D02*
G75*
G03*
X161796100Y-113253600I-1700000J0D01*
G01*
D15*
X163525100Y-113253600D02*
G75*
G03*
X163525100Y-113253600I-3429000J0D01*
G01*
D19*
%TO.C,H3*%
X137666100Y-114523600D02*
G75*
G03*
X137666100Y-114523600I-1700000J0D01*
G01*
D15*
X139395100Y-114523600D02*
G75*
G03*
X139395100Y-114523600I-3429000J0D01*
G01*
%TD*%
M02*
